<svg width="72" height="79" viewBox="0 0 72 79" fill="none" xmlns="http://www.w3.org/2000/svg">
<path d="M3.79247 52.6727C-1.2735 40.0522 1.3928 25.0321 11.6136 14.9001C21.9233 4.76818 36.9435 2.36851 49.4751 7.70111" stroke="#0D67F9" stroke-opacity="0.5" stroke-width="2.5" stroke-miterlimit="10" stroke-linecap="round" stroke-linejoin="round"/>
<path d="M68.229 26.7207C73.2949 39.3412 70.6286 54.3613 60.4078 64.4933C50.0981 74.6252 35.078 77.0249 22.5464 71.7812" stroke="#0D67F9" stroke-opacity="0.5" stroke-width="2.5" stroke-miterlimit="10" stroke-linecap="round" stroke-linejoin="round"/>
<path d="M44.2324 10.9009L50.1872 7.79017L46.9876 1.92432" stroke="#0D67F9" stroke-opacity="0.5" stroke-width="2.5" stroke-miterlimit="10" stroke-linecap="round" stroke-linejoin="round"/>
<path d="M26.9001 68.4041L20.8564 71.337L23.8783 77.3806" stroke="#0D67F9" stroke-opacity="0.5" stroke-width="2.5" stroke-miterlimit="10" stroke-linecap="round" stroke-linejoin="round"/>
<path d="M46.7201 44.674C46.7201 44.674 42.5429 37.3861 49.2975 29.565L53.0303 33.7422L54.8079 19.9663L40.6765 20.4996L44.5871 24.6768C44.5871 24.6768 35.6105 30.4538 29.478 26.2765" stroke="#0D67F9" stroke-width="2.5" stroke-miterlimit="10" stroke-linecap="round" stroke-linejoin="round"/>
<path d="M37.1188 42.2742C40.4075 42.2742 43.0735 39.6082 43.0735 36.3195C43.0735 33.0308 40.4075 30.3647 37.1188 30.3647C33.8301 30.3647 31.1641 33.0308 31.1641 36.3195C31.1641 39.6082 33.8301 42.2742 37.1188 42.2742Z" stroke="#0D67F9" stroke-width="1.8" stroke-miterlimit="10" stroke-linecap="round" stroke-linejoin="round"/>
<path d="M37.6531 35.9638L38.0086 34.4529C38.3641 34.6307 38.5419 34.9862 38.5419 35.2528L38.6308 35.5194L39.5195 35.2528L39.4307 34.9862C39.2529 34.2751 38.8085 33.7419 38.1864 33.4753L38.3641 32.4976C38.3641 32.4087 38.3641 32.231 38.2753 32.1421C38.1864 32.0532 38.0975 31.9644 38.0086 31.9644H37.9198C37.742 31.9644 37.5643 32.1421 37.4754 32.3199L37.2976 33.2086H36.9421C36.2311 33.2975 35.6978 33.8308 35.609 34.5418C35.4312 35.6083 36.6755 36.4971 36.5866 36.6748L36.32 38.0968C35.9645 37.9191 35.7867 37.5636 35.6978 37.2081V36.8526L34.8091 37.1192V37.297C34.898 38.008 35.3423 38.6301 36.1422 38.9856L35.9645 39.8744C35.9645 39.9633 35.9645 40.141 36.0534 40.2299C36.1422 40.3188 36.2311 40.4076 36.32 40.4076H36.4089C36.5866 40.4076 36.7644 40.2299 36.8532 40.0521L37.031 39.1634C37.1199 39.1634 37.2088 39.1634 37.2976 39.1634C38.1864 39.1634 38.8974 38.6301 38.9863 37.8302C39.164 36.9414 38.2753 36.4082 37.6531 35.9638ZM36.8532 35.5194C36.5866 35.2528 36.4977 35.075 36.4977 34.8084C36.5866 34.5418 36.6755 34.364 36.9421 34.2751H37.1199L36.8532 35.5194ZM37.2088 38.3635C37.1199 38.3635 37.1199 38.3635 37.2088 38.3635L37.3865 37.2081C37.3865 37.1192 38.0975 37.4747 38.0086 37.8302C37.9198 38.1857 37.6531 38.3635 37.2088 38.3635Z" fill="#0D67F9"/>
<path d="M23.9665 46.7181C27.2552 46.7181 29.9212 44.052 29.9212 40.7633C29.9212 37.4746 27.2552 34.8086 23.9665 34.8086C20.6777 34.8086 18.0117 37.4746 18.0117 40.7633C18.0117 44.052 20.6777 46.7181 23.9665 46.7181Z" stroke="#0D67F9" stroke-width="1.8" stroke-miterlimit="10" stroke-linecap="round" stroke-linejoin="round"/>
<path d="M24.234 40.2304L23.8785 38.7195C24.3229 38.7195 24.5895 38.9861 24.6784 39.2527L24.8561 39.5193L25.5672 38.8972L25.3894 38.7195C24.945 38.1862 24.3229 37.8307 23.6119 37.9196L23.3452 37.0308C23.3452 36.9419 23.2564 36.853 23.1675 36.7642C23.0786 36.6753 22.9897 36.6753 22.812 36.6753H22.7231C22.5454 36.7642 22.4565 36.9419 22.4565 37.2086L22.7231 38.0973L22.4565 38.2751C21.8343 38.7195 21.5677 39.3416 21.7455 40.0526C22.0121 41.1191 23.523 41.2969 23.6119 41.5635L23.9674 42.8967C23.523 42.8967 23.2564 42.63 23.0786 42.3634L22.9009 42.0968L22.1898 42.5411L22.2787 42.7189C22.6342 43.341 23.3452 43.6965 24.1451 43.6965L24.4118 44.5853C24.4118 44.6742 24.5006 44.7631 24.5895 44.8519C24.6784 44.9408 24.7673 44.9408 24.945 44.9408H25.0339C25.2117 44.8519 25.3005 44.6742 25.3005 44.4076L25.1228 43.5188C25.2117 43.5188 25.3005 43.4299 25.3894 43.4299C26.1893 43.0744 26.5448 42.2745 26.3671 41.4746C26.0115 40.4081 25.0339 40.3192 24.234 40.2304ZM23.3452 40.1415C22.9897 40.0526 22.812 39.9637 22.7231 39.6971C22.6342 39.4305 22.7231 39.2527 22.9009 38.9861L22.9897 38.8972L23.3452 40.1415ZM24.8561 42.63L24.5006 41.4746C24.5006 41.3858 25.2117 41.3858 25.3005 41.7413C25.4783 42.0968 25.3005 42.3634 24.8561 42.63Z" fill="#0D67F9"/>
<path d="M36.1427 56.2278C39.4314 56.2278 42.0975 53.5618 42.0975 50.2731C42.0975 46.9844 39.4314 44.3184 36.1427 44.3184C32.854 44.3184 30.188 46.9844 30.188 50.2731C30.188 53.5618 32.854 56.2278 36.1427 56.2278Z" stroke="#0D67F9" stroke-width="1.8" stroke-miterlimit="10" stroke-linecap="round" stroke-linejoin="round"/>
<path d="M36.4103 49.7401L36.0548 48.2292C36.4992 48.2292 36.7658 48.4959 36.8547 48.7625L37.0324 49.0291L37.7434 48.407L37.5657 48.2292C37.1213 47.696 36.4992 47.3405 35.7881 47.4293L35.5215 46.5406C35.5215 46.4517 35.4326 46.3628 35.3438 46.2739C35.2549 46.1851 35.166 46.1851 34.9883 46.1851H34.8994C34.7216 46.2739 34.6327 46.4517 34.6327 46.7183L34.8994 47.6071L34.6327 47.7848C34.0106 48.2292 33.744 48.8514 33.9217 49.5624C34.1884 50.6289 35.6993 50.8066 35.7881 51.0733L36.1437 52.4064C35.6993 52.4064 35.4326 52.1398 35.2549 51.8732L35.0771 51.4288L34.3661 52.0509L34.455 52.2287C34.8105 52.8508 35.5215 53.2063 36.3214 53.2063L36.588 54.0951C36.588 54.184 36.6769 54.2728 36.7658 54.3617C36.8547 54.4506 36.9435 54.4506 37.1213 54.4506H37.2102C37.3879 54.3617 37.4768 54.184 37.4768 53.9173L37.299 53.0286C37.3879 53.0286 37.4768 52.9397 37.5657 52.9397C38.3656 52.5842 38.7211 51.7843 38.5433 50.9844C38.1878 49.9179 37.2102 49.829 36.4103 49.7401ZM35.5215 49.6512C35.166 49.5624 34.9883 49.4735 34.8994 49.2069C34.8105 48.9402 34.8994 48.7625 35.0771 48.4959L35.166 48.407L35.5215 49.6512ZM37.0324 52.0509C37.0324 52.0509 37.0324 52.1398 37.0324 52.0509L36.6769 50.8955C36.6769 50.8066 37.3879 50.8066 37.4768 51.1622C37.6546 51.6065 37.4768 51.8732 37.0324 52.0509Z" fill="#0D67F9"/>
<path d="M18.813 55.7836L24.5011 50.0955" stroke="#0D67F9" stroke-width="2.1693" stroke-miterlimit="10" stroke-linecap="round" stroke-linejoin="round"/>
<path d="M21.7456 59.3386L24.0564 57.0278" stroke="#0D67F9" stroke-width="2.1693" stroke-miterlimit="10" stroke-linecap="round" stroke-linejoin="round"/>
<path d="M25.7441 55.0726L28.6771 52.2285" stroke="#0D67F9" stroke-width="2.1693" stroke-miterlimit="10" stroke-linecap="round" stroke-linejoin="round"/>
<path d="M28.8555 58.8054L30.8996 56.939" stroke="#0D67F9" stroke-width="2.1693" stroke-miterlimit="10" stroke-linecap="round" stroke-linejoin="round"/>
<path d="M17.123 49.2956L19.1672 47.4292" stroke="#0D67F9" stroke-width="2.1693" stroke-miterlimit="10" stroke-linecap="round" stroke-linejoin="round"/>
</svg>
