<svg width="72" height="72" viewBox="0 0 72 72" fill="none" xmlns="http://www.w3.org/2000/svg">
<path d="M63.8895 17.1777C67.6339 22.6446 69.8806 29.3097 69.8806 36.499C69.8806 55.3709 54.5284 70.6482 35.6565 70.6482C16.7846 70.6482 1.50732 55.3709 1.50732 36.499C1.50732 17.6271 16.7846 2.2749 35.6565 2.2749" stroke="#0D67F9" stroke-opacity="0.5" stroke-width="2.5" stroke-miterlimit="10" stroke-linecap="round"/>
<path d="M58.7235 36.499C58.7235 49.2301 48.3888 59.4898 35.7327 59.4898C23.0765 59.4898 12.667 49.1552 12.667 36.499" stroke="#0D67F9" stroke-width="2.5" stroke-miterlimit="10" stroke-linecap="round"/>
<path d="M47.3392 36.499C47.3392 49.2301 42.097 59.4898 35.6566 59.4898C29.2161 59.4898 24.0488 49.1552 24.0488 36.499" stroke="#0D67F9" stroke-width="2.5" stroke-miterlimit="10" stroke-linecap="round"/>
<path d="M53.4051 50.7281C49.2113 48.107 42.7709 46.4595 35.6565 46.4595C28.4672 46.4595 22.1017 48.107 17.833 50.7281" stroke="#0D67F9" stroke-width="2.5" stroke-miterlimit="10" stroke-linecap="round"/>
<path d="M12.667 36.499H58.7235V11.1118" stroke="#0D67F9" stroke-width="2.5" stroke-miterlimit="10" stroke-linecap="round"/>
<path d="M35.6572 23.1689V59.4899" stroke="#0D67F9" stroke-width="2.5" stroke-miterlimit="10" stroke-linecap="round"/>
<path d="M47.3408 36.4994V15.6055" stroke="#0D67F9" stroke-width="2.5" stroke-miterlimit="10" stroke-linecap="round"/>
<path d="M24.0488 36.4993V29.5347" stroke="#0D67F9" stroke-width="2.5" stroke-miterlimit="10" stroke-linecap="round"/>
<path d="M8.84717 25.4907L18.8822 32.3805L28.6177 13.0592L38.7277 19.2001L48.4632 2.72461" stroke="#0D67F9" stroke-width="2.5" stroke-miterlimit="10" stroke-linecap="round"/>
<path d="M50.5596 8.19121L48.8372 1.82568L42.4717 3.54812" stroke="#0D67F9" stroke-width="2.5" stroke-miterlimit="10" stroke-linecap="round" stroke-linejoin="round"/>
</svg>
