<svg width="82" height="82" viewBox="0 0 82 82" fill="none" xmlns="http://www.w3.org/2000/svg">
<path d="M75.2653 42.7793C74.8396 50.0155 72.2856 56.5424 68.1709 61.9341" stroke="#0D67F9" stroke-opacity="0.5" stroke-width="2.5" stroke-miterlimit="10"/>
<path d="M43.1987 6.88232C50.1512 7.30799 56.5361 9.72007 61.786 13.6929" stroke="#0D67F9" stroke-opacity="0.5" stroke-width="2.5" stroke-miterlimit="10"/>
<path d="M18.228 15.6795C23.336 11.1391 29.7209 8.01762 36.8153 7.02441" stroke="#0D67F9" stroke-opacity="0.5" stroke-width="2.5" stroke-miterlimit="10"/>
<path d="M7.01758 39.091C7.44324 31.8548 9.99721 25.328 14.1119 20.0781" stroke="#0D67F9" stroke-opacity="0.5" stroke-width="2.5" stroke-miterlimit="10"/>
<path d="M15.8135 63.9209C11.2731 58.9549 8.2935 52.5699 7.30029 45.4756" stroke="#0D67F9" stroke-opacity="0.5" stroke-width="2.5" stroke-miterlimit="10"/>
<path d="M39.3686 75.1303C32.1324 74.8465 25.6056 72.1506 20.2139 68.0359" stroke="#0D67F9" stroke-opacity="0.5" stroke-width="2.5" stroke-miterlimit="10"/>
<path d="M63.9158 66.4751C58.8079 71.0155 52.423 73.9951 45.3286 74.8464" stroke="#0D67F9" stroke-opacity="0.5" stroke-width="2.5" stroke-miterlimit="10"/>
<path d="M67.1787 18.9429C71.4353 23.9089 74.2731 30.2939 74.9825 37.1044" stroke="#0D67F9" stroke-opacity="0.5" stroke-width="2.5" stroke-miterlimit="10"/>
<path d="M48.448 34.4082L33.2661 49.5901" stroke="#0D67F9" stroke-width="2.5" stroke-miterlimit="10"/>
<path d="M45.3265 51.8605C47.2855 51.8605 48.8737 50.2723 48.8737 48.3133C48.8737 46.3542 47.2855 44.7661 45.3265 44.7661C43.3674 44.7661 41.7793 46.3542 41.7793 48.3133C41.7793 50.2723 43.3674 51.8605 45.3265 51.8605Z" stroke="#0D67F9" stroke-width="2.5" stroke-miterlimit="10"/>
<path d="M37.5233 37.2457C39.4823 37.2457 41.0704 35.6576 41.0704 33.6985C41.0704 31.7395 39.4823 30.1514 37.5233 30.1514C35.5642 30.1514 33.9761 31.7395 33.9761 33.6985C33.9761 35.6576 35.5642 37.2457 37.5233 37.2457Z" stroke="#0D67F9" stroke-width="2.5" stroke-miterlimit="10"/>
<path d="M67.7454 68.4613L51.2865 59.8061C50.1514 59.2386 48.7325 59.8061 48.4487 61.0831L44.1921 79.1028C43.7665 81.0892 41.0706 81.0892 40.3612 79.2447L34.8276 61.5088C34.4019 60.2318 32.983 59.8061 31.9898 60.3737L16.2403 70.1639C14.5377 71.1571 12.5513 69.3126 13.5445 67.6099L22.1996 51.151C22.7671 50.0159 22.1996 48.597 20.9226 48.3133L2.90292 44.0566C1.05839 43.7729 0.916499 41.077 2.90292 40.5095L20.6388 34.9759C21.9158 34.5502 22.3415 33.1313 21.7739 32.1381L11.8418 16.2467C10.8486 14.5441 12.6931 12.5577 14.3958 13.5509L30.8547 22.206C31.9898 22.7736 33.4087 22.206 33.6925 20.929L37.9491 2.90934C38.3747 0.922916 41.0706 0.781029 41.6381 2.76745L47.1718 20.5034C47.5974 21.7803 49.0163 22.206 50.0095 21.6385L65.759 11.8482C67.4616 10.855 69.4481 12.6996 68.4548 14.4022L59.7997 30.8611C59.2322 31.9962 59.7997 33.4151 61.0767 33.6989L79.0964 37.9555C81.0828 38.3812 81.0828 41.077 79.2383 41.7865L61.5024 47.3201C60.2254 47.7457 59.7997 49.1646 60.3673 50.1578L70.1575 65.9073C71.4345 67.3262 69.5899 69.4545 67.7454 68.4613Z" stroke="#0D67F9" stroke-width="2.5" stroke-miterlimit="10"/>
</svg>
