<?xml version="1.0" encoding="utf-8"?>
<!-- Generator: Adobe Illustrator 25.2.2, SVG Export Plug-In . SVG Version: 6.00 Build 0)  -->
<svg version="1.1" id="Layer_1" xmlns="http://www.w3.org/2000/svg" xmlns:xlink="http://www.w3.org/1999/xlink" x="0px" y="0px"
	 viewBox="0 0 100 88.4" style="enable-background:new 0 0 100 88.4;" xml:space="preserve">
<style type="text/css">
	.st0{opacity:0.8;}
	.st1{fill:#FFFFFF;}
	.st2{fill:#7473AD;}
	.st3{opacity:0.3;fill:#7473AD;}
	.st4{opacity:0.5;fill:#7473AD;}
	.st5{fill:url(#SVGID_1_);}
	.st6{fill-rule:evenodd;clip-rule:evenodd;fill:url(#SVGID_2_);}
</style>
<g>
	<g class="st0">
		<path class="st1" d="M13.9,31.6l0.4-1.3c0-0.1,0.1-0.2,0.2-0.1l5,1.6c0.1,0,0.2,0.1,0.1,0.2l-0.2,0.7c0,0.1-0.1,0.2-0.2,0.1
			l-4-1.2l0,0l2.5,1.8c0.1,0.1,0.1,0.2,0.1,0.3l-0.2,0.8c0,0.1-0.1,0.2-0.2,0.2l-3.1,0.1l0,0l4,1.2c0.1,0,0.1,0,0.1,0.1
			c0,0,0,0.1,0,0.2l-0.2,0.7c0,0.1-0.1,0.2-0.2,0.1l-5-1.6c-0.1,0-0.2-0.1-0.1-0.2l0.4-1.3c0-0.1,0.1-0.1,0.2-0.1l3.3,0l0-0.1
			L14,31.8C13.9,31.8,13.9,31.7,13.9,31.6z"/>
		<path class="st1" d="M21.4,28.6l-0.5,0.9c-0.2,0.4-0.5,0.7-0.9,0.8c-0.3,0.1-0.7,0.1-1.1-0.1l-2.5-1.3c-0.4-0.2-0.7-0.5-0.8-0.9
			c-0.1-0.4,0-0.7,0.2-1.2l0.5-0.9c0.2-0.4,0.5-0.7,0.9-0.8c0.3-0.1,0.7-0.1,1.1,0.1l2.5,1.3c0.4,0.2,0.7,0.5,0.8,0.9
			C21.7,27.7,21.6,28.1,21.4,28.6z M20.2,28.9l0.3-0.6c0.1-0.2,0.1-0.3,0.1-0.4c0-0.1-0.1-0.2-0.3-0.3l-2.4-1.2
			c-0.2-0.1-0.3-0.1-0.4-0.1c-0.1,0-0.2,0.1-0.3,0.3l-0.3,0.6c-0.1,0.2-0.1,0.3-0.1,0.4c0,0.1,0.1,0.2,0.3,0.3l2.4,1.2
			c0.2,0.1,0.3,0.1,0.4,0.1C20,29.2,20.1,29,20.2,28.9z"/>
		<path class="st1" d="M21.5,25.5l-0.1-0.1c-0.1-0.1-0.1-0.2,0-0.3l0.5-0.6c0.1-0.1,0.2-0.1,0.3,0l0.1,0c0.2,0.1,0.3,0.2,0.5,0.2
			c0.1,0,0.3-0.1,0.4-0.3l0.3-0.4c0.1-0.2,0.2-0.4,0.2-0.5c0-0.1-0.1-0.3-0.3-0.4L23,23c-0.1-0.1-0.3-0.1-0.4-0.1
			c-0.2,0.1-0.3,0.2-0.5,0.3c-0.1,0.2-0.3,0.3-0.5,0.5c-0.2,0.2-0.4,0.3-0.6,0.5c-0.2,0.1-0.4,0.2-0.7,0.2c-0.3,0-0.6-0.1-0.8-0.4
			l-0.2-0.2c-0.4-0.3-0.6-0.6-0.6-1c0-0.4,0.1-0.8,0.4-1.1l0.6-0.8c0.3-0.4,0.6-0.6,1-0.7c0.4-0.1,0.7,0,1.1,0.3l0.1,0.1
			c0.1,0.1,0.1,0.2,0,0.3l-0.5,0.6c-0.1,0.1-0.2,0.1-0.3,0l0,0c-0.2-0.1-0.3-0.2-0.5-0.2c-0.1,0-0.3,0.1-0.4,0.3L20,22.1
			c-0.2,0.2-0.2,0.4-0.2,0.5c0,0.1,0.1,0.3,0.3,0.4l0.1,0.1c0.2,0.2,0.5,0.1,0.8-0.3c0.3-0.4,0.7-0.7,1.1-1c0.2-0.1,0.4-0.2,0.7-0.2
			c0.3,0,0.5,0.1,0.8,0.3l0.2,0.2c0.4,0.3,0.6,0.6,0.6,1c0,0.4-0.1,0.8-0.4,1.1l-0.6,0.8c-0.3,0.4-0.6,0.6-1,0.7
			C22.2,25.9,21.8,25.8,21.5,25.5z"/>
		<path class="st1" d="M27.1,21l-0.6,0.6c-0.1,0.1-0.2,0.1-0.3,0l-3.1-3.1c0,0-0.1,0-0.1,0l-0.8,0.8c-0.1,0.1-0.2,0.1-0.3,0
			l-0.4-0.4c-0.1-0.1-0.1-0.2,0-0.3l2.5-2.5c0.1-0.1,0.2-0.1,0.3,0l0.4,0.4c0.1,0.1,0.1,0.2,0,0.3L24,17.5c-0.1,0.1-0.1,0.1,0,0.1
			l3.1,3.1C27.2,20.8,27.2,20.9,27.1,21z"/>
		<path class="st1" d="M32.1,17l-0.7,0.4c-0.1,0.1-0.2,0.1-0.3,0l-2.5-3.6c0-0.1-0.1-0.1-0.1,0l-0.9,0.6c-0.1,0.1-0.2,0.1-0.3,0
			l-0.3-0.5c-0.1-0.1,0-0.2,0.1-0.3l2.9-2c0.1-0.1,0.2-0.1,0.3,0l0.3,0.5c0.1,0.1,0,0.2-0.1,0.3l-0.9,0.6c-0.1,0-0.1,0.1,0,0.1
			l2.5,3.6C32.2,16.8,32.2,16.9,32.1,17z"/>
		<path class="st1" d="M34.9,15.3l-0.7,0.3c-0.1,0.1-0.2,0-0.3-0.1l-2.3-4.7c-0.1-0.1,0-0.2,0.1-0.3l2-1c0.4-0.2,0.8-0.3,1.2-0.2
			c0.4,0.1,0.6,0.4,0.8,0.8l0.3,0.6c0.3,0.6,0.2,1.1-0.2,1.5l0,0l1.8,1.3c0.1,0.1,0.1,0.2-0.1,0.3l-0.7,0.3c-0.1,0-0.2,0.1-0.2,0.1
			c-0.1,0-0.1,0-0.2-0.1L34.8,13l-0.6,0.3c-0.1,0-0.1,0.1-0.1,0.1L35,15C35,15.1,35,15.2,34.9,15.3z M33.9,12.5l0.8-0.4
			c0.2-0.1,0.3-0.2,0.3-0.3c0-0.1,0-0.2,0-0.4l-0.3-0.6c-0.1-0.2-0.2-0.3-0.3-0.3c-0.1,0-0.3,0-0.5,0.1L33.1,11
			c-0.1,0-0.1,0.1-0.1,0.1l0.7,1.4C33.8,12.5,33.8,12.5,33.9,12.5z"/>
		<path class="st1" d="M39.9,7.3l0.8-0.2c0.1,0,0.2,0,0.2,0.1l1.2,3.9c0.1,0.4,0.1,0.8-0.1,1.1c-0.2,0.3-0.5,0.5-1,0.7l-1,0.3
			c-0.5,0.1-0.9,0.1-1.2,0c-0.3-0.2-0.6-0.5-0.7-0.9L37,8.4c0-0.1,0-0.2,0.1-0.2l0.8-0.2c0.1,0,0.2,0,0.2,0.1l1.2,3.8
			c0.1,0.2,0.1,0.3,0.2,0.3c0.1,0.1,0.2,0,0.4,0l0.6-0.2c0.2-0.1,0.3-0.1,0.4-0.2c0.1-0.1,0.1-0.2,0-0.4l-1.2-3.8
			C39.7,7.4,39.8,7.3,39.9,7.3z"/>
		<path class="st1" d="M43.2,10.8l0-0.2c0-0.1,0-0.2,0.2-0.2l0.8-0.1c0.1,0,0.2,0,0.2,0.2l0,0.1c0,0.2,0.1,0.4,0.2,0.4
			c0.1,0.1,0.3,0.1,0.5,0.1l0.4-0.1c0.2,0,0.4-0.1,0.5-0.2c0.1-0.1,0.1-0.3,0.1-0.5l0-0.1c0-0.2-0.1-0.3-0.3-0.4
			c-0.2-0.1-0.3-0.1-0.6-0.1c-0.2,0-0.5,0-0.7,0c-0.3,0-0.5,0-0.7-0.1c-0.2,0-0.4-0.2-0.6-0.4c-0.2-0.2-0.3-0.5-0.3-0.9l0-0.3
			c-0.1-0.5,0-0.8,0.3-1.1c0.2-0.3,0.6-0.5,1.1-0.5l0.9-0.1c0.5-0.1,0.9,0,1.2,0.2c0.3,0.2,0.5,0.5,0.6,1l0,0.2c0,0.1,0,0.2-0.2,0.2
			L45.9,8c-0.1,0-0.2,0-0.2-0.2l0-0.1c0-0.2-0.1-0.4-0.2-0.4c-0.1-0.1-0.3-0.1-0.5-0.1l-0.4,0.1c-0.3,0-0.4,0.1-0.5,0.2
			C44,7.6,44,7.8,44.1,8.1l0,0.2c0,0.3,0.3,0.4,0.8,0.4c0.5,0,1,0,1.4,0.1c0.2,0.1,0.4,0.2,0.6,0.4c0.2,0.2,0.3,0.5,0.3,0.8l0,0.3
			c0.1,0.5,0,0.8-0.3,1.1s-0.6,0.5-1.1,0.5L45,12c-0.5,0.1-0.9,0-1.2-0.2C43.5,11.6,43.3,11.2,43.2,10.8z"/>
		<path class="st1" d="M50.4,11.6l-0.8,0c-0.1,0-0.2-0.1-0.2-0.2L49.5,7c0-0.1,0-0.1-0.1-0.1l-1.1,0c-0.1,0-0.2-0.1-0.2-0.2l0-0.6
			c0-0.1,0.1-0.2,0.2-0.2L51.9,6c0.1,0,0.2,0.1,0.2,0.2l0,0.6C52.1,6.9,52,7,51.9,7l-1.1,0c-0.1,0-0.1,0-0.1,0.1l-0.1,4.4
			C50.6,11.6,50.6,11.6,50.4,11.6z"/>
		<path class="st1" d="M56,12.1l-3-0.4c-0.1,0-0.2-0.1-0.2-0.2l0.7-5.2c0-0.1,0.1-0.2,0.2-0.2l3,0.4c0.1,0,0.2,0.1,0.2,0.2l-0.1,0.6
			c0,0.1-0.1,0.2-0.2,0.2l-1.9-0.3c-0.1,0-0.1,0-0.1,0.1l-0.2,1.1c0,0.1,0,0.1,0.1,0.1l1.6,0.2c0.1,0,0.2,0.1,0.2,0.2l-0.1,0.6
			c0,0.1-0.1,0.2-0.2,0.2l-1.6-0.2c-0.1,0-0.1,0-0.1,0.1l-0.2,1.2c0,0.1,0,0.1,0.1,0.1l1.9,0.3c0.1,0,0.2,0.1,0.2,0.2L56.2,12
			C56.2,12.1,56.1,12.1,56,12.1z"/>
		<path class="st1" d="M57.2,12.2l1.5-5.1c0-0.1,0.1-0.2,0.2-0.1l2.2,0.6c0.5,0.1,0.8,0.4,1,0.7c0.2,0.3,0.2,0.7,0.1,1.1l-0.8,2.7
			c-0.1,0.4-0.4,0.7-0.7,0.9c-0.3,0.2-0.7,0.2-1.2,0l-2.2-0.6C57.2,12.4,57.2,12.3,57.2,12.2z M58.7,11.8l1,0.3
			c0.2,0.1,0.3,0.1,0.4,0c0.1-0.1,0.2-0.2,0.2-0.3l0.7-2.6c0.1-0.2,0-0.3,0-0.4c-0.1-0.1-0.2-0.2-0.4-0.2l-1-0.3
			c-0.1,0-0.1,0-0.1,0.1l-1,3.4C58.6,11.7,58.6,11.7,58.7,11.8z"/>
		<path class="st1" d="M64.2,14.6l2.6-4.6c0.1-0.1,0.1-0.1,0.3-0.1l2,1.1c0.4,0.2,0.7,0.5,0.8,0.9c0.1,0.3,0.1,0.7-0.2,1.1l-0.2,0.3
			c-0.2,0.4-0.6,0.6-1.1,0.5c0.2,0.2,0.3,0.3,0.4,0.5c0.1,0.2,0,0.4-0.1,0.7l-0.3,0.5c-0.2,0.4-0.5,0.6-0.9,0.7
			c-0.4,0.1-0.7,0-1.2-0.2l-2-1.1C64.2,14.8,64.1,14.7,64.2,14.6z M65.7,14.6l0.9,0.5c0.2,0.1,0.3,0.1,0.4,0.1
			c0.1,0,0.2-0.1,0.3-0.3l0.2-0.4c0.1-0.2,0.1-0.3,0.1-0.4c0-0.1-0.2-0.2-0.3-0.3l-0.9-0.5c-0.1,0-0.1,0-0.1,0l-0.6,1.2
			C65.6,14.5,65.6,14.5,65.7,14.6z M66.9,12.5l0.8,0.5c0.2,0.1,0.3,0.1,0.4,0.1c0.1,0,0.2-0.1,0.3-0.3l0.2-0.3
			c0.1-0.2,0.1-0.3,0.1-0.4c0-0.1-0.1-0.2-0.3-0.3l-0.8-0.5c-0.1,0-0.1,0-0.1,0l-0.6,1C66.8,12.4,66.8,12.4,66.9,12.5z"/>
		<path class="st1" d="M69.3,18l-0.6-0.5c-0.1-0.1-0.1-0.2,0-0.3l3.3-4.1c0.1-0.1,0.2-0.1,0.3,0l1.8,1.4c0.4,0.3,0.6,0.6,0.7,1
			c0.1,0.4,0,0.7-0.3,1.1L73.9,17c-0.4,0.5-0.9,0.7-1.5,0.5l0,0l-0.4,2.2c0,0.1-0.1,0.2-0.3,0.1l-0.6-0.5c-0.1-0.1-0.1-0.1-0.2-0.2
			c0,0,0-0.1,0-0.2l0.4-2.1l-0.5-0.4c-0.1,0-0.1,0-0.1,0l-1.1,1.4C69.5,18,69.4,18,69.3,18z M71.4,15.8l0.7,0.6
			c0.2,0.1,0.3,0.2,0.4,0.2c0.1,0,0.2-0.1,0.3-0.2l0.4-0.5c0.1-0.1,0.2-0.3,0.1-0.4c0-0.1-0.1-0.2-0.3-0.4l-0.7-0.6
			c-0.1,0-0.1,0-0.1,0l-0.9,1.2C71.3,15.7,71.3,15.8,71.4,15.8z"/>
		<path class="st1" d="M74.2,22.4l-0.7-0.8c-0.3-0.4-0.5-0.7-0.5-1.1c0-0.4,0.2-0.7,0.5-1l2-1.9c0.3-0.3,0.7-0.5,1.1-0.4
			c0.4,0,0.7,0.2,1,0.6l0.7,0.8c0.3,0.4,0.5,0.7,0.5,1.1c0,0.4-0.2,0.7-0.5,1l-2,1.9c-0.3,0.3-0.7,0.5-1.1,0.4
			C74.9,22.9,74.5,22.7,74.2,22.4z M74.3,21.1l0.5,0.5c0.1,0.1,0.3,0.2,0.4,0.2c0.1,0,0.2-0.1,0.4-0.2l2-1.8
			c0.1-0.1,0.2-0.2,0.2-0.4c0-0.1-0.1-0.2-0.2-0.4L77,18.6c-0.1-0.1-0.3-0.2-0.4-0.2c-0.1,0-0.2,0.1-0.4,0.2l-2,1.8
			c-0.1,0.1-0.2,0.2-0.2,0.4C74.1,20.8,74.2,20.9,74.3,21.1z"/>
		<path class="st1" d="M76.4,25.2L76,24.5c-0.1-0.1-0.1-0.2,0-0.3l4.4-2.9c0.1-0.1,0.2,0,0.3,0.1l0.4,0.7c0.1,0.1,0.1,0.2,0,0.3
			L79,23.7l0,0c0.1,0,0.3-0.1,0.6-0.1l2.4,0.1c0.1,0,0.3,0.1,0.4,0.2l0.5,0.8c0,0.1,0,0.1,0,0.1c0,0-0.1,0-0.1,0l-2.9-0.2L78.6,28
			c0,0.1-0.1,0.1-0.1,0.1c0,0-0.1,0-0.1-0.1l-0.4-0.6c-0.1-0.2-0.2-0.3-0.1-0.5l1-2.4L78,24.4l-1.2,0.8
			C76.6,25.3,76.5,25.3,76.4,25.2z"/>
		<path class="st1" d="M80.1,31.7l-1.3-2.8c-0.1-0.1,0-0.2,0.1-0.3l4.8-2.3c0.1-0.1,0.2,0,0.3,0.1l1.3,2.8c0.1,0.1,0,0.2-0.1,0.2
			l-0.5,0.3c-0.1,0.1-0.2,0-0.2-0.1l-0.8-1.8c0-0.1-0.1-0.1-0.1-0.1l-1,0.5c-0.1,0-0.1,0.1,0,0.1l0.7,1.4c0.1,0.1,0,0.2-0.1,0.3
			l-0.5,0.3c-0.1,0.1-0.2,0-0.3-0.1l-0.7-1.4c0-0.1-0.1-0.1-0.1-0.1l-1.1,0.5c-0.1,0-0.1,0.1,0,0.1l0.8,1.8c0.1,0.1,0,0.2-0.1,0.2
			l-0.5,0.3C80.2,31.8,80.1,31.8,80.1,31.7z"/>
		<path class="st1" d="M80.8,33.7L80.6,33c0-0.1,0-0.2,0.1-0.2l5-1.5c0.1,0,0.2,0,0.2,0.1l0.6,2.1c0.1,0.5,0.1,0.9,0,1.2
			c-0.2,0.3-0.5,0.6-0.9,0.7l-0.7,0.2c-0.6,0.2-1.1,0.1-1.5-0.4l0,0L82,36.7c-0.1,0.1-0.2,0.1-0.2-0.1l-0.2-0.7c0-0.1,0-0.2,0-0.2
			c0-0.1,0-0.1,0.1-0.2l1.5-1.4l-0.2-0.6c0-0.1-0.1-0.1-0.1-0.1l-1.7,0.5C81,33.9,80.9,33.9,80.8,33.7z M83.8,33.1L84,34
			c0.1,0.2,0.1,0.3,0.2,0.4c0.1,0.1,0.2,0.1,0.4,0l0.7-0.2c0.2-0.1,0.3-0.1,0.3-0.2c0.1-0.1,0-0.3,0-0.5l-0.3-0.9
			c0-0.1-0.1-0.1-0.1-0.1L83.8,33C83.8,33,83.7,33.1,83.8,33.1z"/>
	</g>
	<g class="st0">
		<path class="st1" d="M39.1,80.8l0.2-0.8c0.1-0.3,0.3-0.6,0.7-0.7l2.1-1c0.3-0.2,0.5-0.4,0.6-0.6l0.1-0.3c0-0.2,0-0.3,0-0.4
			c-0.1-0.1-0.2-0.2-0.4-0.2l-0.3-0.1c-0.2,0-0.4,0-0.5,0c-0.1,0.1-0.2,0.2-0.2,0.4l-0.1,0.3c0,0.1-0.1,0.2-0.2,0.1l-0.8-0.2
			C40,77.2,40,77.1,40,77l0.1-0.3c0.1-0.5,0.3-0.8,0.7-1c0.3-0.2,0.7-0.2,1.2-0.1l0.7,0.2c0.5,0.1,0.9,0.3,1.1,0.6
			c0.2,0.3,0.3,0.7,0.2,1.2l-0.1,0.4c-0.1,0.5-0.4,0.8-0.8,1l-2.1,1c-0.1,0-0.1,0.1-0.2,0.2l0,0.1l2.3,0.5c0.1,0,0.2,0.1,0.2,0.2
			L43,81.7c0,0.1-0.1,0.2-0.2,0.1L39.3,81C39.2,81,39.1,80.9,39.1,80.8z"/>
		<path class="st1" d="M48.1,82.4l-1-0.1c-0.5,0-0.9-0.2-1.2-0.4c-0.3-0.3-0.4-0.6-0.4-1.1l0.2-2.9c0-0.5,0.2-0.8,0.5-1.1
			c0.3-0.2,0.7-0.3,1.2-0.3l1,0.1c0.5,0,0.9,0.2,1.2,0.5c0.3,0.3,0.4,0.6,0.4,1.1L49.8,81c0,0.5-0.2,0.8-0.5,1.1
			C49,82.3,48.6,82.4,48.1,82.4z M47.4,81.3l0.6,0c0.2,0,0.4,0,0.4-0.1c0.1-0.1,0.1-0.2,0.1-0.4l0.2-2.8c0-0.2,0-0.3-0.1-0.4
			s-0.2-0.1-0.4-0.1l-0.6,0c-0.2,0-0.4,0-0.4,0.1C47.1,77.7,47,77.8,47,78l-0.2,2.8c0,0.2,0,0.3,0.1,0.4
			C47,81.3,47.2,81.3,47.4,81.3z"/>
		<path class="st1" d="M52.3,82.2l-0.1-0.9c0-0.3,0.1-0.7,0.4-0.9l1.6-1.6c0.3-0.3,0.4-0.5,0.3-0.8l0-0.3c0-0.2-0.1-0.3-0.2-0.4
			s-0.3-0.1-0.5-0.1l-0.3,0c-0.2,0-0.3,0.1-0.4,0.2C53,77.6,53,77.7,53,77.9l0,0.3c0,0.1,0,0.2-0.2,0.2l-0.8,0.1
			c-0.1,0-0.2,0-0.2-0.2l0-0.3c-0.1-0.5,0-0.8,0.3-1.1c0.2-0.3,0.6-0.5,1.1-0.5l0.7-0.1c0.5-0.1,0.9,0,1.2,0.2s0.5,0.6,0.5,1l0,0.4
			c0.1,0.5-0.1,0.9-0.4,1.2l-1.6,1.7c-0.1,0.1-0.1,0.2-0.1,0.2l0,0.1l2.3-0.3c0.1,0,0.2,0,0.2,0.2l0.1,0.6c0,0.1,0,0.2-0.2,0.2
			l-3.5,0.4C52.4,82.3,52.3,82.3,52.3,82.2z"/>
		<path class="st1" d="M57.3,77.3l-0.2-0.7c0-0.1,0-0.2,0.1-0.3l0.7-0.7c0.1-0.1,0.2-0.2,0.3-0.2l0.8-0.2c0.1,0,0.2,0,0.2,0.1
			l1.5,5.3c0,0.1,0,0.1,0,0.2c0,0-0.1,0.1-0.1,0.1L59.8,81c-0.1,0-0.2,0-0.2-0.1l-1.2-4.3l-0.8,0.7C57.4,77.5,57.4,77.4,57.3,77.3z"
			/>
	</g>
	<path class="st2" d="M69.1,73.9c-0.7,0.4-1.5,0.8-2.2,1.2c-0.6,0.3-1.3,0.6-1.9,1c-0.2,0.1-0.5,0-0.5-0.2l-0.1-0.2
		c-0.1-0.2,0-0.4,0.2-0.5c1.5-0.5,2.9-1.1,4.2-1.8c1.5-0.8,2.9-1.7,4.2-2.8c1.3-1,2.5-2.2,3.7-3.4c1.1-1.2,2.2-2.6,3.1-4
		c0.9-1.4,1.7-2.9,2.4-4.4c0.7-1.5,1.2-3.1,1.7-4.8c0.4-1.6,0.7-3.3,0.9-5c0.1-1.7,0.2-3.3,0.1-5c-1.8-0.8-1.2-1.9-1.1-2.3
		C84,41.1,84,40,84,40c0.5,0.3,1.5,1,1.7,2.2c0.2,1.1-0.6,1.7-0.7,1.8c0.1,1.7,0.1,3.3-0.1,5c-0.2,1.7-0.5,3.4-0.9,5
		c-0.4,1.6-1,3.3-1.6,4.8c-0.7,1.6-1.5,3.1-2.4,4.5c-0.9,1.4-1.9,2.8-3,4.1c-1.1,1.3-2.3,2.5-3.7,3.6C72,72,70.6,73,69.1,73.9z
		 M68.7,74.8c0,0,2.2,2.6,5,1.8c2.8-0.9,3.2-2.8,3.2-2.8s-2.3-0.3-3.6-0.9C71.9,72.2,69.5,73.3,68.7,74.8z M70.7,69.4
		c-0.2-1.1-0.6-2-0.9-2.6c0,0-1,1.5-1.8,2.5c-1,1.2-0.5,3.1,0.3,3.9C68.2,73.2,71.2,72.3,70.7,69.4z M79.3,68
		c-1.7-0.2-3.8,1.6-3.8,2.9c0,0,1.8,1.5,4.2,0.7c2.4-0.7,3.1-3.8,3.1-3.8S81,68.2,79.3,68z M73.9,69.2c0,0,4.1-2.1,0.3-6.3
		c0,0-0.6,1.5-1.2,2.9C72.3,67.1,73.6,69,73.9,69.2z M83.1,61.8c-2,0.3-2.8,2.4-2.8,3.5c0,0,2.2,1.1,3.9-0.2
		c1.7-1.3,2.4-3.1,2.2-4.2C86.4,61,85,61.5,83.1,61.8z M78.4,64.1c0,0,2.1-2,0.3-4.8c-0.3-0.4-0.8-0.9-1.3-1.2
		c0.1,0.8-0.5,1.7-0.7,3.2C76.5,63.2,77.4,63.9,78.4,64.1z M83.7,57c-0.5,0.6-0.9,1.7-0.6,2.4c0,0,1.9,0.6,3.5-0.8
		c1.1-1,1.5-2.6,1.3-4.2C85.8,56,85.2,55.1,83.7,57z M84.9,53.3c0,0,3.9,0.2,3.8-4c0-0.3,0-0.7-0.1-1c0,0-1.1,0.8-2.6,1.5
		C84.5,50.4,84.9,53.3,84.9,53.3z M79.7,57.1c0.1,1.3,1.8,1.9,1.8,1.9s0.9-1.2,0.4-3.1c-0.3-1-1.2-1.6-2.1-2
		C79.8,54.5,79.5,56,79.7,57.1z M82,52.5c1.1,0.7,1.5,0.6,1.5,0.6s1-2.3-1.2-3.5c-0.5-0.2-1-0.4-1.4-0.5
		C81.2,49.7,81.1,51.9,82,52.5z M85.6,47.7c0,0,3.3-0.2,2.8-3.7c0-0.3-0.1-0.5-0.2-0.8c0,0-0.8,0.8-2,1.5
		C85,45.3,85.6,47.7,85.6,47.7z M82.9,47.5c0.9,0.6,1.2,0.5,1.2,0.5s0.8-1.9-1-2.8c-0.4-0.2-0.8-0.3-1.2-0.4
		C82.3,45.3,82.2,47,82.9,47.5z M30.9,73.9c0.7,0.4,1.5,0.8,2.2,1.2c0.6,0.3,1.3,0.6,1.9,1c0.2,0.1,0.5,0,0.5-0.2l0.1-0.2
		c0.1-0.2,0-0.4-0.2-0.5c-1.5-0.5-2.9-1.1-4.2-1.8c-1.5-0.8-2.9-1.7-4.2-2.8c-1.3-1-2.5-2.2-3.7-3.4c-1.1-1.2-2.2-2.6-3.1-4
		c-0.9-1.4-1.7-2.9-2.4-4.4c-0.7-1.5-1.2-3.1-1.7-4.8c-0.4-1.6-0.7-3.3-0.9-5c-0.1-1.7-0.2-3.3-0.1-5c1.8-0.8,1.2-1.9,1.1-2.3
		C16,41.1,16,40,16,40c-0.5,0.3-1.5,1-1.7,2.2c-0.2,1.1,0.6,1.7,0.7,1.8c-0.1,1.7-0.1,3.3,0.1,5c0.2,1.7,0.5,3.4,0.9,5
		c0.4,1.6,1,3.3,1.6,4.8c0.7,1.6,1.5,3.1,2.4,4.5c0.9,1.4,1.9,2.8,3,4.1c1.1,1.3,2.3,2.5,3.7,3.6C28,72,29.4,73,30.9,73.9z
		 M26.7,72.8c-1.4,0.6-3.6,0.9-3.6,0.9s0.4,1.9,3.2,2.8c2.8,0.9,5-1.8,5-1.8C30.5,73.3,28.1,72.2,26.7,72.8z M31.7,73.2
		c0.8-0.8,1.3-2.7,0.3-3.9c-0.8-1-1.8-2.5-1.8-2.5c-0.4,0.7-0.7,1.5-0.9,2.6C28.8,72.3,31.7,73.2,31.7,73.2z M17.2,67.8
		c0,0,0.7,3.1,3.1,3.8c2.4,0.7,4.2-0.7,4.2-0.7c-0.1-1.3-2.1-3.2-3.8-2.9C18.9,68.2,17.2,67.8,17.2,67.8z M27,65.7
		c-0.6-1.4-1.2-2.9-1.2-2.9c-3.8,4.2,0.3,6.3,0.3,6.3C26.4,69,27.6,67.1,27,65.7z M13.6,61c-0.2,1.1,0.5,2.9,2.2,4.2
		c1.7,1.3,3.9,0.2,3.9,0.2c-0.1-1.1-0.9-3.2-2.8-3.5C14.9,61.5,13.6,61,13.6,61z M23.2,61.3c-0.2-1.5-0.8-2.4-0.7-3.2
		c-0.4,0.3-1,0.8-1.3,1.2c-1.8,2.8,0.3,4.8,0.3,4.8C22.6,63.9,23.5,63.2,23.2,61.3z M12.1,54.4c-0.3,1.7,0.1,3.2,1.3,4.2
		c1.5,1.4,3.5,0.8,3.5,0.8c0.2-0.7-0.1-1.8-0.6-2.4C14.8,55.1,14.2,56,12.1,54.4z M13.9,49.8c-1.5-0.6-2.6-1.5-2.6-1.5
		c-0.1,0.3-0.1,0.6-0.1,1c-0.1,4.2,3.8,4,3.8,4S15.4,50.4,13.9,49.8z M20.3,53.9c-0.9,0.4-1.9,1-2.1,2c-0.5,1.9,0.4,3.1,0.4,3.1
		s1.6-0.6,1.8-1.9C20.5,56,20.2,54.5,20.3,53.9z M19.1,49.1c-0.5,0.1-1,0.3-1.4,0.5c-2.2,1.2-1.2,3.5-1.2,3.5s0.4,0.1,1.5-0.6
		C18.9,51.9,18.7,49.7,19.1,49.1z M13.8,44.7c-1.2-0.7-2-1.5-2-1.5c-0.1,0.2-0.1,0.5-0.2,0.8c-0.5,3.5,2.8,3.7,2.8,3.7
		S15,45.3,13.8,44.7z M18,44.7c-0.4,0.1-0.8,0.2-1.2,0.4c-1.8,0.9-1,2.8-1,2.8s0.3,0.1,1.2-0.5C17.8,47,17.7,45.3,18,44.7z"/>
	<path class="st3" d="M85.1,79.4l-0.3-0.3c9.4-9.3,14.5-21.7,14.5-34.9c0-13.1-5.1-25.4-14.3-34.7l0.3-0.3
		c9.3,9.4,14.5,21.8,14.5,35C99.7,57.5,94.5,70,85.1,79.4z"/>
	<path class="st4" d="M73.3,85.3l-0.2-0.4C87.7,76.6,96.8,61,96.8,44.2c0-16.7-9-32.3-23.6-40.6l0.2-0.4c14.7,8.4,23.8,24.1,23.8,41
		C97.2,61.1,88.1,76.9,73.3,85.3z"/>
	<path class="st2" d="M60.8,86.8l-0.1-0.4C80,81.5,93.5,64.1,93.5,44.2C93.5,24.3,80,7,60.8,2l0.1-0.4c19.5,5,33.1,22.5,33.1,42.6
		C93.9,64.3,80.3,81.8,60.8,86.8z"/>
	<path class="st3" d="M14.9,79.4C5.5,70,0.3,57.5,0.3,44.2c0-13.2,5.1-25.6,14.5-35L15,9.5C5.8,18.8,0.7,31.1,0.7,44.2
		c0,13.2,5.2,25.6,14.5,34.9L14.9,79.4z"/>
	<path class="st4" d="M26.7,85.3c-14.8-8.4-24-24.1-24-41.1c0-16.9,9.1-32.6,23.8-41l0.2,0.4C12.2,11.9,3.2,27.5,3.2,44.2
		c0,16.8,9.1,32.4,23.7,40.7L26.7,85.3z"/>
	<path class="st2" d="M39.2,86.8C19.7,81.8,6.1,64.3,6.1,44.2c0-20.1,13.6-37.6,33.1-42.6L39.2,2C20,7,6.5,24.3,6.5,44.2
		c0,19.9,13.5,37.3,32.8,42.2L39.2,86.8z"/>
	<path class="st2" d="M50,72.2c-15.4,0-28-12.5-28-28s12.5-28,28-28c15.4,0,28,12.5,28,28S65.4,72.2,50,72.2z M50,16.7
		c-15.2,0-27.5,12.3-27.5,27.5S34.8,71.7,50,71.7c15.2,0,27.5-12.3,27.5-27.5S65.2,16.7,50,16.7z"/>
	<g>
		
			<linearGradient id="SVGID_1_" gradientUnits="userSpaceOnUse" x1="49.9005" y1="31.0988" x2="50.2494" y2="46.8969" gradientTransform="matrix(1 0 0 -1 0 88.1102)">
			<stop  offset="0" style="stop-color:#3D82F7"/>
			<stop  offset="0.5775" style="stop-color:#0D67F9"/>
			<stop  offset="1" style="stop-color:#0D49CC"/>
		</linearGradient>
		<path class="st5" d="M42,59.3h15.8L54,55.6h-3.3l0.9-13l-1.4-1.4l-1.9,1.4l0.7,13h-3.3L42,59.3z"/>
		
			<linearGradient id="SVGID_2_" gradientUnits="userSpaceOnUse" x1="43.5512" y1="56.5562" x2="58.1524" y2="41.445" gradientTransform="matrix(1 0 0 -1 0 88.1102)">
			<stop  offset="0" style="stop-color:#32D7F5"/>
			<stop  offset="0.5695" style="stop-color:#1D93F4"/>
			<stop  offset="1" style="stop-color:#0D67F9"/>
		</linearGradient>
		<path class="st6" d="M47.4,38.5l-7.7-7.8h1.7l7.5,7.7l-4.8,4.8L47.4,38.5z M60.7,46.3l-7.8-8l3-4.9l-4.9,5l7.7,8L60.7,46.3z
			 M56.6,46.3L50,39.4L39.6,50.3l10.6-8.8l4.8,4.9L56.6,46.3z M43.4,30.7l6.5,6.7l10.6-11.1l-10.7,9l-4.4-4.7H43.4L43.4,30.7z"/>
	</g>
</g>
</svg>
