<?xml version="1.0" encoding="utf-8"?>
<!-- Generator: Adobe Illustrator 25.2.2, SVG Export Plug-In . SVG Version: 6.00 Build 0)  -->
<svg version="1.1" id="Layer_1" xmlns="http://www.w3.org/2000/svg" xmlns:xlink="http://www.w3.org/1999/xlink" x="0px" y="0px"
	 viewBox="0 0 100 88.4" style="enable-background:new 0 0 100 88.4;" xml:space="preserve">
<style type="text/css">
	.st0{opacity:0.8;}
	.st1{fill:#FFFFFF;}
	.st2{fill:#7473AD;}
	.st3{opacity:0.2;}
	.st4{opacity:0.5;}
	.st5{fill:url(#SVGID_1_);}
	.st6{fill-rule:evenodd;clip-rule:evenodd;fill:url(#SVGID_2_);}
</style>
<g>
	<g>
		<g>
			<g class="st0">
				<g>
					<path class="st1" d="M18.2,35.8l-5-1.7C13,34.1,13,34,13,33.9l0.7-2.1c0.2-0.5,0.4-0.8,0.7-1c0.3-0.2,0.7-0.2,1.1-0.1l0.3,0.1
						c0.5,0.2,0.7,0.5,0.7,1c0.1-0.2,0.3-0.4,0.5-0.5c0.2-0.1,0.4-0.1,0.7,0l0.5,0.2c0.4,0.1,0.7,0.4,0.9,0.7c0.1,0.3,0.1,0.7,0,1.2
						l-0.7,2.2C18.4,35.7,18.3,35.8,18.2,35.8z M15.5,33.5l0.3-0.9c0.1-0.2,0.1-0.3,0-0.5c0-0.1-0.2-0.2-0.3-0.3l-0.3-0.1
						c-0.2-0.1-0.3-0.1-0.4,0c-0.1,0.1-0.2,0.2-0.2,0.4l-0.3,0.9c0,0.1,0,0.1,0.1,0.1l1.1,0.4C15.5,33.6,15.5,33.6,15.5,33.5z
						 M17.9,34.3l0.3-1c0.1-0.2,0.1-0.4,0-0.5c0-0.1-0.2-0.2-0.3-0.3l-0.5-0.2c-0.2-0.1-0.3-0.1-0.4,0c-0.1,0.1-0.2,0.2-0.3,0.4
						l-0.3,1c0,0.1,0,0.1,0.1,0.1l1.3,0.4C17.8,34.4,17.8,34.3,17.9,34.3z"/>
					<path class="st1" d="M21.5,28l-1.4,2.7c-0.1,0.1-0.1,0.1-0.3,0.1l-4.7-2.4c-0.1-0.1-0.1-0.1-0.1-0.3l1.4-2.7
						c0.1-0.1,0.1-0.1,0.2-0.1l0.5,0.3c0.1,0.1,0.1,0.1,0.1,0.3l-0.9,1.8c0,0.1,0,0.1,0,0.1l1,0.5c0.1,0,0.1,0,0.1-0.1l0.7-1.4
						c0.1-0.1,0.1-0.1,0.3-0.1l0.5,0.3c0.1,0.1,0.1,0.1,0.1,0.3l-0.7,1.4c0,0.1,0,0.1,0,0.1l1.1,0.6c0.1,0,0.1,0,0.1-0.1l0.9-1.8
						c0.1-0.1,0.1-0.1,0.2-0.1l0.5,0.3C21.6,27.8,21.6,27.9,21.5,28z"/>
					<path class="st1" d="M20.9,26.2l-0.1-0.1c-0.1-0.1-0.1-0.2,0-0.3l0.5-0.7c0.1-0.1,0.2-0.1,0.3-0.1l0.1,0
						c0.2,0.1,0.3,0.2,0.5,0.1c0.1,0,0.3-0.1,0.4-0.4l0.3-0.4c0.1-0.2,0.2-0.4,0.2-0.5c0-0.1-0.1-0.3-0.3-0.4l-0.1-0.1
						c-0.1-0.1-0.3-0.1-0.4,0s-0.3,0.2-0.5,0.4c-0.1,0.2-0.3,0.3-0.5,0.5c-0.2,0.2-0.4,0.3-0.6,0.5c-0.2,0.1-0.4,0.2-0.7,0.2
						c-0.3,0-0.6-0.1-0.9-0.3l-0.3-0.2c-0.4-0.3-0.6-0.6-0.6-1s0.1-0.8,0.4-1.2l0.5-0.8c0.3-0.4,0.6-0.6,1-0.7
						c0.4-0.1,0.7,0,1.1,0.3l0.1,0.1c0.1,0.1,0.1,0.2,0,0.3l-0.5,0.7c-0.1,0.1-0.2,0.1-0.3,0.1l0,0c-0.2-0.1-0.3-0.2-0.5-0.2
						c-0.1,0-0.3,0.1-0.4,0.4l-0.2,0.3c-0.1,0.2-0.2,0.4-0.2,0.5c0,0.1,0.1,0.3,0.4,0.4l0.1,0.1c0.2,0.2,0.5,0,0.8-0.4
						c0.3-0.4,0.7-0.7,1.1-1c0.2-0.1,0.4-0.2,0.7-0.2c0.3,0,0.5,0.1,0.8,0.3l0.2,0.2c0.4,0.3,0.6,0.6,0.6,1c0,0.4-0.1,0.8-0.4,1.2
						L23,25.8c-0.3,0.4-0.6,0.6-1,0.7C21.6,26.6,21.2,26.5,20.9,26.2z"/>
					<path class="st1" d="M26.4,21.5l-0.5,0.6c-0.1,0.1-0.2,0.1-0.3,0l-3.2-3c0,0-0.1,0-0.1,0l-0.7,0.8c-0.1,0.1-0.2,0.1-0.3,0
						l-0.4-0.4c-0.1-0.1-0.1-0.2,0-0.3l2.4-2.6c0.1-0.1,0.2-0.1,0.3,0l0.4,0.4c0.1,0.1,0.1,0.2,0,0.3l-0.7,0.8
						c-0.1,0.1-0.1,0.1,0,0.1l3.2,3C26.5,21.3,26.5,21.4,26.4,21.5z"/>
					<path class="st1" d="M32.4,16.5l-2.5,1.8c-0.1,0.1-0.2,0.1-0.3,0L26.6,14c-0.1-0.1-0.1-0.2,0.1-0.3l2.5-1.8
						c0.1-0.1,0.2-0.1,0.3,0l0.3,0.5c0.1,0.1,0.1,0.2,0,0.3l-1.6,1.1c-0.1,0-0.1,0.1,0,0.1l0.7,0.9c0,0.1,0.1,0.1,0.1,0l1.3-0.9
						c0.1-0.1,0.2-0.1,0.3,0l0.3,0.5c0.1,0.1,0.1,0.2-0.1,0.3l-1.3,0.9c-0.1,0-0.1,0.1,0,0.1l0.7,1c0,0.1,0.1,0.1,0.1,0l1.6-1.1
						c0.1-0.1,0.2-0.1,0.3,0l0.3,0.5C32.6,16.4,32.5,16.5,32.4,16.5z"/>
					<path class="st1" d="M35.7,14.8l-0.9,0.5c-0.4,0.2-0.8,0.3-1.2,0.2s-0.6-0.4-0.8-0.8l-1.3-2.5c-0.2-0.4-0.3-0.8-0.1-1.1
						c0.1-0.3,0.4-0.6,0.9-0.9l0.9-0.5c0.4-0.2,0.8-0.3,1.2-0.2c0.4,0.1,0.6,0.4,0.8,0.8l0.2,0.4c0.1,0.1,0,0.2-0.1,0.3l-0.7,0.4
						c-0.1,0.1-0.2,0-0.3-0.1l-0.2-0.3c-0.1-0.2-0.2-0.3-0.3-0.3c-0.1,0-0.3,0-0.4,0.1L32.8,11c-0.2,0.1-0.3,0.2-0.3,0.3
						c0,0.1,0,0.2,0.1,0.4l1.2,2.4c0.1,0.2,0.2,0.3,0.3,0.3c0.1,0,0.3,0,0.4-0.1l0.6-0.3c0.2-0.1,0.3-0.2,0.3-0.3
						c0-0.1,0-0.2-0.1-0.4L35.1,13c-0.1-0.1,0-0.2,0.1-0.3l0.7-0.4c0.1-0.1,0.2,0,0.3,0.1l0.2,0.4c0.2,0.4,0.2,0.8,0.1,1.1
						C36.4,14.3,36.1,14.5,35.7,14.8z"/>
					<path class="st1" d="M38.9,13.4l-0.7,0.2c-0.1,0-0.2,0-0.2-0.1l-1.6-5c0-0.1,0-0.2,0.1-0.2L37.1,8c0.1,0,0.2,0,0.3,0l2.8,2.6
						l0,0l-1-3.1c0-0.1,0-0.2,0.1-0.2l0.7-0.2c0.1,0,0.2,0,0.2,0.1l1.6,5c0,0.1,0,0.2-0.1,0.2l-0.7,0.2c-0.1,0-0.2,0-0.3-0.1L38,10
						l0,0l1,3.1C39,13.3,39,13.4,38.9,13.4z"/>
					<path class="st1" d="M43.7,12.1L43,12.2c-0.1,0-0.2,0-0.2-0.2c0.1-0.5,0.3-1.4,0.6-2.8C43.8,7.9,44,7,44.1,6.4
						c0-0.1,0.1-0.2,0.2-0.2L45,6.1c0.1,0,0.2,0,0.2,0.2L44,11.8C43.9,12,43.9,12,43.7,12.1z"/>
					<path class="st1" d="M46.8,10.1l0-0.2c0-0.1,0.1-0.2,0.2-0.2l0.8,0c0.1,0,0.2,0.1,0.2,0.2l0,0.1c0,0.2,0.1,0.4,0.2,0.5
						c0.1,0.1,0.3,0.1,0.5,0.1l0.4,0c0.2,0,0.4-0.1,0.5-0.1c0.1-0.1,0.1-0.3,0.1-0.5l0-0.1c0-0.2-0.1-0.3-0.2-0.4
						c-0.2-0.1-0.3-0.1-0.6-0.1c-0.2,0-0.5,0-0.7-0.1c-0.3,0-0.5-0.1-0.7-0.2c-0.2-0.1-0.4-0.2-0.6-0.4c-0.2-0.2-0.2-0.5-0.2-0.9
						l0-0.3c0-0.5,0.1-0.8,0.4-1.1c0.3-0.3,0.6-0.4,1.1-0.4l0.9,0c0.5,0,0.9,0.1,1.2,0.3s0.4,0.6,0.4,1.1l0,0.2
						c0,0.1-0.1,0.2-0.2,0.2l-0.8,0c-0.1,0-0.2-0.1-0.2-0.2l0-0.1c0-0.2-0.1-0.4-0.2-0.5c-0.1-0.1-0.3-0.1-0.5-0.1l-0.4,0
						c-0.3,0-0.4,0.1-0.5,0.2c-0.1,0.1-0.1,0.3-0.1,0.5l0,0.2c0,0.3,0.3,0.4,0.8,0.5c0.5,0,1,0.1,1.4,0.3c0.2,0.1,0.4,0.2,0.6,0.5
						s0.2,0.5,0.2,0.9l0,0.3c0,0.5-0.1,0.8-0.4,1.1c-0.3,0.3-0.6,0.4-1.1,0.4l-1,0c-0.5,0-0.9-0.1-1.2-0.3
						C47,10.9,46.8,10.6,46.8,10.1z"/>
					<path class="st1" d="M53.9,11.7l-0.8-0.1c-0.1,0-0.2-0.1-0.2-0.2L53.4,7c0-0.1,0-0.1-0.1-0.1l-1.1-0.1c-0.1,0-0.2-0.1-0.2-0.2
						L52.1,6c0-0.1,0.1-0.2,0.2-0.2l3.5,0.4c0.1,0,0.2,0.1,0.2,0.2L56,7c0,0.1-0.1,0.2-0.2,0.2l-1.1-0.1c-0.1,0-0.1,0-0.1,0.1
						l-0.5,4.4C54.1,11.7,54,11.7,53.9,11.7z"/>
					<path class="st1" d="M57.1,12.2l-0.8-0.2c-0.1,0-0.2-0.1-0.1-0.2l1.3-5.1c0-0.1,0.1-0.2,0.2-0.1L60,7.1c0.5,0.1,0.8,0.3,1,0.6
						c0.2,0.3,0.2,0.7,0.1,1.1l-0.2,0.8c-0.1,0.4-0.3,0.8-0.7,0.9c-0.3,0.2-0.7,0.2-1.2,0.1l-1.2-0.3c-0.1,0-0.1,0-0.1,0.1l-0.4,1.6
						C57.4,12.2,57.3,12.3,57.1,12.2z M58.2,9.5l1,0.2c0.2,0,0.3,0,0.4,0c0.1-0.1,0.2-0.2,0.2-0.4L60,8.7c0-0.2,0-0.3,0-0.4
						c-0.1-0.1-0.2-0.2-0.4-0.2l-1-0.2c-0.1,0-0.1,0-0.1,0.1l-0.4,1.5C58.1,9.4,58.1,9.5,58.2,9.5z"/>
					<path class="st1" d="M63.1,14l2.4-4.7c0.1-0.1,0.1-0.1,0.3-0.1l2,1c0.4,0.2,0.7,0.5,0.9,0.9c0.1,0.3,0.1,0.7-0.1,1.1l-0.2,0.3
						c-0.2,0.4-0.6,0.6-1.1,0.5c0.2,0.1,0.3,0.3,0.4,0.5c0.1,0.2,0,0.4-0.1,0.7l-0.2,0.5c-0.2,0.4-0.5,0.7-0.8,0.8
						c-0.4,0.1-0.7,0-1.2-0.2l-2.1-1.1C63.1,14.2,63.1,14.1,63.1,14z M64.6,13.9l0.9,0.5c0.2,0.1,0.3,0.1,0.5,0.1
						c0.1,0,0.2-0.1,0.3-0.3l0.2-0.5c0.1-0.2,0.1-0.3,0.1-0.4c0-0.1-0.2-0.2-0.4-0.3l-0.9-0.5c-0.1,0-0.1,0-0.1,0l-0.6,1.2
						C64.5,13.8,64.6,13.8,64.6,13.9z M65.7,11.7l0.9,0.4c0.2,0.1,0.3,0.1,0.4,0.1c0.1,0,0.2-0.1,0.3-0.3l0.2-0.3
						c0.1-0.2,0.1-0.3,0.1-0.4c0-0.1-0.2-0.2-0.3-0.3l-0.9-0.4c-0.1,0-0.1,0-0.1,0l-0.5,1C65.7,11.6,65.7,11.7,65.7,11.7z"/>
					<path class="st1" d="M68.4,17.1l-0.6-0.5c-0.1-0.1-0.1-0.2-0.1-0.3l3.1-4.3c0.1-0.1,0.2-0.1,0.3,0l1.8,1.3
						c0.4,0.3,0.6,0.6,0.7,1c0.1,0.4,0,0.7-0.3,1.1l-0.4,0.6c-0.4,0.5-0.9,0.7-1.5,0.6l0,0l-0.3,2.2c0,0.1-0.1,0.2-0.3,0.1l-0.6-0.4
						c-0.1-0.1-0.2-0.1-0.2-0.2c0,0,0-0.1,0-0.2l0.4-2.1l-0.5-0.4c-0.1,0-0.1,0-0.1,0l-1.1,1.5C68.6,17.2,68.5,17.2,68.4,17.1z
						 M70.4,14.9l0.7,0.5c0.2,0.1,0.3,0.2,0.4,0.2c0.1,0,0.2-0.1,0.3-0.2l0.4-0.6c0.1-0.1,0.1-0.3,0.1-0.4c0-0.1-0.1-0.2-0.3-0.4
						l-0.7-0.5c-0.1,0-0.1,0-0.1,0l-0.9,1.2C70.3,14.8,70.3,14.9,70.4,14.9z"/>
					<path class="st1" d="M73.4,21.4l-0.7-0.7c-0.4-0.4-0.5-0.7-0.6-1.1c0-0.4,0.1-0.7,0.5-1l2-2c0.3-0.3,0.7-0.5,1-0.5
						c0.4,0,0.7,0.2,1.1,0.5l0.7,0.7c0.4,0.4,0.5,0.7,0.6,1.1c0,0.4-0.1,0.7-0.5,1l-2,2c-0.3,0.3-0.7,0.5-1,0.5
						C74.1,21.9,73.8,21.7,73.4,21.4z M73.5,20.1l0.5,0.5c0.1,0.1,0.3,0.2,0.4,0.2c0.1,0,0.2-0.1,0.4-0.2l1.9-1.9
						c0.1-0.1,0.2-0.3,0.2-0.4c0-0.1-0.1-0.2-0.2-0.4l-0.5-0.5c-0.1-0.1-0.3-0.2-0.4-0.2c-0.1,0-0.2,0.1-0.4,0.2l-1.9,1.9
						c-0.1,0.1-0.2,0.3-0.2,0.4C73.3,19.8,73.4,19.9,73.5,20.1z"/>
					<path class="st1" d="M75.8,24.1l-0.5-0.6c-0.1-0.1-0.1-0.2,0-0.3l4.3-3.1c0.1-0.1,0.2-0.1,0.3,0.1l0.5,0.6
						c0.1,0.1,0.1,0.2,0,0.3l-2,1.5l0,0c0.1,0,0.3-0.1,0.6-0.1l2.4,0c0.1,0,0.3,0.1,0.4,0.2l0.5,0.7c0,0.1,0,0.1,0,0.1
						c0,0-0.1,0-0.1,0l-2.9-0.1l-1.2,3.3c0,0.1-0.1,0.1-0.1,0.1s-0.1,0-0.1-0.1l-0.4-0.6c-0.1-0.2-0.2-0.3-0.1-0.5l0.9-2.4l-0.9-0.1
						l-1.2,0.9C76,24.2,75.9,24.2,75.8,24.1z"/>
					<path class="st1" d="M79.7,30.5l-1.4-2.7c-0.1-0.1,0-0.2,0.1-0.3l4.7-2.5c0.1-0.1,0.2,0,0.3,0.1l1.4,2.7c0.1,0.1,0,0.2-0.1,0.3
						l-0.5,0.3c-0.1,0.1-0.2,0-0.3-0.1L83,26.6c0-0.1-0.1-0.1-0.1-0.1l-1,0.5c-0.1,0-0.1,0.1,0,0.1l0.7,1.4c0.1,0.1,0,0.2-0.1,0.3
						l-0.5,0.3c-0.1,0.1-0.2,0-0.3-0.1l-0.7-1.4c0-0.1-0.1-0.1-0.1-0.1l-1.1,0.6c-0.1,0-0.1,0.1,0,0.1l0.9,1.7
						c0.1,0.1,0,0.2-0.1,0.3L80,30.6C79.9,30.6,79.8,30.6,79.7,30.5z"/>
					<path class="st1" d="M80.5,32.5l-0.3-0.8c0-0.1,0-0.2,0.1-0.2l5-1.7c0.1,0,0.2,0,0.2,0.1l0.7,2.1c0.2,0.5,0.2,0.9,0,1.2
						c-0.1,0.3-0.4,0.6-0.9,0.7l-0.6,0.2c-0.6,0.2-1.1,0.1-1.5-0.4l0,0l-1.5,1.6c-0.1,0.1-0.2,0.1-0.3-0.1l-0.2-0.7
						c0-0.1-0.1-0.2,0-0.2c0-0.1,0-0.1,0.1-0.2l1.5-1.5l-0.2-0.6c0-0.1-0.1-0.1-0.1-0.1l-1.7,0.6C80.7,32.7,80.6,32.6,80.5,32.5z
						 M83.5,31.8l0.3,0.9c0.1,0.2,0.2,0.3,0.3,0.4c0.1,0.1,0.2,0.1,0.4,0l0.6-0.2c0.2-0.1,0.3-0.1,0.3-0.3c0-0.1,0-0.3,0-0.5
						l-0.3-0.9c0-0.1-0.1-0.1-0.1-0.1l-1.4,0.5C83.5,31.7,83.4,31.8,83.5,31.8z"/>
				</g>
			</g>
			<g class="st0">
				<g>
					<g>
						<path class="st1" d="M39.1,80.9l0.2-0.8c0.1-0.3,0.3-0.6,0.7-0.8l2.1-1c0.3-0.2,0.5-0.4,0.6-0.6l0.1-0.3c0-0.2,0-0.3,0-0.4
							c-0.1-0.1-0.2-0.2-0.4-0.2l-0.3-0.1c-0.2,0-0.4,0-0.5,0c-0.1,0.1-0.2,0.2-0.2,0.4l-0.1,0.3c0,0.1-0.1,0.2-0.2,0.1l-0.8-0.2
							c-0.1,0-0.2-0.1-0.2-0.2l0.1-0.3c0.1-0.5,0.3-0.8,0.7-1c0.3-0.2,0.7-0.2,1.2-0.1l0.7,0.2c0.5,0.1,0.9,0.3,1.1,0.6
							c0.2,0.3,0.3,0.7,0.2,1.2l-0.1,0.4c-0.1,0.5-0.4,0.8-0.8,1l-2.1,1c-0.1,0-0.1,0.1-0.2,0.2l0,0.1l2.3,0.5
							c0.1,0,0.2,0.1,0.2,0.2l-0.1,0.6c0,0.1-0.1,0.2-0.2,0.1l-3.4-0.8C39.1,81.1,39.1,81,39.1,80.9z"/>
						<path class="st1" d="M48.1,82.5l-1-0.1c-0.5,0-0.9-0.2-1.2-0.4c-0.3-0.3-0.4-0.6-0.4-1.1l0.2-2.9c0-0.5,0.2-0.8,0.5-1.1
							c0.3-0.2,0.7-0.3,1.2-0.3l1,0.1c0.5,0,0.9,0.2,1.2,0.5c0.3,0.3,0.4,0.6,0.4,1.1l-0.2,2.9c0,0.5-0.2,0.8-0.5,1.1
							C49,82.4,48.6,82.5,48.1,82.5z M47.4,81.5l0.6,0c0.2,0,0.4,0,0.4-0.1c0.1-0.1,0.1-0.2,0.1-0.4l0.2-2.8c0-0.2,0-0.3-0.1-0.4
							c-0.1-0.1-0.2-0.1-0.4-0.1l-0.6,0c-0.2,0-0.4,0-0.4,0.1C47,77.8,47,77.9,47,78.1l-0.2,2.8c0,0.2,0,0.3,0.1,0.4
							C47,81.4,47.2,81.5,47.4,81.5z"/>
						<path class="st1" d="M52.3,82.3l-0.1-0.9c0-0.3,0.1-0.7,0.4-0.9l1.6-1.6c0.3-0.3,0.4-0.5,0.3-0.8l0-0.3c0-0.2-0.1-0.3-0.2-0.4
							s-0.3-0.1-0.5-0.1l-0.3,0c-0.2,0-0.3,0.1-0.4,0.2C53,77.7,53,77.8,53,78l0,0.3c0,0.1,0,0.2-0.2,0.2l-0.8,0.1
							c-0.1,0-0.2,0-0.2-0.2l0-0.3c-0.1-0.5,0-0.9,0.3-1.1c0.2-0.3,0.6-0.5,1.1-0.5l0.7-0.1c0.5-0.1,0.9,0,1.2,0.2s0.5,0.6,0.5,1
							l0,0.4c0.1,0.5-0.1,0.9-0.4,1.2l-1.6,1.7c-0.1,0.1-0.1,0.2-0.1,0.2l0,0.1l2.3-0.3c0.1,0,0.2,0,0.2,0.2l0.1,0.6
							c0,0.1,0,0.2-0.2,0.2l-3.5,0.4C52.4,82.5,52.4,82.4,52.3,82.3z"/>
						<path class="st1" d="M57.4,77.5l-0.2-0.7c0-0.1,0-0.2,0.1-0.3l0.7-0.7c0.1-0.1,0.2-0.2,0.3-0.2l0.8-0.2c0.1,0,0.2,0,0.2,0.1
							l1.5,5.3c0,0.1,0,0.1,0,0.2c0,0-0.1,0.1-0.1,0.1l-0.8,0.2c-0.1,0-0.2,0-0.2-0.1l-1.2-4.3l-0.8,0.8
							C57.5,77.6,57.4,77.6,57.4,77.5z"/>
					</g>
				</g>
			</g>
			<g>
				<g>
					<path class="st2" d="M69.2,74c-0.7,0.4-1.5,0.8-2.3,1.2c-0.6,0.3-1.3,0.7-1.9,1c-0.2,0.1-0.5,0-0.5-0.2l-0.1-0.2
						c-0.1-0.2,0-0.4,0.2-0.5c1.5-0.5,2.9-1.1,4.2-1.8c1.5-0.8,2.9-1.8,4.2-2.8c1.3-1,2.6-2.2,3.7-3.5c1.1-1.3,2.2-2.6,3.1-4
						c0.9-1.4,1.7-2.9,2.4-4.5c0.7-1.6,1.2-3.2,1.7-4.8c0.4-1.6,0.7-3.3,0.9-5c0.1-1.7,0.2-3.3,0.1-5c-1.8-0.8-1.2-2-1.1-2.3
						c0.2-0.5,0.2-1.7,0.2-1.7c0.5,0.3,1.5,1,1.7,2.2c0.2,1.1-0.6,1.7-0.7,1.8c0.1,1.7,0.1,3.3-0.1,5c-0.2,1.7-0.5,3.4-0.9,5
						c-0.4,1.6-1,3.3-1.6,4.8c-0.7,1.6-1.5,3.1-2.4,4.5c-0.9,1.5-1.9,2.8-3.1,4.1c-1.1,1.3-2.3,2.5-3.7,3.6
						C72.1,72.2,70.7,73.1,69.2,74z M68.8,74.9c0,0,2.2,2.7,5,1.8c2.8-0.9,3.2-2.8,3.2-2.8s-2.3-0.3-3.7-0.9
						C72,72.3,69.6,73.4,68.8,74.9z M70.8,69.5c-0.2-1.1-0.6-2-1-2.6c0,0-1,1.5-1.8,2.5c-1,1.2-0.5,3.1,0.3,4
						C68.3,73.3,71.3,72.4,70.8,69.5z M79.4,68.1c-1.7-0.2-3.8,1.6-3.9,3c0,0,1.8,1.5,4.2,0.7c2.4-0.7,3.1-3.8,3.1-3.8
						S81.2,68.3,79.4,68.1z M74,69.3c0,0,4.1-2.1,0.3-6.4c0,0-0.6,1.5-1.2,2.9C72.4,67.2,73.7,69.1,74,69.3z M83.2,61.9
						c-2,0.3-2.8,2.4-2.9,3.5c0,0,2.2,1.1,3.9-0.2c1.7-1.3,2.4-3.1,2.2-4.2C86.5,61,85.2,61.5,83.2,61.9z M78.5,64.2
						c0,0,2.1-2,0.3-4.8c-0.3-0.4-0.8-0.9-1.3-1.2c0.1,0.8-0.5,1.7-0.7,3.2C76.6,63.3,77.5,64,78.5,64.2z M83.8,57
						c-0.5,0.6-0.9,1.7-0.6,2.4c0,0,1.9,0.6,3.5-0.8c1.1-1,1.5-2.6,1.3-4.3C85.9,56,85.3,55.1,83.8,57z M85,53.3c0,0,3.9,0.2,3.8-4
						c0-0.3,0-0.7-0.1-1c0,0-1.1,0.8-2.6,1.5C84.7,50.4,85,53.3,85,53.3z M79.8,57.1c0.1,1.3,1.8,1.9,1.8,1.9s0.9-1.2,0.4-3.1
						c-0.3-1-1.3-1.6-2.2-2C79.9,54.5,79.6,56,79.8,57.1z M82.2,52.6c1.1,0.7,1.5,0.6,1.5,0.6s1-2.3-1.2-3.5c-0.5-0.2-1-0.4-1.4-0.5
						C81.4,49.7,81.2,52,82.2,52.6z M85.7,47.7c0,0,3.4-0.2,2.8-3.7c0-0.3-0.1-0.5-0.2-0.8c0,0-0.8,0.8-2,1.5
						C85.1,45.4,85.7,47.7,85.7,47.7z M83.1,47.5c0.9,0.6,1.2,0.5,1.2,0.5s0.8-1.9-1-2.8c-0.4-0.2-0.8-0.3-1.2-0.4
						C82.4,45.3,82.3,47.1,83.1,47.5z M30.8,74c0.7,0.4,1.5,0.8,2.3,1.2c0.6,0.3,1.3,0.7,1.9,1c0.2,0.1,0.5,0,0.5-0.2l0.1-0.2
						c0.1-0.2,0-0.4-0.2-0.5c-1.5-0.5-2.9-1.1-4.2-1.8c-1.5-0.8-2.9-1.8-4.2-2.8c-1.3-1-2.6-2.2-3.7-3.5c-1.1-1.3-2.2-2.6-3.1-4
						c-0.9-1.4-1.7-2.9-2.4-4.5C17,57.2,16.4,55.6,16,54c-0.4-1.6-0.7-3.3-0.9-5c-0.1-1.7-0.2-3.3-0.1-5c1.8-0.8,1.2-2,1.1-2.3
						c-0.2-0.5-0.2-1.7-0.2-1.7c-0.5,0.3-1.5,1-1.7,2.2c-0.2,1.1,0.6,1.7,0.7,1.8c-0.1,1.7-0.1,3.3,0.1,5c0.2,1.7,0.5,3.4,0.9,5
						c0.4,1.6,1,3.3,1.6,4.8c0.7,1.6,1.5,3.1,2.4,4.5c0.9,1.5,1.9,2.8,3.1,4.1c1.1,1.3,2.3,2.5,3.7,3.6C27.9,72.2,29.3,73.1,30.8,74
						z M26.6,73c-1.4,0.6-3.7,0.9-3.7,0.9s0.4,1.9,3.2,2.8c2.8,0.9,5-1.8,5-1.8C30.4,73.4,28,72.3,26.6,73z M31.7,73.3
						c0.8-0.8,1.3-2.7,0.3-4c-0.8-1-1.8-2.5-1.8-2.5c-0.4,0.7-0.7,1.5-1,2.6C28.7,72.4,31.7,73.3,31.7,73.3z M17.1,67.9
						c0,0,0.7,3.1,3.1,3.8c2.4,0.7,4.2-0.7,4.2-0.7c-0.1-1.3-2.1-3.2-3.9-3C18.8,68.3,17.1,67.9,17.1,67.9z M26.9,65.8
						c-0.7-1.4-1.2-2.9-1.2-2.9c-3.8,4.2,0.3,6.4,0.3,6.4C26.3,69.1,27.6,67.2,26.9,65.8z M13.5,61c-0.2,1.1,0.5,2.9,2.2,4.2
						c1.7,1.3,3.9,0.2,3.9,0.2c-0.1-1.1-0.9-3.2-2.9-3.5S13.5,61,13.5,61z M23.1,61.3c-0.2-1.5-0.8-2.4-0.7-3.2
						c-0.4,0.3-1,0.8-1.3,1.2c-1.8,2.8,0.3,4.8,0.3,4.8C22.5,64,23.4,63.3,23.1,61.3z M12,54.4c-0.3,1.7,0.1,3.2,1.3,4.3
						c1.5,1.4,3.5,0.8,3.5,0.8c0.2-0.7-0.1-1.8-0.6-2.4C14.7,55.1,14,56,12,54.4z M13.8,49.8c-1.5-0.6-2.6-1.5-2.6-1.5
						c-0.1,0.3-0.1,0.6-0.1,1c-0.1,4.2,3.8,4,3.8,4S15.3,50.4,13.8,49.8z M20.2,53.9c-0.9,0.4-1.9,1-2.2,2c-0.5,1.9,0.4,3.1,0.4,3.1
						s1.6-0.6,1.8-1.9C20.3,56,20.1,54.5,20.2,53.9z M19,49.1c-0.5,0.1-1,0.3-1.4,0.5c-2.2,1.2-1.2,3.5-1.2,3.5s0.4,0.1,1.5-0.6
						C18.7,52,18.6,49.7,19,49.1z M13.6,44.7c-1.2-0.7-2-1.5-2-1.5c-0.1,0.2-0.1,0.5-0.2,0.8c-0.5,3.5,2.8,3.7,2.8,3.7
						S14.9,45.4,13.6,44.7z M17.8,44.7c-0.4,0.1-0.8,0.2-1.2,0.4c-1.8,0.9-1,2.8-1,2.8s0.3,0.1,1.2-0.5
						C17.6,47.1,17.5,45.3,17.8,44.7z"/>
				</g>
			</g>
			<g class="st3">
				<g>
					<path class="st2" d="M85.2,79.5l-0.3-0.3c9.4-9.4,14.6-21.8,14.6-35c0-13.1-5.1-25.5-14.4-34.8L85.4,9
						c9.4,9.4,14.5,21.9,14.5,35.2C99.9,57.5,94.7,70.1,85.2,79.5z"/>
				</g>
			</g>
			<g class="st4">
				<g>
					<path class="st2" d="M73.4,85.4l-0.2-0.4C87.8,76.7,97,61,97,44.2c0-16.8-9.1-32.4-23.7-40.8L73.5,3
						c14.7,8.5,23.9,24.2,23.9,41.2C97.4,61.2,88.2,77,73.4,85.4z"/>
				</g>
			</g>
			<g>
				<path class="st2" d="M60.8,87l-0.1-0.4c19.4-4.9,33-22.3,33-42.3c0-20-13.5-37.4-32.9-42.3l0.1-0.4c19.5,5,33.2,22.6,33.2,42.7
					C94.1,64.4,80.4,82,60.8,87z"/>
			</g>
			<g class="st3">
				<g>
					<path class="st2" d="M14.8,79.5c-9.5-9.4-14.7-22-14.7-35.3C0.1,30.9,5.2,18.5,14.6,9l0.3,0.3C5.6,18.7,0.5,31.1,0.5,44.2
						c0,13.2,5.2,25.7,14.6,35L14.8,79.5z"/>
				</g>
			</g>
			<g class="st4">
				<g>
					<path class="st2" d="M26.6,85.4C11.8,77,2.6,61.2,2.6,44.2c0-16.9,9.2-32.7,23.9-41.2l0.2,0.4C12.1,11.8,3,27.4,3,44.2
						C3,61,12.2,76.7,26.8,85.1L26.6,85.4z"/>
				</g>
			</g>
			<g>
				<path class="st2" d="M39.2,87C19.6,82,5.9,64.4,5.9,44.2C5.9,24,19.5,6.4,39.1,1.4l0.1,0.4C19.9,6.8,6.3,24.2,6.3,44.2
					c0,20,13.6,37.4,33,42.3L39.2,87z"/>
			</g>
			<g>
				<path class="st2" d="M50,72.3c-15.5,0-28.1-12.6-28.1-28.1S34.5,16.1,50,16.1c15.5,0,28.1,12.6,28.1,28.1S65.5,72.3,50,72.3z
					 M50,16.6c-15.2,0-27.6,12.4-27.6,27.6S34.7,71.8,50,71.8c15.2,0,27.6-12.4,27.6-27.6S65.2,16.6,50,16.6z"/>
			</g>
		</g>
	</g>
	<g>
		
			<linearGradient id="SVGID_1_" gradientUnits="userSpaceOnUse" x1="49.7901" y1="30.6811" x2="50.1404" y2="46.5415" gradientTransform="matrix(1 0 0 -1 0 88.1102)">
			<stop  offset="0" style="stop-color:#3D82F7"/>
			<stop  offset="0.5775" style="stop-color:#0D67F9"/>
			<stop  offset="1" style="stop-color:#0D49CC"/>
		</linearGradient>
		<path class="st5" d="M41.8,59.8h15.8L53.9,56h-3.3l0.9-13l-1.4-1.4L48.2,43l0.7,13h-3.3L41.8,59.8z"/>
		
			<linearGradient id="SVGID_2_" gradientUnits="userSpaceOnUse" x1="43.4158" y1="56.2389" x2="58.0745" y2="41.0682" gradientTransform="matrix(1 0 0 -1 0 88.1102)">
			<stop  offset="0" style="stop-color:#32D7F5"/>
			<stop  offset="0.5695" style="stop-color:#1D93F4"/>
			<stop  offset="1" style="stop-color:#0D67F9"/>
		</linearGradient>
		<path class="st6" d="M47.3,38.8L39.6,31h1.7l7.5,7.7L44,43.6L47.3,38.8z M60.6,46.7l-7.8-8l3-5l-4.9,5l7.7,8L60.6,46.7z
			 M56.5,46.7l-6.6-6.9L39.4,50.7l10.7-8.9l4.8,4.9L56.5,46.7z M43.3,31l6.5,6.7l10.7-11.1l-10.8,9.1L45.3,31H43.3L43.3,31z"/>
	</g>
</g>
</svg>
