<svg width="50" height="50" viewBox="0 0 50 50" fill="none" xmlns="http://www.w3.org/2000/svg">
<path d="M50 25C50 32.1 47 38.5 42.3 43.1C41.3 44.1 40.2 45 39 45.7C38.8 45.8 38.7 45.9 38.5 46C38.2 46.2 38 46.3 37.7 46.5C34 48.7 29.7 50 25 50C17.6 50 10.9 46.8 6.3 41.6C6.2 41.5 6.1 41.4 6.1 41.3C5 40 4 38.6 3.1 37.1C2.5 36 2 34.8 1.5 33.6C1.3 33 1.1 32.5 1 31.9C0.4 29.7 0 27.4 0 25C0 11.2 11.2 0 25 0C38.8 0 50 11.2 50 25Z" fill="url(#paint0_linear)"/>
<path d="M43.1 31.8002L37.8 46.5002C34 48.7002 29.7 50.0002 25 50.0002C17.6 50.0002 10.9 46.8002 6.3 41.6002C6.2 41.5002 6.1 41.4002 6.1 41.3002C5 40.0002 4 38.6002 3.1 37.1002C2.5 36.0002 2 34.8002 1.5 33.6002C1.3 33.0002 1.1 32.5002 1 31.9002L7.2 16.2002L7.7 30.0002L12.6 29.5002L24.1 37.9002L30.9 35.6002L37.6 30.3002L43.1 31.8002Z" fill="url(#paint1_linear)"/>
<path d="M24.9999 38.5C24.0999 38.5 22.8999 38 22.3999 37.6C21.6999 37.2 18.3999 34.6 15.4999 32.3C14.9999 31.9 14.3999 31.2 13.6999 30.5L12.9999 29.8L12.7999 30.5C12.6999 30.8 12.4999 31 12.1999 31H7.5999C7.1999 31 6.8999 30.7 6.8999 30.3V16.7C6.8999 16.5 6.9999 16.3 7.0999 16.2C7.2999 16.1 7.4999 16 7.5999 16C9.1999 16.1 14.2999 16.5 15.5999 17.7C15.6999 17.8 15.7999 18 15.7999 18.2C15.7999 18.4 15.7999 18.6 15.6999 18.9V19H21.8999C23.1999 18 24.1999 17.6 25.3999 17.6C26.2999 17.6 27.1999 17.8 28.2999 18.3C29.8999 19 31.5999 19.7 32.5999 20.1L32.7999 20.2V20C32.6999 19.8 32.6999 19.7 32.6999 19.5C32.7999 19.3 32.8999 19.2 32.9999 19.1C33.0999 19 36.4999 17.5 42.2999 17.5C42.6999 17.5 42.9999 17.8 42.9999 18.2V31.8C42.9999 32.2 42.6999 32.5 42.2999 32.5H37.7999C37.4999 32.5 37.1999 32.3 37.1999 32C37.1999 31.8 37.0999 31.6 36.9999 31.3V31.2L35.5999 32.1V32.2C35.7999 33 35.4999 33.8 34.7999 34.4C34.2999 34.8 33.7999 35 33.2999 35H33.0999V35.1C32.8999 35.6 32.4999 36.1 31.8999 36.4C31.4999 36.6 30.9999 36.7 30.5999 36.7C30.3999 36.7 30.1999 36.7 30.0999 36.6H29.9999V36.7C29.6999 37.3 29.0999 37.9 28.4999 38.1C28.1999 38.2 27.8999 38.3 27.5999 38.3C27.2999 38.3 27.0999 38.3 26.7999 38.2H26.6999C26.2999 38.3 25.6999 38.5 24.9999 38.5ZM15.4999 20.4C14.9999 23 14.0999 26.1 13.4999 28.3V28.4C13.7999 28.7 14.1999 29.1 14.5999 29.6C15.1999 30.2 15.8999 31 16.2999 31.3C19.1999 33.7 22.4999 36.2 22.9999 36.5C23.4999 36.8 24.3999 37.1 24.8999 37.1C25.0999 37.1 25.1999 37.1 25.2999 37.1H25.4999L25.3999 37C24.0999 35.8 22.3999 34 22.1999 33.8C21.9999 33.5 21.9999 33.1 22.1999 32.9C22.2999 32.8 22.4999 32.7 22.5999 32.7C22.7999 32.7 22.9999 32.8 23.0999 32.9C23.4999 33.4 25.6999 35.7 26.7999 36.6C26.9999 36.8 27.1999 36.8 27.3999 36.8C27.4999 36.8 27.6999 36.8 27.7999 36.7C28.1999 36.6 28.4999 36.2 28.6999 35.8V35.7H28.5999C27.4999 34.7 25.4999 32.6 25.0999 32.2C24.7999 31.9 24.8999 31.5 25.0999 31.3C25.1999 31.2 25.3999 31.1 25.4999 31.1C25.6999 31.1 25.8999 31.2 25.9999 31.3C26.4999 31.9 28.7999 34.3 29.6999 35C29.8999 35.1 30.0999 35.2 30.2999 35.2C30.4999 35.2 30.6999 35.2 30.9999 35C31.0999 34.9 31.4999 34.7 31.5999 34.3V34.2C30.5999 33.3 28.0999 30.7 27.2999 29.9C27.1999 29.8 27.0999 29.6 27.0999 29.4C27.0999 29.2 27.1999 29.1 27.2999 28.9C27.3999 28.8 27.5999 28.7 27.7999 28.7C27.9999 28.7 28.0999 28.8 28.2999 28.9C29.5999 30.2 32.0999 32.8 32.6999 33.3C32.7999 33.4 32.8999 33.4 32.9999 33.4C33.1999 33.4 33.4999 33.3 33.6999 33.1C33.8999 32.9 34.2999 32.5 33.9999 31.8C33.3999 30.6 30.8999 28.6 28.6999 26.8C27.4999 25.8 26.2999 24.9 25.3999 24.1H25.2999C25.0999 24.2 24.8999 24.3 24.7999 24.3C24.3999 24.5 24.1999 24.6 23.6999 24.7C22.7999 25.8 21.6999 26.4 20.5999 26.4C20.1999 26.4 19.7999 26.3 19.2999 26.2C18.6999 26 18.1999 25.5 18.0999 24.9C17.6999 23.4 19.0999 21.4 20.0999 20.4L20.2999 20.2L15.4999 20.4ZM41.5999 18.9C37.9999 19 35.4999 19.7 34.3999 20.1H34.2999V20.2C35.4999 22.7 37.5999 28.7 38.2999 31.1V31.2H41.6999V18.9H41.5999ZM25.7999 22.8C25.9999 22.8 26.0999 22.9 26.2999 23C27.0999 23.8 28.3999 24.9 29.7999 26C31.8999 27.7 33.9999 29.4 34.9999 30.8L35.0999 30.9L36.5999 29.9V29.8C35.8999 27.6 34.5999 24.2 33.6999 22C32.8999 21.7 30.2999 20.7 27.7999 19.6C26.8999 19.2 26.1999 19 25.4999 19C24.0999 19 22.8999 19.9 21.2999 21.5C20.1999 22.6 19.3999 24.1 19.5999 24.8C19.5999 24.9 19.6999 25.1 19.9999 25.1C20.2999 25.2 20.5999 25.3 20.8999 25.3C21.6999 25.3 22.3999 24.8 23.0999 23.9C23.1999 23.7 23.3999 23.6 23.5999 23.6C24.0999 23.5 24.2999 23.5 24.5999 23.3C24.8999 23.2 25.1999 23 25.6999 22.9C25.5999 22.8 25.6999 22.8 25.7999 22.8ZM8.2999 29.6H11.6999V29.5C12.1999 27.8 14.0999 21.9 14.4999 18.5V18.4H14.3999C13.3999 17.9 10.5999 17.5 8.3999 17.3H8.2999V29.6Z" fill="white"/>
<defs>
<linearGradient id="paint0_linear" x1="25" y1="48.4783" x2="25" y2="1.0262" gradientUnits="userSpaceOnUse">
<stop stop-color="#100F56"/>
<stop offset="0.4075" stop-color="#152566"/>
<stop offset="1" stop-color="#1E4C83"/>
</linearGradient>
<linearGradient id="paint1_linear" x1="22.4314" y1="30.6206" x2="16.881" y2="47.6299" gradientUnits="userSpaceOnUse">
<stop stop-opacity="0.5"/>
<stop offset="1" stop-color="#100F56" stop-opacity="0"/>
</linearGradient>
</defs>
</svg>
