<svg width="50" height="50" viewBox="0 0 50 50" fill="none" xmlns="http://www.w3.org/2000/svg">
<path d="M50 25C50 32.1 47 38.5 42.3 43.1C41.3 44.1 40.2 45 39 45.7C35 48.4 30.2 50 25 50C17.6 50 10.9 46.8 6.3 41.6C6.2 41.5 6.1 41.4 6.1 41.3C5 40 4 38.6 3.1 37.1C1.1 33.5 0 29.4 0 25C0 11.2 11.2 0 25 0C38.8 0 50 11.2 50 25Z" fill="url(#paint0_linear)"/>
<path d="M39.9001 19.4L39.0001 45.7C35.0001 48.4 30.2001 50 25.0001 50C17.6001 50 10.9001 46.8 6.3001 41.6C6.2001 41.5 6.1001 41.4 6.1001 41.3C5.0001 40 4.0001 38.6 3.1001 37.1L11.8001 18.7L20.7001 18.4L34.2001 18L39.9001 19.4Z" fill="url(#paint1_linear)"/>
<path d="M26.0999 16.9C26.4999 17 26.8999 16.8 26.9999 16.4C27.4999 14.7 28.0999 13 29.0999 11.5C29.5999 10.8 30.1999 10.1 30.7999 9.8C31.4999 9.5 32.1999 9.7 32.9999 10.1C33.6999 10.5 34.1999 11.2 34.2999 12C34.2999 12.8 33.9999 13.6 33.3999 14.2C33.0999 14.5 32.6999 14.7 32.2999 14.8C31.8999 15 31.3999 15.1 30.9999 15.3C30.0999 15.6 29.1999 15.8 28.2999 16C28.1999 16 28.1999 16.1 28.1999 16.2C28.1999 16.3 28.2999 16.4 28.3999 16.3C29.2999 16.1 30.1999 15.9 31.0999 15.7C31.5999 15.6 31.9999 15.4 32.4999 15.3C32.8999 15.1 33.3999 15 33.7999 14.6C34.5999 13.9 35.0999 13 35.0999 11.9C35.0999 10.8 34.3999 9.8 33.4999 9.3C33.2999 9.2 33.0999 9 32.7999 8.9L32.4999 8.7L32.0999 8.6C31.9999 8.6 31.7999 8.5 31.6999 8.5H31.2999C30.9999 8.5 30.6999 8.6 30.4999 8.7C29.4999 9.1 28.7999 9.9 28.1999 10.7C26.9999 12.3 26.2999 14 25.5999 15.9C25.4999 16.3 25.6999 16.8 26.0999 16.9Z" fill="white"/>
<path d="M18.0999 15.1999C18.4999 15.3999 18.9999 15.4999 19.4999 15.5999C20.3999 15.7999 21.2999 15.9999 22.1999 16.1999C22.2999 16.1999 22.3999 16.1999 22.3999 16.0999C22.3999 15.9999 22.3999 15.8999 22.2999 15.8999C21.3999 15.6999 20.4999 15.3999 19.5999 15.1999C19.1999 15.0999 18.6999 14.8999 18.2999 14.6999C17.8999 14.4999 17.4999 14.2999 17.1999 14.0999C16.5999 13.4999 16.1999 12.6999 16.2999 11.8999C16.2999 11.0999 16.7999 10.3999 17.5999 9.9999C18.3999 9.5999 19.0999 9.3999 19.7999 9.6999C20.4999 9.9999 21.0999 10.6999 21.4999 11.3999C22.4999 12.8999 23.0999 14.5999 23.5999 16.2999C23.6999 16.6999 24.1999 16.8999 24.5999 16.7999C24.9999 16.6999 25.1999 16.1999 25.0999 15.7999C24.4999 13.9999 23.6999 12.1999 22.4999 10.5999C21.8999 9.7999 21.1999 8.9999 20.1999 8.5999C19.8999 8.4999 19.6999 8.3999 19.3999 8.3999H18.9999C18.8999 8.3999 18.6999 8.4999 18.5999 8.4999L18.1999 8.5999L17.8999 8.7999C17.6999 8.8999 17.3999 8.9999 17.1999 9.1999C16.2999 9.6999 15.5999 10.7999 15.5999 11.7999C15.5999 12.8999 16.0999 13.7999 16.8999 14.4999C17.1999 14.8999 17.6999 15.0999 18.0999 15.1999Z" fill="white"/>
<path d="M37.8999 17.6001H13.4999C12.3999 17.6001 11.3999 18.5001 11.3999 19.7001V21.6001C11.3999 22.6001 12.0999 23.4001 13.0999 23.6001V23.7001V34.7001C13.0999 35.9001 13.9999 36.8001 15.1999 36.8001H35.6999C36.8999 36.8001 37.7999 35.9001 37.7999 34.7001V23.7001H37.8999C38.9999 23.7001 39.9999 22.8001 39.9999 21.6001V19.7001C39.8999 18.5001 38.9999 17.6001 37.8999 17.6001ZM38.3999 21.6001C38.3999 21.9001 38.1999 22.1001 37.8999 22.1001H34.4999C34.0999 22.1001 33.6999 22.4001 33.6999 22.9001C33.6999 23.3001 33.9999 23.7001 34.4999 23.7001H36.1999V34.7001C36.1999 35.0001 35.8999 35.3001 35.5999 35.3001H15.0999C14.7999 35.3001 14.4999 35.0001 14.4999 34.7001V23.7001H17.5999C17.9999 23.7001 18.3999 23.4001 18.3999 22.9001C18.3999 22.5001 18.0999 22.1001 17.5999 22.1001H13.3999C13.0999 22.1001 12.8999 21.9001 12.8999 21.6001V19.7001C12.8999 19.4001 13.0999 19.2001 13.3999 19.2001H37.7999C38.0999 19.2001 38.2999 19.4001 38.2999 19.7001V21.6001H38.3999Z" fill="white"/>
<path d="M30.8999 22.6C30.5999 22.3 30.0999 22.3 29.7999 22.6L20.9999 31.2C20.6999 31.5 20.6999 32 20.9999 32.3C21.1999 32.5 21.2999 32.5 21.4999 32.5C21.6999 32.5 21.8999 32.4 21.9999 32.3L30.7999 23.7C31.1999 23.4 31.1999 22.9 30.8999 22.6Z" fill="white"/>
<path d="M28.7999 28.2998C27.4999 28.2998 26.4999 29.2998 26.4999 30.5998C26.4999 31.8998 27.4999 32.8998 28.7999 32.8998C30.0999 32.8998 31.0999 31.8998 31.0999 30.5998C31.0999 29.2998 30.0999 28.2998 28.7999 28.2998ZM28.7999 31.3998C28.3999 31.3998 27.9999 30.9998 27.9999 30.5998C27.9999 30.1998 28.3999 29.7998 28.7999 29.7998C29.1999 29.7998 29.5999 30.1998 29.5999 30.5998C29.5999 30.9998 29.1999 31.3998 28.7999 31.3998Z" fill="white"/>
<path d="M24.3999 24.1999C24.3999 22.8999 23.3999 21.8999 22.0999 21.8999C20.7999 21.8999 19.7999 22.8999 19.7999 24.1999C19.7999 25.4999 20.7999 26.4999 22.0999 26.4999C23.3999 26.5999 24.3999 25.4999 24.3999 24.1999ZM21.2999 24.1999C21.2999 23.7999 21.6999 23.3999 22.0999 23.3999C22.4999 23.3999 22.8999 23.7999 22.8999 24.1999C22.8999 24.5999 22.4999 24.9999 22.0999 24.9999C21.6999 24.9999 21.2999 24.6999 21.2999 24.1999Z" fill="white"/>
<defs>
<linearGradient id="paint0_linear" x1="25" y1="48.4783" x2="25" y2="1.0262" gradientUnits="userSpaceOnUse">
<stop stop-color="#100F56"/>
<stop offset="0.4075" stop-color="#152566"/>
<stop offset="1" stop-color="#1E4C83"/>
</linearGradient>
<linearGradient id="paint1_linear" x1="16.345" y1="19.2209" x2="32.3664" y2="47.3163" gradientUnits="userSpaceOnUse">
<stop stop-opacity="0.5"/>
<stop offset="1" stop-color="#100F56" stop-opacity="0"/>
</linearGradient>
</defs>
</svg>
