<svg width="17" height="17" viewBox="0 0 17 17" fill="none" xmlns="http://www.w3.org/2000/svg">
<path d="M14.1345 1.88965H15.7594C16.3094 1.88965 16.7594 2.29278 16.7594 2.7855V4.39802C16.7594 4.89074 16.3094 5.29387 15.7594 5.29387H1.16011C0.610136 5.29387 0.160156 4.89074 0.160156 4.39802V2.7855C0.160156 2.29278 0.610136 1.88965 1.16011 1.88965H2.86003" fill="#3B3C69"/>
<path d="M5.05624 3.59119H4.10398C3.67546 3.59119 3.31836 3.34783 3.31836 3.05581V1.12522C3.31836 0.833196 3.67546 0.589844 4.10398 0.589844H5.05624C5.48476 0.589844 5.84186 0.833196 5.84186 1.12522V3.05581C5.84186 3.34783 5.48476 3.59119 5.05624 3.59119Z" fill="#3B3C69" stroke="white" stroke-miterlimit="10" stroke-linecap="round"/>
<path d="M12.8629 3.59119H11.9106C11.4821 3.59119 11.125 3.34783 11.125 3.05581V1.12522C11.125 0.833196 11.4821 0.589844 11.9106 0.589844H12.8629C13.2914 0.589844 13.6485 0.833196 13.6485 1.12522V3.05581C13.6485 3.34783 13.2914 3.59119 12.8629 3.59119Z" fill="#3B3C69" stroke="white" stroke-miterlimit="10" stroke-linecap="round"/>
<path d="M15.5072 16.2465H1.41368C0.937546 16.2465 0.556641 15.8656 0.556641 15.3895V6.55723C0.556641 6.0811 0.937546 5.7002 1.41368 5.7002H15.5072C15.9833 5.7002 16.3642 6.0811 16.3642 6.55723V15.3895C16.3642 15.8656 15.9833 16.2465 15.5072 16.2465Z" stroke="#3B3C69" stroke-miterlimit="10" stroke-linecap="round"/>
<path d="M8.45906 14.8888C10.6283 14.8888 12.3869 13.1303 12.3869 10.961C12.3869 8.79174 10.6283 7.0332 8.45906 7.0332C6.28979 7.0332 4.53125 8.79174 4.53125 10.961C4.53125 13.1303 6.28979 14.8888 8.45906 14.8888Z" stroke="#3B3C69" stroke-miterlimit="10" stroke-linecap="round"/>
<path d="M7.27734 9.28418L8.46022 10.9614H10.7907" stroke="#3B3C69" stroke-miterlimit="10" stroke-linecap="round"/>
</svg>
