<?xml version="1.0" encoding="utf-8"?>
<!-- Generator: Adobe Illustrator 25.2.2, SVG Export Plug-In . SVG Version: 6.00 Build 0)  -->
<svg version="1.1" id="Layer_1" xmlns="http://www.w3.org/2000/svg" xmlns:xlink="http://www.w3.org/1999/xlink" x="0px" y="0px"
	 viewBox="0 0 20 20" style="enable-background:new 0 0 20 20;" xml:space="preserve">
<style type="text/css">
	.st0{fill:url(#SVGID_1_);}
	.st1{fill:#1371F9;}
</style>
<g>
	<g>
		
			<linearGradient id="SVGID_1_" gradientUnits="userSpaceOnUse" x1="299.9769" y1="-373.9657" x2="310.6505" y2="-374.0336" gradientTransform="matrix(1 0 0 -1 -296 -364)">
			<stop  offset="0" style="stop-color:#0D67F9"/>
			<stop  offset="0.9896" style="stop-color:#4DCBF3"/>
		</linearGradient>
		<path class="st0" d="M9.4,19.3c-5.1,0-9.3-4.2-9.3-9.3c0-5.1,4.2-9.3,9.3-9.3s9.3,4.2,9.3,9.3C18.7,15.1,14.5,19.3,9.4,19.3z
			 M9.4,2.5c-4.2,0-7.5,3.4-7.5,7.5s3.4,7.5,7.5,7.5c4.2,0,7.5-3.4,7.5-7.5S13.5,2.5,9.4,2.5z"/>
	</g>
	<g>
		<g>
			<polygon class="st1" points="9,13.8 3.9,8 5.2,6.9 9.1,11.3 18.7,2 19.9,3.3 			"/>
		</g>
	</g>
</g>
</svg>
