<?xml version="1.0" encoding="utf-8"?>
<!-- Generator: Adobe Illustrator 25.2.2, SVG Export Plug-In . SVG Version: 6.00 Build 0)  -->
<svg version="1.1" id="Layer_1" xmlns="http://www.w3.org/2000/svg" xmlns:xlink="http://www.w3.org/1999/xlink" x="0px" y="0px"
	 viewBox="0 0 20 20" style="enable-background:new 0 0 20 20;" xml:space="preserve">
<style type="text/css">
	.st0{fill:#0D67F9;}
</style>
<g>
	<path class="st0" d="M4,4.1c-2.4,2.4-3.1,6-1.8,9.2c0.1,0.2,0,0.4-0.2,0.4c0,0-0.1,0-0.1,0c-0.1,0-0.3-0.1-0.3-0.2
		c-1.4-3.4-0.6-7.3,2-9.9c2.4-2.4,6-3.3,9.2-2.2l-0.4-0.7c-0.1-0.2,0-0.4,0.1-0.5c0.2-0.1,0.4,0,0.5,0.1l0.8,1.5
		c0.1,0.2,0,0.4-0.1,0.5l-1.5,0.8c-0.1,0-0.1,0-0.2,0c-0.1,0-0.3-0.1-0.3-0.2c-0.1-0.2,0-0.4,0.1-0.5L12.6,2C9.6,1,6.3,1.8,4,4.1z
		 M18.4,6.5c-0.1-0.2-0.3-0.3-0.4-0.2c-0.2,0.1-0.3,0.3-0.2,0.4c1.3,3.2,0.6,6.8-1.8,9.2c-2.3,2.3-5.7,3.1-8.8,2l0.7-0.4
		c0.2-0.1,0.3-0.3,0.2-0.5C8,16.9,7.8,16.9,7.6,17l-1.5,0.8c-0.1,0-0.2,0.1-0.2,0.2c0,0.1,0,0.2,0,0.3l0.8,1.5
		c0.1,0.1,0.2,0.2,0.3,0.2c0.1,0,0.1,0,0.2,0c0.2-0.1,0.3-0.3,0.2-0.5l-0.4-0.8c1,0.4,2,0.5,3.1,0.5c2.4,0,4.7-0.9,6.4-2.7
		C19,13.8,19.8,10,18.4,6.5z M5.2,10.1c0-2.6,2.1-4.7,4.7-4.7c2.6,0,4.7,2.1,4.7,4.7s-2.1,4.7-4.7,4.7C7.3,14.8,5.2,12.7,5.2,10.1z
		 M5.9,10.1c0,2.2,1.8,4,4,4s4-1.8,4-4s-1.8-4-4-4S5.9,7.9,5.9,10.1z M9.5,11.8v-1.5c-0.7-0.2-1.3-0.6-1.3-1.4c0-0.6,0.4-1.1,1-1.4
		l0.3-0.1V7c0-0.2,0.2-0.4,0.4-0.4c0.2,0,0.4,0.2,0.4,0.4v0.5c0.6,0.1,1.1,0.5,1.4,1.1l0.1,0.2L11,9.2l-0.1-0.3
		c-0.1-0.3-0.3-0.5-0.6-0.6v1.3c0.7,0.3,1.5,0.6,1.5,1.5c0,0.8-0.6,1.4-1.5,1.5v0.4c0,0.2-0.2,0.4-0.4,0.4c-0.2,0-0.4-0.2-0.4-0.4
		v-0.5c-0.7-0.1-1.2-0.6-1.4-1.2L8,11.2l0.8-0.4l0.1,0.3C9,11.4,9.2,11.7,9.5,11.8z M10.3,11.8c0.4-0.1,0.7-0.3,0.7-0.6
		c0-0.3-0.2-0.4-0.7-0.6V11.8z M9.5,9.4V8.3L9.4,8.4C9.2,8.5,9.1,8.7,9.1,8.9C9.1,9.2,9.3,9.3,9.5,9.4z"/>
</g>
</svg>
