<?xml version="1.0" encoding="utf-8"?>
<!-- Generator: Adobe Illustrator 25.2.2, SVG Export Plug-In . SVG Version: 6.00 Build 0)  -->
<svg version="1.1" id="Layer_1" xmlns="http://www.w3.org/2000/svg" xmlns:xlink="http://www.w3.org/1999/xlink" x="0px" y="0px"
	 viewBox="0 0 20 20" style="enable-background:new 0 0 20 20;" xml:space="preserve">
<style type="text/css">
	.st0{fill:#0D67F9;}
</style>
<g>
	<g>
		<path class="st0" d="M8.4,11.6H1.7V6.4h6.7V11.6z M2.3,11h5.5V7H2.3V11z"/>
	</g>
	<g>
		<path class="st0" d="M18.3,11.6h-6.7V6.4h6.7V11.6z M12.2,11h5.5V7h-5.5V11z"/>
	</g>
	<g>
		<path class="st0" d="M12.2,19.9H7.8V6.4h4.4V19.9z M8.4,19.3h3.2V7H8.4V19.3z"/>
	</g>
	<g>
		<path class="st0" d="M8.4,19.9H2.8v-9h5.6V19.9z M3.4,19.3h4.4v-7.7H3.4V19.3z"/>
	</g>
	<g>
		<path class="st0" d="M17.2,19.9h-5.6v-9h5.6V19.9z M12.2,19.3h4.4v-7.7h-4.4V19.3z"/>
	</g>
	<g>
		<path class="st0" d="M10.4,6h-3C7.3,6,5,5.9,3.9,4.7C3.4,4.2,3.2,3.7,3.3,3c0.1-1.4,1-2.6,2.4-2.9c1.3-0.3,2.5,0.3,3.1,1.6
			c1.3,2.5,1.5,3.9,1.6,3.9L10.4,6z M6.3,0.7c-0.2,0-0.3,0-0.5,0.1C4.9,0.9,3.9,1.7,3.9,3c0,0.5,0.1,0.9,0.5,1.3
			c0.9,1,3,1.1,3.1,1.1h2.2C9.5,4.8,9.1,3.7,8.2,2C7.8,1.1,7.1,0.7,6.3,0.7z"/>
	</g>
	<g>
		<path class="st0" d="M10,6H9.6l0.1-0.4c0-0.1,0.2-1.4,1.6-3.9c0.7-1.2,1.9-1.8,3.1-1.6c1.3,0.3,2.3,1.5,2.4,2.9
			c0,0.7-0.2,1.2-0.6,1.7C15,5.9,12.7,6,12.6,6H10z M10.4,5.4h2.2c0,0,2.1-0.1,3-1.1C16,3.9,16.2,3.5,16.1,3c-0.1-1.3-1-2.1-1.9-2.3
			c-1-0.2-1.9,0.2-2.4,1.2C10.9,3.7,10.5,4.8,10.4,5.4z"/>
	</g>
</g>
</svg>
