<?xml version="1.0" encoding="utf-8"?>
<!-- Generator: Adobe Illustrator 25.2.2, SVG Export Plug-In . SVG Version: 6.00 Build 0)  -->
<svg version="1.1" id="Layer_1" xmlns="http://www.w3.org/2000/svg" xmlns:xlink="http://www.w3.org/1999/xlink" x="0px" y="0px"
	 viewBox="0 0 20 20" style="enable-background:new 0 0 20 20;" xml:space="preserve">
<style type="text/css">
	.st0{fill:#0D67F9;}
</style>
<path class="st0" d="M12.6,7.2v0.9C12.3,8,12.1,7.8,12,7.5l0-0.1l-0.4,0.2l0,0.1c0.1,0.5,0.5,0.8,1,0.9v0.6c0,0.2,0.1,0.3,0.3,0.3
	c0.2,0,0.3-0.1,0.3-0.3V8.5c0.6-0.1,1.1-0.5,1.1-1c0-0.6-0.5-0.9-1.1-1.1V5.1c0.3,0.1,0.5,0.3,0.6,0.5l0,0.1l0.4-0.2l0-0.1
	C14,5,13.7,4.8,13.2,4.7V4.4c0-0.2-0.1-0.3-0.3-0.3c-0.2,0-0.3,0.1-0.3,0.3v1.8c-0.3-0.1-0.4-0.3-0.4-0.5c0-0.2,0.1-0.4,0.3-0.5V4.7
	c-0.4,0.2-0.7,0.5-0.7,1c0,0.6,0.4,0.8,0.9,1c0,0.1,0.1,0.2,0.3,0.2C12.8,6.9,12.6,7,12.6,7.2z M13.1,6.8c0.5,0.2,0.8,0.3,0.8,0.7
	c0,0.3-0.2,0.6-0.6,0.6v-1c0-0.2-0.1-0.3-0.3-0.3C13,6.9,13,6.8,13.1,6.8z M18.3,12.3c-0.4-0.1-0.8,0-1.2,0.2l-3.5,2.3
	c0,0,0-0.1-0.1-0.1c-0.2-0.3-0.5-0.6-0.9-0.7l-5.5-1.6c-0.8-0.2-1.6-0.1-2.3,0.4l-2.3,1.6l-0.4-0.6l-1.5,0.9
	c-0.2,0.1-0.2,0.3-0.1,0.5c0.1,0.2,0.3,0.2,0.5,0.1l1-0.6l2.9,4.2l-0.7,0.5c-0.1,0.1-0.2,0.3-0.1,0.5c0.1,0.1,0.2,0.1,0.3,0.1
	c0.1,0,0.2,0,0.2-0.1l1.2-1l-0.3-0.5l0.4-0.3C6,18,6.2,18,6.4,18l4.9,1.4c0.2,0,0.3,0.1,0.5,0.1c0.4,0,0.8-0.1,1.1-0.3l5.8-4.1
	c0.7-0.5,0.8-1.3,0.5-2C19,12.6,18.7,12.4,18.3,12.3z M18.4,14.4l-5.8,4.1c-0.3,0.2-0.7,0.3-1.1,0.2l-4.9-1.4
	c-0.4-0.1-0.8,0-1.1,0.2l-0.4,0.3L3,14.8l2.3-1.6C5.8,12.9,6.4,12.8,7,13l5.5,1.6c0.2,0.1,0.4,0.2,0.5,0.4c0.1,0.2,0.1,0.4,0.1,0.6
	c-0.1,0.4-0.5,0.6-0.9,0.5l-3.2-0.8c-0.2,0-0.4,0.1-0.4,0.3c0,0.2,0.1,0.4,0.3,0.4l3.2,0.8c0.1,0,0.2,0,0.3,0c0.6,0,1.2-0.4,1.4-1
	c0-0.1,0-0.2,0-0.2l3.8-2.4c0.2-0.1,0.4-0.2,0.7-0.1c0.2,0.1,0.4,0.2,0.5,0.4C18.8,13.7,18.7,14.2,18.4,14.4z M7.7,11.4l-3.3-5h1.7
	c0.2-3.5,3.1-6.3,6.7-6.3c3.7,0,6.7,3,6.7,6.7c0,0.1,0,0.1,0,0.2c0,0.2-0.2,0.3-0.4,0.3c-0.2,0-0.3-0.2-0.3-0.4c0,0,0-0.1,0-0.1
	c0-3.3-2.7-6-6-6c-3.3,0-6,2.7-6,6v0.3H5.7l2,3.1l2-3.1H8.2V6.8c0-2.5,2.1-4.6,4.6-4.6s4.6,2.1,4.6,4.6c0,2.5-2.1,4.6-4.6,4.6
	c-1.1,0-2.2-0.4-3.1-1.2c-0.1-0.1-0.2-0.3,0-0.5c0.1-0.1,0.3-0.2,0.5,0c0.7,0.7,1.7,1,2.6,1c2.1,0,3.9-1.7,3.9-3.9s-1.7-3.9-3.9-3.9
	c-2,0-3.7,1.6-3.9,3.5H11L7.7,11.4z M19.5,7.7v0.5c0,0.2-0.2,0.3-0.3,0.3s-0.3-0.2-0.3-0.3V7.7c0-0.2,0.2-0.3,0.3-0.3
	S19.5,7.5,19.5,7.7z M19.5,9.2v0.5c0,0.2-0.2,0.3-0.3,0.3s-0.3-0.2-0.3-0.3V9.2c0-0.2,0.2-0.3,0.3-0.3S19.5,9,19.5,9.2z"/>
</svg>
