<?xml version="1.0" encoding="utf-8"?>
<!-- Generator: Adobe Illustrator 16.0.0, SVG Export Plug-In . SVG Version: 6.00 Build 0)  -->
<!DOCTYPE svg PUBLIC "-//W3C//DTD SVG 1.1//EN" "http://www.w3.org/Graphics/SVG/1.1/DTD/svg11.dtd">
<svg version="1.1" id="Layer_1" xmlns="http://www.w3.org/2000/svg" xmlns:xlink="http://www.w3.org/1999/xlink" x="0px" y="0px"
	 width="58px" height="59px" viewBox="0 0 58 59" enable-background="new 0 0 58 59" xml:space="preserve">
<path fill="none" stroke="#FFFFFF" stroke-width="2" stroke-miterlimit="10" d="M53.013,31.201c-0.3,5.1-2.101,9.7-5,13.5"/>
<path fill="none" stroke="#FFFFFF" stroke-width="2" stroke-miterlimit="10" stroke-opacity="0.5" d="M30.412,5.901
	c4.9,0.3,9.4,2,13.101,4.8"/>
<path fill="none" stroke="#FFFFFF" stroke-width="2" stroke-miterlimit="10" stroke-opacity="0.5" d="M12.813,12.101
	c3.6-3.2,8.1-5.4,13.1-6.1"/>
<path fill="none" stroke="#FFFFFF" stroke-width="2" stroke-miterlimit="10" stroke-opacity="0.5" d="M4.913,28.601
	c0.3-5.1,2.1-9.7,5-13.4"/>
<path fill="none" stroke="#FFFFFF" stroke-width="2" stroke-miterlimit="10" stroke-opacity="0.5" d="M11.113,46.102
	c-3.2-3.5-5.3-8-6-13"/>
<path fill="none" stroke="#FFFFFF" stroke-width="2" stroke-miterlimit="10" stroke-opacity="0.5" d="M27.712,54.001
	c-5.1-0.2-9.7-2.1-13.5-5"/>
<path fill="none" stroke="#FFFFFF" stroke-width="2" stroke-miterlimit="10" stroke-opacity="0.5" d="M45.013,47.9
	c-3.601,3.201-8.101,5.301-13.101,5.9"/>
<path fill="none" stroke="#FFFFFF" stroke-width="2" stroke-miterlimit="10" stroke-opacity="0.5" d="M47.313,14.401
	c3,3.5,5,8,5.5,12.8"/>
<path fill="none" stroke="#FFFFFF" stroke-width="2" stroke-miterlimit="10" d="M34.113,25.301L23.413,36.002"/>
<path fill="none" stroke="#FFFFFF" stroke-width="2" stroke-miterlimit="10" d="M31.912,37.602c1.381,0,2.5-1.119,2.5-2.5
	s-1.119-2.5-2.5-2.5s-2.5,1.119-2.5,2.5S30.531,37.602,31.912,37.602z"/>
<path fill="none" stroke="#FFFFFF" stroke-width="2" stroke-miterlimit="10" d="M26.413,27.301c1.381,0,2.5-1.119,2.5-2.5
	s-1.119-2.5-2.5-2.5s-2.5,1.119-2.5,2.5S25.032,27.301,26.413,27.301z"/>
<path fill="none" stroke="#FFFFFF" stroke-width="2" stroke-miterlimit="10" d="M47.713,49.301l-11.6-6.1c-0.801-0.4-1.801,0-2,0.9
	l-3,12.699c-0.301,1.4-2.201,1.4-2.701,0.101l-3.9-12.5c-0.3-0.899-1.3-1.2-2-0.8l-11.1,6.9c-1.2,0.699-2.6-0.601-1.9-1.801
	l6.1-11.6c0.4-0.801,0-1.801-0.9-2l-12.7-3c-1.3-0.2-1.4-2.1,0-2.5l12.5-3.9c0.9-0.3,1.2-1.3,0.8-2l-7-11.2
	c-0.7-1.2,0.6-2.6,1.8-1.9l11.6,6.1c0.8,0.4,1.8,0,2-0.9l3-12.7c0.3-1.4,2.2-1.5,2.6-0.1l3.9,12.5c0.3,0.9,1.3,1.2,2,0.8l11.1-6.9
	c1.2-0.7,2.6,0.6,1.9,1.8l-6.1,11.6c-0.4,0.8,0,1.8,0.899,2l12.7,3c1.4,0.3,1.4,2.201,0.1,2.701l-12.5,3.899
	c-0.9,0.3-1.199,1.3-0.8,2l6.899,11.101C50.313,48.502,49.013,50.002,47.713,49.301z"/>
</svg>
