<svg width="58" height="59" viewBox="0 0 58 59" fill="none" xmlns="http://www.w3.org/2000/svg">
<path d="M53.0127 31.2012C52.7127 36.3012 50.9127 40.9012 48.0127 44.7012" stroke="#0D67F9" stroke-width="2" stroke-miterlimit="10"/>
<path d="M30.4126 5.90112C35.3126 6.20112 39.8126 7.90112 43.5126 10.7011" stroke="#0D67F9" stroke-opacity="0.5" stroke-width="2" stroke-miterlimit="10"/>
<path d="M12.8126 12.1012C16.4126 8.90122 20.9126 6.70122 25.9126 6.00122" stroke="#0D67F9" stroke-opacity="0.5" stroke-width="2" stroke-miterlimit="10"/>
<path d="M4.9126 28.6012C5.2126 23.5012 7.0126 18.9012 9.9126 15.2012" stroke="#0D67F9" stroke-opacity="0.5" stroke-width="2" stroke-miterlimit="10"/>
<path d="M11.1126 46.1011C7.91261 42.6011 5.81261 38.1011 5.11261 33.1011" stroke="#0D67F9" stroke-opacity="0.5" stroke-width="2" stroke-miterlimit="10"/>
<path d="M27.7126 54.0012C22.6126 53.8012 18.0126 51.9012 14.2126 49.0012" stroke="#0D67F9" stroke-opacity="0.5" stroke-width="2" stroke-miterlimit="10"/>
<path d="M45.0126 47.9011C41.4126 51.1011 36.9126 53.2011 31.9126 53.8011" stroke="#0D67F9" stroke-opacity="0.5" stroke-width="2" stroke-miterlimit="10"/>
<path d="M47.3126 14.4011C50.3126 17.9011 52.3126 22.4011 52.8126 27.2011" stroke="#0D67F9" stroke-opacity="0.5" stroke-width="2" stroke-miterlimit="10"/>
<path d="M34.1126 25.3013L23.4126 36.0013" stroke="#0D67F9" stroke-width="2" stroke-miterlimit="10"/>
<path d="M31.9126 37.6013C33.2933 37.6013 34.4126 36.482 34.4126 35.1013C34.4126 33.7206 33.2933 32.6013 31.9126 32.6013C30.5319 32.6013 29.4126 33.7206 29.4126 35.1013C29.4126 36.482 30.5319 37.6013 31.9126 37.6013Z" stroke="#0D67F9" stroke-width="2" stroke-miterlimit="10"/>
<path d="M26.4126 27.3013C27.7933 27.3013 28.9126 26.182 28.9126 24.8013C28.9126 23.4206 27.7933 22.3013 26.4126 22.3013C25.0319 22.3013 23.9126 23.4206 23.9126 24.8013C23.9126 26.182 25.0319 27.3013 26.4126 27.3013Z" stroke="#0D67F9" stroke-width="2" stroke-miterlimit="10"/>
<path d="M47.7128 49.3013L36.1128 43.2013C35.3128 42.8013 34.3128 43.2013 34.1128 44.1013L31.1128 56.8013C30.8128 58.2013 28.9128 58.2013 28.4128 56.9013L24.5128 44.4013C24.2128 43.5013 23.2128 43.2013 22.5128 43.6013L11.4128 50.5013C10.2128 51.2013 8.81285 49.9013 9.51285 48.7013L15.6128 37.1013C16.0128 36.3013 15.6128 35.3013 14.7128 35.1013L2.01285 32.1013C0.712847 31.9013 0.612847 30.0013 2.01285 29.6013L14.5128 25.7013C15.4128 25.4013 15.7128 24.4013 15.3128 23.7013L8.31285 12.5013C7.61285 11.3013 8.91285 9.90134 10.1128 10.6013L21.7128 16.7013C22.5128 17.1013 23.5128 16.7013 23.7128 15.8013L26.7128 3.10134C27.0128 1.70134 28.9128 1.60134 29.3128 3.00134L33.2128 15.5013C33.5128 16.4013 34.5128 16.7013 35.2128 16.3013L46.3128 9.40134C47.5128 8.70134 48.9128 10.0013 48.2128 11.2013L42.1128 22.8013C41.7128 23.6013 42.1128 24.6013 43.0128 24.8013L55.7128 27.8013C57.1128 28.1013 57.1128 30.0013 55.8128 30.5013L43.3128 34.4013C42.4128 34.7013 42.1128 35.7013 42.5128 36.4013L49.4128 47.5013C50.3128 48.5013 49.0128 50.0013 47.7128 49.3013Z" stroke="#0D67F9" stroke-width="2" stroke-miterlimit="10"/>
</svg>
