<?xml version="1.0" encoding="utf-8"?>
<!-- Generator: Adobe Illustrator 16.0.0, SVG Export Plug-In . SVG Version: 6.00 Build 0)  -->
<!DOCTYPE svg PUBLIC "-//W3C//DTD SVG 1.1//EN" "http://www.w3.org/Graphics/SVG/1.1/DTD/svg11.dtd">
<svg version="1.1" id="Layer_1" xmlns="http://www.w3.org/2000/svg" xmlns:xlink="http://www.w3.org/1999/xlink" x="0px" y="0px"
	 width="57px" height="49px" viewBox="0 0 57 49" enable-background="new 0 0 57 49" xml:space="preserve">
<g>
	<path fill="#E4F7FF" d="M42.4,0H14.1L0,24.5l14.1,24.4h28.3l14.1-24.4L42.4,0z"/>
</g>
<path fill="#0D67F9" d="M20.45,23.4h16.1c1.71,0,3.158-1.416,3.3-3.3v-7.7c0-1.789-1.511-3.3-3.3-3.3h-16.1
	c-1.789,0-3.3,1.511-3.3,3.3v7.7C17.15,21.889,18.661,23.4,20.45,23.4z M19.15,12.4c0-0.615,0.533-1.3,1.3-1.3h16.1
	c0.615,0,1.3,0.534,1.3,1.3l0.004,7.624c-0.061,0.771-0.633,1.376-1.304,1.376h-16.1c-0.615,0-1.3-0.534-1.3-1.3V12.4z M17.351,31.5
	c-2.316,0-4.2,1.885-4.2,4.199c0,2.316,1.884,4.201,4.2,4.201c2.315,0,4.199-1.885,4.199-4.201
	C21.55,33.385,19.666,31.5,17.351,31.5z M17.351,37.9c-1.214,0-2.2-0.988-2.2-2.201s0.986-2.199,2.2-2.199
	c1.213,0,2.199,0.986,2.199,2.199S18.563,37.9,17.351,37.9z M39.65,31.5c-2.316,0-4.201,1.885-4.201,4.199
	c0,2.316,1.885,4.201,4.201,4.201c2.314,0,4.199-1.885,4.199-4.201C43.85,33.385,41.966,31.5,39.65,31.5z M39.65,37.9
	c-1.215,0-2.201-0.988-2.201-2.201S38.438,33.5,39.65,33.5s2.199,0.986,2.199,2.199S40.863,37.9,39.65,37.9z M26.07,26.293
	l-2.104,2.186L25.05,29.5l-4.699,1.4l1.1-4.801l1.063,1.006l2.116-2.199L26.07,26.293z M31.85,29.5l1.084-1.023l-2.104-2.184
	l1.44-1.387l2.117,2.197l1.063-1.004L36.65,30.9L31.85,29.5z M28.15,34.301l4.2,2.398l-4.2,2.4v-1.4h-3.5v-2h3.5V34.301z"/>
</svg>
