<svg width="90" height="90" viewBox="0 0 90 90" fill="none" xmlns="http://www.w3.org/2000/svg">
<path d="M45 88C68.7482 88 88 68.7482 88 45C88 21.2518 68.7482 2 45 2C21.2518 2 2 21.2518 2 45C2 68.7482 21.2518 88 45 88Z" stroke="#0D67F9" stroke-width="3" stroke-miterlimit="10"/>
<path opacity="0.5" d="M44.9986 81.7154C65.2759 81.7154 81.714 65.2774 81.714 45.0001C81.714 24.7227 65.2759 8.28467 44.9986 8.28467C24.7212 8.28467 8.2832 24.7227 8.2832 45.0001C8.2832 65.2774 24.7212 81.7154 44.9986 81.7154Z" stroke="#0D67F9" stroke-width="2" stroke-miterlimit="10"/>
<path d="M44.8901 19.6411L60.326 45.2206L44.7798 54.0411L29.5645 45.1103L44.8901 19.6411Z" stroke="#0D67F9" stroke-width="3" stroke-miterlimit="10"/>
<path d="M59.0028 50.6232L45.0002 70.3591L30.5566 50.2925L44.89 58.8925L59.0028 50.6232Z" stroke="#0D67F9" stroke-width="3" stroke-miterlimit="10"/>
<path opacity="0.5" d="M44.8906 19.6411V53.6001" stroke="#0D67F9" stroke-width="3" stroke-miterlimit="10"/>
<path opacity="0.5" d="M44.8906 58.8923L45.0009 70.359" stroke="#0D67F9" stroke-width="3" stroke-miterlimit="10"/>
</svg>
