<?xml version="1.0" encoding="utf-8"?>
<!-- Generator: Adobe Illustrator 16.0.0, SVG Export Plug-In . SVG Version: 6.00 Build 0)  -->
<!DOCTYPE svg PUBLIC "-//W3C//DTD SVG 1.1//EN" "http://www.w3.org/Graphics/SVG/1.1/DTD/svg11.dtd">
<svg version="1.1" id="Layer_1" xmlns="http://www.w3.org/2000/svg" xmlns:xlink="http://www.w3.org/1999/xlink" x="0px" y="0px"
	 width="57px" height="49px" viewBox="0 0 57 49" enable-background="new 0 0 57 49" xml:space="preserve">
<path fill="#E4F7FF" d="M42.4,0H14.1L0,24.5l14.1,24.4h28.3l14.1-24.4L42.4,0z"/>
<path fill="#0D67F9" d="M41.9,22.816V21.85c0-7.333-5.967-13.3-13.3-13.3c-7.333,0-13.3,5.966-13.3,13.3v0.822
	c-1.392,0.901-2.3,2.462-2.3,4.279v0.6c0,2.813,2.288,5.1,5.1,5.1h1V21.851h-1c-0.275,0-0.538,0.038-0.8,0.078V21.85
	c0-6.231,5.069-11.3,11.3-11.3c6.23,0,11.3,5.069,11.3,11.3v0.098c-0.324-0.063-0.656-0.098-1-0.098h-1v10.8h1
	c0.24,0,0.469-0.039,0.699-0.068v0.668c0,1.852-1.449,3.301-3.3,3.301h-4.09c-0.408-1.105-1.465-1.9-2.711-1.9h-2.4
	c-1.599,0-2.9,1.302-2.9,2.9c0,1.6,1.301,2.9,2.9,2.9h2.4c1.194,0,2.271-0.816,2.696-1.9H36.3c2.972,0,5.3-2.328,5.3-5.301v-1.368
	c1.446-0.891,2.399-2.474,2.399-4.331v-0.6C44,25.225,43.176,23.734,41.9,22.816z M17.1,30.484c-1.22-0.418-2.1-1.575-2.1-2.936
	v-0.6c0-1.387,0.867-2.534,2.1-2.942V30.484z M29.5,38.45h-2.4c-0.556,0-0.9-0.468-0.9-0.9c0-0.556,0.467-0.899,0.9-0.899h2.4
	c0.555,0,0.9,0.468,0.9,0.899C30.4,37.996,29.945,38.45,29.5,38.45z M42,27.55c0,1.388-0.867,2.533-2.1,2.94v-6.482
	c1.231,0.408,2.1,1.555,2.1,2.942V27.55z"/>
</svg>
