<svg width="81" height="81" viewBox="0 0 81 81" fill="none" xmlns="http://www.w3.org/2000/svg">
<path d="M40.8 79.6C62.2287 79.6 79.6 62.2287 79.6 40.8C79.6 19.3714 62.2287 2 40.8 2C19.3714 2 2 19.3714 2 40.8C2 62.2287 19.3714 79.6 40.8 79.6Z" stroke="#0D67F9" stroke-opacity="0.5" stroke-width="2.5" stroke-linecap="round" stroke-linejoin="round" stroke-dasharray="10 6"/>
<path d="M62.0006 38.6V36.4C62.0006 24.7 52.5006 15.2 40.8006 15.2C29.1006 15.2 19.6006 24.7 19.6006 36.4V38.6" stroke="#0D67F9" stroke-width="2.5" stroke-miterlimit="10" stroke-linecap="round" stroke-linejoin="round"/>
<path d="M23.0004 53.2V38C19.1004 38 15.9004 41.2 15.9004 45.1V46.1C15.9004 50 19.0004 53.2 23.0004 53.2Z" stroke="#0D67F9" stroke-width="2.5" stroke-miterlimit="10" stroke-linecap="round" stroke-linejoin="round"/>
<path d="M58.7002 53.2V38C62.6002 38 65.8002 41.2 65.8002 45.1V46.1C65.8002 50 62.6002 53.2 58.7002 53.2Z" stroke="#0D67F9" stroke-width="2.5" stroke-miterlimit="10" stroke-linecap="round" stroke-linejoin="round"/>
<path d="M61.6002 52.7V55.9C61.6002 60 58.3002 63.3 54.2002 63.3H45.7002" stroke="#0D67F9" stroke-width="2.5" stroke-miterlimit="10" stroke-linecap="round" stroke-linejoin="round"/>
<path d="M42.4005 66.4999H38.3005C36.5005 66.4999 35.0005 64.9999 35.0005 63.1999C35.0005 61.3999 36.5005 59.8999 38.3005 59.8999H42.4005C44.2005 59.8999 45.7005 61.3999 45.7005 63.1999C45.8005 64.9999 44.3005 66.4999 42.4005 66.4999Z" stroke="#0D67F9" stroke-width="2.5" stroke-miterlimit="10" stroke-linecap="round" stroke-linejoin="round"/>
<path d="M36.1006 34.5C36.6006 34 37.0006 33.5 37.3006 33C37.6006 32.5 37.7006 32 37.7006 31.5C37.7006 30.7 37.4006 30 36.9006 29.5C36.4006 29 35.7006 28.8 35.0006 28.8C34.4006 28.8 33.9006 28.9 33.4006 29.2C32.9006 29.5 32.5006 29.9 32.2006 30.5L32.1006 30.7L33.2006 31.3L33.3006 31.1C33.7006 30.4 34.2006 30 35.0006 30C35.4006 30 35.8006 30.1 36.1006 30.4C36.4006 30.7 36.5006 31 36.5006 31.5C36.5006 32.1 36.1006 32.8 35.3006 33.6L32.2006 36.7V37.7H37.9006V36.5H34.1006L36.1006 34.5Z" fill="#0D67F9"/>
<path d="M42.4005 37.8H43.7005V36.1H44.8005V34.9H43.7005V32.3H42.4005V34.9H39.4005L42.6005 29H41.2005L38.0005 35.1V36.1H42.4005V37.8Z" fill="#0D67F9"/>
<path opacity="0.5" d="M46.5005 32.8L41.5005 44L42.5005 43.9L47.5005 32.7L46.5005 32.8Z" fill="#0D67F9"/>
<path d="M45.0005 38.5V39.7H49.2005L46.0005 47.3H47.3005L50.6005 39.5V38.5H45.0005Z" fill="#0D67F9"/>
</svg>
