<svg width="51" height="41" viewBox="0 0 51 41" fill="none" xmlns="http://www.w3.org/2000/svg">
<path d="M25.8003 21.8974C31.2948 21.8974 35.749 17.4432 35.749 11.9487C35.749 6.45419 31.2948 2 25.8003 2C20.3058 2 15.8516 6.45419 15.8516 11.9487C15.8516 17.4432 20.3058 21.8974 25.8003 21.8974Z" stroke="#0D67F9" stroke-width="2.1693" stroke-miterlimit="10" stroke-linecap="round"/>
<path d="M30.0103 14.4739C30.0103 12.4077 28.2501 11.6424 26.5665 11.0302V8.04554C27.1787 8.27512 27.6379 8.65776 27.944 9.34652L28.1736 9.95875L29.8572 9.04041L29.6277 8.58124C29.092 7.20372 27.944 6.36191 26.5665 6.13232V4.98439C26.5665 4.52522 26.1839 4.14258 25.7247 4.14258C25.2655 4.14258 24.8829 4.52522 24.8829 4.98439V6.05579L24.1941 6.28538C22.8166 6.82108 22.0513 7.96901 22.0513 9.42305C22.0513 11.3363 23.3523 12.025 24.9594 12.5607V15.8515C24.1941 15.6219 23.6584 15.0862 23.4288 14.3209L23.1993 13.6321L21.5156 14.627L21.6687 15.0862C22.1279 16.5402 23.3523 17.5351 24.9594 17.8412V18.9126C24.9594 19.3718 25.3421 19.7544 25.8012 19.7544C26.2604 19.7544 26.643 19.3718 26.643 18.9126V17.9177C28.6328 17.6881 30.0103 16.3872 30.0103 14.4739ZM28.0206 14.4739C28.0206 15.2392 27.4849 15.7749 26.5665 15.928V13.0199C27.5614 13.4791 28.0206 13.8617 28.0206 14.4739ZM24.8829 8.04554V10.4945C24.2707 10.1883 23.9645 9.88222 23.9645 9.34652C23.9645 8.88735 24.1941 8.50471 24.5768 8.19859L24.8829 8.04554Z" fill="#0D67F9"/>
<path d="M49.6008 21.668H44.7795V39.3461H7.05089V21.668H2" stroke="#0D67F9" stroke-opacity="0.5" stroke-width="2.1693" stroke-miterlimit="10" stroke-linecap="round"/>
<path d="M2.99512 14.9333C10.9541 14.9333 17.459 21.4383 17.459 29.3973" stroke="#0D67F9" stroke-width="2.1693" stroke-miterlimit="10" stroke-linecap="round"/>
<path d="M22.3575 25.877L17.4597 30.8513L12.4854 25.877" stroke="#0D67F9" stroke-width="2.1693" stroke-miterlimit="10" stroke-linecap="round" stroke-linejoin="round"/>
<path d="M49.6016 14.9333C41.6426 14.9333 35.1377 21.4383 35.1377 29.3973" stroke="#0D67F9" stroke-width="2.1693" stroke-miterlimit="10" stroke-linecap="round"/>
<path d="M30.1631 25.8767L35.1374 30.8511L40.0353 25.8767" stroke="#0D67F9" stroke-width="2.1693" stroke-miterlimit="10" stroke-linecap="round" stroke-linejoin="round"/>
</svg>
