<svg width="68" height="77" viewBox="0 0 68 77" fill="none" xmlns="http://www.w3.org/2000/svg">
<path d="M33.9 62.5C47.2101 62.5 58 51.7101 58 38.4001C58 25.09 47.2101 14.3 33.9 14.3C20.5899 14.3 9.79999 25.09 9.79999 38.4001C9.79999 51.7101 20.5899 62.5 33.9 62.5Z" stroke="#0D67F9" stroke-opacity="0.5" stroke-width="2" stroke-miterlimit="10"/>
<path d="M28.8192 36C28.9192 35.5 29.0192 35.1 29.1192 34.6C29.1192 34.3 29.1192 33.9 29.1192 33.6C28.8192 31.2 30.6192 29.1 33.0192 29C34.7192 29 36.4192 29 38.2192 29C38.5192 29 38.8192 29.2 39.0192 29.5C39.2192 29.8 39.1192 30.2 38.8192 30.4C38.5192 30.6 38.5192 30.8 38.7192 31.2C39.1192 32 39.2192 32.8 39.1192 33.7C39.0192 34.1 39.1192 34.4 39.3192 34.7C39.6192 35.5 39.6192 36.4 39.3192 37.3C39.2192 37.5 39.1192 37.7 38.9192 37.8C38.3192 38 38.2192 38.5 38.0192 39C37.3192 40.6 35.8192 41.5 34.0192 41.4C32.4192 41.3 30.9192 40.2 30.4192 38.5C30.3192 38.2 30.2192 38 29.9192 37.8C28.9192 37.5 28.9192 36.8 28.8192 36ZM36.3192 30.6C35.3192 30.6 34.2192 30.6 33.2192 30.6C31.5192 30.6 30.4192 31.9 30.6192 33.5C30.6192 33.8 30.7192 34.2 30.8192 34.5C30.8192 34.7 30.8192 35 30.7192 35.1C30.3192 35.6 30.5192 36.1 30.5192 36.5C31.4192 36.6 31.5192 36.7 31.6192 37.6C31.7192 38.9 32.8192 39.9 34.1192 39.9C35.3192 39.9 36.4192 39 36.6192 37.7C36.6192 37.4 36.7192 37 36.9192 36.8C37.1192 36.6 37.4192 36.5 37.8192 36.4C37.7192 36.1 37.8192 35.6 37.6192 35.4C37.3192 35 37.2192 34.7 37.3192 34.3C37.6192 33.2 37.6192 32.1 36.7192 31.2C36.5192 31.1 36.5192 30.8 36.3192 30.6Z" fill="#0D67F9"/>
<path d="M34.1193 43.1C34.6193 42.6 35.0193 42.1 35.5193 41.6C35.8193 41.3 36.1193 41.2 36.5193 41.3C37.7193 41.5 38.8193 41.7 40.0193 41.8C41.3193 42 42.0193 42.7 42.2193 44C42.3193 44.5 42.4193 45 42.5193 45.5C42.6193 46 42.3193 46.4 41.9193 46.5C41.5193 46.6 41.1193 46.3 41.0193 45.8C40.9193 45.3 40.8193 44.6999 40.7193 44.1999C40.6193 43.6999 40.4193 43.4999 39.9193 43.3999C38.9193 43.1999 37.9193 43.0999 36.9193 42.8999C36.7193 42.8999 36.4193 43 36.3193 43.1C35.8193 43.6 35.3193 44.1 34.8193 44.5C34.3193 44.9 34.0193 44.9 33.5193 44.5C33.0193 44 32.6193 43.5 32.1193 43.1C31.9193 43 31.7193 42.8999 31.5193 42.8999C30.5193 42.9999 29.5193 43.1999 28.6193 43.3999C28.1193 43.4999 27.8193 43.6999 27.8193 44.1999C27.7193 44.6999 27.6193 45.2 27.5193 45.8C27.4193 46.3 27.0193 46.6 26.6193 46.5C26.2193 46.4 25.9193 46 26.0193 45.5C26.1193 45 26.2193 44.5 26.3193 44C26.5193 42.8 27.3193 42.0999 28.5193 41.8999C29.7193 41.6999 30.8193 41.5999 32.0193 41.3999C32.4193 41.2999 32.7193 41.3999 33.0193 41.6999C33.1193 42.0999 33.6193 42.5 34.1193 43.1Z" fill="#0D67F9"/>
<path d="M47.9 46.5999V30.2999L33.9 22.2L19.8 30.2999V46.5999L33.9 54.7L47.9 46.5999Z" stroke="#0D67F9" stroke-width="2" stroke-miterlimit="10"/>
<path d="M47.9 30.3L61.4 22.5" stroke="#0D67F9" stroke-width="2" stroke-miterlimit="10"/>
<path d="M63.7 24.2C65.3568 24.2 66.7 22.8568 66.7 21.2C66.7 19.5431 65.3568 18.2 63.7 18.2C62.0431 18.2 60.7 19.5431 60.7 21.2C60.7 22.8568 62.0431 24.2 63.7 24.2Z" stroke="#0D67F9" stroke-width="2" stroke-miterlimit="10"/>
<path d="M33.9 22.2001L33.8 6.6001" stroke="#0D67F9" stroke-width="2" stroke-miterlimit="10"/>
<path d="M33.8 7C35.4568 7 36.8 5.65685 36.8 4C36.8 2.34315 35.4568 1 33.8 1C32.1431 1 30.8 2.34315 30.8 4C30.8 5.65685 32.1431 7 33.8 7Z" stroke="#0D67F9" stroke-width="2" stroke-miterlimit="10"/>
<path d="M19.8 30.2001L6.39999 22.4001" stroke="#0D67F9" stroke-width="2" stroke-miterlimit="10"/>
<path d="M4.10001 24.1001C5.75686 24.1001 7.10001 22.757 7.10001 21.1001C7.10001 19.4432 5.75686 18.1001 4.10001 18.1001C2.44315 18.1001 1.10001 19.4432 1.10001 21.1001C1.10001 22.757 2.44315 24.1001 4.10001 24.1001Z" stroke="#0D67F9" stroke-width="2" stroke-miterlimit="10"/>
<path d="M19.8 46.5L6.20001 54.2" stroke="#0D67F9" stroke-width="2" stroke-miterlimit="10"/>
<path d="M4 58.6001C5.65685 58.6001 7 57.257 7 55.6001C7 53.9432 5.65685 52.6001 4 52.6001C2.34315 52.6001 1 53.9432 1 55.6001C1 57.257 2.34315 58.6001 4 58.6001Z" stroke="#0D67F9" stroke-width="2" stroke-miterlimit="10"/>
<path d="M33.8 54.7V70.1999" stroke="#0D67F9" stroke-width="2" stroke-miterlimit="10"/>
<path d="M33.8 75.8999C35.4568 75.8999 36.8 74.5568 36.8 72.8999C36.8 71.243 35.4568 69.8999 33.8 69.8999C32.1431 69.8999 30.8 71.243 30.8 72.8999C30.8 74.5568 32.1431 75.8999 33.8 75.8999Z" stroke="#0D67F9" stroke-width="2" stroke-miterlimit="10"/>
<path d="M47.9 46.6001L61.4 54.4001" stroke="#0D67F9" stroke-width="2" stroke-miterlimit="10"/>
<path d="M63.7 58.7002C65.3568 58.7002 66.7 57.357 66.7 55.7002C66.7 54.0433 65.3568 52.7002 63.7 52.7002C62.0431 52.7002 60.7 54.0433 60.7 55.7002C60.7 57.357 62.0431 58.7002 63.7 58.7002Z" stroke="#0D67F9" stroke-width="2" stroke-miterlimit="10"/>
</svg>
