<?xml version="1.0" encoding="utf-8"?>
<!-- Generator: Adobe Illustrator 16.0.0, SVG Export Plug-In . SVG Version: 6.00 Build 0)  -->
<!DOCTYPE svg PUBLIC "-//W3C//DTD SVG 1.1//EN" "http://www.w3.org/Graphics/SVG/1.1/DTD/svg11.dtd">
<svg version="1.1" id="Layer_1" xmlns="http://www.w3.org/2000/svg" xmlns:xlink="http://www.w3.org/1999/xlink" x="0px" y="0px"
	 width="68px" height="77px" viewBox="0 0 68 77" enable-background="new 0 0 68 77" xml:space="preserve">
<path fill="none" stroke="#FFFFFF" stroke-width="2" stroke-miterlimit="10" stroke-opacity="0.5" d="M33.9,62.5
	C47.21,62.5,58,51.71,58,38.4S47.21,14.3,33.9,14.3S9.8,25.09,9.8,38.4S20.59,62.5,33.9,62.5z"/>
<path fill="#FFFFFF" d="M28.819,36c0.1-0.5,0.2-0.9,0.3-1.4c0-0.3,0-0.7,0-1c-0.3-2.4,1.5-4.5,3.9-4.6c1.7,0,3.401,0,5.2,0
	c0.301,0,0.601,0.2,0.801,0.5c0.199,0.3,0.1,0.7-0.2,0.9c-0.3,0.2-0.3,0.4-0.101,0.8c0.4,0.8,0.5,1.6,0.4,2.5c-0.1,0.4,0,0.7,0.2,1
	c0.3,0.8,0.3,1.7,0,2.6c-0.101,0.2-0.2,0.4-0.399,0.5c-0.601,0.2-0.701,0.7-0.9,1.2c-0.7,1.6-2.2,2.5-4,2.4
	c-1.6-0.101-3.1-1.2-3.6-2.9c-0.1-0.3-0.2-0.5-0.5-0.7C28.919,37.5,28.919,36.8,28.819,36z M36.319,30.6c-1,0-2.1,0-3.1,0
	c-1.7,0-2.8,1.3-2.6,2.9c0,0.3,0.1,0.7,0.2,1c0,0.2,0,0.5-0.1,0.6c-0.4,0.5-0.2,1-0.2,1.4c0.9,0.1,1,0.2,1.1,1.1
	c0.1,1.3,1.2,2.3,2.5,2.3c1.2,0,2.301-0.9,2.5-2.2c0-0.3,0.1-0.7,0.301-0.9c0.199-0.2,0.5-0.3,0.899-0.4c-0.101-0.3,0-0.8-0.2-1
	c-0.3-0.4-0.4-0.7-0.3-1.1c0.3-1.1,0.3-2.2-0.601-3.1C36.52,31.1,36.52,30.8,36.319,30.6z"/>
<path fill="#FFFFFF" d="M34.119,43.1c0.5-0.5,0.9-1,1.4-1.5c0.3-0.3,0.6-0.399,1-0.3c1.199,0.2,2.3,0.4,3.5,0.5
	c1.3,0.2,2,0.9,2.199,2.2c0.101,0.5,0.201,1,0.301,1.5s-0.2,0.9-0.6,1c-0.4,0.1-0.801-0.2-0.9-0.7s-0.2-1.101-0.301-1.601
	c-0.1-0.5-0.299-0.699-0.799-0.799c-1-0.201-2-0.301-3-0.5c-0.201,0-0.5,0.1-0.601,0.199c-0.5,0.5-1,1-1.5,1.4s-0.8,0.4-1.3,0
	c-0.5-0.5-0.9-1-1.4-1.4c-0.2-0.1-0.4-0.199-0.6-0.199c-1,0.1-2,0.299-2.9,0.5c-0.5,0.1-0.8,0.299-0.8,0.799
	c-0.1,0.5-0.2,1.001-0.3,1.601c-0.1,0.5-0.5,0.8-0.9,0.7c-0.4-0.1-0.7-0.5-0.6-1c0.1-0.5,0.2-1,0.3-1.5c0.2-1.2,1-1.9,2.2-2.1
	c1.2-0.201,2.3-0.301,3.5-0.5c0.4-0.101,0.7,0,1,0.299C33.119,42.1,33.619,42.5,34.119,43.1z"/>
<path fill="none" stroke="#FFFFFF" stroke-width="2" stroke-miterlimit="10" d="M47.9,46.6V30.3l-14-8.1l-14.1,8.1v16.3L33.9,54.7
	L47.9,46.6z"/>
<path fill="none" stroke="#FFFFFF" stroke-width="2" stroke-miterlimit="10" d="M47.9,30.3l13.5-7.8"/>
<path fill="none" stroke="#FFFFFF" stroke-width="2" stroke-miterlimit="10" d="M63.7,24.2c1.657,0,3-1.343,3-3c0-1.657-1.343-3-3-3
	s-3,1.343-3,3C60.7,22.857,62.043,24.2,63.7,24.2z"/>
<path fill="none" stroke="#FFFFFF" stroke-width="2" stroke-miterlimit="10" d="M33.9,22.2L33.8,6.6"/>
<path fill="none" stroke="#FFFFFF" stroke-width="2" stroke-miterlimit="10" d="M33.8,7c1.657,0,3-1.343,3-3s-1.343-3-3-3
	c-1.657,0-3,1.343-3,3S32.143,7,33.8,7z"/>
<path fill="none" stroke="#FFFFFF" stroke-width="2" stroke-miterlimit="10" d="M19.8,30.2L6.4,22.4"/>
<path fill="none" stroke="#FFFFFF" stroke-width="2" stroke-miterlimit="10" d="M4.1,24.1c1.657,0,3-1.343,3-3s-1.343-3-3-3
	s-3,1.343-3,3S2.443,24.1,4.1,24.1z"/>
<path fill="none" stroke="#FFFFFF" stroke-width="2" stroke-miterlimit="10" d="M19.8,46.5L6.2,54.2"/>
<path fill="none" stroke="#FFFFFF" stroke-width="2" stroke-miterlimit="10" d="M4,58.6c1.657,0,3-1.343,3-3c0-1.656-1.343-3-3-3
	s-3,1.344-3,3C1,57.257,2.343,58.6,4,58.6z"/>
<path fill="none" stroke="#FFFFFF" stroke-width="2" stroke-miterlimit="10" d="M33.8,54.7v15.499"/>
<path fill="none" stroke="#FFFFFF" stroke-width="2" stroke-miterlimit="10" d="M33.8,75.9c1.657,0,3-1.344,3-3c0-1.657-1.343-3-3-3
	c-1.657,0-3,1.343-3,3C30.8,74.557,32.143,75.9,33.8,75.9z"/>
<path fill="none" stroke="#FFFFFF" stroke-width="2" stroke-miterlimit="10" d="M47.9,46.6L61.4,54.4"/>
<path fill="none" stroke="#FFFFFF" stroke-width="2" stroke-miterlimit="10" d="M63.7,58.7c1.657,0,3-1.343,3-3s-1.343-3-3-3
	s-3,1.343-3,3S62.043,58.7,63.7,58.7z"/>
</svg>
