<?xml version="1.0" encoding="utf-8"?>
<!-- Generator: Adobe Illustrator 25.0.0, SVG Export Plug-In . SVG Version: 6.00 Build 0)  -->
<svg version="1.1" id="Layer_1" xmlns="http://www.w3.org/2000/svg" xmlns:xlink="http://www.w3.org/1999/xlink" x="0px" y="0px"
	 viewBox="0 0 18 12" style="enable-background:new 0 0 18 12;" xml:space="preserve">
<style type="text/css">
	.st0{clip-path:url(#SVGID_2_);}
	.st1{clip-path:url(#SVGID_4_);fill:#FFFFFF;}
	.st2{clip-path:url(#SVGID_4_);fill:#BD1F38;}
	.st3{clip-path:url(#SVGID_4_);fill:#2C3077;}
</style>
<g>
	<defs>
		<rect id="SVGID_1_" width="18" height="12"/>
	</defs>
	<clipPath id="SVGID_2_">
		<use xlink:href="#SVGID_1_"  style="overflow:visible;"/>
	</clipPath>
	<g class="st0">
		<g>
			<defs>
				<rect id="SVGID_3_" x="-1.3" width="20.6" height="12"/>
			</defs>
			<clipPath id="SVGID_4_">
				<use xlink:href="#SVGID_3_"  style="overflow:visible;"/>
			</clipPath>
			<rect x="-1.3" class="st1" width="20.6" height="12"/>
			<polygon class="st2" points="12.5,4.3 19.3,0.5 19.3,0 18.8,0 11.1,4.3 			"/>
			<polygon class="st2" points="12.2,7.9 19.3,11.9 19.3,11.1 13.6,7.9 			"/>
			<polygon class="st2" points="-1.3,0.9 4.8,4.3 6.2,4.3 -1.3,0.1 			"/>
			<polygon class="st2" points="5.9,7.9 -1.3,11.9 -1.3,12 0,12 7.3,7.9 			"/>
			<polygon class="st3" points="17.9,0 10.7,0 10.7,4 			"/>
			<polygon class="st3" points="7.5,0 0.3,0 7.5,4 			"/>
			<polygon class="st3" points="19.3,4.3 19.3,1.6 14.4,4.3 			"/>
			<polygon class="st3" points="19.3,10.6 19.3,7.9 14.4,7.9 			"/>
			<polygon class="st3" points="0.7,12 7.5,12 7.5,8.2 			"/>
			<polygon class="st3" points="10.7,12 17.5,12 10.7,8.2 			"/>
			<polygon class="st3" points="-1.3,7.9 -1.3,10.7 3.8,7.9 			"/>
			<polygon class="st3" points="-1.3,4.3 3.8,4.3 -1.3,1.5 			"/>
			<polygon class="st2" points="8.1,0 8.1,5.1 -1.3,5.1 -1.3,7.2 8.1,7.2 8.1,12 10,12 10,7.2 19.3,7.2 19.3,5.1 10,5.1 10,0 			"/>
		</g>
	</g>
</g>
</svg>
