<svg id="Layer_1" data-name="Layer 1" xmlns="http://www.w3.org/2000/svg" xmlns:xlink="http://www.w3.org/1999/xlink" viewBox="0 0 20.6 12"><defs><style>.cls-1{fill:none;}.cls-2{clip-path:url(#clip-path);}.cls-3{clip-path:url(#clip-path-2);}.cls-4{fill:#b51f2d;}.cls-5{fill:#f4c327;}.cls-6{fill:#9d1c29;}.cls-7{fill:#010101;}.cls-8{fill:#c2b130;}.cls-9{fill:#fff;}.cls-10{fill:#3d8f6e;}.cls-11{fill:#3c5ba9;}.cls-12{fill:#cacaca;}.cls-13{fill:#c0b531;}.cls-14{fill:#ca3f4c;}.cls-15{fill:#df6ba8;}.cls-16{fill:#f7d491;}.cls-17{fill:#4653a4;}.cls-18{clip-path:url(#clip-path-601);}</style><clipPath id="clip-path" transform="translate(1.3)"><rect class="cls-1" width="18" height="12"/></clipPath><clipPath id="clip-path-2" transform="translate(1.3)"><rect class="cls-1" x="-1.3" width="20.6" height="12"/></clipPath><clipPath id="clip-path-601" transform="translate(1.3)"><rect class="cls-1" x="4.4" y="6.4" width="0.5" height="0.6"/></clipPath></defs><g class="cls-2"><g class="cls-3"><g class="cls-3"><rect class="cls-4" width="20.6" height="12"/></g><g class="cls-3"><rect class="cls-5" y="3" width="20.6" height="6"/></g><g class="cls-3"><g class="cls-3"><path class="cls-6" d="M2.7,5.3h0a.1.1,0,0,1-.1-.1h0c.2.1.1.1.1.1Z" transform="translate(1.3)"/></g><g class="cls-3"><path class="cls-7" d="M3.1,5.3H2.7V5.2H3l.1.1.1-.1-.1.1Zm-.2,0h0Z" transform="translate(1.3)"/></g><g class="cls-3"><path class="cls-8" d="M2.9,5.2Z" transform="translate(1.3)"/></g><g class="cls-3"><path class="cls-7" d="M2.9,5.2Zm0-.1Z" transform="translate(1.3)"/></g><g class="cls-3"><path class="cls-8" d="M2.9,5.2Z" transform="translate(1.3)"/></g><g class="cls-3"><path class="cls-7" d="M2.9,5.2h0v0Z" transform="translate(1.3)"/></g><g class="cls-3"><path class="cls-8" d="M2.9,5.1Z" transform="translate(1.3)"/></g><g class="cls-3"><polygon class="cls-8" points="4.2 5.1 4.2 5.1 4.2 5.1 4.2 5.1 4.2 5.1 4.2 5.1 4.2 5.1 4.2 5 4.2 5 4.2 5 4.2 5 4.2 5 4.2 5 4.2 5.1 4.2 5.1 4.2 5.1"/></g><g class="cls-3"><polygon class="cls-1" points="4.2 5.1 4.2 5.1 4.2 5.1 4.2 5.1 4.2 5.1 4.2 5.1 4.2 5.1 4.2 5 4.2 5 4.2 5 4.2 5 4.2 5 4.2 5 4.2 5.1 4.2 5.1 4.2 5.1 4.2 5.1"/></g><g class="cls-3"><polygon class="cls-8" points="4.2 5.1 4.2 5.1 4.2 5.1 4.2 5.1 4.2 5.1 4.2 5.1 4.2 5.1 4.2 5 4.2 5 4.2 5 4.2 5 4.2 5 4.2 5 4.2 5.1 4.2 5.1 4.2 5.1"/></g><g class="cls-3"><polygon class="cls-1" points="4.2 5.1 4.2 5.1 4.2 5.1 4.2 5.1 4.2 5.1 4.2 5.1 4.2 5.1 4.2 5 4.2 5 4.2 5 4.2 5 4.2 5 4.2 5 4.2 5.1 4.2 5.1 4.2 5.1 4.2 5.1"/></g><g class="cls-3"><path class="cls-7" d="M2.9,5.1Z" transform="translate(1.3)"/></g><g class="cls-3"><path class="cls-8" d="M2.9,5.3H2.8l-.1-.1h0c0-.1.1,0,.2.1h0l.2-.2h0L3,5.2H2.9Z" transform="translate(1.3)"/></g><g class="cls-3"><path class="cls-7" d="M3,5.3H2.8V5.2l-.1-.1h0a.1.1,0,0,1,.1.1v.1H3a.35.35,0,0,1,.1-.2h0c0,.1,0,.1-.1.2Zm-.2-.1a.1.1,0,0,0-.1-.1h0a.1.1,0,0,1,.1.1Zm.2,0a.1.1,0,0,1,.1-.1h0a.1.1,0,0,0-.1.1Z" transform="translate(1.3)"/></g><g class="cls-3"><path class="cls-7" d="M3,5.2a.1.1,0,0,1,.1-.1h0L3,5.2Zm-.2,0a.1.1,0,0,0-.1-.1h0l.1.1Z" transform="translate(1.3)"/></g><g class="cls-3"><path class="cls-8" d="M2.7,5.4Z" transform="translate(1.3)"/></g><g class="cls-3"><path class="cls-7" d="M2.7,5.4h0c0-.1.1-.1.2-.1h0c-.1,0-.1,0-.2.1Z" transform="translate(1.3)"/></g><g class="cls-3"><path class="cls-8" d="M2.9,5.4h0c-.1-.1-.1-.1-.2,0h.2Z" transform="translate(1.3)"/></g><g class="cls-3"><path class="cls-7" d="M2.9,5.4h0Zm0,0h0Z" transform="translate(1.3)"/></g><g class="cls-3"><path class="cls-8" d="M3.1,5.3Z" transform="translate(1.3)"/></g><g class="cls-3"><path class="cls-7" d="M3.1,5.3h0Z" transform="translate(1.3)"/></g><g class="cls-3"><path class="cls-8" d="M2.9,5.2H3c0,.1,0,.1-.1,0h0c0,.1-.1.1,0,0h0c-.1.1-.1,0-.1,0h0c0,.1,0,.1.1,0h0c-.1.1,0,.1,0,0Z" transform="translate(1.3)"/></g><g class="cls-3"><path class="cls-7" d="M3.1,5.3Zm-.4,0Zm0,0Z" transform="translate(1.3)"/></g><g class="cls-3"><path class="cls-8" d="M2.9,5.3h0Z" transform="translate(1.3)"/></g><g class="cls-3"><path class="cls-7" d="M3.1,5.3Zm0,0h0Z" transform="translate(1.3)"/></g><g class="cls-3"><path class="cls-9" d="M2.8,5.3Z" transform="translate(1.3)"/></g><g class="cls-3"><path class="cls-1" d="M2.8,5.3Z" transform="translate(1.3)"/></g><g class="cls-3"><path class="cls-6" d="M2.9,5.3Z" transform="translate(1.3)"/></g><g class="cls-3"><path class="cls-1" d="M2.9,5.3Z" transform="translate(1.3)"/></g><g class="cls-3"><path class="cls-10" d="M2.8,5.4Z" transform="translate(1.3)"/></g><g class="cls-3"><path class="cls-1" d="M2.8,5.4Z" transform="translate(1.3)"/></g><g class="cls-3"><polygon class="cls-6" points="4 5.4 4 5.4 4 5.4 4 5.4"/></g><g class="cls-3"><polygon class="cls-1" points="4 5.4 4 5.4 4 5.4 4 5.4 4 5.4"/></g><g class="cls-3"><path class="cls-9" d="M2.9,5.3Z" transform="translate(1.3)"/></g><g class="cls-3"><path class="cls-1" d="M2.9,5.3Z" transform="translate(1.3)"/></g><g class="cls-3"><path class="cls-10" d="M3,5.4Z" transform="translate(1.3)"/></g><g class="cls-3"><path class="cls-1" d="M3,5.4Z" transform="translate(1.3)"/></g><g class="cls-3"><polygon class="cls-6" points="4.4 5.4 4.4 5.4 4.4 5.4 4.4 5.4"/></g><g class="cls-3"><polygon class="cls-1" points="4.4 5.4 4.4 5.4 4.4 5.4 4.4 5.4 4.4 5.4"/></g><g class="cls-3"><path class="cls-6" d="M2.9,5.4h0Z" transform="translate(1.3)"/></g><g class="cls-3"><path class="cls-7" d="M2.9,5.4Zm0,0h0Z" transform="translate(1.3)"/></g><g class="cls-3"><path class="cls-8" d="M3.1,5.3Z" transform="translate(1.3)"/></g><g class="cls-3"><path class="cls-1" d="M3.1,5.3Z" transform="translate(1.3)"/></g><g class="cls-3"><path class="cls-8" d="M3,5.3Z" transform="translate(1.3)"/></g><g class="cls-3"><path class="cls-1" d="M3,5.3Z" transform="translate(1.3)"/></g><g class="cls-3"><path class="cls-8" d="M2.8,5.3Z" transform="translate(1.3)"/></g><g class="cls-3"><path class="cls-1" d="M2.8,5.3Z" transform="translate(1.3)"/></g><g class="cls-3"><path class="cls-8" d="M2.7,5.3Z" transform="translate(1.3)"/></g><g class="cls-3"><path class="cls-1" d="M2.7,5.3Z" transform="translate(1.3)"/></g><g class="cls-3"><polygon class="cls-8" points="4.2 5.2 4.2 5.2 4.2 5.2 4.2 5.2 4.2 5.2 4.2 5.2"/></g><g class="cls-3"><polygon class="cls-1" points="4.2 5.2 4.2 5.2 4.2 5.2 4.2 5.2 4.2 5.2 4.2 5.2 4.2 5.2"/></g><g class="cls-3"><polygon class="cls-8" points="4.1 5.2 4.2 5.3 4.2 5.2 4.2 5.2 4.2 5.2 4.2 5.2 4.1 5.2"/></g><g class="cls-3"><polygon class="cls-1" points="4.1 5.2 4.2 5.3 4.2 5.2 4.2 5.2 4.2 5.2 4.2 5.2 4.1 5.2"/></g><g class="cls-3"><polygon class="cls-8" points="4.2 5.2 4.2 5.3 4.2 5.2 4.2 5.2 4.2 5.2 4.2 5.2"/></g><g class="cls-3"><polygon class="cls-1" points="4.2 5.2 4.2 5.3 4.2 5.2 4.2 5.2 4.2 5.2 4.2 5.2 4.2 5.2"/></g><g class="cls-3"><polygon class="cls-8" points="4.1 5.2 4 5.2 4.1 5.2 4.1 5.3 4.1 5.2 4.1 5.2"/></g><g class="cls-3"><polygon class="cls-1" points="4.1 5.2 4 5.2 4.1 5.2 4.1 5.3 4.1 5.2 4.1 5.2 4.1 5.2"/></g><g class="cls-3"><polygon class="cls-8" points="4 5.3 4 5.3 4.1 5.3 4.1 5.3 4.1 5.2 4 5.2 4 5.3"/></g><g class="cls-3"><polygon class="cls-1" points="4 5.3 4 5.3 4.1 5.3 4.1 5.3 4.1 5.2 4 5.2 4 5.3"/></g><g class="cls-3"><polygon class="cls-8" points="4.1 5.2 4.1 5.3 4.1 5.3 4.1 5.3 4.1 5.2 4.1 5.2"/></g><g class="cls-3"><polygon class="cls-1" points="4.1 5.2 4.1 5.3 4.1 5.3 4.1 5.3 4.1 5.2 4.1 5.2 4.1 5.2"/></g><g class="cls-3"><polygon class="cls-8" points="4 5.3 4 5.3 4 5.3 4 5.3 4 5.3 4 5.3"/></g><g class="cls-3"><polygon class="cls-1" points="4 5.3 4 5.3 4 5.3 4 5.3 4 5.3 4 5.3 4 5.3"/></g><g class="cls-3"><path class="cls-8" d="M2.8,5.3Z" transform="translate(1.3)"/></g><g class="cls-3"><path class="cls-1" d="M2.8,5.3Z" transform="translate(1.3)"/></g><g class="cls-3"><polygon class="cls-8" points="4.3 5.2 4.3 5.2 4.3 5.2 4.3 5.3 4.3 5.2 4.3 5.2"/></g><g class="cls-3"><polygon class="cls-1" points="4.3 5.2 4.3 5.2 4.3 5.2 4.3 5.3 4.3 5.2 4.3 5.2 4.3 5.2"/></g><g class="cls-3"><polygon class="cls-8" points="4.4 5.3 4.3 5.3 4.3 5.3 4.3 5.3 4.3 5.2 4.4 5.2 4.4 5.3"/></g><g class="cls-3"><polygon class="cls-1" points="4.4 5.3 4.3 5.3 4.3 5.3 4.3 5.3 4.3 5.2 4.4 5.2 4.4 5.3"/></g><g class="cls-3"><polygon class="cls-8" points="4.3 5.2 4.3 5.3 4.3 5.3 4.3 5.3 4.3 5.2 4.3 5.2"/></g><g class="cls-3"><polygon class="cls-1" points="4.3 5.2 4.3 5.3 4.3 5.3 4.3 5.3 4.3 5.2 4.3 5.2 4.3 5.2"/></g><g class="cls-3"><polygon class="cls-8" points="4.4 5.3 4.4 5.3 4.4 5.3 4.4 5.3 4.4 5.3 4.4 5.3"/></g><g class="cls-3"><polygon class="cls-1" points="4.4 5.3 4.4 5.3 4.4 5.3 4.4 5.3 4.4 5.3 4.4 5.3 4.4 5.3"/></g><g class="cls-3"><path class="cls-8" d="M2.9,5.2Z" transform="translate(1.3)"/></g><g class="cls-3"><path class="cls-1" d="M2.9,5.2Z" transform="translate(1.3)"/></g><g class="cls-3"><path class="cls-8" d="M3,5.3Z" transform="translate(1.3)"/></g><g class="cls-3"><path class="cls-1" d="M3,5.3Z" transform="translate(1.3)"/></g><g class="cls-3"><path class="cls-8" d="M2.7,5.3Z" transform="translate(1.3)"/></g><g class="cls-3"><path class="cls-1" d="M2.7,5.3Z" transform="translate(1.3)"/></g><g class="cls-3"><path class="cls-8" d="M2.7,5.3Z" transform="translate(1.3)"/></g><g class="cls-3"><path class="cls-1" d="M2.7,5.3Z" transform="translate(1.3)"/></g><g class="cls-3"><path class="cls-8" d="M3.1,5.3Z" transform="translate(1.3)"/></g><g class="cls-3"><path class="cls-1" d="M3.1,5.3Z" transform="translate(1.3)"/></g><g class="cls-3"><path class="cls-8" d="M3.1,5.3Z" transform="translate(1.3)"/></g><g class="cls-3"><path class="cls-1" d="M3.1,5.3Z" transform="translate(1.3)"/></g><g class="cls-3"><rect class="cls-8" x="3.9" y="5.4" width="0.5" height="0.1"/></g><g class="cls-3"><path class="cls-7" d="M3.2,5.6H2.6V5.5h.5l.1.1Zm0-.2H2.7v.1h.5V5.4Z" transform="translate(1.3)"/></g><g class="cls-3"><path class="cls-8" d="M2.7,5.6Z" transform="translate(1.3)"/></g><g class="cls-3"><path class="cls-7" d="M3.1,5.7Zm-.4-.1h0l.1-.1-.1.1Z" transform="translate(1.3)"/></g><g class="cls-3"><path class="cls-8" d="M2.7,5.6h0Z" transform="translate(1.3)"/></g><g class="cls-3"><path class="cls-7" d="M3.1,5.7h0Zm-.4,0Z" transform="translate(1.3)"/></g><g class="cls-3"><path class="cls-8" d="M2.7,5.6h0Z" transform="translate(1.3)"/></g><g class="cls-3"><path class="cls-7" d="M3.1,5.6h0Zm-.4,0h0Z" transform="translate(1.3)"/></g><g class="cls-3"><path class="cls-11" d="M3.3,7.9H2.5V8h.6c0-.1,0-.1.2-.1-.1,0-.1.1,0,0Z" transform="translate(1.3)"/></g><g class="cls-3"><path class="cls-7" d="M3.3,8H2.5V7.9H3c0-.1.1-.1.3.1Zm-.6-.1H2.5V8c.1,0,.1-.1.2-.1h0c.2.1.2.1.3,0h.3V7.8H3c-.1.1-.1.1-.3.1Z" transform="translate(1.3)"/></g><g class="cls-3"><path class="cls-12" d="M3.3,8c-.1,0-.1-.1,0,0h0Z" transform="translate(1.3)"/></g><g class="cls-3"><path class="cls-7" d="M3.3,8H2.5V7.9H3a.77.77,0,0,1,.3.1c-.1-.1-.1,0,0,0Zm-.6-.1h0c-.1.1-.1.1-.2.1v.1l.2-.2c0,.1.1.1,0,0,.2.1.2.1.3.1h.3V7.9H3c-.1.1-.1.1-.3,0Z" transform="translate(1.3)"/></g><g class="cls-3"><path class="cls-11" d="M3.3,8H2.5v.1H3C3,8,3,8,3.1,8Z" transform="translate(1.3)"/></g><g class="cls-3"><path class="cls-7" d="M3.3,8.1H2.5V8H3a.77.77,0,0,1,.3.1ZM2.7,8H2.5v.1c.1,0,.1,0,.2-.1h0c.2.1.2.1.3,0h.3V7.9H3.2A.31.31,0,0,1,3,8Z" transform="translate(1.3)"/></g><g class="cls-3"><path class="cls-12" d="M3.3,8.1H3C3,8,3,8,3.1,8l.2.1Z" transform="translate(1.3)"/></g><g class="cls-3"><path class="cls-7" d="M3.3,8.1H2.5V8H3a.77.77,0,0,1,.3.1ZM2.7,8H2.5v.1c.1,0,.1,0,.2-.1,0,.1.1.1,0,0,.2.1.2.1.3.1h.3V8H3.2C3.1,8,3,8,3,8.1s-.1,0-.3-.1Z" transform="translate(1.3)"/></g><g class="cls-3"><path class="cls-11" d="M3.3,8.2H2.5V8.1h.6l.2.1Z" transform="translate(1.3)"/></g><g class="cls-3"><path class="cls-7" d="M3.3,8.2H2.5V8.1H3a.77.77,0,0,1,.3.1Zm-.6-.1H2.5v.1c.1,0,.1,0,.2-.1h0c.2.1.2.1.3.1h.3V8.1H2.7Z" transform="translate(1.3)"/></g><g class="cls-3"><path class="cls-8" d="M2.7,7.7h0l.5.1a.1.1,0,0,1-.1-.1H2.7Z" transform="translate(1.3)"/></g><g class="cls-3"><path class="cls-7" d="M3.2,7.7H2.6a.1.1,0,0,0,.1-.1h0a.1.1,0,0,1-.1.1Z" transform="translate(1.3)"/></g><g class="cls-3"><path class="cls-8" d="M2.7,7.6h0Z" transform="translate(1.3)"/></g><g class="cls-3"><path class="cls-7" d="M3.1,7.7h0Zm-.4-.1Z" transform="translate(1.3)"/></g><g class="cls-3"><rect class="cls-8" x="3.9" y="7.7" width="0.5" height="0.1"/></g><g class="cls-3"><path class="cls-7" d="M3.2,7.9H2.6V7.8h.5l.1.1Zm0-.2H2.7v.1h.5V7.7Z" transform="translate(1.3)"/></g><g class="cls-3"><path class="cls-6" d="M2.6,7.1h0c-.1.1-.1.1,0,.1s.1.1,0,.1l.1-.1c-.1,0-.1,0-.1-.1Z" transform="translate(1.3)"/></g><g class="cls-3"><path class="cls-7" d="M2.6,7.4h0l-.1-.2.1-.1.1.1c-.1.1-.1.1-.1.2Zm0-.3h0c-.1.1-.1.1,0,.1l.1.1h0V7.2c-.1,0-.1,0-.1-.1Z" transform="translate(1.3)"/></g><g class="cls-3"><rect class="cls-12" x="4" y="5.7" width="0.4" height="1.9"/></g><g class="cls-3"><path class="cls-7" d="M3,7.6V5.7H3V7.6Zm0,0V5.7H3V7.6Z" transform="translate(1.3)"/></g><g class="cls-3"><path class="cls-7" d="M3.1,7.6H2.7V5.7h.4V7.6Zm0-1.9H2.7V7.6h.4V5.7Z" transform="translate(1.3)"/></g><g class="cls-3"><path class="cls-6" d="M3.5,6.4c-.1,0-.2-.1-.4-.1H2.9c-.2,0-.4.1-.4.2h0l-.1-.2c0-.1.2-.2.4-.2H3c.2,0,.3,0,.4.1l.1.2Z" transform="translate(1.3)"/></g><g class="cls-3"><path class="cls-7" d="M2.5,6.6h0l-.1-.2V6.3c.1-.1.2-.1.4-.2h.6v.2c-.1,0-.2-.1-.4-.1H2.8a1.38,1.38,0,0,1-.3.4Zm.6-.5H2.9c-.2,0-.4.1-.4.2h0a.31.31,0,0,0,.1.2h0c0-.1.2-.1.4-.2h.2c.2,0,.3,0,.4.1V6.2a4.33,4.33,0,0,1-.5-.1Z" transform="translate(1.3)"/></g><g class="cls-3"><path class="cls-6" d="M2.7,6.7c-.1,0-.2,0-.2-.1a.1.1,0,0,1,.1-.1h.1v.2Z" transform="translate(1.3)"/></g><g class="cls-3"><path class="cls-7" d="M2.7,6.7h0c-.1,0-.2,0-.2-.1a.1.1,0,0,1,.1-.1h.1v.2Zm-.1-.2a.1.1,0,0,0-.1.1.35.35,0,0,0,.2.1l-.1-.2Z" transform="translate(1.3)"/></g><g class="cls-3"><path class="cls-6" d="M3.1,6.5h.1a.1.1,0,0,1-.1.1V6.5Z" transform="translate(1.3)"/></g><g class="cls-3"><path class="cls-7" d="M3.1,6.7V6.5h.2a.22.22,0,0,1-.2.2Zm0-.2v.2l.1-.1c0-.1,0-.1-.1-.1Z" transform="translate(1.3)"/></g><g class="cls-3"><path class="cls-6" d="M2.5,7a.35.35,0,0,1,.2-.1c.1,0,.1,0,.2-.1s.4-.2.3-.2h0v.2a1.24,1.24,0,0,1-.3.2.35.35,0,0,1-.2.1.35.35,0,0,0-.2.1V7Z" transform="translate(1.3)"/></g><g class="cls-3"><path class="cls-7" d="M2.5,7.2h0V7l.2-.2c.1,0,.1,0,.2-.1a1.24,1.24,0,0,0,.3-.2h0v.2c0,.1-.1.2-.2.3s-.2.1-.3.1a.35.35,0,0,0-.2.1Zm.7-.6s-.2.2-.3.2-.1.1-.2.1-.2.1-.2.1v.2a.35.35,0,0,1,.2-.1A.35.35,0,0,0,2.9,7a1.24,1.24,0,0,0,.3-.2c.1,0,0-.2,0-.2Z" transform="translate(1.3)"/></g><g class="cls-3"><path class="cls-8" d="M2.7,6.3Zm-.1,0h0c.1-.1.1,0,0,0Z" transform="translate(1.3)"/></g><g class="cls-3"><path class="cls-8" d="M2.8,6.2h0v.2h0V6.2Z" transform="translate(1.3)"/></g><g class="cls-3"><path class="cls-8" d="M3,6.3c0-.1,0-.1.1-.2h0c0,.1-.1.1-.1.2V6.2H3v.1Z" transform="translate(1.3)"/></g><g class="cls-3"><path class="cls-8" d="M3.3,6.2H3.2c-.1.1,0,.1.1,0,0,.1,0,.1-.1.1l.1-.1-.2.1h0c.1,0,.2,0,.2-.1Z" transform="translate(1.3)"/></g><g class="cls-3"><path class="cls-6" d="M6.4,5.3h0l.1-.1h.1a.35.35,0,0,1-.2.1Z" transform="translate(1.3)"/></g><g class="cls-3"><path class="cls-7" d="M6.6,5.3h0c.1-.1,0-.1,0-.1h0c.1,0,.1,0,0,.1Zm-.4,0h0a.31.31,0,0,1,.2-.1h0a.31.31,0,0,0-.2.1Z" transform="translate(1.3)"/></g><g class="cls-3"><path class="cls-8" d="M6.4,5.2Z" transform="translate(1.3)"/></g><g class="cls-3"><path class="cls-7" d="M6.4,5.2h0c0-.1.1-.1,0,0Zm0-.1h0c0,.1.1.1,0,0Z" transform="translate(1.3)"/></g><g class="cls-3"><path class="cls-8" d="M6.4,5.2Z" transform="translate(1.3)"/></g><g class="cls-3"><path class="cls-1" d="M6.4,5.2Z" transform="translate(1.3)"/></g><g class="cls-3"><path class="cls-8" d="M6.3,5.4Z" transform="translate(1.3)"/></g><g class="cls-3"><path class="cls-7" d="M6.3,5.4h0c0-.1.1-.1.2-.1h0c-.1,0-.2,0-.2.1Z" transform="translate(1.3)"/></g><g class="cls-3"><path class="cls-8" d="M6.4,5.4h0c-.1-.1-.1-.1-.2,0h.2Z" transform="translate(1.3)"/></g><g class="cls-3"><path class="cls-7" d="M6.4,5.4h0Zm0,0h0Z" transform="translate(1.3)"/></g><g class="cls-3"><path class="cls-9" d="M6.6,5.2Z" transform="translate(1.3)"/></g><g class="cls-3"><path class="cls-1" d="M6.6,5.2Z" transform="translate(1.3)"/></g><g class="cls-3"><path class="cls-1" d="M6.6,5.2Zm0-.1Zm-.1,0Zm0,0Z" transform="translate(1.3)"/></g><g class="cls-3"><path class="cls-7" d="M6.7,5.3h0c0-.1-.1-.1,0,0l-.1-.1c.1,0,.1,0,.1.1Z" transform="translate(1.3)"/></g><g class="cls-3"><path class="cls-7" d="M6.6,5.2Z" transform="translate(1.3)"/></g><g class="cls-3"><path class="cls-1" d="M6.7,5.2Zm0,0Zm0,0Zm-.1-.1h0C6.7,5.2,6.6,5.2,6.6,5.1Zm0,0Z" transform="translate(1.3)"/></g><g class="cls-3"><path class="cls-8" d="M6.6,5.3Z" transform="translate(1.3)"/></g><g class="cls-3"><path class="cls-7" d="M6.6,5.3h0Z" transform="translate(1.3)"/></g><g class="cls-3"><path class="cls-9" d="M6.3,5.2Z" transform="translate(1.3)"/></g><g class="cls-3"><path class="cls-1" d="M6.3,5.2Z" transform="translate(1.3)"/></g><g class="cls-3"><path class="cls-1" d="M6.3,5.2Zm0-.1Zm.1,0Zm0,0Z" transform="translate(1.3)"/></g><g class="cls-3"><path class="cls-7" d="M6.2,5.3h0c0-.1.1-.2,0,0Z" transform="translate(1.3)"/></g><g class="cls-3"><path class="cls-7" d="M6.3,5.2Z" transform="translate(1.3)"/></g><g class="cls-3"><path class="cls-1" d="M6.2,5.2Zm0,0Zm0,0Zm0-.1h0c.1.1,0,.1,0,0Zm.1,0Z" transform="translate(1.3)"/></g><g class="cls-3"><path class="cls-8" d="M6.5,5.2h.1c0,.1-.1.1-.1,0h0c-.1.1-.1,0-.1,0h0c-.1.1-.1.1.1,0Z" transform="translate(1.3)"/></g><g class="cls-3"><path class="cls-7" d="M6.6,5.3Zm-.3,0Zm0,0Z" transform="translate(1.3)"/></g><g class="cls-3"><path class="cls-8" d="M6.4,5.3h0Z" transform="translate(1.3)"/></g><g class="cls-3"><path class="cls-7" d="M6.6,5.3Zm0,0h0Z" transform="translate(1.3)"/></g><g class="cls-3"><path class="cls-9" d="M6.4,5.3Z" transform="translate(1.3)"/></g><g class="cls-3"><path class="cls-1" d="M6.4,5.3Z" transform="translate(1.3)"/></g><g class="cls-3"><path class="cls-6" d="M6.5,5.3Z" transform="translate(1.3)"/></g><g class="cls-3"><path class="cls-1" d="M6.5,5.3Z" transform="translate(1.3)"/></g><g class="cls-3"><path class="cls-10" d="M6.3,5.4Z" transform="translate(1.3)"/></g><g class="cls-3"><path class="cls-1" d="M6.3,5.4Z" transform="translate(1.3)"/></g><g class="cls-3"><polygon class="cls-6" points="7.6 5.4 7.6 5.4 7.6 5.4 7.6 5.4"/></g><g class="cls-3"><polygon class="cls-1" points="7.6 5.4 7.6 5.4 7.6 5.4 7.6 5.4 7.6 5.4"/></g><g class="cls-3"><path class="cls-9" d="M6.5,5.3Z" transform="translate(1.3)"/></g><g class="cls-3"><path class="cls-1" d="M6.5,5.3Z" transform="translate(1.3)"/></g><g class="cls-3"><path class="cls-10" d="M6.6,5.4Z" transform="translate(1.3)"/></g><g class="cls-3"><path class="cls-1" d="M6.6,5.4Z" transform="translate(1.3)"/></g><g class="cls-3"><polygon class="cls-6" points="7.9 5.4 7.9 5.4 7.9 5.4 7.9 5.4"/></g><g class="cls-3"><polygon class="cls-1" points="7.9 5.4 7.9 5.4 7.9 5.4 7.9 5.4 7.9 5.4"/></g><g class="cls-3"><path class="cls-6" d="M6.4,5.4h0Z" transform="translate(1.3)"/></g><g class="cls-3"><path class="cls-7" d="M6.4,5.4Zm0,0h0Z" transform="translate(1.3)"/></g><g class="cls-3"><path class="cls-8" d="M6.6,5.3Z" transform="translate(1.3)"/></g><g class="cls-3"><path class="cls-1" d="M6.6,5.3Z" transform="translate(1.3)"/></g><g class="cls-3"><path class="cls-8" d="M6.5,5.3Z" transform="translate(1.3)"/></g><g class="cls-3"><path class="cls-1" d="M6.5,5.3Z" transform="translate(1.3)"/></g><g class="cls-3"><path class="cls-8" d="M6.4,5.3Z" transform="translate(1.3)"/></g><g class="cls-3"><path class="cls-1" d="M6.4,5.3Z" transform="translate(1.3)"/></g><g class="cls-3"><path class="cls-8" d="M6.3,5.3Z" transform="translate(1.3)"/></g><g class="cls-3"><path class="cls-1" d="M6.3,5.3Z" transform="translate(1.3)"/></g><g class="cls-3"><polygon class="cls-8" points="7.7 5.2 7.7 5.2 7.7 5.2 7.7 5.2 7.8 5.2 7.8 5.2 7.7 5.2"/></g><g class="cls-3"><polygon class="cls-1" points="7.7 5.2 7.7 5.2 7.7 5.2 7.7 5.2 7.8 5.2 7.8 5.2 7.7 5.2"/></g><g class="cls-3"><polygon class="cls-8" points="7.7 5.2 7.7 5.3 7.7 5.2 7.7 5.2 7.7 5.2 7.7 5.2"/></g><g class="cls-3"><polygon class="cls-1" points="7.7 5.2 7.7 5.3 7.7 5.2 7.7 5.2 7.7 5.2 7.7 5.2 7.7 5.2"/></g><g class="cls-3"><polygon class="cls-8" points="7.8 5.2 7.8 5.3 7.8 5.2 7.8 5.2 7.8 5.2 7.8 5.2"/></g><g class="cls-3"><polygon class="cls-1" points="7.8 5.2 7.8 5.3 7.8 5.2 7.8 5.2 7.8 5.2 7.8 5.2 7.8 5.2"/></g><g class="cls-3"><polygon class="cls-8" points="7.6 5.2 7.6 5.2 7.6 5.2 7.6 5.3 7.6 5.2 7.6 5.2"/></g><g class="cls-3"><polygon class="cls-1" points="7.6 5.2 7.6 5.2 7.6 5.2 7.6 5.3 7.6 5.2 7.6 5.2 7.6 5.2"/></g><g class="cls-3"><polygon class="cls-8" points="7.6 5.3 7.6 5.3 7.6 5.3 7.6 5.3 7.6 5.2 7.6 5.2 7.6 5.3"/></g><g class="cls-3"><polygon class="cls-1" points="7.6 5.3 7.6 5.3 7.6 5.3 7.6 5.3 7.6 5.2 7.6 5.2 7.6 5.3"/></g><g class="cls-3"><polygon class="cls-8" points="7.7 5.2 7.7 5.3 7.6 5.3 7.6 5.3 7.6 5.2 7.7 5.2"/></g><g class="cls-3"><polygon class="cls-1" points="7.7 5.2 7.7 5.3 7.6 5.3 7.6 5.3 7.6 5.2 7.7 5.2 7.7 5.2"/></g><g class="cls-3"><polygon class="cls-8" points="7.6 5.3 7.5 5.3 7.5 5.3 7.5 5.3 7.5 5.3 7.5 5.3 7.6 5.3"/></g><g class="cls-3"><polygon class="cls-1" points="7.6 5.3 7.5 5.3 7.5 5.3 7.5 5.3 7.5 5.3 7.5 5.3 7.6 5.3"/></g><g class="cls-3"><path class="cls-8" d="M6.3,5.3Z" transform="translate(1.3)"/></g><g class="cls-3"><path class="cls-1" d="M6.3,5.3Z" transform="translate(1.3)"/></g><g class="cls-3"><polygon class="cls-8" points="7.9 5.2 7.9 5.2 7.9 5.2 7.9 5.3 7.9 5.2 7.9 5.2"/></g><g class="cls-3"><polygon class="cls-1" points="7.9 5.2 7.9 5.2 7.9 5.2 7.9 5.3 7.9 5.2 7.9 5.2 7.9 5.2"/></g><g class="cls-3"><polygon class="cls-8" points="7.9 5.3 7.9 5.3 7.9 5.3 7.9 5.3 7.9 5.2 7.9 5.2 7.9 5.3"/></g><g class="cls-3"><polygon class="cls-1" points="7.9 5.3 7.9 5.3 7.9 5.3 7.9 5.3 7.9 5.2 7.9 5.2 7.9 5.3"/></g><g class="cls-3"><polygon class="cls-8" points="7.8 5.2 7.8 5.3 7.9 5.3 7.9 5.3 7.9 5.2 7.8 5.2"/></g><g class="cls-3"><polygon class="cls-1" points="7.8 5.2 7.8 5.3 7.9 5.3 7.9 5.3 7.9 5.2 7.8 5.2 7.8 5.2"/></g><g class="cls-3"><polygon class="cls-8" points="7.9 5.3 7.9 5.3 8 5.3 8 5.3 8 5.3 8 5.3 7.9 5.3"/></g><g class="cls-3"><polygon class="cls-1" points="7.9 5.3 7.9 5.3 8 5.3 8 5.3 8 5.3 8 5.3 7.9 5.3"/></g><g class="cls-3"><path class="cls-8" d="M6.4,5.2h0c.1,0,.1.1,0,0Z" transform="translate(1.3)"/></g><g class="cls-3"><path class="cls-1" d="M6.4,5.2h0c.1,0,.1.1,0,0Z" transform="translate(1.3)"/></g><g class="cls-3"><path class="cls-8" d="M6.6,5.3Z" transform="translate(1.3)"/></g><g class="cls-3"><path class="cls-1" d="M6.6,5.3Z" transform="translate(1.3)"/></g><g class="cls-3"><path class="cls-8" d="M6.4,5.1Z" transform="translate(1.3)"/></g><g class="cls-3"><polygon class="cls-8" points="7.8 5.1 7.8 5.1 7.7 5.1 7.7 5.1 7.7 5.1 7.7 5.1 7.7 5.1 7.7 5.1 7.7 5.1 7.7 5.1 7.8 5.1 7.8 5.1 7.8 5.1 7.8 5.1 7.8 5.1 7.8 5.1 7.8 5.1"/></g><g class="cls-3"><polygon class="cls-1" points="7.8 5.1 7.8 5.1 7.7 5.1 7.7 5.1 7.7 5.1 7.7 5.1 7.7 5.1 7.7 5.1 7.7 5.1 7.7 5.1 7.8 5.1 7.8 5.1 7.8 5.1 7.8 5.1 7.8 5.1 7.8 5.1 7.8 5.1"/></g><g class="cls-3"><polygon class="cls-8" points="7.8 5.1 7.8 5.1 7.7 5.1 7.7 5.1 7.7 5.1 7.7 5.1 7.7 5.1 7.7 5.1 7.7 5.1 7.7 5.1 7.8 5.1 7.8 5.1 7.8 5.1 7.8 5.1 7.8 5.1 7.8 5.1"/></g><g class="cls-3"><path class="cls-7" d="M6.4,5.1Z" transform="translate(1.3)"/></g><g class="cls-3"><path class="cls-8" d="M6.2,5.3Z" transform="translate(1.3)"/></g><g class="cls-3"><path class="cls-1" d="M6.2,5.3Z" transform="translate(1.3)"/></g><g class="cls-3"><path class="cls-8" d="M6.2,5.3Z" transform="translate(1.3)"/></g><g class="cls-3"><path class="cls-1" d="M6.2,5.3Z" transform="translate(1.3)"/></g><g class="cls-3"><path class="cls-8" d="M6.7,5.3Z" transform="translate(1.3)"/></g><g class="cls-3"><path class="cls-1" d="M6.7,5.3Z" transform="translate(1.3)"/></g><g class="cls-3"><path class="cls-8" d="M6.7,5.3Z" transform="translate(1.3)"/></g><g class="cls-3"><path class="cls-1" d="M6.7,5.3Z" transform="translate(1.3)"/></g><g class="cls-3"><rect class="cls-8" x="7.5" y="5.4" width="0.5" height="0.1"/></g><g class="cls-3"><path class="cls-7" d="M6.7,5.6H6.2V5.5h.5v.1Zm0-.2H6.2v.1h.5V5.4Z" transform="translate(1.3)"/></g><g class="cls-3"><path class="cls-8" d="M6.7,5.6Z" transform="translate(1.3)"/></g><g class="cls-3"><path class="cls-7" d="M6.2,5.7h0l.4-.1h0l-.4.1Z" transform="translate(1.3)"/></g><g class="cls-3"><path class="cls-8" d="M6.3,5.6h0c-.1.1-.1,0,0,0Z" transform="translate(1.3)"/></g><g class="cls-3"><path class="cls-7" d="M6.7,5.7h0Zm-.4,0Z" transform="translate(1.3)"/></g><g class="cls-3"><path class="cls-8" d="M6.3,5.6h0Z" transform="translate(1.3)"/></g><g class="cls-3"><path class="cls-7" d="M6.7,5.6h0Zm-.4,0h0Z" transform="translate(1.3)"/></g><g class="cls-3"><path class="cls-11" d="M6.1,7.9h.8V8H6.3c-.1-.1-.1-.1-.2-.1Z" transform="translate(1.3)"/></g><g class="cls-3"><path class="cls-7" d="M6.8,8H6V7.9h.5c.1-.1.2-.1.3.1Zm-.5-.1H6.1V8s0-.1.2-.1h0c.1.1.2.1.2,0H6.3Z" transform="translate(1.3)"/></g><g class="cls-3"><path class="cls-12" d="M6.1,8Z" transform="translate(1.3)"/></g><g class="cls-3"><path class="cls-7" d="M6.8,8H6.1V7.9h.5a.31.31,0,0,1,.2.1Zm-.5-.1h0L6.1,8v.1c0-.1,0-.1.2-.2-.1.1,0,.1,0,0a.31.31,0,0,0,.2.1h0a.31.31,0,0,1-.2-.1Z" transform="translate(1.3)"/></g><g class="cls-3"><path class="cls-11" d="M6.1,8h.8v.1H6.3C6.2,8,6.2,8,6.1,8Z" transform="translate(1.3)"/></g><g class="cls-3"><path class="cls-7" d="M6.8,8.1H6V8h.5a.37.37,0,0,1,.3.1ZM6.3,8H6.1v.1L6.3,8h0c.1.1.2.1.2,0H6.3Z" transform="translate(1.3)"/></g><g class="cls-3"><path class="cls-12" d="M6.1,8.1h.2c-.1-.1-.1-.1-.2,0Z" transform="translate(1.3)"/></g><g class="cls-3"><path class="cls-7" d="M6.8,8.1H6V8h.5a.37.37,0,0,1,.3.1ZM6.3,8H6.1v.1L6.3,8c-.1.1,0,.1,0,0a.37.37,0,0,0,.3.1h0A.37.37,0,0,1,6.3,8Z" transform="translate(1.3)"/></g><g class="cls-3"><path class="cls-11" d="M6.1,8.2h.8V8.1H6.3c-.1,0-.1,0-.2.1Z" transform="translate(1.3)"/></g><g class="cls-3"><path class="cls-7" d="M6.8,8.2H6V8.1h.5a.37.37,0,0,1,.3.1Zm-.5-.1H6.1v.1l.2-.1h0a.37.37,0,0,0,.3.1h.3V8.1H6.3Z" transform="translate(1.3)"/></g><g class="cls-3"><path class="cls-8" d="M6.7,7.7H6.2a.1.1,0,0,0,.1-.1h0l.4.1Z" transform="translate(1.3)"/></g><g class="cls-3"><path class="cls-7" d="M6.7,7.7H6.2a.1.1,0,0,0,.1-.1h0a.1.1,0,0,1-.1.1Z" transform="translate(1.3)"/></g><g class="cls-3"><path class="cls-8" d="M6.3,7.6h0Z" transform="translate(1.3)"/></g><g class="cls-3"><path class="cls-7" d="M6.7,7.7h0Zm-.4-.1Z" transform="translate(1.3)"/></g><g class="cls-3"><rect class="cls-8" x="7.5" y="7.7" width="0.5" height="0.1"/></g><g class="cls-3"><path class="cls-7" d="M6.7,7.9H6.2V7.8h.5v.1Zm0-.2H6.2v.1h.5V7.7Z" transform="translate(1.3)"/></g><g class="cls-3"><path class="cls-6" d="M6.8,7.1c0,.1.1.1,0,0,.1.1.1.1,0,.1s-.1.1,0,.1l-.1-.1.1-.1Z" transform="translate(1.3)"/></g><g class="cls-3"><path class="cls-7" d="M6.8,7.4l-.1-.1a.1.1,0,0,1,.1-.1l.1.1c0-.1-.1-.1-.1.1Zm0-.3v.2h0a.1.1,0,0,1,.1-.1c-.1,0-.1,0-.1-.1Z" transform="translate(1.3)"/></g><g class="cls-3"><rect class="cls-12" x="7.6" y="5.7" width="0.4" height="1.9"/></g><g class="cls-3"><path class="cls-7" d="M6.6,7.6V5.7h0V7.6Zm-.1,0V5.7h0V7.6Z" transform="translate(1.3)"/></g><g class="cls-3"><path class="cls-7" d="M6.6,7.6H6.3V5.7h.4L6.6,7.6Zm0-1.9H6.2V7.6h.4V5.7Z" transform="translate(1.3)"/></g><g class="cls-3"><path class="cls-6" d="M5.9,6.4c.1,0,.2-.1.4-.1h.2c.2,0,.4.1.4.2h0L7,6.3c0-.1-.2-.2-.4-.2H6.4c-.2,0-.3,0-.4.1l-.1.2Z" transform="translate(1.3)"/></g><g class="cls-3"><path class="cls-7" d="M6.8,6.6h0c0-.1-.2-.2-.4-.2H6.2c-.2,0-.3,0-.4.1V6.3c.1,0,.2-.1.4-.1h.2c.2,0,.4.1.4.2v.1c.1-.1.1,0,0,.1Zm-.5-.3h.2a.52.52,0,0,1,.4.2h0A.35.35,0,0,1,7,6.3H7a4.33,4.33,0,0,0-.5-.1H5.9v.2a1,1,0,0,0,.4-.1Z" transform="translate(1.3)"/></g><g class="cls-3"><path class="cls-6" d="M6.6,6.7c.1,0,.2,0,.2-.1a.1.1,0,0,0-.1-.1H6.6v.2Z" transform="translate(1.3)"/></g><g class="cls-3"><path class="cls-7" d="M6.6,6.7V6.5h.1a.1.1,0,0,1,.1.1s0,.1-.2.1Zm.1-.2h0v.1c.1,0,.2,0,.2-.1Z" transform="translate(1.3)"/></g><g class="cls-3"><path class="cls-6" d="M6.3,6.5H6.2a.1.1,0,0,0,.1.1V6.5Z" transform="translate(1.3)"/></g><g class="cls-3"><path class="cls-7" d="M6.3,6.7h0a.35.35,0,0,1-.2-.1.1.1,0,0,0,.1-.1l.1.2Zm0-.2c-.1,0-.1,0-.1.1a.1.1,0,0,0,.1.1V6.5Z" transform="translate(1.3)"/></g><g class="cls-3"><path class="cls-6" d="M6.9,7a.35.35,0,0,0-.2-.1c-.1,0-.1,0-.2-.1a1.09,1.09,0,0,1-.4-.2h0v.2a1.24,1.24,0,0,0,.3.2.35.35,0,0,1,.2.1.35.35,0,0,1,.2.1L6.9,7Z" transform="translate(1.3)"/></g><g class="cls-3"><path class="cls-7" d="M6.9,7.2h0a.35.35,0,0,0-.2-.1c-.1,0-.2-.1-.3-.1a1.24,1.24,0,0,1-.3-.2V6.6c0,.1.2.2.3.2s.1.1.2.1a.44.44,0,0,1,.3.1v.2Zm-.8-.6v.2c0,.1.1.1.3.2a.35.35,0,0,1,.2.1.35.35,0,0,1,.2.1V7a.35.35,0,0,0-.2-.1c-.1,0-.1,0-.2-.1a1.44,1.44,0,0,0-.3-.2Z" transform="translate(1.3)"/></g><g class="cls-3"><path class="cls-8" d="M6.1,6.3c0-.1,0-.1.1-.2h0a.31.31,0,0,0-.1.2L6,6.2H6a.1.1,0,0,0,.1.1Z" transform="translate(1.3)"/></g><g class="cls-3"><path class="cls-8" d="M6.3,6.2h0v.2h0V6.2Z" transform="translate(1.3)"/></g><g class="cls-3"><path class="cls-8" d="M6.4,6.2h0v.1h0V6.2Z" transform="translate(1.3)"/></g><g class="cls-3"><path class="cls-8" d="M6.5,6.3h.1V6.2h0l-.1.1Zm.1-.1Z" transform="translate(1.3)"/></g><g class="cls-3"><path class="cls-8" d="M6.8,6.4h0V6.3h0l-.2.1h.2Zm-.1,0Z" transform="translate(1.3)"/></g><g class="cls-3"><path class="cls-7" d="M4.1,4.8h0c0-.1.1-.1,0,0Zm0-.1h0c0,.1.1.1,0,0,.1.1.1,0,0,0Z" transform="translate(1.3)"/></g><g class="cls-3"><path class="cls-6" d="M4.7,4.4c.2,0,.3,0,.4.1s.1,0,.2.1h.2a.37.37,0,0,1,.3.1c.1,0,.1.1.2.1H6v.1H5.7L5.6,5l-.1.1H5.4v.1L4.7,5l-.8.1V5H3.6l-.1-.2V4.7h0a.35.35,0,0,1,.2-.1c.1,0,.2-.1.3-.1h.2c.1,0,.1,0,.2-.1Z" transform="translate(1.3)"/></g><g class="cls-3"><path class="cls-7" d="M5.4,5.1h0L4.7,5l-.8.1V5H3.8l-.2-.1-.1-.1V4.7h0a.35.35,0,0,1,.2-.1.35.35,0,0,0,.2-.1h.2c.1,0,.1,0,.2-.1a1.1,1.1,0,0,1,.8,0c.1,0,.1,0,.2.1h.2a.37.37,0,0,1,.3.1c.1,0,.1.1.2.1H6v.1L5.7,5l-.3.1ZM3.9,4.5a.37.37,0,0,0-.3.1c-.1,0-.1.1-.2.1h0v.1l.3.2h.2v.1L4.7,5l.8.1V5h.1l.2-.1.1-.1V4.7h0a.35.35,0,0,0-.2-.1.35.35,0,0,1-.2-.1H5.3c-.1,0-.2,0-.2-.1a1.1,1.1,0,0,0-.8,0c-.1,0-.1,0-.2.1Z" transform="translate(1.3)"/></g><g class="cls-3"><path class="cls-8" d="M4.7,5.4c-.3,0-.6,0-.7-.1H4a1.48,1.48,0,0,1,.7-.1c.3,0,.6,0,.7.1h0a1.48,1.48,0,0,1-.7.1Z" transform="translate(1.3)"/></g><g class="cls-3"><path class="cls-7" d="M4.7,5.4h0A1.48,1.48,0,0,1,4,5.3H4a1.7,1.7,0,0,1,.7-.1,1.48,1.48,0,0,1,.7.1h0a1.48,1.48,0,0,1-.7.1Zm0-.2a1.48,1.48,0,0,0-.7.1H4a1.7,1.7,0,0,0,.7.1,1.48,1.48,0,0,0,.7-.1h0a1.48,1.48,0,0,0-.7-.1Z" transform="translate(1.3)"/></g><g class="cls-3"><path class="cls-6" d="M4.7,5.4A1.48,1.48,0,0,1,4,5.3c.2,0,.4-.1.7-.1a1.48,1.48,0,0,1,.7.1c-.2,0-.5.1-.7.1Z" transform="translate(1.3)"/></g><g class="cls-3"><path class="cls-1" d="M4.7,5.4v0Z" transform="translate(1.3)"/></g><g class="cls-3"><path class="cls-1" d="M4.6,5.4v0Z" transform="translate(1.3)"/></g><g class="cls-3"><path class="cls-1" d="M4.6,5.4v0Z" transform="translate(1.3)"/></g><g class="cls-3"><path class="cls-1" d="M4.6,5.4v0Z" transform="translate(1.3)"/></g><g class="cls-3"><path class="cls-1" d="M4.5,5.4v0Z" transform="translate(1.3)"/></g><g class="cls-3"><polygon class="cls-7" points="5.8 5.4 5.8 5.2 5.8 5.4 5.8 5.4"/></g><g class="cls-3"><polygon class="cls-7" points="5.7 5.4 5.7 5.2 5.7 5.4 5.7 5.4"/></g><g class="cls-3"><path class="cls-1" d="M4.3,5.3v0Zm0,.1v0Zm.1,0v0Z" transform="translate(1.3)"/></g><g class="cls-3"><path class="cls-1" d="M4.3,5.3v0Z" transform="translate(1.3)"/></g><g class="cls-3"><path class="cls-1" d="M4.3,5.3v0Z" transform="translate(1.3)"/></g><g class="cls-3"><path class="cls-1" d="M4.2,5.3Z" transform="translate(1.3)"/></g><g class="cls-3"><path class="cls-1" d="M4.2,5.3Zm0,0Z" transform="translate(1.3)"/></g><g class="cls-3"><path class="cls-1" d="M4.1,5.3Z" transform="translate(1.3)"/></g><g class="cls-3"><path class="cls-1" d="M4.1,5.3Z" transform="translate(1.3)"/></g><g class="cls-3"><path class="cls-1" d="M4.1,5.3Z" transform="translate(1.3)"/></g><g class="cls-3"><path class="cls-1" d="M4,5.3Z" transform="translate(1.3)"/></g><g class="cls-3"><path class="cls-1" d="M4,5.3Z" transform="translate(1.3)"/></g><g class="cls-3"><path class="cls-1" d="M4.9,5.4v0Zm-.1,0v0Zm-.1,0v0Z" transform="translate(1.3)"/></g><g class="cls-3"><path class="cls-8" d="M4.7,5.2c-.3,0-.6,0-.7.1V5.2a.1.1,0,0,0-.1-.1c.2,0,.4-.1.8-.1a2,2,0,0,1,.8.1l-.1.1v.1a1.48,1.48,0,0,0-.7-.1Z" transform="translate(1.3)"/></g><g class="cls-3"><path class="cls-7" d="M5.4,5.3a1.48,1.48,0,0,0-.7-.1c-.3,0-.6,0-.7.1V5.2a.1.1,0,0,0-.1-.1h0c.2,0,.5-.1.8-.1a2,2,0,0,1,.8.1l-.1.2ZM3.9,5.1h0l.1.1a1.7,1.7,0,0,1,.7-.1,1.48,1.48,0,0,1,.7.1V5.1A.1.1,0,0,1,5.5,5c-.2.1-.5,0-.8,0s-.6.1-.8.1Z" transform="translate(1.3)"/></g><g class="cls-3"><path class="cls-8" d="M4.7,5a2,2,0,0,0-.8.1h0C4,5,4.3,5,4.7,5a2,2,0,0,1,.8.1h0C5.3,5.1,5,5,4.7,5Z" transform="translate(1.3)"/></g><g class="cls-3"><path class="cls-7" d="M5.5,5.1h0C5.3,5.1,5,5,4.7,5a2,2,0,0,0-.8.1h0A2,2,0,0,1,4.7,5a2,2,0,0,1,.8.1ZM4.7,5a2.77,2.77,0,0,0-.9.1h0c.3,0,.6-.1.9-.1s.6.1.8.1h0A2,2,0,0,0,4.7,5Z" transform="translate(1.3)"/></g><g class="cls-3"><path class="cls-7" d="M4.7,5.4h0A1.7,1.7,0,0,1,4,5.3a1.48,1.48,0,0,1,.7-.1,1.48,1.48,0,0,1,.7.1c-.2,0-.5.1-.7.1Zm0-.2a1.48,1.48,0,0,0-.7.1c.2,0,.4.1.7.1a1.7,1.7,0,0,0,.7-.1,1.7,1.7,0,0,0-.7-.1Z" transform="translate(1.3)"/></g><g class="cls-3"><path class="cls-9" d="M4.4,5.1Z" transform="translate(1.3)"/></g><g class="cls-3"><path class="cls-1" d="M4.4,5.1Z" transform="translate(1.3)"/></g><g class="cls-3"><path class="cls-6" d="M4.7,5.1Z" transform="translate(1.3)"/></g><g class="cls-3"><path class="cls-7" d="M4.7,5.1h0Zm-.1,0Z" transform="translate(1.3)"/></g><g class="cls-3"><path class="cls-10" d="M4.3,5.1h0c-.1.1-.1,0,0,0Z" transform="translate(1.3)"/></g><g class="cls-3"><path class="cls-7" d="M4.2,5.2h0l.1-.1h0l-.1.1Zm0-.1Z" transform="translate(1.3)"/></g><g class="cls-3"><path class="cls-9" d="M4,5.1H4c.1.1,0,.1,0,0Z" transform="translate(1.3)"/></g><g class="cls-3"><path class="cls-1" d="M4,5.1H4c.1.1,0,.1,0,0Z" transform="translate(1.3)"/></g><g class="cls-3"><polygon class="cls-6" points="5.2 5.2 5.2 5.2 5.3 5.2 5.2 5.2"/></g><g class="cls-3"><polygon class="cls-7" points="5.2 5.2 5.2 5.2 5.2 5.2 5.3 5.2 5.2 5.2"/></g><g class="cls-3"><path class="cls-10" d="M5.1,5.1Z" transform="translate(1.3)"/></g><g class="cls-3"><path class="cls-7" d="M5.1,5.2,5,5.1H5l.1.1ZM5,5.1H5l.1.1h0L5,5.1Z" transform="translate(1.3)"/></g><g class="cls-3"><path class="cls-9" d="M4.8,5.1Z" transform="translate(1.3)"/></g><g class="cls-3"><path class="cls-1" d="M4.8,5.1Z" transform="translate(1.3)"/></g><g class="cls-3"><path class="cls-9" d="M5.2,5.1h0c.1.1,0,.1,0,0Z" transform="translate(1.3)"/></g><g class="cls-3"><path class="cls-1" d="M5.2,5.1h0c.1.1,0,.1,0,0Z" transform="translate(1.3)"/></g><g class="cls-3"><polygon class="cls-6" points="6.8 5.2 6.7 5.2 6.7 5.2 6.7 5.2 6.8 5.2"/></g><g class="cls-3"><polygon class="cls-7" points="6.7 5.2 6.7 5.2 6.7 5.2 6.8 5.2 6.7 5.2"/></g><g class="cls-3"><path class="cls-7" d="M4,5.3H4a1.48,1.48,0,0,1,.7-.1,1.48,1.48,0,0,1,.7.1c-.2,0-.4-.1-.7-.1a5.64,5.64,0,0,0-.7.1Z" transform="translate(1.3)"/></g><g class="cls-3"><path class="cls-8" d="M4.1,4.6h0V4.4h0c0-.1.1-.2.3-.2s.2,0,.2.1h0c-.1,0-.1-.1-.2-.1s-.4,0-.4.1H4c0,.1.1.2.1.3Z" transform="translate(1.3)"/></g><g class="cls-3"><path class="cls-7" d="M4.1,4.6h0A.35.35,0,0,0,4,4.4a.32.32,0,0,1,.3-.3c.1,0,.2,0,.2.1h0c-.1,0-.1-.1-.2-.1s-.3.1-.3.2a.37.37,0,0,1,.1.3Zm.3-.5c-.2,0-.4.1-.4.2s0,.1.1.2h0V4.4C4,4.4,4,4.3,4,4.2a.76.76,0,0,0,.4-.1.35.35,0,0,1,.2.1h0a.31.31,0,0,0-.2-.1Z" transform="translate(1.3)"/></g><g class="cls-3"><path class="cls-8" d="M4.1,4.6C4,4.5,4,4.5,4,4.4s0-.2.1-.2L4,4.3H4c0,.1.1.2.1.3Z" transform="translate(1.3)"/></g><g class="cls-3"><path class="cls-7" d="M4.1,4.6h0C4,4.5,4,4.5,4,4.4s0-.2.1-.2a.35.35,0,0,0-.1.2.35.35,0,0,1,.1.2Zm0-.4c-.1.1-.1.1-.1.2s0,.1.1.2h0A.35.35,0,0,1,4,4.4a.35.35,0,0,1,.1-.2Z" transform="translate(1.3)"/></g><g class="cls-3"><path class="cls-8" d="M3.5,4.7l-.1-.1V4.5a.52.52,0,0,1,.4-.2h0a.52.52,0,0,0-.4.2v.1c.1,0,.1,0,.1.1Z" transform="translate(1.3)"/></g><g class="cls-3"><path class="cls-7" d="M3.5,4.8h0V4.7l-.1-.1V4.5a.52.52,0,0,1,.4-.2h0a.52.52,0,0,0-.4.2v.1c0,.1,0,.1.1.1v.1Zm.4-.6a.52.52,0,0,0-.4.2v.1c0,.1,0,.1.1.1v.1h0l.1-.1-.1-.1V4.4c0-.1.1-.1.3-.2H4c0,.1-.1,0-.1,0Z" transform="translate(1.3)"/></g><g class="cls-3"><path class="cls-8" d="M3.6,4.3l-.1.1v.1c0,.1,0,.1.1.1v.1a.35.35,0,0,1-.1-.2c-.1,0,0-.1.1-.2Z" transform="translate(1.3)"/></g><g class="cls-3"><path class="cls-7" d="M3.5,4.7h0c0-.1-.1-.1-.1-.2a.22.22,0,0,1,.2-.2l-.1.1v.3Zm0-.3c0,.1-.1.1-.1.2s0,.1.1.2V4.7l-.1-.1c.1-.1.1-.1.1-.2Z" transform="translate(1.3)"/></g><g class="cls-3"><path class="cls-8" d="M4.7,4.1h0c.1.1.1.1.1.2h0v.2l-.1.1-.2-.1V4.3h0l.2-.2Z" transform="translate(1.3)"/></g><g class="cls-3"><path class="cls-7" d="M4.7,4.6l-.2-.1V4.3h0V4.2c0-.1.2-.1.2,0v.1h0v.3Zm0-.5h0c-.1.1-.1.1-.1.2h0v.2l.1.1.1-.1V4.3h0c0-.1,0-.1-.1-.2Z" transform="translate(1.3)"/></g><g class="cls-3"><path class="cls-8" d="M4.7,4.1h0l.1.1h0v.2l-.1.2-.1-.1V4.3h0c0-.1,0-.1.1-.2-.1.1-.1,0,0,0Z" transform="translate(1.3)"/></g><g class="cls-3"><path class="cls-7" d="M4.7,4.6h0c-.1-.2-.1-.2-.1-.3h0V4.2h.1v.1h0v.3Zm0-.5c-.1,0-.1.1,0,0a.1.1,0,0,1-.1.1h0v.2l.1.1.1-.1V4.2h0c-.1,0-.1,0-.1-.1Z" transform="translate(1.3)"/></g><g class="cls-3"><path class="cls-8" d="M5.3,4.6h0V4.4h0c0-.1-.1-.2-.3-.2s-.2,0-.2.1h0c.1,0,.1-.1.2-.1s.3.1.3.2h0v.2Z" transform="translate(1.3)"/></g><g class="cls-3"><path class="cls-7" d="M5.2,4.6h0V4.4c0-.1-.1-.2-.3-.2s-.2,0-.2.1h0c.1,0,.1-.1.2-.1s.3.1.3.2.1.1,0,.2ZM5,4.2c.2,0,.3.1.3.2s0,.1-.1.2v.1h0a.35.35,0,0,0,.1-.2c0-.3-.2-.4-.3-.3H5Z" transform="translate(1.3)"/></g><g class="cls-3"><path class="cls-8" d="M5.3,4.6c.1,0,.1-.1.1-.2a.35.35,0,0,0-.1-.2l.1.1h0a.37.37,0,0,0-.1.3Z" transform="translate(1.3)"/></g><g class="cls-3"><path class="cls-7" d="M5.3,4.6h0a.35.35,0,0,1,.1-.2c0-.1,0-.1-.1-.2.1,0,.1.1.1.2s-.1.1-.1.2Zm-.1-.4a.1.1,0,0,1,.1.1c0,.1,0,.1-.1.2h0c.1,0,.1-.1.1-.2l-.1-.1Z" transform="translate(1.3)"/></g><g class="cls-3"><path class="cls-8" d="M5.8,4.7l.1-.1V4.5a.55.55,0,0,0-.5-.3h0a.52.52,0,0,1,.4.2v.3Z" transform="translate(1.3)"/></g><g class="cls-3"><path class="cls-7" d="M5.8,4.8l-.1-.1.1-.1V4.5c0-.1-.2-.2-.4-.2h.1c.2,0,.4.1.4.2v.1s-.1,0-.1.2Zm-.4-.5a.52.52,0,0,1,.4.2v.1c0,.1,0,.1-.1.1l.1.1h0V4.7l.1-.1V4.5a.37.37,0,0,0-.5-.2h0Z" transform="translate(1.3)"/></g><g class="cls-3"><path class="cls-8" d="M5.7,4.3l.1.1v.1c0,.1,0,.1-.1.1v.1a.35.35,0,0,0,.1-.2c.1,0,0-.1-.1-.2Z" transform="translate(1.3)"/></g><g class="cls-3"><path class="cls-7" d="M5.8,4.7h0V4.4l-.1-.1h.1c.1.1.1.1.1.2s0,.2-.1.2Zm0-.3h0v.1c0,.1,0,.1-.1.1v.1a.35.35,0,0,0,.1-.2c.1,0,.1,0,0-.1Z" transform="translate(1.3)"/></g><g class="cls-3"><path class="cls-9" d="M4.6,4.5h0c.1,0,.1.1,0,0Z" transform="translate(1.3)"/></g><g class="cls-3"><path class="cls-7" d="M4.7,4.6c-.1,0-.1-.1,0,0-.1-.1,0-.1,0,0Zm0-.1h0c-.1.1,0,.1,0,0Z" transform="translate(1.3)"/></g><g class="cls-3"><path class="cls-9" d="M4.6,4.4Z" transform="translate(1.3)"/></g><g class="cls-3"><path class="cls-7" d="M4.7,4.5h0c-.1-.1,0-.1,0,0Zm0-.1h0c-.1.1,0,.1,0,0Z" transform="translate(1.3)"/></g><g class="cls-3"><path class="cls-9" d="M4.6,4.3Z" transform="translate(1.3)"/></g><g class="cls-3"><path class="cls-7" d="M4.7,4.4h0c-.1-.1,0-.1,0,0Z" transform="translate(1.3)"/></g><g class="cls-3"><path class="cls-9" d="M4.6,4.3c0-.1.1-.1,0,0Z" transform="translate(1.3)"/></g><g class="cls-3"><path class="cls-1" d="M4.6,4.3c0-.1.1-.1,0,0Z" transform="translate(1.3)"/></g><g class="cls-3"><path class="cls-9" d="M4.6,4.2Z" transform="translate(1.3)"/></g><g class="cls-3"><path class="cls-1" d="M4.6,4.2Z" transform="translate(1.3)"/></g><g class="cls-3"><path class="cls-8" d="M4.7,4.8h0a.35.35,0,0,0,.1.2c.1,0,.1,0,.1-.1h0c.1,0,.1.1.2.1s.1,0,.1-.1h0c0,.1,0,.1.1.1h.1a.1.1,0,0,0,.1.1h.1A.1.1,0,0,0,5.7,5h0a.1.1,0,0,1-.1.1H5.5A.1.1,0,0,1,5.4,5H5.3a.1.1,0,0,1-.1-.1.1.1,0,0,1-.1.1C5,5,5,5,4.9,4.9H4.8c0,.1-.1.1-.1,0-.1.1-.1.1-.2.1H4.3c-.1,0-.1,0-.1-.1C4.1,5,4.1,5,4,5H3.9a.1.1,0,0,1-.1.1H3.7V5h0l.1.1h.1A.1.1,0,0,0,4,5H4c.1,0,.1,0,.1-.1h0c.1,0,.1.1.2.1s.1,0,.1-.1h0l.1.1.2-.2Z" transform="translate(1.3)"/></g><g class="cls-3"><path class="cls-7" d="M5.5,5.1h0c-.1,0-.3-.1-.3-.2a.19.19,0,0,1-.3,0c0,.1-.2.1-.2,0,0,.1-.2.1-.3,0,0,.1-.2.1-.3,0,0,.1-.1.2-.2.1a.1.1,0,0,1-.1.1H3.7c0-.1,0-.1-.1-.1h0l.1.1h.1V5h0c.2,0,.3,0,.3-.1h0V4.8h0a.1.1,0,0,0,.1.1c.1,0,.1,0,.1-.1h0c0,.1.2.1.2,0h0a.1.1,0,0,0,.2,0h0c.3.1.3.1.4.1s.1,0,.1-.1h0a.35.35,0,0,1-.1.2.35.35,0,0,1-.2-.1h0c0,.1-.2.1-.2,0H4.6a.1.1,0,0,1-.1.1c-.1,0-.1,0-.1-.1h0L4.3,5c-.1,0-.1-.1-.1-.2h0c-.1.2-.2.2-.3.1h0a.1.1,0,0,1-.1.1H3.7a.1.1,0,0,1-.1-.1h0a.1.1,0,0,0,.1.1h.1a.1.1,0,0,0,.1-.1c.1,0,.2,0,.2-.1.1.2.2.2.3.1.1.1.2,0,.3,0s.2.1.2,0a.19.19,0,0,0,.3,0c0,.1.1.2.3.2h0A.31.31,0,0,1,5.7,5h0c0-.1-.1,0-.2.1.1-.1,0-.1,0,0A.1.1,0,0,0,5.4,5H5.3c-.1,0-.1,0-.1-.1V4.8h0v.1c0,.1.2.1.2,0h0c.1.1.1.1.1.2h0l.2-.2h0c0,.1-.1.1-.2.2Z" transform="translate(1.3)"/></g><g class="cls-3"><path class="cls-9" d="M5.5,4.9Z" transform="translate(1.3)"/></g><g class="cls-3"><path class="cls-7" d="M5.4,5h0c.1-.1.1,0,0,0Z" transform="translate(1.3)"/></g><g class="cls-3"><path class="cls-9" d="M5,4.8H5c-.1,0-.1.1,0,0Z" transform="translate(1.3)"/></g><g class="cls-3"><path class="cls-7" d="M4.9,4.9h0c.1-.1.1,0,0,0Z" transform="translate(1.3)"/></g><g class="cls-3"><path class="cls-9" d="M4.4,4.8Z" transform="translate(1.3)"/></g><g class="cls-3"><path class="cls-7" d="M4.4,4.9Z" transform="translate(1.3)"/></g><g class="cls-3"><path class="cls-9" d="M3.9,4.9Z" transform="translate(1.3)"/></g><g class="cls-3"><path class="cls-1" d="M3.9,4.9Z" transform="translate(1.3)"/></g><g class="cls-3"><path class="cls-8" d="M4.1,4.6h0c.1,0,.1.1,0,0l.1.1h0c-.2,0-.2,0-.1-.1Z" transform="translate(1.3)"/></g><g class="cls-3"><path class="cls-7" d="M4.1,4.8h0L4,4.7H4V4.6a.1.1,0,0,1,.1.1h0c.1,0,.1,0,0,.1.1-.1.1,0,0,0ZM4,4.7H4a.1.1,0,0,0,.1.1A.1.1,0,0,0,4,4.7l.1.1h0c0-.2,0-.2-.1-.1Z" transform="translate(1.3)"/></g><g class="cls-3"><path class="cls-8" d="M4.1,4.8H4s0,.1.1,0Z" transform="translate(1.3)"/></g><g class="cls-3"><path class="cls-7" d="M4,4.9H4c-.1-.1,0-.1,0-.1H4s-.1,0,0,.1H4l.1-.1L4,4.9l.1-.1h0L4,4.9Z" transform="translate(1.3)"/></g><g class="cls-3"><path class="cls-8" d="M4.2,4.8h0a.1.1,0,0,1,.1-.1h0l-.1.1a.31.31,0,0,1,.2-.1H4.3a.1.1,0,0,1-.1.1Z" transform="translate(1.3)"/></g><g class="cls-3"><path class="cls-7" d="M4.3,4.8Zm0,0h0v0Z" transform="translate(1.3)"/></g><g class="cls-3"><path class="cls-6" d="M4.1,4.8Z" transform="translate(1.3)"/></g><g class="cls-3"><path class="cls-7" d="M4.1,4.8h0c0-.1.1-.1,0,0Zm0,0Z" transform="translate(1.3)"/></g><g class="cls-3"><path class="cls-8" d="M4.7,4.5h0l.1.1v.1h0V4.6c-.2,0-.2,0-.1-.1h0c-.1.1-.1,0,0,0Z" transform="translate(1.3)"/></g><g class="cls-3"><path class="cls-7" d="M4.7,4.7H4.6V4.6h0v.1h.1a.1.1,0,0,1,.1-.1h0a.1.1,0,0,0-.1.1Zm0-.1h0c-.1-.1-.1,0-.1,0h0s0-.1.1,0Z" transform="translate(1.3)"/></g><g class="cls-3"><path class="cls-8" d="M4.6,4.8h0a.1.1,0,0,0-.1-.1h0a.1.1,0,0,0,.1.1Z" transform="translate(1.3)"/></g><g class="cls-3"><path class="cls-7" d="M4.5,4.8h0V4.7h0s-.1,0,0,.1h0a.1.1,0,0,0,.1-.1h0a.1.1,0,0,1-.1.1Z" transform="translate(1.3)"/></g><g class="cls-3"><path class="cls-8" d="M4.7,4.8h0l.1-.1h0c0,.1,0,.1-.1.1Z" transform="translate(1.3)"/></g><g class="cls-3"><path class="cls-7" d="M4.8,4.8h0V4.7H4.7c0,.1,0,.1.1.1Z" transform="translate(1.3)"/></g><g class="cls-3"><path class="cls-8" d="M5.3,4.6h0c-.1,0-.1.1,0,0l-.1.1h0c.1,0,.1,0,.1-.1Z" transform="translate(1.3)"/></g><g class="cls-3"><path class="cls-7" d="M5.3,4.8h0c-.1,0-.1-.1,0,0h0l-.1-.2h0v0h0v0h0c0,.1,0,.1.1.2-.1-.1-.1,0,0,0-.1,0-.1-.1,0,0-.1-.1-.1,0,0,0h0l.1-.1-.1.1Z" transform="translate(1.3)"/></g><g class="cls-3"><path class="cls-8" d="M5.2,4.8h0l.1-.1h0s0,.2-.1.1Z" transform="translate(1.3)"/></g><g class="cls-3"><path class="cls-7" d="M5.4,4.9h0a.1.1,0,0,1-.1-.1c-.1,0,0,0,.1.1-.1-.1-.1-.1-.2-.1h.1c.1,0,.1,0,.1.1Zm-.2-.1h0l.1.1-.1-.1h0Z" transform="translate(1.3)"/></g><g class="cls-3"><path class="cls-8" d="M5.2,4.8h0a.1.1,0,0,0-.1-.1h0l.1.1C5,4.7,5,4.7,5,4.8h.2Z" transform="translate(1.3)"/></g><g class="cls-3"><path class="cls-7" d="M5,4.8H5V4.7H5v.1Z" transform="translate(1.3)"/></g><g class="cls-3"><path class="cls-6" d="M5.2,4.8Z" transform="translate(1.3)"/></g><g class="cls-3"><path class="cls-7" d="M5.2,4.8h0c0-.1.1-.1,0,0Zm0,0Z" transform="translate(1.3)"/></g><g class="cls-3"><path class="cls-6" d="M5.7,4.9Z" transform="translate(1.3)"/></g><g class="cls-3"><path class="cls-7" d="M5.7,5h0c.1-.1,0-.1,0,0Z" transform="translate(1.3)"/></g><g class="cls-3"><path class="cls-8" d="M5.7,4.9h0a.1.1,0,0,0,.1-.1h.1a.1.1,0,0,0-.1-.1H5.7v.2h0V4.8H5.6l.1.1Z" transform="translate(1.3)"/></g><g class="cls-3"><path class="cls-7" d="M5.6,4.9h0c-.1,0-.1,0-.1-.1h.1s.1,0,0,.1h0l.1-.1h.2a.1.1,0,0,1,.1.1H5.9L5.8,5h0c-.1-.1-.1-.1-.2-.1Zm0-.1h0v0c0,.1.1.1,0,0l.1.1h0a.1.1,0,0,0-.1-.1Zm.1.1h0c.1-.1.1-.1.2-.1a.31.31,0,0,0-.2.1v0Z" transform="translate(1.3)"/></g><g class="cls-3"><path class="cls-8" d="M3.7,4.9h0a.1.1,0,0,1-.1-.1H3.5a.1.1,0,0,1,.1-.1h.1c0,.1-.1.2,0,.2h0V4.8h.1l-.1.1Z" transform="translate(1.3)"/></g><g class="cls-3"><path class="cls-7" d="M3.7,4.9H3.6l-.1-.1h0l.1.1h.1a.1.1,0,0,1-.1-.1H3.5c0-.1.1-.1.1,0h.1v.1h0c-.1-.1,0-.1,0-.1h0v.1Zm.1,0Z" transform="translate(1.3)"/></g><g class="cls-3"><path class="cls-6" d="M3.6,4.9h0c.1.1,0,.1,0,0Z" transform="translate(1.3)"/></g><g class="cls-3"><path class="cls-7" d="M3.6,5Z" transform="translate(1.3)"/></g><g class="cls-3"><path class="cls-6" d="M4.6,4.7h.1c0,.1,0,.1-.1,0Z" transform="translate(1.3)"/></g><g class="cls-3"><path class="cls-7" d="M4.7,4.8h0c-.1-.1,0-.1,0,0Zm0-.1h0c-.1.1,0,.1,0,0Z" transform="translate(1.3)"/></g><g class="cls-3"><path class="cls-11" d="M4.6,4c0-.1,0-.1.1-.1s.1,0,.1.1,0,.1-.1.1-.1,0-.1-.1Z" transform="translate(1.3)"/></g><g class="cls-3"><path class="cls-7" d="M4.7,4.1c-.1,0-.1,0-.1-.1s0-.1.1-.1.1,0,.1.1a.1.1,0,0,1-.1.1Zm0-.2a.1.1,0,0,0-.1.1c0,.1,0,.1.1.1s.1,0,.1-.1l-.1-.1Z" transform="translate(1.3)"/></g><g class="cls-3"><path class="cls-8" d="M4.6,3.7h0v.1h.1V4h0V3.8h.1l-.2-.1Z" transform="translate(1.3)"/></g><g class="cls-3"><path class="cls-7" d="M4.8,4h0l-.1-.2h.1V3.7H4.7V3.6H4.6v.1H4.5v.1h.1V4h0V3.8H4.5V3.7h.1V3.6h.1v.1h.1v.1H4.7l.1.2Z" transform="translate(1.3)"/></g><g class="cls-3"><path class="cls-12" d="M4.7,8.2A2.92,2.92,0,0,1,3.8,8a.55.55,0,0,1-.3-.5V6.7H5.9v.8a.55.55,0,0,1-.3.5,2.92,2.92,0,0,1-.9.2Z" transform="translate(1.3)"/></g><g class="cls-3"><path class="cls-7" d="M4.7,8.2A1.49,1.49,0,0,1,3.8,8a.55.55,0,0,1-.3-.5V6.7H5.9v.8a.55.55,0,0,1-.3.5,1.49,1.49,0,0,1-.9.2ZM5.9,6.7H3.5v.8a.55.55,0,0,0,.3.5A1.91,1.91,0,0,0,5.6,8a.55.55,0,0,0,.3-.5V6.7Z" transform="translate(1.3)"/></g><g class="cls-3"><rect class="cls-12" x="6" y="5.4" width="1.2" height="1.3"/></g><g class="cls-3"><path class="cls-7" d="M5.9,6.7H4.7V5.4H5.9V6.7Zm0-1.3H4.7V6.7H5.9V5.4Z" transform="translate(1.3)"/></g><g class="cls-3"><path class="cls-6" d="M4.7,7.5a.65.65,0,0,1-.6.6.65.65,0,0,1-.6-.6V6.7H4.7v.8Z" transform="translate(1.3)"/></g><g class="cls-3"><path class="cls-8" d="M3.7,8h.2V6.6H3.7Z" transform="translate(1.3)"/></g><g class="cls-3"><path class="cls-7" d="M3.9,8.1h0L3.8,8h0V6.7h.1V8.1Zm0-1.4H3.8V8h.1V6.7Z" transform="translate(1.3)"/></g><g class="cls-3"><path class="cls-8" d="M3.5,7.5c0,.2.1.3.1.4V6.7H3.5Z" transform="translate(1.3)"/></g><g class="cls-3"><path class="cls-7" d="M3.6,7.9h0c-.1-.1-.1-.2-.1-.4V6.7h.1V7.9Zm0-1.2H3.5v.8c0,.2.1.3.1.4V6.7Z" transform="translate(1.3)"/></g><g class="cls-3"><path class="cls-13" d="M4,8.1h.1V6.7H4Z" transform="translate(1.3)"/></g><g class="cls-3"><path class="cls-7" d="M4.1,8.1h0L4,6.7h.1V8.1Zm0-1.4H4V8.1h.2L4.1,6.7Z" transform="translate(1.3)"/></g><g class="cls-3"><path class="cls-8" d="M4.3,8h.1V6.7H4.3Z" transform="translate(1.3)"/></g><g class="cls-3"><path class="cls-7" d="M4.3,8.1V6.7h.1V8a.1.1,0,0,0-.1.1Zm.1-1.4H4.3V8h.1V6.7Z" transform="translate(1.3)"/></g><g class="cls-3"><rect class="cls-6" x="4.8" y="5.4" width="1.2" height="1.3"/></g><g class="cls-3"><path class="cls-7" d="M4.7,6.7H3.5V5.4H4.7V6.7Zm0-1.3H3.5V6.7H4.7V5.4Z" transform="translate(1.3)"/></g><g class="cls-3"><path class="cls-8" d="M4.5,7.9a.37.37,0,0,0,.1-.3V6.7H4.5Z" transform="translate(1.3)"/></g><g class="cls-3"><path class="cls-7" d="M4.5,7.9V6.7h.1v.9c.1.1,0,.2-.1.3Zm.2-1.2H4.6V7.9a.37.37,0,0,0,.1-.3V6.7Z" transform="translate(1.3)"/></g><g class="cls-3"><path class="cls-7" d="M4.1,8.1a.65.65,0,0,1-.6-.6V6.7H4.7v.8a.65.65,0,0,1-.6.6Zm.6-1.4H3.5v.8a.65.65,0,0,0,.6.6.65.65,0,0,0,.6-.6V6.7Z" transform="translate(1.3)"/></g><g class="cls-3"><path class="cls-6" d="M5.9,6.7v.8a.65.65,0,0,1-.6.6.65.65,0,0,1-.6-.6V6.7Z" transform="translate(1.3)"/></g><g class="cls-3"><path class="cls-7" d="M5.3,8.1a.65.65,0,0,1-.6-.6V6.7H5.9v.8a.65.65,0,0,1-.6.6Zm.6-1.4H4.7v.8a.65.65,0,0,0,.6.6.65.65,0,0,0,.6-.6V6.7Z" transform="translate(1.3)"/></g><g class="cls-3"><path class="cls-8" d="M4.9,7.3h0c0,.1-.1,0,0,0h0v.2h0V7.3Zm.5,0H5.3l.1.1H5.3v.2h0V7.4h0l-.2.1h0l.1-.1h.2Zm.1,0h.1v.1h0V7.3H5.5Zm-.2.6h0c-.1.1-.1,0-.1,0h0s0-.1.1,0l-.1-.2h0l.1.2Zm-.2-.1H4.9V7.7h0V7.6h0v.1h0L5,7.6H5v.1l.1.1Zm-.2-.1Zm0-.1h0V7.5h0v.1c-.1-.1-.1,0,0,0Zm0-.1h0v.1h0V7.5Zm.1.3a.1.1,0,0,1,.1.1h0c0-.1,0-.1-.1-.1Zm0,0a.1.1,0,0,1,.1.1L5,7.8c.1.1,0,.1,0,0Zm.1-.2h0l.1-.1-.1.1ZM5,7.6H5v0Zm.5.2h.2V7.7h0V7.6h0v.1h0l-.2-.2h0l.1.1c-.1.1-.1.1-.1.2Zm.1-.1Zm.1-.1h0V7.5h0v.1Zm-.1-.1h0v.1h0V7.5Zm-.1.3a.1.1,0,0,0-.1.1h0c0-.1,0-.1.1-.1Zm0,0a.1.1,0,0,0-.1.1l.1-.1Zm0-.2h0l-.1-.1.1.1Zm0,0h0v0ZM5,7.4Zm.5,0Zm-.3.5Zm.1-.2h0V7.6h0v.1Zm-.1,0h0V7.6h0v.1Z" transform="translate(1.3)"/></g><g class="cls-3"><path class="cls-8" d="M4.8,7.3h0V7.1h0v.2h0Zm.3,0h.1l-.1-.1h0l.1.1h0V7.1h0v.2h0l.1-.1h0v.1H5.1Zm.5,0h0V7.1h0v.2ZM4.9,7l.1.1H5L4.9,7h0V6.9c-.1-.1-.1,0,0,.1h0v.1h0V7Zm.8,0v.1h0V7h0l-.2.1h0L5.7,7h0c-.1-.1,0-.1,0-.1V7ZM5.3,7h0c-.1-.1-.1-.1,0-.1V7l.1-.1h0L5.3,7ZM4.8,7h0v.1h0V7Zm.1,0h0v.1h0V7Zm.7,0h0v.1h0V7Zm.1,0h0v.1h0V7Zm-.6.1h0l.1.1-.1-.1ZM5,7.1H5v0Zm.5,0Zm0,0h0v0ZM5,7.3Zm-.2-.4Zm.3,0h0L5,7h.1Zm0,0h0L5,6.8h.1Zm.4.4Zm.1-.4Zm-.4,0Zm.2,0Zm0,0ZM5.2,7h0v.1h0V7Zm.1,0h0v.1h0V7Z" transform="translate(1.3)"/></g><g class="cls-3"><path class="cls-8" d="M5.3,8c-.1,0-.1-.1,0,0-.1-.1-.1-.1-.2-.1h0A.1.1,0,0,1,5,7.8h.1V7.7l.1-.1h0L5,7.7H5V7.5H5v.3h.1l.2.2c-.1-.1,0-.1,0-.1V7.7h0V8l.1-.1h0L5.3,8Zm-.2-.1h0c.1.1.2.1.2,0h0V7.7h0v.2c-.1-.1-.1,0-.2,0ZM5,7.8H5c0,.1.1.1,0,0l.1.1h0L5,7.8Zm.1,0Zm-.2,0h0c-.1-.1-.1-.1,0-.1V7.6h0V7.5h0V7.1h0v.1h0v.1h0v.1h0v0h0v.4Zm-.1-.3h0v.1h0V7.5Zm.1,0Zm0-.4h0v.4h0V7.4h0V7.1Zm.4.5h0v0h0V7.4h0v.2Zm.1-.1h0l-.1-.1h0l.1.1Zm-.3,0h0l.1-.1h0l-.1.1Zm.1-.1Zm.2,0Zm-.2-.1-.1-.1h0v.1h.1Zm.1,0h0l.1-.1h0l-.1.1Zm0,0h0V7.1h0v0h0v.2ZM5,7.1H5l-.1-.2h0l.1.2Zm-.2,0V6.9c0-.1.1-.1.1,0h0c0-.1-.1,0-.1,0v.2h0V7h0v.1Z" transform="translate(1.3)"/></g><g class="cls-3"><path class="cls-8" d="M5.4,7.9h0v0h0V7.8a.1.1,0,0,0,.1-.1h0V7.6H5.4l.1.1h0V7.6h0V7.5h0V7.4h0V7.3h0V7.2h0v.1h0v.4h0v.1h0v.1h0c.1-.1.1-.1-.1,0h0l.1-.1c0,.1,0,.1-.1.1Zm.1-.1h0a.1.1,0,0,0-.1.1l.1-.1Zm0,0Zm0-.3h0l.1.1v.1a.1.1,0,0,1-.1.1h0l.1-.1h.1V7.6h0v.1h0l-.2-.2Zm.2,0Zm-.1-.2h0v.1h0V7.3h0l.1-.2h0l-.1.2Zm-.5.3h0v0Zm0-.1h0v0ZM5,7.6H5V7.5H5v.1Zm.1-.1h0v0Zm-.2-.3V7h0v.2Zm0-.2v.1h0V7Zm0,.2h0V7.1h0v.1Zm.6-.1h0l.1-.2h0l-.1.2Zm.1,0h0V6.9c0-.1-.1-.1-.1,0h0c0-.1.1,0,.1,0v.2ZM5.3,7h0l-.1-.1h0s.1-.1.1,0h0V7Zm-.1-.1h0V7h0V6.9h.1c0-.1-.1-.1-.1,0Z" transform="translate(1.3)"/></g><g class="cls-3"><path class="cls-8" d="M5.3,7.7V7.6h0v.1Zm0-.1v.1h0V7.6Zm0,.1h0V7.6h0v.1Zm.1-.1h0v0Zm.1,0-.1-.1h0l.1.1Zm0-.2h0Zm0,0h0Zm-.4,0h0Zm0,0h0Zm.4-.1h0Zm0,0h0Zm-.4,0h0Zm0,0h0Zm0-.1h0L5,7.1l.1.1Zm.4,0h0v0Zm0-.1h0v0Zm.2.1V7h0v.2Zm0-.2v.1h0V7Zm-.6.2L5,7.1H5l.1.1Zm.3,0h0V7.1h0v.1Zm0-.1h0v0ZM5.5,7h0Zm0-.1h0ZM5.1,7h0Zm0-.1h0Zm.4,0h0Zm0-.1h0Zm-.4.1h0Zm0-.1h0Z" transform="translate(1.3)"/></g><g class="cls-3"><path class="cls-8" d="M5.3,7.1V7h0v.1Zm0-.1v.1h0V7Zm0,.1h0V7h0v.1Z" transform="translate(1.3)"/></g><g class="cls-3"><path class="cls-10" d="M5.2,7.3h0c.1-.1.1,0,.1,0s0,.1-.1,0Z" transform="translate(1.3)"/></g><g class="cls-3"><path class="cls-14" d="M5.3,5.7h0c-.1,0-.1,0-.1-.1H5.1c.1.1.1.1.2.1Z" transform="translate(1.3)"/></g><g class="cls-3"><path class="cls-7" d="M5.3,5.7Zm-.1,0h0l-.1-.1h0a.1.1,0,0,0,.1.1Z" transform="translate(1.3)"/></g><g class="cls-3"><path class="cls-15" d="M5.5,5.7h0v.1h0c-.1,0-.1,0,0-.1v.1h0v.1h0V6l.1.1c.1,0,0-.1,0-.2V5.5h.1v.1h0v.1h0V6H5.6v.2h0v.1h0v.2h0V6.4h0L5,6h.2s.2-.4.3-.3Z" transform="translate(1.3)"/></g><g class="cls-3"><path class="cls-7" d="M5.5,6.6h0l-.1-.2h0l.1.2h0c0-.1,0-.1.1-.1h0V6.3h.1V6.1h0V6h0V5.9h0V6h0v.2H5.6v.2h0c-.1,0-.1.1-.1.2Zm0-.1Zm-.4-.1h0V6.3h0c.1,0,.1,0,0,.1V6.3h0v.1Zm.2,0h0V6.2h0c.1.1.1.1,0,.2.1-.1.1,0,0,0h0c.1,0,.1-.1,0,0l.1-.1H5.3v.1Zm-.1-.1h0V6.2h.1l-.1-.1H5.1l.1.2Zm.3-.1c-.1,0-.1,0-.1-.1V6h0V5.8h0v.1h0c0,.1,0,.1.1.3h0A.31.31,0,0,0,5.6,6V5.9h0V5.8h0V6h0v.1c0-.1,0,0-.1.1ZM5,6.1H5L4.9,6H5c-.1,0-.1,0,0,.1Zm0-.3H5l-.1-.1h0c.1,0,.1,0,.1.1h.2l.1.1H5.1V6H4.9L5,5.8V5.7H5v.1Zm.7-.1h0v0Z" transform="translate(1.3)"/></g><g class="cls-3"><path class="cls-7" d="M5.2,5.6Z" transform="translate(1.3)"/></g><g class="cls-3"><path class="cls-1" d="M5.2,5.6Z" transform="translate(1.3)"/></g><g class="cls-3"><path class="cls-7" d="M5.3,5.6Z" transform="translate(1.3)"/></g><g class="cls-3"><path class="cls-1" d="M5.3,5.6Z" transform="translate(1.3)"/></g><g class="cls-3"><path class="cls-1" d="M5.4,5.8Z" transform="translate(1.3)"/></g><g class="cls-3"><path class="cls-14" d="M4.9,5.6h0c.1.1.1,0,0,0Z" transform="translate(1.3)"/></g><g class="cls-3"><path class="cls-1" d="M4.9,5.6h0c.1.1.1,0,0,0Z" transform="translate(1.3)"/></g><g class="cls-3"><path class="cls-14" d="M4.9,5.7Z" transform="translate(1.3)"/></g><g class="cls-3"><path class="cls-1" d="M4.9,5.7Z" transform="translate(1.3)"/></g><g class="cls-3"><path class="cls-14" d="M4.9,5.7Z" transform="translate(1.3)"/></g><g class="cls-3"><path class="cls-7" d="M4.8,5.8h0c0-.1.1-.1,0,0h0c.1-.1.1,0,0,0Z" transform="translate(1.3)"/></g><g class="cls-3"><path class="cls-7" d="M5.2,5.7Z" transform="translate(1.3)"/></g><g class="cls-3"><polygon class="cls-1" points="6.5 5.7 6.5 5.7 6.5 5.7 6.5 5.7"/></g><g class="cls-3"><polygon class="cls-7" points="6.5 5.7 6.5 5.7 6.6 5.7 6.5 5.7"/></g><g class="cls-3"><polygon class="cls-1" points="6.5 5.7 6.5 5.7 6.6 5.7 6.5 5.7"/></g><g class="cls-3"><path class="cls-7" d="M5.2,5.7Z" transform="translate(1.3)"/></g><g class="cls-3"><polygon class="cls-1" points="6.5 5.7 6.5 5.7 6.5 5.7 6.5 5.7"/></g><g class="cls-3"><path class="cls-7" d="M5.3,5.7Z" transform="translate(1.3)"/></g><g class="cls-3"><polygon class="cls-1" points="6.6 5.7 6.6 5.7 6.6 5.7 6.6 5.7"/></g><g class="cls-3"><path class="cls-7" d="M5.2,6h0V6h0V5.9h0V6h0l-.1-.1h0c.1,0,.1,0,.1.1h0V5.9h0V6c.1-.1.1,0,0,0h0l.1-.1L5.2,6l.1-.1h0c0,.1,0,.1-.1.1Z" transform="translate(1.3)"/></g><g class="cls-3"><path class="cls-14" d="M4.9,6Z" transform="translate(1.3)"/></g><g class="cls-3"><path class="cls-1" d="M4.9,6Z" transform="translate(1.3)"/></g><g class="cls-3"><path class="cls-14" d="M4.9,6.1Z" transform="translate(1.3)"/></g><g class="cls-3"><path class="cls-1" d="M4.9,6.1Z" transform="translate(1.3)"/></g><g class="cls-3"><path class="cls-14" d="M4.9,6.1Z" transform="translate(1.3)"/></g><g class="cls-3"><path class="cls-1" d="M4.9,6.1Z" transform="translate(1.3)"/></g><g class="cls-3"><path class="cls-7" d="M5.4,6.3h0V6.2h0c-.1,0,0,0,0,.1Z" transform="translate(1.3)"/></g><g class="cls-3"><path class="cls-14" d="M5.1,6.3Z" transform="translate(1.3)"/></g><g class="cls-3"><path class="cls-1" d="M5.1,6.3Z" transform="translate(1.3)"/></g><g class="cls-3"><path class="cls-14" d="M5.1,6.4Z" transform="translate(1.3)"/></g><g class="cls-3"><path class="cls-1" d="M5.1,6.4Z" transform="translate(1.3)"/></g><g class="cls-3"><path class="cls-14" d="M5.1,6.4Z" transform="translate(1.3)"/></g><g class="cls-3"><path class="cls-1" d="M5.1,6.4Z" transform="translate(1.3)"/></g><g class="cls-3"><path class="cls-14" d="M5.4,6.5Z" transform="translate(1.3)"/></g><g class="cls-3"><path class="cls-7" d="M5.4,6.5Z" transform="translate(1.3)"/></g><g class="cls-3"><path class="cls-14" d="M5.4,6.5Z" transform="translate(1.3)"/></g><g class="cls-3"><path class="cls-1" d="M5.4,6.5Z" transform="translate(1.3)"/></g><g class="cls-3"><path class="cls-14" d="M5.5,6.5Z" transform="translate(1.3)"/></g><g class="cls-3"><path class="cls-1" d="M5.5,6.5Z" transform="translate(1.3)"/></g><g class="cls-3"><path class="cls-16" d="M4.7,7.9h0c.1.2,0,.2-.1.2V8a.1.1,0,0,1,.1-.1Z" transform="translate(1.3)"/></g><g class="cls-3"><path class="cls-7" d="M4.7,8.1A.35.35,0,0,1,4.5,8a.1.1,0,0,1,.1-.1h0a.1.1,0,0,0-.1.1c.1,0,.1.1.2.1a.1.1,0,0,0,0-.2h0l.1.1a.1.1,0,0,1-.1.1Z" transform="translate(1.3)"/></g><g class="cls-3"><path class="cls-10" d="M4.7,8.1,4.6,8h0c0,.2.1.1.1.1Z" transform="translate(1.3)"/></g><g class="cls-3"><path class="cls-7" d="M4.6,8.1h0c-.1,0-.1,0-.1-.1h0l.1.1Zm-.2,0h0l.1.1h.1l-.1-.1Z" transform="translate(1.3)"/></g><g class="cls-3"><path class="cls-10" d="M4.7,8.1,4.8,8h.1a.31.31,0,0,1-.2.1Z" transform="translate(1.3)"/></g><g class="cls-3"><path class="cls-7" d="M4.8,8.1Zm-.1,0h0L4.8,8h0a.1.1,0,0,1-.1.1Z" transform="translate(1.3)"/></g><g class="cls-3"><path class="cls-6" d="M4.7,8.1c0-.1-.1-.1,0,0v0Z" transform="translate(1.3)"/></g><g class="cls-3"><path class="cls-7" d="M4.7,8.1h0c0-.1-.1-.1,0,0v0Zm0-.2h0v0Z" transform="translate(1.3)"/></g><g class="cls-3"><path class="cls-10" d="M4.7,8.2h0V8.1h0v.1Z" transform="translate(1.3)"/></g><g class="cls-3"><path class="cls-7" d="M4.7,8.2h0V8.1h0v.1Zm0-.1h0v.1h0V8.1Z" transform="translate(1.3)"/></g><g class="cls-3"><path class="cls-9" d="M5.9,4.8Z" transform="translate(1.3)"/></g><g class="cls-3"><path class="cls-1" d="M5.9,4.8Z" transform="translate(1.3)"/></g><g class="cls-3"><path class="cls-9" d="M5.9,4.7Z" transform="translate(1.3)"/></g><g class="cls-3"><path class="cls-1" d="M5.9,4.7Z" transform="translate(1.3)"/></g><g class="cls-3"><path class="cls-9" d="M5.9,4.6Z" transform="translate(1.3)"/></g><g class="cls-3"><path class="cls-1" d="M5.9,4.6Z" transform="translate(1.3)"/></g><g class="cls-3"><path class="cls-9" d="M5.9,4.5Z" transform="translate(1.3)"/></g><g class="cls-3"><path class="cls-1" d="M5.9,4.5Z" transform="translate(1.3)"/></g><g class="cls-3"><path class="cls-9" d="M5.9,4.5h0c0-.1.1-.1,0,0Z" transform="translate(1.3)"/></g><g class="cls-3"><path class="cls-1" d="M5.9,4.5h0c0-.1.1-.1,0,0Z" transform="translate(1.3)"/></g><g class="cls-3"><path class="cls-9" d="M5.9,4.4Z" transform="translate(1.3)"/></g><g class="cls-3"><path class="cls-1" d="M5.9,4.4Z" transform="translate(1.3)"/></g><g class="cls-3"><path class="cls-9" d="M5.8,4.3h0c.1,0,0,.1,0,0Z" transform="translate(1.3)"/></g><g class="cls-3"><path class="cls-1" d="M5.8,4.3h0c.1,0,0,.1,0,0Z" transform="translate(1.3)"/></g><g class="cls-3"><path class="cls-9" d="M5.7,4.3Z" transform="translate(1.3)"/></g><g class="cls-3"><path class="cls-1" d="M5.7,4.3Z" transform="translate(1.3)"/></g><g class="cls-3"><path class="cls-9" d="M5.7,4.2Z" transform="translate(1.3)"/></g><g class="cls-3"><path class="cls-1" d="M5.7,4.2Z" transform="translate(1.3)"/></g><g class="cls-3"><path class="cls-9" d="M5.6,4.2Z" transform="translate(1.3)"/></g><g class="cls-3"><path class="cls-1" d="M5.6,4.2Z" transform="translate(1.3)"/></g><g class="cls-3"><path class="cls-9" d="M5.5,4.2Z" transform="translate(1.3)"/></g><g class="cls-3"><path class="cls-1" d="M5.5,4.2Z" transform="translate(1.3)"/></g><g class="cls-3"><path class="cls-9" d="M5.4,4.2Z" transform="translate(1.3)"/></g><g class="cls-3"><path class="cls-1" d="M5.4,4.2Z" transform="translate(1.3)"/></g><g class="cls-3"><path class="cls-9" d="M5.3,4.2Z" transform="translate(1.3)"/></g><g class="cls-3"><path class="cls-1" d="M5.3,4.2Z" transform="translate(1.3)"/></g><g class="cls-3"><path class="cls-9" d="M5.3,4.2Z" transform="translate(1.3)"/></g><g class="cls-3"><path class="cls-1" d="M5.3,4.2Z" transform="translate(1.3)"/></g><g class="cls-3"><path class="cls-9" d="M5.3,4.3h0c0-.1.1,0,0,0Z" transform="translate(1.3)"/></g><g class="cls-3"><path class="cls-1" d="M5.3,4.3h0c0-.1.1,0,0,0Z" transform="translate(1.3)"/></g><g class="cls-3"><path class="cls-9" d="M5.3,4.3Z" transform="translate(1.3)"/></g><g class="cls-3"><path class="cls-1" d="M5.3,4.3Z" transform="translate(1.3)"/></g><g class="cls-3"><path class="cls-9" d="M5.3,4.4Z" transform="translate(1.3)"/></g><g class="cls-3"><path class="cls-1" d="M5.3,4.4Z" transform="translate(1.3)"/></g><g class="cls-3"><path class="cls-9" d="M5.3,4.5Z" transform="translate(1.3)"/></g><g class="cls-3"><path class="cls-1" d="M5.3,4.5Z" transform="translate(1.3)"/></g><g class="cls-3"><path class="cls-9" d="M5.3,4.6Z" transform="translate(1.3)"/></g><g class="cls-3"><path class="cls-1" d="M5.3,4.6Z" transform="translate(1.3)"/></g><g class="cls-3"><path class="cls-9" d="M5.2,4.2h0c0-.1.1-.1,0,0Z" transform="translate(1.3)"/></g><g class="cls-3"><path class="cls-1" d="M5.2,4.2h0c0-.1.1-.1,0,0Z" transform="translate(1.3)"/></g><g class="cls-3"><path class="cls-9" d="M5.1,4.1Z" transform="translate(1.3)"/></g><g class="cls-3"><path class="cls-1" d="M5.1,4.1Z" transform="translate(1.3)"/></g><g class="cls-3"><path class="cls-9" d="M5.1,4.1Z" transform="translate(1.3)"/></g><g class="cls-3"><path class="cls-1" d="M5.1,4.1Z" transform="translate(1.3)"/></g><g class="cls-3"><path class="cls-9" d="M5,4.1Z" transform="translate(1.3)"/></g><g class="cls-3"><path class="cls-1" d="M5,4.1Z" transform="translate(1.3)"/></g><g class="cls-3"><path class="cls-9" d="M4.9,4.1Z" transform="translate(1.3)"/></g><g class="cls-3"><path class="cls-1" d="M4.9,4.1Z" transform="translate(1.3)"/></g><g class="cls-3"><path class="cls-9" d="M4.8,4.1Z" transform="translate(1.3)"/></g><g class="cls-3"><path class="cls-1" d="M4.8,4.1Z" transform="translate(1.3)"/></g><g class="cls-3"><path class="cls-9" d="M4.7,4.1Z" transform="translate(1.3)"/></g><g class="cls-3"><path class="cls-1" d="M4.7,4.1Z" transform="translate(1.3)"/></g><g class="cls-3"><path class="cls-9" d="M3.4,4.8Z" transform="translate(1.3)"/></g><g class="cls-3"><path class="cls-1" d="M3.4,4.8Z" transform="translate(1.3)"/></g><g class="cls-3"><path class="cls-9" d="M3.4,4.7Z" transform="translate(1.3)"/></g><g class="cls-3"><path class="cls-1" d="M3.4,4.7Z" transform="translate(1.3)"/></g><g class="cls-3"><path class="cls-9" d="M3.4,4.6Z" transform="translate(1.3)"/></g><g class="cls-3"><path class="cls-1" d="M3.4,4.6Z" transform="translate(1.3)"/></g><g class="cls-3"><path class="cls-9" d="M3.4,4.5Z" transform="translate(1.3)"/></g><g class="cls-3"><path class="cls-1" d="M3.4,4.5Z" transform="translate(1.3)"/></g><g class="cls-3"><path class="cls-9" d="M3.4,4.5Z" transform="translate(1.3)"/></g><g class="cls-3"><path class="cls-1" d="M3.4,4.5Z" transform="translate(1.3)"/></g><g class="cls-3"><path class="cls-9" d="M3.4,4.4Z" transform="translate(1.3)"/></g><g class="cls-3"><path class="cls-1" d="M3.4,4.4Z" transform="translate(1.3)"/></g><g class="cls-3"><path class="cls-9" d="M3.5,4.3Z" transform="translate(1.3)"/></g><g class="cls-3"><path class="cls-1" d="M3.5,4.3Z" transform="translate(1.3)"/></g><g class="cls-3"><path class="cls-9" d="M3.5,4.3Z" transform="translate(1.3)"/></g><g class="cls-3"><path class="cls-1" d="M3.5,4.3Z" transform="translate(1.3)"/></g><g class="cls-3"><path class="cls-9" d="M3.6,4.2Z" transform="translate(1.3)"/></g><g class="cls-3"><path class="cls-1" d="M3.6,4.2Z" transform="translate(1.3)"/></g><g class="cls-3"><path class="cls-9" d="M3.7,4.2Z" transform="translate(1.3)"/></g><g class="cls-3"><path class="cls-1" d="M3.7,4.2Z" transform="translate(1.3)"/></g><g class="cls-3"><path class="cls-9" d="M3.8,4.2Z" transform="translate(1.3)"/></g><g class="cls-3"><path class="cls-1" d="M3.8,4.2Z" transform="translate(1.3)"/></g><g class="cls-3"><path class="cls-9" d="M3.9,4.2Z" transform="translate(1.3)"/></g><g class="cls-3"><path class="cls-1" d="M3.9,4.2Z" transform="translate(1.3)"/></g><g class="cls-3"><path class="cls-9" d="M3.9,4.2Z" transform="translate(1.3)"/></g><g class="cls-3"><path class="cls-1" d="M3.9,4.2Z" transform="translate(1.3)"/></g><g class="cls-3"><path class="cls-9" d="M4,4.2Z" transform="translate(1.3)"/></g><g class="cls-3"><path class="cls-1" d="M4,4.2Z" transform="translate(1.3)"/></g><g class="cls-3"><path class="cls-9" d="M4,4.3Z" transform="translate(1.3)"/></g><g class="cls-3"><path class="cls-1" d="M4,4.3Z" transform="translate(1.3)"/></g><g class="cls-3"><path class="cls-9" d="M4,4.3Z" transform="translate(1.3)"/></g><g class="cls-3"><path class="cls-1" d="M4,4.3Z" transform="translate(1.3)"/></g><g class="cls-3"><path class="cls-9" d="M4,4.4Z" transform="translate(1.3)"/></g><g class="cls-3"><path class="cls-1" d="M4,4.4Z" transform="translate(1.3)"/></g><g class="cls-3"><path class="cls-9" d="M4,4.5Z" transform="translate(1.3)"/></g><g class="cls-3"><path class="cls-1" d="M4,4.5Z" transform="translate(1.3)"/></g><g class="cls-3"><path class="cls-9" d="M4,4.6Z" transform="translate(1.3)"/></g><g class="cls-3"><path class="cls-1" d="M4,4.6Z" transform="translate(1.3)"/></g><g class="cls-3"><path class="cls-9" d="M4.1,4.2Z" transform="translate(1.3)"/></g><g class="cls-3"><path class="cls-1" d="M4.1,4.2Z" transform="translate(1.3)"/></g><g class="cls-3"><path class="cls-9" d="M4.1,4.1Z" transform="translate(1.3)"/></g><g class="cls-3"><path class="cls-1" d="M4.1,4.1Z" transform="translate(1.3)"/></g><g class="cls-3"><path class="cls-9" d="M4.2,4.1Z" transform="translate(1.3)"/></g><g class="cls-3"><path class="cls-1" d="M4.2,4.1Z" transform="translate(1.3)"/></g><g class="cls-3"><path class="cls-9" d="M4.3,4.1h0c0-.1.1,0,0,0Z" transform="translate(1.3)"/></g><g class="cls-3"><path class="cls-1" d="M4.3,4.1h0c0-.1.1,0,0,0Z" transform="translate(1.3)"/></g><g class="cls-3"><path class="cls-9" d="M4.4,4.1Z" transform="translate(1.3)"/></g><g class="cls-3"><path class="cls-1" d="M4.4,4.1Z" transform="translate(1.3)"/></g><g class="cls-3"><path class="cls-9" d="M4.5,4.1Z" transform="translate(1.3)"/></g><g class="cls-3"><path class="cls-1" d="M4.5,4.1Z" transform="translate(1.3)"/></g><g class="cls-3"><path class="cls-9" d="M4.5,4.1Z" transform="translate(1.3)"/></g><g class="cls-3"><path class="cls-1" d="M4.5,4.1Z" transform="translate(1.3)"/></g><g class="cls-3"><path class="cls-8" d="M3.9,5.7h0v.1H3.8V6h0v.3h0v.2h.7V6.3H4.3V6h0V5.8h0V5.7h0v.1h0v.1H4.1V5.6h0v.1h0v.2H4l-.1-.2.1.1V5.7Zm-.1.8h0Zm0,0h0Zm0-.1h0Zm0,0h0Zm0-.1h0Zm0,0h0Zm0,0h0Zm0-.1h0Zm0,0h0Zm0-.1h0Zm0,0h0Zm0-.1h0Zm0,0h0Zm0,0h0Zm0-.1h0Zm0,0h0Zm.1-.1h0Zm.1,0Zm0-.1Zm0,0Zm0,0Zm0-.1H4Zm-.1.2Zm-.1-.1h0Zm0,.8Zm0-.1Zm0,0Zm.1.1Zm0,0Zm0-.1Zm0-.1Zm0,0Zm0,.1Zm-.1,0ZM4,6.3Zm0,0Zm-.1,0Zm.1,0Zm0,0Zm0,0Zm0-.1Zm0-.1ZM4,6ZM4,6ZM4,6ZM3.9,6ZM3.8,6Zm.1,0ZM4,6Zm0-.1Zm0,0Zm-.1,0Zm-.1,0Zm.2,0Zm-.1-.1Zm.4,0Zm0-.1h0Zm0,.8Zm0-.1Zm.1,0Zm-.1.1Zm-.1,0Zm0-.1Zm0-.1Zm0,0Zm.1.1Zm.1,0Zm-.2-.1Zm0,0Zm.1,0Zm-.1,0Zm-.1,0Zm.1,0Zm-.1-.1Zm0-.1ZM4.2,6ZM4.1,6Zm.1,0Zm.1,0Zm0,0ZM4.2,6Zm0,0Zm-.1-.1Zm.1,0Zm.1,0Zm0,0Zm-.1,0Zm0-.1Zm-.1.5Zm0-.2Zm0,.1Zm0-.2Zm0-.1Zm0-.1Zm0-.1Zm-.2.1ZM4,5.6Zm.2.2Z" transform="translate(1.3)"/></g><g class="cls-3"><path class="cls-7" d="M3.8,6.5V6.3h.1V6h0V5.8H4V5.7H4V5.6H4v.1H4V5.5H4V5.4h.3v.1h0v.2h.1V5.6h0V5.5h.2v.1h0v.1h.1v.2h0v.3h.1v.2l-1,.1Zm.5,0Zm.1,0Zm-.1-.1Zm0,0H4.2L4,6.3h.3v.1Zm0-.1Zm0,0Zm0,0Zm-.2-.1h0Zm-.3,0h0Zm.3,0h0Zm-.3,0h0Zm.3-.1h0Zm-.3,0h0Zm.4,0h0Zm-.4,0h0ZM4.3,6Zm0,0Zm0,0H4.2L4,5.9h.3V6Zm0-.1Zm-.5,0h0Zm0,0h.4L4,5.8H4l-.2.1Zm.4-.1Zm-.3,0ZM4,5.6Z" transform="translate(1.3)"/></g><g class="cls-3"><path class="cls-8" d="M4.2,6.5V6.4a.1.1,0,0,0-.2,0v.1Z" transform="translate(1.3)"/></g><g class="cls-3"><path class="cls-7" d="M4.2,6.5H4V6.4a.1.1,0,0,1,.2,0v.1Zm-.1-.2a.1.1,0,0,0-.1.1v.1h.2V6.4a.1.1,0,0,0-.1-.1Z" transform="translate(1.3)"/></g><g class="cls-3"><path class="cls-8" d="M4,6.4Z" transform="translate(1.3)"/></g><g class="cls-3"><path class="cls-7" d="M4,6.4Z" transform="translate(1.3)"/></g><g class="cls-3"><path class="cls-8" d="M4.2,6.4Z" transform="translate(1.3)"/></g><g class="cls-3"><path class="cls-7" d="M4.2,6.4Z" transform="translate(1.3)"/></g><g class="cls-3"><path class="cls-8" d="M4.1,6.4h0c0-.1-.1-.1,0,0Z" transform="translate(1.3)"/></g><g class="cls-3"><path class="cls-7" d="M4.1,6.4Z" transform="translate(1.3)"/></g><g class="cls-3"><path class="cls-8" d="M4,6.2V6.1a.1.1,0,0,0-.2,0v.1Z" transform="translate(1.3)"/></g><g class="cls-3"><path class="cls-7" d="M4,6.2H3.9V6.1c0-.1.1-.1.1,0v.1Zm-.1-.1h0v.1H4l-.1-.1Z" transform="translate(1.3)"/></g><g class="cls-3"><path class="cls-8" d="M4.2,6.2V6.1a.1.1,0,0,1,.2,0v.1Z" transform="translate(1.3)"/></g><g class="cls-3"><path class="cls-7" d="M4.3,6.2H4.2V6.1c0-.1.1-.1.1,0v.1Zm-.1-.1h0v.1h.1l-.1-.1Z" transform="translate(1.3)"/></g><g class="cls-3"><polygon class="cls-8" points="5.6 5.9 5.6 5.8 5.5 5.8 5.5 5.9 5.6 5.9"/></g><g class="cls-3"><path class="cls-7" d="M4.3,5.9h0l-.1-.1h.1v.1Zm0-.1h0l-.1.1h.1V5.8Z" transform="translate(1.3)"/></g><g class="cls-3"><polygon class="cls-8" points="5.3 5.9 5.3 5.8 5.4 5.8 5.4 5.9 5.3 5.9"/></g><g class="cls-3"><path class="cls-7" d="M4.1,5.9h0L4,5.8h.1v.1Zm0-.1H4v.1h.1V5.8Z" transform="translate(1.3)"/></g><g class="cls-3"><polygon class="cls-8" points="5.3 5.9 5.3 5.8 5.2 5.8 5.2 5.9 5.3 5.9"/></g><g class="cls-3"><path class="cls-7" d="M4,5.9H4l-.1-.1H4v.1Zm0-.1H4l-.1.1H4V5.8Z" transform="translate(1.3)"/></g><g class="cls-3"><path class="cls-17" d="M4.2,6.5h0c0-.1,0-.2-.1-.2L4,6.4v.1Z" transform="translate(1.3)"/></g><g class="cls-3"><path class="cls-17" d="M4,6.2v0Z" transform="translate(1.3)"/></g><g class="cls-3"><path class="cls-17" d="M4.2,6.2v0Z" transform="translate(1.3)"/></g><g class="cls-3"><path class="cls-6" d="M4.3,6.7a.43.43,0,0,1,.4-.4.4.4,0,0,1,0,.8.37.37,0,0,1-.4-.4Z" transform="translate(1.3)"/></g><g class="cls-3"><path class="cls-7" d="M4.7,7.2a.46.46,0,0,1-.4-.5.43.43,0,0,1,.4-.4.43.43,0,0,1,.4.4.46.46,0,0,1-.4.5Zm0-.9a.4.4,0,0,0,0,.8.4.4,0,0,0,0-.8Z" transform="translate(1.3)"/></g><g class="cls-3"><g class="cls-18"><path class="cls-11" d="M4.4,6.7a.27.27,0,0,1,.3-.3.27.27,0,0,1,.3.3q-.15.3-.3.3a.27.27,0,0,1-.3-.3Z" transform="translate(1.3)"/></g></g><g class="cls-3"><path class="cls-7" d="M4.7,7a.27.27,0,0,1-.3-.3.27.27,0,0,1,.3-.3.3.3,0,0,1,0,.6Zm0-.6a.32.32,0,0,0-.3.3.27.27,0,0,0,.3.3A.32.32,0,0,0,5,6.7q-.15-.3-.3-.3Z" transform="translate(1.3)"/></g><g class="cls-3"><path class="cls-8" d="M4.5,6.5h0v.1h0c.1,0,.1,0,0-.1Z" transform="translate(1.3)"/></g><g class="cls-3"><path class="cls-7" d="M4.5,6.8h0l.1-.1c0-.1,0-.1-.1,0v0H4.4l.1.1h0v0h0V6.7c0-.1,0-.1.1-.1h0v0h.1l-.2.2V6.7c.1,0,.1,0,0,.1Z" transform="translate(1.3)"/></g><g class="cls-3"><polygon class="cls-8" points="5.8 6.7 5.9 6.7 5.9 6.7 5.8 6.7"/></g><g class="cls-3"><polygon class="cls-7" points="5.9 6.7 5.8 6.7 5.8 6.7 5.9 6.7 5.9 6.7"/></g><g class="cls-3"><path class="cls-8" d="M4.8,6.5h0v.1h0V6.5Z" transform="translate(1.3)"/></g><g class="cls-3"><path class="cls-7" d="M4.8,6.8h0c0-.1.1-.1,0,0l.1-.1c0-.1,0-.1-.1,0v0H4.7l.1.1c-.1-.1,0-.1,0,0h0V6.7s-.1,0,0,.1h0l-.1-.1c0-.1,0-.1.1-.1h0v0h.1l-.1.2v0Z" transform="translate(1.3)"/></g><g class="cls-3"><polygon class="cls-8" points="6 6.7 6.1 6.7 6.1 6.7 6 6.7"/></g><g class="cls-3"><polygon class="cls-7" points="6.2 6.7 6 6.7 6 6.7 6.2 6.7 6.2 6.7"/></g><g class="cls-3"><path class="cls-8" d="M4.7,6.7h0v.1h0V6.7Z" transform="translate(1.3)"/></g><g class="cls-3"><path class="cls-7" d="M4.7,7h0l.1-.1c0-.1,0-.1-.1,0v0H4.6l.1.1c-.1-.1,0-.1,0,0h0V6.9c-.1,0-.1,0,0,.1h0l-.1-.1c0-.1,0-.1.1-.1h0v0h.1L4.7,7V7Z" transform="translate(1.3)"/></g><g class="cls-3"><polygon class="cls-8" points="5.9 6.9 6 6.9 6 6.9 5.9 6.9"/></g><g class="cls-3"><polygon class="cls-7" points="6 6.9 5.9 6.9 5.9 6.9 6 6.9 6 6.9"/></g><g class="cls-3"><path class="cls-8" d="M5.4,5.6h0c-.1,0-.1,0-.1-.1h0l.1.1v.1c.1,0,.1,0,0-.1h0c.1,0,.1.1,0,0Z" transform="translate(1.3)"/></g><g class="cls-3"><path class="cls-7" d="M5.5,5.7h0c-.1-.1-.1-.1-.2-.1h0c.1,0,.1,0,.2.1Zm0-.1Z" transform="translate(1.3)"/></g><g class="cls-3"><polygon class="cls-7" points="6.7 5.6 6.7 5.6 6.7 5.6 6.7 5.6 6.7 5.6"/></g><g class="cls-3"><polygon class="cls-1" points="6.7 5.6 6.7 5.6 6.7 5.6 6.7 5.6"/></g><g class="cls-3"><polygon class="cls-7" points="6.7 5.6 6.7 5.6 6.7 5.6 6.7 5.6 6.7 5.6 6.7 5.6 6.7 5.6 6.7 5.6 6.7 5.6"/></g><g class="cls-3"><polygon class="cls-1" points="6.7 5.6 6.7 5.6 6.7 5.6 6.7 5.6 6.7 5.6 6.7 5.6 6.7 5.6 6.7 5.6 6.7 5.6"/></g><g class="cls-3"><polygon class="cls-7" points="6.7 5.6 6.7 5.6 6.7 5.6 6.7 5.6 6.7 5.6 6.7 5.6 6.7 5.6 6.7 5.6 6.7 5.6"/></g><g class="cls-3"><polygon class="cls-1" points="6.7 5.6 6.7 5.6 6.7 5.6 6.7 5.6 6.7 5.6 6.7 5.6 6.7 5.6 6.7 5.6 6.7 5.6"/></g><g class="cls-3"><polygon class="cls-7" points="6.7 5.6 6.7 5.6 6.7 5.6 6.7 5.6 6.7 5.6"/></g><g class="cls-3"><polygon class="cls-1" points="6.7 5.6 6.7 5.6 6.7 5.6 6.7 5.6"/></g><g class="cls-3"><polygon class="cls-7" points="6.7 5.6 6.7 5.6 6.7 5.6 6.7 5.6 6.7 5.6"/></g><g class="cls-3"><polygon class="cls-1" points="6.7 5.6 6.7 5.6 6.7 5.6 6.7 5.6"/></g><g class="cls-3"><polygon class="cls-7" points="6.8 5.6 6.8 5.6 6.8 5.6 6.8 5.6 6.8 5.6 6.8 5.6 6.8 5.6 6.8 5.6 6.8 5.6"/></g><g class="cls-3"><polygon class="cls-1" points="6.8 5.6 6.8 5.6 6.8 5.6 6.8 5.6 6.8 5.6 6.8 5.6 6.8 5.6 6.8 5.6 6.8 5.6"/></g><g class="cls-3"><polygon class="cls-7" points="6.8 5.7 6.8 5.6 6.8 5.6 6.8 5.7 6.8 5.7"/></g><g class="cls-3"><polygon class="cls-1" points="6.8 5.7 6.8 5.6 6.8 5.6 6.8 5.7"/></g><g class="cls-3"><polygon class="cls-8" points="6.7 5.5 6.7 5.5 6.7 5.5 6.7 5.5 6.7 5.5 6.7 5.5"/></g><g class="cls-3"><polygon class="cls-1" points="6.7 5.5 6.7 5.5 6.7 5.5 6.7 5.5 6.7 5.5 6.7 5.5 6.7 5.5"/></g><g class="cls-3"><polygon class="cls-8" points="6.7 5.5 6.7 5.5 6.7 5.5 6.7 5.5 6.7 5.5 6.7 5.5"/></g><g class="cls-3"><polygon class="cls-1" points="6.7 5.5 6.7 5.5 6.7 5.5 6.7 5.5 6.7 5.5 6.7 5.5 6.7 5.5"/></g><g class="cls-3"><polygon class="cls-8" points="6.7 5.5 6.7 5.6 6.7 5.5 6.7 5.5 6.7 5.5 6.7 5.5"/></g><g class="cls-3"><polygon class="cls-1" points="6.7 5.5 6.7 5.6 6.7 5.5 6.7 5.5 6.7 5.5 6.7 5.5 6.7 5.5"/></g><g class="cls-3"><polygon class="cls-8" points="6.7 5.5 6.7 5.5 6.7 5.5 6.7 5.5 6.7 5.5"/></g><g class="cls-3"><polygon class="cls-1" points="6.7 5.5 6.7 5.5 6.7 5.5 6.7 5.5"/></g><g class="cls-3"><path class="cls-8" d="M5.3,5.5Z" transform="translate(1.3)"/></g><g class="cls-3"><path class="cls-1" d="M5.3,5.5Z" transform="translate(1.3)"/></g><g class="cls-3"><polygon class="cls-8" points="6.7 5.5 6.7 5.5 6.6 5.5 6.6 5.5 6.6 5.5 6.7 5.5"/></g><g class="cls-3"><polygon class="cls-1" points="6.7 5.5 6.7 5.5 6.6 5.5 6.6 5.5 6.6 5.5 6.7 5.5 6.7 5.5"/></g><g class="cls-3"><path class="cls-8" d="M5.3,5.5Z" transform="translate(1.3)"/></g><g class="cls-3"><path class="cls-1" d="M5.3,5.5Z" transform="translate(1.3)"/></g><g class="cls-3"><polygon class="cls-8" points="6.8 5.5 6.8 5.5 6.7 5.6 6.7 5.6 6.8 5.6 6.8 5.6 6.8 5.5"/></g><g class="cls-3"><polygon class="cls-1" points="6.8 5.5 6.8 5.5 6.7 5.6 6.7 5.6 6.8 5.6 6.8 5.6 6.8 5.5"/></g><g class="cls-3"><polygon class="cls-8" points="6.7 5.5 6.7 5.6 6.7 5.6 6.8 5.6 6.8 5.6 6.7 5.5"/></g><g class="cls-3"><polygon class="cls-1" points="6.7 5.5 6.7 5.6 6.7 5.6 6.8 5.6 6.8 5.6 6.7 5.5 6.7 5.5"/></g><g class="cls-3"><polygon class="cls-8" points="6.8 5.6 6.8 5.6 6.7 5.6 6.7 5.6 6.8 5.6 6.8 5.6"/></g><g class="cls-3"><polygon class="cls-1" points="6.8 5.6 6.8 5.6 6.7 5.6 6.7 5.6 6.8 5.6 6.8 5.6 6.8 5.6"/></g><g class="cls-3"><polygon class="cls-8" points="6.7 5.6 6.8 5.6 6.8 5.6 6.7 5.6 6.7 5.6"/></g><g class="cls-3"><polygon class="cls-1" points="6.7 5.6 6.8 5.6 6.8 5.6 6.7 5.6"/></g><g class="cls-3"><polygon class="cls-8" points="6.8 5.6 6.8 5.6 6.8 5.6 6.8 5.6 6.8 5.6 6.8 5.6"/></g><g class="cls-3"><polygon class="cls-1" points="6.8 5.6 6.8 5.6 6.8 5.6 6.8 5.6 6.8 5.6 6.8 5.6 6.8 5.6"/></g><g class="cls-3"><polygon class="cls-8" points="6.8 5.6 6.8 5.6 6.8 5.6 6.8 5.6 6.8 5.6 6.8 5.6"/></g><g class="cls-3"><polygon class="cls-1" points="6.8 5.6 6.8 5.6 6.8 5.6 6.8 5.6 6.8 5.6 6.8 5.6 6.8 5.6"/></g><g class="cls-3"><polygon class="cls-8" points="6.8 5.6 6.8 5.6 6.8 5.6 6.8 5.6 6.8 5.6 6.8 5.6"/></g><g class="cls-3"><polygon class="cls-1" points="6.8 5.6 6.8 5.6 6.8 5.6 6.8 5.6 6.8 5.6 6.8 5.6 6.8 5.6"/></g><g class="cls-3"><polygon class="cls-8" points="6.8 5.6 6.8 5.6 6.8 5.6 6.8 5.6 6.8 5.6"/></g><g class="cls-3"><polygon class="cls-1" points="6.8 5.6 6.8 5.6 6.8 5.6 6.8 5.6"/></g><g class="cls-3"><path class="cls-8" d="M5.5,5.7Z" transform="translate(1.3)"/></g><g class="cls-3"><path class="cls-1" d="M5.5,5.7Z" transform="translate(1.3)"/></g><g class="cls-3"><polygon class="cls-8" points="6.8 5.6 6.8 5.6 6.8 5.7 6.8 5.7 6.8 5.7 6.8 5.6"/></g><g class="cls-3"><polygon class="cls-1" points="6.8 5.6 6.8 5.6 6.8 5.7 6.8 5.7 6.8 5.7 6.8 5.6 6.8 5.6"/></g><g class="cls-3"><polygon class="cls-8" points="6.8 5.7 6.8 5.6 6.8 5.6 6.8 5.7 6.8 5.7"/></g><g class="cls-3"><polygon class="cls-1" points="6.8 5.7 6.8 5.6 6.8 5.6 6.8 5.7"/></g><g class="cls-3"><polygon class="cls-1" points="7.8 5.1 7.8 5.1 7.7 5.1 7.7 5.1 7.7 5.1 7.7 5.1 7.7 5.1 7.7 5.1 7.7 5.1 7.7 5.1 7.8 5.1 7.8 5.1 7.8 5.1 7.8 5.1 7.8 5.1 7.8 5.1 7.8 5.1"/></g></g></g></g></svg>