<?xml version="1.0" encoding="utf-8"?>
<!-- Generator: Adobe Illustrator 25.0.0, SVG Export Plug-In . SVG Version: 6.00 Build 0)  -->
<svg version="1.1" id="Layer_1" xmlns="http://www.w3.org/2000/svg" xmlns:xlink="http://www.w3.org/1999/xlink" x="0px" y="0px"
	 viewBox="0 0 18 12" style="enable-background:new 0 0 18 12;" xml:space="preserve">
<style type="text/css">
	.st0{clip-path:url(#SVGID_2_);}
	.st1{clip-path:url(#SVGID_4_);fill:#FFFFFF;}
	.st2{clip-path:url(#SVGID_4_);fill:#49A146;}
	.st3{clip-path:url(#SVGID_4_);fill:#C62127;}
	.st4{clip-path:url(#SVGID_4_);}
	.st5{clip-path:url(#SVGID_6_);fill:#C62127;}
	.st6{clip-path:url(#SVGID_6_);fill:#FFFFFF;}
</style>
<g>
	<defs>
		<rect id="SVGID_1_" width="18" height="12"/>
	</defs>
	<clipPath id="SVGID_2_">
		<use xlink:href="#SVGID_1_"  style="overflow:visible;"/>
	</clipPath>
	<g class="st0">
		<g>
			<defs>
				<rect id="SVGID_3_" x="-1.3" width="20.6" height="12"/>
			</defs>
			<clipPath id="SVGID_4_">
				<use xlink:href="#SVGID_3_"  style="overflow:visible;"/>
			</clipPath>
			<rect x="-1.3" class="st1" width="20.6" height="12"/>
			<rect x="-1.3" class="st2" width="20.6" height="4"/>
			<rect x="-1.3" y="8" class="st3" width="20.6" height="4"/>
			<polygon class="st3" points="9,4.6 8.8,4.7 8.8,7.6 9,7.8 9.2,7.6 9.2,4.7 			"/>
			<g class="st4">
				<defs>
					<rect id="SVGID_5_" x="-1.3" width="20.6" height="12"/>
				</defs>
				<clipPath id="SVGID_6_">
					<use xlink:href="#SVGID_5_"  style="overflow:visible;"/>
				</clipPath>
				<path class="st5" d="M9.4,4.3C9.3,4.4,9.2,4.4,9,4.4c0,0,0,0,0,0C8.9,4.4,8.7,4.4,8.6,4.3c0,0,0,0,0,0c0,0.1,0,0.3,0.2,0.3
					c0.1,0,0.2,0,0.2-0.1c0.1,0.1,0.3,0.1,0.4,0C9.4,4.4,9.5,4.3,9.4,4.3"/>
				<path class="st5" d="M9.5,4.6c0.6,0.8,0.4,1.9-0.4,2.5C8.8,7.4,8.4,7.5,7.9,7.5C8.8,7.8,9.7,7.4,10,6.5
					C10.3,5.9,10.1,5.1,9.5,4.6"/>
				<path class="st5" d="M8.5,4.6C7.9,5.4,8,6.5,8.8,7.1c0.4,0.3,0.8,0.4,1.3,0.3C9.2,7.8,8.3,7.4,8,6.5C7.7,5.9,7.9,5.1,8.5,4.6"/>
				<path class="st5" d="M9.7,4.6c0.8,0.6,1,1.7,0.4,2.5c0,0-0.1,0.1-0.1,0.1C10.7,6.8,11,6,10.6,5.3C10.4,4.9,10.1,4.7,9.7,4.6"/>
				<path class="st5" d="M8.3,4.6c-0.8,0.6-1,1.7-0.4,2.5c0,0,0.1,0.1,0.1,0.1C7.3,6.8,7,6,7.4,5.3C7.6,4.9,7.9,4.7,8.3,4.6"/>
				<path class="st6" d="M-1.2,3.8L-1.2,3.8l0.1-0.2h0.3v0.2h0.5V3.5h-0.3v0.1h0.2v0.1h-0.3V3.5h-0.5V3.8z M-1.1,3.8L-1.1,3.8
					L-1.1,3.8L-1.1,3.8L-1.1,3.8z M-1.2,3.4H0V3.3L-1.2,3.4L-1.2,3.4z M0,3.8h-0.3V3.5h0.4V3.3h0.1v0.4h0.1V3.3h0.1v0.4h0.1V3.3h0.1
					v0.5H0l0.1-0.2h-0.3v0.1L0,3.8L0,3.8z"/>
				<path class="st6" d="M0.6,3.8L0.6,3.8l0.1-0.2H1v0.2h0.5V3.5H1.2v0.1h0.2v0.1H1.1V3.5H0.6V3.8z M0.8,3.8L0.8,3.8L0.8,3.8
					L0.8,3.8L0.8,3.8z M0.6,3.4h1.2V3.3L0.6,3.4L0.6,3.4z M1.8,3.8H1.6V3.5h0.4V3.3H2v0.4h0.1V3.3h0.1v0.4h0.1V3.3h0.1v0.5H1.8
					l0.1-0.2H1.7v0.1L1.8,3.8L1.8,3.8z"/>
				<path class="st6" d="M2.5,3.8L2.5,3.8l0.1-0.2h0.3v0.2h0.5V3.5H3.1v0.1h0.2v0.1H3V3.5H2.5V3.8z M2.7,3.8L2.7,3.8L2.7,3.8
					L2.7,3.8L2.7,3.8z M2.5,3.4h1.2V3.3L2.5,3.4L2.5,3.4z M3.7,3.8H3.4V3.5h0.4V3.3h0.1v0.4H4V3.3h0.1v0.4h0.1V3.3h0.1v0.5H3.7
					l0.1-0.2H3.5v0.1L3.7,3.8L3.7,3.8z"/>
				<path class="st6" d="M4.4,3.8L4.4,3.8l0.1-0.2h0.3v0.2h0.5V3.5H4.9v0.1h0.2v0.1H4.8V3.5H4.4V3.8z M4.6,3.8L4.6,3.8L4.6,3.8
					L4.6,3.8L4.6,3.8z M4.4,3.4h1.2V3.3L4.4,3.4L4.4,3.4z M5.6,3.8H5.3V3.5h0.4V3.3h0.1v0.4h0.1V3.3H6v0.4h0.1V3.3h0.1v0.5H5.6
					l0.1-0.2H5.4v0.1L5.6,3.8L5.6,3.8z"/>
				<path class="st6" d="M6.2,3.8L6.2,3.8l0.1-0.2h0.3v0.2h0.5V3.5H6.8v0.1H7v0.1H6.7V3.5H6.2V3.8z M6.4,3.8L6.4,3.8L6.4,3.8
					L6.4,3.8L6.4,3.8z M6.2,3.4h1.2V3.3L6.2,3.4L6.2,3.4z M7.5,3.8H7.2V3.5h0.4V3.3h0.1v0.4h0.1V3.3h0.1v0.4h0.1V3.3H8v0.5H7.5
					l0.1-0.2H7.3v0.1L7.5,3.8L7.5,3.8z"/>
				<path class="st6" d="M8.1,3.8L8.1,3.8l0.1-0.2h0.3v0.2H9V3.5H8.7v0.1h0.2v0.1H8.6V3.5H8.1V3.8z M8.3,3.8L8.3,3.8L8.3,3.8
					L8.3,3.8L8.3,3.8z M8.1,3.4h1.2V3.3L8.1,3.4L8.1,3.4z M9.3,3.8H9V3.5h0.4V3.3h0.1v0.4h0.1V3.3h0.1v0.4h0.1V3.3h0.1v0.5H9.3
					l0.1-0.2H9.1v0.1L9.3,3.8L9.3,3.8z"/>
				<path class="st6" d="M10,3.8L10,3.8l0.1-0.2h0.3v0.2h0.5V3.5h-0.3v0.1h0.2v0.1h-0.3V3.5H10V3.8z M10.2,3.8L10.2,3.8L10.2,3.8
					L10.2,3.8L10.2,3.8z M10,3.4h1.2V3.3L10,3.4L10,3.4z M11.2,3.8h-0.3V3.5h0.4V3.3h0.1v0.4h0.1V3.3h0.1v0.4h0.1V3.3h0.1v0.5H11.2
					l0.1-0.2H11v0.1L11.2,3.8L11.2,3.8z"/>
				<path class="st6" d="M11.9,3.8L11.9,3.8l0.1-0.2h0.3v0.2h0.5V3.5h-0.3v0.1h0.2v0.1h-0.3V3.5h-0.5V3.8z M12,3.8L12,3.8L12,3.8
					L12,3.8L12,3.8z M11.9,3.4h1.2V3.3L11.9,3.4L11.9,3.4z M13.1,3.8h-0.3V3.5h0.4V3.3h0.1v0.4h0.1V3.3h0.1v0.4h0.1V3.3h0.1v0.5
					H13.1l0.1-0.2h-0.3v0.1L13.1,3.8L13.1,3.8z"/>
				<path class="st6" d="M13.7,3.8L13.7,3.8l0.1-0.2h0.3v0.2h0.5V3.5h-0.3v0.1h0.2v0.1h-0.3V3.5h-0.5V3.8z M13.9,3.8L13.9,3.8
					L13.9,3.8L13.9,3.8L13.9,3.8z M13.7,3.4h1.2V3.3L13.7,3.4L13.7,3.4z M14.9,3.8h-0.3V3.5H15V3.3h0.1v0.4h0.1V3.3h0.1v0.4h0.1V3.3
					h0.1v0.5H14.9L15,3.6h-0.3v0.1L14.9,3.8L14.9,3.8z"/>
				<path class="st6" d="M15.6,3.8L15.6,3.8l0.1-0.2H16v0.2h0.5V3.5h-0.3v0.1h0.2v0.1h-0.3V3.5h-0.5V3.8z M15.8,3.8L15.8,3.8
					L15.8,3.8L15.8,3.8L15.8,3.8z M15.6,3.4h1.2V3.3L15.6,3.4L15.6,3.4z M16.8,3.8h-0.3V3.5h0.4V3.3H17v0.4h0.1V3.3h0.1v0.4h0.1V3.3
					h0.1v0.5H16.8l0.1-0.2h-0.3v0.1L16.8,3.8L16.8,3.8z"/>
				<path class="st6" d="M17.5,3.8L17.5,3.8l0.1-0.2h0.3v0.2h0.5V3.5H18v0.1h0.2v0.1h-0.3V3.5h-0.5V3.8z M17.6,3.8L17.6,3.8
					L17.6,3.8L17.6,3.8L17.6,3.8z M17.5,3.4h1.2V3.3L17.5,3.4L17.5,3.4z M18.7,3.8h-0.3V3.5h0.4V3.3h0.1v0.4H19V3.3h0.1v0.4h0.1V3.3
					h0.1v0.5H18.7l0.1-0.2h-0.3v0.1L18.7,3.8L18.7,3.8z"/>
				<path class="st6" d="M-1.2,4.1h0.8V3.9h-0.8V4.1z M-0.3,4.1h0.8V3.9h-0.8V4.1z"/>
				<path class="st6" d="M0.6,4.1h0.8V3.9H0.6V4.1z M1.6,4.1h0.8V3.9H1.6V4.1z"/>
				<path class="st6" d="M2.5,4.1h0.8V3.9H2.5V4.1z M3.4,4.1h0.8V3.9H3.4V4.1z"/>
				<path class="st6" d="M4.4,4.1h0.8V3.9H4.4V4.1z M5.3,4.1h0.8V3.9H5.3V4.1z"/>
				<path class="st6" d="M6.2,4.1h0.8V3.9H6.2V4.1z M7.2,4.1H8V3.9H7.2V4.1z"/>
				<path class="st6" d="M8.1,4.1H9V3.9H8.1V4.1z M9,4.1h0.8V3.9H9V4.1z"/>
				<path class="st6" d="M10,4.1h0.8V3.9H10V4.1z M10.9,4.1h0.8V3.9h-0.8V4.1z"/>
				<path class="st6" d="M11.9,4.1h0.8V3.9h-0.8V4.1z M12.8,4.1h0.8V3.9h-0.8V4.1z"/>
				<path class="st6" d="M13.7,4.1h0.8V3.9h-0.8V4.1z M14.7,4.1h0.8V3.9h-0.8V4.1z"/>
				<path class="st6" d="M15.6,4.1h0.8V3.9h-0.8V4.1z M16.5,4.1h0.8V3.9h-0.8V4.1z"/>
				<path class="st6" d="M17.5,4.1h0.8V3.9h-0.8V4.1z M18.4,4.1h0.8V3.9h-0.8V4.1z"/>
				<path class="st6" d="M-1.2,8.7L-1.2,8.7l0.1-0.2h0.3v0.2h0.5V8.4h-0.3v0.1h0.2v0.1h-0.3V8.4h-0.5V8.7z M-1.1,8.7L-1.1,8.7
					L-1.1,8.7L-1.1,8.7L-1.1,8.7z M-1.2,8.3H0V8.2L-1.2,8.3L-1.2,8.3z M0,8.7h-0.3V8.4h0.4V8.2h0.1v0.4h0.1V8.2h0.1v0.4h0.1V8.2h0.1
					v0.5H0l0.1-0.2h-0.3v0.1L0,8.7L0,8.7z"/>
				<path class="st6" d="M0.6,8.7L0.6,8.7l0.1-0.2H1v0.2h0.5V8.4H1.2v0.1h0.2v0.1H1.1V8.4H0.6V8.7z M0.8,8.7L0.8,8.7L0.8,8.7
					L0.8,8.7L0.8,8.7z M0.6,8.3h1.2V8.2L0.6,8.3L0.6,8.3z M1.8,8.7H1.6V8.4h0.4V8.2H2v0.4h0.1V8.2h0.1v0.4h0.1V8.2h0.1v0.5H1.8
					l0.1-0.2H1.7v0.1L1.8,8.7L1.8,8.7z"/>
				<path class="st6" d="M2.5,8.7L2.5,8.7l0.1-0.2h0.3v0.2h0.5V8.4H3.1v0.1h0.2v0.1H3V8.4H2.5V8.7z M2.7,8.7L2.7,8.7L2.7,8.7
					L2.7,8.7L2.7,8.7z M2.5,8.3h1.2V8.2L2.5,8.3L2.5,8.3z M3.7,8.7H3.4V8.4h0.4V8.2h0.1v0.4H4V8.2h0.1v0.4h0.1V8.2h0.1v0.5H3.7
					l0.1-0.2H3.5v0.1L3.7,8.7L3.7,8.7z"/>
				<path class="st6" d="M4.4,8.7L4.4,8.7l0.1-0.2h0.3v0.2h0.5V8.4H4.9v0.1h0.2v0.1H4.8V8.4H4.4V8.7z M4.6,8.7L4.6,8.7L4.6,8.7
					L4.6,8.7L4.6,8.7z M4.4,8.3h1.2V8.2L4.4,8.3L4.4,8.3z M5.6,8.7H5.3V8.4h0.4V8.2h0.1v0.4h0.1V8.2H6v0.4h0.1V8.2h0.1v0.5H5.6
					l0.1-0.2H5.4v0.1L5.6,8.7L5.6,8.7z"/>
				<path class="st6" d="M6.2,8.7L6.2,8.7l0.1-0.2h0.3v0.2h0.5V8.4H6.8v0.1H7v0.1H6.7V8.4H6.2V8.7z M6.4,8.7L6.4,8.7L6.4,8.7
					L6.4,8.7L6.4,8.7z M6.2,8.3h1.2V8.2L6.2,8.3L6.2,8.3z M7.5,8.7H7.2V8.4h0.4V8.2h0.1v0.4h0.1V8.2h0.1v0.4h0.1V8.2H8v0.5H7.5
					l0.1-0.2H7.3v0.1L7.5,8.7L7.5,8.7z"/>
				<path class="st6" d="M8.1,8.7L8.1,8.7l0.1-0.2h0.3v0.2H9V8.4H8.7v0.1h0.2v0.1H8.6V8.4H8.1V8.7z M8.3,8.7L8.3,8.7L8.3,8.7
					L8.3,8.7L8.3,8.7z M8.1,8.3h1.2V8.2L8.1,8.3L8.1,8.3z M9.3,8.7H9V8.4h0.4V8.2h0.1v0.4h0.1V8.2h0.1v0.4h0.1V8.2h0.1v0.5H9.3
					l0.1-0.2H9.1v0.1L9.3,8.7L9.3,8.7z"/>
				<path class="st6" d="M10,8.7L10,8.7l0.1-0.2h0.3v0.2h0.5V8.4h-0.3v0.1h0.2v0.1h-0.3V8.4H10V8.7z M10.2,8.7L10.2,8.7L10.2,8.7
					L10.2,8.7L10.2,8.7z M10,8.3h1.2V8.2L10,8.3L10,8.3z M11.2,8.7h-0.3V8.4h0.4V8.2h0.1v0.4h0.1V8.2h0.1v0.4h0.1V8.2h0.1v0.5H11.2
					l0.1-0.2H11v0.1L11.2,8.7L11.2,8.7z"/>
				<path class="st6" d="M11.9,8.7L11.9,8.7l0.1-0.2h0.3v0.2h0.5V8.4h-0.3v0.1h0.2v0.1h-0.3V8.4h-0.5V8.7z M12,8.7L12,8.7L12,8.7
					L12,8.7L12,8.7z M11.9,8.3h1.2V8.2L11.9,8.3L11.9,8.3z M13.1,8.7h-0.3V8.4h0.4V8.2h0.1v0.4h0.1V8.2h0.1v0.4h0.1V8.2h0.1v0.5
					H13.1l0.1-0.2h-0.3v0.1L13.1,8.7L13.1,8.7z"/>
				<path class="st6" d="M13.7,8.7L13.7,8.7l0.1-0.2h0.3v0.2h0.5V8.4h-0.3v0.1h0.2v0.1h-0.3V8.4h-0.5V8.7z M13.9,8.7L13.9,8.7
					L13.9,8.7L13.9,8.7L13.9,8.7z M13.7,8.3h1.2V8.2L13.7,8.3L13.7,8.3z M14.9,8.7h-0.3V8.4H15V8.2h0.1v0.4h0.1V8.2h0.1v0.4h0.1V8.2
					h0.1v0.5H14.9L15,8.5h-0.3v0.1L14.9,8.7L14.9,8.7z"/>
				<path class="st6" d="M15.6,8.7L15.6,8.7l0.1-0.2H16v0.2h0.5V8.4h-0.3v0.1h0.2v0.1h-0.3V8.4h-0.5V8.7z M15.8,8.7L15.8,8.7
					L15.8,8.7L15.8,8.7L15.8,8.7z M15.6,8.3h1.2V8.2L15.6,8.3L15.6,8.3z M16.8,8.7h-0.3V8.4h0.4V8.2H17v0.4h0.1V8.2h0.1v0.4h0.1V8.2
					h0.1v0.5H16.8l0.1-0.2h-0.3v0.1L16.8,8.7L16.8,8.7z"/>
				<path class="st6" d="M17.5,8.7L17.5,8.7l0.1-0.2h0.3v0.2h0.5V8.4H18v0.1h0.2v0.1h-0.3V8.4h-0.5V8.7z M17.6,8.7L17.6,8.7
					L17.6,8.7L17.6,8.7L17.6,8.7z M17.5,8.3h1.2V8.2L17.5,8.3L17.5,8.3z M18.7,8.7h-0.3V8.4h0.4V8.2h0.1v0.4H19V8.2h0.1v0.4h0.1V8.2
					h0.1v0.5H18.7l0.1-0.2h-0.3v0.1L18.7,8.7L18.7,8.7z"/>
				<path class="st6" d="M-1.2,8.1h0.8V7.9h-0.8V8.1z M-0.3,8.1h0.8V7.9h-0.8V8.1z"/>
				<path class="st6" d="M0.6,8.1h0.8V7.9H0.6V8.1z M1.6,8.1h0.8V7.9H1.6V8.1z"/>
				<path class="st6" d="M2.5,8.1h0.8V7.9H2.5V8.1z M3.4,8.1h0.8V7.9H3.4V8.1z"/>
				<path class="st6" d="M4.4,8.1h0.8V7.9H4.4V8.1z M5.3,8.1h0.8V7.9H5.3V8.1z"/>
				<path class="st6" d="M6.2,8.1h0.8V7.9H6.2V8.1z M7.2,8.1H8V7.9H7.2V8.1z"/>
				<path class="st6" d="M8.1,8.1H9V7.9H8.1V8.1z M9,8.1h0.8V7.9H9V8.1z"/>
				<path class="st6" d="M10,8.1h0.8V7.9H10V8.1z M10.9,8.1h0.8V7.9h-0.8V8.1z"/>
				<path class="st6" d="M11.9,8.1h0.8V7.9h-0.8V8.1z M12.8,8.1h0.8V7.9h-0.8V8.1z"/>
				<path class="st6" d="M13.7,8.1h0.8V7.9h-0.8V8.1z M14.7,8.1h0.8V7.9h-0.8V8.1z"/>
				<path class="st6" d="M15.6,8.1h0.8V7.9h-0.8V8.1z M16.5,8.1h0.8V7.9h-0.8V8.1z"/>
				<path class="st6" d="M17.5,8.1h0.8V7.9h-0.8V8.1z M18.4,8.1h0.8V7.9h-0.8V8.1z"/>
			</g>
		</g>
	</g>
</g>
</svg>
