<svg width="81" height="81" viewBox="0 0 81 81" fill="none" xmlns="http://www.w3.org/2000/svg">
<path d="M40.8996 79.7001C62.3283 79.7001 79.6996 62.3288 79.6996 40.9001C79.6996 19.4715 62.3283 2.1001 40.8996 2.1001C19.471 2.1001 2.09961 19.4715 2.09961 40.9001C2.09961 62.3288 19.471 79.7001 40.8996 79.7001Z" stroke="#0D67F9" stroke-opacity="0.5" stroke-width="2.5" stroke-linecap="round" stroke-linejoin="round" stroke-dasharray="19.32 19.32"/>
<path d="M62.1002 38.7003V36.5003C62.1002 24.8003 52.6002 15.3003 40.9002 15.3003C29.2002 15.3003 19.7002 24.8003 19.7002 36.5003V38.7003" stroke="#0D67F9" stroke-width="2.5" stroke-miterlimit="10" stroke-linecap="round" stroke-linejoin="round"/>
<path d="M23.1 53.3001V38.1001C19.2 38.1001 16 41.3001 16 45.2001V46.2001C16 50.1001 19.1 53.3001 23.1 53.3001Z" stroke="#0D67F9" stroke-width="2.5" stroke-miterlimit="10" stroke-linecap="round" stroke-linejoin="round"/>
<path d="M58.7998 53.3001V38.1001C62.6998 38.1001 65.8998 41.3001 65.8998 45.2001V46.2001C65.8998 50.1001 62.6998 53.3001 58.7998 53.3001Z" stroke="#0D67F9" stroke-width="2.5" stroke-miterlimit="10" stroke-linecap="round" stroke-linejoin="round"/>
<path d="M61.6998 52.8003V56.0003C61.6998 60.1003 58.3998 63.4003 54.2998 63.4003H45.7998" stroke="#0D67F9" stroke-width="2.5" stroke-miterlimit="10" stroke-linecap="round" stroke-linejoin="round"/>
<path d="M42.5001 66.6005H38.4001C36.6001 66.6005 35.1001 65.1005 35.1001 63.3005C35.1001 61.5005 36.6001 60.0005 38.4001 60.0005H42.5001C44.3001 60.0005 45.8001 61.5005 45.8001 63.3005C45.9001 65.1005 44.4001 66.6005 42.5001 66.6005Z" stroke="#0D67F9" stroke-width="2.5" stroke-miterlimit="10" stroke-linecap="round" stroke-linejoin="round"/>
<path d="M36.2002 34.5999C36.7002 34.0999 37.1002 33.5999 37.4002 33.0999C37.7002 32.5999 37.8002 32.0999 37.8002 31.5999C37.8002 30.7999 37.5002 30.0999 37.0002 29.5999C36.5002 29.0999 35.8002 28.8999 35.1002 28.8999C34.5002 28.8999 34.0002 28.9999 33.5002 29.2999C33.0002 29.5999 32.6002 29.9999 32.3002 30.5999L32.2002 30.7999L33.3002 31.3999L33.4002 31.1999C33.8002 30.4999 34.3002 30.0999 35.1002 30.0999C35.5002 30.0999 35.9002 30.1999 36.2002 30.4999C36.5002 30.7999 36.6002 31.0999 36.6002 31.5999C36.6002 32.1999 36.2002 32.8999 35.4002 33.6999L32.3002 36.7999V37.7999H38.0002V36.5999H34.2002L36.2002 34.5999Z" fill="#0D67F9"/>
<path d="M42.5001 37.9001H43.8001V36.2001H44.9001V35.0001H43.8001V32.4001H42.5001V35.0001H39.5001L42.7001 29.1001H41.3001L38.1001 35.2001V36.2001H42.5001V37.9001Z" fill="#0D67F9"/>
<path opacity="0.5" d="M46.6001 32.8998L41.6001 44.0998L42.6001 43.9998L47.6001 32.7998L46.6001 32.8998Z" fill="#0D67F9"/>
<path d="M45.1001 38.6001V39.8001H49.3001L46.1001 47.4001H47.4001L50.7001 39.6001V38.6001H45.1001Z" fill="#0D67F9"/>
</svg>
