<svg width="81" height="88" viewBox="0 0 81 88" fill="none" xmlns="http://www.w3.org/2000/svg">
<path d="M4.09993 58.3997C-1.60007 44.1997 1.39993 27.2997 12.8999 15.8997C24.4999 4.49974 41.3999 1.79974 55.4999 7.79974" stroke="#0D67F9" stroke-opacity="0.5" stroke-width="2.5" stroke-miterlimit="10" stroke-linecap="round" stroke-linejoin="round"/>
<path d="M76.5997 29.1997C82.2997 43.3997 79.2997 60.2997 67.7997 71.6997C56.1997 83.0997 39.2997 85.7997 25.1997 79.8997" stroke="#0D67F9" stroke-opacity="0.5" stroke-width="2.5" stroke-miterlimit="10" stroke-linecap="round" stroke-linejoin="round"/>
<path d="M49.6001 11.3998L56.3001 7.89981L52.7001 1.2998" stroke="#0D67F9" stroke-opacity="0.5" stroke-width="2.5" stroke-miterlimit="10" stroke-linecap="round" stroke-linejoin="round"/>
<path d="M30.0998 76.0996L23.2998 79.3996L26.6998 86.1996" stroke="#0D67F9" stroke-opacity="0.5" stroke-width="2.5" stroke-miterlimit="10" stroke-linecap="round" stroke-linejoin="round"/>
<path d="M52.3995 49.3996C52.3995 49.3996 47.6995 41.1996 55.2995 32.3996L59.4995 37.0996L61.4995 21.5996L45.5995 22.1996L49.9995 26.8996C49.9995 26.8996 39.8995 33.3996 32.9995 28.6996" stroke="#0D67F9" stroke-width="2.5" stroke-miterlimit="10" stroke-linecap="round" stroke-linejoin="round"/>
<path d="M41.5994 46.6998C45.2997 46.6998 48.2994 43.7001 48.2994 39.9998C48.2994 36.2995 45.2997 33.2998 41.5994 33.2998C37.8991 33.2998 34.8994 36.2995 34.8994 39.9998C34.8994 43.7001 37.8991 46.6998 41.5994 46.6998Z" stroke="#0D67F9" stroke-width="1.8" stroke-miterlimit="10" stroke-linecap="round" stroke-linejoin="round"/>
<path d="M42.1995 39.5996L42.5995 37.8996C42.9995 38.0996 43.1995 38.4996 43.1995 38.7996L43.2995 39.0996L44.2995 38.7996L44.1995 38.4996C43.9995 37.6996 43.4995 37.0996 42.7995 36.7996L42.9995 35.6996C42.9995 35.5996 42.9995 35.3996 42.8995 35.2996C42.7995 35.1996 42.6995 35.0996 42.5995 35.0996H42.4995C42.2995 35.0996 42.0995 35.2996 41.9995 35.4996L41.7995 36.4996H41.3995C40.5995 36.5996 39.9995 37.1996 39.8995 37.9996C39.6995 39.1996 41.0995 40.1996 40.9995 40.3996L40.6995 41.9996C40.2995 41.7996 40.0995 41.3996 39.9995 40.9996V40.5996L38.9995 40.8996V41.0996C39.0995 41.8996 39.5995 42.5996 40.4995 42.9996L40.2995 43.9996C40.2995 44.0996 40.2995 44.2996 40.3995 44.3996C40.4995 44.4996 40.5995 44.5996 40.6995 44.5996H40.7995C40.9995 44.5996 41.1995 44.3996 41.2995 44.1996L41.4995 43.1996C41.5995 43.1996 41.6995 43.1996 41.7995 43.1996C42.7995 43.1996 43.5995 42.5996 43.6995 41.6996C43.8995 40.6996 42.8995 40.0996 42.1995 39.5996ZM41.2995 39.0996C40.9995 38.7996 40.8995 38.5996 40.8995 38.2996C40.9995 37.9996 41.0995 37.7996 41.3995 37.6996H41.5995L41.2995 39.0996ZM41.6995 42.2996C41.5995 42.2996 41.5995 42.2996 41.6995 42.2996L41.8995 40.9996C41.8995 40.8996 42.6995 41.2996 42.5995 41.6996C42.4995 42.0996 42.1995 42.2996 41.6995 42.2996Z" fill="#0D67F9"/>
<path d="M26.7996 51.6998C30.4999 51.6998 33.4996 48.7001 33.4996 44.9998C33.4996 41.2995 30.4999 38.2998 26.7996 38.2998C23.0993 38.2998 20.0996 41.2995 20.0996 44.9998C20.0996 48.7001 23.0993 51.6998 26.7996 51.6998Z" stroke="#0D67F9" stroke-width="1.8" stroke-miterlimit="10" stroke-linecap="round" stroke-linejoin="round"/>
<path d="M27.0996 44.3999L26.6996 42.6999C27.1996 42.6999 27.4996 42.9999 27.5996 43.2999L27.7996 43.5999L28.5996 42.8999L28.3996 42.6999C27.8996 42.0999 27.1996 41.6999 26.3996 41.7999L26.0996 40.7999C26.0996 40.6999 25.9996 40.5999 25.8996 40.4999C25.7996 40.3999 25.6996 40.3999 25.4996 40.3999H25.3996C25.1996 40.4999 25.0996 40.6999 25.0996 40.9999L25.3996 41.9999L25.0996 42.1999C24.3996 42.6999 24.0996 43.3999 24.2996 44.1999C24.5996 45.3999 26.2996 45.5999 26.3996 45.8999L26.7996 47.3999C26.2996 47.3999 25.9996 47.0999 25.7996 46.7999L25.5996 46.4999L24.7996 46.9999L24.8996 47.1999C25.2996 47.8999 26.0996 48.2999 26.9996 48.2999L27.2996 49.2999C27.2996 49.3999 27.3996 49.4999 27.4996 49.5999C27.5996 49.6999 27.6996 49.6999 27.8996 49.6999H27.9996C28.1996 49.5999 28.2996 49.3999 28.2996 49.0999L28.0996 48.0999C28.1996 48.0999 28.2996 47.9999 28.3996 47.9999C29.2996 47.5999 29.6996 46.6999 29.4996 45.7999C29.0996 44.5999 27.9996 44.4999 27.0996 44.3999ZM26.0996 44.2999C25.6996 44.1999 25.4996 44.0999 25.3996 43.7999C25.2996 43.4999 25.3996 43.2999 25.5996 42.9999L25.6996 42.8999L26.0996 44.2999ZM27.7996 47.0999L27.3996 45.7999C27.3996 45.6999 28.1996 45.6999 28.2996 46.0999C28.4996 46.4999 28.2996 46.7999 27.7996 47.0999Z" fill="#0D67F9"/>
<path d="M40.4998 62.3995C44.2001 62.3995 47.1998 59.3998 47.1998 55.6995C47.1998 51.9992 44.2001 48.9995 40.4998 48.9995C36.7995 48.9995 33.7998 51.9992 33.7998 55.6995C33.7998 59.3998 36.7995 62.3995 40.4998 62.3995Z" stroke="#0D67F9" stroke-width="1.8" stroke-miterlimit="10" stroke-linecap="round" stroke-linejoin="round"/>
<path d="M40.7998 55.0996L40.3998 53.3996C40.8998 53.3996 41.1998 53.6996 41.2998 53.9996L41.4998 54.2996L42.2998 53.5996L42.0998 53.3996C41.5998 52.7996 40.8998 52.3996 40.0998 52.4996L39.7998 51.4996C39.7998 51.3996 39.6998 51.2996 39.5998 51.1996C39.4998 51.0996 39.3998 51.0996 39.1998 51.0996H39.0998C38.8998 51.1996 38.7998 51.3996 38.7998 51.6996L39.0998 52.6996L38.7998 52.8996C38.0998 53.3996 37.7998 54.0996 37.9998 54.8996C38.2998 56.0996 39.9998 56.2996 40.0998 56.5996L40.4998 58.0996C39.9998 58.0996 39.6998 57.7996 39.4998 57.4996L39.2998 56.9996L38.4998 57.6996L38.5998 57.8996C38.9998 58.5996 39.7998 58.9996 40.6998 58.9996L40.9998 59.9996C40.9998 60.0996 41.0998 60.1996 41.1998 60.2996C41.2998 60.3996 41.3998 60.3996 41.5998 60.3996H41.6998C41.8998 60.2996 41.9998 60.0996 41.9998 59.7996L41.7998 58.7996C41.8998 58.7996 41.9998 58.6996 42.0998 58.6996C42.9998 58.2996 43.3998 57.3996 43.1998 56.4996C42.7998 55.2996 41.6998 55.1996 40.7998 55.0996ZM39.7998 54.9996C39.3998 54.8996 39.1998 54.7996 39.0998 54.4996C38.9998 54.1996 39.0998 53.9996 39.2998 53.6996L39.3998 53.5996L39.7998 54.9996ZM41.4998 57.6996C41.4998 57.6996 41.4998 57.7996 41.4998 57.6996L41.0998 56.3996C41.0998 56.2996 41.8998 56.2996 41.9998 56.6996C42.1998 57.1996 41.9998 57.4996 41.4998 57.6996Z" fill="#0D67F9"/>
<path d="M20.9995 61.8995L27.3995 55.4995" stroke="#0D67F9" stroke-width="2.1693" stroke-miterlimit="10" stroke-linecap="round" stroke-linejoin="round"/>
<path d="M24.2998 65.8998L26.8998 63.2998" stroke="#0D67F9" stroke-width="2.1693" stroke-miterlimit="10" stroke-linecap="round" stroke-linejoin="round"/>
<path d="M28.7998 61.0994L32.0998 57.8994" stroke="#0D67F9" stroke-width="2.1693" stroke-miterlimit="10" stroke-linecap="round" stroke-linejoin="round"/>
<path d="M32.2998 65.2997L34.5998 63.1997" stroke="#0D67F9" stroke-width="2.1693" stroke-miterlimit="10" stroke-linecap="round" stroke-linejoin="round"/>
<path d="M19.0996 54.5995L21.3996 52.4995" stroke="#0D67F9" stroke-width="2.1693" stroke-miterlimit="10" stroke-linecap="round" stroke-linejoin="round"/>
</svg>
