<svg width="88" height="88" viewBox="0 0 88 88" fill="none" xmlns="http://www.w3.org/2000/svg">
<g filter="url(#filter0_d)">
<path d="M65.2007 15.4069L72.5591 14.9888L72.0574 7.63037" stroke="#0D67F9" stroke-opacity="0.5" stroke-width="2.5" stroke-miterlimit="10" stroke-linecap="round" stroke-linejoin="round"/>
<path d="M21.6362 64.4072L14.2778 64.6581L14.5287 72.0165" stroke="#0D67F9" stroke-opacity="0.5" stroke-width="2.5" stroke-miterlimit="10" stroke-linecap="round" stroke-linejoin="round"/>
<path d="M80.5877 50.3592H64.2821L45.0499 28.7021C44.2973 27.8659 43.2103 27.615 42.2069 28.0331L32.5908 31.9632C32.5908 31.9632 29.9986 32.7158 28.8279 30.7925C27.6573 28.8693 28.6607 27.1969 31.4201 25.5246C33.5106 24.2703 40.6181 20.7583 43.9628 19.086C45.1335 18.5006 46.4714 18.5006 47.5584 19.086L59.5159 25.0229C60.2684 25.3573 61.021 25.6082 61.8572 25.6082H78.7481C78.9153 25.6082 79.0825 25.6918 79.1661 25.8591C79.3334 26.2771 79.5006 26.6952 79.6679 27.1133C82.5109 34.8898 82.6781 43.0008 80.5877 50.3592Z" stroke="#0D67F9" stroke-width="2.5" stroke-miterlimit="10" stroke-linecap="round"/>
<path d="M31.0857 25.4409H8.50879" stroke="#0D67F9" stroke-width="2.5" stroke-miterlimit="10" stroke-linecap="round"/>
<path d="M18.3755 49.5229H6.66895" stroke="#0D67F9" stroke-width="2.5" stroke-miterlimit="10" stroke-linecap="round"/>
<path d="M64.2824 50.3594L66.2892 52.5334C67.5435 53.8713 67.209 56.0454 65.6203 56.9652C60.7704 59.8919 51.4052 65.0762 46.3881 64.9926C46.3881 64.9926 42.9597 65.3271 40.1167 63.6547" stroke="#0D67F9" stroke-width="2.5" stroke-miterlimit="10" stroke-linecap="round"/>
<path d="M39.9489 63.5709C41.1196 62.0658 40.8687 59.8917 39.4472 58.721L24.9812 46.8472C23.4761 45.593 21.2184 45.8438 19.9642 47.4326L19.2116 48.436C18.0409 50.0247 18.3754 52.1988 19.9642 53.3695L35.1827 64.1562C36.6878 65.3269 38.7783 64.9924 39.9489 63.5709Z" stroke="#0D67F9" stroke-width="2.5" stroke-miterlimit="10" stroke-linecap="round"/>
<path d="M6.66863 49.523C4.57818 41.2448 5.33074 32.883 8.50824 25.4409C12.5219 15.9921 20.2148 8.13196 30.5835 4.36914C45.802 -1.23329 62.1912 3.44933 72.309 14.8214" stroke="#0D67F9" stroke-opacity="0.5" stroke-width="2.5" stroke-miterlimit="10" stroke-linecap="round" stroke-linejoin="round"/>
<path d="M79.0821 25.6079C79.2494 26.1096 79.5002 26.6113 79.6675 27.113C82.5105 34.8895 82.6777 43.0005 80.5873 50.3589C77.4098 61.8983 68.8807 71.7652 56.8397 76.197C41.3703 81.883 24.6466 76.8659 14.5288 64.9921" stroke="#0D67F9" stroke-opacity="0.5" stroke-width="2.5" stroke-miterlimit="10" stroke-linecap="round" stroke-linejoin="round"/>
</g>
<defs>
<filter id="filter0_d" x="0.244141" y="0.751465" width="87.0064" height="87.0392" filterUnits="userSpaceOnUse" color-interpolation-filters="sRGB">
<feFlood flood-opacity="0" result="BackgroundImageFix"/>
<feColorMatrix in="SourceAlpha" type="matrix" values="0 0 0 0 0 0 0 0 0 0 0 0 0 0 0 0 0 0 127 0"/>
<feOffset dy="4"/>
<feGaussianBlur stdDeviation="2"/>
<feColorMatrix type="matrix" values="0 0 0 0 0.533333 0 0 0 0 0.843137 0 0 0 0 1 0 0 0 0.37 0"/>
<feBlend mode="normal" in2="BackgroundImageFix" result="effect1_dropShadow"/>
<feBlend mode="normal" in="SourceGraphic" in2="effect1_dropShadow" result="shape"/>
</filter>
</defs>
</svg>
