<svg width="160" height="160" viewBox="0 0 160 160" fill="none" xmlns="http://www.w3.org/2000/svg">
<g filter="url(#filter0_d)">
<circle cx="80.0007" cy="80" r="45.6316" fill="white"/>
</g>
<path d="M48.968 93.4329C44.0334 81.1396 46.6305 66.5088 56.5864 56.6396C66.6288 46.7703 81.2596 44.4328 93.4664 49.6272" stroke="#0D67F9" stroke-opacity="0.5" stroke-width="2.5" stroke-miterlimit="10" stroke-linecap="round" stroke-linejoin="round"/>
<path d="M111.733 68.1538C116.667 80.4471 114.07 95.0779 104.114 104.947C94.0719 114.816 79.4411 117.154 67.2344 112.046" stroke="#0D67F9" stroke-opacity="0.5" stroke-width="2.5" stroke-miterlimit="10" stroke-linecap="round" stroke-linejoin="round"/>
<path d="M88.3594 52.7438L94.1597 49.7138L91.0431 44" stroke="#0D67F9" stroke-opacity="0.5" stroke-width="2.5" stroke-miterlimit="10" stroke-linecap="round" stroke-linejoin="round"/>
<path d="M71.4768 108.756L65.5898 111.613L68.5333 117.5" stroke="#0D67F9" stroke-opacity="0.5" stroke-width="2.5" stroke-miterlimit="10" stroke-linecap="round" stroke-linejoin="round"/>
<path d="M90.7814 85.6417C90.7814 85.6417 86.7125 78.5427 93.292 70.9243L96.9281 74.9932L98.6595 61.5745L84.8945 62.0939L88.7037 66.1628C88.7037 66.1628 79.9598 71.79 73.9863 67.7211" stroke="#0D67F9" stroke-width="2.5" stroke-miterlimit="10" stroke-linecap="round" stroke-linejoin="round"/>
<path d="M81.4312 83.3041C84.6347 83.3041 87.2316 80.7072 87.2316 77.5037C87.2316 74.3003 84.6347 71.7034 81.4312 71.7034C78.2278 71.7034 75.6309 74.3003 75.6309 77.5037C75.6309 80.7072 78.2278 83.3041 81.4312 83.3041Z" stroke="#0D67F9" stroke-width="1.8" stroke-miterlimit="10" stroke-linecap="round" stroke-linejoin="round"/>
<path d="M81.95 77.1575L82.2963 75.6858C82.6426 75.8589 82.8157 76.2052 82.8157 76.4649L82.9023 76.7246L83.768 76.4649L83.6815 76.2052C83.5083 75.5126 83.0755 74.9932 82.4694 74.7335L82.6426 73.7812C82.6426 73.6946 82.6426 73.5214 82.556 73.4349C82.4694 73.3483 82.3829 73.2617 82.2963 73.2617H82.2097C82.0366 73.2617 81.8634 73.4349 81.7769 73.608L81.6037 74.4737H81.2574C80.5649 74.5603 80.0454 75.0797 79.9588 75.7723C79.7857 76.8112 80.9977 77.6769 80.9111 77.8501L80.6514 79.2352C80.3051 79.0621 80.132 78.7158 80.0454 78.3695V78.0232L79.1797 78.2829V78.4561C79.2663 79.1487 79.6991 79.7547 80.4783 80.101L80.3051 80.9667C80.3051 81.0533 80.3051 81.2264 80.3917 81.313C80.4783 81.3996 80.5649 81.4861 80.6514 81.4861H80.738C80.9111 81.4861 81.0843 81.313 81.1709 81.1398L81.344 80.2741C81.4306 80.2741 81.5171 80.2741 81.6037 80.2741C82.4694 80.2741 83.162 79.7547 83.2486 78.9755C83.4217 78.1098 82.556 77.5904 81.95 77.1575ZM81.1709 76.7246C80.9111 76.4649 80.8246 76.2918 80.8246 76.032C80.9111 75.7723 80.9977 75.5992 81.2574 75.5126H81.4306L81.1709 76.7246ZM81.5171 79.495C81.4306 79.495 81.4306 79.495 81.5171 79.495L81.6903 78.3695C81.6903 78.2829 82.3829 78.6292 82.2963 78.9755C82.2097 79.3218 81.95 79.495 81.5171 79.495Z" fill="#0D67F9"/>
<path d="M68.6187 87.6327C71.8222 87.6327 74.4191 85.0358 74.4191 81.8324C74.4191 78.6289 71.8222 76.032 68.6187 76.032C65.4153 76.032 62.8184 78.6289 62.8184 81.8324C62.8184 85.0358 65.4153 87.6327 68.6187 87.6327Z" stroke="#0D67F9" stroke-width="1.8" stroke-miterlimit="10" stroke-linecap="round" stroke-linejoin="round"/>
<path d="M68.879 81.313L68.5327 79.8413C68.9656 79.8413 69.2253 80.101 69.3119 80.3607L69.485 80.6204L70.1776 80.0144L70.0045 79.8413C69.5716 79.3218 68.9656 78.9755 68.273 79.0621L68.0133 78.1964C68.0133 78.1098 67.9267 78.0232 67.8402 77.9367C67.7536 77.8501 67.667 77.8501 67.4939 77.8501H67.4073C67.2342 77.9367 67.1476 78.1098 67.1476 78.3695L67.4073 79.2353L67.1476 79.4084C66.5416 79.8413 66.2819 80.4473 66.455 81.1399C66.7147 82.1787 68.1865 82.3519 68.273 82.6116L68.6193 83.9102C68.1865 83.9102 67.9267 83.6505 67.7536 83.3907L67.5804 83.131L66.8879 83.5639L66.9744 83.737C67.3207 84.343 68.0133 84.6893 68.7925 84.6893L69.0522 85.5551C69.0522 85.6416 69.1388 85.7282 69.2253 85.8148C69.3119 85.9014 69.3985 85.9014 69.5716 85.9014H69.6582C69.8313 85.8148 69.9179 85.6416 69.9179 85.3819L69.7448 84.5162C69.8313 84.5162 69.9179 84.4296 70.0045 84.4296C70.7836 84.0833 71.1299 83.3042 70.9568 82.525C70.6105 81.4861 69.6582 81.3996 68.879 81.313ZM68.0133 81.2264C67.667 81.1399 67.4939 81.0533 67.4073 80.7936C67.3207 80.5338 67.4073 80.3607 67.5804 80.101L67.667 80.0144L68.0133 81.2264ZM69.485 83.6505L69.1388 82.525C69.1388 82.4384 69.8313 82.4384 69.9179 82.7847C70.0911 83.131 69.9179 83.3907 69.485 83.6505Z" fill="#0D67F9"/>
<path d="M80.4801 96.8959C83.6835 96.8959 86.2804 94.299 86.2804 91.0955C86.2804 87.8921 83.6835 85.2952 80.4801 85.2952C77.2766 85.2952 74.6797 87.8921 74.6797 91.0955C74.6797 94.299 77.2766 96.8959 80.4801 96.8959Z" stroke="#0D67F9" stroke-width="1.8" stroke-miterlimit="10" stroke-linecap="round" stroke-linejoin="round"/>
<path d="M80.7404 90.5762L80.3941 89.1045C80.8269 89.1045 81.0867 89.3642 81.1732 89.6239L81.3464 89.8836L82.039 89.2776L81.8658 89.1045C81.4329 88.585 80.8269 88.2387 80.1344 88.3253L79.8746 87.4596C79.8746 87.373 79.7881 87.2864 79.7015 87.1999C79.6149 87.1133 79.5283 87.1133 79.3552 87.1133H79.2686C79.0955 87.1999 79.0089 87.373 79.0089 87.6327L79.2686 88.4984L79.0089 88.6716C78.4029 89.1045 78.1432 89.7105 78.3163 90.403C78.576 91.4419 80.0478 91.6151 80.1344 91.8748L80.4806 93.1734C80.0478 93.1734 79.7881 92.9137 79.6149 92.6539L79.4418 92.2211L78.7492 92.8271L78.8358 93.0002C79.1821 93.6062 79.8746 93.9525 80.6538 93.9525L80.9135 94.8182C80.9135 94.9048 81.0001 94.9914 81.0867 95.078C81.1732 95.1645 81.2598 95.1645 81.4329 95.1645H81.5195C81.6927 95.078 81.7792 94.9048 81.7792 94.6451L81.6061 93.7794C81.6927 93.7794 81.7792 93.6928 81.8658 93.6928C82.645 93.3465 82.9913 92.5674 82.8181 91.7882C82.4718 90.7493 81.5195 90.6628 80.7404 90.5762ZM79.8746 90.4896C79.5283 90.403 79.3552 90.3165 79.2686 90.0568C79.1821 89.797 79.2686 89.6239 79.4418 89.3642L79.5283 89.2776L79.8746 90.4896ZM81.3464 92.8271C81.3464 92.8271 81.3464 92.9137 81.3464 92.8271L81.0001 91.7016C81.0001 91.6151 81.6927 91.6151 81.7792 91.9614C81.9524 92.3942 81.7792 92.6539 81.3464 92.8271Z" fill="#0D67F9"/>
<path d="M63.5996 96.4633L69.1403 90.9226" stroke="#0D67F9" stroke-width="2.1693" stroke-miterlimit="10" stroke-linecap="round" stroke-linejoin="round"/>
<path d="M66.4551 99.9262L68.706 97.6753" stroke="#0D67F9" stroke-width="2.1693" stroke-miterlimit="10" stroke-linecap="round" stroke-linejoin="round"/>
<path d="M70.3516 95.7708L73.2085 93.0005" stroke="#0D67F9" stroke-width="2.1693" stroke-miterlimit="10" stroke-linecap="round" stroke-linejoin="round"/>
<path d="M73.3809 99.4069L75.372 97.5889" stroke="#0D67F9" stroke-width="2.1693" stroke-miterlimit="10" stroke-linecap="round" stroke-linejoin="round"/>
<path d="M61.9531 90.1435L63.9443 88.3254" stroke="#0D67F9" stroke-width="2.1693" stroke-miterlimit="10" stroke-linecap="round" stroke-linejoin="round"/>
<circle cx="80.0004" cy="79.9999" r="52.2895" stroke="#0D67F9" stroke-opacity="0.19"/>
<circle cx="80" cy="80" r="67.5" stroke="#0D67F9" stroke-opacity="0.1"/>
<defs>
<filter id="filter0_d" x="0.369141" y="0.368408" width="159.263" height="159.263" filterUnits="userSpaceOnUse" color-interpolation-filters="sRGB">
<feFlood flood-opacity="0" result="BackgroundImageFix"/>
<feColorMatrix in="SourceAlpha" type="matrix" values="0 0 0 0 0 0 0 0 0 0 0 0 0 0 0 0 0 0 127 0"/>
<feOffset/>
<feGaussianBlur stdDeviation="17"/>
<feColorMatrix type="matrix" values="0 0 0 0 0.0509804 0 0 0 0 0.403922 0 0 0 0 0.976471 0 0 0 0.1 0"/>
<feBlend mode="normal" in2="BackgroundImageFix" result="effect1_dropShadow"/>
<feBlend mode="normal" in="SourceGraphic" in2="effect1_dropShadow" result="shape"/>
</filter>
</defs>
</svg>
