<svg width="80" height="80" viewBox="0 0 80 80" fill="none" xmlns="http://www.w3.org/2000/svg">
<path d="M71.3406 19.1648C75.5027 25.2414 78 32.65 78 40.6412C78 61.6182 60.9354 78.5996 39.9584 78.5996C18.9814 78.5996 2 61.6182 2 40.6412C2 19.6642 18.9814 2.59961 39.9584 2.59961" stroke="#0D67F9" stroke-opacity="0.5" stroke-width="2.5" stroke-miterlimit="10" stroke-linecap="round"/>
<path d="M65.5972 40.6411C65.5972 54.7923 54.1098 66.1964 40.0419 66.1964C25.974 66.1964 14.4033 54.709 14.4033 40.6411" stroke="#0D67F9" stroke-width="2.5" stroke-miterlimit="10" stroke-linecap="round"/>
<path d="M52.9444 40.6411C52.9444 54.7923 47.1175 66.1964 39.9587 66.1964C32.7999 66.1964 27.0562 54.709 27.0562 40.6411" stroke="#0D67F9" stroke-width="2.5" stroke-miterlimit="10" stroke-linecap="round"/>
<path d="M59.6874 56.4572C55.0259 53.5437 47.8671 51.7124 39.9591 51.7124C31.9678 51.7124 24.8923 53.5437 20.1475 56.4572" stroke="#0D67F9" stroke-width="2.5" stroke-miterlimit="10" stroke-linecap="round"/>
<path d="M14.4033 40.6409H65.5972V12.4219" stroke="#0D67F9" stroke-width="2.5" stroke-miterlimit="10" stroke-linecap="round"/>
<path d="M39.959 25.8242V66.1966" stroke="#0D67F9" stroke-width="2.5" stroke-miterlimit="10" stroke-linecap="round"/>
<path d="M52.9443 40.641V17.4165" stroke="#0D67F9" stroke-width="2.5" stroke-miterlimit="10" stroke-linecap="round"/>
<path d="M27.0562 40.6409V32.8994" stroke="#0D67F9" stroke-width="2.5" stroke-miterlimit="10" stroke-linecap="round"/>
<path d="M10.1582 28.4047L21.3126 36.063L32.1341 14.5865L43.3718 21.4124L54.1933 3.09912" stroke="#0D67F9" stroke-width="2.5" stroke-miterlimit="10" stroke-linecap="round"/>
<path d="M56.5238 9.17567L54.6093 2.1001L47.5337 4.01467" stroke="#0D67F9" stroke-width="2.5" stroke-miterlimit="10" stroke-linecap="round" stroke-linejoin="round"/>
</svg>
