<svg width="160" height="160" viewBox="0 0 160 160" fill="none" xmlns="http://www.w3.org/2000/svg">
<g filter="url(#filter0_d)">
<circle cx="80.0007" cy="80" r="45.6316" fill="white"/>
</g>
<path d="M108.042 61.3578C111.766 66.7949 114 73.4236 114 80.5736C114 99.3425 98.7317 114.536 79.9628 114.536C61.1939 114.536 46 99.3425 46 80.5736C46 61.8047 61.1939 46.5364 79.9628 46.5364" stroke="#0D67F9" stroke-opacity="0.5" stroke-width="2.5" stroke-miterlimit="10" stroke-linecap="round"/>
<path d="M102.903 80.5737C102.903 93.2353 92.6245 103.439 80.0374 103.439C67.4503 103.439 57.0977 93.1608 57.0977 80.5737" stroke="#0D67F9" stroke-width="2.5" stroke-miterlimit="10" stroke-linecap="round"/>
<path d="M91.5831 80.5737C91.5831 93.2353 86.3695 103.439 79.9643 103.439C73.559 103.439 68.4199 93.1608 68.4199 80.5737" stroke="#0D67F9" stroke-width="2.5" stroke-miterlimit="10" stroke-linecap="round"/>
<path d="M97.6142 94.7248C93.4433 92.118 87.0381 90.4795 79.9625 90.4795C72.8125 90.4795 66.4817 92.118 62.2363 94.7248" stroke="#0D67F9" stroke-width="2.5" stroke-miterlimit="10" stroke-linecap="round"/>
<path d="M57.0977 80.5736H102.903V55.325" stroke="#0D67F9" stroke-width="2.5" stroke-miterlimit="10" stroke-linecap="round"/>
<path d="M79.9629 67.3162V103.439" stroke="#0D67F9" stroke-width="2.5" stroke-miterlimit="10" stroke-linecap="round"/>
<path d="M91.582 80.5738V59.7939" stroke="#0D67F9" stroke-width="2.5" stroke-miterlimit="10" stroke-linecap="round"/>
<path d="M68.4199 80.5736V73.647" stroke="#0D67F9" stroke-width="2.5" stroke-miterlimit="10" stroke-linecap="round"/>
<path d="M53.2988 69.6252L63.2791 76.4774L72.9615 57.2616L83.0162 63.3689L92.6986 46.9834" stroke="#0D67F9" stroke-width="2.5" stroke-miterlimit="10" stroke-linecap="round"/>
<path d="M94.784 52.4204L93.071 46.0896L86.7402 47.8026" stroke="#0D67F9" stroke-width="2.5" stroke-miterlimit="10" stroke-linecap="round" stroke-linejoin="round"/>
<circle cx="80.0004" cy="79.9999" r="52.2895" stroke="#0D67F9" stroke-opacity="0.19"/>
<circle cx="80" cy="80" r="67.5" stroke="#0D67F9" stroke-opacity="0.1"/>
<defs>
<filter id="filter0_d" x="0.369141" y="0.368408" width="159.263" height="159.263" filterUnits="userSpaceOnUse" color-interpolation-filters="sRGB">
<feFlood flood-opacity="0" result="BackgroundImageFix"/>
<feColorMatrix in="SourceAlpha" type="matrix" values="0 0 0 0 0 0 0 0 0 0 0 0 0 0 0 0 0 0 127 0"/>
<feOffset/>
<feGaussianBlur stdDeviation="17"/>
<feColorMatrix type="matrix" values="0 0 0 0 0.0509804 0 0 0 0 0.403922 0 0 0 0 0.976471 0 0 0 0.1 0"/>
<feBlend mode="normal" in2="BackgroundImageFix" result="effect1_dropShadow"/>
<feBlend mode="normal" in="SourceGraphic" in2="effect1_dropShadow" result="shape"/>
</filter>
</defs>
</svg>
