<svg width="124" height="116" viewBox="0 0 124 116" fill="none" xmlns="http://www.w3.org/2000/svg">
<path d="M62.12 95.0327C82.7813 95.0327 99.5306 78.2834 99.5306 57.622C99.5306 36.9607 82.7813 20.2114 62.12 20.2114C41.4587 20.2114 24.7094 36.9607 24.7094 57.622C24.7094 78.2834 41.4587 95.0327 62.12 95.0327Z" stroke="#0D67F9" stroke-opacity="0.5" stroke-width="3" stroke-miterlimit="10" stroke-linecap="round"/>
<path d="M62.12 8.73682C89.1321 8.73682 111.005 30.6095 111.005 57.6216V108.419" stroke="#0D67F9" stroke-width="3" stroke-miterlimit="10" stroke-linecap="round"/>
<path d="M62.1198 106.387C35.1077 106.387 13.235 84.5145 13.235 57.5024V5.74902" stroke="#0D67F9" stroke-width="3" stroke-miterlimit="10" stroke-linecap="round"/>
<path d="M76.4631 67.064C76.4631 73.9963 71.0845 78.5382 62.8375 78.5382C55.4271 78.5382 49.8095 74.833 47.7776 68.7373L47.6581 68.1397L51.4828 65.9883L51.7219 66.825C53.0366 71.4863 57.1004 74.2354 62.8375 74.2354C68.455 74.2354 72.0407 71.4863 72.0407 67.064C72.0407 62.7612 67.8574 61.0879 62.3594 59.295H62.2399C55.6661 57.1436 49.4509 55.1117 49.4509 47.8208C49.4509 42.9204 52.1999 39.0957 56.7418 37.4224V42.3228C54.949 43.518 53.9928 45.4304 53.9928 47.7013C53.9928 51.8846 57.4589 53.1994 63.0765 54.9922C69.6503 57.2631 76.4631 59.5341 76.4631 67.064Z" fill="#0D67F9"/>
<path d="M62.0005 40.8888V36.5859C67.9766 36.5859 72.9966 39.8131 75.2675 45.3111L75.5066 45.9087L71.8014 48.0601L71.4428 47.343C70.2476 44.3549 67.6181 40.8888 62.0005 40.8888Z" fill="#0D67F9"/>
<path d="M122.121 101.965L110.886 113.2L99.6506 101.965" stroke="#0D67F9" stroke-width="3" stroke-miterlimit="10" stroke-linecap="round"/>
<path d="M24.4703 14.2351L13.2352 3L2.00006 14.2351" stroke="#0D67F9" stroke-width="3" stroke-miterlimit="10" stroke-linecap="round"/>
<path d="M61.8811 63.7178V86.5466" stroke="#0D67F9" stroke-width="3" stroke-miterlimit="10" stroke-linecap="round"/>
<path d="M61.8811 28.5781V57.1441" stroke="#0D67F9" stroke-width="3" stroke-miterlimit="10" stroke-linecap="round"/>
</svg>
