<?xml version="1.0" encoding="utf-8"?>
<!-- Generator: Adobe Illustrator 16.0.0, SVG Export Plug-In . SVG Version: 6.00 Build 0)  -->
<!DOCTYPE svg PUBLIC "-//W3C//DTD SVG 1.1//EN" "http://www.w3.org/Graphics/SVG/1.1/DTD/svg11.dtd">
<svg version="1.1" id="Layer_1" xmlns="http://www.w3.org/2000/svg" xmlns:xlink="http://www.w3.org/1999/xlink" x="0px" y="0px"
	 width="127px" height="112px" viewBox="0 0 127 112" enable-background="new 0 0 127 112" xml:space="preserve">
<path opacity="0.5" fill="none" stroke="#FFFFFF" stroke-width="3" stroke-linecap="round" stroke-miterlimit="10" enable-background="new    " d="
	M20,62h-5v25h5V62z"/>
<path opacity="0.5" fill="none" stroke="#FFFFFF" stroke-width="3" stroke-linecap="round" stroke-miterlimit="10" enable-background="new    " d="
	M39,52h-6v35h6V52z"/>
<path opacity="0.5" fill="none" stroke="#FFFFFF" stroke-width="3" stroke-linecap="round" stroke-miterlimit="10" enable-background="new    " d="
	M56,42h-6v45h6V42z"/>
<path fill="none" stroke="#FFFFFF" stroke-width="3" stroke-miterlimit="10" d="M6.7,53.176l11.5-10.7l5.3,5.2l16.6-16.2l5.5,5.6
	l17.5-16.7"/>
<path fill="none" stroke="#FFFFFF" stroke-width="3" stroke-miterlimit="10" d="M62.2,32.976l2.2-14.1l-13.7,2.1"/>
<path fill="none" stroke="#FFFFFF" stroke-width="3" stroke-linecap="round" stroke-miterlimit="10" stroke-opacity="0.5" d="
	M70.4,86.775H4.8c-1.5,0-2.8-1.299-2.8-2.799V5.076c0-1.5,1.3-2.8,2.8-2.8h87c1.5,0,2.8,1.3,2.8,2.8v54.401"/>
<path fill="none" stroke="#FFFFFF" stroke-width="3" stroke-miterlimit="10" d="M101.4,77.976c0,9.3-7.6,16.9-16.9,16.9
	c-9.3,0-16.9-7.601-16.9-16.9c0-17.2,16.9-30.8,16.9-30.8S101.4,63.275,101.4,77.976z"/>
<path opacity="0.5" fill="none" stroke="#FFFFFF" stroke-width="3" stroke-linecap="round" stroke-miterlimit="10" enable-background="new    " d="
	M84.9,88.176c-4.5,0-8.4-2.8-10.1-6.699"/>
<path fill="#FFFFFF" d="M85.9,79.376v0.3c0,0.9-0.7,1.6-1.6,1.6c-0.9,0-1.601-0.699-1.601-1.6v-0.2c-0.7-0.1-1.399-0.399-2.2-0.899
	c-0.699-0.5-0.9-1.5-0.5-2.2c0.5-0.7,1.5-0.9,2.2-0.5c0.8,0.5,1,0.5,2.101,0.5c1,0,1.399-0.8,1.5-1.3c0.1-0.4,0-1-0.801-1.301
	c-1.3-0.5-2.699-1-3.6-1.699c-2.2-1.7-1.5-5.601,1.3-6.601v-0.2c0-0.899,0.7-1.6,1.601-1.6c0.899,0,1.6,0.7,1.6,1.6v0.101
	c0.8,0.2,1.4,0.6,1.8,1.1c0.601,0.601,0.601,1.601,0,2.2s-1.601,0.6-2.2,0c-0.1-0.1-0.6-0.5-1.6-0.2c-0.4,0.101-0.5,0.601-0.6,0.7
	c-0.101,0.3,0,0.5,0.1,0.5c0.6,0.5,1.699,0.9,2.699,1.2C90.2,72.376,89.7,77.976,85.9,79.376z"/>
<path fill="none" stroke="#FFFFFF" stroke-width="3" stroke-linecap="round" stroke-miterlimit="10" d="M113.8,52.376H102.9v-20.2
	c0-3,2.5-5.5,5.5-5.5h8.5c3,0,5.5,2.5,5.5,5.5v5.7H118.6c-2.5,0-4.6,2-4.699,4.6C113.7,46.876,113.8,52.376,113.8,52.376z"/>
<path fill="none" stroke="#FFFFFF" stroke-width="3" stroke-linecap="round" stroke-miterlimit="10" d="M114.2,26.176v-10.8
	c0-1.2,0.6-2.2,1.5-2.9l7.8-5.2c1.2-0.8,1.6-2.5,0.9-3.8c-0.801-1.5-2.801-1.9-4.2-1l-9,6.2c-2.4,1.6-3.8,4.3-3.8,7.2v10.2"/>
<path fill="none" stroke="#FFFFFF" stroke-width="3" stroke-linecap="round" stroke-miterlimit="10" d="M107.9,52.376v51.3
	c0,3.5-2.801,6.301-6.301,6.301s-6.299-2.801-6.299-6.301v-12.3"/>
</svg>
