<svg width="103" height="95" viewBox="0 0 103 95" fill="none" xmlns="http://www.w3.org/2000/svg">
<path d="M96.3487 77.667H6.30956C4.00087 77.667 2 75.6661 2 73.3574V6.40527C2 4.09657 4.00087 2.0957 6.30956 2.0957H96.3487C98.6574 2.0957 100.658 4.09657 100.658 6.40527V73.3574C100.658 75.8201 98.6574 77.667 96.3487 77.667Z" stroke="#0D67F9" stroke-width="3" stroke-miterlimit="10"/>
<path d="M35.2454 77.0513V92.9043" stroke="#0D67F9" stroke-width="3" stroke-miterlimit="10"/>
<path d="M67.2594 77.0513V92.9043" stroke="#0D67F9" stroke-width="3" stroke-miterlimit="10"/>
<path d="M76.186 92.7505H26.472" stroke="#0D67F9" stroke-width="3" stroke-miterlimit="10"/>
<path d="M26.626 56.5811H16.4677V67.0471H26.626V56.5811Z" stroke="#0D67F9" stroke-opacity="0.5" stroke-width="3" stroke-miterlimit="10"/>
<path d="M21.701 51.1938V29.646" stroke="#0D67F9" stroke-width="3" stroke-miterlimit="10"/>
<path d="M25.3947 37.3416L21.7007 29.646L18.0068 37.3416" stroke="#0D67F9" stroke-width="3" stroke-miterlimit="10"/>
<path d="M46.0192 45.6533H35.8609V67.0472H46.0192V45.6533Z" stroke="#0D67F9" stroke-opacity="0.5" stroke-width="3" stroke-miterlimit="10"/>
<path d="M41.2478 40.2662V23.6436" stroke="#0D67F9" stroke-width="3" stroke-miterlimit="10"/>
<path d="M44.9419 31.1854L41.248 23.4897L37.5541 31.1854" stroke="#0D67F9" stroke-width="3" stroke-miterlimit="10"/>
<path d="M86.3443 41.959H76.186V67.0468H86.3443V41.959Z" stroke="#0D67F9" stroke-opacity="0.5" stroke-width="3" stroke-miterlimit="10"/>
<path d="M81.4193 36.5724V24.875" stroke="#0D67F9" stroke-width="3" stroke-miterlimit="10"/>
<path d="M85.113 32.4168L81.4191 24.7212L77.7252 32.4168" stroke="#0D67F9" stroke-width="3" stroke-miterlimit="10"/>
<path d="M66.7974 29.8003H56.6392V67.0472H66.7974V29.8003Z" stroke="#0D67F9" stroke-opacity="0.5" stroke-width="3" stroke-miterlimit="10"/>
<path d="M61.872 24.4131V7.79053" stroke="#0D67F9" stroke-width="3" stroke-miterlimit="10"/>
<path d="M65.5661 15.3324L61.8722 7.63672L58.1783 15.3324" stroke="#0D67F9" stroke-width="3" stroke-miterlimit="10"/>
</svg>
