<svg width="127" height="112" viewBox="0 0 127 112" fill="none" xmlns="http://www.w3.org/2000/svg">
<path opacity="0.5" d="M20 62H15V87H20V62Z" stroke="#0D67F9" stroke-width="3" stroke-miterlimit="10" stroke-linecap="round"/>
<path opacity="0.5" d="M39 52H33V87H39V52Z" stroke="#0D67F9" stroke-width="3" stroke-miterlimit="10" stroke-linecap="round"/>
<path opacity="0.5" d="M56 42H50V87H56V42Z" stroke="#0D67F9" stroke-width="3" stroke-miterlimit="10" stroke-linecap="round"/>
<path d="M6.7002 53.176L18.2002 42.476L23.5002 47.676L40.1002 31.476L45.6002 37.076L63.1002 20.376" stroke="#0D67F9" stroke-width="3" stroke-miterlimit="10"/>
<path d="M62.2002 32.976L64.4002 18.876L50.7002 20.976" stroke="#0D67F9" stroke-width="3" stroke-miterlimit="10"/>
<path d="M70.4 86.7759H4.8C3.3 86.7759 2 85.4759 2 83.9759V5.07588C2 3.57588 3.3 2.27588 4.8 2.27588H91.8C93.3 2.27588 94.6 3.57588 94.6 5.07588V59.4759" stroke="#0D67F9" stroke-opacity="0.5" stroke-width="3" stroke-miterlimit="10" stroke-linecap="round"/>
<path d="M101.4 77.9758C101.4 87.2758 93.8001 94.8758 84.5001 94.8758C75.2001 94.8758 67.6001 87.2758 67.6001 77.9758C67.6001 60.7758 84.5001 47.1758 84.5001 47.1758C84.5001 47.1758 101.4 63.2758 101.4 77.9758Z" stroke="#0D67F9" stroke-width="3" stroke-miterlimit="10"/>
<path opacity="0.5" d="M84.9003 88.1761C80.4003 88.1761 76.5003 85.3761 74.8003 81.4761" stroke="#0D67F9" stroke-width="3" stroke-miterlimit="10" stroke-linecap="round"/>
<path d="M85.9002 79.3758V79.6758C85.9002 80.5758 85.2002 81.2758 84.3002 81.2758C83.4002 81.2758 82.7003 80.5758 82.7003 79.6758V79.4758C82.0003 79.3758 81.3003 79.0758 80.5003 78.5758C79.8003 78.0758 79.6003 77.0758 80.0003 76.3758C80.5003 75.6758 81.5003 75.4758 82.2003 75.8758C83.0003 76.3758 83.2002 76.3758 84.3002 76.3758C85.3002 76.3758 85.7002 75.5758 85.8002 75.0758C85.9002 74.6758 85.8003 74.0758 85.0003 73.7758C83.7003 73.2758 82.3002 72.7758 81.4002 72.0758C79.2002 70.3758 79.9003 66.4758 82.7003 65.4758V65.2758C82.7003 64.3758 83.4002 63.6758 84.3002 63.6758C85.2002 63.6758 85.9002 64.3758 85.9002 65.2758V65.3758C86.7002 65.5758 87.3003 65.9758 87.7003 66.4758C88.3003 67.0758 88.3003 68.0758 87.7003 68.6758C87.1003 69.2758 86.1003 69.2758 85.5003 68.6758C85.4003 68.5758 84.9002 68.1758 83.9002 68.4758C83.5002 68.5758 83.4002 69.0758 83.3002 69.1758C83.2002 69.4758 83.3002 69.6758 83.4002 69.6758C84.0002 70.1758 85.1003 70.5758 86.1003 70.8758C90.2003 72.3758 89.7002 77.9758 85.9002 79.3758Z" fill="#0D67F9"/>
<path d="M113.8 52.3758H102.9V32.1758C102.9 29.1758 105.4 26.6758 108.4 26.6758H116.9C119.9 26.6758 122.4 29.1758 122.4 32.1758V37.8758H118.6C116.1 37.8758 114 39.8758 113.9 42.4758C113.7 46.8758 113.8 52.3758 113.8 52.3758Z" stroke="#0D67F9" stroke-width="3" stroke-miterlimit="10" stroke-linecap="round"/>
<path d="M114.2 26.176V15.376C114.2 14.176 114.8 13.176 115.7 12.476L123.5 7.27595C124.7 6.47595 125.1 4.77595 124.4 3.47595C123.6 1.97595 121.6 1.57595 120.2 2.47595L111.2 8.67595C108.8 10.276 107.4 12.976 107.4 15.876V26.076" stroke="#0D67F9" stroke-width="3" stroke-miterlimit="10" stroke-linecap="round"/>
<path d="M107.9 52.376V103.676C107.9 107.176 105.1 109.976 101.6 109.976C98.1003 109.976 95.3003 107.176 95.3003 103.676V91.376" stroke="#0D67F9" stroke-width="3" stroke-miterlimit="10" stroke-linecap="round"/>
</svg>
