<?xml version="1.0" encoding="utf-8"?>
<!-- Generator: Adobe Illustrator 16.0.0, SVG Export Plug-In . SVG Version: 6.00 Build 0)  -->
<!DOCTYPE svg PUBLIC "-//W3C//DTD SVG 1.1//EN" "http://www.w3.org/Graphics/SVG/1.1/DTD/svg11.dtd">
<svg version="1.1" id="Layer_1" xmlns="http://www.w3.org/2000/svg" xmlns:xlink="http://www.w3.org/1999/xlink" x="0px" y="0px"
	 width="103px" height="95px" viewBox="0 0 103 95" enable-background="new 0 0 103 95" xml:space="preserve">
<path fill="none" stroke="#FFFFFF" stroke-width="3" stroke-miterlimit="10" d="M96.349,77.667H6.31c-2.309,0-4.31-2.001-4.31-4.31
	V6.405c0-2.309,2.001-4.31,4.31-4.31h90.039c2.309,0,4.31,2.001,4.31,4.31v66.952C100.658,75.82,98.657,77.667,96.349,77.667z"/>
<path fill="none" stroke="#FFFFFF" stroke-width="3" stroke-miterlimit="10" d="M35.246,77.051v15.854"/>
<path fill="none" stroke="#FFFFFF" stroke-width="3" stroke-miterlimit="10" d="M67.26,77.051v15.854"/>
<path fill="none" stroke="#FFFFFF" stroke-width="3" stroke-miterlimit="10" d="M76.186,92.75H26.472"/>
<path fill="none" stroke="#FFFFFF" stroke-width="3" stroke-miterlimit="10" stroke-opacity="0.5" d="M26.626,56.581H16.468v10.466
	h10.158V56.581z"/>
<path fill="none" stroke="#FFFFFF" stroke-width="3" stroke-miterlimit="10" d="M21.701,51.193V29.646"/>
<path fill="none" stroke="#FFFFFF" stroke-width="3" stroke-miterlimit="10" d="M25.395,37.342l-3.694-7.696l-3.694,7.696"/>
<path fill="none" stroke="#FFFFFF" stroke-width="3" stroke-miterlimit="10" stroke-opacity="0.5" d="M46.019,45.653H35.861v21.394
	h10.158V45.653z"/>
<path fill="none" stroke="#FFFFFF" stroke-width="3" stroke-miterlimit="10" d="M41.248,40.266V23.644"/>
<path fill="none" stroke="#FFFFFF" stroke-width="3" stroke-miterlimit="10" d="M44.942,31.186l-3.694-7.696l-3.694,7.696"/>
<path fill="none" stroke="#FFFFFF" stroke-width="3" stroke-miterlimit="10" stroke-opacity="0.5" d="M86.344,41.959H76.186v25.088
	h10.158V41.959z"/>
<path fill="none" stroke="#FFFFFF" stroke-width="3" stroke-miterlimit="10" d="M81.42,36.572V24.875"/>
<path fill="none" stroke="#FFFFFF" stroke-width="3" stroke-miterlimit="10" d="M85.113,32.417l-3.694-7.696l-3.694,7.696"/>
<path fill="none" stroke="#FFFFFF" stroke-width="3" stroke-miterlimit="10" stroke-opacity="0.5" d="M66.797,29.8H56.639v37.247
	h10.158V29.8z"/>
<path fill="none" stroke="#FFFFFF" stroke-width="3" stroke-miterlimit="10" d="M61.872,24.413V7.791"/>
<path fill="none" stroke="#FFFFFF" stroke-width="3" stroke-miterlimit="10" d="M65.566,15.333l-3.694-7.696l-3.694,7.696"/>
</svg>
