<?xml version="1.0" encoding="utf-8"?>
<!-- Generator: Adobe Illustrator 16.0.0, SVG Export Plug-In . SVG Version: 6.00 Build 0)  -->
<!DOCTYPE svg PUBLIC "-//W3C//DTD SVG 1.1//EN" "http://www.w3.org/Graphics/SVG/1.1/DTD/svg11.dtd">
<svg version="1.1" id="Layer_1" xmlns="http://www.w3.org/2000/svg" xmlns:xlink="http://www.w3.org/1999/xlink" x="0px" y="0px"
	 width="131px" height="129px" viewBox="0 0 131 129" enable-background="new 0 0 131 129" xml:space="preserve">
<path fill="none" stroke="#FFFFFF" stroke-width="3" stroke-miterlimit="10" d="M53.4,94.6H24.7c-4.2,4.201-6.5,6.5-10.7,10.7v21.4
	h50.1v-21.4C59.9,101.1,57.6,98.801,53.4,94.6z"/>
<path fill="none" stroke="#FFFFFF" stroke-width="3" stroke-miterlimit="10" d="M106.1,94.6H77.3c-4.2,4.201-6.5,6.5-10.7,10.7v21.4
	H116.7v-21.4C112.6,101.1,110.2,98.801,106.1,94.6z"/>
<path fill="none" stroke="#FFFFFF" stroke-width="3" stroke-miterlimit="10" d="M79.8,60.4H51c-4.2,4.2-6.5,6.5-10.7,10.7v21.4H90.4
	V71.1C86.3,66.9,83.9,64.6,79.8,60.4z"/>
<path opacity="0.5" fill="none" stroke="#FFFFFF" stroke-width="3" stroke-miterlimit="10" enable-background="new    " d="
	M93.9,100.7h9l6.899,6.3"/>
<path opacity="0.5" fill="none" stroke="#FFFFFF" stroke-width="3" stroke-miterlimit="10" enable-background="new    " d="
	M41.5,100.7h9l6.9,6.3"/>
<path opacity="0.5" fill="none" stroke="#FFFFFF" stroke-width="3" stroke-miterlimit="10" enable-background="new    " d="
	M68.1,66.5h9l6.9,6.4"/>
<path fill="none" stroke="#FFFFFF" stroke-width="3" stroke-miterlimit="10" d="M112.5,81.6l16.7-5.399"/>
<path fill="none" stroke="#FFFFFF" stroke-width="3" stroke-miterlimit="10" d="M105.4,67.8L119.6,57.4"/>
<path fill="none" stroke="#FFFFFF" stroke-width="3" stroke-miterlimit="10" d="M123.8,54.3l5.4-3.9"/>
<path fill="none" stroke="#FFFFFF" stroke-width="3" stroke-miterlimit="10" d="M94.3,56.8l10.3-14.2"/>
<path fill="none" stroke="#FFFFFF" stroke-width="3" stroke-miterlimit="10" d="M107.7,38.3l3.899-5.4"/>
<path fill="none" stroke="#FFFFFF" stroke-width="3" stroke-miterlimit="10" d="M114.7,28.6l2.7-3.8"/>
<path fill="none" stroke="#FFFFFF" stroke-width="3" stroke-miterlimit="10" d="M80.5,49.8l5.3-16.7"/>
<path fill="none" stroke="#FFFFFF" stroke-width="3" stroke-miterlimit="10" d="M87.4,28.1l2-6.3"/>
<path fill="none" stroke="#FFFFFF" stroke-width="3" stroke-miterlimit="10" d="M91.1,16.6l1.4-4.4"/>
<path fill="none" stroke="#FFFFFF" stroke-width="3" stroke-miterlimit="10" d="M65.1,47.5L65,29.9"/>
<path fill="none" stroke="#FFFFFF" stroke-width="3" stroke-miterlimit="10" d="M64.9,24.6V18"/>
<path fill="none" stroke="#FFFFFF" stroke-width="3" stroke-miterlimit="10" d="M64.9,12.6L64.8,8"/>
<path fill="none" stroke="#FFFFFF" stroke-width="3" stroke-miterlimit="10" d="M64.8,2.6V0"/>
<path fill="none" stroke="#FFFFFF" stroke-width="3" stroke-miterlimit="10" d="M49.7,50l-5.5-16.7"/>
<path fill="none" stroke="#FFFFFF" stroke-width="3" stroke-miterlimit="10" d="M42.5,28.3L40.4,22"/>
<path fill="none" stroke="#FFFFFF" stroke-width="3" stroke-miterlimit="10" d="M38.7,16.9l-1.4-4.3"/>
<path fill="none" stroke="#FFFFFF" stroke-width="3" stroke-miterlimit="10" d="M35.9,57.2L25.5,43"/>
<path fill="none" stroke="#FFFFFF" stroke-width="3" stroke-miterlimit="10" d="M22.3,38.8l-3.9-5.3"/>
<path fill="none" stroke="#FFFFFF" stroke-width="3" stroke-miterlimit="10" d="M15.2,29.1l-2.7-3.7"/>
<path fill="none" stroke="#FFFFFF" stroke-width="3" stroke-miterlimit="10" d="M25,68.301L10.7,58.1"/>
<path fill="none" stroke="#FFFFFF" stroke-width="3" stroke-miterlimit="10" d="M6.4,55L1,51.2"/>
<path fill="none" stroke="#FFFFFF" stroke-width="3" stroke-miterlimit="10" d="M18.1,82.199L1.3,76.9"/>
</svg>
