<svg width="131" height="129" viewBox="0 0 131 129" fill="none" xmlns="http://www.w3.org/2000/svg">
<path d="M53.4 94.6001H24.7C20.5 98.8001 18.2 101.1 14 105.3V126.7H64.1V105.3C59.9 101.1 57.6 98.8001 53.4 94.6001Z" stroke="#0D67F9" stroke-width="3" stroke-miterlimit="10"/>
<path d="M106.1 94.6001H77.3C73.1 98.8001 70.8 101.1 66.6 105.3V126.7H116.7V105.3C112.6 101.1 110.2 98.8001 106.1 94.6001Z" stroke="#0D67F9" stroke-width="3" stroke-miterlimit="10"/>
<path d="M79.8 60.3999H51C46.8 64.5999 44.5 66.8999 40.3 71.0999V92.4999H90.4V71.0999C86.3 66.8999 83.9 64.5999 79.8 60.3999Z" stroke="#0D67F9" stroke-width="3" stroke-miterlimit="10"/>
<path opacity="0.5" d="M93.9 100.7H102.9L109.8 107" stroke="#0D67F9" stroke-width="3" stroke-miterlimit="10"/>
<path opacity="0.5" d="M41.5 100.7H50.5L57.4 107" stroke="#0D67F9" stroke-width="3" stroke-miterlimit="10"/>
<path opacity="0.5" d="M68.1 66.5H77.1L84 72.9" stroke="#0D67F9" stroke-width="3" stroke-miterlimit="10"/>
<path d="M112.5 81.6002L129.2 76.2002" stroke="#0D67F9" stroke-width="3" stroke-miterlimit="10"/>
<path d="M105.4 67.7999L119.6 57.3999" stroke="#0D67F9" stroke-width="3" stroke-miterlimit="10"/>
<path d="M123.8 54.2999L129.2 50.3999" stroke="#0D67F9" stroke-width="3" stroke-miterlimit="10"/>
<path d="M94.3 56.7996L104.6 42.5996" stroke="#0D67F9" stroke-width="3" stroke-miterlimit="10"/>
<path d="M107.7 38.2999L111.6 32.8999" stroke="#0D67F9" stroke-width="3" stroke-miterlimit="10"/>
<path d="M114.7 28.5998L117.4 24.7998" stroke="#0D67F9" stroke-width="3" stroke-miterlimit="10"/>
<path d="M80.5 49.8001L85.8 33.1001" stroke="#0D67F9" stroke-width="3" stroke-miterlimit="10"/>
<path d="M87.4 28.1003L89.4 21.8003" stroke="#0D67F9" stroke-width="3" stroke-miterlimit="10"/>
<path d="M91.1 16.6002L92.5 12.2002" stroke="#0D67F9" stroke-width="3" stroke-miterlimit="10"/>
<path d="M65.1 47.4999L65 29.8999" stroke="#0D67F9" stroke-width="3" stroke-miterlimit="10"/>
<path d="M64.9 24.6V18" stroke="#0D67F9" stroke-width="3" stroke-miterlimit="10"/>
<path d="M64.9 12.6L64.8 8" stroke="#0D67F9" stroke-width="3" stroke-miterlimit="10"/>
<path d="M64.8 2.6V0" stroke="#0D67F9" stroke-width="3" stroke-miterlimit="10"/>
<path d="M49.7 50.0003L44.2 33.3003" stroke="#0D67F9" stroke-width="3" stroke-miterlimit="10"/>
<path d="M42.5 28.3L40.4 22" stroke="#0D67F9" stroke-width="3" stroke-miterlimit="10"/>
<path d="M38.7 16.9001L37.3 12.6001" stroke="#0D67F9" stroke-width="3" stroke-miterlimit="10"/>
<path d="M35.9 57.2L25.5 43" stroke="#0D67F9" stroke-width="3" stroke-miterlimit="10"/>
<path d="M22.3 38.8L18.4 33.5" stroke="#0D67F9" stroke-width="3" stroke-miterlimit="10"/>
<path d="M15.2 29.0999L12.5 25.3999" stroke="#0D67F9" stroke-width="3" stroke-miterlimit="10"/>
<path d="M25 68.3001L10.7 58.1001" stroke="#0D67F9" stroke-width="3" stroke-miterlimit="10"/>
<path d="M6.4 55.0002L1 51.2002" stroke="#0D67F9" stroke-width="3" stroke-miterlimit="10"/>
<path d="M18.1 82.1999L1.3 76.8999" stroke="#0D67F9" stroke-width="3" stroke-miterlimit="10"/>
</svg>
