<?xml version="1.0" encoding="utf-8"?>
<!-- Generator: Adobe Illustrator 16.0.0, SVG Export Plug-In . SVG Version: 6.00 Build 0)  -->
<!DOCTYPE svg PUBLIC "-//W3C//DTD SVG 1.1//EN" "http://www.w3.org/Graphics/SVG/1.1/DTD/svg11.dtd">
<svg version="1.1" id="Layer_1" xmlns="http://www.w3.org/2000/svg" xmlns:xlink="http://www.w3.org/1999/xlink" x="0px" y="0px"
	 width="124px" height="116px" viewBox="0 0 124 116" enable-background="new 0 0 124 116" xml:space="preserve">
<path fill="none" stroke="#FFFFFF" stroke-width="3" stroke-linecap="round" stroke-miterlimit="10" stroke-opacity="0.5" d="
	M62.12,95.033c20.661,0,37.411-16.75,37.411-37.411S82.781,20.211,62.12,20.211c-20.662,0-37.411,16.75-37.411,37.411
	S41.458,95.033,62.12,95.033z"/>
<path fill="none" stroke="#FFFFFF" stroke-width="3" stroke-linecap="round" stroke-miterlimit="10" d="M62.12,8.737
	c27.013,0,48.885,21.873,48.885,48.885v50.797"/>
<path fill="none" stroke="#FFFFFF" stroke-width="3" stroke-linecap="round" stroke-miterlimit="10" d="M62.12,106.387
	c-27.012,0-48.885-21.872-48.885-48.884V5.749"/>
<path fill="#FFFFFF" stroke="#FFFFFF" stroke-miterlimit="10" d="M76.463,67.064c0,6.932-5.379,11.474-13.625,11.474
	c-7.411,0-13.028-3.705-15.06-9.801l-0.12-0.598l3.825-2.151l0.239,0.837c1.315,4.661,5.379,7.41,11.116,7.41
	c5.617,0,9.203-2.749,9.203-7.171c0-4.303-4.184-5.977-9.682-7.77h-0.12c-6.574-2.151-12.789-4.183-12.789-11.474
	c0-4.9,2.749-8.725,7.291-10.398v4.9c-1.792,1.195-2.749,3.107-2.749,5.378c0,4.184,3.466,5.498,9.083,7.291
	C69.65,57.263,76.463,59.534,76.463,67.064z"/>
<path fill="#FFFFFF" stroke="#FFFFFF" stroke-miterlimit="10" d="M62,40.889v-4.303c5.976,0,10.996,3.227,13.267,8.725l0.239,0.598
	l-3.706,2.151l-0.357-0.717C70.248,44.355,67.618,40.889,62,40.889z"/>
<path fill="none" stroke="#FFFFFF" stroke-width="3" stroke-linecap="round" stroke-miterlimit="10" d="M122.121,101.965
	L110.887,113.2L99.65,101.965"/>
<path fill="none" stroke="#FFFFFF" stroke-width="3" stroke-linecap="round" stroke-miterlimit="10" d="M24.47,14.235L13.235,3
	L2,14.235"/>
<path fill="none" stroke="#FFFFFF" stroke-width="3" stroke-linecap="round" stroke-miterlimit="10" d="M61.881,63.718v22.829"/>
<path fill="none" stroke="#FFFFFF" stroke-width="3" stroke-linecap="round" stroke-miterlimit="10" d="M61.881,28.578v28.566"/>
</svg>
