<svg width="85" height="84" viewBox="0 0 85 84" fill="none" xmlns="http://www.w3.org/2000/svg">
<path d="M34.7891 61.001H16.2825C13.5742 63.7093 12.0911 65.1924 9.38281 67.9007V81.7H41.6888V67.9007C38.9805 65.1924 37.4974 63.7093 34.7891 61.001Z" stroke="#0D67F9" stroke-width="3" stroke-miterlimit="10"/>
<path d="M68.7716 61.001H50.2005C47.4922 63.7093 46.0091 65.1924 43.3008 67.9007V81.7H75.6068V67.9007C72.963 65.1924 71.4154 63.7093 68.7716 61.001Z" stroke="#0D67F9" stroke-width="3" stroke-miterlimit="10"/>
<path d="M51.8136 38.9478H33.2425C30.5342 41.656 29.0511 43.1391 26.3428 45.8474V59.6468H58.6488V45.8474C56.005 43.1391 54.4574 41.656 51.8136 38.9478Z" stroke="#0D67F9" stroke-width="3" stroke-miterlimit="10"/>
<path opacity="0.5" d="M60.9053 64.9343H66.7087L71.1581 68.9968" stroke="#0D67F9" stroke-width="3" stroke-miterlimit="10"/>
<path opacity="0.5" d="M27.1152 64.9343H32.9187L37.368 68.9968" stroke="#0D67F9" stroke-width="3" stroke-miterlimit="10"/>
<path opacity="0.5" d="M44.2676 42.8811H50.0711L54.5204 47.008" stroke="#0D67F9" stroke-width="3" stroke-miterlimit="10"/>
<path d="M72.8984 52.6181L83.6671 49.136" stroke="#0D67F9" stroke-width="3" stroke-miterlimit="10"/>
<path d="M68.3203 43.7197L77.4769 37.0134" stroke="#0D67F9" stroke-width="3" stroke-miterlimit="10"/>
<path d="M80.1855 35.0143L83.6676 32.4995" stroke="#0D67F9" stroke-width="3" stroke-miterlimit="10"/>
<path d="M61.1631 36.6266L67.8048 27.47" stroke="#0D67F9" stroke-width="3" stroke-miterlimit="10"/>
<path d="M69.8037 24.6972L72.3186 21.2151" stroke="#0D67F9" stroke-width="3" stroke-miterlimit="10"/>
<path d="M74.3184 18.4423L76.0594 15.9919" stroke="#0D67F9" stroke-width="3" stroke-miterlimit="10"/>
<path d="M52.2646 32.1124L55.6823 21.3438" stroke="#0D67F9" stroke-width="3" stroke-miterlimit="10"/>
<path d="M56.7139 18.1198L58.0035 14.0574" stroke="#0D67F9" stroke-width="3" stroke-miterlimit="10"/>
<path d="M59.0996 10.7042L60.0024 7.86694" stroke="#0D67F9" stroke-width="3" stroke-miterlimit="10"/>
<path d="M42.334 30.6293L42.2695 19.2803" stroke="#0D67F9" stroke-width="3" stroke-miterlimit="10"/>
<path d="M42.2051 15.8628V11.6069" stroke="#0D67F9" stroke-width="3" stroke-miterlimit="10"/>
<path d="M42.2051 8.12491L42.1406 5.15869" stroke="#0D67F9" stroke-width="3" stroke-miterlimit="10"/>
<path d="M42.1406 1.67656V0" stroke="#0D67F9" stroke-width="3" stroke-miterlimit="10"/>
<path d="M32.404 32.2416L28.8574 21.4729" stroke="#0D67F9" stroke-width="3" stroke-miterlimit="10"/>
<path d="M27.7604 18.2487L26.4062 14.1863" stroke="#0D67F9" stroke-width="3" stroke-miterlimit="10"/>
<path d="M25.311 10.8978L24.4082 8.125" stroke="#0D67F9" stroke-width="3" stroke-miterlimit="10"/>
<path d="M23.5051 36.8844L16.7988 27.7278" stroke="#0D67F9" stroke-width="3" stroke-miterlimit="10"/>
<path d="M14.7355 25.0194L12.2207 21.6018" stroke="#0D67F9" stroke-width="3" stroke-miterlimit="10"/>
<path d="M10.1571 18.7645L8.41602 16.3787" stroke="#0D67F9" stroke-width="3" stroke-miterlimit="10"/>
<path d="M16.475 44.0419L7.25391 37.4646" stroke="#0D67F9" stroke-width="3" stroke-miterlimit="10"/>
<path d="M4.48208 35.4657L1 33.0154" stroke="#0D67F9" stroke-width="3" stroke-miterlimit="10"/>
<path d="M12.0275 53.005L1.19434 49.5874" stroke="#0D67F9" stroke-width="3" stroke-miterlimit="10"/>
</svg>
