<?xml version="1.0" encoding="utf-8"?>
<!-- Generator: Adobe Illustrator 25.2.2, SVG Export Plug-In . SVG Version: 6.00 Build 0)  -->
<svg version="1.1" id="Layer_1" xmlns="http://www.w3.org/2000/svg" xmlns:xlink="http://www.w3.org/1999/xlink" x="0px" y="0px"
	 viewBox="0 0 20 20" style="enable-background:new 0 0 20 20;" xml:space="preserve">
<style type="text/css">
	.st0{fill:#FFFFFF;}
	.st1{fill:none;stroke:#0D67F9;stroke-width:0.3179;stroke-linecap:round;stroke-miterlimit:10;}
	.st2{fill:none;stroke:#0D67F9;stroke-width:0.3179;stroke-linecap:round;stroke-miterlimit:10;stroke-opacity:0.5;}
	.st3{fill:#0D67F9;}
	.st4{fill:none;stroke:#0D67F9;stroke-width:0.1465;stroke-opacity:0.19;}
	.st5{fill:none;stroke:#0D67F9;stroke-width:0.1465;stroke-opacity:0.1;}
</style>
<g>
	<g>
		<circle class="st0" cx="10" cy="10" r="6.7"/>
	</g>
	<path class="st1" d="M13.3,10.1v3.2c0,0.5-0.4,0.9-0.9,0.9H7.3c-0.5,0-0.9-0.4-0.9-0.9V7.2c0-0.5,0.4-0.9,0.9-0.9h5.1
		c0.5,0,0.9,0.4,0.9,0.9v0.7"/>
	<path class="st2" d="M12,9.4H7.8c-0.1,0-0.1-0.1-0.1-0.1V8.7c0-0.1,0.1-0.1,0.1-0.1H12c0.1,0,0.1,0.1,0.1,0.1v0.5
		C12.2,9.3,12.1,9.4,12,9.4z"/>
	<path class="st2" d="M12,12.7H7.8c-0.1,0-0.1-0.1-0.1-0.1V12c0-0.1,0.1-0.1,0.1-0.1H12c0.1,0,0.1,0.1,0.1,0.1v0.5
		C12.2,12.6,12.1,12.7,12,12.7z"/>
	<path class="st2" d="M7.8,7.7h2.3"/>
	<path class="st2" d="M7.8,11.1h2.3"/>
	<path class="st3" d="M11.7,11.2l-0.6,0.1c-0.1,0-0.1,0-0.1-0.1l0.1-0.6c0,0,0,0,0,0l2.9-2.9c0,0,0.1,0,0.1,0l0.5,0.5
		c0,0,0,0.1,0,0.1L11.7,11.2C11.7,11.2,11.7,11.2,11.7,11.2z"/>
	<circle class="st4" cx="10" cy="10" r="7.7"/>
	<circle class="st5" cx="10" cy="10" r="9.9"/>
</g>
</svg>
