<?xml version="1.0" encoding="utf-8"?>
<!-- Generator: Adobe Illustrator 25.2.2, SVG Export Plug-In . SVG Version: 6.00 Build 0)  -->
<svg version="1.1" id="Layer_1" xmlns="http://www.w3.org/2000/svg" xmlns:xlink="http://www.w3.org/1999/xlink" x="0px" y="0px"
	 viewBox="0 0 20 20" style="enable-background:new 0 0 20 20;" xml:space="preserve">
<style type="text/css">
	.st0{fill:#FFFFFF;}
	.st1{fill:none;stroke:#0D67F9;stroke-width:0.3666;stroke-linecap:round;stroke-miterlimit:10;stroke-opacity:0.5;}
	.st2{clip-path:url(#SVGID_2_);}
	.st3{fill:none;stroke:#0D67F9;stroke-width:0.3181;stroke-linecap:round;stroke-miterlimit:10;}
	.st4{fill:none;stroke:#0D67F9;stroke-width:0.1466;stroke-opacity:0.19;}
	.st5{fill:none;stroke:#0D67F9;stroke-width:0.1466;stroke-opacity:0.1;}
</style>
<g>
	<g>
		<circle class="st0" cx="10" cy="10" r="6.7"/>
	</g>
	<path class="st1" d="M10.4,15c-1,0.1-2-0.1-2.9-0.7C5.1,13,4.3,10,5.7,7.6c1.4-2.4,4.4-3.2,6.8-1.8c2.4,1.4,3.2,4.4,1.8,6.8"/>
	<g>
		<defs>
			
				<rect id="SVGID_1_" x="7.6" y="7.8" transform="matrix(0.1085 -0.9941 0.9941 0.1085 -1.331 20.4985)" width="6.3" height="6.5"/>
		</defs>
		<clipPath id="SVGID_2_">
			<use xlink:href="#SVGID_1_"  style="overflow:visible;"/>
		</clipPath>
		<g class="st2">
			<path class="st3" d="M9.5,9.5l0.9,4.1l0.9-1l1,1.3l0.9-0.8l-1.1-1.3l1.3-0.6L9.5,9.5z"/>
			<path class="st3" d="M10.4,8.9l0.5-0.4"/>
			<path class="st3" d="M9.7,8.6l0.1-0.7"/>
			<path class="st3" d="M8.8,8.7L8.4,8.2"/>
			<path class="st3" d="M8.5,9.5L7.9,9.4"/>
			<path class="st3" d="M8.7,10.3l-0.5,0.3"/>
		</g>
	</g>
	<circle class="st4" cx="10" cy="10" r="7.7"/>
	<circle class="st5" cx="10" cy="10" r="9.9"/>
</g>
</svg>
