<?xml version="1.0" encoding="utf-8"?>
<!-- Generator: Adobe Illustrator 25.2.2, SVG Export Plug-In . SVG Version: 6.00 Build 0)  -->
<svg version="1.1" id="Layer_1" xmlns="http://www.w3.org/2000/svg" xmlns:xlink="http://www.w3.org/1999/xlink" x="0px" y="0px"
	 viewBox="0 0 20 20" style="enable-background:new 0 0 20 20;" xml:space="preserve">
<style type="text/css">
	.st0{fill:#FFFFFF;}
	.st1{fill:none;stroke:#0D67F9;stroke-width:0.3196;stroke-linecap:round;stroke-miterlimit:10;}
	.st2{fill:#0D67F9;}
	.st3{fill:none;stroke:#0D67F9;stroke-width:0.3196;stroke-linecap:round;stroke-miterlimit:10;stroke-opacity:0.5;}
	.st4{fill:none;stroke:#0D67F9;stroke-width:0.3196;stroke-linecap:round;stroke-linejoin:round;stroke-miterlimit:10;}
	.st5{fill:none;stroke:#0D67F9;stroke-width:0.1473;stroke-opacity:0.19;}
	.st6{fill:none;stroke:#0D67F9;stroke-width:0.1473;stroke-opacity:0.1;}
</style>
<g>
	<g>
		<circle class="st0" cx="10" cy="10" r="6.7"/>
	</g>
	<path class="st1" d="M10,10c1.1,0,1.9-0.9,1.9-1.9c0-1.1-0.9-1.9-1.9-1.9C9,6.2,8.1,7,8.1,8.1C8.1,9.1,9,10,10,10z"/>
	<path class="st2" d="M10.8,8.6c0-0.4-0.3-0.5-0.7-0.7V7.3c0.1,0,0.2,0.1,0.3,0.3l0,0.1l0.3-0.2l0-0.1C10.7,7.2,10.4,7,10.2,7V6.7
		c0-0.1-0.1-0.2-0.2-0.2c-0.1,0-0.2,0.1-0.2,0.2v0.2L9.7,7C9.5,7.1,9.3,7.3,9.3,7.6c0,0.4,0.3,0.5,0.6,0.6v0.6
		c-0.1,0-0.2-0.1-0.3-0.3l0-0.1L9.2,8.6l0,0.1C9.3,9,9.5,9.2,9.8,9.2v0.2c0,0.1,0.1,0.2,0.2,0.2c0.1,0,0.2-0.1,0.2-0.2V9.2
		C10.6,9.2,10.8,8.9,10.8,8.6z M10.4,8.6c0,0.2-0.1,0.3-0.3,0.3V8.3C10.4,8.4,10.4,8.4,10.4,8.6z M9.8,7.3v0.5
		C9.7,7.7,9.7,7.7,9.7,7.6C9.7,7.5,9.7,7.4,9.8,7.3L9.8,7.3z"/>
	<path class="st3" d="M14.6,10h-0.9v3.4H6.4V10h-1"/>
	<path class="st1" d="M5.6,8.7c1.5,0,2.8,1.2,2.8,2.8"/>
	<path class="st4" d="M9.4,10.8l-1,1l-1-1"/>
	<path class="st1" d="M14.6,8.7c-1.5,0-2.8,1.2-2.8,2.8"/>
	<path class="st4" d="M10.9,10.8l1,1l1-1"/>
	<circle class="st5" cx="10" cy="10" r="7.7"/>
	<circle class="st6" cx="10" cy="10" r="9.9"/>
</g>
</svg>
