<?xml version="1.0" encoding="utf-8"?>
<!-- Generator: Adobe Illustrator 25.2.2, SVG Export Plug-In . SVG Version: 6.00 Build 0)  -->
<svg version="1.1" id="Layer_1" xmlns="http://www.w3.org/2000/svg" xmlns:xlink="http://www.w3.org/1999/xlink" x="0px" y="0px"
	 viewBox="0 0 20 20" style="enable-background:new 0 0 20 20;" xml:space="preserve">
<style type="text/css">
	.st0{fill:#FFFFFF;}
	.st1{fill:#0D67F9;}
	.st2{fill:none;stroke:#0D67F9;stroke-width:0.262;stroke-linecap:round;stroke-miterlimit:10;}
	.st3{fill:none;stroke:#0D67F9;stroke-width:0.2951;stroke-linecap:round;stroke-miterlimit:10;}
	.st4{fill:none;stroke:#0D67F9;stroke-width:0.2951;stroke-linecap:round;stroke-miterlimit:10;stroke-opacity:0.5;}
	.st5{fill:none;stroke:#0D67F9;stroke-width:0.1475;stroke-opacity:0.19;}
	.st6{fill:none;stroke:#0D67F9;stroke-width:0.1475;stroke-opacity:0.1;}
</style>
<g>
	<g>
		<circle class="st0" cx="10" cy="10" r="6.7"/>
	</g>
	<path class="st1" d="M10,8.7C10,9,9.8,9.2,9.4,9.2c-0.3,0-0.5-0.1-0.6-0.4l0,0L9,8.7l0,0C9.1,8.9,9.2,9,9.4,9
		c0.2,0,0.4-0.1,0.4-0.3c0-0.2-0.2-0.2-0.4-0.3l0,0C9.2,8.4,8.9,8.3,8.9,8c0-0.2,0.1-0.3,0.3-0.4v0.2C9.1,7.8,9.1,7.9,9.1,8
		c0,0.2,0.1,0.2,0.4,0.3C9.7,8.4,10,8.4,10,8.7z"/>
	<path class="st1" d="M9.4,7.7V7.5c0.2,0,0.4,0.1,0.5,0.3l0,0L9.8,8l0,0C9.7,7.8,9.6,7.7,9.4,7.7z"/>
	<path class="st2" d="M9.4,8.6v0.8"/>
	<path class="st2" d="M9.4,7.4v0.9"/>
	<path class="st3" d="M14.6,11.9L14,11.6l-1.4,2l0.4,0.3"/>
	<path class="st3" d="M13.9,11.8l-1.1-0.7c-0.2-0.2-0.6-0.2-0.8-0.1l-2.3,0.7c-0.3,0.1-0.4,0.3-0.3,0.6c0.1,0.2,0.3,0.4,0.6,0.3
		l1.4-0.3"/>
	<path class="st3" d="M9.2,12.1L7.6,11c-0.2-0.2-0.6-0.1-0.7,0.2c-0.1,0.2-0.1,0.5,0.2,0.7l2.5,1.7c0.2,0.1,0.4,0.2,0.6,0.1l2.1-0.6
		c0.1,0,0.2,0,0.3,0.1l0.3,0.2"/>
	<path class="st4" d="M10.7,9.8c-0.3,0.3-0.8,0.5-1.2,0.5c-1,0-1.8-0.8-1.8-1.8s0.8-1.8,1.8-1.8s1.8,0.8,1.8,1.8h-0.8l1.1,1.7
		l1.1-1.7h-0.6c0-1.5-1.2-2.7-2.7-2.7S6.8,6.9,6.8,8.4c0,0,0,0,0,0.1"/>
	<path class="st4" d="M6.8,8.9V9"/>
	<path class="st4" d="M6.8,9.5v0.2"/>
	<circle class="st5" cx="10" cy="10" r="7.7"/>
	<circle class="st6" cx="10" cy="10" r="10"/>
</g>
</svg>
