<svg width="113" height="108" viewBox="0 0 113 108" fill="none" xmlns="http://www.w3.org/2000/svg">
<path d="M13.1963 64.8375V50.9141" stroke="#0D67F9" stroke-opacity="0.5" stroke-width="3" stroke-miterlimit="10"/>
<path d="M13.1963 93.6196V76.9946" stroke="#0D67F9" stroke-width="3" stroke-miterlimit="10"/>
<path d="M33.0425 51.0179V28.4702" stroke="#0D67F9" stroke-opacity="0.5" stroke-width="3" stroke-miterlimit="10"/>
<path d="M33.0425 103.906V63.1748" stroke="#0D67F9" stroke-width="3" stroke-miterlimit="10"/>
<path d="M52.9922 61.8242V0" stroke="#0D67F9" stroke-opacity="0.5" stroke-width="3" stroke-miterlimit="10"/>
<path d="M52.9922 106.4V73.9814" stroke="#0D67F9" stroke-width="3" stroke-miterlimit="10"/>
<path d="M72.9424 64.214V19.1187" stroke="#0D67F9" stroke-opacity="0.5" stroke-width="3" stroke-miterlimit="10"/>
<path d="M72.9424 102.244V76.3711" stroke="#0D67F9" stroke-width="3" stroke-miterlimit="10"/>
<path d="M92.8926 53.7194V7.68896" stroke="#0D67F9" stroke-opacity="0.5" stroke-width="3" stroke-miterlimit="10"/>
<path d="M92.8926 89.3594V65.9805" stroke="#0D67F9" stroke-width="3" stroke-miterlimit="10"/>
<path d="M2.70166 72.007L37.822 47.693L61.8243 69.9289L107.231 46.2383" stroke="#0D67F9" stroke-width="3" stroke-miterlimit="10"/>
<path d="M98.9189 44.6797L109.725 44.8875L102.452 54.343" stroke="#0D67F9" stroke-width="3" stroke-miterlimit="10"/>
<path d="M105.154 72.7344C95.1785 92.6844 74.5012 106.4 50.6027 106.4C30.7566 106.4 13.0926 96.9445 1.97461 82.1898" stroke="#0D67F9" stroke-width="3" stroke-miterlimit="10"/>
</svg>
