<svg width="122" height="121" viewBox="0 0 122 121" fill="none" xmlns="http://www.w3.org/2000/svg">
<path d="M61.0999 119.4C93.519 119.4 119.8 93.1191 119.8 60.7C119.8 28.2809 93.519 2 61.0999 2C28.6808 2 2.3999 28.2809 2.3999 60.7C2.3999 93.1191 28.6808 119.4 61.0999 119.4Z" stroke="#0D67F9" stroke-width="2.8846" stroke-miterlimit="10"/>
<path opacity="0.5" d="M61.1001 110.7C88.7143 110.7 111.1 88.3144 111.1 60.7002C111.1 33.086 88.7143 10.7002 61.1001 10.7002C33.4859 10.7002 11.1001 33.086 11.1001 60.7002C11.1001 88.3144 33.4859 110.7 61.1001 110.7Z" stroke="#0D67F9" stroke-width="2.459" stroke-miterlimit="10"/>
<path d="M61.0001 26.1001L82.2001 61.1001L60.9001 73.1001L40.1001 60.9001L61.0001 26.1001Z" stroke="#0D67F9" stroke-width="2.9176" stroke-miterlimit="10"/>
<path d="M80.4001 68.4L61.2001 95.4L41.4001 68L61.0001 79.7L80.4001 68.4Z" stroke="#0D67F9" stroke-width="2.7643" stroke-miterlimit="10"/>
<path opacity="0.5" d="M61 26.1001V72.5001" stroke="#0D67F9" stroke-width="2.459" stroke-miterlimit="10"/>
<path opacity="0.5" d="M61 79.7002L61.2 95.4002" stroke="#0D67F9" stroke-width="2.459" stroke-miterlimit="10"/>
</svg>
