<svg width="89" height="84" viewBox="0 0 89 84" fill="none" xmlns="http://www.w3.org/2000/svg">
<path d="M10.6729 50.0564V39.2146" stroke="#0D67F9" stroke-opacity="0.5" stroke-width="3" stroke-miterlimit="10"/>
<path d="M10.6729 72.2219V59.4526" stroke="#0D67F9" stroke-width="3" stroke-miterlimit="10"/>
<path d="M25.9717 39.3352V21.9883" stroke="#0D67F9" stroke-opacity="0.5" stroke-width="3" stroke-miterlimit="10"/>
<path d="M25.9717 80.1724V48.7312" stroke="#0D67F9" stroke-width="3" stroke-miterlimit="10"/>
<path d="M41.2715 47.6472V0.0637207" stroke="#0D67F9" stroke-opacity="0.5" stroke-width="3" stroke-miterlimit="10"/>
<path d="M41.2715 82.1001V57.0435" stroke="#0D67F9" stroke-width="3" stroke-miterlimit="10"/>
<path d="M56.6914 49.454V14.7603" stroke="#0D67F9" stroke-opacity="0.5" stroke-width="3" stroke-miterlimit="10"/>
<path d="M56.6914 78.8473V58.9707" stroke="#0D67F9" stroke-width="3" stroke-miterlimit="10"/>
<path d="M71.9883 41.5033V5.96631" stroke="#0D67F9" stroke-opacity="0.5" stroke-width="3" stroke-miterlimit="10"/>
<path d="M71.9883 68.9693V50.8997" stroke="#0D67F9" stroke-width="3" stroke-miterlimit="10"/>
<path d="M2.60156 55.5978L29.5856 36.8054L48.1371 54.0318L83.0718 35.7212" stroke="#0D67F9" stroke-width="3" stroke-miterlimit="10"/>
<path d="M76.6875 34.5168L84.9995 34.6373L79.3377 41.8652" stroke="#0D67F9" stroke-width="3" stroke-miterlimit="10"/>
<path d="M81.5065 56.0796C73.7968 71.499 57.8955 82.0999 39.4644 82.0999C24.1655 82.0999 10.553 74.7516 2 63.4279" stroke="#0D67F9" stroke-width="3" stroke-miterlimit="10"/>
</svg>
