<svg width="304" height="71" viewBox="0 0 304 71" fill="none" xmlns="http://www.w3.org/2000/svg">
<path fill-rule="evenodd" clip-rule="evenodd" d="M23.4022 18.5714V48.8441L26.6227 45.9457L32.7417 51.85V26.8373L23.4022 18.5714Z" fill="white"/>
<path fill-rule="evenodd" clip-rule="evenodd" d="M23.4022 13.2039V16.5317L32.7417 24.905V21.5772L23.4022 13.2039Z" fill="white"/>
<path fill-rule="evenodd" clip-rule="evenodd" d="M40.7931 5.58234V56.5738L50.1325 48.6298V13.8483L40.7931 5.58234Z" fill="white"/>
<path fill-rule="evenodd" clip-rule="evenodd" d="M0 70.6357L26.6229 48.0921L39.2902 59.9006L65.3764 38.4306L60.7603 32.2043L88.9934 30.0573L76.9702 55.6066L72.8909 49.7024L39.2902 70.5283L26.6229 56.4654L0 70.6357Z" fill="white"/>
<path fill-rule="evenodd" clip-rule="evenodd" d="M57.5402 18.5714V42.7252L63.2297 38.0018L58.1843 31.024L66.987 30.2725V26.73L57.5402 18.5714Z" fill="white"/>
<path fill-rule="evenodd" clip-rule="evenodd" d="M40.7931 0V3.32786L50.1325 11.5938V8.37333L40.7931 0Z" fill="white"/>
<path fill-rule="evenodd" clip-rule="evenodd" d="M57.5402 13.2039V16.5317L66.987 24.7977V21.5772L57.5402 13.2039Z" fill="white"/>
<path d="M108.746 27.9119C108.746 23.1885 112.182 19.8607 116.905 19.8607C119.374 19.8607 121.521 20.8268 122.917 22.4371L121.092 24.1547C120.018 22.9738 118.623 22.3297 117.012 22.3297C113.899 22.3297 111.645 24.5841 111.645 27.8046C111.645 31.0251 113.899 33.2795 117.012 33.2795C118.623 33.2795 119.911 32.6353 121.092 31.4545L122.917 33.2795C121.521 34.9971 119.374 35.8559 116.905 35.8559C112.182 35.9632 108.746 32.6353 108.746 27.9119Z" fill="white"/>
<path d="M136.765 32.1012H129.143L127.64 35.7512H124.742L131.612 20.078H134.403L141.274 35.7512H138.375L136.765 32.1012ZM135.906 29.8469L133.008 22.9765L130.217 29.8469H135.906Z" fill="white"/>
<path d="M157.591 25.6602C157.591 29.0954 155.122 31.2424 151.15 31.2424H147.714V35.7512H144.923V20.078H151.15C155.122 20.078 157.591 22.225 157.591 25.6602ZM154.8 25.6602C154.8 23.7279 153.511 22.5471 151.042 22.5471H147.714V28.7734H151.042C153.511 28.7734 154.8 27.6999 154.8 25.6602Z" fill="white"/>
<path d="M162.207 20.078H164.998V35.7512H162.207V20.078Z" fill="white"/>
<path d="M173.908 22.5471H168.862V20.078H181.744V22.5471H176.699V35.7512H173.908V22.5471Z" fill="white"/>
<path d="M194.734 32.1012H187.112L185.609 35.7512H182.711L189.581 20.078H192.372L199.243 35.7512H196.344L194.734 32.1012ZM193.768 29.8469L190.869 22.9765L188.078 29.8469H193.768Z" fill="white"/>
<path d="M202.786 20.078H205.577V33.2821H213.521V35.7512H202.786V20.078Z" fill="white"/>
<path d="M241.539 22.5452H236.493V20.0761H249.375V22.5452H244.33V35.7493H241.539V22.5452Z" fill="white"/>
<path d="M264.619 33.2799V35.749H253.24V20.0758H264.297V22.5449H256.031V26.6242H263.331V28.9859H256.031V33.2799H264.619Z" fill="white"/>
<path d="M282.976 20.0758V35.749H280.614L272.241 25.1213V35.749H269.45V20.0758H271.812L280.185 30.7035V20.0758H282.976Z" fill="white"/>
<path d="M288.773 20.0758H295.429C300.367 20.0758 303.695 23.189 303.695 27.9124C303.695 32.6358 300.367 35.749 295.429 35.749H288.773V20.0758ZM295.322 33.2799C298.649 33.2799 300.904 31.1329 300.904 27.9124C300.904 24.6919 298.757 22.5449 295.322 22.5449H291.672V33.2799H295.322Z" fill="white"/>
<path fill-rule="evenodd" clip-rule="evenodd" d="M218.029 34.0316L223.396 28.664L215.023 20.076H213.09L221.678 28.7714L218.029 34.0316ZM217.17 20.076L224.47 27.5905L236.385 15.2452L224.362 25.2288L219.424 20.076H217.17ZM234.238 37.5741L225.65 28.664L231.125 23.0818L227.797 28.5567L236.493 37.4668L234.238 37.5741ZM231.877 37.4668L224.577 29.7375L212.876 41.8681L224.792 31.9919L230.159 37.4668H231.877Z" fill="white"/>
<path d="M129.894 56.6833L130.324 55.7172C130.968 56.3613 132.149 56.7907 133.222 56.7907C134.725 56.7907 135.369 56.1466 135.369 55.3951C135.369 53.2481 130.002 54.6436 130.002 51.3158C130.002 49.9202 131.075 48.7394 133.437 48.7394C134.51 48.7394 135.584 49.0614 136.228 49.4908L135.799 50.457C135.047 49.9202 134.188 49.7055 133.329 49.7055C131.827 49.7055 131.182 50.3496 131.182 51.1011C131.182 53.2481 136.55 51.9599 136.55 55.1804C136.55 56.576 135.476 57.6495 133.115 57.6495C131.934 57.7568 130.646 57.3274 129.894 56.6833Z" fill="white"/>
<path d="M148.037 57.6496V51.2086L144.816 56.5761H144.279L141.059 51.2086V57.6496H139.878V48.8469H140.952L144.601 55.0732L148.251 48.8469H149.325V57.6496H148.037Z" fill="white"/>
<path d="M158.772 55.5027H154.048L153.082 57.7571H151.794L155.766 48.9543H157.054L161.026 57.7571H159.738L158.772 55.5027ZM158.342 54.4292L156.41 50.1352L154.478 54.4292H158.342Z" fill="white"/>
<path d="M169.507 57.6496L167.575 54.9658C167.36 54.9658 167.253 54.9658 167.038 54.9658H164.891V57.6496H163.603V48.8469H167.038C169.292 48.8469 170.688 50.0277 170.688 51.96C170.688 53.3556 169.937 54.3217 168.756 54.7511L170.903 57.7569H169.507V57.6496ZM169.507 51.96C169.507 50.6718 168.648 50.0277 167.038 50.0277H164.891V53.9997H167.038C168.648 53.8923 169.507 53.1409 169.507 51.96Z" fill="white"/>
<path d="M175.733 49.9204H172.727V48.8469H180.027V49.9204H177.021V57.6496H175.733V49.9204Z" fill="white"/>
<path d="M187.327 48.8469H188.615V57.6496H187.327V48.8469Z" fill="white"/>
<path d="M200.102 48.8469V57.6496H199.028L193.768 51.1012V57.6496H192.48V48.8469H193.553L198.813 55.3952V48.8469H200.102Z" fill="white"/>
<path d="M211.588 48.8469L207.723 57.6496H206.435L202.571 48.8469H203.966L207.187 56.1467L210.407 48.8469H211.588Z" fill="white"/>
<path d="M220.391 56.5761V57.6496H213.95V48.8469H220.176V49.9204H215.238V52.6041H219.639V53.6776H215.238V56.5761H220.391Z" fill="white"/>
<path d="M222.859 56.6823L223.289 55.7161C223.933 56.3602 225.114 56.7896 226.187 56.7896C227.69 56.7896 228.334 56.1455 228.334 55.3941C228.334 53.2471 222.967 54.6426 222.967 51.3147C222.967 49.9192 224.04 48.7383 226.402 48.7383C227.475 48.7383 228.549 49.0604 229.193 49.4898L228.764 50.4559C228.012 49.9192 227.153 49.7045 226.294 49.7045C224.792 49.7045 224.147 50.3486 224.147 51.1C224.147 53.2471 229.515 51.9589 229.515 55.1794C229.515 56.5749 228.441 57.6484 226.08 57.6484C224.899 57.7558 223.611 57.3264 222.859 56.6823Z" fill="white"/>
<path d="M234.454 49.9204H231.448V48.8469H238.748V49.9204H235.742V57.6496H234.454V49.9204Z" fill="white"/>
<path d="M249.483 57.6496V51.2086L246.262 56.5761H245.726L242.505 51.2086V57.6496H241.324V48.8469H242.398L246.048 55.0732L249.698 48.8469H250.771V57.6496H249.483Z" fill="white"/>
<path d="M261.076 56.5761V57.6496H254.635V48.8469H260.862V49.9204H255.923V52.6041H260.325V53.6776H255.923V56.5761H261.076Z" fill="white"/>
<path d="M271.919 48.8469V57.6496H270.846L265.585 51.1012V57.6496H264.297V48.8469H265.371L270.631 55.3952V48.8469H271.919Z" fill="white"/>
<path d="M277.609 49.9204H274.603V48.8469H281.903V49.9204H278.897V57.6496H277.609V49.9204Z" fill="white"/>
</svg>
