<svg width="71" height="80" viewBox="0 0 71 80" fill="none" xmlns="http://www.w3.org/2000/svg">
<path d="M69.8006 33.5903V74.0694C69.8006 76.7853 67.602 78.9838 64.8862 78.9838H5.91342C3.19757 78.9838 0.999023 76.7853 0.999023 74.0694V33.5903" stroke="#0D67F9" stroke-width="2" stroke-miterlimit="10" stroke-linecap="round" stroke-linejoin="round"/>
<path d="M46.9097 11.2168L37.4689 1.77596C36.5636 0.741347 34.8824 0.741347 33.9771 1.77596L23.8896 11.3461" stroke="#0D67F9" stroke-width="2" stroke-miterlimit="10" stroke-linecap="round" stroke-linejoin="round"/>
<path d="M9.14658 25.9599L0.999023 33.5902L35.2705 66.9564L69.8006 33.5902L61.653 25.4426" stroke="#0D67F9" stroke-width="2" stroke-miterlimit="10" stroke-linecap="round" stroke-linejoin="round"/>
<path d="M68.5086 77.4317L46.9111 55.8342" stroke="#0D67F9" stroke-width="2" stroke-miterlimit="10" stroke-linecap="round" stroke-linejoin="round"/>
<path d="M24.4078 56.3516L2.29297 77.0438" stroke="#0D67F9" stroke-width="2" stroke-miterlimit="10" stroke-linecap="round" stroke-linejoin="round"/>
<path d="M9.14844 40.4446V16.2606C9.14844 13.5447 11.347 11.3462 14.0628 11.3462H56.8698C59.5857 11.3462 61.7842 13.5447 61.7842 16.2606V40.4446" stroke="#0D67F9" stroke-width="2" stroke-miterlimit="10" stroke-linecap="round" stroke-linejoin="round"/>
<path d="M38.1171 39.6686H34.108C33.72 39.6686 33.2027 39.6686 32.8147 39.4099C31.3921 38.8926 28.159 37.2114 28.2883 32.4263C28.4176 27.1239 33.5907 26.348 35.0133 26.348C36.4358 26.348 40.9623 27.5119 40.9623 32.5556C40.9623 37.5994 41.3502 39.9272 45.1007 39.9272C48.8512 39.9272 48.7218 33.3316 48.0752 29.8398C47.4286 26.348 43.1608 20.011 35.2719 20.011C27.383 20.011 22.21 25.96 22.21 33.5902C22.21 41.2205 28.6763 46.2642 34.2373 46.2642C39.7983 46.2642 44.0661 46.2642 44.0661 46.2642" stroke="#0D67F9" stroke-width="2" stroke-miterlimit="10" stroke-linecap="round" stroke-linejoin="round"/>
</svg>
