<svg width="88" height="78" viewBox="0 0 88 78" fill="none" xmlns="http://www.w3.org/2000/svg">
<path opacity="0.5" d="M17.3598 43.2881H10.9473V59.9545H17.3598V43.2881Z" stroke="#0D67F9" stroke-width="3" stroke-miterlimit="10" stroke-linecap="round"/>
<path opacity="0.5" d="M29.976 36.3528H23.5635V59.9549H29.976V36.3528Z" stroke="#0D67F9" stroke-width="3" stroke-miterlimit="10" stroke-linecap="round"/>
<path opacity="0.5" d="M41.561 29.5205H35.1484V59.9548H41.561V29.5205Z" stroke="#0D67F9" stroke-width="3" stroke-miterlimit="10" stroke-linecap="round"/>
<path d="M5.36133 36.8701L13.3253 29.5204L16.8418 33.1435L28.3224 21.9636L32.0458 25.7937L44.1468 14.3032" stroke="#0D67F9" stroke-width="3" stroke-miterlimit="10"/>
<path d="M43.5245 22.999L45.0759 13.2683L35.5605 14.7176" stroke="#0D67F9" stroke-width="3" stroke-miterlimit="10"/>
<path d="M49.214 59.9547H4.01591C2.98163 59.9547 2.05078 59.1265 2.05078 57.9878V3.84795C2.05078 2.81277 2.87821 1.8811 4.01591 1.8811H63.7973C64.8316 1.8811 65.7625 2.70925 65.7625 3.84795V41.2179" stroke="#0D67F9" stroke-width="3" stroke-miterlimit="10" stroke-linecap="round"/>
<path d="M70.4169 53.9507C70.4169 60.3688 65.2455 65.5447 58.833 65.5447C52.4204 65.5447 47.249 60.3688 47.249 53.9507C47.249 42.1496 58.833 32.7295 58.833 32.7295C58.833 32.7295 70.4169 43.8059 70.4169 53.9507Z" stroke="#0D67F9" stroke-width="3" stroke-miterlimit="10"/>
<path opacity="0.5" d="M59.1426 60.9898C56.0397 60.9898 53.3506 59.1265 52.2129 56.4351" stroke="#0D67F9" stroke-width="3" stroke-miterlimit="10" stroke-linecap="round"/>
<path d="M59.762 54.8823V55.0894C59.762 55.7105 59.2449 56.1245 58.7277 56.1245C58.1072 56.1245 57.6935 55.6069 57.6935 55.0894V54.9858C57.1763 54.8823 56.7626 54.6753 56.142 54.3647C55.6249 54.0542 55.5215 53.3296 55.8318 52.812C56.142 52.2944 56.866 52.1909 57.3832 52.5014C57.9003 52.812 58.1072 52.9155 58.8312 52.9155C59.5552 52.9155 59.762 52.3979 59.8655 52.0873C59.8655 51.7768 59.8655 51.3627 59.3483 51.2592C58.4175 50.9486 57.4866 50.5346 56.866 50.017C55.418 48.8783 55.8318 46.1868 57.7969 45.4622V45.2552C57.7969 44.634 58.314 44.22 58.8312 44.22C59.4517 44.22 59.8655 44.7376 59.8655 45.2552V45.3587C60.3826 45.4622 60.7963 45.7727 61.1066 46.0833C61.5203 46.4974 61.5203 47.222 61.1066 47.6361C60.6929 48.0501 59.9689 48.0501 59.5552 47.6361C59.4517 47.5325 59.1415 47.3255 58.4175 47.5325C58.1072 47.6361 58.0038 47.9466 58.0038 48.0501C58.0038 48.2572 58.0038 48.3607 58.0038 48.3607C58.4175 48.6712 59.1415 48.9818 59.8655 49.1888C62.7614 50.1205 62.4512 53.9507 59.762 54.8823Z" fill="#0D67F9"/>
<path d="M79.0024 36.3527H71.4521V22.4813C71.4521 20.4109 73.107 18.7546 75.1756 18.7546H80.9675C83.0361 18.7546 84.6909 20.4109 84.6909 22.4813V26.415H82.1052C80.347 26.415 78.899 27.7607 78.899 29.5205C78.899 32.5225 79.0024 36.3527 79.0024 36.3527Z" stroke="#0D67F9" stroke-width="3" stroke-miterlimit="10" stroke-linecap="round"/>
<path d="M79.2089 18.3405V10.8872C79.2089 10.0591 79.6227 9.33447 80.2432 8.9204L85.6215 5.29727C86.4489 4.67617 86.7592 3.53747 86.242 2.70932C85.7249 1.67414 84.3803 1.36359 83.3461 1.9847L77.1404 6.22893C75.4855 7.36763 74.5547 9.23096 74.5547 11.1978V18.237" stroke="#0D67F9" stroke-width="3" stroke-miterlimit="10" stroke-linecap="round"/>
<path d="M74.9663 36.3528V71.6524C74.9663 74.0333 73.0011 76.0002 70.6223 76.0002C68.2435 76.0002 66.2783 74.0333 66.2783 71.6524V63.1639" stroke="#0D67F9" stroke-width="3" stroke-miterlimit="10" stroke-linecap="round"/>
</svg>
