<svg width="45" height="45" viewBox="0 0 45 45" fill="none" xmlns="http://www.w3.org/2000/svg">
<path d="M28.9003 43.2C35.2003 43.1 38.6003 37.4 38.6003 37.4C38.6003 37.4 40.0003 35.4 37.9003 33.4C36.2003 31.8 33.2003 29 31.0003 28.5C30.3003 28.4 29.6003 28.6 29.1003 29.2C28.0003 30.4 25.4003 33.9 23.3003 32.6C21.9003 31.8 12.4003 22 11.6003 20.6C10.4003 18.5 13.8003 16 15.0003 14.8C15.5003 14.3 15.8003 13.6 15.7003 12.9C15.2003 10.7 12.5003 7.70004 10.8003 6.00004C8.80034 3.80004 6.80034 5.30004 6.80034 5.30004C6.80034 5.30004 1.10034 8.80004 1.00034 15C0.900344 21.2 22.6003 43.2 28.9003 43.2Z" stroke="#0D67F9" stroke-width="2" stroke-miterlimit="10" stroke-linecap="round"/>
<path d="M9 14.9001C9 14.9001 9.3 18.7001 14.4 24.1001" stroke="#0D67F9" stroke-width="2" stroke-miterlimit="10" stroke-linecap="round"/>
<path d="M29.7 34.7999C27.6 34.4999 25.1 33.9 23.1 32.5C21.9 31.6 20.6 30.2 19 28.7" stroke="#0D67F9" stroke-width="2" stroke-miterlimit="10" stroke-linecap="round"/>
<path d="M20.5 11.2C20.5 11.2 26.6 11.5 29.6 15.1C32.6 18.7 33.2 22.5 33.2 24.3" stroke="#0D67F9" stroke-width="2" stroke-miterlimit="10" stroke-linecap="round"/>
<path d="M20.3008 6.40018C20.3008 6.40018 27.2008 6.00018 32.9008 11.2002C37.6008 15.5002 38.5008 21.8002 38.5008 23.9002" stroke="#0D67F9" stroke-width="2" stroke-miterlimit="10" stroke-linecap="round"/>
<path d="M20.4004 1.00007C20.4004 1.00007 30.1004 0.900066 37.4004 8.50007C44.0004 15.3001 43.5004 24.5001 43.5004 24.5001" stroke="#0D67F9" stroke-width="2" stroke-miterlimit="10" stroke-linecap="round"/>
</svg>
