<svg width="60" height="60" viewBox="0 0 60 60" fill="none" xmlns="http://www.w3.org/2000/svg">
<path d="M52.2862 27.7409L30.2939 52.7998L8.21402 27.7409L15.0483 16H45.5395L52.2862 27.7409Z" stroke="white" stroke-width="2" stroke-miterlimit="10" stroke-linecap="round" stroke-linejoin="round"/>
<path d="M37.9167 27.7409L30.2939 16L22.6711 27.7409H37.9167Z" stroke="white" stroke-width="2" stroke-miterlimit="10" stroke-linecap="round" stroke-linejoin="round"/>
<path d="M52.2861 27.7409L45.5394 16L37.9166 27.7409H52.2861Z" stroke="white" stroke-width="2" stroke-miterlimit="10" stroke-linecap="round" stroke-linejoin="round"/>
<path d="M30.2937 16H15.0481L22.6709 27.7409L30.2937 16Z" stroke="white" stroke-width="2" stroke-miterlimit="10" stroke-linecap="round" stroke-linejoin="round"/>
<path d="M45.539 16H30.2934L37.9162 27.7409L45.539 16Z" stroke="white" stroke-width="2" stroke-miterlimit="10" stroke-linecap="round" stroke-linejoin="round"/>
<path d="M22.6711 27.7407L30.2939 52.7996L37.9167 27.7407H22.6711Z" stroke="white" stroke-width="2" stroke-miterlimit="10" stroke-linecap="round" stroke-linejoin="round"/>
<path d="M15.0483 16L8.21402 27.7409H22.6711L15.0483 16Z" stroke="white" stroke-width="2" stroke-miterlimit="10" stroke-linecap="round" stroke-linejoin="round"/>
<path d="M30 59C46.0163 59 59 46.0163 59 30C59 13.9837 46.0163 1 30 1C13.9837 1 1 13.9837 1 30C1 46.0163 13.9837 59 30 59Z" stroke="white" stroke-opacity="0.5" stroke-width="2" stroke-miterlimit="10"/>
</svg>
