<svg width="86" height="80" viewBox="0 0 86 80" fill="none" xmlns="http://www.w3.org/2000/svg">
<path d="M36.9053 8.71826C36.9053 8.71826 36.6536 15.4296 37.7442 17.1075C38.8348 18.7853 46.1334 21.3021 43.1133 25.8323C40.0932 30.3625 33.8851 30.2786 32.2073 34.8088C30.5294 39.339 23.2308 36.7383 23.2308 37.5772C23.2308 38.4161 27.6771 42.9463 28.2643 44.8759C28.8516 46.8054 25.9993 49.3221 22.6436 46.5537C19.2879 43.7853 18.1973 41.7718 18.1973 41.7718" stroke="white" stroke-opacity="0.5" stroke-width="2" stroke-miterlimit="10" stroke-linecap="round"/>
<path d="M52.0059 21.302C52.0059 21.302 55.6132 21.8892 53.432 24.0704C51.1669 26.3355 53.6837 31.1174 58.2139 27.4261C62.6602 23.8187 64.4219 32.208 63.8347 20.9664L62.7441 19.0369" stroke="white" stroke-opacity="0.5" stroke-width="2" stroke-miterlimit="10" stroke-linecap="round"/>
<path d="M36.9058 52.4262L32.9629 48.4833C32.9629 48.4833 33.5501 43.7014 37.1575 43.7014C40.7649 43.7014 41.3521 46.2182 41.3521 46.2182C41.3521 46.2182 43.6172 44.5403 44.4561 46.8054C45.2951 49.0705 50.9159 46.8054 51.5031 50.1611C52.0903 53.5168 49.238 54.3557 47.5602 56.8725C45.8823 59.3893 44.2045 63.0805 40.8488 62.2416" stroke="white" stroke-opacity="0.5" stroke-width="2" stroke-miterlimit="10" stroke-linecap="round"/>
<path d="M39.6742 56.3689L33.55 67.8621H9.72461V78.2648H27.342L27.0903 68.1977" stroke="white" stroke-width="2" stroke-miterlimit="10" stroke-linecap="round"/>
<path d="M54.4395 43.8691L61.3186 56.2013H84.7246V66.4362H65.9327V56.5369" stroke="white" stroke-width="2" stroke-miterlimit="10" stroke-linecap="round"/>
<path d="M57.375 18.3657L63.8347 10.3959H84.3044V1H66.6032V9.97648" stroke="white" stroke-width="2" stroke-miterlimit="10" stroke-linecap="round"/>
<path d="M29.1878 26.0838L24.406 17.1073H1V7.20801H19.3724V16.2684" stroke="white" stroke-width="2" stroke-miterlimit="10" stroke-linecap="round"/>
<path d="M30.3622 64.9261C20.2951 60.1443 13.332 49.9094 13.332 37.9967C13.332 31.9565 15.0938 26.3357 18.1978 21.6377" stroke="white" stroke-width="2" stroke-miterlimit="10" stroke-linecap="round"/>
<path d="M61.3189 61.4866C56.2854 65.4295 49.9095 67.7785 43.0304 67.7785C41.6042 67.7785 40.0941 67.6946 38.668 67.4429" stroke="white" stroke-width="2" stroke-miterlimit="10" stroke-linecap="round"/>
<path d="M64.6738 17.5269C69.7074 22.896 72.8114 30.0268 72.8114 37.9966C72.8114 43.114 71.553 47.9798 69.204 52.1744" stroke="white" stroke-width="2" stroke-miterlimit="10" stroke-linecap="round"/>
<path d="M27.2578 12.8288C31.8719 9.97643 37.241 8.29858 43.1135 8.29858C48.4826 8.29858 53.6 9.72475 57.9624 12.2415" stroke="white" stroke-width="2" stroke-miterlimit="10" stroke-linecap="round"/>
</svg>
