<?xml version="1.0" encoding="utf-8"?>
<!-- Generator: Adobe Illustrator 16.0.0, SVG Export Plug-In . SVG Version: 6.00 Build 0)  -->
<!DOCTYPE svg PUBLIC "-//W3C//DTD SVG 1.1//EN" "http://www.w3.org/Graphics/SVG/1.1/DTD/svg11.dtd">
<svg version="1.1" id="Layer_1" xmlns="http://www.w3.org/2000/svg" xmlns:xlink="http://www.w3.org/1999/xlink" x="0px" y="0px"
	 width="60px" height="60px" viewBox="0 0 60 60" enable-background="new 0 0 60 60" xml:space="preserve">
<path fill="none" stroke="#0D67F9" stroke-width="2" stroke-linecap="round" stroke-linejoin="round" stroke-miterlimit="10" d="
	M52.286,27.741L30.294,52.8L8.214,27.741L15.048,16h30.491L52.286,27.741z"/>
<path fill="none" stroke="#FFFFFF" stroke-width="2" stroke-linecap="round" stroke-linejoin="round" stroke-miterlimit="10" d="
	M37.916,27.741L30.294,16l-7.623,11.741H37.916z"/>
<path fill="none" stroke="#0D67F9" stroke-width="2" stroke-linecap="round" stroke-linejoin="round" stroke-miterlimit="10" d="
	M52.286,27.741L45.539,16l-7.623,11.741H52.286z"/>
<path fill="none" stroke="#0D67F9" stroke-width="2" stroke-linecap="round" stroke-linejoin="round" stroke-miterlimit="10" d="
	M30.294,16H15.048l7.623,11.741L30.294,16z"/>
<path fill="none" stroke="#0D67F9" stroke-width="2" stroke-linecap="round" stroke-linejoin="round" stroke-miterlimit="10" d="
	M45.539,16H30.293l7.623,11.741L45.539,16z"/>
<path fill="none" stroke="#0D67F9" stroke-width="2" stroke-linecap="round" stroke-linejoin="round" stroke-miterlimit="10" d="
	M22.671,27.741L30.294,52.8l7.622-25.059H22.671z"/>
<path fill="none" stroke="#0D67F9" stroke-width="2" stroke-linecap="round" stroke-linejoin="round" stroke-miterlimit="10" d="
	M15.048,16L8.214,27.741h14.457L15.048,16z"/>
<path fill="none" stroke="#0D67F9" stroke-width="2" stroke-miterlimit="10" stroke-opacity="0.5" d="M30,59
	c16.016,0,29-12.984,29-29C59,13.984,46.016,1,30,1C13.984,1,1,13.984,1,30C1,46.016,13.984,59,30,59z"/>
</svg>
