<svg width="81" height="67" viewBox="0 0 81 67" fill="none" xmlns="http://www.w3.org/2000/svg">
<path d="M40.6053 57.8353C54.2278 57.8353 65.2711 46.792 65.2711 33.1695C65.2711 19.5469 54.2278 8.50366 40.6053 8.50366C26.9827 8.50366 15.9395 19.5469 15.9395 33.1695C15.9395 46.792 26.9827 57.8353 40.6053 57.8353Z" stroke="white" stroke-opacity="0.5" stroke-width="2" stroke-miterlimit="10" stroke-linecap="round"/>
<path d="M40.6035 1C58.3907 1 72.7733 15.3826 72.7733 33.1698V64.0194" stroke="white" stroke-width="2" stroke-miterlimit="10" stroke-linecap="round"/>
<path d="M40.6034 65.3395C22.8162 65.3395 8.43359 50.9569 8.43359 33.1697V3.70972" stroke="white" stroke-width="2" stroke-miterlimit="10" stroke-linecap="round"/>
<path d="M79.9995 57.6965L72.6345 65.0615L65.2695 57.6965" stroke="white" stroke-width="2" stroke-miterlimit="10" stroke-linecap="round"/>
<path d="M15.7995 9.33741L8.365 1.97241L1 9.33741" stroke="white" stroke-width="2" stroke-miterlimit="10" stroke-linecap="round"/>
<path d="M40.535 22.5391C44.8712 22.5391 48.3863 21.6992 48.3863 20.6631C48.3863 19.627 44.8712 18.7871 40.535 18.7871C36.1988 18.7871 32.6836 19.627 32.6836 20.6631C32.6836 21.6992 36.1988 22.5391 40.535 22.5391Z" stroke="white" stroke-width="2" stroke-miterlimit="10" stroke-linecap="round"/>
<path d="M32.6137 20.6633V22.8867C32.6137 22.8867 32.2663 27.403 36.0877 29.9738C37.9637 31.2245 38.867 32.6836 39.2144 33.8647H41.7852C42.2021 32.6836 43.0359 31.2245 44.9119 29.9738C48.7333 27.403 48.3859 22.8867 48.3859 22.8867V20.6633" stroke="white" stroke-width="2" stroke-miterlimit="10" stroke-linecap="round"/>
<path d="M40.535 48.8726C44.8712 48.8726 48.3863 48.0327 48.3863 46.9966C48.3863 45.9605 44.8712 45.1206 40.535 45.1206C36.1988 45.1206 32.6836 45.9605 32.6836 46.9966C32.6836 48.0327 36.1988 48.8726 40.535 48.8726Z" stroke="white" stroke-width="2" stroke-miterlimit="10" stroke-linecap="round"/>
<path d="M32.6137 46.9966V44.7732C32.6137 44.7732 32.2663 40.2569 36.0877 37.6861C37.9637 36.4354 38.867 34.9763 39.2144 33.7952H41.7852C42.2021 34.9763 43.0359 36.4354 44.9119 37.6861C48.7333 40.2569 48.3859 44.7732 48.3859 44.7732V46.9966" stroke="white" stroke-width="2" stroke-miterlimit="10" stroke-linecap="round"/>
</svg>
