<svg width="63" height="64" viewBox="0 0 63 64" fill="none" xmlns="http://www.w3.org/2000/svg">
<path d="M1 31.5C1 14.6699 14.6699 1 31.5 1C48.3301 1 62 14.6699 62 31.5C62 48.3301 48.3301 62 31.5 62" stroke="white" stroke-width="2" stroke-miterlimit="10" stroke-linecap="round"/>
<path d="M32.793 9.23145C32.793 8.67916 32.3453 8.23145 31.793 8.23145C31.2407 8.23145 30.793 8.67916 30.793 9.23145H32.793ZM30.793 9.23145V28H32.793V9.23145H30.793Z" fill="white"/>
<path d="M31.7942 34.1458C33.2554 34.1458 34.44 32.9613 34.44 31.5C34.44 30.0388 33.2554 28.8542 31.7942 28.8542C30.333 28.8542 29.1484 30.0388 29.1484 31.5C29.1484 32.9613 30.333 34.1458 31.7942 34.1458Z" stroke="white" stroke-opacity="0.5" stroke-width="2" stroke-miterlimit="10" stroke-linecap="round"/>
<path d="M48.1098 32.5C48.6621 32.5 49.1098 32.0523 49.1098 31.5C49.1098 30.9477 48.6621 30.5 48.1098 30.5V32.5ZM35.5 32.5H48.1098V30.5H35.5V32.5Z" fill="white"/>
<path d="M31.5 1V3.79277" stroke="white" stroke-opacity="0.5" stroke-width="2" stroke-miterlimit="10" stroke-linecap="round"/>
<path d="M53.0332 9.89258L51.0488 11.8769" stroke="white" stroke-opacity="0.5" stroke-width="2" stroke-miterlimit="10" stroke-linecap="round"/>
<path d="M61.9991 31.5H59.1328" stroke="white" stroke-opacity="0.5" stroke-width="2" stroke-miterlimit="10" stroke-linecap="round"/>
<path d="M53.0332 53.0334L51.0488 51.0491" stroke="white" stroke-opacity="0.5" stroke-width="2" stroke-miterlimit="10" stroke-linecap="round"/>
<path d="M31.4999 62H1.58789" stroke="white" stroke-width="2" stroke-miterlimit="10" stroke-linecap="round"/>
<path d="M31.5 50.3882V62.0002" stroke="white" stroke-width="2" stroke-miterlimit="10" stroke-linecap="round"/>
<path d="M1 31.5H3.79277" stroke="white" stroke-opacity="0.5" stroke-width="2" stroke-miterlimit="10" stroke-linecap="round"/>
<path d="M9.89258 9.89258L11.8769 11.8769" stroke="white" stroke-opacity="0.5" stroke-width="2" stroke-miterlimit="10" stroke-linecap="round"/>
<path d="M4.89453 62.0734V46.7866" stroke="white" stroke-width="2" stroke-miterlimit="10" stroke-linecap="round"/>
<path d="M11.5098 62.0733V42.4504" stroke="white" stroke-width="2" stroke-miterlimit="10" stroke-linecap="round"/>
<path d="M24.8125 62.0732V45.6841" stroke="white" stroke-width="2" stroke-miterlimit="10" stroke-linecap="round"/>
<path d="M18.1973 62.0735V33.7048" stroke="white" stroke-width="2" stroke-miterlimit="10" stroke-linecap="round"/>
</svg>
