<svg width="69" height="73" viewBox="0 0 69 73" fill="none" xmlns="http://www.w3.org/2000/svg">
<path d="M26.7891 38.0657L31.9224 42.9099L44.4305 30.5464" stroke="white" stroke-width="2" stroke-miterlimit="10" stroke-linecap="round"/>
<path d="M52.3827 52.743H17.3167C14.7861 52.743 12.7617 50.7185 12.7617 48.188V24.7625C12.7617 22.2319 14.7861 20.2075 17.3167 20.2075H52.3827C54.9132 20.2075 56.9376 22.2319 56.9376 24.7625V48.188C57.0099 50.7185 54.9132 52.743 52.3827 52.743Z" stroke="white" stroke-width="2" stroke-miterlimit="10" stroke-linecap="round"/>
<path d="M34.8867 52.8154V65.4681" stroke="white" stroke-width="2" stroke-miterlimit="10" stroke-linecap="round"/>
<path d="M34.8862 71.6137C36.4834 71.6137 37.7782 70.3189 37.7782 68.7216C37.7782 67.1244 36.4834 65.8296 34.8862 65.8296C33.289 65.8296 31.9941 67.1244 31.9941 68.7216C31.9941 70.3189 33.289 71.6137 34.8862 71.6137Z" stroke="white" stroke-width="2" stroke-miterlimit="10" stroke-linecap="round"/>
<path d="M22.0881 66.4079C10.1584 61.4191 1.69922 49.5618 1.69922 35.8246C1.69922 22.0151 10.1584 10.1577 22.0881 5.16895" stroke="white" stroke-opacity="0.5" stroke-width="2" stroke-miterlimit="10" stroke-linecap="round"/>
<path d="M47.6094 5.16895C59.6113 10.1577 67.9983 22.0151 67.9983 35.8246C67.9983 49.6341 59.6113 61.4191 47.6094 66.4079" stroke="white" stroke-opacity="0.5" stroke-width="2" stroke-miterlimit="10" stroke-linecap="round"/>
<path d="M22.2658 9.95311L24.0733 3.80752L18 2" stroke="white" stroke-opacity="0.5" stroke-width="2.1693" stroke-miterlimit="10" stroke-linecap="round" stroke-linejoin="round"/>
<path d="M47.9521 61L46 67.0733L52.001 69.0254" stroke="white" stroke-opacity="0.5" stroke-width="2.1693" stroke-miterlimit="10" stroke-linecap="round" stroke-linejoin="round"/>
</svg>
