<?xml version="1.0" encoding="utf-8"?>
<!-- Generator: Adobe Illustrator 25.0.0, SVG Export Plug-In . SVG Version: 6.00 Build 0)  -->
<svg version="1.1" id="Layer_1" xmlns="http://www.w3.org/2000/svg" xmlns:xlink="http://www.w3.org/1999/xlink" x="0px" y="0px"
	 viewBox="0 0 225 150" style="enable-background:new 0 0 225 150;" xml:space="preserve">
<style type="text/css">
	.st0{fill:#009B3A;}
	.st1{fill:#FEDF00;}
	.st2{fill:#002776;}
	.st3{fill:none;}
	.st4{fill:#FFFFFF;}
	.st5{fill-rule:evenodd;clip-rule:evenodd;fill:#009B3A;}
	.st6{clip-path:url(#SVGID_1_);}
</style>
<g>
	<rect class="st0" width="225" height="150"/>
	<path class="st1" d="M23.6,75l88.9,56.8L201.4,75l-88.9-56.8L23.6,75z"/>
	<path class="st2" d="M150,75c0,1.8-0.1,3.5-0.4,5.3c-0.3,2-0.7,4-1.3,5.9c-4.8,15.2-19,26.3-35.8,26.3C91.8,112.5,75,95.7,75,75
		c0-3.3,0.4-6.4,1.2-9.4c0.5-2,1.2-3.9,2-5.7c5.8-13.2,19-22.3,34.3-22.3C133.2,37.5,150,54.3,150,75z"/>
	<path class="st3" d="M150,75c0,1.8-0.1,3.5-0.4,5.3c-0.3,2-0.7,4-1.3,5.9c-4.8,15.2-19,26.3-35.8,26.3C91.8,112.5,75,95.7,75,75
		c0-3.3,0.4-6.4,1.2-9.4c0.5-2,1.2-3.9,2-5.7c5.8-13.2,19-22.3,34.3-22.3C133.2,37.5,150,54.3,150,75z"/>
	<path class="st4" d="M149.6,80.3c-0.3,2-0.7,4-1.3,5.9c-15.2-13.6-35.2-21.9-57.2-21.9c-5.1,0-10,0.4-14.9,1.3c0.5-2,1.2-3.9,2-5.7
		c4.2-0.6,8.5-0.9,12.9-0.9C113.4,58.9,133.8,66.9,149.6,80.3z"/>
	<g transform="translate(-420,1470)">
		<g transform="rotate(-7)">
			<path id="O" class="st5" d="M500.5-1406c0.9-0.1,1.5-1,1.4-2c-0.1-1-0.9-1.7-1.8-1.6c-0.9,0.1-1.5,1-1.4,2
				S499.6-1405.9,500.5-1406 M500.4-1406.6c0.5-0.1,0.9-0.6,0.8-1.2c-0.1-0.6-0.6-1.1-1.1-1c-0.5,0.1-0.9,0.6-0.8,1.2
				C499.4-1407,499.9-1406.6,500.4-1406.6"/>
		</g>
		<g transform="rotate(-4)">
			<g id="R">
				<g>
					<path id="P" class="st5" d="M503.4-1406.3l0.7,0l-0.1-1.3l1.4-0.1c0.6,0,1.1-0.6,1-1.2s-0.6-1.1-1.2-1l-2,0.1L503.4-1406.3z
						 M503.9-1408.3l1.4-0.1c0.3,0,0.4-0.2,0.4-0.5c0-0.3-0.2-0.4-0.5-0.4l-1.4,0.1L503.9-1408.3z"/>
				</g>
				<path class="st0" d="M506.5-1406.5c0-0.5-0.1-1.6-0.9-1.6l-1,0.1c1.1-0.1,1.2,1,1.2,1.6"/>
			</g>
		</g>
		<g transform="rotate(-1)">
			<path id="D" class="st5" d="M508-1406.6l1.7,0c0.8,0,1.5-0.7,1.5-1.6l0-0.5c0-0.8-0.7-1.5-1.6-1.5l-1.7,0L508-1406.6z
				 M508.6-1407.2l1,0c0.5,0,1-0.5,1-1l0-0.3c0-0.5-0.5-1-1-1l-1,0L508.6-1407.2z"/>
		</g>
		<g transform="rotate(2)">
			<path id="E" class="st0" d="M512.5-1406.6l3.2,0.1l0-0.7l-2.6-0.1l0-0.9l2,0.1l0-0.6l-2-0.1l0-0.7l2.4,0.1l0-0.7l-3.1-0.1
				L512.5-1406.6z"/>
		</g>
		<g transform="rotate(5)">
			<path id="M" class="st0" d="M517-1406.4l0.6,0.1l0.2-2.4l0.5,2.5l0.6,0l0.9-2.4l-0.2,2.4l0.6,0.1l0.3-3.6l-0.9-0.1l-0.9,2.4
				l-0.5-2.5l-0.9-0.1L517-1406.4z"/>
		</g>
		<g transform="rotate(9.75)">
			<path id="e" class="st0" d="M524.4-1405.6l2.6,0.5l0.1-0.6l-2-0.3l0.1-0.8l1.7,0.3l0.1-0.6l-1.7-0.3l0.1-0.6l2,0.3l0.1-0.6
				l-2.6-0.4L524.4-1405.6z"/>
		</g>
		<g transform="rotate(14.5)">
			<path id="P_1_" class="st5" d="M531.2-1404.3l0.6,0.2l0.3-1.3l1.4,0.4c0.6,0.2,1.2-0.2,1.4-0.8c0.2-0.6-0.2-1.2-0.8-1.4l-2-0.5
				L531.2-1404.3z M532.3-1406l1.3,0.3c0.2,0.1,0.5-0.1,0.6-0.3c0.1-0.2-0.1-0.5-0.3-0.6l-1.3-0.3L532.3-1406z"/>
		</g>
		<g transform="rotate(17.5)">
			<g id="R_1_">
				<g>
					<path id="P_2_" class="st5" d="M535.6-1403.1l0.6,0.2l0.4-1.3l1.4,0.4c0.6,0.2,1.2-0.1,1.4-0.7c0.2-0.6-0.1-1.2-0.7-1.4
						l-1.9-0.6L535.6-1403.1z M536.8-1404.8l1.3,0.4c0.2,0.1,0.5-0.1,0.6-0.3c0.1-0.2-0.1-0.5-0.3-0.6l-1.3-0.4L536.8-1404.8z"/>
				</g>
				<path class="st0" d="M538.5-1402.2c0.2-0.5,0.5-1.6-0.2-1.8l-0.9-0.3c1.1,0.3,0.7,1.4,0.6,1.9"/>
			</g>
		</g>
		<g transform="rotate(20.5)">
			<path id="O_1_" class="st5" d="M541.4-1401.1c0.8,0.3,1.8-0.2,2.1-1.1c0.3-0.9,0-1.9-0.9-2.2c-0.8-0.3-1.8,0.2-2.1,1.1
				C540.2-1402.4,540.6-1401.4,541.4-1401.1 M541.6-1401.7c0.5,0.2,1.1-0.1,1.3-0.7s0-1.2-0.5-1.4c-0.5-0.2-1.1,0.1-1.3,0.7
				C540.9-1402.5,541.1-1401.9,541.6-1401.7"/>
		</g>
		<g transform="rotate(23.5)">
			<g id="G">
				<g>
					<defs>
						<path id="SVGID_3_" d="M544.1-1400.1l1.4-3.3l2.9,1.3l-1.4,3.3L544.1-1400.1z M546.6-1401.6l-0.2,0.6l1.5,0.6l0.2-0.6
							L546.6-1401.6z"/>
					</defs>
					<clipPath id="SVGID_1_">
						<use xlink:href="#SVGID_3_"  style="overflow:visible;"/>
					</clipPath>
					<g class="st6">
						<path id="O_2_" class="st5" d="M545.6-1399.4c0.8,0.4,1.8-0.1,2.2-1c0.4-0.9,0.1-1.9-0.8-2.3c-0.8-0.4-1.8,0.1-2.2,1
							S544.8-1399.8,545.6-1399.4 M545.9-1400c0.5,0.2,1.1-0.1,1.3-0.7s0.1-1.2-0.4-1.4c-0.5-0.2-1.1,0.1-1.3,0.7
							C545.2-1400.9,545.4-1400.2,545.9-1400"/>
					</g>
				</g>
				
					<rect x="546.8" y="-1401.1" transform="matrix(0.3987 -0.9171 0.9171 0.3987 1613.229 -340.3294)" class="st0" width="0.5" height="1.4"/>
				
					<rect x="546.3" y="-1400" transform="matrix(0.3987 -0.9171 0.9171 0.3987 1612.6179 -339.7561)" class="st0" width="1.8" height="0.5"/>
			</g>
		</g>
		<g transform="rotate(26.5)">
			<g id="R_2_">
				<g>
					<path id="P_3_" class="st5" d="M548.3-1398.2l0.6,0.3l0.6-1.2l1.3,0.6c0.6,0.3,1.2,0.1,1.5-0.5c0.3-0.6,0.1-1.2-0.5-1.5
						l-1.8-0.9L548.3-1398.2z M549.8-1399.7l1.2,0.6c0.2,0.1,0.5,0,0.6-0.2s0-0.5-0.2-0.6l-1.2-0.6L549.8-1399.7z"/>
				</g>
				<path class="st0" d="M551-1396.9c0.2-0.5,0.7-1.5,0-1.8l-0.9-0.4c1,0.5,0.5,1.5,0.3,2"/>
			</g>
		</g>
		<g transform="rotate(29.5)">
			<path id="E_1_" class="st0" d="M552.3-1396.2l2.8,1.6l0.3-0.6l-2.3-1.3l0.5-0.8l1.8,1l0.3-0.5l-1.8-1l0.4-0.6l2.1,1.2l0.3-0.6
				l-2.7-1.5L552.3-1396.2z"/>
		</g>
		<g transform="rotate(32.5)">
			<path id="S" class="st0" d="M557.5-1394.4c-0.2,0.3,0,0.6,0.4,0.9c0.4,0.3,0.7,0.3,0.8,0.1c0.4-0.6-1.9-1.5-1.2-2.6
				c0.6-0.9,1.6-0.2,2,0s1,0.9,0.5,1.6l-0.7-0.4c0.2-0.3,0-0.6-0.4-0.9c-0.3-0.2-0.6-0.3-0.8,0c-0.3,0.5,1.9,1.4,1.2,2.5
				c-0.5,0.8-1.4,0.4-2,0.1c-0.5-0.3-1.2-1.1-0.8-1.8L557.5-1394.4z"/>
		</g>
		<g transform="rotate(35.5)">
			<path id="S_1_" class="st0" d="M561.4-1391.9c-0.2,0.3,0,0.6,0.4,0.9s0.7,0.3,0.8,0.1c0.4-0.6-1.8-1.6-1-2.6
				c0.6-0.9,1.6-0.1,2,0.1s1,0.9,0.4,1.6l-0.6-0.5c0.2-0.3,0-0.6-0.3-0.9c-0.3-0.2-0.6-0.3-0.8,0c-0.4,0.5,1.8,1.5,1.1,2.6
				c-0.5,0.8-1.4,0.4-2,0c-0.5-0.3-1.2-1.1-0.7-1.8L561.4-1391.9z"/>
		</g>
		<g transform="rotate(38.5)">
			<path id="O_3_" class="st5" d="M565-1387.8c0.7,0.6,1.8,0.4,2.4-0.4s0.5-1.8-0.1-2.4c-0.7-0.6-1.8-0.4-2.4,0.4
				C564.2-1389.4,564.3-1388.3,565-1387.8 M565.4-1388.3c0.4,0.3,1.1,0.2,1.4-0.3c0.4-0.5,0.4-1.1,0-1.5s-1.1-0.2-1.4,0.3
				C565-1389.3,565-1388.6,565.4-1388.3"/>
		</g>
	</g>
	<g id="αCMi">
		<g id="star1">
			<g transform="scale(31.5)">
				<g id="star">
					<g id="c">
						<path id="t" class="st4" d="M81.9,66.7l-0.5,1.5l0.8,0.2"/>
						<g transform="scale(-1,1)">
							<path id="t_1_" class="st4" d="M81.9,66.7l0.5,1.5l-0.8,0.2"/>
						</g>
					</g>
					<g transform="rotate(72)">
						<g id="c_1_">
							<path id="t_2_" class="st4" d="M83.4,67.8h-1.6v0.8"/>
							<g transform="scale(-1,1)">
								<path id="t_3_" class="st4" d="M83.4,67.8l-1.3,0.9l-0.5-0.7"/>
							</g>
						</g>
					</g>
					<g transform="rotate(-72)">
						<g id="c_2_">
							<path id="t_4_" class="st4" d="M80.4,67.8l1.3,0.9l0.5-0.7"/>
							<g transform="scale(-1,1)">
								<path id="t_5_" class="st4" d="M80.4,67.8H82v0.8"/>
							</g>
						</g>
					</g>
					<g transform="rotate(144)">
						<g id="c_3_">
							<path id="t_6_" class="st4" d="M82.8,69.6L82.3,68l-0.8,0.2"/>
							<g transform="scale(-1,1)">
								<path id="t_7_" class="st4" d="M82.8,69.6l-1.3-0.9L82,68"/>
							</g>
						</g>
					</g>
					<g transform="rotate(216)">
						<g id="c_4_">
							<path id="t_8_" class="st4" d="M80.9,69.6l1.3-0.9L81.8,68"/>
							<g transform="scale(-1,1)">
								<path id="t_9_" class="st4" d="M80.9,69.6l0.5-1.5l0.8,0.2"/>
							</g>
						</g>
					</g>
				</g>
			</g>
		</g>
	</g>
	<g id="αCMa">
		<g id="star1_1_">
			<g transform="scale(31.5)">
				<g id="star_1_">
					<g id="c_5_">
						<path id="t_10_" class="st4" d="M85.2,82.4L84.7,84l0.8,0.2"/>
						<g transform="scale(-1,1)">
							<path id="t_11_" class="st4" d="M85.2,82.4l0.5,1.5l-0.8,0.2"/>
						</g>
					</g>
					<g transform="rotate(72)">
						<g id="c_6_">
							<path id="t_12_" class="st4" d="M86.7,83.5h-1.6v0.8"/>
							<g transform="scale(-1,1)">
								<path id="t_13_" class="st4" d="M86.7,83.5l-1.3,0.9L85,83.8"/>
							</g>
						</g>
					</g>
					<g transform="rotate(-72)">
						<g id="c_7_">
							<path id="t_14_" class="st4" d="M83.7,83.5l1.3,0.9l0.5-0.7"/>
							<g transform="scale(-1,1)">
								<path id="t_15_" class="st4" d="M83.7,83.5h1.6v0.8"/>
							</g>
						</g>
					</g>
					<g transform="rotate(144)">
						<g id="c_8_">
							<path id="t_16_" class="st4" d="M86.1,85.3l-0.5-1.5l-0.8,0.2"/>
							<g transform="scale(-1,1)">
								<path id="t_17_" class="st4" d="M86.1,85.3l-1.3-0.9l0.5-0.7"/>
							</g>
						</g>
					</g>
					<g transform="rotate(216)">
						<g id="c_9_">
							<path id="t_18_" class="st4" d="M84.3,85.3l1.3-0.9l-0.5-0.7"/>
							<g transform="scale(-1,1)">
								<path id="t_19_" class="st4" d="M84.3,85.3l0.5-1.5l0.8,0.2"/>
							</g>
						</g>
					</g>
				</g>
			</g>
		</g>
	</g>
	<g id="βCMa">
		<g id="star2">
			<g transform="scale(26.25)">
				<g id="star_2_">
					<g id="c_10_">
						<path id="t_20_" class="st4" d="M80.6,86.1l-0.4,1.3l0.6,0.2"/>
						<g transform="scale(-1,1)">
							<path id="t_21_" class="st4" d="M80.6,86.1l0.4,1.3l-0.6,0.2"/>
						</g>
					</g>
					<g transform="rotate(72)">
						<g id="c_11_">
							<path id="t_22_" class="st4" d="M81.9,87h-1.3v0.7"/>
							<g transform="scale(-1,1)">
								<path id="t_23_" class="st4" d="M81.9,87l-1.1,0.8l-0.4-0.5"/>
							</g>
						</g>
					</g>
					<g transform="rotate(-72)">
						<g id="c_12_">
							<path id="t_24_" class="st4" d="M79.3,87l1.1,0.8l0.4-0.5"/>
							<g transform="scale(-1,1)">
								<path id="t_25_" class="st4" d="M79.3,87h1.3v0.7"/>
							</g>
						</g>
					</g>
					<g transform="rotate(144)">
						<g id="c_13_">
							<path id="t_26_" class="st4" d="M81.4,88.5L81,87.2l-0.6,0.2"/>
							<g transform="scale(-1,1)">
								<path id="t_27_" class="st4" d="M81.4,88.5l-1.1-0.8l0.4-0.5"/>
							</g>
						</g>
					</g>
					<g transform="rotate(216)">
						<g id="c_14_">
							<path id="t_28_" class="st4" d="M79.8,88.5l1.1-0.8l-0.4-0.5"/>
							<g transform="scale(-1,1)">
								<path id="t_29_" class="st4" d="M79.8,88.5l0.4-1.3l0.6,0.2"/>
							</g>
						</g>
					</g>
				</g>
			</g>
		</g>
	</g>
	<g id="γCMa">
		<g id="star4">
			<g transform="scale(15)">
				<g id="star_3_">
					<g id="c_15_">
						<path id="t_30_" class="st4" d="M88.9,81l-0.2,0.7l0.4,0.1"/>
						<g transform="scale(-1,1)">
							<path id="t_31_" class="st4" d="M88.9,81l0.2,0.7l-0.4,0.1"/>
						</g>
					</g>
					<g transform="rotate(72)">
						<g id="c_16_">
							<path id="t_32_" class="st4" d="M89.6,81.5h-0.8v0.4"/>
							<g transform="scale(-1,1)">
								<path id="t_33_" class="st4" d="M89.6,81.5L89,81.9l-0.2-0.3"/>
							</g>
						</g>
					</g>
					<g transform="rotate(-72)">
						<g id="c_17_">
							<path id="t_34_" class="st4" d="M88.1,81.5l0.6,0.4l0.2-0.3"/>
							<g transform="scale(-1,1)">
								<path id="t_35_" class="st4" d="M88.1,81.5h0.8v0.4"/>
							</g>
						</g>
					</g>
					<g transform="rotate(144)">
						<g id="c_18_">
							<path id="t_36_" class="st4" d="M89.3,82.4l-0.2-0.7l-0.4,0.1"/>
							<g transform="scale(-1,1)">
								<path id="t_37_" class="st4" d="M89.3,82.4l-0.6-0.4l0.2-0.3"/>
							</g>
						</g>
					</g>
					<g transform="rotate(216)">
						<g id="c_19_">
							<path id="t_38_" class="st4" d="M88.4,82.4l0.6-0.4l-0.2-0.3"/>
							<g transform="scale(-1,1)">
								<path id="t_39_" class="st4" d="M88.4,82.4l0.2-0.7l0.4,0.1"/>
							</g>
						</g>
					</g>
				</g>
			</g>
		</g>
	</g>
	<g id="δCMa">
		<g id="star2_1_">
			<g transform="scale(26.25)">
				<g id="star_4_">
					<g id="c_20_">
						<path id="t_40_" class="st4" d="M93,86.4l-0.4,1.3l0.6,0.2"/>
						<g transform="scale(-1,1)">
							<path id="t_41_" class="st4" d="M93,86.4l0.4,1.3l-0.6,0.2"/>
						</g>
					</g>
					<g transform="rotate(72)">
						<g id="c_21_">
							<path id="t_42_" class="st4" d="M94.3,87.3h-1.3V88"/>
							<g transform="scale(-1,1)">
								<path id="t_43_" class="st4" d="M94.3,87.3l-1.1,0.8l-0.4-0.5"/>
							</g>
						</g>
					</g>
					<g transform="rotate(-72)">
						<g id="c_22_">
							<path id="t_44_" class="st4" d="M91.7,87.3l1.1,0.8l0.4-0.5"/>
							<g transform="scale(-1,1)">
								<path id="t_45_" class="st4" d="M91.7,87.3h1.3V88"/>
							</g>
						</g>
					</g>
					<g transform="rotate(144)">
						<g id="c_23_">
							<path id="t_46_" class="st4" d="M93.8,88.8l-0.4-1.3l-0.6,0.2"/>
							<g transform="scale(-1,1)">
								<path id="t_47_" class="st4" d="M93.8,88.8l-1.1-0.8l0.4-0.5"/>
							</g>
						</g>
					</g>
					<g transform="rotate(216)">
						<g id="c_24_">
							<path id="t_48_" class="st4" d="M92.2,88.8l1.1-0.8l-0.4-0.5"/>
							<g transform="scale(-1,1)">
								<path id="t_49_" class="st4" d="M92.2,88.8l0.4-1.3l0.6,0.2"/>
							</g>
						</g>
					</g>
				</g>
			</g>
		</g>
	</g>
	<g id="εCMa">
		<g id="star3">
			<g transform="scale(21)">
				<g id="star_5_">
					<g id="c_25_">
						<path id="t_50_" class="st4" d="M91.9,90.4l-0.3,1l0.5,0.2"/>
						<g transform="scale(-1,1)">
							<path id="t_51_" class="st4" d="M91.9,90.4l0.3,1l-0.5,0.2"/>
						</g>
					</g>
					<g transform="rotate(72)">
						<g id="c_26_">
							<path id="t_52_" class="st4" d="M92.9,91.1h-1.1v0.5"/>
							<g transform="scale(-1,1)">
								<path id="t_53_" class="st4" d="M92.9,91.1L92,91.8l-0.3-0.4"/>
							</g>
						</g>
					</g>
					<g transform="rotate(-72)">
						<g id="c_27_">
							<path id="t_54_" class="st4" d="M90.9,91.1l0.9,0.6l0.3-0.4"/>
							<g transform="scale(-1,1)">
								<path id="t_55_" class="st4" d="M90.9,91.1h1.1v0.5"/>
							</g>
						</g>
					</g>
					<g transform="rotate(144)">
						<g id="c_28_">
							<path id="t_56_" class="st4" d="M92.5,92.3l-0.3-1l-0.5,0.2"/>
							<g transform="scale(-1,1)">
								<path id="t_57_" class="st4" d="M92.5,92.3l-0.9-0.6l0.3-0.4"/>
							</g>
						</g>
					</g>
					<g transform="rotate(216)">
						<g id="c_29_">
							<path id="t_58_" class="st4" d="M91.3,92.3l0.9-0.6l-0.3-0.4"/>
							<g transform="scale(-1,1)">
								<path id="t_59_" class="st4" d="M91.3,92.3l0.3-1l0.5,0.2"/>
							</g>
						</g>
					</g>
				</g>
			</g>
		</g>
	</g>
	<g id="αVir">
		<g id="star1_2_">
			<g transform="scale(31.5)">
				<g id="star_6_">
					<g id="c_30_">
						<path id="t_60_" class="st4" d="M124.1,61.8l-0.5,1.5l0.8,0.2"/>
						<g transform="scale(-1,1)">
							<path id="t_61_" class="st4" d="M124.1,61.8l0.5,1.5l-0.8,0.2"/>
						</g>
					</g>
					<g transform="rotate(72)">
						<g id="c_31_">
							<path id="t_62_" class="st4" d="M125.7,62.9h-1.6v0.8"/>
							<g transform="scale(-1,1)">
								<path id="t_63_" class="st4" d="M125.7,62.9l-1.3,0.9l-0.5-0.7"/>
							</g>
						</g>
					</g>
					<g transform="rotate(-72)">
						<g id="c_32_">
							<path id="t_64_" class="st4" d="M122.6,62.9l1.3,0.9l0.5-0.7"/>
							<g transform="scale(-1,1)">
								<path id="t_65_" class="st4" d="M122.6,62.9h1.6v0.8"/>
							</g>
						</g>
					</g>
					<g transform="rotate(144)">
						<g id="c_33_">
							<path id="t_66_" class="st4" d="M125.1,64.7l-0.5-1.5l-0.8,0.2"/>
							<g transform="scale(-1,1)">
								<path id="t_67_" class="st4" d="M125.1,64.7l-1.3-0.9l0.5-0.7"/>
							</g>
						</g>
					</g>
					<g transform="rotate(216)">
						<g id="c_34_">
							<path id="t_68_" class="st4" d="M123.2,64.7l1.3-0.9l-0.5-0.7"/>
							<g transform="scale(-1,1)">
								<path id="t_69_" class="st4" d="M123.2,64.7l0.5-1.5l0.8,0.2"/>
							</g>
						</g>
					</g>
				</g>
			</g>
		</g>
	</g>
	<g id="αSco">
		<g id="star1_3_">
			<g transform="scale(31.5)">
				<g id="star_7_">
					<g id="c_35_">
						<path id="t_70_" class="st4" d="M138.8,86.6l-0.5,1.5l0.8,0.2"/>
						<g transform="scale(-1,1)">
							<path id="t_71_" class="st4" d="M138.8,86.6l0.5,1.5l-0.8,0.2"/>
						</g>
					</g>
					<g transform="rotate(72)">
						<g id="c_36_">
							<path id="t_72_" class="st4" d="M140.3,87.7h-1.6v0.8"/>
							<g transform="scale(-1,1)">
								<path id="t_73_" class="st4" d="M140.3,87.7l-1.3,0.9l-0.5-0.7"/>
							</g>
						</g>
					</g>
					<g transform="rotate(-72)">
						<g id="c_37_">
							<path id="t_74_" class="st4" d="M137.2,87.7l1.3,0.9L139,88"/>
							<g transform="scale(-1,1)">
								<path id="t_75_" class="st4" d="M137.2,87.7h1.6v0.8"/>
							</g>
						</g>
					</g>
					<g transform="rotate(144)">
						<g id="c_38_">
							<path id="t_76_" class="st4" d="M139.7,89.5l-0.5-1.5l-0.8,0.2"/>
							<g transform="scale(-1,1)">
								<path id="t_77_" class="st4" d="M139.7,89.5l-1.3-0.9l0.5-0.7"/>
							</g>
						</g>
					</g>
					<g transform="rotate(216)">
						<g id="c_39_">
							<path id="t_78_" class="st4" d="M137.8,89.5l1.3-0.9l-0.5-0.7"/>
							<g transform="scale(-1,1)">
								<path id="t_79_" class="st4" d="M137.8,89.5l0.5-1.5l0.8,0.2"/>
							</g>
						</g>
					</g>
				</g>
			</g>
		</g>
	</g>
	<g id="βSco">
		<g id="star3_1_">
			<g transform="scale(21)">
				<g id="star_8_">
					<g id="c_40_">
						<path id="t_80_" class="st4" d="M144,87.4l-0.3,1l0.5,0.2"/>
						<g transform="scale(-1,1)">
							<path id="t_81_" class="st4" d="M144,87.4l0.3,1l-0.5,0.2"/>
						</g>
					</g>
					<g transform="rotate(72)">
						<g id="c_41_">
							<path id="t_82_" class="st4" d="M145,88.2h-1.1v0.5"/>
							<g transform="scale(-1,1)">
								<path id="t_83_" class="st4" d="M145,88.2l-0.9,0.6l-0.3-0.4"/>
							</g>
						</g>
					</g>
					<g transform="rotate(-72)">
						<g id="c_42_">
							<path id="t_84_" class="st4" d="M143,88.2l0.9,0.6l0.3-0.4"/>
							<g transform="scale(-1,1)">
								<path id="t_85_" class="st4" d="M143,88.2h1.1v0.5"/>
							</g>
						</g>
					</g>
					<g transform="rotate(144)">
						<g id="c_43_">
							<path id="t_86_" class="st4" d="M144.6,89.4l-0.3-1l-0.5,0.2"/>
							<g transform="scale(-1,1)">
								<path id="t_87_" class="st4" d="M144.6,89.4l-0.9-0.6l0.3-0.4"/>
							</g>
						</g>
					</g>
					<g transform="rotate(216)">
						<g id="c_44_">
							<path id="t_88_" class="st4" d="M143.3,89.4l0.9-0.6l-0.3-0.4"/>
							<g transform="scale(-1,1)">
								<path id="t_89_" class="st4" d="M143.3,89.4l0.3-1l0.5,0.2"/>
							</g>
						</g>
					</g>
				</g>
			</g>
		</g>
	</g>
	<g id="εSco">
		<g id="star2_2_">
			<g transform="scale(26.25)">
				<g id="star_9_">
					<g id="c_45_">
						<path id="t_90_" class="st4" d="M140.3,90.1l-0.4,1.3l0.6,0.2"/>
						<g transform="scale(-1,1)">
							<path id="t_91_" class="st4" d="M140.3,90.1l0.4,1.3l-0.6,0.2"/>
						</g>
					</g>
					<g transform="rotate(72)">
						<g id="c_46_">
							<path id="t_92_" class="st4" d="M141.6,91.1h-1.3v0.7"/>
							<g transform="scale(-1,1)">
								<path id="t_93_" class="st4" d="M141.6,91.1l-1.1,0.8l-0.4-0.5"/>
							</g>
						</g>
					</g>
					<g transform="rotate(-72)">
						<g id="c_47_">
							<path id="t_94_" class="st4" d="M139,91.1l1.1,0.8l0.4-0.5"/>
							<g transform="scale(-1,1)">
								<path id="t_95_" class="st4" d="M139,91.1h1.3v0.7"/>
							</g>
						</g>
					</g>
					<g transform="rotate(144)">
						<g id="c_48_">
							<path id="t_96_" class="st4" d="M141.1,92.6l-0.4-1.3l-0.6,0.2"/>
							<g transform="scale(-1,1)">
								<path id="t_97_" class="st4" d="M141.1,92.6l-1.1-0.8l0.4-0.5"/>
							</g>
						</g>
					</g>
					<g transform="rotate(216)">
						<g id="c_49_">
							<path id="t_98_" class="st4" d="M139.5,92.6l1.1-0.8l-0.4-0.5"/>
							<g transform="scale(-1,1)">
								<path id="t_99_" class="st4" d="M139.5,92.6l0.4-1.3l0.6,0.2"/>
							</g>
						</g>
					</g>
				</g>
			</g>
		</g>
	</g>
	<g id="θSco">
		<g id="star2_3_">
			<g transform="scale(26.25)">
				<g id="star_10_">
					<g id="c_50_">
						<path id="t_100_" class="st4" d="M131.3,98l-0.4,1.3l0.6,0.2"/>
						<g transform="scale(-1,1)">
							<path id="t_101_" class="st4" d="M131.3,98l0.4,1.3l-0.6,0.2"/>
						</g>
					</g>
					<g transform="rotate(72)">
						<g id="c_51_">
							<path id="t_102_" class="st4" d="M132.5,98.9h-1.3v0.7"/>
							<g transform="scale(-1,1)">
								<path id="t_103_" class="st4" d="M132.5,98.9l-1.1,0.8l-0.4-0.5"/>
							</g>
						</g>
					</g>
					<g transform="rotate(-72)">
						<g id="c_52_">
							<path id="t_104_" class="st4" d="M130,98.9l1.1,0.8l0.4-0.5"/>
							<g transform="scale(-1,1)">
								<path id="t_105_" class="st4" d="M130,98.9h1.3v0.7"/>
							</g>
						</g>
					</g>
					<g transform="rotate(144)">
						<g id="c_53_">
							<path id="t_106_" class="st4" d="M132.1,100.4l-0.4-1.3l-0.6,0.2"/>
							<g transform="scale(-1,1)">
								<path id="t_107_" class="st4" d="M132.1,100.4l-1.1-0.8l0.4-0.5"/>
							</g>
						</g>
					</g>
					<g transform="rotate(216)">
						<g id="c_54_">
							<path id="t_108_" class="st4" d="M130.5,100.4l1.1-0.8l-0.4-0.5"/>
							<g transform="scale(-1,1)">
								<path id="t_109_" class="st4" d="M130.5,100.4l0.4-1.3l0.6,0.2"/>
							</g>
						</g>
					</g>
				</g>
			</g>
		</g>
	</g>
	<g id="ιSco">
		<g id="star3_2_">
			<g transform="scale(21)">
				<g id="star_11_">
					<g id="c_55_">
						<path id="t_110_" class="st4" d="M131.2,102l-0.3,1l0.5,0.2"/>
						<g transform="scale(-1,1)">
							<path id="t_111_" class="st4" d="M131.2,102l0.3,1l-0.5,0.2"/>
						</g>
					</g>
					<g transform="rotate(72)">
						<g id="c_56_">
							<path id="t_112_" class="st4" d="M132.2,102.8h-1.1v0.5"/>
							<g transform="scale(-1,1)">
								<path id="t_113_" class="st4" d="M132.2,102.8l-0.9,0.6l-0.3-0.4"/>
							</g>
						</g>
					</g>
					<g transform="rotate(-72)">
						<g id="c_57_">
							<path id="t_114_" class="st4" d="M130.2,102.8l0.9,0.6l0.3-0.4"/>
							<g transform="scale(-1,1)">
								<path id="t_115_" class="st4" d="M130.2,102.8h1.1v0.5"/>
							</g>
						</g>
					</g>
					<g transform="rotate(144)">
						<g id="c_58_">
							<path id="t_116_" class="st4" d="M131.9,104l-0.3-1l-0.5,0.2"/>
							<g transform="scale(-1,1)">
								<path id="t_117_" class="st4" d="M131.9,104l-0.9-0.6l0.3-0.4"/>
							</g>
						</g>
					</g>
					<g transform="rotate(216)">
						<g id="c_59_">
							<path id="t_118_" class="st4" d="M130.6,104l0.9-0.6l-0.3-0.4"/>
							<g transform="scale(-1,1)">
								<path id="t_119_" class="st4" d="M130.6,104l0.3-1l0.5,0.2"/>
							</g>
						</g>
					</g>
				</g>
			</g>
		</g>
	</g>
	<g id="κSco">
		<g id="star3_3_">
			<g transform="scale(21)">
				<g id="star_12_">
					<g id="c_60_">
						<path id="t_120_" class="st4" d="M135,95.3l-0.3,1l0.5,0.2"/>
						<g transform="scale(-1,1)">
							<path id="t_121_" class="st4" d="M135,95.3l0.3,1l-0.5,0.2"/>
						</g>
					</g>
					<g transform="rotate(72)">
						<g id="c_61_">
							<path id="t_122_" class="st4" d="M136,96h-1.1v0.5"/>
							<g transform="scale(-1,1)">
								<path id="t_123_" class="st4" d="M136,96l-0.9,0.6l-0.3-0.4"/>
							</g>
						</g>
					</g>
					<g transform="rotate(-72)">
						<g id="c_62_">
							<path id="t_124_" class="st4" d="M134,96l0.9,0.6l0.3-0.4"/>
							<g transform="scale(-1,1)">
								<path id="t_125_" class="st4" d="M134,96h1.1v0.5"/>
							</g>
						</g>
					</g>
					<g transform="rotate(144)">
						<g id="c_63_">
							<path id="t_126_" class="st4" d="M135.6,97.2l-0.3-1l-0.5,0.2"/>
							<g transform="scale(-1,1)">
								<path id="t_127_" class="st4" d="M135.6,97.2l-0.9-0.6l0.3-0.4"/>
							</g>
						</g>
					</g>
					<g transform="rotate(216)">
						<g id="c_64_">
							<path id="t_128_" class="st4" d="M134.4,97.2l0.9-0.6l-0.3-0.4"/>
							<g transform="scale(-1,1)">
								<path id="t_129_" class="st4" d="M134.4,97.2l0.3-1l0.5,0.2"/>
							</g>
						</g>
					</g>
				</g>
			</g>
		</g>
	</g>
	<g id="λSco">
		<g id="star2_4_">
			<g transform="scale(26.25)">
				<g id="star_13_">
					<g id="c_65_">
						<path id="t_130_" class="st4" d="M138,93.2l-0.4,1.3l0.6,0.2"/>
						<g transform="scale(-1,1)">
							<path id="t_131_" class="st4" d="M138,93.2l0.4,1.3l-0.6,0.2"/>
						</g>
					</g>
					<g transform="rotate(72)">
						<g id="c_66_">
							<path id="t_132_" class="st4" d="M139.3,94.1h-1.3v0.7"/>
							<g transform="scale(-1,1)">
								<path id="t_133_" class="st4" d="M139.3,94.1l-1.1,0.8l-0.4-0.5"/>
							</g>
						</g>
					</g>
					<g transform="rotate(-72)">
						<g id="c_67_">
							<path id="t_134_" class="st4" d="M136.7,94.1l1.1,0.8l0.4-0.5"/>
							<g transform="scale(-1,1)">
								<path id="t_135_" class="st4" d="M136.7,94.1h1.3v0.7"/>
							</g>
						</g>
					</g>
					<g transform="rotate(144)">
						<g id="c_68_">
							<path id="t_136_" class="st4" d="M138.8,95.6l-0.4-1.3l-0.6,0.2"/>
							<g transform="scale(-1,1)">
								<path id="t_137_" class="st4" d="M138.8,95.6l-1.1-0.8l0.4-0.5"/>
							</g>
						</g>
					</g>
					<g transform="rotate(216)">
						<g id="c_69_">
							<path id="t_138_" class="st4" d="M137.2,95.6l1.1-0.8l-0.4-0.5"/>
							<g transform="scale(-1,1)">
								<path id="t_139_" class="st4" d="M137.2,95.6l0.4-1.3l0.6,0.2"/>
							</g>
						</g>
					</g>
				</g>
			</g>
		</g>
	</g>
	<g id="μSco">
		<g id="star3_4_">
			<g transform="scale(21)">
				<g id="star_14_">
					<g id="c_70_">
						<path id="t_140_" class="st4" d="M131.1,94.6l-0.3,1l0.5,0.2"/>
						<g transform="scale(-1,1)">
							<path id="t_141_" class="st4" d="M131.1,94.6l0.3,1l-0.5,0.2"/>
						</g>
					</g>
					<g transform="rotate(72)">
						<g id="c_71_">
							<path id="t_142_" class="st4" d="M132.1,95.3h-1.1v0.5"/>
							<g transform="scale(-1,1)">
								<path id="t_143_" class="st4" d="M132.1,95.3l-0.9,0.6l-0.3-0.4"/>
							</g>
						</g>
					</g>
					<g transform="rotate(-72)">
						<g id="c_72_">
							<path id="t_144_" class="st4" d="M130.1,95.3L131,96l0.3-0.4"/>
							<g transform="scale(-1,1)">
								<path id="t_145_" class="st4" d="M130.1,95.3h1.1v0.5"/>
							</g>
						</g>
					</g>
					<g transform="rotate(144)">
						<g id="c_73_">
							<path id="t_146_" class="st4" d="M131.8,96.5l-0.3-1l-0.5,0.2"/>
							<g transform="scale(-1,1)">
								<path id="t_147_" class="st4" d="M131.8,96.5l-0.9-0.6l0.3-0.4"/>
							</g>
						</g>
					</g>
					<g transform="rotate(216)">
						<g id="c_74_">
							<path id="t_148_" class="st4" d="M130.5,96.5l0.9-0.6l-0.3-0.4"/>
							<g transform="scale(-1,1)">
								<path id="t_149_" class="st4" d="M130.5,96.5l0.3-1l0.5,0.2"/>
							</g>
						</g>
					</g>
				</g>
			</g>
		</g>
	</g>
	<g id="αHya">
		<g id="star2_5_">
			<g transform="scale(26.25)">
				<g id="star_15_">
					<g id="c_75_">
						<path id="t_150_" class="st4" d="M98.2,75.2l-0.4,1.3l0.6,0.2"/>
						<g transform="scale(-1,1)">
							<path id="t_151_" class="st4" d="M98.2,75.2l0.4,1.3L98,76.7"/>
						</g>
					</g>
					<g transform="rotate(72)">
						<g id="c_76_">
							<path id="t_152_" class="st4" d="M99.5,76.1h-1.3v0.7"/>
							<g transform="scale(-1,1)">
								<path id="t_153_" class="st4" d="M99.5,76.1l-1.1,0.8L98,76.4"/>
							</g>
						</g>
					</g>
					<g transform="rotate(-72)">
						<g id="c_77_">
							<path id="t_154_" class="st4" d="M96.9,76.1l1.1,0.8l0.4-0.5"/>
							<g transform="scale(-1,1)">
								<path id="t_155_" class="st4" d="M96.9,76.1h1.3v0.7"/>
							</g>
						</g>
					</g>
					<g transform="rotate(144)">
						<g id="c_78_">
							<path id="t_156_" class="st4" d="M99,77.6l-0.4-1.3L98,76.5"/>
							<g transform="scale(-1,1)">
								<path id="t_157_" class="st4" d="M99,77.6l-1.1-0.8l0.4-0.5"/>
							</g>
						</g>
					</g>
					<g transform="rotate(216)">
						<g id="c_79_">
							<path id="t_158_" class="st4" d="M97.4,77.6l1.1-0.8l-0.4-0.5"/>
							<g transform="scale(-1,1)">
								<path id="t_159_" class="st4" d="M97.4,77.6l0.4-1.3l0.6,0.2"/>
							</g>
						</g>
					</g>
				</g>
			</g>
		</g>
	</g>
	<g id="γHya">
		<g id="star3_5_">
			<g transform="scale(21)">
				<g id="star_16_">
					<g id="c_80_">
						<path id="t_160_" class="st4" d="M122.7,72l-0.3,1l0.5,0.2"/>
						<g transform="scale(-1,1)">
							<path id="t_161_" class="st4" d="M122.7,72l0.3,1l-0.5,0.2"/>
						</g>
					</g>
					<g transform="rotate(72)">
						<g id="c_81_">
							<path id="t_162_" class="st4" d="M123.7,72.8h-1.1v0.5"/>
							<g transform="scale(-1,1)">
								<path id="t_163_" class="st4" d="M123.7,72.8l-0.9,0.6l-0.3-0.4"/>
							</g>
						</g>
					</g>
					<g transform="rotate(-72)">
						<g id="c_82_">
							<path id="t_164_" class="st4" d="M121.7,72.8l0.9,0.6l0.3-0.4"/>
							<g transform="scale(-1,1)">
								<path id="t_165_" class="st4" d="M121.7,72.8h1.1v0.5"/>
							</g>
						</g>
					</g>
					<g transform="rotate(144)">
						<g id="c_83_">
							<path id="t_166_" class="st4" d="M123.3,74l-0.3-1l-0.5,0.2"/>
							<g transform="scale(-1,1)">
								<path id="t_167_" class="st4" d="M123.3,74l-0.9-0.6l0.3-0.4"/>
							</g>
						</g>
					</g>
					<g transform="rotate(216)">
						<g id="c_84_">
							<path id="t_168_" class="st4" d="M122.1,74l0.9-0.6l-0.3-0.4"/>
							<g transform="scale(-1,1)">
								<path id="t_169_" class="st4" d="M122.1,74l0.3-1l0.5,0.2"/>
							</g>
						</g>
					</g>
				</g>
			</g>
		</g>
	</g>
	<g id="αCru">
		<g id="star1_4_">
			<g transform="scale(31.5)">
				<g id="star_17_">
					<g id="c_85_">
						<path id="t_170_" class="st4" d="M112.5,90.2l-0.5,1.5l0.8,0.2"/>
						<g transform="scale(-1,1)">
							<path id="t_171_" class="st4" d="M112.5,90.2l0.5,1.5l-0.8,0.2"/>
						</g>
					</g>
					<g transform="rotate(72)">
						<g id="c_86_">
							<path id="t_172_" class="st4" d="M114,91.3h-1.6v0.8"/>
							<g transform="scale(-1,1)">
								<path id="t_173_" class="st4" d="M114,91.3l-1.3,0.9l-0.5-0.7"/>
							</g>
						</g>
					</g>
					<g transform="rotate(-72)">
						<g id="c_87_">
							<path id="t_174_" class="st4" d="M111,91.3l1.3,0.9l0.5-0.7"/>
							<g transform="scale(-1,1)">
								<path id="t_175_" class="st4" d="M111,91.3h1.6v0.8"/>
							</g>
						</g>
					</g>
					<g transform="rotate(144)">
						<g id="c_88_">
							<path id="t_176_" class="st4" d="M113.4,93.1l-0.5-1.5l-0.8,0.2"/>
							<g transform="scale(-1,1)">
								<path id="t_177_" class="st4" d="M113.4,93.1l-1.3-0.9l0.5-0.7"/>
							</g>
						</g>
					</g>
					<g transform="rotate(216)">
						<g id="c_89_">
							<path id="t_178_" class="st4" d="M111.6,93.1l1.3-0.9l-0.5-0.7"/>
							<g transform="scale(-1,1)">
								<path id="t_179_" class="st4" d="M111.6,93.1l0.5-1.5l0.8,0.2"/>
							</g>
						</g>
					</g>
				</g>
			</g>
		</g>
	</g>
	<g id="βCru">
		<g id="star2_6_">
			<g transform="scale(26.25)">
				<g id="star_18_">
					<g id="c_90_">
						<path id="t_180_" class="st4" d="M116.8,83l-0.4,1.3l0.6,0.2"/>
						<g transform="scale(-1,1)">
							<path id="t_181_" class="st4" d="M116.8,83l0.4,1.3l-0.6,0.2"/>
						</g>
					</g>
					<g transform="rotate(72)">
						<g id="c_91_">
							<path id="t_182_" class="st4" d="M118.1,84h-1.3v0.7"/>
							<g transform="scale(-1,1)">
								<path id="t_183_" class="st4" d="M118.1,84l-1.1,0.8l-0.4-0.5"/>
							</g>
						</g>
					</g>
					<g transform="rotate(-72)">
						<g id="c_92_">
							<path id="t_184_" class="st4" d="M115.6,84l1.1,0.8l0.4-0.5"/>
							<g transform="scale(-1,1)">
								<path id="t_185_" class="st4" d="M115.6,84h1.3v0.7"/>
							</g>
						</g>
					</g>
					<g transform="rotate(144)">
						<g id="c_93_">
							<path id="t_186_" class="st4" d="M117.6,85.5l-0.4-1.3l-0.6,0.2"/>
							<g transform="scale(-1,1)">
								<path id="t_187_" class="st4" d="M117.6,85.5l-1.1-0.8l0.4-0.5"/>
							</g>
						</g>
					</g>
					<g transform="rotate(216)">
						<g id="c_94_">
							<path id="t_188_" class="st4" d="M116,85.5l1.1-0.8l-0.4-0.5"/>
							<g transform="scale(-1,1)">
								<path id="t_189_" class="st4" d="M116,85.5l0.4-1.3l0.6,0.2"/>
							</g>
						</g>
					</g>
				</g>
			</g>
		</g>
	</g>
	<g id="γCru">
		<g id="star2_7_">
			<g transform="scale(26.25)">
				<g id="star_19_">
					<g id="c_95_">
						<path id="t_190_" class="st4" d="M112.5,79.7l-0.4,1.3l0.6,0.2"/>
						<g transform="scale(-1,1)">
							<path id="t_191_" class="st4" d="M112.5,79.7l0.4,1.3l-0.6,0.2"/>
						</g>
					</g>
					<g transform="rotate(72)">
						<g id="c_96_">
							<path id="t_192_" class="st4" d="M113.8,80.6h-1.3v0.7"/>
							<g transform="scale(-1,1)">
								<path id="t_193_" class="st4" d="M113.8,80.6l-1.1,0.8l-0.4-0.5"/>
							</g>
						</g>
					</g>
					<g transform="rotate(-72)">
						<g id="c_97_">
							<path id="t_194_" class="st4" d="M111.2,80.6l1.1,0.8l0.4-0.5"/>
							<g transform="scale(-1,1)">
								<path id="t_195_" class="st4" d="M111.2,80.6h1.3v0.7"/>
							</g>
						</g>
					</g>
					<g transform="rotate(144)">
						<g id="c_98_">
							<path id="t_196_" class="st4" d="M113.3,82.1l-0.4-1.3l-0.6,0.2"/>
							<g transform="scale(-1,1)">
								<path id="t_197_" class="st4" d="M113.3,82.1l-1.1-0.8l0.4-0.5"/>
							</g>
						</g>
					</g>
					<g transform="rotate(216)">
						<g id="c_99_">
							<path id="t_198_" class="st4" d="M111.7,82.1l1.1-0.8l-0.4-0.5"/>
							<g transform="scale(-1,1)">
								<path id="t_199_" class="st4" d="M111.7,82.1l0.4-1.3l0.6,0.2"/>
							</g>
						</g>
					</g>
				</g>
			</g>
		</g>
	</g>
	<g id="δCru">
		<g id="star3_6_">
			<g transform="scale(21)">
				<g id="star_20_">
					<g id="c_100_">
						<path id="t_200_" class="st4" d="M108.7,83.3l-0.3,1l0.5,0.2"/>
						<g transform="scale(-1,1)">
							<path id="t_201_" class="st4" d="M108.7,83.3l0.3,1l-0.5,0.2"/>
						</g>
					</g>
					<g transform="rotate(72)">
						<g id="c_101_">
							<path id="t_202_" class="st4" d="M109.7,84.1h-1.1v0.5"/>
							<g transform="scale(-1,1)">
								<path id="t_203_" class="st4" d="M109.7,84.1l-0.9,0.6l-0.3-0.4"/>
							</g>
						</g>
					</g>
					<g transform="rotate(-72)">
						<g id="c_102_">
							<path id="t_204_" class="st4" d="M107.7,84.1l0.9,0.6l0.3-0.4"/>
							<g transform="scale(-1,1)">
								<path id="t_205_" class="st4" d="M107.7,84.1h1.1v0.5"/>
							</g>
						</g>
					</g>
					<g transform="rotate(144)">
						<g id="c_103_">
							<path id="t_206_" class="st4" d="M109.4,85.3l-0.3-1l-0.5,0.2"/>
							<g transform="scale(-1,1)">
								<path id="t_207_" class="st4" d="M109.4,85.3l-0.9-0.6l0.3-0.4"/>
							</g>
						</g>
					</g>
					<g transform="rotate(216)">
						<g id="c_104_">
							<path id="t_208_" class="st4" d="M108.1,85.3l0.9-0.6l-0.3-0.4"/>
							<g transform="scale(-1,1)">
								<path id="t_209_" class="st4" d="M108.1,85.3l0.3-1l0.5,0.2"/>
							</g>
						</g>
					</g>
				</g>
			</g>
		</g>
	</g>
	<g id="εCru">
		<g id="star4_1_">
			<g transform="scale(15)">
				<g id="star_21_">
					<g id="c_105_">
						<path id="t_210_" class="st4" d="M110.6,86.2l-0.2,0.7l0.4,0.1"/>
						<g transform="scale(-1,1)">
							<path id="t_211_" class="st4" d="M110.6,86.2l0.2,0.7l-0.4,0.1"/>
						</g>
					</g>
					<g transform="rotate(72)">
						<g id="c_106_">
							<path id="t_212_" class="st4" d="M111.3,86.8h-0.8v0.4"/>
							<g transform="scale(-1,1)">
								<path id="t_213_" class="st4" d="M111.3,86.8l-0.6,0.4l-0.2-0.3"/>
							</g>
						</g>
					</g>
					<g transform="rotate(-72)">
						<g id="c_107_">
							<path id="t_214_" class="st4" d="M109.9,86.8l0.6,0.4l0.2-0.3"/>
							<g transform="scale(-1,1)">
								<path id="t_215_" class="st4" d="M109.9,86.8h0.8v0.4"/>
							</g>
						</g>
					</g>
					<g transform="rotate(144)">
						<g id="c_108_">
							<path id="t_216_" class="st4" d="M111.1,87.6l-0.2-0.7l-0.4,0.1"/>
							<g transform="scale(-1,1)">
								<path id="t_217_" class="st4" d="M111.1,87.6l-0.6-0.4l0.2-0.3"/>
							</g>
						</g>
					</g>
					<g transform="rotate(216)">
						<g id="c_109_">
							<path id="t_218_" class="st4" d="M110.2,87.6l0.6-0.4l-0.2-0.3"/>
							<g transform="scale(-1,1)">
								<path id="t_219_" class="st4" d="M110.2,87.6l0.2-0.7l0.4,0.1"/>
							</g>
						</g>
					</g>
				</g>
			</g>
		</g>
	</g>
	<g id="αTrA">
		<g id="star2_8_">
			<g transform="scale(26.25)">
				<g id="star_22_">
					<g id="c_110_">
						<path id="t_220_" class="st4" d="M123.7,98.9l-0.4,1.3l0.6,0.2"/>
						<g transform="scale(-1,1)">
							<path id="t_221_" class="st4" d="M123.7,98.9l0.4,1.3l-0.6,0.2"/>
						</g>
					</g>
					<g transform="rotate(72)">
						<g id="c_111_">
							<path id="t_222_" class="st4" d="M125,99.8h-1.3v0.7"/>
							<g transform="scale(-1,1)">
								<path id="t_223_" class="st4" d="M125,99.8l-1.1,0.8l-0.4-0.5"/>
							</g>
						</g>
					</g>
					<g transform="rotate(-72)">
						<g id="c_112_">
							<path id="t_224_" class="st4" d="M122.5,99.8l1.1,0.8l0.4-0.5"/>
							<g transform="scale(-1,1)">
								<path id="t_225_" class="st4" d="M122.5,99.8h1.3v0.7"/>
							</g>
						</g>
					</g>
					<g transform="rotate(144)">
						<g id="c_113_">
							<path id="t_226_" class="st4" d="M124.5,101.3l-0.4-1.3l-0.6,0.2"/>
							<g transform="scale(-1,1)">
								<path id="t_227_" class="st4" d="M124.5,101.3l-1.1-0.8l0.4-0.5"/>
							</g>
						</g>
					</g>
					<g transform="rotate(216)">
						<g id="c_114_">
							<path id="t_228_" class="st4" d="M122.9,101.3l1.1-0.8l-0.4-0.5"/>
							<g transform="scale(-1,1)">
								<path id="t_229_" class="st4" d="M122.9,101.3l0.4-1.3l0.6,0.2"/>
							</g>
						</g>
					</g>
				</g>
			</g>
		</g>
	</g>
	<g id="βTrA">
		<g id="star3_7_">
			<g transform="scale(21)">
				<g id="star_23_">
					<g id="c_115_">
						<path id="t_230_" class="st4" d="M126.9,95.9l-0.3,1l0.5,0.2"/>
						<g transform="scale(-1,1)">
							<path id="t_231_" class="st4" d="M126.9,95.9l0.3,1l-0.5,0.2"/>
						</g>
					</g>
					<g transform="rotate(72)">
						<g id="c_116_">
							<path id="t_232_" class="st4" d="M128,96.6h-1.1v0.5"/>
							<g transform="scale(-1,1)">
								<path id="t_233_" class="st4" d="M128,96.6l-0.9,0.6l-0.3-0.4"/>
							</g>
						</g>
					</g>
					<g transform="rotate(-72)">
						<g id="c_117_">
							<path id="t_234_" class="st4" d="M125.9,96.6l0.9,0.6l0.3-0.4"/>
							<g transform="scale(-1,1)">
								<path id="t_235_" class="st4" d="M125.9,96.6h1.1v0.5"/>
							</g>
						</g>
					</g>
					<g transform="rotate(144)">
						<g id="c_118_">
							<path id="t_236_" class="st4" d="M127.6,97.8l-0.3-1l-0.5,0.2"/>
							<g transform="scale(-1,1)">
								<path id="t_237_" class="st4" d="M127.6,97.8l-0.9-0.6l0.3-0.4"/>
							</g>
						</g>
					</g>
					<g transform="rotate(216)">
						<g id="c_119_">
							<path id="t_238_" class="st4" d="M126.3,97.8l0.9-0.6l-0.3-0.4"/>
							<g transform="scale(-1,1)">
								<path id="t_239_" class="st4" d="M126.3,97.8l0.3-1l0.5,0.2"/>
							</g>
						</g>
					</g>
				</g>
			</g>
		</g>
	</g>
	<g id="γTrA">
		<g id="star3_8_">
			<g transform="scale(21)">
				<g id="star_24_">
					<g id="c_120_">
						<path id="t_240_" class="st4" d="M120.8,94.9l-0.3,1l0.5,0.2"/>
						<g transform="scale(-1,1)">
							<path id="t_241_" class="st4" d="M120.8,94.9l0.3,1l-0.5,0.2"/>
						</g>
					</g>
					<g transform="rotate(72)">
						<g id="c_121_">
							<path id="t_242_" class="st4" d="M121.8,95.7h-1.1v0.5"/>
							<g transform="scale(-1,1)">
								<path id="t_243_" class="st4" d="M121.8,95.7l-0.9,0.6l-0.3-0.4"/>
							</g>
						</g>
					</g>
					<g transform="rotate(-72)">
						<g id="c_122_">
							<path id="t_244_" class="st4" d="M119.7,95.7l0.9,0.6l0.3-0.4"/>
							<g transform="scale(-1,1)">
								<path id="t_245_" class="st4" d="M119.7,95.7h1.1v0.5"/>
							</g>
						</g>
					</g>
					<g transform="rotate(144)">
						<g id="c_123_">
							<path id="t_246_" class="st4" d="M121.4,96.9l-0.3-1l-0.5,0.2"/>
							<g transform="scale(-1,1)">
								<path id="t_247_" class="st4" d="M121.4,96.9l-0.9-0.6l0.3-0.4"/>
							</g>
						</g>
					</g>
					<g transform="rotate(216)">
						<g id="c_124_">
							<path id="t_248_" class="st4" d="M120.1,96.9l0.9-0.6l-0.3-0.4"/>
							<g transform="scale(-1,1)">
								<path id="t_249_" class="st4" d="M120.1,96.9l0.3-1L121,96"/>
							</g>
						</g>
					</g>
				</g>
			</g>
		</g>
	</g>
	<g id="αCar">
		<g id="star1_5_">
			<g transform="scale(31.5)">
				<g id="star_25_">
					<g id="c_125_">
						<path id="t_250_" class="st4" d="M97.4,93.3L97,94.8l0.8,0.2"/>
						<g transform="scale(-1,1)">
							<path id="t_251_" class="st4" d="M97.4,93.3l0.5,1.5l-0.8,0.2"/>
						</g>
					</g>
					<g transform="rotate(72)">
						<g id="c_126_">
							<path id="t_252_" class="st4" d="M99,94.4h-1.6v0.8"/>
							<g transform="scale(-1,1)">
								<path id="t_253_" class="st4" d="M99,94.4l-1.3,0.9l-0.5-0.7"/>
							</g>
						</g>
					</g>
					<g transform="rotate(-72)">
						<g id="c_127_">
							<path id="t_254_" class="st4" d="M95.9,94.4l1.3,0.9l0.5-0.7"/>
							<g transform="scale(-1,1)">
								<path id="t_255_" class="st4" d="M95.9,94.4h1.6v0.8"/>
							</g>
						</g>
					</g>
					<g transform="rotate(144)">
						<g id="c_128_">
							<path id="t_256_" class="st4" d="M98.4,96.2l-0.5-1.5l-0.8,0.2"/>
							<g transform="scale(-1,1)">
								<path id="t_257_" class="st4" d="M98.4,96.2l-1.3-0.9l0.5-0.7"/>
							</g>
						</g>
					</g>
					<g transform="rotate(216)">
						<g id="c_129_">
							<path id="t_258_" class="st4" d="M96.5,96.2l1.3-0.9l-0.5-0.7"/>
							<g transform="scale(-1,1)">
								<path id="t_259_" class="st4" d="M96.5,96.2l0.5-1.5l0.8,0.2"/>
							</g>
						</g>
					</g>
				</g>
			</g>
		</g>
	</g>
	<g id="σOct">
		<g id="star5">
			<g transform="scale(10.5)">
				<g id="star_26_">
					<g id="c_130_">
						<path id="t_260_" class="st4" d="M112.5,103.8l-0.2,0.5l0.3,0.1"/>
						<g transform="scale(-1,1)">
							<path id="t_261_" class="st4" d="M112.5,103.8l0.2,0.5l-0.3,0.1"/>
						</g>
					</g>
					<g transform="rotate(72)">
						<g id="c_131_">
							<path id="t_262_" class="st4" d="M113,104.2h-0.5v0.3"/>
							<g transform="scale(-1,1)">
								<path id="t_263_" class="st4" d="M113,104.2l-0.4,0.3l-0.2-0.2"/>
							</g>
						</g>
					</g>
					<g transform="rotate(-72)">
						<g id="c_132_">
							<path id="t_264_" class="st4" d="M112,104.2l0.4,0.3l0.2-0.2"/>
							<g transform="scale(-1,1)">
								<path id="t_265_" class="st4" d="M112,104.2h0.5v0.3"/>
							</g>
						</g>
					</g>
					<g transform="rotate(144)">
						<g id="c_133_">
							<path id="t_266_" class="st4" d="M112.8,104.8l-0.2-0.5l-0.3,0.1"/>
							<g transform="scale(-1,1)">
								<path id="t_267_" class="st4" d="M112.8,104.8l-0.4-0.3l0.2-0.2"/>
							</g>
						</g>
					</g>
					<g transform="rotate(216)">
						<g id="c_134_">
							<path id="t_268_" class="st4" d="M112.2,104.8l0.4-0.3l-0.2-0.2"/>
							<g transform="scale(-1,1)">
								<path id="t_269_" class="st4" d="M112.2,104.8l0.2-0.5l0.3,0.1"/>
							</g>
						</g>
					</g>
				</g>
			</g>
		</g>
	</g>
</g>
</svg>
