<?xml version="1.0" encoding="utf-8"?>
<!-- Generator: Adobe Illustrator 16.0.0, SVG Export Plug-In . SVG Version: 6.00 Build 0)  -->
<!DOCTYPE svg PUBLIC "-//W3C//DTD SVG 1.1//EN" "http://www.w3.org/Graphics/SVG/1.1/DTD/svg11.dtd">
<svg version="1.1" id="Layer_1" xmlns="http://www.w3.org/2000/svg" xmlns:xlink="http://www.w3.org/1999/xlink" x="0px" y="0px"
	 width="12px" height="87px" viewBox="0 0 12 87" enable-background="new 0 0 12 87" xml:space="preserve">
<path fill="#48C4F4" d="M0.429,2.454c2.954-0.451,4.305,0.904,4.305,4.971v29.932c0,3.727,1.013,5.534,2.955,6.212
	c-1.942,0.678-2.955,2.485-2.955,6.212v29.818c0,4.066-1.351,5.422-4.305,4.971v2.371c4.051,0.452,6.246-2.033,6.246-7.342V49.667
	c0-4.065,2.195-4.969,4.896-4.969v-2.373c-2.701,0-4.896-0.902-4.896-4.969V7.425c0-5.309-2.195-7.906-6.246-7.342V2.454
	L0.429,2.454z"/>
</svg>
