<svg width="12" height="87" viewBox="0 0 12 87" fill="none" xmlns="http://www.w3.org/2000/svg">
<path d="M11.1432 84.5386C8.18858 84.9904 6.83789 83.635 6.83789 79.5688V49.6372C6.83789 45.9098 5.82487 44.1026 3.88324 43.4249C5.82487 42.7472 6.83789 40.94 6.83789 37.2127V7.39392C6.83789 3.32773 8.18858 1.97233 11.1432 2.42413V0.0521822C7.09114 -0.399617 4.89626 2.08528 4.89626 7.39392V37.3256C4.89626 41.3918 2.70139 42.2954 2.86102e-06 42.2954V44.6674C2.70139 44.6674 4.89626 45.571 4.89626 49.6372V79.5688C4.89626 84.8775 7.09114 87.4753 11.1432 86.9106V84.5386V84.5386Z" fill="#48C4F4"/>
</svg>
