<?xml version="1.0" encoding="utf-8"?>
<!-- Generator: Adobe Illustrator 16.0.0, SVG Export Plug-In . SVG Version: 6.00 Build 0)  -->
<!DOCTYPE svg PUBLIC "-//W3C//DTD SVG 1.1//EN" "http://www.w3.org/Graphics/SVG/1.1/DTD/svg11.dtd">
<svg version="1.1" id="Layer_1" xmlns="http://www.w3.org/2000/svg" xmlns:xlink="http://www.w3.org/1999/xlink" x="0px" y="0px"
	 width="57px" height="49px" viewBox="0 0 57 49" enable-background="new 0 0 57 49" xml:space="preserve">
<path fill="#E4F7FF" d="M42.4,0H14.1L0,24.5l14.1,24.4h28.3l14.1-24.4L42.4,0z"/>
<path fill="#0D67F9" d="M29.301,26.164c0-0.201,0-0.6-0.501-0.701c-0.699-0.299-1.5-0.6-2.1-1c-1.2-1-0.9-3.199,0.8-3.8v-0.1
	c0-0.5,0.4-0.9,0.9-0.9s0.9,0.4,0.9,0.9c0.4,0.1,0.802,0.399,1,0.6c0.302,0.4,0.302,0.9,0,1.3c-0.399,0.301-0.899,0.301-1.301,0
	c0,0-0.3-0.3-0.899-0.1c-0.2,0.1-0.301,0.3-0.301,0.4c0,0.199,0,0.3,0,0.3c0.301,0.3,1,0.5,1.501,0.7
	c2.601,0.8,2.302,3.9,0.101,4.699v0.201c0,0.5-0.4,0.899-0.9,0.899s-0.899-0.399-0.899-0.899v-0.101
	c-0.4-0.102-0.801-0.201-1.301-0.5c-0.399-0.301-0.5-0.801-0.3-1.201c0.3-0.399,0.8-0.5,1.2-0.299c0.4,0.299,0.6,0.299,1.2,0.299
	C29,26.863,29.2,26.363,29.301,26.164z M42.9,11.924v10.54c0,7.444-3.99,14.294-10.412,17.874l-3.995,2.283l-3.9-2.295
	C18.126,36.676,14.1,29.828,14.1,22.464v-10.54l0.938-0.059c1.939-0.121,8.593-0.827,12.771-4.824l0.692-0.662l0.69,0.662
	c3.914,3.747,9.682,4.631,12.771,4.824L42.9,11.924z M40.9,13.788c-3.305-0.313-8.474-1.352-12.401-4.681
	c-4.033,3.402-9.457,4.392-12.399,4.679v8.678c0,6.644,3.638,12.825,9.492,16.13l2.916,1.715l2.996-1.713
	c5.799-3.231,9.396-9.412,9.396-16.132V13.788z M28.5,15.451c5.025,0,9.113,4.088,9.113,9.112s-4.088,9.112-9.113,9.112
	c-5.024,0-9.112-4.088-9.112-9.112S23.476,15.451,28.5,15.451z M21.013,24.563c0,4.128,3.358,7.487,7.487,7.487
	s7.488-3.358,7.488-7.487c0-4.129-3.359-7.487-7.488-7.487S21.013,20.435,21.013,24.563z"/>
</svg>
