<svg width="70" height="29" viewBox="0 0 70 29" fill="none" xmlns="http://www.w3.org/2000/svg">
<path d="M3.46406 21.1652C2.63156 19.857 1.79905 18.5488 1.20441 17.1217C0.609768 15.6945 0.490833 14.1484 0.847622 12.7213C1.32334 11.1752 2.51262 10.1049 3.82084 9.51022C5.24798 8.91558 6.79406 8.91558 8.22121 9.15344C11.1944 9.62915 14.4055 10.8184 16.1894 13.197C17.1409 14.3863 17.6166 15.8134 17.4976 17.3595C17.4976 18.0731 17.2598 18.7867 16.903 19.3813C16.5462 19.976 15.9516 20.4517 15.3569 20.8085C14.0487 21.522 12.5026 21.522 11.4323 20.5706C10.3619 19.6192 10.0051 18.0731 9.76727 16.527C9.29156 13.4349 9.64835 10.3427 10.8376 7.48844C12.0269 4.75308 14.4055 2.49343 17.2598 1.42307C20.3519 0.471641 23.563 1.18521 25.9416 2.96914C28.4391 4.75308 30.1041 7.36951 31.1744 10.3427C31.7691 11.7699 32.1259 13.3159 32.4827 14.7431C32.8395 16.2892 33.0773 17.8352 33.1962 19.2624C33.3152 20.8085 33.1962 22.2356 32.7205 23.6627C32.2448 24.971 31.1744 26.0413 29.8662 26.636C28.558 27.2306 27.1309 26.9927 26.1794 26.0413C25.228 25.0899 24.6334 23.6627 24.6334 22.2356C24.3955 19.3813 25.8227 16.2892 28.0823 14.5052C30.4609 12.7213 33.553 12.3645 36.6452 12.3645C42.8295 12.3645 48.538 15.3377 55.0791 15.9324C55.5548 15.9324 55.9116 15.6945 55.9116 15.2188C55.9116 14.7431 55.6738 14.3863 55.198 14.3863C52.1059 14.1484 49.1327 13.3159 46.1595 12.4834C43.1862 11.6509 39.9752 10.9374 36.6452 10.9374C35.0991 10.9374 33.4341 11.0563 31.7691 11.2942C30.1041 11.6509 28.558 12.2456 27.2498 13.3159C24.6334 15.4567 23.0873 18.7867 23.3252 22.2356C23.4441 23.9006 24.0387 25.6845 25.3469 26.8738C25.9416 27.4685 26.893 27.9442 27.7255 28.0631C28.6769 28.182 29.5094 28.0631 30.3419 27.7063C32.007 26.9927 33.1962 25.6845 33.7909 24.0195C34.3855 22.4735 34.5045 20.6895 34.2666 19.1434C34.1477 17.4784 33.7909 15.9324 33.4341 14.3863C33.0773 12.8402 32.7205 11.2942 32.1259 9.74808C31.0555 6.77486 29.1527 3.80165 26.5362 2.01771C25.228 1.06628 23.6819 0.352712 22.0169 0.114855C20.3519 -0.123003 18.6869 -0.00407384 17.1409 0.59057C14.0487 1.66093 11.4323 4.15843 10.243 7.13165C8.93478 10.1049 8.69691 13.4349 9.17263 16.6459C9.41049 18.192 9.76728 19.976 11.0755 21.1652C11.7891 21.7599 12.6216 22.1167 13.4541 22.1167C14.2866 22.1167 15.238 21.8788 15.9516 21.522C16.6651 21.1652 17.3787 20.5706 17.8544 19.7381C18.3301 19.0245 18.568 18.192 18.568 17.3595C18.6869 15.6945 17.9734 14.0295 17.0219 12.7213C15.9516 11.4131 14.6434 10.4617 13.0973 9.86701C11.6701 9.15344 10.1241 8.79665 8.45906 8.55879C6.91299 8.32094 5.12906 8.32094 3.58298 9.03451C2.03691 9.62915 0.728691 10.9374 0.252975 12.6024C-0.222736 14.2674 0.0151215 15.9324 0.609768 17.4784C1.20441 19.0245 2.03691 20.3327 2.86942 21.641C2.98834 21.7599 3.10727 21.7599 3.2262 21.7599C3.46405 21.522 3.58298 21.2842 3.46406 21.1652Z" fill="#F85D2E"/>
<path d="M69.1128 13.7917C65.9017 12.6024 62.6906 11.532 59.5985 10.8185L57.3389 10.2238L56.7442 10.1049L56.5063 9.98596C56.3874 9.98596 56.1496 9.86703 56.0306 9.98596C55.3171 9.98596 54.7224 10.4617 54.3656 11.0563C54.2467 11.1753 54.2467 11.4131 54.2467 11.532C54.2467 11.651 54.2467 11.651 54.2467 11.7699V11.8888V12.3645V13.4349V15.5756C54.2467 16.2892 54.1278 16.8838 54.0088 17.5974V18.0731V18.311C54.0088 18.5488 54.0088 18.7867 54.1278 19.0245C54.3656 19.5003 54.7224 19.7381 55.1981 19.857C55.436 19.857 55.6738 19.857 55.9117 19.7381H56.0306L60.3121 18.0731C63.1664 16.7649 66.1396 15.3378 69.1128 13.7917ZM65.0692 14.0295C62.9285 14.7431 60.7878 15.4567 58.6471 16.527L55.1981 18.0731C55.1981 18.0731 54.9603 18.192 55.0792 18.192C55.0792 18.192 55.1981 18.192 55.3171 18.192C55.436 18.192 55.5549 18.311 55.5549 18.4299V18.5488V18.311V17.8353C55.5549 17.1217 55.6738 16.4081 55.6738 15.6945L55.7928 13.6728V12.6024V12.1267V12.0078L56.0306 12.1267L56.5063 12.2456L58.2903 12.8403C60.7878 13.4349 62.9285 13.7917 65.0692 14.0295Z" fill="#F85D2E"/>
</svg>
