<svg width="88" height="82" viewBox="0 0 88 82" fill="none" xmlns="http://www.w3.org/2000/svg">
<path d="M44.0619 66.4658C58.4004 66.4658 70.0241 54.8975 70.0241 40.6273C70.0241 26.3571 58.4004 14.7888 44.0619 14.7888C29.7233 14.7888 18.0996 26.3571 18.0996 40.6273C18.0996 54.8975 29.7233 66.4658 44.0619 66.4658Z" stroke="#0D67F9" stroke-width="3" stroke-miterlimit="10" stroke-linecap="round"/>
<path d="M44.0625 6.83838C62.7853 6.83838 78.0132 21.9937 78.0132 40.6272V75.7825" stroke="#0D67F9" stroke-width="3" stroke-miterlimit="10" stroke-linecap="round"/>
<path d="M44.062 74.416C25.3392 74.416 10.1113 59.2607 10.1113 40.6272V4.72656" stroke="#0D67F9" stroke-width="3" stroke-miterlimit="10" stroke-linecap="round"/>
<path d="M54.0479 47.2111C54.0479 52.0558 50.3034 55.1614 44.5617 55.1614C39.4442 55.1614 35.45 52.6769 34.077 48.4533L33.9521 48.0806L36.6982 46.4657L36.823 47.0868C37.6967 50.3166 40.5675 52.18 44.5617 52.18C48.4311 52.18 50.9275 50.3166 50.9275 47.2111C50.9275 44.2297 48.0566 43.1117 44.1873 41.8694H44.0625C39.4442 40.3788 35.2003 39.0123 35.2003 33.9191C35.2003 30.5651 37.1974 27.9564 40.1931 26.8384V30.1924C38.9449 31.062 38.3208 32.3042 38.3208 33.9191C38.3208 36.7763 40.6924 37.7701 44.6865 39.0123C49.3048 40.3788 54.0479 41.9937 54.0479 47.2111Z" fill="#0D67F9"/>
<path d="M44.0625 29.0744V26.093C48.1815 26.093 51.6764 28.329 53.2991 32.0557L53.4239 32.4284L50.8027 33.9191L50.5531 33.4222C49.6793 31.4346 47.9319 29.0744 44.0625 29.0744Z" fill="#0D67F9"/>
<path d="M85.6269 71.3105L77.8882 79.0124L70.1494 71.3105" stroke="#0D67F9" stroke-width="3" stroke-miterlimit="10" stroke-linecap="round"/>
<path d="M17.9754 10.6894L10.1118 2.86328L2.37305 10.6894" stroke="#0D67F9" stroke-width="3" stroke-miterlimit="10" stroke-linecap="round"/>
<path d="M43.9375 44.8508V60.6272" stroke="#0D67F9" stroke-opacity="0.5" stroke-width="3" stroke-miterlimit="10" stroke-linecap="round"/>
<path d="M43.9375 20.5029V40.2545" stroke="#0D67F9" stroke-opacity="0.5" stroke-width="3" stroke-miterlimit="10" stroke-linecap="round"/>
</svg>
