<svg width="79" height="60" viewBox="0 0 79 60" fill="none" xmlns="http://www.w3.org/2000/svg">
<path d="M55 41.7L47.9 42.2999L45.1 48.7999L39 45.2L32.9 48.7L30.1 42.2L23.1 41.5L24.7 34.5999L19.4 29.9L24.7 25.3L23.2 18.3L30.3 17.7L33.1 11.2L39.2 14.9L45.3 11.3L48.1 17.8L55.1 18.5L53.5 25.4L58.8 30.1L53.5 34.7999L55 41.7Z" stroke="#0D67F9" stroke-width="2" stroke-miterlimit="10"/>
<path d="M39.1 40.8999C45.1199 40.8999 50 36.0198 50 29.9999C50 23.9799 45.1199 19.0999 39.1 19.0999C33.0801 19.0999 28.2 23.9799 28.2 29.9999C28.2 36.0198 33.0801 40.8999 39.1 40.8999Z" stroke="#0D67F9" stroke-width="2" stroke-miterlimit="10"/>
<path d="M34 30.1L37.9 33.7999L44.2 26.2" stroke="#0D67F9" stroke-width="2" stroke-miterlimit="10"/>
<path d="M53.9 23H76.2L71.7 29.9L75.5 36.9H53.8" stroke="#0D67F9" stroke-width="2" stroke-miterlimit="10"/>
<path d="M24.3 23H2L6.5 29.9L2.7 36.9H24.4" stroke="#0D67F9" stroke-width="2" stroke-miterlimit="10"/>
<path d="M11.1 22.6C14.4 10.1 25.7 1 39.1 1C52.7 1 64 10.3 67.2 22.8" stroke="#0D67F9" stroke-opacity="0.5" stroke-width="2" stroke-miterlimit="10"/>
<path d="M67.3 36.9999C64.2 49.6999 52.7 58.9999 39.1 58.9999C25.4 58.9999 14 49.5999 10.9 36.8999" stroke="#0D67F9" stroke-opacity="0.5" stroke-width="2" stroke-miterlimit="10"/>
</svg>
