<?xml version="1.0" encoding="utf-8"?>
<!-- Generator: Adobe Illustrator 16.0.0, SVG Export Plug-In . SVG Version: 6.00 Build 0)  -->
<!DOCTYPE svg PUBLIC "-//W3C//DTD SVG 1.1//EN" "http://www.w3.org/Graphics/SVG/1.1/DTD/svg11.dtd">
<svg version="1.1" id="Layer_1" xmlns="http://www.w3.org/2000/svg" xmlns:xlink="http://www.w3.org/1999/xlink" x="0px" y="0px"
	 width="79px" height="60px" viewBox="0 0 79 60" enable-background="new 0 0 79 60" xml:space="preserve">
<path fill="none" stroke="#FFFFFF" stroke-miterlimit="10" d="M55,41.7l-7.1,0.6L45.1,48.8L39,45.2l-6.1,3.5l-2.8-6.5l-7-0.7
	l1.6-6.9l-5.3-4.7l5.3-4.6l-1.5-7l7.1-0.6l2.8-6.5l6.1,3.7l6.1-3.6l2.8,6.5l7,0.7l-1.6,6.9l5.3,4.7l-5.3,4.7L55,41.7z"/>
<path fill="none" stroke="#FFFFFF" stroke-width="2" stroke-miterlimit="10" d="M39.1,40.9C45.12,40.9,50,36.02,50,30
	c0-6.02-4.88-10.9-10.9-10.9S28.2,23.98,28.2,30C28.2,36.02,33.08,40.9,39.1,40.9z"/>
<path fill="none" stroke="#FFFFFF" stroke-width="2" stroke-miterlimit="10" d="M34,30.1l3.9,3.7l6.3-7.6"/>
<path fill="none" stroke="#FFFFFF" stroke-miterlimit="10" d="M53.9,23h22.3l-4.5,6.9l3.8,7H53.8"/>
<path fill="none" stroke="#FFFFFF" stroke-miterlimit="10" d="M24.3,23H2l4.5,6.9l-3.8,7h21.7"/>
<path fill="none" stroke="#FFFFFF" stroke-width="2" stroke-miterlimit="10" stroke-opacity="0.5" d="M11.1,22.6
	C14.4,10.1,25.7,1,39.1,1C52.7,1,64,10.3,67.2,22.8"/>
<path fill="none" stroke="#FFFFFF" stroke-width="2" stroke-miterlimit="10" stroke-opacity="0.5" d="M67.3,37
	c-3.1,12.699-14.6,22-28.2,22C25.4,59,14,49.6,10.9,36.9"/>
</svg>
