<svg width="38" height="34" viewBox="0 0 38 34" fill="none" xmlns="http://www.w3.org/2000/svg">
<path opacity="0.5" d="M6.33031 18.864H4.84961V26.2675H6.33031V18.864Z" stroke="#0D67F9" stroke-width="1.2" stroke-miterlimit="10" stroke-linecap="round"/>
<path opacity="0.5" d="M11.9575 15.9026H10.1807V26.2675H11.9575V15.9026Z" stroke="#0D67F9" stroke-width="1.2" stroke-miterlimit="10" stroke-linecap="round"/>
<path opacity="0.5" d="M16.9917 12.9412H15.2148V26.2674H16.9917V12.9412Z" stroke="#0D67F9" stroke-width="1.2" stroke-miterlimit="10" stroke-linecap="round"/>
<path d="M2.3916 16.251L5.7972 13.0823L7.36674 14.6222L12.2827 9.82474L13.9114 11.4831L19.0939 6.5376" stroke="#0D67F9" stroke-width="1.2" stroke-miterlimit="10"/>
<path d="M18.8275 10.2688L19.479 6.09326L15.4219 6.71515" stroke="#0D67F9" stroke-width="1.2" stroke-miterlimit="10"/>
<path d="M21.2559 26.2013H1.82919C1.38498 26.2013 1 25.8163 1 25.3721V2.00668C1 1.56247 1.38498 1.17749 1.82919 1.17749H27.5933C28.0375 1.17749 28.4225 1.56247 28.4225 2.00668V18.1167" stroke="#0D67F9" stroke-opacity="0.5" stroke-width="1.2" stroke-miterlimit="10" stroke-linecap="round"/>
<path d="M30.4363 23.5952C30.4363 26.3493 28.1856 28.6 25.4315 28.6C22.6774 28.6 20.4268 26.3493 20.4268 23.5952C20.4268 18.5016 25.4315 14.4741 25.4315 14.4741C25.4315 14.4741 30.4363 19.242 30.4363 23.5952Z" stroke="#0D67F9" stroke-width="1.2" stroke-miterlimit="10"/>
<path opacity="0.5" d="M25.5506 26.6157C24.2179 26.6157 23.063 25.7865 22.5596 24.6316" stroke="#0D67F9" stroke-width="1.2" stroke-miterlimit="10" stroke-linecap="round"/>
<path d="M25.8467 24.0097V24.0986C25.8467 24.3651 25.6394 24.5724 25.3728 24.5724C25.1063 24.5724 24.899 24.3651 24.899 24.0986V24.0394C24.6917 24.0097 24.4844 23.9209 24.2475 23.7728C24.0402 23.6248 23.981 23.3286 24.0994 23.1213C24.2475 22.914 24.5436 22.8548 24.7509 22.9733C24.9879 23.1213 25.0471 23.1213 25.3728 23.1213C25.669 23.1213 25.7874 22.8844 25.817 22.7363C25.8467 22.6179 25.817 22.4402 25.5801 22.3514C25.1952 22.2033 24.7806 22.0552 24.514 21.8479C23.8625 21.3445 24.0698 20.1895 24.899 19.8934V19.8342C24.899 19.5676 25.1063 19.3604 25.3728 19.3604C25.6394 19.3604 25.8467 19.5676 25.8467 19.8342V19.8638C26.0836 19.923 26.2613 20.0415 26.3797 20.1895C26.5574 20.3672 26.5574 20.6634 26.3797 20.841C26.202 21.0187 25.9059 21.0187 25.7282 20.841C25.6986 20.8114 25.5505 20.693 25.2544 20.7818C25.1359 20.8114 25.1063 20.9595 25.0767 20.9891C25.0471 21.078 25.0767 21.1372 25.1063 21.1372C25.284 21.2853 25.6097 21.4037 25.9059 21.4926C27.1201 21.9368 26.972 23.5951 25.8467 24.0097Z" fill="#0D67F9"/>
<path d="M34.1088 16.0141H30.8809V10.0321C30.8809 9.14367 31.6212 8.40332 32.5096 8.40332H35.0268C35.9152 8.40332 36.6556 9.14367 36.6556 10.0321V11.7201H35.5302C34.7899 11.7201 34.168 12.3124 34.1384 13.0823C34.0792 14.3853 34.1088 16.0141 34.1088 16.0141Z" stroke="#0D67F9" stroke-width="1.2" stroke-miterlimit="10" stroke-linecap="round"/>
<path d="M34.2276 8.25515V5.05685C34.2276 4.70148 34.4053 4.40534 34.6718 4.19804L36.9817 2.65812C37.3371 2.42121 37.4555 1.91777 37.2482 1.53279C37.0113 1.08858 36.419 0.970126 36.0045 1.23665L33.3392 3.07272C32.6285 3.54654 32.2139 4.34611 32.2139 5.20492V8.22554" stroke="#0D67F9" stroke-width="1.2" stroke-miterlimit="10" stroke-linecap="round"/>
<path d="M32.3612 16.0139V31.2059C32.3612 32.2424 31.532 33.0715 30.4956 33.0715C29.4591 33.0715 28.6299 32.2424 28.6299 31.2059V27.5633" stroke="#0D67F9" stroke-width="1.2" stroke-miterlimit="10" stroke-linecap="round"/>
</svg>
