<?xml version="1.0" encoding="utf-8"?>
<!-- Generator: Adobe Illustrator 25.0.0, SVG Export Plug-In . SVG Version: 6.00 Build 0)  -->
<svg version="1.1" id="Layer_1" xmlns="http://www.w3.org/2000/svg" xmlns:xlink="http://www.w3.org/1999/xlink" x="0px" y="0px"
	 viewBox="0 0 149 72" style="enable-background:new 0 0 149 72;" xml:space="preserve">
<style type="text/css">
	.st0{fill:#0081C7;}
	.st1{fill:#1AB9E9;}
	.st2{fill:#0E9347;}
	.st3{fill:#3BB54A;}
	.st4{fill:#89C763;}
	.st5{fill:#EAB633;}
	.st6{fill:#FFBEAA;}
</style>
<g>
	<path class="st0" d="M50,56H10.6c-1.5,0-2.9-1.3-2.9-2.9V27.4c0-1.5,1.3-2.9,2.9-2.9h39.3c1.5,0,2.9,1.3,2.9,2.9v25.8
		C52.8,54.7,51.5,56,50,56z"/>
	<g>
		<path class="st1" d="M18.2,34.5c1.5-0.2,3-1.9,3.8-4.3c-1.2-0.3-2.5-0.4-3.8-0.4V34.5z"/>
		<path class="st1" d="M20.7,34.1c0.1,0,0.2,0,0.3-0.1c0.1,0,0.1,0,0.2-0.1c0.1,0,0.2-0.1,0.2-0.1c0.1,0,0.1-0.1,0.2-0.1
			c0.1,0,0.2-0.1,0.2-0.1c0.1,0,0.1-0.1,0.2-0.1c0.1,0,0.2-0.1,0.2-0.1c0.1,0,0.1-0.1,0.2-0.1c0.1,0,0.2-0.1,0.2-0.1
			c0.1,0,0.1-0.1,0.2-0.1c0.1,0,0.1-0.1,0.2-0.1c0.1,0,0.1-0.1,0.2-0.1s0.1-0.1,0.2-0.1c0.1,0,0.1-0.1,0.2-0.1
			c0.1-0.1,0.1-0.1,0.2-0.2c0.1,0,0.1-0.1,0.2-0.1c0.1-0.1,0.1-0.1,0.2-0.2c0.1-0.1,0.1-0.1,0.2-0.2c0.1-0.1,0.1-0.1,0.2-0.2
			s0.1-0.1,0.2-0.2l0,0c-0.8-0.4-1.6-0.8-2.5-1c-0.4,1.4-1.3,2.7-2.4,3.8h0.1C20.5,34.2,20.6,34.1,20.7,34.1z"/>
		<path class="st1" d="M28.2,24.5h-4.4c0,1.8-0.2,3.4-0.8,5.2c1,0.2,1.9,0.7,2.9,1.1C27.2,29,28,26.8,28.2,24.5z"/>
		<path class="st1" d="M18.2,23.8H23c0-1.6-0.2-3.3-0.8-4.9c-1.3,0.3-2.7,0.4-4.1,0.4C18.2,19.3,18.2,23.8,18.2,23.8z"/>
		<path class="st1" d="M18.2,13.9v4.7c1.3,0,2.5-0.2,3.8-0.4C21.1,15.8,19.7,14.1,18.2,13.9z"/>
		<path class="st1" d="M18.2,29c1.3,0,2.7,0.2,4.1,0.4c0.4-1.6,0.7-3.3,0.8-4.9h-4.8C18.2,24.5,18.2,29,18.2,29z"/>
		<path class="st1" d="M25.7,17.6c-0.9,0.4-1.9,0.9-2.9,1.1c0.4,1.6,0.8,3.4,0.8,5.2H28C28,21.6,27.2,19.4,25.7,17.6z"/>
		<path class="st1" d="M25.3,17.1C25.2,17.1,25.2,17,25.3,17.1c-0.1-0.1-0.1-0.1-0.2-0.2c-0.1-0.1-0.1-0.1-0.2-0.2
			c-0.1-0.1-0.1-0.1-0.2-0.2s-0.1-0.1-0.2-0.2c-0.1,0-0.1-0.1-0.2-0.1C24.1,16,24.1,16,24,15.9c-0.1,0-0.1-0.1-0.2-0.1
			c-0.1-0.1-0.1-0.1-0.2-0.1c-0.1,0-0.1-0.1-0.2-0.1s-0.1-0.1-0.2-0.1c-0.1,0-0.1-0.1-0.2-0.1c-0.1,0-0.2-0.1-0.2-0.1
			c-0.1,0-0.1-0.1-0.2-0.1S22.2,15,22.2,15c-0.1,0-0.1-0.1-0.2-0.1c-0.1,0-0.2-0.1-0.2-0.1c-0.1,0-0.1-0.1-0.2-0.1
			c-0.1,0-0.2-0.1-0.2-0.1c-0.1,0-0.1,0-0.2-0.1c-0.1,0-0.2-0.1-0.3-0.1c-0.1,0-0.1,0-0.2-0.1h-0.1c1.1,1.1,1.9,2.4,2.4,3.8
			C23.5,17.7,24.4,17.4,25.3,17.1z"/>
		<path class="st1" d="M7.4,23.8h4.4c0-1.8,0.2-3.4,0.8-5.2c-1-0.2-1.9-0.7-2.9-1.1C8.4,19.4,7.5,21.6,7.4,23.8z"/>
		<path class="st1" d="M17.4,34.5v-4.8c-1.3,0-2.5,0.2-3.8,0.4C14.4,32.6,15.9,34.3,17.4,34.5z"/>
		<path class="st1" d="M17.4,24.5h-4.8c0,1.6,0.2,3.3,0.8,4.9c1.3-0.3,2.7-0.4,4.1-0.4V24.5z"/>
		<path class="st1" d="M17.4,13.9c-1.5,0.2-3,1.9-3.8,4.3c1.2,0.3,2.5,0.4,3.8,0.4V13.9z"/>
		<path class="st1" d="M17.4,19.4c-1.3,0-2.7-0.2-4.1-0.4c-0.4,1.6-0.7,3.3-0.8,4.9h4.8V19.4z"/>
		<path class="st1" d="M15.2,14.2L15.2,14.2c-0.2,0-0.2,0.1-0.3,0.1c-0.1,0-0.2,0-0.3,0.1c-0.1,0-0.1,0-0.2,0.1
			c-0.1,0-0.2,0.1-0.2,0.1c-0.1,0-0.1,0.1-0.2,0.1c-0.1,0-0.2,0.1-0.2,0.1c-0.1,0-0.1,0.1-0.2,0.1c-0.1,0-0.2,0.1-0.2,0.1
			c-0.1,0-0.1,0.1-0.2,0.1c-0.1,0-0.2,0.1-0.2,0.1c-0.1,0-0.1,0.1-0.2,0.1c-0.1,0-0.1,0.1-0.2,0.1c-0.1,0-0.1,0.1-0.2,0.1
			c-0.1,0-0.1,0.1-0.2,0.1c-0.1,0-0.1,0.1-0.2,0.1c-0.1,0.1-0.1,0.1-0.2,0.2c-0.1,0-0.1,0.1-0.2,0.1c-0.1,0.1-0.1,0.1-0.2,0.2
			c-0.1,0.1-0.2,0.1-0.3,0.2c-0.1,0.1-0.1,0.1-0.2,0.2c-0.1,0.1-0.1,0.1-0.2,0.2l0,0c0.8,0.4,1.6,0.8,2.5,1
			C13.3,16.5,14.1,15.2,15.2,14.2z"/>
		<path class="st1" d="M10.5,31.6c0.1,0.1,0.1,0.1,0.2,0.2c0.1,0.1,0.1,0.1,0.2,0.2c0.1,0.1,0.1,0.1,0.2,0.2c0.1,0,0.1,0.1,0.2,0.1
			c0.1,0.1,0.1,0.1,0.2,0.2c0.1,0,0.1,0.1,0.2,0.1c0.1,0.1,0.1,0.1,0.2,0.1c0.1,0,0.1,0.1,0.2,0.1c0.1,0,0.1,0.1,0.2,0.1
			c0.1,0,0.1,0.1,0.2,0.1c0.1,0,0.2,0.1,0.2,0.1c0.1,0,0.1,0.1,0.2,0.1c0.1,0,0.2,0.1,0.2,0.1c0.1,0,0.1,0.1,0.2,0.1
			c0.1,0,0.2,0.1,0.2,0.1c0.1,0,0.1,0.1,0.2,0.1c0.1,0,0.2,0.1,0.2,0.1c0.1,0,0.1,0,0.2,0.1c0.1,0,0.2,0.1,0.3,0.1s0.1,0,0.2,0.1
			h0.1c-1.1-1.1-1.9-2.4-2.4-3.8c-0.9,0.2-1.8,0.5-2.5,1l0,0C10.4,31.4,10.5,31.4,10.5,31.6z"/>
		<path class="st1" d="M9.8,30.8c0.9-0.4,1.9-0.9,2.9-1.1c-0.4-1.6-0.8-3.4-0.8-5.2H7.5C7.5,26.8,8.4,29,9.8,30.8z"/>
	</g>
	<g>
		<g>
			<path class="st2" d="M50.6,19.9c-4.5-1.4-9,1.9-13.5,0.5c-0.3-0.1-0.7-0.5-0.7-0.9c0-2.5,0-4.9,0-7.5c0-0.3,0.3-0.5,0.7-0.4
				c4.5,1.4,9-1.9,13.5-0.5c0.3,0.1,0.7,0.5,0.7,0.9c0,2.5,0,4.9,0,7.5C51.3,19.9,51,20,50.6,19.9z"/>
			<path class="st3" d="M49.3,18.9c-3.6-0.4-7.2,1.5-10.9,1.1c0-0.8-0.7-1.4-1.3-1.6c0-1.5,0-3.2,0-4.7c0.8,0.2,1.3-0.3,1.3-1.1
				c3.6,0.4,7.2-1.5,10.9-1.1c0,0.8,0.7,1.4,1.3,1.6c0,1.5,0,3.2,0,4.7C49.9,17.7,49.3,18.3,49.3,18.9z"/>
			<g>
				<path class="st2" d="M43.9,12.8c1.5-0.3,2.7,0.9,2.7,2.5c0,1.6-1.2,3.2-2.7,3.5c-1.5,0.3-2.7-0.9-2.7-2.5S42.4,13.1,43.9,12.8z"
					/>
				<path class="st2" d="M39.9,15.8c0.3,0,0.7,0.2,0.7,0.7c0,0.3-0.3,0.7-0.7,0.7c-0.3,0-0.7-0.3-0.7-0.7
					C39.1,16.1,39.4,15.8,39.9,15.8z"/>
				<path class="st2" d="M47.9,14.6c0.3,0,0.7,0.3,0.7,0.7c0,0.3-0.3,0.7-0.7,0.7c-0.3,0-0.7-0.2-0.7-0.7
					C47.2,14.9,47.6,14.6,47.9,14.6z"/>
			</g>
			<path class="st4" d="M44.3,15.4c-0.2,0-0.4,0.1-0.7,0.1s-0.3-0.1-0.3-0.2c0-0.2,0.1-0.3,0.3-0.4c0.3-0.1,0.7-0.1,1-0.2
				c0.2,0,0.3-0.2,0.3-0.4c0-0.2-0.1-0.3-0.3-0.2c-0.1,0-0.2,0-0.3,0.1c0-0.2-0.1-0.3-0.3-0.2c-0.2,0-0.3,0.2-0.3,0.4
				c-0.5,0.1-1,0.7-1,1.2c0,0.5,0.4,0.9,1,0.8c0.2,0,0.4-0.1,0.7-0.1s0.3,0.1,0.3,0.2c0,0.2-0.1,0.3-0.3,0.4c-0.3,0.1-0.7,0.1-1,0.2
				c-0.2,0-0.3,0.2-0.3,0.4c0,0.2,0.1,0.3,0.3,0.2c0.1,0,0.2,0,0.3-0.1c0,0.2,0.1,0.3,0.3,0.2c0.2,0,0.3-0.2,0.3-0.4
				c0.5-0.1,1-0.7,1-1.2C45.3,15.7,44.8,15.3,44.3,15.4z"/>
		</g>
	</g>
	<circle class="st3" cx="28.2" cy="17" r="0.8"/>
	<circle class="st3" cx="31.1" cy="17" r="0.8"/>
	<circle class="st3" cx="34.2" cy="17" r="0.8"/>
	<circle class="st3" cx="45.3" cy="22.2" r="0.8"/>
	<g>
		<path class="st5" d="M40.5,49.3h-1.2v-1.2H21.2v1.2H20v1.2h20.5V49.3z"/>
		<path class="st5" d="M21.2,36h18.1v2.4H21.2V36z"/>
		<path class="st5" d="M22.4,39.7h3.6v7.2h-3.6V39.7z"/>
		<path class="st5" d="M28.5,39.7h3.6v7.2h-3.6V39.7z"/>
		<path class="st5" d="M34.5,39.7h3.6v7.2h-3.6V39.7z"/>
		<path class="st5" d="M40.5,33.7l-10.3-3.8l-10.3,3.8v1h20.6V33.7z M30.9,33.6h-1.2v-1.2h1.2V33.6z"/>
	</g>
	<path class="st6" d="M48.4,48.4C48.3,48.4,48.3,48.4,48.4,48.4c-0.4,0-0.8,0.1-1,0.3c-0.2-0.4-0.7-0.8-1.2-0.9c-0.1,0-0.2,0-0.3,0
		c0,0,0,0-0.1,0c-0.3,0-0.7,0.1-1,0.3c-0.3-0.5-0.9-0.9-1.5-0.9c-0.2,0-0.5,0.1-0.8,0.1v-3.5c0-1-0.8-1.9-1.9-1.9
		c-1,0-1.9,0.8-1.9,1.9V55c0,0.5-0.7,0.9-1.1,0.4L36.4,54c-1.2-1.3-3.4-0.4-3.4,1.3l0,0c0,0.5,0.2,1,0.5,1.4l2.6,2.6
		c1.1,1.1,2.6,1.8,4.3,1.8h4.3h1.4c2.2,0,3.9-1.8,3.9-3.9v-6.8C50.2,49.3,49.4,48.4,48.4,48.4z"/>
</g>
<g>
	<path class="st0" d="M67.6,34.2h-5.8V20.8h5.5c2.8,0,4.3,1.5,4.3,3.4c0,1.6-1,2.6-2.3,3.1C71,27.6,72,29,72,30.5
		C72,32.7,70.4,34.2,67.6,34.2z M67,23h-2.5v3.4H67c1.3,0,2-0.6,2-1.7C69,23.6,68.3,23,67,23z M67.2,28.4h-2.6V32h2.7
		c1.3,0,2.1-0.6,2.1-1.8C69.3,29.1,68.5,28.4,67.2,28.4z"/>
	<path class="st0" d="M78.3,23.4c1.7,0,2.9,0.8,3.5,1.7v-1.5h2.7v10.6h-2.7v-1.6c-0.6,0.9-1.8,1.7-3.5,1.7c-2.7,0-4.8-2.2-4.8-5.5
		S75.6,23.4,78.3,23.4z M79,25.7c-1.4,0-2.8,1.1-2.8,3.1S77.6,32,79,32c1.5,0,2.8-1.1,2.8-3.1S80.5,25.7,79,25.7z"/>
	<path class="st0" d="M94.6,28.3c0-1.7-0.9-2.6-2.4-2.6c-1.5,0-2.4,0.9-2.4,2.6v5.9h-2.7V23.6h2.7v1.3c0.7-0.9,1.8-1.5,3.2-1.5
		c2.5,0,4.2,1.6,4.2,4.5v6.2h-2.7V28.3z"/>
	<path class="st0" d="M99.8,20h2.7v8.1l3.6-4.5h3.5l-4.7,5.3l4.7,5.3h-3.5l-3.6-4.5v4.5h-2.7V20z"/>
	<path class="st5" d="M61.2,37.3H71v2.2h-3.6v11.2h-2.7V39.5h-3.6V37.3z"/>
	<path class="st5" d="M75.6,50.7h-2.7V40.1h2.7v1.6c0.7-1.1,1.8-1.8,3.3-1.8v2.8h-0.7c-1.6,0-2.5,0.6-2.5,2.7V50.7z"/>
	<path class="st5" d="M84.8,39.9c1.7,0,2.9,0.8,3.5,1.7v-1.5H91v10.6h-2.7v-1.6c-0.6,0.9-1.8,1.7-3.5,1.7c-2.7,0-4.8-2.2-4.8-5.5
		S82.1,39.9,84.8,39.9z M85.5,42.2c-1.4,0-2.8,1.1-2.8,3.1s1.4,3.2,2.8,3.2c1.5,0,2.8-1.1,2.8-3.1S87,42.2,85.5,42.2z"/>
	<path class="st5" d="M101.1,44.8c0-1.7-0.9-2.6-2.4-2.6c-1.5,0-2.4,0.9-2.4,2.6v5.9h-2.7V40.1h2.7v1.3c0.7-0.9,1.8-1.5,3.2-1.5
		c2.5,0,4.2,1.6,4.2,4.5v6.2h-2.7V44.8z"/>
	<path class="st5" d="M110.4,50.8c-2.7,0-4.5-1.6-4.6-3.5h2.7c0.1,0.8,0.8,1.4,1.9,1.4c1.1,0,1.6-0.5,1.6-1.1c0-1.9-6-0.7-6-4.6
		c0-1.8,1.6-3.2,4.2-3.2c2.6,0,4.1,1.4,4.3,3.5h-2.6c-0.1-0.8-0.7-1.4-1.8-1.4c-1,0-1.5,0.4-1.5,1c0,1.9,5.9,0.7,6,4.6
		C114.5,49.5,112.9,50.8,110.4,50.8z"/>
	<path class="st5" d="M117,42.3h-1.2v-2.2h1.2v-0.5c0-2.6,1.5-3.8,4.5-3.7v2.3c-1.3,0-1.7,0.4-1.7,1.6v0.4h1.9v2.2h-1.9v8.4H117
		V42.3z"/>
	<path class="st5" d="M128,50.8c-3.1,0-5.3-2.1-5.3-5.5c0-3.4,2.2-5.5,5.3-5.5c3.1,0,5.2,2.1,5.2,5.2c0,0.3,0,0.7-0.1,1h-7.8
		c0.1,1.6,1.2,2.5,2.5,2.5c1.1,0,1.8-0.6,2.1-1.3h2.9C132.4,49.3,130.6,50.8,128,50.8z M125.4,44.4h5c0-1.4-1.1-2.3-2.5-2.3
		C126.6,42.1,125.6,42.9,125.4,44.4z"/>
	<path class="st5" d="M137.8,50.7h-2.7V40.1h2.7v1.6c0.7-1.1,1.8-1.8,3.3-1.8v2.8h-0.7c-1.6,0-2.5,0.6-2.5,2.7V50.7z"/>
</g>
</svg>
