<?xml version="1.0" encoding="utf-8"?>
<!-- Generator: Adobe Illustrator 16.0.0, SVG Export Plug-In . SVG Version: 6.00 Build 0)  -->
<!DOCTYPE svg PUBLIC "-//W3C//DTD SVG 1.1//EN" "http://www.w3.org/Graphics/SVG/1.1/DTD/svg11.dtd">
<svg version="1.1" id="Layer_1" xmlns="http://www.w3.org/2000/svg" xmlns:xlink="http://www.w3.org/1999/xlink" x="0px" y="0px"
	 width="36px" height="34px" viewBox="0 0 36 34" enable-background="new 0 0 36 34" xml:space="preserve">
<path fill="none" stroke="#FFFFFF" stroke-width="1.2" stroke-miterlimit="10" stroke-opacity="0.5" d="M4.48,20.205v-4.318"/>
<path fill="none" stroke="#FFFFFF" stroke-width="1.2" stroke-miterlimit="10" d="M4.48,29.132v-5.156"/>
<path fill="none" stroke="#FFFFFF" stroke-width="1.2" stroke-miterlimit="10" stroke-opacity="0.5" d="M10.636,15.919V8.926"/>
<path fill="none" stroke="#FFFFFF" stroke-width="1.2" stroke-miterlimit="10" d="M10.636,32.322V19.689"/>
<path fill="none" stroke="#FFFFFF" stroke-width="1.2" stroke-miterlimit="10" stroke-opacity="0.5" d="M16.823,19.271V0.096"/>
<path fill="none" stroke="#FFFFFF" stroke-width="1.2" stroke-miterlimit="10" d="M16.823,33.096V23.041"/>
<path fill="none" stroke="#FFFFFF" stroke-width="1.2" stroke-miterlimit="10" stroke-opacity="0.5" d="M23.011,20.012V6.025"/>
<path fill="none" stroke="#FFFFFF" stroke-width="1.2" stroke-miterlimit="10" d="M23.011,31.807v-8.024"/>
<path fill="none" stroke="#FFFFFF" stroke-width="1.2" stroke-miterlimit="10" stroke-opacity="0.5" d="M29.198,16.757V2.48"/>
<path fill="none" stroke="#FFFFFF" stroke-width="1.2" stroke-miterlimit="10" d="M29.198,27.811V20.56"/>
<path fill="none" stroke="#FFFFFF" stroke-width="1.2" stroke-miterlimit="10" d="M1.226,22.429l10.893-7.541l7.444,6.896
	l14.083-7.348"/>
<path fill="none" stroke="#FFFFFF" stroke-width="1.2" stroke-miterlimit="10" d="M31.067,13.953l3.352,0.064l-2.256,2.933"/>
<path fill="none" stroke="#FFFFFF" stroke-width="1.2" stroke-miterlimit="10" d="M33.001,22.654
	c-3.094,6.188-9.507,10.441-16.919,10.441c-6.155,0-11.634-2.933-15.082-7.509"/>
</svg>
