<svg width="197" height="46" viewBox="0 0 197 46" fill="none" xmlns="http://www.w3.org/2000/svg">
<path fill-rule="evenodd" clip-rule="evenodd" d="M15.7983 12.3532V31.9009L17.8779 30.0293L21.829 33.8418V17.6907L15.7983 12.3532Z" fill="white"/>
<path fill-rule="evenodd" clip-rule="evenodd" d="M15.7983 8.88721V11.0361L21.829 16.4429V14.294L15.7983 8.88721Z" fill="white"/>
<path fill-rule="evenodd" clip-rule="evenodd" d="M27.0279 3.96613V36.8922L33.0586 31.7627V9.30361L27.0279 3.96613Z" fill="white"/>
<path fill-rule="evenodd" clip-rule="evenodd" d="M0.687012 45.9727L17.8779 31.4159L26.0574 39.0409L42.9017 25.1773L39.921 21.1569L58.1517 19.7705L50.388 36.2682L47.754 32.4557L26.0574 45.9034L17.8779 36.8227L0.687012 45.9727Z" fill="white"/>
<path fill-rule="evenodd" clip-rule="evenodd" d="M37.8416 12.3532V27.9498L41.5154 24.8998L38.2575 20.3941L43.9415 19.9089V17.6214L37.8416 12.3532Z" fill="white"/>
<path fill-rule="evenodd" clip-rule="evenodd" d="M27.0279 0.361328V2.51019L33.0586 7.84768V5.76814L27.0279 0.361328Z" fill="white"/>
<path fill-rule="evenodd" clip-rule="evenodd" d="M37.8416 8.88721V11.0361L43.9415 16.3736V14.294L37.8416 8.88721Z" fill="white"/>
<path d="M70.9066 18.3842C70.9066 15.3342 73.1247 13.1854 76.1747 13.1854C77.769 13.1854 79.1554 13.8092 80.0565 14.849L78.8781 15.9581C78.1849 15.1956 77.2838 14.7797 76.244 14.7797C74.2338 14.7797 72.7781 16.2354 72.7781 18.3149C72.7781 20.3944 74.2338 21.8501 76.244 21.8501C77.2838 21.8501 78.1156 21.4342 78.8781 20.6717L80.0565 21.8501C79.1554 22.9592 77.769 23.5138 76.1747 23.5138C73.1247 23.5831 70.9066 21.4342 70.9066 18.3842Z" fill="white"/>
<path d="M88.9987 21.0882H84.0771L83.1067 23.445H81.2351L85.6714 13.3246H87.4737L91.9101 23.445H90.0385L88.9987 21.0882ZM88.4442 19.6325L86.5726 15.1962L84.7703 19.6325H88.4442Z" fill="white"/>
<path d="M102.446 16.9291C102.446 19.1473 100.852 20.5337 98.2871 20.5337H96.0689V23.445H94.2666V13.3246H98.2871C100.852 13.3246 102.446 14.7109 102.446 16.9291ZM100.644 16.9291C100.644 15.6814 99.8121 14.9189 98.2177 14.9189H96.0689V18.9393H98.2177C99.8121 18.9393 100.644 18.2462 100.644 16.9291Z" fill="white"/>
<path d="M105.427 13.3246H107.229V23.445H105.427V13.3246Z" fill="white"/>
<path d="M112.982 14.9189H109.724V13.3246H118.043V14.9189H114.785V23.445H112.982V14.9189Z" fill="white"/>
<path d="M126.43 21.0882H121.509L120.538 23.445H118.667L123.103 13.3246H124.905L129.342 23.445H127.47L126.43 21.0882ZM125.807 19.6325L123.935 15.1962L122.133 19.6325H125.807Z" fill="white"/>
<path d="M131.629 13.3246H133.432V21.8507H138.561V23.445H131.629V13.3246Z" fill="white"/>
<path d="M156.653 14.9187H153.395V13.3243H161.713V14.9187H158.455V23.4448H156.653V14.9187Z" fill="white"/>
<path d="M171.556 21.8504V23.4447H164.209V13.3243H171.348V14.9186H166.011V17.5527H170.724V19.0777H166.011V21.8504H171.556Z" fill="white"/>
<path d="M183.41 13.3243V23.4447H181.885L176.478 16.5822V23.4447H174.676V13.3243H176.201L181.608 20.1868V13.3243H183.41Z" fill="white"/>
<path d="M187.153 13.3243H191.451C194.639 13.3243 196.788 15.3345 196.788 18.3845C196.788 21.4345 194.639 23.4447 191.451 23.4447H187.153V13.3243ZM191.381 21.8504C193.53 21.8504 194.986 20.464 194.986 18.3845C194.986 16.305 193.6 14.9186 191.381 14.9186H189.025V21.8504H191.381Z" fill="white"/>
<path fill-rule="evenodd" clip-rule="evenodd" d="M141.472 22.3354L144.938 18.8695L139.531 13.3241H138.284L143.829 18.9388L141.472 22.3354ZM140.918 13.3241L145.631 18.1763L153.326 10.2048L145.562 16.6514L142.373 13.3241H140.918ZM151.939 24.6229L146.394 18.8695L149.929 15.265L147.78 18.8002L153.395 24.5536L151.939 24.6229ZM150.414 24.5536L145.701 19.5627L138.145 27.3956L145.839 21.0184L149.305 24.5536H150.414Z" fill="white"/>
<path d="M84.5622 36.9618L84.8395 36.3379C85.2554 36.7539 86.0179 37.0311 86.7111 37.0311C87.6816 37.0311 88.0975 36.6152 88.0975 36.13C88.0975 34.7436 84.6316 35.6448 84.6316 33.4959C84.6316 32.5948 85.3247 31.8323 86.8497 31.8323C87.5429 31.8323 88.2361 32.0402 88.652 32.3175L88.3747 32.9414C87.8895 32.5948 87.335 32.4561 86.7804 32.4561C85.81 32.4561 85.3941 32.872 85.3941 33.3573C85.3941 34.7436 88.86 33.9118 88.86 35.9914C88.86 36.8925 88.1668 37.5857 86.6418 37.5857C85.8793 37.655 85.0475 37.3777 84.5622 36.9618Z" fill="white"/>
<path d="M96.2769 37.5857V33.4266L94.1974 36.8925H93.8508L91.7713 33.4266V37.5857H91.0088V31.9016H91.7019L94.0587 35.9221L96.4156 31.9016H97.1087V37.5857H96.2769Z" fill="white"/>
<path d="M103.209 36.1994H100.159L99.535 37.6551H98.7032L101.268 31.971H102.1L104.665 37.6551H103.833L103.209 36.1994ZM102.932 35.5062L101.684 32.7335L100.436 35.5062H102.932Z" fill="white"/>
<path d="M110.141 37.5857L108.893 35.8527C108.754 35.8527 108.685 35.8527 108.546 35.8527H107.16V37.5857H106.328V31.9016H108.546C110.002 31.9016 110.903 32.6641 110.903 33.9118C110.903 34.813 110.418 35.4368 109.656 35.7141L111.042 37.655H110.141V37.5857ZM110.141 33.9118C110.141 33.08 109.586 32.6641 108.546 32.6641H107.16V35.2289H108.546C109.586 35.1596 110.141 34.6743 110.141 33.9118Z" fill="white"/>
<path d="M114.161 32.5948H112.22V31.9016H116.934V32.5948H114.993V37.5857H114.161V32.5948Z" fill="white"/>
<path d="M121.647 31.9016H122.479V37.5857H121.647V31.9016Z" fill="white"/>
<path d="M129.896 31.9016V37.5857H129.203L125.806 33.3573V37.5857H124.974V31.9016H125.668L129.064 36.13V31.9016H129.896Z" fill="white"/>
<path d="M137.313 31.9016L134.818 37.5857H133.986L131.49 31.9016H132.392L134.471 36.6152L136.551 31.9016H137.313Z" fill="white"/>
<path d="M142.997 36.8925V37.5857H138.838V31.9016H142.859V32.5948H139.67V34.3277H142.512V35.0209H139.67V36.8925H142.997Z" fill="white"/>
<path d="M144.591 36.9617L144.869 36.3379C145.285 36.7538 146.047 37.0311 146.74 37.0311C147.711 37.0311 148.127 36.6152 148.127 36.1299C148.127 34.7436 144.661 35.6447 144.661 33.4958C144.661 32.5947 145.354 31.8322 146.879 31.8322C147.572 31.8322 148.265 32.0402 148.681 32.3174L148.404 32.9413C147.919 32.5947 147.364 32.4561 146.81 32.4561C145.839 32.4561 145.423 32.872 145.423 33.3572C145.423 34.7436 148.889 33.9118 148.889 35.9913C148.889 36.8924 148.196 37.5856 146.671 37.5856C145.908 37.6549 145.077 37.3777 144.591 36.9617Z" fill="white"/>
<path d="M152.078 32.5948H150.137V31.9016H154.851V32.5948H152.91V37.5857H152.078V32.5948Z" fill="white"/>
<path d="M161.782 37.5857V33.4266L159.703 36.8925H159.356L157.277 33.4266V37.5857H156.514V31.9016H157.208L159.564 35.9221L161.921 31.9016H162.614V37.5857H161.782Z" fill="white"/>
<path d="M169.269 36.8925V37.5857H165.11V31.9016H169.13V32.5948H165.941V34.3277H168.783V35.0209H165.941V36.8925H169.269Z" fill="white"/>
<path d="M176.27 31.9016V37.5857H175.577L172.18 33.3573V37.5857H171.348V31.9016H172.042L175.438 36.13V31.9016H176.27Z" fill="white"/>
<path d="M179.944 32.5948H178.003V31.9016H182.716V32.5948H180.776V37.5857H179.944V32.5948Z" fill="white"/>
</svg>
