<svg width="42" height="37" viewBox="0 0 42 37" fill="none" xmlns="http://www.w3.org/2000/svg">
<path d="M12.5326 12.946V18.2893C12.5326 19.8235 11.2629 21.0932 9.72871 21.0932C8.1945 21.0932 6.9248 19.8235 6.9248 18.2893V12.946" stroke="#0D67F9" stroke-opacity="0.5" stroke-width="1.2588" stroke-miterlimit="10" stroke-linecap="round"/>
<path d="M16.8704 16.6495C15.6536 16.6495 14.6484 15.6443 14.6484 14.4275C14.6484 13.2107 15.6536 12.2056 16.8704 12.2056C18.0872 12.2056 19.0924 13.2107 19.0924 14.4275" stroke="#0D67F9" stroke-opacity="0.5" stroke-width="1.2588" stroke-miterlimit="10" stroke-linecap="round"/>
<path d="M16.8704 16.6501C18.0872 16.6501 19.0924 17.6553 19.0924 18.8721C19.0924 20.0889 18.0872 21.0941 16.8704 21.0941C15.6536 21.0941 14.6484 20.0889 14.6484 18.8721" stroke="#0D67F9" stroke-opacity="0.5" stroke-width="1.2588" stroke-miterlimit="10" stroke-linecap="round"/>
<path d="M26.8168 20.9876V15.6972C26.8168 14.163 25.5471 12.8933 24.0129 12.8933C22.4787 12.8933 21.209 14.163 21.209 15.6972V21.0405" stroke="#0D67F9" stroke-opacity="0.5" stroke-width="1.2588" stroke-miterlimit="10" stroke-linecap="round"/>
<path d="M21.3145 17.6013H26.7636" stroke="#0D67F9" stroke-opacity="0.5" stroke-width="1.2588" stroke-miterlimit="10" stroke-linecap="round"/>
<path d="M5.02193 27.0186C2.85287 24.2676 1.53027 20.8288 1.53027 17.0727C1.53027 8.23772 8.67229 1.0957 17.5072 1.0957C26.3422 1.0957 33.4842 8.23772 33.4842 17.0727" stroke="#0D67F9" stroke-width="1.2" stroke-miterlimit="10" stroke-linecap="round"/>
<path d="M17.5073 32.9972C15.3911 32.9972 13.4337 32.574 11.582 31.8862" stroke="#0D67F9" stroke-opacity="0.5" stroke-width="1.2" stroke-miterlimit="10" stroke-linecap="round"/>
<path d="M31.2607 20.1413L40.7834 19.6123L37.186 28.4473" stroke="#0D67F9" stroke-width="1.2" stroke-miterlimit="10" stroke-linecap="round"/>
<path d="M1 35.6947L13.7498 27.6004L20.3628 33.4198L40.1489 20.0352" stroke="#0D67F9" stroke-width="1.2" stroke-miterlimit="10" stroke-linecap="round"/>
</svg>
