<?xml version="1.0" encoding="utf-8"?>
<!-- Generator: Adobe Illustrator 16.0.0, SVG Export Plug-In . SVG Version: 6.00 Build 0)  -->
<!DOCTYPE svg PUBLIC "-//W3C//DTD SVG 1.1//EN" "http://www.w3.org/Graphics/SVG/1.1/DTD/svg11.dtd">
<svg version="1.1" id="Layer_1" xmlns="http://www.w3.org/2000/svg" xmlns:xlink="http://www.w3.org/1999/xlink" x="0px" y="0px"
	 width="35px" height="34px" viewBox="0 0 35 34" enable-background="new 0 0 35 34" xml:space="preserve">
<path fill="none" stroke="#FFFFFF" stroke-width="1.2" stroke-miterlimit="10" d="M14.461,24.303H7.089
	c-1.079,1.078-1.67,1.67-2.749,2.748v5.498H17.21v-5.498C16.131,25.973,15.541,25.381,14.461,24.303z"/>
<path fill="none" stroke="#FFFFFF" stroke-width="1.2" stroke-miterlimit="10" d="M28,24.303h-7.398
	c-1.079,1.078-1.67,1.67-2.749,2.748v5.498h12.87v-5.498C29.67,25.973,29.053,25.381,28,24.303z"/>
<path fill="none" stroke="#FFFFFF" stroke-width="1.2" stroke-miterlimit="10" d="M21.243,15.517h-7.398
	c-1.079,1.079-1.67,1.67-2.749,2.749v5.497h12.871v-5.497C22.913,17.187,22.297,16.596,21.243,15.517z"/>
<path opacity="0.5" fill="none" stroke="#FFFFFF" stroke-width="1.2" stroke-miterlimit="10" enable-background="new    " d="
	M24.866,25.869h2.312l1.773,1.619"/>
<path opacity="0.5" fill="none" stroke="#FFFFFF" stroke-width="1.2" stroke-miterlimit="10" enable-background="new    " d="
	M11.404,25.869h2.312l1.772,1.619"/>
<path opacity="0.5" fill="none" stroke="#FFFFFF" stroke-width="1.2" stroke-miterlimit="10" enable-background="new    " d="
	M18.237,17.083h2.312l1.773,1.645"/>
<path fill="none" stroke="#FFFFFF" stroke-width="1.2" stroke-miterlimit="10" d="M29.644,20.963l4.29-1.388"/>
<path fill="none" stroke="#FFFFFF" stroke-width="1.2" stroke-miterlimit="10" d="M27.819,17.417l3.647-2.672"/>
<path fill="none" stroke="#FFFFFF" stroke-width="1.2" stroke-miterlimit="10" d="M32.547,13.949l1.387-1.002"/>
<path fill="none" stroke="#FFFFFF" stroke-width="1.2" stroke-miterlimit="10" d="M24.969,14.592l2.646-3.648"/>
<path fill="none" stroke="#FFFFFF" stroke-width="1.2" stroke-miterlimit="10" d="M28.411,9.839l1.002-1.387"/>
<path fill="none" stroke="#FFFFFF" stroke-width="1.2" stroke-miterlimit="10" d="M30.21,7.347l0.694-0.976"/>
<path fill="none" stroke="#FFFFFF" stroke-width="1.2" stroke-miterlimit="10" d="M21.424,12.793l1.361-4.291"/>
<path fill="none" stroke="#FFFFFF" stroke-width="1.2" stroke-miterlimit="10" d="M23.197,7.219l0.514-1.618"/>
<path fill="none" stroke="#FFFFFF" stroke-width="1.2" stroke-miterlimit="10" d="M24.146,4.264l0.359-1.13"/>
<path fill="none" stroke="#FFFFFF" stroke-width="1.2" stroke-miterlimit="10" d="M17.468,12.203l-0.026-4.521"/>
<path fill="none" stroke="#FFFFFF" stroke-width="1.2" stroke-miterlimit="10" d="M17.417,6.319V4.624"/>
<path fill="none" stroke="#FFFFFF" stroke-width="1.2" stroke-miterlimit="10" d="M17.417,3.237l-0.026-1.182"/>
<path fill="none" stroke="#FFFFFF" stroke-width="1.2" stroke-miterlimit="10" d="M17.392,0.668V0"/>
<path fill="none" stroke="#FFFFFF" stroke-width="1.2" stroke-miterlimit="10" d="M13.512,12.845l-1.413-4.29"/>
<path fill="none" stroke="#FFFFFF" stroke-width="1.2" stroke-miterlimit="10" d="M11.662,7.27l-0.54-1.619"/>
<path fill="none" stroke="#FFFFFF" stroke-width="1.2" stroke-miterlimit="10" d="M10.685,4.341l-0.359-1.104"/>
<path fill="none" stroke="#FFFFFF" stroke-width="1.2" stroke-miterlimit="10" d="M9.966,14.694l-2.672-3.648"/>
<path fill="none" stroke="#FFFFFF" stroke-width="1.2" stroke-miterlimit="10" d="M6.473,9.967L5.471,8.606"/>
<path fill="none" stroke="#FFFFFF" stroke-width="1.2" stroke-miterlimit="10" d="M4.648,7.476l-0.694-0.95"/>
<path fill="none" stroke="#FFFFFF" stroke-width="1.2" stroke-miterlimit="10" d="M7.166,17.546l-3.674-2.621"/>
<path fill="none" stroke="#FFFFFF" stroke-width="1.2" stroke-miterlimit="10" d="M2.387,14.129L1,13.153"/>
<path fill="none" stroke="#FFFFFF" stroke-width="1.2" stroke-miterlimit="10" d="M5.392,21.117l-4.316-1.361"/>
</svg>
