<?xml version="1.0" encoding="utf-8"?>
<!-- Generator: Adobe Illustrator 25.0.0, SVG Export Plug-In . SVG Version: 6.00 Build 0)  -->
<svg version="1.1" id="Layer_1" xmlns="http://www.w3.org/2000/svg" xmlns:xlink="http://www.w3.org/1999/xlink" x="0px" y="0px"
	 viewBox="0 0 149 72" style="enable-background:new 0 0 149 72;" xml:space="preserve">
<style type="text/css">
	.st0{fill:#FF5F00;}
	.st1{fill:#EB001B;}
	.st2{fill:#F79E1B;}
</style>
<g id="XMLID_328_" transform="translate(-502.86126,-41.013507)">
	<rect id="rect19" x="567.5" y="59.2" class="st0" width="19.8" height="35.6"/>
	<path id="XMLID_330_" class="st1" d="M568.7,77c0-7.2,3.4-13.7,8.6-17.8c-3.8-3-8.7-4.8-14-4.8c-12.5,0-22.7,10.1-22.7,22.7
		s10.1,22.6,22.7,22.6c5.3,0,10.1-1.8,14-4.8C572.1,90.7,568.7,84.2,568.7,77z"/>
	<path id="path22" class="st2" d="M614,77c0,12.5-10.1,22.6-22.7,22.6c-5.3,0-10.1-1.8-14-4.8c5.3-4.2,8.6-10.6,8.6-17.8
		c0-7.2-3.4-13.7-8.6-17.8c3.8-3,8.7-4.8,14-4.8C603.9,54.4,614,64.6,614,77z"/>
</g>
</svg>
