<svg width="38" height="38" viewBox="0 0 38 38" fill="none" xmlns="http://www.w3.org/2000/svg">
<path d="M19.1001 37.2959C29.0965 37.2959 37.2002 29.1922 37.2002 19.1958C37.2002 9.19939 29.0965 1.0957 19.1001 1.0957C9.10369 1.0957 1 9.19939 1 19.1958C1 29.1922 9.10369 37.2959 19.1001 37.2959Z" stroke="#0D67F9" stroke-width="1.2" stroke-miterlimit="10"/>
<path opacity="0.5" d="M19.1011 34.6132C27.6159 34.6132 34.5185 27.7106 34.5185 19.1958C34.5185 10.681 27.6159 3.77832 19.1011 3.77832C10.5862 3.77832 3.68359 10.681 3.68359 19.1958C3.68359 27.7106 10.5862 34.6132 19.1011 34.6132Z" stroke="#0D67F9" stroke-width="1.2" stroke-miterlimit="10"/>
<path d="M19.0695 8.52686L25.6065 19.3191L19.0387 23.0193L12.625 19.2574L19.0695 8.52686Z" stroke="#0D67F9" stroke-width="1.2" stroke-miterlimit="10"/>
<path d="M25.052 21.5701L19.1317 29.8955L13.0264 21.4468L19.07 25.0545L25.052 21.5701Z" stroke="#0D67F9" stroke-width="1.2" stroke-miterlimit="10"/>
<path opacity="0.5" d="M19.0684 8.52686V22.8343" stroke="#0D67F9" stroke-width="1.2" stroke-miterlimit="10"/>
<path opacity="0.5" d="M19.0684 25.0544L19.13 29.8955" stroke="#0D67F9" stroke-width="1.2" stroke-miterlimit="10"/>
</svg>
