<svg width="35" height="34" viewBox="0 0 35 34" fill="none" xmlns="http://www.w3.org/2000/svg">
<path d="M14.4615 24.3025H7.08863C6.00967 25.3815 5.41881 25.9723 4.33984 27.0513V32.5488H17.2103V27.0513C16.1314 25.9723 15.5405 25.3815 14.4615 24.3025Z" stroke="#0D67F9" stroke-width="1.2" stroke-miterlimit="10"/>
<path d="M27.9999 24.3025H20.6013C19.5224 25.3815 18.9315 25.9723 17.8525 27.0513V32.5488H30.723V27.0513C29.6697 25.9723 29.0532 25.3815 27.9999 24.3025Z" stroke="#0D67F9" stroke-width="1.2" stroke-miterlimit="10"/>
<path d="M21.2431 15.5166H13.8445C12.7655 16.5956 12.1747 17.1864 11.0957 18.2654V23.7629H23.9662V18.2654C22.9129 17.1864 22.2964 16.5956 21.2431 15.5166Z" stroke="#0D67F9" stroke-width="1.2" stroke-miterlimit="10"/>
<path opacity="0.5" d="M24.8662 25.8694H27.1783L28.9509 27.4878" stroke="#0D67F9" stroke-width="1.2" stroke-miterlimit="10"/>
<path opacity="0.5" d="M11.4043 25.8694H13.7164L15.4889 27.4878" stroke="#0D67F9" stroke-width="1.2" stroke-miterlimit="10"/>
<path opacity="0.5" d="M18.2373 17.0837H20.5494L22.3219 18.7279" stroke="#0D67F9" stroke-width="1.2" stroke-miterlimit="10"/>
<path d="M29.6436 20.9627L33.9337 19.5754" stroke="#0D67F9" stroke-width="1.2" stroke-miterlimit="10"/>
<path d="M27.8193 17.4176L31.4673 14.7458" stroke="#0D67F9" stroke-width="1.2" stroke-miterlimit="10"/>
<path d="M32.5469 13.9494L33.9341 12.9475" stroke="#0D67F9" stroke-width="1.2" stroke-miterlimit="10"/>
<path d="M24.9688 14.5918L27.6148 10.9438" stroke="#0D67F9" stroke-width="1.2" stroke-miterlimit="10"/>
<path d="M28.4111 9.83914L29.413 8.4519" stroke="#0D67F9" stroke-width="1.2" stroke-miterlimit="10"/>
<path d="M30.21 7.3473L30.9036 6.37109" stroke="#0D67F9" stroke-width="1.2" stroke-miterlimit="10"/>
<path d="M21.4238 12.7933L22.7854 8.50317" stroke="#0D67F9" stroke-width="1.2" stroke-miterlimit="10"/>
<path d="M23.1973 7.21878L23.7111 5.60034" stroke="#0D67F9" stroke-width="1.2" stroke-miterlimit="10"/>
<path d="M24.1465 4.26437L24.5061 3.13403" stroke="#0D67F9" stroke-width="1.2" stroke-miterlimit="10"/>
<path d="M17.4681 12.2025L17.4424 7.68115" stroke="#0D67F9" stroke-width="1.2" stroke-miterlimit="10"/>
<path d="M17.417 6.31953V4.62402" stroke="#0D67F9" stroke-width="1.2" stroke-miterlimit="10"/>
<path d="M17.4163 3.2369L17.3906 2.05518" stroke="#0D67F9" stroke-width="1.2" stroke-miterlimit="10"/>
<path d="M17.3916 0.667929V0" stroke="#0D67F9" stroke-width="1.2" stroke-miterlimit="10"/>
<path d="M13.5116 12.8448L12.0986 8.55469" stroke="#0D67F9" stroke-width="1.2" stroke-miterlimit="10"/>
<path d="M11.6616 7.27005L11.1221 5.65161" stroke="#0D67F9" stroke-width="1.2" stroke-miterlimit="10"/>
<path d="M10.6848 4.34147L10.3252 3.23682" stroke="#0D67F9" stroke-width="1.2" stroke-miterlimit="10"/>
<path d="M9.96566 14.6945L7.29395 11.0466" stroke="#0D67F9" stroke-width="1.2" stroke-miterlimit="10"/>
<path d="M6.4726 9.9675L5.4707 8.60596" stroke="#0D67F9" stroke-width="1.2" stroke-miterlimit="10"/>
<path d="M4.64772 7.47566L3.9541 6.52515" stroke="#0D67F9" stroke-width="1.2" stroke-miterlimit="10"/>
<path d="M7.16579 17.5459L3.49219 14.9255" stroke="#0D67F9" stroke-width="1.2" stroke-miterlimit="10"/>
<path d="M2.38724 14.1293L1 13.1531" stroke="#0D67F9" stroke-width="1.2" stroke-miterlimit="10"/>
<path d="M5.39202 21.1169L1.07617 19.7554" stroke="#0D67F9" stroke-width="1.2" stroke-miterlimit="10"/>
</svg>
