<svg width="42" height="37" viewBox="0 0 42 37" fill="none" xmlns="http://www.w3.org/2000/svg">
<path d="M24.6908 12.9458V18.2891C24.6908 19.8233 23.4211 21.093 21.8869 21.093C20.3527 21.093 19.083 19.8233 19.083 18.2891V12.9458" stroke="#0D67F9" stroke-opacity="0.5" stroke-width="1.2588" stroke-miterlimit="10" stroke-linecap="round"/>
<path d="M10.999 13.0952V21.0401" stroke="#0D67F9" stroke-opacity="0.5" stroke-width="1.2588" stroke-miterlimit="10" stroke-linecap="round"/>
<path d="M11.1045 21.0952H16.5536" stroke="#0D67F9" stroke-opacity="0.5" stroke-width="1.2588" stroke-miterlimit="10" stroke-linecap="round"/>
<path d="M11.1045 13.0952H16.5536" stroke="#0D67F9" stroke-opacity="0.5" stroke-width="1.2588" stroke-miterlimit="10" stroke-linecap="round"/>
<path d="M10.999 17.0952H14.999" stroke="#0D67F9" stroke-opacity="0.5" stroke-width="1.2588" stroke-miterlimit="10" stroke-linecap="round"/>
<path d="M5.18013 27.0186C3.01107 24.2676 1.68848 20.8288 1.68848 17.0727C1.68848 8.23772 8.8305 1.0957 17.6654 1.0957C26.5004 1.0957 33.6424 8.23772 33.6424 17.0727" stroke="#0D67F9" stroke-width="1.2" stroke-miterlimit="10" stroke-linecap="round"/>
<path d="M17.6655 32.9972C15.5493 32.9972 13.5919 32.574 11.7402 31.8862" stroke="#0D67F9" stroke-opacity="0.5" stroke-width="1.2" stroke-miterlimit="10" stroke-linecap="round"/>
<path d="M31.4189 20.1413L40.9416 19.6123L37.3442 28.4473" stroke="#0D67F9" stroke-width="1.2" stroke-miterlimit="10" stroke-linecap="round"/>
<path d="M1.1582 35.6947L13.908 27.6004L20.521 33.4198L40.3071 20.0352" stroke="#0D67F9" stroke-width="1.2" stroke-miterlimit="10" stroke-linecap="round"/>
</svg>
