<svg width="36" height="34" viewBox="0 0 36 34" fill="none" xmlns="http://www.w3.org/2000/svg">
<path d="M4.48047 20.2051V15.8867" stroke="#0D67F9" stroke-opacity="0.5" stroke-width="1.2" stroke-miterlimit="10"/>
<path d="M4.48047 29.1318V23.9756" stroke="#0D67F9" stroke-width="1.2" stroke-miterlimit="10"/>
<path d="M10.6357 15.9189V8.92578" stroke="#0D67F9" stroke-opacity="0.5" stroke-width="1.2" stroke-miterlimit="10"/>
<path d="M10.6357 32.3223V19.6895" stroke="#0D67F9" stroke-width="1.2" stroke-miterlimit="10"/>
<path d="M16.8232 19.2705V0.0957031" stroke="#0D67F9" stroke-opacity="0.5" stroke-width="1.2" stroke-miterlimit="10"/>
<path d="M16.8232 33.0957V23.041" stroke="#0D67F9" stroke-width="1.2" stroke-miterlimit="10"/>
<path d="M23.0107 20.0117V6.02539" stroke="#0D67F9" stroke-opacity="0.5" stroke-width="1.2" stroke-miterlimit="10"/>
<path d="M23.0107 31.8066V23.7822" stroke="#0D67F9" stroke-width="1.2" stroke-miterlimit="10"/>
<path d="M29.1982 16.7568V2.48047" stroke="#0D67F9" stroke-opacity="0.5" stroke-width="1.2" stroke-miterlimit="10"/>
<path d="M29.1982 27.8105V20.5596" stroke="#0D67F9" stroke-width="1.2" stroke-miterlimit="10"/>
<path d="M1.22559 22.4287L12.1182 14.8877L19.5625 21.7842L33.6455 14.4365" stroke="#0D67F9" stroke-width="1.2" stroke-miterlimit="10"/>
<path d="M31.0674 13.9531L34.4189 14.0176L32.1631 16.9502" stroke="#0D67F9" stroke-width="1.2" stroke-miterlimit="10"/>
<path d="M33.001 22.6543C29.9072 28.8418 23.4941 33.0957 16.082 33.0957C9.92676 33.0957 4.44824 30.1631 1 25.5869" stroke="#0D67F9" stroke-width="1.2" stroke-miterlimit="10"/>
</svg>
