<?xml version="1.0" encoding="utf-8"?>
<!-- Generator: Adobe Illustrator 16.0.0, SVG Export Plug-In . SVG Version: 6.00 Build 0)  -->
<!DOCTYPE svg PUBLIC "-//W3C//DTD SVG 1.1//EN" "http://www.w3.org/Graphics/SVG/1.1/DTD/svg11.dtd">
<svg version="1.1" id="Layer_1" xmlns="http://www.w3.org/2000/svg" xmlns:xlink="http://www.w3.org/1999/xlink" x="0px" y="0px"
	 width="41px" height="38px" viewBox="0 0 41 38" enable-background="new 0 0 41 38" xml:space="preserve">
<path fill="none" stroke="#FFFFFF" stroke-width="1.2" stroke-linecap="round" stroke-miterlimit="10" d="M20.504,13.426h5.34v-3.6
	l6.37,6.369l-6.37,6.331v-3.482H14.569v-3.481L8.2,21.932l6.369,6.369v-3.64h5.341"/>
<path fill="none" stroke="#FFFFFF" stroke-width="1.2" stroke-linecap="round" stroke-miterlimit="10" stroke-opacity="0.5" d="
	M4.64,9.826C8.2,3.655,15.242-0.024,22.719,0.964c7.477,0.989,13.293,6.449,15.112,13.292"/>
<path fill="none" stroke="#FFFFFF" stroke-width="1.2" stroke-linecap="round" stroke-miterlimit="10" stroke-opacity="0.5" d="
	M35.972,28.104c-3.6,6.131-10.603,9.85-18.079,8.822C10.416,35.936,4.6,30.477,2.78,23.633"/>
<path fill="none" stroke="#FFFFFF" stroke-width="1.2" stroke-linecap="round" stroke-miterlimit="10" stroke-opacity="0.5" d="
	M34.824,13.149l3.165,1.424l1.424-3.165"/>
<path fill="none" stroke="#FFFFFF" stroke-width="1.2" stroke-linecap="round" stroke-miterlimit="10" stroke-opacity="0.5" d="
	M5.668,24.701l-3.165-1.503L1,26.363"/>
</svg>
