<?xml version="1.0" encoding="utf-8"?>
<!-- Generator: Adobe Illustrator 16.0.0, SVG Export Plug-In . SVG Version: 6.00 Build 0)  -->
<!DOCTYPE svg PUBLIC "-//W3C//DTD SVG 1.1//EN" "http://www.w3.org/Graphics/SVG/1.1/DTD/svg11.dtd">
<svg version="1.1" id="Layer_1" xmlns="http://www.w3.org/2000/svg" xmlns:xlink="http://www.w3.org/1999/xlink" x="0px" y="0px"
	 width="38px" height="34px" viewBox="0 0 38 34" enable-background="new 0 0 38 34" xml:space="preserve">
<path opacity="0.5" fill="none" stroke="#FFFFFF" stroke-width="1.2" stroke-linecap="round" stroke-miterlimit="10" enable-background="new    " d="
	M6.33,18.864H4.85v7.403h1.48V18.864z"/>
<path opacity="0.5" fill="none" stroke="#FFFFFF" stroke-width="1.2" stroke-linecap="round" stroke-miterlimit="10" enable-background="new    " d="
	M11.958,15.902h-1.777v10.365h1.777V15.902z"/>
<path opacity="0.5" fill="none" stroke="#FFFFFF" stroke-width="1.2" stroke-linecap="round" stroke-miterlimit="10" enable-background="new    " d="
	M16.992,12.941h-1.777v13.326h1.777V12.941z"/>
<path fill="none" stroke="#FFFFFF" stroke-width="1.2" stroke-miterlimit="10" d="M2.392,16.251l3.406-3.168l1.569,1.54l4.916-4.797
	l1.629,1.658l5.182-4.945"/>
<path fill="none" stroke="#FFFFFF" stroke-width="1.2" stroke-miterlimit="10" d="M18.828,10.269l0.651-4.175l-4.057,0.622"/>
<path fill="none" stroke="#FFFFFF" stroke-width="1.2" stroke-linecap="round" stroke-miterlimit="10" stroke-opacity="0.5" d="
	M21.256,26.201H1.829C1.385,26.201,1,25.816,1,25.372V2.007c0-0.444,0.385-0.829,0.829-0.829h25.765
	c0.443,0,0.828,0.385,0.828,0.829v16.11"/>
<path fill="none" stroke="#FFFFFF" stroke-width="1.2" stroke-miterlimit="10" d="M30.437,23.596c0,2.754-2.251,5.004-5.005,5.004
	s-5.005-2.25-5.005-5.004c0-5.094,5.005-9.122,5.005-9.122S30.437,19.242,30.437,23.596z"/>
<path opacity="0.5" fill="none" stroke="#FFFFFF" stroke-width="1.2" stroke-linecap="round" stroke-miterlimit="10" enable-background="new    " d="
	M25.551,26.615c-1.333,0-2.488-0.828-2.991-1.983"/>
<path fill="#FFFFFF" d="M25.847,24.01v0.089c0,0.267-0.207,0.474-0.474,0.474s-0.475-0.207-0.475-0.474v-0.06
	c-0.207-0.029-0.414-0.118-0.65-0.266c-0.208-0.148-0.268-0.445-0.148-0.652c0.148-0.207,0.443-0.266,0.651-0.148
	c0.237,0.148,0.296,0.148,0.622,0.148c0.296,0,0.414-0.236,0.443-0.385c0.03-0.119,0-0.296-0.236-0.385
	c-0.385-0.148-0.799-0.297-1.066-0.504c-0.651-0.503-0.443-1.658,0.385-1.954v-0.06c0-0.267,0.208-0.474,0.475-0.474
	s0.474,0.207,0.474,0.474v0.029c0.237,0.06,0.415,0.178,0.533,0.326c0.178,0.178,0.178,0.475,0,0.651
	c-0.178,0.178-0.474,0.178-0.651,0c-0.029-0.029-0.178-0.147-0.475-0.06c-0.118,0.03-0.147,0.178-0.178,0.208
	c-0.029,0.089,0,0.147,0.03,0.147c0.178,0.148,0.503,0.268,0.8,0.355C27.12,21.938,26.973,23.596,25.847,24.01z"/>
<path fill="none" stroke="#FFFFFF" stroke-width="1.2" stroke-linecap="round" stroke-miterlimit="10" d="M34.109,16.014h-3.229
	v-5.982c0-0.889,0.74-1.629,1.629-1.629h2.518c0.888,0,1.629,0.74,1.629,1.629v1.688H35.53c-0.74,0-1.362,0.592-1.392,1.362
	C34.079,14.385,34.109,16.014,34.109,16.014z"/>
<path fill="none" stroke="#FFFFFF" stroke-width="1.2" stroke-linecap="round" stroke-miterlimit="10" d="M34.228,8.255V5.057
	c0-0.355,0.178-0.651,0.444-0.858l2.311-1.54c0.354-0.237,0.473-0.74,0.266-1.125c-0.236-0.444-0.829-0.563-1.244-0.296L33.34,3.073
	c-0.711,0.474-1.126,1.273-1.126,2.132v3.021"/>
<path fill="none" stroke="#FFFFFF" stroke-width="1.2" stroke-linecap="round" stroke-miterlimit="10" d="M32.361,16.014v15.192
	c0,1.036-0.829,1.865-1.865,1.865c-1.037,0-1.866-0.829-1.866-1.865v-3.643"/>
</svg>
