<?xml version="1.0" encoding="utf-8"?>
<!-- Generator: Adobe Illustrator 16.0.0, SVG Export Plug-In . SVG Version: 6.00 Build 0)  -->
<!DOCTYPE svg PUBLIC "-//W3C//DTD SVG 1.1//EN" "http://www.w3.org/Graphics/SVG/1.1/DTD/svg11.dtd">
<svg version="1.1" id="Layer_1" xmlns="http://www.w3.org/2000/svg" xmlns:xlink="http://www.w3.org/1999/xlink" x="0px" y="0px"
	 width="42px" height="37px" viewBox="0 0 42 37" enable-background="new 0 0 42 37" xml:space="preserve">
<path fill="none" stroke="#FFFFFF" stroke-width="1.2588" stroke-linecap="round" stroke-miterlimit="10" stroke-opacity="0.5" d="
	M12.533,12.946v5.343c0,1.534-1.27,2.805-2.804,2.805s-2.804-1.271-2.804-2.805v-5.343"/>
<path fill="none" stroke="#FFFFFF" stroke-width="1.2588" stroke-linecap="round" stroke-miterlimit="10" stroke-opacity="0.5" d="
	M16.871,16.649c-1.217,0-2.222-1.005-2.222-2.222s1.005-2.222,2.222-2.222s2.222,1.005,2.222,2.222"/>
<path fill="none" stroke="#FFFFFF" stroke-width="1.2588" stroke-linecap="round" stroke-miterlimit="10" stroke-opacity="0.5" d="
	M16.871,16.65c1.217,0,2.222,1.005,2.222,2.222s-1.005,2.222-2.222,2.222s-2.222-1.005-2.222-2.222"/>
<path fill="none" stroke="#FFFFFF" stroke-width="1.2588" stroke-linecap="round" stroke-miterlimit="10" stroke-opacity="0.5" d="
	M26.816,20.988v-5.291c0-1.534-1.27-2.804-2.804-2.804s-2.804,1.27-2.804,2.804v5.344"/>
<path fill="none" stroke="#FFFFFF" stroke-width="1.2588" stroke-linecap="round" stroke-miterlimit="10" stroke-opacity="0.5" d="
	M21.314,17.601h5.449"/>
<path fill="none" stroke="#FFFFFF" stroke-width="1.2" stroke-linecap="round" stroke-miterlimit="10" d="M5.022,27.019
	c-2.169-2.751-3.492-6.19-3.492-9.946c0-8.835,7.142-15.977,15.977-15.977c8.834,0,15.977,7.142,15.977,15.977"/>
<path fill="none" stroke="#FFFFFF" stroke-width="1.2" stroke-linecap="round" stroke-miterlimit="10" stroke-opacity="0.5" d="
	M17.507,32.997c-2.116,0-4.074-0.423-5.925-1.11"/>
<path fill="none" stroke="#FFFFFF" stroke-width="1.2" stroke-linecap="round" stroke-miterlimit="10" d="M31.261,20.141
	l9.522-0.528l-3.598,8.835"/>
<path fill="none" stroke="#FFFFFF" stroke-width="1.2" stroke-linecap="round" stroke-miterlimit="10" d="M1,35.695l12.75-8.095
	l6.613,5.819l19.786-13.385"/>
</svg>
