<?xml version="1.0" encoding="utf-8"?>
<!-- Generator: Adobe Illustrator 16.0.0, SVG Export Plug-In . SVG Version: 6.00 Build 0)  -->
<!DOCTYPE svg PUBLIC "-//W3C//DTD SVG 1.1//EN" "http://www.w3.org/Graphics/SVG/1.1/DTD/svg11.dtd">
<svg version="1.1" id="Layer_1" xmlns="http://www.w3.org/2000/svg" xmlns:xlink="http://www.w3.org/1999/xlink" x="0px" y="0px"
	 width="30px" height="28px" viewBox="0 0 30 28" enable-background="new 0 0 30 28" xml:space="preserve">
<path fill="none" stroke="#0D67F9" stroke-width="1.2" stroke-miterlimit="10" d="M27.914,22.558H2.229
	C1.571,22.558,1,21.986,1,21.328V2.229C1,1.571,1.571,1,2.229,1h25.685c0.658,0,1.229,0.571,1.229,1.229v19.099
	C29.144,22.031,28.572,22.558,27.914,22.558z"/>
<path fill="none" stroke="#0D67F9" stroke-width="1.2" stroke-miterlimit="10" d="M10.483,22.383v4.521"/>
<path fill="none" stroke="#0D67F9" stroke-width="1.2" stroke-miterlimit="10" d="M19.616,22.383v4.521"/>
<path fill="none" stroke="#0D67F9" stroke-width="1.2" stroke-miterlimit="10" d="M22.162,26.86H7.98"/>
<path fill="none" stroke="#0D67F9" stroke-width="1.2" stroke-miterlimit="10" stroke-opacity="0.5" d="M8.025,16.543H5.127v2.985
	h2.898V16.543z"/>
<path fill="none" stroke="#0D67F9" stroke-width="1.2" stroke-miterlimit="10" d="M6.62,15.006V8.859"/>
<path fill="none" stroke="#0D67F9" stroke-width="1.2" stroke-miterlimit="10" d="M7.674,11.054L6.62,8.859l-1.054,2.195"/>
<path fill="none" stroke="#0D67F9" stroke-width="1.2" stroke-miterlimit="10" stroke-opacity="0.5" d="M13.557,13.425h-2.898v6.103
	h2.898V13.425z"/>
<path fill="none" stroke="#0D67F9" stroke-width="1.2" stroke-miterlimit="10" d="M12.196,11.889V7.146"/>
<path fill="none" stroke="#0D67F9" stroke-width="1.2" stroke-miterlimit="10" d="M13.25,9.298l-1.054-2.195l-1.054,2.195"/>
<path fill="none" stroke="#0D67F9" stroke-width="1.2" stroke-miterlimit="10" stroke-opacity="0.5" d="M25.061,12.372h-2.898v7.157
	h2.898V12.372z"/>
<path fill="none" stroke="#0D67F9" stroke-width="1.2" stroke-miterlimit="10" d="M23.655,10.835V7.498"/>
<path fill="none" stroke="#0D67F9" stroke-width="1.2" stroke-miterlimit="10" d="M24.709,9.649l-1.054-2.195l-1.054,2.195"/>
<path fill="none" stroke="#0D67F9" stroke-width="1.2" stroke-miterlimit="10" stroke-opacity="0.5" d="M19.484,8.903h-2.898v10.625
	h2.898V8.903z"/>
<path fill="none" stroke="#0D67F9" stroke-width="1.2" stroke-miterlimit="10" d="M18.079,7.366V2.625"/>
<path fill="none" stroke="#0D67F9" stroke-width="1.2" stroke-miterlimit="10" d="M19.133,4.776l-1.054-2.195l-1.054,2.195"/>
</svg>
