<?xml version="1.0" encoding="utf-8"?>
<!-- Generator: Adobe Illustrator 25.0.0, SVG Export Plug-In . SVG Version: 6.00 Build 0)  -->
<svg version="1.1" id="Layer_1" xmlns="http://www.w3.org/2000/svg" xmlns:xlink="http://www.w3.org/1999/xlink" x="0px" y="0px"
	 viewBox="0 0 149 72" style="enable-background:new 0 0 149 72;" xml:space="preserve">
<style type="text/css">
	.st0{fill:#54A4E9;}
	.st1{fill:#3E3E3E;}
</style>
<g>
	<rect x="10.5" y="32.3" class="st0" width="4" height="10.6"/>
	<rect x="19.4" y="32.3" class="st0" width="4" height="10.6"/>
	<g>
		<polygon class="st0" points="21.4,18.4 7.4,29.2 35.3,29.2 		"/>
		<polygon class="st0" points="41.8,42.9 35,42.9 35,38.7 26.7,46.2 35,53.7 35,49.5 41.8,49.5 		"/>
		<polygon class="st0" points="37.5,34.2 44.4,34.2 44.4,30 52.7,37.5 44.4,45 44.4,40.8 37.5,40.8 		"/>
		<polygon class="st0" points="23.8,45.7 25.6,49.7 7.4,49.7 7.4,45.7 		"/>
		<polygon class="st0" points="32.3,37.6 28.4,40.8 28.4,32.3 32.3,32.3 		"/>
	</g>
</g>
<g>
	<path class="st1" d="M63.8,20.8v11.9h4.7v1.4H62V20.8H63.8z"/>
	<path class="st1" d="M74.9,34.3c-3,0-5.2-2.1-5.2-5.4c0-3.3,2.3-5.4,5.3-5.4c3,0,5.3,2.1,5.3,5.4C80.3,32.2,77.9,34.3,74.9,34.3z
		 M74.9,32.8c1.8,0,3.6-1.2,3.6-3.9c0-2.6-1.7-3.9-3.5-3.9c-1.8,0-3.5,1.2-3.5,3.9C71.4,31.6,73.1,32.8,74.9,32.8z"/>
	<path class="st1" d="M87,23.5c2.6,0,4.3,1.3,4.8,3.5H90c-0.4-1.3-1.4-2.1-3-2.1c-1.9,0-3.3,1.4-3.3,3.9c0,2.6,1.4,4,3.3,4
		c1.6,0,2.6-0.7,3-2.1h1.9c-0.5,2.1-2.2,3.5-4.8,3.5c-3,0-5.1-2.1-5.1-5.4C81.9,25.6,84,23.5,87,23.5z"/>
	<path class="st1" d="M98.5,23.5c2,0,3.3,1,3.9,2.1v-1.9h1.8v10.5h-1.8v-2c-0.6,1.1-2,2.1-3.9,2.1c-2.8,0-5-2.2-5-5.5
		C93.5,25.6,95.7,23.5,98.5,23.5z M98.9,25c-1.9,0-3.5,1.4-3.5,3.9c0,2.5,1.6,3.9,3.5,3.9s3.6-1.4,3.6-3.9
		C102.4,26.5,100.8,25,98.9,25z"/>
	<path class="st1" d="M107.1,20h1.7v14.2h-1.7V20z"/>
	<path class="st1" d="M61.2,37.3h9v1.4h-3.6v11.9h-1.7V38.7h-3.7V37.3z"/>
	<path class="st1" d="M74.1,50.7h-1.7V40.2h1.7v1.7c0.6-1.2,1.7-1.9,3.4-1.9v1.8h-0.5c-1.7,0-2.9,0.7-2.9,3.2V50.7z"/>
	<path class="st1" d="M83.9,40c2,0,3.3,1,3.9,2.1v-1.9h1.8v10.5h-1.8v-2c-0.6,1.1-2,2.1-3.9,2.1c-2.8,0-5-2.2-5-5.5
		C78.9,42.1,81,40,83.9,40z M84.2,41.5c-1.9,0-3.5,1.4-3.5,3.9c0,2.5,1.6,3.9,3.5,3.9s3.6-1.4,3.6-3.9C87.8,43,86.1,41.5,84.2,41.5z
		"/>
	<path class="st1" d="M100.2,44.7c0-2.1-1.2-3.2-2.9-3.2c-1.8,0-3,1.1-3,3.4v5.8h-1.7V40.2h1.7v1.5c0.7-1.1,2-1.7,3.4-1.7
		c2.4,0,4.3,1.5,4.3,4.5v6.2h-1.7V44.7z"/>
	<path class="st1" d="M108.4,50.8c-2.5,0-4.2-1.3-4.3-3.3h1.8c0.1,1,1,1.8,2.5,1.8c1.4,0,2.1-0.7,2.1-1.6c0-2.3-6.2-1-6.2-4.9
		c0-1.6,1.5-2.9,3.8-2.9c2.3,0,3.8,1.2,4,3.3h-1.7c-0.1-1.1-0.9-1.8-2.3-1.8c-1.3,0-2,0.6-2,1.5c0,2.5,6.1,1.1,6.2,4.9
		C112.3,49.5,110.8,50.8,108.4,50.8z"/>
	<path class="st1" d="M115.1,41.6h-1.4v-1.4h1.4v-0.7c0-2.3,1.1-3.4,3.8-3.4v1.5c-1.6,0-2.1,0.6-2.1,1.9v0.7h2.2v1.4h-2.2v9.1h-1.7
		V41.6z"/>
	<path class="st1" d="M125.6,50.8c-3,0-5.2-2.1-5.2-5.4c0-3.3,2.1-5.4,5.2-5.4c3,0,5,2.1,5,5c0,0.4,0,0.7-0.1,1.1h-8.4
		c0.1,2.1,1.6,3.3,3.4,3.3c1.6,0,2.6-0.8,2.9-1.9h1.9C129.9,49.4,128.2,50.8,125.6,50.8z M122.2,44.7h6.6c0-2-1.5-3.2-3.3-3.2
		C123.8,41.5,122.4,42.6,122.2,44.7z"/>
	<path class="st1" d="M134.6,50.7h-1.7V40.2h1.7v1.7c0.6-1.2,1.7-1.9,3.4-1.9v1.8h-0.5c-1.7,0-2.9,0.7-2.9,3.2V50.7z"/>
</g>
</svg>
