<?xml version="1.0" encoding="utf-8"?>
<!-- Generator: Adobe Illustrator 25.0.0, SVG Export Plug-In . SVG Version: 6.00 Build 0)  -->
<svg version="1.1" id="Layer_1" xmlns="http://www.w3.org/2000/svg" xmlns:xlink="http://www.w3.org/1999/xlink" x="0px" y="0px"
	 viewBox="0 0 149 72" style="enable-background:new 0 0 149 72;" xml:space="preserve">
<style type="text/css">
	.st0{fill:#0056A5;}
	.st1{fill:#FFA300;}
</style>
<g>
	<g>
		<g>
			<polygon class="st0" points="59.8,14.1 52.4,58 64.3,58 71.8,14.1 			"/>
		</g>
	</g>
	<g>
		<g>
			<path class="st0" d="M42.3,14.2L30.6,44.1l-1.2-4.5c-2.3-5.4-8.9-13.3-16.6-18.2L23.5,58l12.7,0L55,14.1L42.3,14.2z"/>
		</g>
	</g>
	<g>
		<g>
			<path class="st1" d="M24.8,17.3c-0.7-2.7-2.7-3.5-5.2-3.6H1.1l-0.2,0.9c14.4,3.5,24,11.9,27.9,22.1L24.8,17.3z"/>
		</g>
	</g>
	<g>
		<g>
			<path class="st0" d="M96.1,22.5c3.9-0.1,6.7,0.8,9,1.7l1.1,0.5l1.6-9.5c-2.4-0.9-6.1-1.8-10.7-1.8c-11.8,0-20.2,6-20.2,14.5
				c-0.1,6.3,5.9,9.8,10.5,11.9c4.7,2.2,6.2,3.5,6.2,5.4c0,2.9-3.7,4.3-7.2,4.3c-4.8,0-7.3-0.7-11.3-2.3l-1.5-0.7l-1.7,9.8
				c2.8,1.2,8,2.3,13.3,2.3c12.6,0,20.7-5.9,20.8-15c0.1-5-3.1-8.8-10.1-11.9c-4.2-2-6.7-3.4-6.7-5.4C89.2,24.5,91.4,22.5,96.1,22.5
				z"/>
		</g>
	</g>
	<g>
		<g>
			<path class="st0" d="M138.4,14.2h-9.2c-2.9,0-5,0.8-6.3,3.6L105.1,58h12.6c0,0,2-5.4,2.5-6.6c1.4,0,13.6,0,15.3,0
				C135.9,53,137,58,137,58h11.1L138.4,14.2z M123.6,42.4c1-2.5,4.8-12.3,4.8-12.3c-0.1,0.1,1-2.5,1.6-4.2l0.8,3.8
				c0,0,2.3,10.5,2.8,12.7H123.6z"/>
		</g>
	</g>
</g>
</svg>
