<?xml version="1.0" encoding="utf-8"?>
<!-- Generator: Adobe Illustrator 16.0.0, SVG Export Plug-In . SVG Version: 6.00 Build 0)  -->
<!DOCTYPE svg PUBLIC "-//W3C//DTD SVG 1.1//EN" "http://www.w3.org/Graphics/SVG/1.1/DTD/svg11.dtd">
<svg version="1.1" id="Layer_1" xmlns="http://www.w3.org/2000/svg" xmlns:xlink="http://www.w3.org/1999/xlink" x="0px" y="0px"
	 width="38px" height="38px" viewBox="0 0 38 38" enable-background="new 0 0 38 38" xml:space="preserve">
<path fill="none" stroke="#FFFFFF" stroke-width="1.2" stroke-miterlimit="10" d="M19.1,37.296c9.997,0,18.1-8.104,18.1-18.1
	s-8.104-18.1-18.1-18.1S1,9.199,1,19.196S9.104,37.296,19.1,37.296z"/>
<path opacity="0.5" fill="none" stroke="#FFFFFF" stroke-width="1.2" stroke-miterlimit="10" enable-background="new    " d="
	M19.101,34.613c8.514,0,15.417-6.902,15.417-15.417c0-8.515-6.903-15.417-15.417-15.417c-8.515,0-15.417,6.903-15.417,15.417
	C3.684,27.711,10.586,34.613,19.101,34.613z"/>
<path fill="none" stroke="#FFFFFF" stroke-width="1.2" stroke-miterlimit="10" d="M19.069,8.527l6.537,10.792l-6.568,3.7
	l-6.414-3.762L19.069,8.527z"/>
<path fill="none" stroke="#FFFFFF" stroke-width="1.2" stroke-miterlimit="10" d="M25.052,21.57l-5.92,8.325l-6.105-8.448
	l6.043,3.607L25.052,21.57z"/>
<path opacity="0.5" fill="none" stroke="#FFFFFF" stroke-width="1.2" stroke-miterlimit="10" enable-background="new    " d="
	M19.068,8.527v14.307"/>
<path opacity="0.5" fill="none" stroke="#FFFFFF" stroke-width="1.2" stroke-miterlimit="10" enable-background="new    " d="
	M19.068,25.055l0.062,4.841"/>
</svg>
