<?xml version="1.0" encoding="utf-8"?>
<!-- Generator: Adobe Illustrator 25.0.0, SVG Export Plug-In . SVG Version: 6.00 Build 0)  -->
<svg version="1.1" id="Layer_1" xmlns="http://www.w3.org/2000/svg" xmlns:xlink="http://www.w3.org/1999/xlink" x="0px" y="0px"
	 viewBox="0 0 149 72" style="enable-background:new 0 0 149 72;" xml:space="preserve">
<style type="text/css">
	.st0{fill:url(#SVGID_1_);}
	.st1{clip-path:url(#SVGID_3_);}
	.st2{fill:#00B4B4;}
	.st3{fill:#F79320;}
	.st4{fill:#2B3885;}
	.st5{fill:#F3981F;}
</style>
<g>
	<g>
		<linearGradient id="SVGID_1_" gradientUnits="userSpaceOnUse" x1="0.5" y1="58.6301" x2="45.7601" y2="13.3699">
			<stop  offset="0" style="stop-color:#392562"/>
			<stop  offset="1" style="stop-color:#037EBA"/>
		</linearGradient>
		<rect x="0.5" y="13.4" class="st0" width="45.3" height="45.3"/>
		<g>
			<defs>
				<rect id="SVGID_2_" x="0.5" y="13.4" width="45.3" height="45.3"/>
			</defs>
			<clipPath id="SVGID_3_">
				<use xlink:href="#SVGID_2_"  style="overflow:visible;"/>
			</clipPath>
			<g class="st1">
				<path class="st2" d="M32.8,49.9c-2.5,0-4.9-0.9-6.8-2.8L11.9,33c-0.8-0.8-0.8-2,0-2.8c0.8-0.8,2-0.8,2.8,0l14.1,14.1
					c2.2,2.2,5.8,2.2,8,0l0.1-0.1c2.2-2.2,2.2-5.8,0-8L7.3,6.5c-2.2-2.2-5.8-2.2-8,0l-0.1,0.1c-2.2,2.2-2.2,5.8,0,8
					c0.8,0.8,0.8,2,0,2.8c-0.8,0.8-2,0.8-2.8,0c-3.8-3.8-3.8-9.9,0-13.7l0.1-0.1c3.8-3.8,9.9-3.8,13.7,0l29.7,29.7
					c3.8,3.8,3.8,9.9,0,13.7l-0.1,0.1C37.8,49,35.3,49.9,32.8,49.9z"/>
			</g>
			<g class="st1">
				<path class="st3" d="M43.1,71.1c-2.5,0-4.9-0.9-6.8-2.8L6.6,38.6c-3.8-3.8-3.8-9.9,0-13.7l0.1-0.1c3.8-3.8,9.9-3.8,13.7,0
					l14.1,14.1c0.8,0.8,0.8,2,0,2.8c-0.8,0.8-2,0.8-2.8,0L17.6,27.6c-2.2-2.2-5.8-2.2-8,0l-0.1,0.1c-2.2,2.2-2.2,5.8,0,8l29.7,29.7
					c2.2,2.2,5.8,2.2,8,0l0.1-0.1c2.2-2.2,2.2-5.8,0-8c-0.8-0.8-0.8-2,0-2.8c0.8-0.8,2-0.8,2.8,0c3.8,3.8,3.8,9.9,0,13.7l-0.1,0.1
					C48,70.1,45.6,71.1,43.1,71.1z"/>
			</g>
		</g>
	</g>
	<g>
		<path class="st4" d="M52.8,25.3c0,1.2,0,2.5,0,3.7c0,2.4,2,3.2,3.8,2.9c2-0.4,2.7-1.3,2.7-3.4c0-2.4,0-4.7,0-7.1
			c0-0.7,0.3-0.9,0.9-0.9c0.6,0,1,0.2,1,0.9c0,2.3,0,4.6,0,6.9c0,1.1-0.2,2.3-0.9,3.3c-0.7,1.2-1.8,1.7-3.1,1.9
			c-1.7,0.3-3.3,0.1-4.7-1c-1.2-0.9-1.6-2.3-1.6-3.7c-0.1-2.4,0-4.9,0-7.4c0-0.7,0.3-0.8,0.9-0.9c0.6,0,1,0.1,1,0.8
			C52.8,22.7,52.8,24,52.8,25.3C52.8,25.3,52.8,25.3,52.8,25.3z"/>
		<path class="st4" d="M115,27.4c0-0.1,0-0.1,0-0.2c-0.1-0.6,0.2-1.4-0.5-1.6c-0.8-0.3-1.7-0.3-2.5-0.3c-0.7,0-1.3,0.3-2,0.5
			c-0.2,0-0.5-0.2-0.5-0.3c-0.2-0.7,0-1.1,0.7-1.3c1.5-0.5,3.1-0.7,4.7-0.1c1.1,0.4,1.8,1.4,1.8,2.6c0,2,0,4,0,6
			c0,0.3-0.2,0.8-0.3,0.8c-0.4,0-0.9-0.1-1.3-0.2c-0.1,0-0.1-0.2-0.2-0.3c-1.6,0.9-3.1,1-4.7,0.2c-1.2-0.6-1.7-1.6-1.5-2.9
			c0.1-1.2,0.7-2.1,1.9-2.4c0.8-0.2,1.8-0.3,2.6-0.4C113.8,27.3,114.4,27.4,115,27.4z M115,28.8c-1.2,0.1-2.3,0.1-3.4,0.2
			c-0.7,0.1-1.1,0.6-1.2,1.3c-0.1,0.7,0.2,1.2,0.9,1.5c1,0.4,2,0.3,2.9-0.1c0.6-0.2,0.9-0.6,0.8-1.3C114.9,29.9,115,29.4,115,28.8z"
			/>
		<path class="st4" d="M86.7,29.3c0,1.9,1.6,2.9,3.4,2.7c0.5-0.1,1.1-0.2,1.6-0.4c0.3-0.1,0.7-0.5,0.9,0.1c0.1,0.5,0.4,1-0.3,1.3
			c-0.5,0.2-1.1,0.5-1.6,0.5c-2.7,0.3-5-0.6-5.7-3.6c-0.4-1.8-0.2-3.6,1.2-5.1c1-1.1,3.2-1.5,4.6-0.9c2.1,0.8,2.8,3.2,2.6,5
			c0,0.2-0.4,0.4-0.7,0.4c-1.8,0-3.5,0-5.3,0C87.2,29.3,87,29.3,86.7,29.3z M86.7,27.8c1.7,0,3.3,0,4.9,0c0-1.7-1-2.5-2.3-2.6
			C87.6,25.1,86.8,26.1,86.7,27.8z"/>
		<path class="st4" d="M64.7,24.4c1.5-0.8,3-1.1,4.6-0.3c1.1,0.6,1.7,1.5,1.8,2.7c0.1,2,0.1,3.9,0.1,5.9c0,0.6-0.3,0.7-0.8,0.7
			c-0.5,0-0.8-0.2-0.8-0.7c0-1.6,0-3.3,0-4.9c0-0.9-0.1-1.9-1.2-2.3C67.2,25,66,25,65,25.9c-0.2,0.2-0.4,0.6-0.4,0.9
			c0,1.9,0,3.9,0,5.8c0,0.6-0.3,0.8-0.8,0.8c-0.5,0-1-0.1-1-0.8c0-2.7,0-5.3,0-8c0-0.4,0.1-0.8,0.6-0.7
			C63.9,23.9,64.5,23.5,64.7,24.4z"/>
		<path class="st4" d="M103.9,33.7c-0.8-0.2-1.7-0.4-2.5-0.7c-0.5-0.2-0.8-1-0.5-1.4c0.1-0.1,0.5-0.2,0.7-0.2
			c0.7,0.2,1.4,0.5,2.1,0.6c0.6,0,1.3-0.1,1.9-0.3c0.7-0.3,0.6-1.5-0.1-1.9c-0.5-0.3-1.1-0.4-1.7-0.6c-0.9-0.3-1.9-0.6-2.4-1.4
			c-1.1-1.7-0.2-3.5,1.9-4c1.2-0.2,2.4-0.1,3.6,0.3c0.8,0.2,0.4,0.8,0.3,1.3c-0.1,0.6-0.5,0.3-0.8,0.2c-1-0.3-1.9-0.4-2.9-0.2
			c-0.9,0.2-1.1,1-0.5,1.6c0.4,0.4,1,0.6,1.6,0.8c0.6,0.2,1.1,0.4,1.7,0.6c1.1,0.5,1.6,1.5,1.5,2.7c-0.1,1.3-0.9,2.1-2.3,2.4
			C104.9,33.5,104.4,33.6,103.9,33.7C103.9,33.7,103.9,33.7,103.9,33.7z"/>
		<path class="st4" d="M80.1,31.3c0.5-1.4,1-2.7,1.5-3.9c0.4-1,0.7-2,1.1-3c0.2-0.5,1.4-0.8,1.7-0.4c0.1,0.2,0.1,0.6,0,0.8
			c-0.6,1.6-1.3,3.2-1.9,4.8c-0.4,1.1-0.9,2.1-1.3,3.2c-0.2,0.5-0.5,0.7-1,0.7c-0.5,0-1,0-1.3-0.6c-0.6-1.7-1.3-3.3-2-5
			c-0.4-1-0.8-2-1.1-3c-0.1-0.3-0.1-0.8,0-0.9c0.4-0.3,1.3,0,1.5,0.4c0.3,0.8,0.6,1.6,0.9,2.4C78.9,28.1,79.5,29.6,80.1,31.3z"/>
		<path class="st4" d="M120.4,26.7c0,2,0,3.9,0,5.9c0,0.6-0.2,0.9-0.8,0.9c-0.6,0-0.9-0.2-0.9-0.9c0-3.9,0-7.8,0-11.7
			c0-0.8,0.5-0.8,1.1-0.8c0.6,0,0.7,0.3,0.7,0.8C120.4,22.8,120.4,24.7,120.4,26.7z"/>
		<path class="st4" d="M96.6,24.4c0.8-0.2,1.5-0.5,2.3-0.7c0.4-0.1,1.1-0.1,1.3,0.2c0.2,0.3,0.1,0.9,0.1,1.4c-0.6,0-1.1,0-1.6,0
			c-1.3,0-2.1,0.9-2.1,2.2c0,1.7,0,3.4,0,5.1c0,0.6-0.3,0.8-0.8,0.8c-0.6,0-0.9-0.1-0.9-0.8c0-2.6,0-5.3,0-7.9
			c0-0.4,0.1-0.8,0.6-0.8C95.9,23.9,96.7,23.5,96.6,24.4z"/>
		<path class="st4" d="M74.5,28.6c0,1.3,0,2.7,0,4c0,0.5-0.2,0.7-0.7,0.7c-0.5,0-1,0-1-0.7c0-2.7,0-5.5,0-8.2c0-0.8,0.7-0.6,1.1-0.6
			c0.5,0,0.6,0.2,0.6,0.7C74.5,25.9,74.5,27.3,74.5,28.6z"/>
		<path class="st4" d="M73.6,22.1c-0.7,0-1-0.3-1-1c0-0.7,0.4-1,1-1c0.7,0,1.2,0.5,1.2,1.1C74.8,21.7,74.4,22.1,73.6,22.1z"/>
	</g>
	<g>
		<path class="st5" d="M116.9,43.8c2.2,1.3,2,4.3,0.5,5.6c-0.8,0.7-1.9,1-2.9,1.1c-1.6,0.1-3.1,0-4.7,0c-0.5,0-0.7-0.2-0.7-0.7
			c0-3.8,0-7.6,0-11.4c0-0.5,0.2-0.7,0.7-0.7c1.5,0,2.9-0.1,4.4,0c2,0.1,4.2,1.3,3.7,4.2C117.8,42.6,117.3,43.1,116.9,43.8z
			 M111.5,44.9c0,1.2,0,2.4,0,3.5c1,0,1.9,0,2.8,0c1.2-0.1,2-0.8,2-1.8c0-0.8-0.8-1.7-1.9-1.7C113.4,44.9,112.5,44.9,111.5,44.9z
			 M111.5,42.8c0.6,0,1.1,0.1,1.5,0c0.7-0.1,1.4-0.2,2-0.4c0.7-0.2,0.6-0.9,0.5-1.4c-0.1-0.3-0.4-0.8-0.6-0.9
			c-1.1-0.2-2.3-0.3-3.4-0.4C111.5,40.8,111.5,41.8,111.5,42.8z"/>
		<path class="st5" d="M142.2,46.2c0,1.1,0,2.2,0,3.4c0,0.9-0.1,0.9-1,0.9c0,0,0,0-0.1,0c-1.3,0-1.3,0-1.3-1.3c0-3.7,0-7.3,0-11
			c0-1.1,0.1-1.2,1.2-1.2c1.1,0,1.2,0.2,1.2,1.1c0,2,0,4.1,0,6.3c0.5-0.5,0.8-0.8,1.2-1.2c0.6-0.7,1.2-1.3,1.8-2
			c0.4-0.4,2-0.6,2.5-0.3c0.5,0.2,0.2,0.5,0,0.7c-0.9,1-1.9,2-2.8,3c-0.2,0.2-0.3,0.3-0.5,0.5c1.4,1.7,2.7,3.4,4.1,5.1
			c-1.5,0.5-2.7,0.2-3.5-0.9c-0.9-1.1-1.8-2.2-2.6-3.3C142.3,46.2,142.2,46.2,142.2,46.2z"/>
		<path class="st5" d="M125.3,50.1c-1.6,1-3.8,0.8-5.2-0.3c-1.1-0.9-1.1-3-0.2-4.1c0.9-1,2-1.2,3.2-1.3c0.7-0.1,1.4,0,2.1,0
			c0.1-1.2-0.2-1.6-1.3-1.6c-1.1,0-2.2,0.1-3.2,0.6c-0.1,0.1-0.3,0.1-0.4,0c-0.4-0.3-0.3-1.7,0.2-1.9c1.8-0.7,3.7-0.9,5.6-0.1
			c0.8,0.3,1.4,1,1.4,1.9c0.1,2.2,0.1,4.5,0.1,6.7c0,0.5-0.3,0.8-0.8,0.7C126.4,50.4,125.8,50.7,125.3,50.1z M125.4,46.2
			c-0.9,0-1.8,0-2.6,0c-0.7,0-1.2,0.6-1.2,1.2c0,0.7,0.3,1.1,1,1.2c0.6,0.1,1.2,0.1,1.7-0.1c1.1-0.3,1.1-0.3,1.1-1.5
			C125.4,46.9,125.4,46.6,125.4,46.2z"/>
		<path class="st5" d="M72.9,50c0,1.1,0,2,0,3c0,0.7-0.2,1-0.9,0.9c-0.3,0-0.5,0-0.9,0c0-0.3,0-0.6,0-0.8c0-3.7,0-7.4,0-11.1
			c0-0.3,0.1-0.8,0.2-0.9c0.4-0.1,0.9,0,1.4,0.1c0.1,0,0.1,0.2,0.2,0.2c1.1-0.5,2.3-0.8,3.5-0.5c1.5,0.4,2.5,1.4,3,2.8
			c0.7,1.8,0.5,3.5-0.5,5.2c-0.9,1.4-3.4,2.6-5.4,1.4C73.3,50.2,73.1,50.1,72.9,50z M78,45.7c-0.2-0.7-0.2-1.5-0.6-2.1
			c-0.8-1.4-3-1.7-4.3-0.7c-0.2,0.1-0.3,0.4-0.3,0.6c0,1.4,0,2.9,0,4.3c0,0.2,0.1,0.4,0.2,0.5c0.9,0.7,2.2,1.1,3.5,0.4
			C77.8,48.1,77.9,46.9,78,45.7z"/>
		<path class="st5" d="M131.9,41.3c1.6-0.8,3.2-0.8,4.7,0.2c0.8,0.6,1.3,1.4,1.3,2.3c0.2,2,0.1,4,0.2,6.1c0,0.4-0.2,0.6-0.7,0.6
			c-1.7,0.1-1.7,0.1-1.7-1.6c0-1.4,0-2.8,0-4.3c0-0.9-0.4-1.8-1.1-1.9c-0.9-0.2-1.8-0.1-2.6,0.5c-0.1,0.1-0.1,0.4-0.1,0.6
			c0,1.9,0,3.8,0,5.7c0,0.7-0.2,0.9-0.9,0.9c-1.5,0-1.5,0-1.5-1.4c0-2.3,0-4.7,0-7c0-0.4-0.1-1,0.4-1.1
			C130.6,40.9,131.3,40.6,131.9,41.3z"/>
		<path class="st5" d="M96.8,50c-0.8,0.3-1.4,0.6-2.2,0.7c-1.3,0.2-3.5-0.4-4.1-2c-0.7-1.9,0.5-3.8,2.7-4.1c1.2-0.2,2.4-0.2,3.6-0.2
			c0.1-1.4-0.3-2-1.7-2c-1.1,0-2.1,0.2-3.2,0.4c-0.2,0-0.4,0-0.6,0.1c-0.4-1.4-0.4-1.4,1.1-1.8c1.4-0.4,2.8-0.4,4.1,0
			c1.1,0.4,1.9,1.3,1.9,2.5c0,2.1,0,4.1,0,6.2c0,0.3,0.1,0.8-0.4,0.7C97.6,50.4,96.9,50.8,96.8,50z M96.9,46.1c-1.2,0-2.3-0.1-3.4,0
			c-1.4,0.2-1.5,1.7-1,2.4c0.5,0.6,1.2,0.7,2,0.7c1.7,0,2.5-0.8,2.4-2.4C96.9,46.5,96.9,46.3,96.9,46.1z"/>
		<path class="st5" d="M67.8,44.4c0.2-1.4-0.3-2-1.6-2c-1,0-2,0.2-3,0.3c-0.3,0.1-0.7,0.3-0.8-0.2c-0.1-0.4-0.3-1,0.4-1.3
			c0.7-0.2,1.4-0.4,2.1-0.5c0.9,0,1.8,0.2,2.7,0.2c1.1,0.1,2,1.4,2,2.5c0,2,0,4.1,0,6.1c0,0.3,0.1,0.8-0.4,0.8
			c-0.5,0-1.1,0.4-1.2-0.4c-0.7,0.2-1.4,0.5-2.1,0.6c-1.6,0.3-3.7-0.5-4.2-2.3c-0.4-1.5,0.5-3.6,2.7-3.8
			C65.4,44.5,66.6,44.5,67.8,44.4z M67.9,46.1c-1.2,0-2.3,0-3.4,0c-0.6,0-1.2,0.6-1.3,1.3c0,0.7,0.1,1.3,0.8,1.5
			c1.2,0.5,2.3,0.3,3.3-0.4c0.2-0.2,0.5-0.5,0.5-0.8C67.9,47.2,67.9,46.7,67.9,46.1z"/>
		<path class="st5" d="M52.8,44.5c0,0.9,0.3,2.1,1.1,3c1.5,1.6,3.4,1.8,5.4,1.2c0.4-0.1,0.9-0.6,1.2,0.2c0.3,0.8,0,1.3-0.8,1.5
			c-2.7,0.7-5.1,0.3-7.1-1.7c-1.8-1.8-2.3-5.2-1.2-7.6c1.2-2.7,4.1-4.2,7-3.7c0.6,0.1,1.2,0.2,1.8,0.4c0.8,0.3,0,0.9,0.2,1.4
			c-0.3,0-0.6,0.2-0.8,0.1c-1.5-0.5-3-0.5-4.4,0.2C53.5,40.6,52.8,42.2,52.8,44.5z"/>
		<path class="st5" d="M85.2,42.6c-0.6-0.3-1.6,0.4-1.6-0.9c0-1.2,1-0.6,1.6-0.9c0-0.6,0-1.2,0-1.9c0-0.7,0.4-0.8,1-0.8
			c0.6,0,0.8,0.2,0.8,0.8c0,0.6,0,1.3,0,2c0.7,0,1.4,0,2,0c0.6,0,1,0.1,0.9,0.8c0,0.6-0.4,0.8-0.9,0.8c-0.7,0-1.3,0-2.1,0
			c0.1,1.9,0.1,3.8,0.2,5.6c0.1,0.8,0.5,1,1.8,1c0.7,0,0.9,0.2,0.8,1c0,0.2-0.3,0.4-0.4,0.5c-1.5,0.5-3.9-0.4-4-2.5
			c0-1.6-0.1-3.1-0.1-4.7C85.2,43.2,85.2,42.9,85.2,42.6z"/>
		<path class="st5" d="M101.9,43.9c0,2,0,3.9,0,5.9c0,0.8-0.4,0.7-0.9,0.7c-0.5,0-0.9,0-0.9-0.7c0-3.9,0-7.9,0-11.8
			c0-0.6,0.2-0.9,0.9-0.9c0.6,0,0.9,0.2,0.9,0.9C101.8,40,101.9,41.9,101.9,43.9z"/>
		<path class="st5" d="M82.6,45.8c0,1.3,0,2.7,0,4c0,0.5-0.2,0.7-0.7,0.7c-0.5,0-1.1,0.1-1.1-0.7c0-2.7,0-5.4,0-8.1
			c0-0.7,0.5-0.7,1-0.7c0.5,0,0.8,0.2,0.8,0.8C82.5,43,82.6,44.4,82.6,45.8z"/>
		<path class="st5" d="M82.7,38.2c0,0.7-0.4,1.1-1,1.1c-0.6,0-1-0.5-1-1.1c0-0.6,0.5-1.1,1.1-1.1C82.4,37.1,82.7,37.5,82.7,38.2z"/>
	</g>
</g>
</svg>
