<svg width="30" height="28" viewBox="0 0 30 28" fill="none" xmlns="http://www.w3.org/2000/svg">
<path d="M27.9142 22.5577H2.22936C1.57077 22.5577 1 21.9869 1 21.3283V2.22936C1 1.57077 1.57077 1 2.22936 1H27.9142C28.5728 1 29.1435 1.57077 29.1435 2.22936V21.3283C29.1435 22.0308 28.5728 22.5577 27.9142 22.5577Z" stroke="white" stroke-width="1.2" stroke-miterlimit="10"/>
<path d="M10.4834 22.3821V26.9044" stroke="white" stroke-width="1.2" stroke-miterlimit="10"/>
<path d="M19.6162 22.3821V26.9044" stroke="white" stroke-width="1.2" stroke-miterlimit="10"/>
<path d="M22.162 26.8604H7.98047" stroke="white" stroke-width="1.2" stroke-miterlimit="10"/>
<path d="M8.02473 16.5427H5.12695V19.5283H8.02473V16.5427Z" stroke="white" stroke-opacity="0.5" stroke-width="1.2" stroke-miterlimit="10"/>
<path d="M6.62012 15.0059V8.85913" stroke="white" stroke-width="1.2" stroke-miterlimit="10"/>
<path d="M7.67388 11.0544L6.62014 8.85913L5.56641 11.0544" stroke="white" stroke-width="1.2" stroke-miterlimit="10"/>
<path d="M13.557 13.4253H10.6592V19.5282H13.557V13.4253Z" stroke="white" stroke-opacity="0.5" stroke-width="1.2" stroke-miterlimit="10"/>
<path d="M12.1963 11.8885V7.14673" stroke="white" stroke-width="1.2" stroke-miterlimit="10"/>
<path d="M13.2501 9.29807L12.1963 7.10278L11.1426 9.29807" stroke="white" stroke-width="1.2" stroke-miterlimit="10"/>
<path d="M25.0599 12.3716H22.1621V19.5282H25.0599V12.3716Z" stroke="white" stroke-opacity="0.5" stroke-width="1.2" stroke-miterlimit="10"/>
<path d="M23.6553 10.8349V7.49805" stroke="white" stroke-width="1.2" stroke-miterlimit="10"/>
<path d="M24.709 9.64938L23.6553 7.4541L22.6016 9.64938" stroke="white" stroke-width="1.2" stroke-miterlimit="10"/>
<path d="M19.4837 8.90308H16.5859V19.5282H19.4837V8.90308Z" stroke="white" stroke-opacity="0.5" stroke-width="1.2" stroke-miterlimit="10"/>
<path d="M18.0791 7.36632V2.62451" stroke="white" stroke-width="1.2" stroke-miterlimit="10"/>
<path d="M19.1329 4.77585L18.0791 2.58057L17.0254 4.77585" stroke="white" stroke-width="1.2" stroke-miterlimit="10"/>
</svg>
