<svg width="142" height="56" viewBox="0 0 142 56" fill="none" xmlns="http://www.w3.org/2000/svg">
<path d="M40.1312 10.1316L42.5964 7.1842L42.8864 7.40526L40.385 10.3526L40.1312 10.1316Z" fill="#7584BD"/>
<path d="M38.2461 4.82647C38.2823 4.78963 38.3186 4.71594 38.3911 4.71594C38.4274 4.71594 38.4999 4.71594 38.5361 4.75278C38.6449 4.78963 38.6811 4.90015 38.6449 5.01068C38.6449 5.01068 38.6449 5.04752 38.6086 5.04752C38.5724 5.08436 38.5361 5.15805 38.4636 5.15805C38.4273 5.15805 38.3548 5.15805 38.3186 5.12121C38.2823 5.08436 38.2461 5.04752 38.2098 5.01068C38.2098 4.93699 38.2098 4.86331 38.2461 4.82647Z" fill="#7584BD"/>
<path d="M38.1011 7.84729C38.4999 7.25781 39.3337 7.66308 39.805 7.92097L39.95 7.69992C40.24 7.29466 40.2037 7.0736 39.8775 6.85255C39.6962 6.74203 39.4787 6.66834 39.2249 6.66834L39.2974 6.48413C39.5512 6.48413 39.805 6.55782 40.0225 6.70518C40.4937 7.03676 40.6025 7.36834 40.24 7.88413L39.5149 8.91571C39.3337 9.1736 39.3699 9.24729 39.4424 9.28413C39.5149 9.32097 39.5512 9.35782 39.6237 9.35782L39.5512 9.50518C39.4062 9.46834 39.2974 9.4315 39.1524 9.35782C39.0074 9.24729 38.9712 9.13676 39.1162 8.87887C38.8624 8.98939 38.5361 8.95255 38.3186 8.76834C37.9923 8.62097 37.8836 8.21571 38.0286 7.88413C38.0648 7.92097 38.0648 7.88413 38.1011 7.84729ZM38.4274 8.0315C38.2824 8.21571 38.3186 8.4736 38.4999 8.62097C38.5361 8.62097 38.5361 8.65781 38.5724 8.65781C38.7899 8.80518 39.0437 8.80518 39.2612 8.69466L39.6962 8.06834C39.2249 7.84729 38.6811 7.66308 38.4274 8.0315Z" fill="#7584BD"/>
<path d="M38.1736 47.2684L38.3549 47.4526C38.3911 47.1579 38.5724 46.9 38.8261 46.7895C39.1524 46.5316 39.5874 46.6053 39.8412 46.9368C39.8775 46.9737 39.8775 47.0105 39.9137 47.0474L40.8925 48.5579L40.6025 48.779L39.6599 47.3421C39.4062 46.9737 39.1524 46.9 38.8624 47.0842C38.6811 47.1947 38.5361 47.4158 38.4999 47.6368L39.6599 49.4053L39.3699 49.6263L37.9561 47.4526L38.1736 47.2684Z" fill="#7584BD"/>
<path d="M37.9035 5.49758L36.691 7.76318L37.0095 7.93922L38.222 5.67361L37.9035 5.49758Z" fill="#7584BD"/>
<path d="M36.2522 19.5263C36.4335 19.5263 36.5785 19.7474 36.5785 20.0421C36.5785 20.3368 36.4335 20.5579 36.2522 20.5579C36.071 20.5579 35.926 20.3368 35.926 20.0421C35.926 19.7474 36.071 19.5263 36.2522 19.5263Z" fill="#7584BD"/>
<path d="M36.071 49.8473C36.3972 50.5105 36.7235 50.7684 37.1585 50.5473C37.5935 50.3263 37.6298 49.921 37.3035 49.221C36.9773 48.521 36.651 48.3 36.216 48.521C35.7809 48.7421 35.7447 49.1842 36.071 49.8473ZM35.7084 50.0315C35.3459 49.2579 35.4547 48.6684 36.1072 48.3368C36.7597 48.0052 37.3035 48.3 37.6661 49.0736C38.0286 49.8473 37.8836 50.4736 37.2673 50.7684C36.651 51.0631 36.071 50.8052 35.7084 50.0315Z" fill="#7584BD"/>
<path d="M35.2734 7.11059C34.6209 6.85269 34.4396 6.30006 34.7659 5.4527C35.0922 4.60533 35.6359 4.34743 36.3247 4.64217C36.5423 4.75269 36.7598 4.90006 36.9048 5.12112L36.796 5.30533C36.6873 5.12112 36.506 4.97375 36.2885 4.86322C35.8172 4.64217 35.4547 4.86322 35.1647 5.60006C34.8747 6.33691 35.0197 6.74217 35.4184 6.88954C35.6359 7.00006 35.926 6.96322 36.1072 6.8527L36.216 7.03691C35.9622 7.22112 35.5997 7.25796 35.2734 7.11059Z" fill="#7584BD"/>
<path d="M34.8022 51.7263L33.9684 49.2947L34.2946 49.1842L35.1647 51.6158L34.8022 51.7263Z" fill="#7584BD"/>
<path d="M34.0771 48.4475C34.1133 48.558 34.0771 48.6686 33.9683 48.7054H33.9321C33.8958 48.7422 33.8233 48.7422 33.7871 48.7054C33.7146 48.6686 33.6783 48.6317 33.6783 48.558C33.6421 48.4843 33.6421 48.4475 33.6783 48.3738C33.7146 48.337 33.7508 48.3001 33.7871 48.2633C33.8233 48.2264 33.8958 48.2264 33.9321 48.2633C34.0046 48.3738 34.0408 48.4107 34.0771 48.4475Z" fill="#7584BD"/>
<path d="M31.7207 5.85786L32.3732 3.3526L32.6633 3.42628V3.68418C32.8808 3.53681 33.1708 3.49997 33.4608 3.57365C33.8596 3.64734 34.1134 4.0526 34.0409 4.42102C34.0409 4.45786 34.0046 4.53155 34.0046 4.56839L33.5333 6.29997L33.1708 6.18944L33.6058 4.53155C33.7146 4.08944 33.5696 3.86839 33.2433 3.75786C33.0258 3.68418 32.772 3.72102 32.5908 3.83155L32.0832 5.85786H31.7207Z" fill="#7584BD"/>
<path d="M32.0107 52.2055L32.0832 51.9844C32.3007 52.1687 32.5545 52.2055 32.8083 52.1318C33.0983 52.095 33.2795 51.8371 33.2433 51.5792C33.2433 51.5423 33.2433 51.5423 33.2433 51.5055C33.062 50.8423 31.9745 51.4687 31.7207 50.6213C31.6119 50.216 31.8657 49.8108 32.2645 49.7002C32.3007 49.7002 32.3007 49.7002 32.337 49.7002C32.5545 49.6634 32.8083 49.6634 33.0258 49.7371V49.9581C32.8445 49.8844 32.627 49.8476 32.4095 49.9213C32.0832 49.995 31.9382 50.216 32.0107 50.4739C32.192 51.1371 33.352 50.5108 33.5696 51.395C33.6783 51.8002 33.4971 52.2423 32.8808 52.3897C32.5907 52.5002 32.2645 52.4265 32.0107 52.2055Z" fill="#7584BD"/>
<path d="M30.2344 19.5263C30.4156 19.5263 30.5606 19.7474 30.5606 20.0421C30.5606 20.3368 30.4156 20.5579 30.2344 20.5579C30.0531 20.5579 29.9081 20.3368 29.9081 20.0421C29.9081 19.7474 30.0531 19.5263 30.2344 19.5263Z" fill="#7584BD"/>
<path d="M29.5818 5.60002C29.1468 5.56318 28.8568 5.26844 28.9293 4.86318C29.0018 4.16318 29.9443 4.12634 30.4881 4.12634L30.5244 3.86844C30.5969 3.38949 30.4519 3.20528 30.0531 3.16844C29.8356 3.16844 29.5818 3.24212 29.4006 3.35265V3.09476C29.5818 2.98423 29.8356 2.94739 30.0894 2.94739C30.6331 3.02107 30.9232 3.24212 30.8144 3.90528L30.7056 5.15791C30.6694 5.45265 30.7419 5.52634 30.8144 5.52634C30.8869 5.52634 30.9594 5.52634 31.0319 5.48949V5.6737C30.8869 5.71055 30.7781 5.71055 30.6331 5.71055C30.4519 5.6737 30.3794 5.60002 30.3794 5.30528C30.1619 5.52634 29.8356 5.63686 29.5818 5.60002ZM29.2918 4.86318C29.2556 5.08423 29.4006 5.30528 29.6181 5.37897C29.6543 5.37897 29.6906 5.37897 29.6906 5.37897C29.9443 5.41581 30.1981 5.30528 30.3069 5.08423L30.4156 4.34739C29.9081 4.31055 29.3281 4.38423 29.2918 4.86318Z" fill="#7584BD"/>
<path d="M30.6331 52.1314C30.5244 51.4314 29.3643 51.9472 29.2555 51.063C29.183 50.6209 29.5093 50.2893 29.9806 50.2157C30.2343 50.1788 30.4519 50.2157 30.6694 50.3262L30.6331 50.5472C30.4519 50.4367 30.2344 50.3999 30.0168 50.4367C29.6906 50.4736 29.5093 50.6946 29.5456 50.9157C29.6543 51.6157 30.8506 51.0999 30.9956 51.9841C31.0682 52.3893 30.8144 52.7946 30.1981 52.9051C29.8718 52.9788 29.5456 52.8683 29.328 52.6472L29.4368 52.463C29.6181 52.6472 29.8718 52.7578 30.1256 52.7209C30.5606 52.6472 30.6694 52.3893 30.6331 52.1314Z" fill="#7584BD"/>
<path d="M27.8055 51.0263L27.7692 50.4737H27.9867H28.168L28.2768 53.0526L27.9142 53.0895L27.8055 51.0263Z" fill="#7584BD"/>
<path d="M27.8055 49.9208C27.7692 49.884 27.733 49.8103 27.733 49.7735C27.733 49.6998 27.733 49.6629 27.8055 49.5893C27.8417 49.5524 27.878 49.5156 27.9505 49.5156C28.023 49.5156 28.0592 49.5156 28.0955 49.5524C28.1317 49.5893 28.168 49.6629 28.168 49.6998C28.168 49.7735 28.168 49.8103 28.0955 49.884C28.0592 49.9208 27.9867 49.9577 27.9505 49.9577C27.878 49.9577 27.8417 49.9577 27.8055 49.9208Z" fill="#7584BD"/>
<path d="M26.5366 5.45249H26.1741L26.1016 2.87355H26.3916L26.4641 3.13144C26.6454 2.91039 26.9354 2.79986 27.2254 2.79986C27.6242 2.76302 27.9867 3.05776 28.023 3.46302C28.023 3.49986 28.023 3.57355 28.023 3.61039L28.0592 5.41565H27.6967L27.6605 3.68407C27.6605 3.24197 27.443 3.05776 27.1167 3.05776C26.8992 3.05776 26.6454 3.16828 26.5004 3.31565L26.5366 5.45249Z" fill="#7584BD"/>
<path d="M24.3615 2.13679C24.3978 2.09995 24.434 2.06311 24.4703 2.06311H24.5065C24.579 2.06311 24.6153 2.06311 24.6515 2.09995C24.6878 2.13679 24.724 2.21048 24.724 2.24732C24.724 2.321 24.724 2.35785 24.6878 2.43153C24.6515 2.46837 24.6153 2.50522 24.5428 2.50522C24.5065 2.50522 24.434 2.50522 24.3978 2.46837C24.3253 2.46837 24.289 2.39469 24.289 2.32101C24.289 2.24732 24.289 2.21048 24.3615 2.13679Z" fill="#7584BD"/>
<path d="M24.7603 5.63672L24.434 3.05778H24.6153L24.7965 3.02094L25.1228 5.56304L24.7603 5.63672Z" fill="#7584BD"/>
<path d="M24.2528 19.5263C24.434 19.5263 24.579 19.7474 24.579 20.0421C24.579 20.3368 24.434 20.5579 24.2528 20.5579C24.0715 20.5579 23.9265 20.3368 23.9265 20.0421C23.9265 19.7474 24.0715 19.5263 24.2528 19.5263Z" fill="#7584BD"/>
<path d="M23.564 52.9055L23.7815 50.3265L24.0715 50.3634L24.1077 50.6581C24.289 50.4739 24.579 50.3634 24.869 50.4002C25.0866 50.4002 25.3041 50.5476 25.3766 50.7686C25.5941 50.5844 25.8479 50.4739 26.1379 50.5107C26.5004 50.5476 26.7179 50.7318 26.7179 51.1371C26.7179 51.1739 26.7179 51.2476 26.7179 51.2844L26.5729 53.1634L26.2104 53.1265L26.3554 51.2844C26.3916 50.8792 26.2466 50.7686 26.0291 50.7318C25.8116 50.7318 25.5941 50.8055 25.4491 50.9529C25.4491 50.9897 25.4491 51.0634 25.4491 51.1371L25.3041 53.016L24.9416 52.9792L25.0866 51.1371C25.1228 50.7318 25.0141 50.6213 24.7603 50.5844C24.5428 50.5844 24.3253 50.6581 24.1803 50.8055L23.999 52.8686L23.564 52.9055Z" fill="#7584BD"/>
<path d="M22.2589 6.15257L21.4976 2.87362L23.2377 2.43152L23.3102 2.68941L21.9326 3.02099L22.2226 4.34731L23.4189 4.05257L23.4914 4.27362L22.2951 4.56836L22.6214 6.07889L22.2589 6.15257Z" fill="#7584BD"/>
<path d="M19.2137 51.8366L19.8662 49.3313L20.1562 49.405L20.12 49.6997C20.3375 49.5524 20.6275 49.5155 20.8813 49.5892C21.0988 49.626 21.2801 49.8102 21.3163 50.0313C21.5701 49.8839 21.8601 49.8471 22.1139 49.9208C22.5126 50.0313 22.6576 50.2892 22.5126 50.805L22.0051 52.6471L21.6426 52.5366L22.1139 50.7313C22.2226 50.326 22.1139 50.2155 21.8601 50.1418C21.6426 50.0681 21.4251 50.1418 21.2438 50.2524C21.2438 50.2892 21.2076 50.3629 21.2076 50.4366L20.7 52.2787L20.3375 52.1681L20.8088 50.3629C20.9175 49.9576 20.8088 49.8471 20.5913 49.7734C20.3738 49.7366 20.1562 49.7734 19.975 49.8839L19.5762 51.9471L19.2137 51.8366Z" fill="#7584BD"/>
<path d="M18.2349 19.5263C18.4161 19.5263 18.5974 19.7474 18.5974 20.0421C18.6336 20.2632 18.5249 20.4474 18.3074 20.521C18.2711 20.521 18.2711 20.521 18.2349 20.521C18.0536 20.521 17.9086 20.3 17.9086 20.0053C17.9086 19.7105 18.0536 19.5263 18.2349 19.5263Z" fill="#7584BD"/>
<path d="M18.1261 5.15797C17.7636 5.34218 17.6911 5.7106 17.9448 6.33691L19.0324 5.78428C19.0324 5.74744 18.9962 5.7106 18.9962 5.7106C18.7424 5.19481 18.4524 5.0106 18.1261 5.15797ZM17.6911 6.66849C17.3286 5.89481 17.4373 5.23165 18.0536 4.93691C18.5611 4.67902 19.0687 4.90007 19.3949 5.60007C19.4312 5.67376 19.4674 5.74744 19.4674 5.82112L18.0899 6.52112C18.3799 7.18428 18.7786 7.33165 19.2137 7.14744C19.4674 7.03691 19.6124 6.81586 19.6487 6.55797L19.83 6.59481C19.7937 6.92639 19.5399 7.22112 19.2499 7.36849C18.5974 7.66323 18.0536 7.47902 17.6911 6.66849Z" fill="#7584BD"/>
<path d="M16.531 49.2581C16.8935 48.4844 17.4373 48.1897 18.0536 48.4844C18.6699 48.7791 18.8512 49.4054 18.4886 50.1791C18.1261 50.9528 17.5823 51.2475 16.966 50.9528C16.3498 50.6581 16.2047 50.0317 16.531 49.2581ZM16.8935 49.4423C16.6035 50.1054 16.6398 50.5475 17.0748 50.7686C17.5098 50.9896 17.8723 50.7317 18.1624 50.0318C18.4524 49.3318 18.4161 48.9265 17.9811 48.7054C17.5461 48.4844 17.2198 48.7791 16.8935 49.4423Z" fill="#7584BD"/>
<path d="M14.9722 7.1105C15.0084 6.85261 15.1897 6.59471 15.4072 6.44735C15.7335 6.18945 16.1685 6.26314 16.4223 6.59471C16.4585 6.63156 16.4585 6.6684 16.4948 6.70524L17.4736 8.21577L17.1836 8.43682L16.2048 6.96314C15.9872 6.59471 15.7335 6.55787 15.4435 6.77893C15.2622 6.88945 15.1172 7.1105 15.0809 7.33156L16.241 9.09998L15.951 9.32103L13.8484 6.11577L14.1384 5.89471L14.9722 7.1105Z" fill="#7584BD"/>
<path d="M14.1746 49.4051C13.4133 48.8893 13.3046 48.0787 13.8483 47.1945C14.3921 46.3103 15.2622 46.0156 15.9872 46.4945C16.2772 46.6787 16.4948 46.9366 16.6398 47.2682L16.4585 47.4524C16.3135 47.1577 16.1322 46.8998 15.8422 46.7156C15.2984 46.3471 14.6821 46.5682 14.1746 47.3787C13.6671 48.1893 13.7396 48.8156 14.3196 49.184C14.6459 49.3682 15.0084 49.405 15.3709 49.2577L15.4072 49.4787C15.0447 49.6998 14.5734 49.6629 14.1746 49.4051Z" fill="#7584BD"/>
<path d="M34.0771 21.1474V21.8843H34.4034V22.4369H34.8746L34.6209 33.858C34.6209 34.0053 34.7659 34.1159 34.8746 34.079C35.0196 34.079 35.1284 34.0053 35.1647 33.858L35.2734 22.4369H35.5997L35.4547 33.858C35.4547 34.0053 35.5997 34.079 35.7084 34.079C35.8534 34.079 35.9622 34.0053 35.9985 33.858V22.4369H36.3247V33.858C36.361 34.0053 36.4697 34.079 36.6147 34.079C36.7598 34.079 36.8685 34.0053 36.8685 33.858L36.7235 22.4369H37.0498L37.1585 33.858C37.1585 34.0053 37.3035 34.079 37.4485 34.079C37.5936 34.079 37.7023 34.0053 37.7023 33.858L37.4485 22.4369H37.9198V21.8843H38.2461V21.1474H34.0771ZM38.0286 34.1159H34.2583V34.4474H34.0771V35.0001H38.2461V34.4474H38.0648L38.0286 34.1159ZM28.0955 34.4474V35.0001H32.2645V34.4474H32.047V34.1159H28.2767V34.4474H28.0955ZM28.0955 21.1474V21.8843H28.4217V22.4369H28.893L28.6393 33.8211C28.6393 33.9685 28.7843 34.079 28.893 34.0422C29.038 34.0422 29.1468 33.9685 29.183 33.8211L29.2918 22.4001H29.6181L29.4731 33.8211C29.4731 33.9685 29.6181 34.0422 29.7268 34.0422C29.8718 34.0422 29.9806 33.9685 30.0168 33.8211V22.4001H30.3431V33.8211C30.3794 33.9685 30.4881 34.0422 30.6331 34.0422C30.7781 34.0422 30.8869 33.9685 30.8869 33.8211L30.7419 22.4001H31.0682L31.1769 33.8211C31.1769 33.9685 31.3219 34.0422 31.4669 34.0422C31.6119 34.0422 31.7207 33.9685 31.7207 33.8211L31.4669 22.4001H31.902V21.8843H32.2282V21.1474H28.0955ZM26.1016 34.1159H22.3314V34.4474H22.1139V35.0001H26.2829V34.4474H26.1016V34.1159ZM22.4764 22.4001H22.9477L22.6939 33.8211C22.6939 33.9685 22.8389 34.0422 22.9839 34.0422C23.1289 34.0422 23.2377 33.9685 23.2739 33.8211L23.3827 22.4001H23.709L23.5639 33.8211C23.5639 33.9685 23.7089 34.0422 23.8177 34.0422C23.9627 34.0422 24.0715 33.9685 24.1077 33.8211V22.4001H24.434V33.8211C24.4702 33.9685 24.6153 34.079 24.7603 34.0422C24.869 34.0053 24.9415 33.9317 24.9778 33.8211L24.8328 22.4001H25.159L25.2678 33.8211C25.2678 33.9685 25.4128 34.0422 25.5578 34.0422C25.7028 34.0422 25.8116 33.9685 25.8116 33.8211L25.5578 22.4001H26.0291V21.8474H26.3554V21.1106H22.1501V21.8474H22.4764V22.4001ZM15.2259 19.0843H39.1524V18.7159H15.2259V19.0843ZM16.2047 35.0001H20.3737V34.4474H20.1562V34.1159H16.4223V34.4474H16.2047V35.0001ZM15.7697 20.779H38.6086V19.3053H15.7697V20.779ZM16.2047 21.8843H16.531V22.4369H17.0023L16.7485 33.858C16.7485 34.0053 16.8935 34.1159 17.0023 34.079C17.1473 34.079 17.2561 34.0053 17.2923 33.858L17.4011 22.4369H17.7273L17.5823 33.858C17.5823 34.0053 17.7273 34.079 17.8361 34.079C17.9811 34.079 18.0899 34.0053 18.1261 33.858V22.4369H18.4524V33.858C18.4886 34.0053 18.5974 34.079 18.7424 34.079C18.8874 34.079 18.9962 34.0053 18.9962 33.858L18.8512 22.4369H19.1774L19.2862 33.858C19.2862 34.0053 19.4312 34.079 19.5762 34.079C19.7212 34.079 19.83 34.0053 19.83 33.858L19.6124 22.4369H20.0837V21.8843H20.41V21.1474H16.2047V21.8843ZM13.5583 18.4948H40.8563L27.3342 12.0843L13.5583 18.4948ZM14.6459 35.9211H39.7324V35.1843H14.6459V35.9211ZM7.79422 27.2264C7.79422 16.358 16.4585 7.51587 27.1892 7.51587C37.9198 7.51587 46.5841 16.3211 46.5841 27.2264C46.5841 37.8738 38.2823 46.5685 27.8417 46.9369C27.6242 46.9369 27.4067 46.9369 27.1892 46.9369C16.4948 46.9001 7.83047 38.0948 7.79422 27.2264ZM13.4858 37.0264H40.9288V36.0685H13.4858V37.0264Z" fill="#7584BD"/>
<path d="M14.3922 10.5737L12.362 8.25263L11.637 8.87894L11.492 8.69473L13.1958 7.1842L13.3408 7.36841L12.652 7.99473L14.6822 10.3158L14.3922 10.5737Z" fill="#7584BD"/>
<path d="M0.543783 27.6316C0.543783 41.0789 10.2594 52.4632 23.3464 54.4158C24.6153 54.6 25.9203 54.7105 27.1892 54.7105C41.9076 54.7105 53.8346 42.5895 53.8346 27.6316C53.8346 12.6737 41.9076 0.552632 27.1892 0.552632C12.4708 0.552632 0.543783 12.6737 0.543783 27.6316ZM27.1892 55.2632C12.1807 55.2632 0 42.8842 0 27.6316C0 12.3789 12.1807 0 27.1892 0C42.1976 0 54.3783 12.3789 54.3783 27.6316C54.3421 42.8842 42.1976 55.2263 27.1892 55.2632Z" fill="#7584BD"/>
<path d="M60.795 0.0735474H60.4325V55.9999H60.795V0.0735474Z" fill="#7584BD"/>
<path d="M73.302 6.04225H70.6193V15.0686H68.5167V6.04225H65.834V4.90015H73.3382L73.302 6.04225Z" fill="#7584BD"/>
<path d="M74.4621 3.42632L76.4922 3.3158V7.81053H76.5647C77.1085 7.33158 77.8336 7.07369 78.5586 7.11053C80.1537 7.11053 80.915 7.9579 80.915 9.8V15.1053H78.8849V9.94737C78.8849 8.69474 78.5949 8.4 77.8336 8.4C77.326 8.4 76.8185 8.62106 76.4922 8.98948V15.1053H74.4621V3.42632Z" fill="#7584BD"/>
<path d="M88.5642 13.7421C88.0204 14.7369 86.9691 15.3263 85.8453 15.2895C83.6702 15.2895 82.2563 14.1474 82.2563 11.3474C82.2563 8.5474 83.6339 7.1474 85.664 7.1474C87.5854 7.1474 88.673 8.40003 88.673 10.6842C88.673 11.0158 88.6367 11.3474 88.5642 11.679H84.4314C84.4677 13.5579 84.939 14.2579 86.0991 14.2579C86.8241 14.2211 87.4766 13.8527 87.8754 13.2263L88.5642 13.7421ZM84.3952 10.6106H86.7516V10.2421C86.7516 8.65793 86.4616 8.10529 85.664 8.10529C84.8665 8.10529 84.4677 8.65793 84.3952 10.6106Z" fill="#7584BD"/>
<path d="M72.3594 29.658H68.9155V33.858H66.7766V23.6896H72.867V24.8317H68.9155V28.5896H72.3594V29.658Z" fill="#7584BD"/>
<path d="M75.0421 22.4737C75.3321 22.4737 75.6222 22.5842 75.8397 22.7684C76.0572 23.0263 76.1659 23.3211 76.1659 23.6526C76.1659 23.9842 76.0572 24.3158 75.8397 24.5737C75.6222 24.7579 75.3321 24.8684 75.0421 24.8684C74.4258 24.9053 73.882 24.3895 73.882 23.7632C73.882 23.7263 73.882 23.6895 73.882 23.6526C73.882 23.3211 74.0271 22.9895 74.2446 22.7684C74.4621 22.5842 74.7521 22.4737 75.0421 22.4737ZM76.0572 33.8579H74.0271V26.0105H76.0572V33.8579Z" fill="#7584BD"/>
<path d="M77.9061 26.0104H79.5374L79.7912 26.6368H79.8637C79.8637 26.6368 80.4437 25.8262 82.0388 25.8262C83.6339 25.8262 84.3952 26.6736 84.3952 28.5157V33.821H82.3651V28.9578C82.3651 27.521 82.0751 27.1525 81.3138 27.1525C80.8062 27.1525 80.2987 27.3368 79.9362 27.7052V33.821H77.8698V26.0104H77.9061Z" fill="#7584BD"/>
<path d="M86.6066 26.4526C87.3316 26.0841 88.1654 25.8631 88.9992 25.8262C90.8118 25.8262 91.9719 26.4525 91.9719 28.5525V32.0894C91.9719 32.7525 92.1532 32.9368 92.2982 32.9368C92.4795 32.9368 92.6607 32.8999 92.8057 32.8262L92.8782 33.6368C92.3344 33.821 91.7544 33.9315 91.1744 33.9683C90.5943 33.9683 90.2681 33.6736 90.1593 33.0104H90.0868C90.0868 33.0104 89.6518 33.9683 88.0567 33.9683C86.6428 33.9683 85.7003 33.1947 85.7003 31.9052C85.7003 29.842 88.2742 29.2894 89.9418 29.142V28.6999C89.9418 27.2262 89.543 26.8578 88.673 26.8578C87.9479 26.8578 86.8241 27.4473 86.8241 27.4473L86.6066 26.4526ZM89.9055 30.0262C88.6367 30.1736 87.8029 30.5789 87.8029 31.6841C87.8029 32.5315 88.1654 32.9368 88.7092 32.9368C89.2168 32.8999 89.688 32.5683 89.9055 32.0894V30.0262Z" fill="#7584BD"/>
<path d="M94.0746 26.0104H95.7059L95.9597 26.6368H96.0322C96.0322 26.6368 96.6122 25.8262 98.2073 25.8262C99.8024 25.8262 100.564 26.6736 100.564 28.5157V33.821H98.5336V28.9578C98.5336 27.521 98.2436 27.1525 97.5185 27.1525C97.011 27.1525 96.5035 27.3368 96.1409 27.7052V33.821H94.1108L94.0746 26.0104Z" fill="#7584BD"/>
<path d="M105.784 26.8946C104.696 26.8946 104.044 27.4104 104.044 29.9525C104.044 32.4946 104.769 32.9736 105.712 32.9736C106.437 32.9736 107.125 32.5315 107.452 31.9051L108.177 32.3841C108.177 32.3841 107.597 34.042 105.494 34.042C103.138 34.042 101.833 32.642 101.833 29.9894C101.833 27.4472 103.21 25.863 105.53 25.863C106.328 25.8999 107.089 26.1209 107.778 26.4894L107.597 27.4841C107.053 27.1525 106.437 26.9683 105.784 26.8946Z" fill="#7584BD"/>
<path d="M110.207 22.4737C110.497 22.4737 110.787 22.5842 111.004 22.7684C111.222 23.0263 111.367 23.3211 111.331 23.6526C111.331 23.9842 111.222 24.3158 111.004 24.5737C110.787 24.7579 110.497 24.8684 110.207 24.8684C109.59 24.9053 109.047 24.3895 109.047 23.7632C109.047 23.7263 109.047 23.6895 109.047 23.6526C109.047 23.3211 109.192 22.9895 109.409 22.7684C109.627 22.5842 109.917 22.4737 110.207 22.4737ZM111.222 33.8579H109.192V26.0105H111.222V33.8579Z" fill="#7584BD"/>
<path d="M113.506 26.4526C114.267 26.0841 115.065 25.8631 115.898 25.8262C117.711 25.8262 118.871 26.4525 118.871 28.5525V32.0894C118.871 32.7525 119.052 32.9368 119.197 32.9368C119.379 32.9368 119.56 32.8999 119.741 32.8262L119.814 33.6368C119.27 33.821 118.69 33.9315 118.11 33.9683C117.493 33.9683 117.203 33.6736 117.095 33.0104H117.022C117.022 33.0104 116.587 33.9683 115.028 33.9683C113.614 33.9683 112.672 33.1947 112.672 31.9052C112.672 29.842 115.246 29.2894 116.913 29.142V28.6999C116.913 27.2262 116.515 26.8578 115.645 26.8578C114.92 26.8578 113.832 27.4473 113.832 27.4473L113.506 26.4526ZM116.805 30.0262C115.536 30.1736 114.702 30.5789 114.702 31.6841C114.702 32.5315 115.065 32.9368 115.608 32.9368C116.116 32.8999 116.587 32.5683 116.805 32.0894V30.0262Z" fill="#7584BD"/>
<path d="M123.004 33.8211H120.974V22.179L123.004 22.0685V33.8211Z" fill="#7584BD"/>
<path d="M70.9456 43.437C69.278 43.437 68.4805 44.4685 68.4805 47.4896C68.4805 50.5106 69.3505 51.5791 71.0544 51.5791C72.6857 51.5791 73.6283 50.1422 73.6283 50.1422L74.3171 50.8791C74.3171 50.8791 73.3745 52.758 70.8006 52.758C67.7192 52.758 66.1603 50.7317 66.1603 47.6001C66.1603 44.3949 67.8279 42.2949 70.7281 42.2949C71.7794 42.3317 72.8308 42.5896 73.8096 43.1054L73.592 44.2475C73.5558 44.2106 72.1057 43.437 70.9456 43.437Z" fill="#7584BD"/>
<path d="M78.4861 52.7579C76.166 52.7579 74.8971 51.2842 74.8971 48.6685C74.8971 46.0527 76.166 44.579 78.4861 44.579C80.8062 44.579 82.0751 46.0527 82.0751 48.6685C82.0751 51.2842 80.6975 52.7579 78.4861 52.7579ZM77.1085 48.6685C77.1085 50.9158 77.471 51.7263 78.4861 51.7263C79.5012 51.7263 79.8637 50.9158 79.8637 48.6685C79.8637 46.4211 79.5012 45.6474 78.4861 45.6474C77.471 45.6474 77.1085 46.4211 77.1085 48.6685Z" fill="#7584BD"/>
<path d="M83.4526 44.7634H85.084L85.3378 45.4634H85.374C85.9178 44.9108 86.6428 44.616 87.4041 44.616C88.2379 44.616 88.7817 44.8739 89.108 45.4634C89.7243 44.9108 90.4856 44.616 91.2831 44.616C92.7332 44.616 93.3132 45.3529 93.3132 47.1213V52.5739H91.2831V47.2687C91.2831 46.0897 90.9931 45.8687 90.4493 45.8687C90.0143 45.9055 89.6155 46.0897 89.3618 46.4581C89.3618 46.6423 89.398 46.8634 89.398 47.0844V52.5739H87.3679V47.2687C87.3679 46.0897 87.0416 45.8687 86.5703 45.8687C86.1353 45.8687 85.7365 46.0897 85.4828 46.4213V52.5371H83.4526V44.7634Z" fill="#7584BD"/>
<path d="M95.1259 44.7634H96.7572L97.011 45.4634H97.0472C97.591 44.9108 98.316 44.616 99.0773 44.616C99.9111 44.616 100.455 44.8739 100.781 45.4634C101.397 44.9108 102.159 44.616 102.956 44.616C104.406 44.616 104.986 45.3529 104.986 47.1213V52.5739H102.956V47.2687C102.956 46.0897 102.666 45.8687 102.123 45.8687C101.688 45.9055 101.289 46.0897 101.035 46.4581C101.035 46.6423 101.071 46.8634 101.071 47.0844V52.5739H99.0411V47.2687C99.0411 46.0897 98.7148 45.8687 98.2435 45.8687C97.8085 45.8687 97.4097 46.0897 97.156 46.4213V52.5371H95.1259V44.7634Z" fill="#7584BD"/>
<path d="M107.85 41.1896C108.14 41.1896 108.43 41.3001 108.648 41.4843C108.865 41.7422 108.974 42.0369 108.974 42.3685C108.974 42.7001 108.865 43.0317 108.648 43.2896C108.43 43.4738 108.14 43.5843 107.85 43.5843C107.234 43.6212 106.69 43.1054 106.69 42.479C106.69 42.4422 106.69 42.4054 106.69 42.4054C106.69 42.0738 106.835 41.7422 107.053 41.5212C107.27 41.3001 107.56 41.1896 107.85 41.1896ZM108.865 52.5738H106.835V44.7633H108.865V52.5738Z" fill="#7584BD"/>
<path d="M110.714 50.7687C111.113 51.3213 111.729 51.6529 112.418 51.7265C113.216 51.7265 113.614 51.2476 113.614 50.6581C113.614 49.0739 110.497 49.5897 110.497 47.0476C110.497 45.4266 111.802 44.616 113.216 44.616C113.977 44.6529 114.738 44.8371 115.427 45.1687L115.137 46.2002C114.593 45.9055 114.013 45.6844 113.397 45.6108C112.744 45.6108 112.382 45.9423 112.382 46.4581C112.382 48.0423 115.753 47.6739 115.753 50.1792C115.753 51.6529 114.775 52.7213 112.853 52.7213C110.859 52.7213 110.134 51.5423 110.134 51.5423L110.714 50.7687Z" fill="#7584BD"/>
<path d="M117.131 50.7687C117.131 50.7687 117.82 51.7265 118.835 51.7265C119.632 51.7265 120.031 51.2476 120.031 50.6581C120.031 49.0739 116.877 49.5897 116.877 47.0476C116.877 45.4266 118.182 44.616 119.596 44.616C120.357 44.6529 121.119 44.8371 121.808 45.1687L121.517 46.2002C120.974 45.9055 120.394 45.6844 119.777 45.6108C119.125 45.6108 118.762 45.9423 118.762 46.4581C118.762 48.0423 122.134 47.6739 122.134 50.1792C122.134 51.6529 121.155 52.7213 119.234 52.7213C117.203 52.7213 116.515 51.5423 116.515 51.5423L117.131 50.7687Z" fill="#7584BD"/>
<path d="M124.563 41.1896C124.853 41.1896 125.143 41.3001 125.36 41.4843C125.578 41.7422 125.686 42.0369 125.686 42.3685C125.686 42.7001 125.578 43.0317 125.36 43.2896C125.143 43.4738 124.853 43.5843 124.563 43.5843C123.946 43.6212 123.403 43.1054 123.403 42.479C123.403 42.4422 123.403 42.4054 123.403 42.4054C123.403 42.0738 123.548 41.7422 123.765 41.5212C123.983 41.3001 124.273 41.1896 124.563 41.1896ZM125.578 52.5738H123.548V44.7633H125.578V52.5738Z" fill="#7584BD"/>
<path d="M130.508 52.7579C128.188 52.7579 126.919 51.2842 126.919 48.6685C126.919 46.0527 128.188 44.579 130.508 44.579C132.828 44.579 134.097 46.0527 134.097 48.6685C134.097 51.2842 132.719 52.7579 130.508 52.7579ZM129.13 48.6685C129.13 50.9158 129.493 51.7263 130.508 51.7263C131.523 51.7263 131.886 50.9158 131.886 48.6685C131.886 46.4211 131.523 45.6474 130.508 45.6474C129.493 45.6474 129.13 46.4211 129.13 48.6685Z" fill="#7584BD"/>
<path d="M135.475 44.7632H137.106L137.36 45.3895H137.432C137.432 45.3895 138.012 44.579 139.607 44.579C141.202 44.579 141.964 45.4263 141.964 47.2685V52.5737H139.934V47.7106C139.934 46.2737 139.644 45.9053 138.919 45.9053C138.411 45.9053 137.904 46.0895 137.541 46.4579V52.5737H135.511L135.475 44.7632Z" fill="#7584BD"/>
</svg>
