<?xml version="1.0" encoding="utf-8"?>
<!-- Generator: Adobe Illustrator 16.0.0, SVG Export Plug-In . SVG Version: 6.00 Build 0)  -->
<!DOCTYPE svg PUBLIC "-//W3C//DTD SVG 1.1//EN" "http://www.w3.org/Graphics/SVG/1.1/DTD/svg11.dtd">
<svg version="1.1" id="Layer_1" xmlns="http://www.w3.org/2000/svg" xmlns:xlink="http://www.w3.org/1999/xlink" x="0px" y="0px"
	 width="57px" height="49px" viewBox="0 0 57 49" enable-background="new 0 0 57 49" xml:space="preserve">
<g>
	<path fill="#E4F7FF" d="M42.4,0H14.1L0,24.5l14.1,24.4h28.3l14.1-24.4L42.4,0z"/>
</g>
<path fill="#0D67F9" d="M41.857,20.943l-1.414,1.414l1.193,1.192h-5.445c-0.183-1.408-0.738-2.698-1.568-3.77l3.826-3.892v1.661h2
	v-5h-5v2h1.512l-3.754,3.817c-1.068-0.824-2.354-1.378-3.758-1.559v-5.444l1.193,1.192l1.414-1.414l-3.621-3.619l-3.506,3.632
	l1.438,1.39l1.081-1.119v5.383c-1.381,0.178-2.647,0.717-3.707,1.521l-3.779-3.779h1.586v-2h-5.1v5h2v-1.686l3.865,3.864
	c-0.852,1.082-1.422,2.391-1.606,3.821h-5.345l1.193-1.192l-1.414-1.414l-3.62,3.619l3.632,3.507l1.39-1.438l-1.12-1.081h5.284
	c0.181,1.406,0.736,2.693,1.563,3.764l-3.822,3.821V31.45h-2v5.1h5.1v-2h-1.687l3.823-3.821c1.071,0.826,2.358,1.383,3.764,1.563
	v5.283l-1.081-1.119l-1.438,1.389l3.506,3.633l3.621-3.619l-1.414-1.414l-1.193,1.192v-5.345c1.428-0.184,2.734-0.753,3.814-1.602
	l3.797,3.859h-1.611v2h5v-5.1h-2v1.66l-3.783-3.849c0.807-1.061,1.348-2.329,1.525-3.713h5.385l-1.121,1.081l1.389,1.439
	l3.633-3.508L41.857,20.943z M28.45,30.736c-3.412,0-6.188-2.774-6.188-6.188c0-3.411,2.776-6.188,6.188-6.188
	c3.411,0,6.187,2.776,6.187,6.188C34.637,27.962,31.861,30.736,28.45,30.736z M31.949,21.15l0.201,2.899l-0.801-0.5l-2.601,4
	l-1.2-1.699l-2.5,3.101l-0.2-0.302l2.7-5.499l1.2,1.8l1.401-2.2l-1.102-0.6L31.949,21.15z"/>
</svg>
