<?xml version="1.0" encoding="utf-8"?>
<!-- Generator: Adobe Illustrator 16.0.0, SVG Export Plug-In . SVG Version: 6.00 Build 0)  -->
<!DOCTYPE svg PUBLIC "-//W3C//DTD SVG 1.1//EN" "http://www.w3.org/Graphics/SVG/1.1/DTD/svg11.dtd">
<svg version="1.1" id="Layer_1" xmlns="http://www.w3.org/2000/svg" xmlns:xlink="http://www.w3.org/1999/xlink" x="0px" y="0px"
	 width="73.223px" height="73.45px" viewBox="22.777 22.769 73.223 73.45" enable-background="new 22.777 22.769 73.223 73.45"
	 xml:space="preserve">
<g>
	
		<linearGradient id="SVGID_1_" gradientUnits="userSpaceOnUse" x1="301.6914" y1="-313.7559" x2="384.5545" y2="-306.8058" gradientTransform="matrix(1 0 0 -1 -281 -251)">
		<stop  offset="0" style="stop-color:#0D67F9"/>
		<stop  offset="0.9896" style="stop-color:#4DCBF3"/>
	</linearGradient>
	<path fill="url(#SVGID_1_)" d="M59.5,96C79.658,96,96,79.658,96,59.5S79.658,23,59.5,23S23,39.342,23,59.5S39.342,96,59.5,96z"/>
</g>
<linearGradient id="SVGID_2_" gradientUnits="userSpaceOnUse" x1="340.5498" y1="-277.2446" x2="340.5498" y2="-303.9439" gradientTransform="matrix(1 0 0 -1 -281 -251)">
	<stop  offset="0" style="stop-color:#75BCFA"/>
	<stop  offset="1" style="stop-color:#36A2F6;stop-opacity:0"/>
</linearGradient>
<path fill="url(#SVGID_2_)" d="M59.55,54.587c12.316,0,22.301-6.402,22.301-14.3c0-7.897-9.984-14.3-22.301-14.3
	c-12.315,0-22.299,6.402-22.299,14.3C37.25,48.185,47.234,54.587,59.55,54.587z"/>
<g>
	<path opacity="0.07" enable-background="new    " d="M50.2,44.35L72.8,60.45l-22.6,16.2V44.35z"/>
	<path fill="#FFFFFF" d="M51.9,74.301V46.699l19.199,13.8L51.9,74.301z"/>
</g>
</svg>
