<svg width="57" height="41" viewBox="0 0 57 41" fill="none" xmlns="http://www.w3.org/2000/svg">
<path d="M28.1994 21.7575C33.8422 21.7575 38.4165 17.1832 38.4165 11.5405C38.4165 5.8978 33.8422 1.32349 28.1994 1.32349C22.5567 1.32349 17.9824 5.8978 17.9824 11.5405C17.9824 17.1832 22.5567 21.7575 28.1994 21.7575Z" stroke="#0D67F9" stroke-width="2.1693" stroke-miterlimit="10" stroke-linecap="round"/>
<path d="M32.5226 14.1337C32.5226 12.0117 30.715 11.2257 28.9859 10.597V7.5319C29.6147 7.76768 30.0862 8.16064 30.4006 8.86797L30.6364 9.49671L32.3654 8.5536L32.1296 8.08205C31.5795 6.66738 30.4006 5.80286 28.9859 5.56709V4.3882C28.9859 3.91664 28.593 3.52368 28.1214 3.52368C27.6499 3.52368 27.2569 3.91664 27.2569 4.3882V5.48849L26.5496 5.72427C25.1349 6.27442 24.349 7.45331 24.349 8.94656C24.349 10.9114 25.685 11.6187 27.3355 12.1689V15.5483C26.5496 15.3126 25.9994 14.7624 25.7636 13.9765L25.5279 13.2691L23.7988 14.2909L23.956 14.7624C24.4276 16.2557 25.685 17.2774 27.3355 17.5917V18.692C27.3355 19.1636 27.7285 19.5565 28.2 19.5565C28.6716 19.5565 29.0645 19.1636 29.0645 18.692V17.6703C31.1079 17.4346 32.5226 16.0985 32.5226 14.1337ZM30.4792 14.1337C30.4792 14.9196 29.929 15.4697 28.9859 15.6269V12.6404C30.0076 13.112 30.4792 13.5049 30.4792 14.1337ZM27.2569 7.5319V10.0469C26.6282 9.73249 26.3138 9.41812 26.3138 8.86797C26.3138 8.39642 26.5496 8.00345 26.9425 7.68908L27.2569 7.5319Z" fill="#0D67F9"/>
<path d="M52.6414 21.5215H47.69V39.6764H8.94394V21.5215H3.75684" stroke="#0D67F9" stroke-opacity="0.5" stroke-width="2.1693" stroke-miterlimit="10" stroke-linecap="round"/>
<path d="M38.6523 27.8877C38.6523 19.7141 45.3327 13.0337 53.5063 13.0337" stroke="#0D67F9" stroke-width="2.1693" stroke-miterlimit="10" stroke-linecap="round"/>
<path d="M49.8916 8.00391L55.0001 13.0338L49.8916 18.1423" stroke="#0D67F9" stroke-width="2.1693" stroke-miterlimit="10" stroke-linecap="round" stroke-linejoin="round"/>
<path d="M17.7466 27.8877C17.7466 19.7141 11.0662 13.0337 2.89258 13.0337" stroke="#0D67F9" stroke-width="2.1693" stroke-miterlimit="10" stroke-linecap="round"/>
<path d="M6.42933 8.00391L1.39941 13.0338L6.42933 18.1423" stroke="#0D67F9" stroke-width="2.1693" stroke-miterlimit="10" stroke-linecap="round" stroke-linejoin="round"/>
</svg>
