<svg width="43" height="50" viewBox="0 0 43 50" fill="none" xmlns="http://www.w3.org/2000/svg">
<path d="M3.9704 16.2266C3.12092 16.2266 2.43324 16.5097 1.82646 17.1165C1.21969 17.7233 0.936523 18.411 0.936523 19.22V31.8409C0.936523 32.6904 1.21969 33.3781 1.82646 33.9849C2.39279 34.5512 3.12092 34.8748 3.9704 34.8748C4.81989 34.8748 5.50757 34.5916 6.11434 33.9849C6.68067 33.3781 6.96383 32.6904 6.96383 31.8409V19.22C6.96383 18.411 6.68067 17.6828 6.07389 17.1165C5.50757 16.5502 4.77944 16.2266 3.9704 16.2266Z" fill="white"/>
<path d="M28.281 4.90026L30.3845 1.05735C30.5058 0.814639 30.4654 0.61238 30.2226 0.450573C29.9799 0.329218 29.7777 0.410121 29.6159 0.61238L27.5124 4.49575C25.6516 3.68671 23.6695 3.28219 21.6064 3.28219C19.5434 3.28219 17.5613 3.68671 15.7005 4.49575L13.597 0.61238C13.4756 0.410121 13.2734 0.36967 12.9902 0.450573C12.7475 0.571928 12.707 0.774187 12.8284 1.05735L14.9319 4.90026C12.8284 5.99246 11.1294 7.48917 9.87543 9.39041C8.62142 11.3321 8.01465 13.4356 8.01465 15.7009H35.1982C35.1982 13.3951 34.5914 11.2916 33.3374 9.39041C32.043 7.48917 30.3844 5.99246 28.281 4.90026ZM16.2263 10.4826C15.9836 10.7253 15.7409 10.8062 15.4173 10.8062C15.0937 10.8062 14.851 10.6849 14.6083 10.4826C14.406 10.2399 14.2847 9.99718 14.2847 9.67357C14.2847 9.34995 14.406 9.10724 14.6083 8.86453C14.8105 8.62182 15.0937 8.54092 15.4173 8.54092C15.7409 8.54092 15.9836 8.66227 16.2263 8.86453C16.4691 9.10724 16.55 9.34995 16.55 9.67357C16.55 9.99718 16.4286 10.2803 16.2263 10.4826ZM28.6046 10.4826C28.4023 10.7253 28.1192 10.8062 27.7955 10.8062C27.4719 10.8062 27.2292 10.6849 26.9865 10.4826C26.7438 10.2399 26.6629 9.99718 26.6629 9.67357C26.6629 9.34995 26.7842 9.10724 26.9865 8.86453C27.2292 8.62182 27.4719 8.54092 27.7955 8.54092C28.1192 8.54092 28.3619 8.66227 28.6046 8.86453C28.8068 9.10724 28.9282 9.34995 28.9282 9.67357C28.9282 9.99718 28.8068 10.2803 28.6046 10.4826Z" fill="white"/>
<path d="M8.13574 36.3716C8.13574 37.2615 8.45936 38.0301 9.06613 38.6774C9.67291 39.2841 10.4415 39.6077 11.3719 39.6077H13.5563L13.5967 46.2823C13.5967 47.1318 13.8799 47.8194 14.4867 48.4262C15.0934 49.033 15.7811 49.3162 16.5902 49.3162C17.4396 49.3162 18.1273 49.033 18.7341 48.4262C19.3004 47.8194 19.624 47.1318 19.624 46.2823V39.6077H23.6692V46.2823C23.6692 47.1318 23.9524 47.8194 24.5591 48.4262C25.1255 49.033 25.8536 49.3162 26.7031 49.3162C27.5526 49.3162 28.2402 49.033 28.847 48.4262C29.4538 47.8194 29.737 47.1318 29.737 46.2823V39.6077H31.9214C32.8113 39.6077 33.5394 39.2841 34.1866 38.6774C34.7934 38.0706 35.117 37.302 35.117 36.3716V16.793H8.13574V36.3716Z" fill="white"/>
<path d="M39.2854 16.2266C38.4764 16.2266 37.7483 16.5097 37.1819 17.076C36.5752 17.6424 36.292 18.3705 36.292 19.22V31.8409C36.292 32.6904 36.5752 33.3781 37.1819 33.9849C37.7887 34.5512 38.4764 34.8748 39.2854 34.8748C40.1349 34.8748 40.863 34.5916 41.4294 33.9849C42.0361 33.3781 42.3193 32.6904 42.3193 31.8409V19.22C42.3193 18.3705 42.0361 17.6828 41.4294 17.076C40.8226 16.5502 40.0945 16.2266 39.2854 16.2266Z" fill="white"/>
</svg>
