<svg width="176" height="151" viewBox="0 0 176 151" fill="none" xmlns="http://www.w3.org/2000/svg">
<path fill-rule="evenodd" clip-rule="evenodd" d="M43.45 121C45.4448 122.862 47.6073 124.536 49.91 126C52.1262 127.568 54.5406 128.836 57.09 129.77L60.86 131.39C61.9703 131.723 63.0535 132.141 64.1 132.64C64.1815 132.679 64.2702 132.701 64.3605 132.703C64.4507 132.706 64.5406 132.69 64.6244 132.656C64.7081 132.622 64.7839 132.571 64.8468 132.507C64.9098 132.442 64.9585 132.365 64.99 132.28V131.92C64.99 131.57 64.81 131.21 64.45 131.21C62.0422 130.674 59.6964 129.889 57.45 128.87C54.9656 127.795 52.5654 126.535 50.27 125.1C45.676 122.233 41.6156 118.588 38.27 114.33C36.6133 112.231 35.1158 110.012 33.79 107.69C32.45 105.322 31.2869 102.859 30.31 100.32C28.4915 95.3044 27.4789 90.0324 27.31 84.7C30 83.08 28.93 81.47 28.57 80.93C28.1687 80.1483 27.9241 79.2956 27.85 78.42C27.2197 78.8506 26.6866 79.4086 26.2853 80.0579C25.8839 80.7073 25.6232 81.4336 25.52 82.19C25.4666 82.6983 25.5597 83.2113 25.7883 83.6684C26.0168 84.1255 26.3713 84.5077 26.81 84.77C26.8613 84.8002 26.9084 84.8373 26.95 84.8801C27.0725 87.5306 27.3732 90.1698 27.85 92.78C28.3813 95.4603 29.0997 98.1001 30 100.68C31.9269 105.767 34.5885 110.544 37.9 114.86C39.5093 117.112 41.3715 119.172 43.45 121ZM131.45 121C129.452 122.862 127.286 124.536 124.98 126C122.766 127.572 120.351 128.84 117.8 129.77L114.03 131.39C112.924 131.725 111.844 132.143 110.8 132.64C110.718 132.679 110.628 132.701 110.537 132.704C110.446 132.707 110.356 132.691 110.271 132.657C110.187 132.623 110.11 132.572 110.046 132.507C109.982 132.442 109.933 132.365 109.9 132.28V131.92C109.9 131.57 110.08 131.21 110.44 131.21C112.849 130.677 115.195 129.892 117.44 128.87C119.929 127.797 122.332 126.537 124.63 125.1C129.227 122.237 133.288 118.592 136.63 114.33C138.293 112.234 139.794 110.014 141.12 107.69C142.44 105.326 143.58 102.865 144.53 100.33C145.438 97.813 146.16 95.2328 146.69 92.61C147.177 90.0014 147.478 87.3614 147.59 84.71C144.89 83.09 145.97 81.48 146.33 80.94C146.731 80.1583 146.976 79.3056 147.05 78.43C147.679 78.8624 148.21 79.4208 148.612 80.0699C149.013 80.7189 149.274 81.4444 149.38 82.2C149.428 82.7077 149.333 83.2189 149.105 83.6751C148.877 84.1313 148.525 84.5141 148.09 84.78L147.94 84.89C147.821 87.5403 147.523 90.1796 147.05 92.79C146.52 95.4716 145.798 98.1118 144.89 100.69C142.974 105.782 140.311 110.561 136.99 114.87C135.374 117.12 133.505 119.177 131.42 121H131.45ZM124.81 135C120.14 135.89 117.09 131.41 117.09 131.41C118.52 129.07 122.47 127.82 124.63 129.07C126.482 129.901 128.402 130.57 130.37 131.07C130.37 131.07 129.44 134.11 124.78 135.01L124.81 135ZM121.04 123.15C120.94 121.66 120.574 120.201 119.96 118.84C119.96 118.84 118.16 120.99 116.73 122.43C114.93 124.22 115.47 127.28 116.55 128.71C116.52 128.72 121.36 127.83 121.01 123.16L121.04 123.15ZM128.4 126.38C128.75 124.22 132.35 121.53 135.04 122.25C136.86 122.683 138.74 122.805 140.6 122.61C140.6 122.61 138.99 127.46 135.04 128.17C133.867 128.427 132.649 128.4 131.489 128.091C130.328 127.781 129.259 127.198 128.37 126.39L128.4 126.38ZM126.24 123.38C126.24 123.38 133.06 120.68 127.68 113.32C126.985 114.801 126.204 116.24 125.34 117.63C124.06 119.75 125.67 122.98 126.21 123.32L126.24 123.38ZM137.01 118.17C137.19 116.56 138.81 113.32 142.01 113.17C143.82 112.986 145.617 112.688 147.39 112.28C147.57 113.89 146.14 116.76 143.27 118.56C140.4 120.36 136.98 118.13 136.98 118.13L137.01 118.17ZM134.14 116.02C134.14 116.02 137.91 113.32 135.4 108.48C134.957 107.643 134.344 106.907 133.6 106.32C133.529 107.019 133.326 107.698 133 108.32C132.563 109.283 132.228 110.288 132 111.32C131.24 114.18 132.49 115.44 134.11 115.98L134.14 116.02ZM142.4 109.19C142.364 108.497 142.472 107.804 142.718 107.154C142.964 106.505 143.343 105.915 143.83 105.42C144.734 104.403 145.939 103.702 147.27 103.42C148.546 103.109 149.755 102.57 150.84 101.83C150.992 103.077 150.824 104.341 150.351 105.505C149.879 106.668 149.118 107.692 148.14 108.48C147.303 109.048 146.342 109.406 145.337 109.522C144.333 109.639 143.315 109.511 142.37 109.15L142.4 109.19ZM146.35 99.68C146.35 99.68 152.63 100.58 152.99 93.93V92.32C151.618 93.1172 150.175 93.7867 148.68 94.32C146.14 95.15 146.31 99.64 146.31 99.64L146.35 99.68ZM139.88 108.3C139.88 108.3 137.37 107.04 137.37 105.07C137.399 103.947 137.509 102.827 137.7 101.72C137.809 101.105 137.879 100.484 137.91 99.86L138.09 99.9901C139.31 100.86 140.79 101.91 140.96 103.45C141.127 104.285 141.114 105.145 140.923 105.974C140.731 106.804 140.366 107.583 139.85 108.26L139.88 108.3ZM141.88 98.06C143.5 99.5 144.21 99.32 144.21 99.32C144.21 99.32 146.21 95.73 142.78 93.58C142.139 93.0792 141.405 92.712 140.62 92.5001C140.819 93.1267 140.907 93.7831 140.88 94.44C140.88 95.76 140.93 97.32 141.83 98.02L141.88 98.06ZM153.31 85.46C153.419 86.1672 153.369 86.8898 153.165 87.5755C152.96 88.2612 152.606 88.8929 152.128 89.425C151.649 89.957 151.059 90.3762 150.398 90.652C149.738 90.9279 149.025 91.0535 148.31 91.02C148.31 91.02 147.77 87.02 149.75 86.18C150.948 85.6247 152.09 84.955 153.16 84.18C153.314 84.588 153.365 85.0275 153.31 85.46ZM144.15 90.3C145.41 91.38 145.95 91.2 145.95 91.2C146.398 90.4303 146.536 89.5187 146.335 88.6511C146.134 87.7834 145.61 87.0249 144.87 86.53C144.309 86.166 143.709 85.8674 143.08 85.64C143.208 86.1298 143.275 86.6336 143.28 87.14C143.37 88.32 143.47 89.72 144.16 90.32L144.15 90.3ZM57.81 131.42C57.81 131.42 54.76 135.9 50.09 135.01C45.42 134.12 44.53 131.01 44.53 131.01C46.4975 130.51 48.418 129.841 50.27 129.01C52.25 127.83 56.38 129.08 57.81 131.42ZM54.94 118.85C54.3259 120.211 53.9601 121.67 53.86 123.16C53.5 127.83 58.35 128.72 58.35 128.72C59.43 127.29 59.97 124.23 58.17 122.44C56.73 121 54.94 118.85 54.94 118.85ZM39.86 122.26C42.55 121.54 46.14 124.26 46.5 126.39C45.6153 127.195 44.5514 127.777 43.3966 128.088C42.2418 128.4 41.0293 128.431 39.86 128.18C35.91 127.47 34.29 122.62 34.29 122.62C36.1537 122.815 38.0369 122.693 39.86 122.26ZM47.22 113.26C41.83 120.62 48.66 123.32 48.66 123.32C49.01 122.96 50.81 119.73 49.55 117.57C48.694 116.198 47.9161 114.779 47.22 113.32V113.26ZM32.86 113.08C36.09 113.26 37.7 116.5 37.86 118.08C37.86 118.08 34.45 120.24 31.58 118.44C28.71 116.64 27.27 113.77 27.45 112.16C29.2321 112.585 31.0389 112.899 32.86 113.1V113.08ZM39.32 108.42C36.81 113.26 40.58 115.96 40.58 115.96C42.19 115.42 43.45 114.16 42.73 111.29C42.5018 110.258 42.1667 109.253 41.73 108.29C41.4044 107.668 41.2007 106.989 41.13 106.29C40.3799 106.872 39.7599 107.604 39.31 108.44L39.32 108.42ZM31.06 105.36C31.5488 105.854 31.9293 106.444 32.1772 107.093C32.4252 107.742 32.5351 108.436 32.5 109.13C31.5547 109.48 30.5391 109.599 29.5385 109.475C28.538 109.352 27.5817 108.99 26.75 108.42C25.7753 107.63 25.0171 106.605 24.5466 105.442C24.0761 104.279 23.9087 103.015 24.06 101.77C25.1211 102.528 26.3202 103.072 27.59 103.37C28.9303 103.656 30.1454 104.359 31.06 105.38V105.36ZM21.91 93.8701C22.27 100.52 28.55 99.6201 28.55 99.6201C28.55 99.6201 28.73 95.13 26.22 94.23C24.7251 93.6967 23.2824 93.0273 21.91 92.23V93.8701ZM37.52 105.01C37.52 107.01 35.01 108.24 35.01 108.24C34.494 107.556 34.1306 106.769 33.9444 105.932C33.7581 105.095 33.7531 104.229 33.93 103.39C34.11 101.85 35.58 100.8 36.81 99.93L36.99 99.8C37.0162 100.424 37.0864 101.046 37.2 101.66C37.388 102.774 37.4949 103.9 37.52 105.03V105.01ZM30.7 99.2599C30.7 99.2599 31.42 99.4401 33.04 98.0001C33.81 97.3401 33.9 95.8 33.99 94.46C33.9845 93.7818 34.0858 93.1068 34.29 92.46C33.509 92.6745 32.7783 93.0415 32.14 93.54C28.73 95.69 30.7 99.32 30.7 99.32V99.2599ZM26.57 91.0001C25.8547 91.0354 25.1406 90.9109 24.4794 90.6357C23.8183 90.3604 23.2268 89.9414 22.748 89.4089C22.2691 88.8764 21.9149 88.2438 21.7112 87.5573C21.5074 86.8708 21.4592 86.1475 21.57 85.44C21.5275 85.0116 21.5893 84.5793 21.75 84.18C22.8178 84.9576 23.9601 85.6276 25.16 86.18C27.11 87.07 26.57 91.02 26.57 91.02V91.0001ZM28.91 91.18C28.91 91.18 29.45 91.36 30.7 90.28C31.4 89.7 31.5 88.2801 31.57 87.1201C31.5771 86.6132 31.6476 86.1093 31.78 85.6201C31.1481 85.8474 30.5442 86.1459 29.98 86.5099C29.2379 87.0084 28.7141 87.7713 28.5152 88.6429C28.3164 89.5144 28.4576 90.429 28.91 91.2V91.18Z" fill="#7473AD"/>
<g opacity="0.3">
<path opacity="0.3" d="M150.09 137.7L149.55 137.16C165.919 120.872 175.151 98.7514 175.219 75.6595C175.286 52.5676 166.183 30.3935 149.91 14.0099L150.45 13.47C166.838 30.0118 176.002 52.3743 175.935 75.6594C175.867 98.9444 166.574 121.254 150.09 137.7Z" fill="#7473AD"/>
</g>
<g opacity="0.5">
<path opacity="0.5" d="M129.08 148.11L128.73 147.39C141.458 140.182 152.05 129.732 159.432 117.104C166.813 104.476 170.72 90.119 170.756 75.4918C170.791 60.8646 166.954 46.4886 159.634 33.8246C152.314 21.1607 141.773 10.6601 129.08 3.38995L129.44 2.67999C142.285 9.9986 152.959 20.5942 160.372 33.3856C167.785 46.1769 171.671 60.7059 171.635 75.4899C171.598 90.2739 167.64 104.784 160.164 117.538C152.688 130.292 141.962 140.835 129.08 148.09V148.11Z" fill="#7473AD"/>
</g>
<path d="M107 150.81L106.82 150.09C123.431 145.889 138.167 136.272 148.701 122.759C159.235 109.247 164.965 92.6086 164.986 75.475C165.007 58.3415 159.317 41.6896 148.815 28.1514C138.314 14.6133 123.6 4.96092 107 0.720032L107.18 6.10352e-05C123.936 4.28687 138.786 14.034 149.384 27.702C159.983 41.3699 165.725 58.1794 165.704 75.4749C165.684 92.7705 159.901 109.566 149.27 123.209C138.639 136.851 123.766 146.563 107 150.81Z" fill="#7473AD"/>
<g opacity="0.3">
<path opacity="0.3" d="M25.86 137.7C9.37633 121.254 0.0829222 98.9444 0.0154457 75.6594C-0.0520309 52.3743 9.11194 30.0118 25.5 13.47L26.04 14.0099C9.76294 30.3909 0.656358 52.5647 0.721989 75.6574C0.78762 98.7501 10.0201 120.872 26.39 137.16L25.86 137.7Z" fill="#7473AD"/>
</g>
<g opacity="0.5">
<path opacity="0.5" d="M46.86 148.11C33.9968 140.87 23.2825 130.349 15.8087 117.62C8.33483 104.891 4.36845 90.4081 4.31357 75.6472C4.25868 60.8862 8.11725 46.3746 15.4962 33.5903C22.8752 20.806 33.511 10.206 46.32 2.87006L46.68 3.59003C34.0288 10.8783 23.5298 21.3823 16.2474 34.0368C8.96506 46.6914 5.15831 61.0465 5.21313 75.6468C5.26796 90.247 9.18242 104.573 16.5596 117.173C23.9368 129.772 34.5145 140.197 47.22 147.39L46.86 148.11Z" fill="#7473AD"/>
</g>
<path d="M68.94 150.81C52.1739 146.563 37.3007 136.851 26.6698 123.209C16.0389 109.566 10.2564 92.7705 10.2357 75.4749C10.2151 58.1794 15.9574 41.3699 26.5557 27.702C37.1541 14.034 52.0041 4.28687 68.76 6.10352e-05L68.94 0.720032C52.3396 4.96092 37.6259 14.6133 27.1246 28.1514C16.6232 41.6896 10.9332 58.3415 10.9539 75.475C10.9745 92.6086 16.7046 109.247 27.2386 122.759C37.7725 136.272 52.5094 145.889 69.12 150.09L68.94 150.81Z" fill="#7473AD"/>
<path d="M87.62 124.32C77.9085 124.302 68.4205 121.405 60.3557 115.994C52.291 110.584 46.0118 102.903 42.3123 93.9242C38.6128 84.945 37.6591 75.0704 39.5719 65.5491C41.4847 56.0279 46.1781 47.2878 53.0584 40.434C59.9387 33.5803 68.697 28.9208 78.2255 27.0449C87.7541 25.1689 97.625 26.1607 106.59 29.8949C115.555 33.6292 123.211 39.9381 128.59 48.0237C133.969 56.1094 136.83 65.6085 136.81 75.32C136.741 88.3273 131.531 100.78 122.315 109.959C113.1 119.139 100.627 124.302 87.62 124.32ZM87.62 26.84C78.0696 26.842 68.7342 29.6758 60.7942 34.9832C52.8543 40.2906 46.6664 47.8331 43.013 56.6572C39.3596 65.4812 38.4047 75.1904 40.2691 84.5571C42.1335 93.9237 46.7335 102.527 53.4873 109.28C60.2412 116.032 68.8457 120.63 78.2128 122.493C87.5798 124.355 97.2888 123.398 106.112 119.743C114.935 116.088 122.477 109.898 127.782 101.957C133.088 94.0164 135.92 84.6805 135.92 75.1301C135.883 62.3333 130.782 50.0715 121.731 41.0247C112.681 31.9779 100.417 26.8817 87.62 26.85V26.84Z" fill="#7473AD"/>
<path d="M73.61 103.05H101.31L94.66 96.41H88.74L90.54 73.61L88.02 71.09L84.97 73.61L86.23 96.41H80.3L73.61 103.05Z" fill="url(#paint0_linear_7272_929)"/>
<path fill-rule="evenodd" clip-rule="evenodd" d="M83.31 66.43L69.84 52.78H72.89L86 66.2501L77.56 74.69L83.31 66.43ZM106.46 80.07L92.82 66.07L98.03 57.45L89.41 66.2501L102.87 80.2501L106.46 80.07ZM99.46 80.07L87.97 68.07L69.48 87.07L88.15 71.6301L96.59 80.2501L99.46 80.07ZM76.31 52.6L87.79 64.32L106.46 44.93L87.61 60.73L79.89 52.65L76.31 52.6Z" fill="url(#paint1_linear_7272_929)"/>
<path d="M31.65 59.3801L22.91 56.16C22.8657 56.1478 22.8248 56.1257 22.7904 56.0953C22.7561 56.0648 22.7291 56.0268 22.7117 55.9843C22.6944 55.9418 22.687 55.8959 22.6901 55.85C22.6933 55.8042 22.707 55.7597 22.73 55.72L24.11 51.9901C24.3163 51.286 24.7853 50.688 25.42 50.32C25.7339 50.1768 26.075 50.1027 26.42 50.1027C26.765 50.1027 27.1061 50.1768 27.42 50.32L28.01 50.54C28.3871 50.6534 28.7107 50.8987 28.9218 51.231C29.133 51.5633 29.2175 51.9605 29.16 52.35C29.3405 51.9905 29.6362 51.7018 30 51.53C30.1949 51.4488 30.4039 51.407 30.615 51.407C30.8261 51.407 31.0351 51.4488 31.23 51.53L32.1 51.85C32.4295 51.9477 32.7341 52.1153 32.993 52.3414C33.2518 52.5674 33.4589 52.8466 33.6 53.16C33.8414 53.8481 33.8128 54.6021 33.52 55.27L32.08 59.15C31.9933 59.3833 31.85 59.4601 31.65 59.3801ZM27.19 55.3L27.78 53.72C27.893 53.4689 27.9176 53.1869 27.85 52.92C27.7993 52.8026 27.7225 52.6985 27.6255 52.6153C27.5285 52.5321 27.4137 52.4721 27.29 52.44L26.72 52.23C26.6054 52.1778 26.481 52.1507 26.355 52.1507C26.2291 52.1507 26.1046 52.1778 25.99 52.23C25.7654 52.3863 25.6026 52.6163 25.53 52.8801L24.94 54.48C24.94 54.6 24.94 54.67 25.04 54.71L26.97 55.42C26.9905 55.4315 27.0135 55.4379 27.037 55.4389C27.0605 55.4399 27.0839 55.4353 27.1053 55.4256C27.1267 55.4159 27.1455 55.4012 27.1603 55.3829C27.175 55.3645 27.1852 55.343 27.19 55.32V55.3ZM31.19 56.78L31.84 55.04C31.9577 54.7866 31.9825 54.4999 31.91 54.23C31.8569 54.1164 31.7791 54.0161 31.6822 53.9365C31.5853 53.8569 31.4718 53.8 31.35 53.77L30.51 53.46C30.3954 53.4078 30.2709 53.3808 30.145 53.3808C30.0191 53.3808 29.8946 53.4078 29.78 53.46C29.5505 53.6352 29.3853 53.8812 29.31 54.16L28.68 55.86C28.68 55.98 28.68 56.06 28.78 56.1L30.97 56.91C30.9934 56.9215 31.0192 56.9271 31.0452 56.9263C31.0712 56.9256 31.0966 56.9185 31.1193 56.9057C31.142 56.8929 31.1612 56.8747 31.1752 56.8528C31.1893 56.8309 31.1978 56.8059 31.2 56.78H31.19Z" fill="white"/>
<path d="M37.9 46.22L35.33 50.99C35.3148 51.0332 35.29 51.0724 35.2574 51.1045C35.2248 51.1366 35.1852 51.1608 35.1418 51.1753C35.0983 51.1898 35.0521 51.1941 35.0068 51.188C34.9614 51.1819 34.918 51.1654 34.88 51.1399L26.68 46.72C26.6375 46.7009 26.5998 46.6724 26.5698 46.6367C26.5398 46.6011 26.5182 46.5591 26.5067 46.5139C26.4952 46.4688 26.494 46.4216 26.5032 46.3759C26.5124 46.3302 26.5318 46.2872 26.56 46.25L29.14 41.49C29.155 41.4479 29.1795 41.4097 29.2116 41.3787C29.2438 41.3476 29.2827 41.3244 29.3253 41.3108C29.3679 41.2972 29.413 41.2938 29.4572 41.3005C29.5014 41.3073 29.5434 41.3243 29.58 41.35L30.51 41.85C30.5515 41.8672 30.5887 41.8936 30.6186 41.9271C30.6486 41.9607 30.6706 42.0005 30.6831 42.0437C30.6956 42.0869 30.6982 42.1324 30.6907 42.1768C30.6833 42.2211 30.6659 42.2632 30.64 42.2999L28.99 45.2999C28.93 45.4099 28.99 45.4999 29.05 45.5499L30.82 46.5499C30.92 46.5499 31 46.55 31.06 46.45L32.41 43.96C32.4252 43.9168 32.45 43.8776 32.4826 43.8455C32.5152 43.8133 32.5548 43.7891 32.5982 43.7747C32.6417 43.7602 32.6878 43.7559 32.7332 43.762C32.7786 43.7681 32.8219 43.7845 32.86 43.8099L33.79 44.3099C33.8323 44.3279 33.8699 44.3553 33.8999 44.39C33.9299 44.4248 33.9516 44.4659 33.9632 44.5104C33.9748 44.5548 33.976 44.6014 33.9668 44.6464C33.9576 44.6914 33.9381 44.7336 33.91 44.7699L32.56 47.2599C32.5 47.3799 32.56 47.4699 32.62 47.5199L34.51 48.5199C34.61 48.5799 34.69 48.5199 34.76 48.4299L36.4 45.38C36.4172 45.3385 36.4436 45.3013 36.4772 45.2714C36.5107 45.2414 36.5506 45.2194 36.5938 45.2069C36.637 45.1944 36.6824 45.1918 36.7268 45.1992C36.7711 45.2067 36.8133 45.2241 36.85 45.25L37.77 45.75C37.8181 45.762 37.8622 45.7866 37.8977 45.8212C37.9333 45.8558 37.959 45.8992 37.9722 45.947C37.9854 45.9948 37.9857 46.0453 37.973 46.0933C37.9603 46.1412 37.9351 46.185 37.9 46.22Z" fill="white"/>
<path d="M36.65 43.32L36.4 43.1399C36.3646 43.1119 36.336 43.0761 36.3164 43.0355C36.2967 42.9948 36.2865 42.9502 36.2865 42.905C36.2865 42.8598 36.2967 42.8152 36.3164 42.7745C36.336 42.7338 36.3646 42.6981 36.4 42.67L37.23 41.53C37.2519 41.4898 37.2825 41.4551 37.3194 41.4282C37.3564 41.4012 37.3988 41.3827 37.4438 41.3741C37.4887 41.3655 37.535 41.367 37.5793 41.3783C37.6236 41.3897 37.6648 41.4108 37.7 41.44L37.8 41.52C37.9079 41.6177 38.0343 41.6928 38.1717 41.7409C38.3091 41.789 38.4547 41.8091 38.6 41.8C38.8984 41.6821 39.1485 41.4672 39.31 41.19L39.77 40.56C39.9862 40.3247 40.1104 40.0194 40.12 39.7C40.0824 39.5488 40.0142 39.4069 39.9196 39.283C39.825 39.1592 39.706 39.0561 39.57 38.98L39.42 38.87C39.3115 38.7838 39.1814 38.7289 39.044 38.7112C38.9065 38.6936 38.7668 38.7139 38.64 38.77C38.3287 38.9116 38.0522 39.12 37.83 39.3801C37.5575 39.6997 37.2635 40.0003 36.95 40.28C36.6364 40.5735 36.3023 40.8442 35.95 41.09C35.5864 41.3273 35.1513 41.4299 34.72 41.3801C34.1702 41.3243 33.6487 41.1086 33.22 40.7599L32.78 40.44C32.4871 40.2533 32.2392 40.0041 32.0542 39.7101C31.8692 39.4162 31.7516 39.0849 31.71 38.74C31.6706 38.0141 31.9063 37.3 32.37 36.74L33.37 35.41C33.7764 34.7933 34.3959 34.3483 35.11 34.16C35.4525 34.1041 35.8029 34.1225 36.1377 34.2139C36.4724 34.3054 36.7835 34.4677 37.05 34.69L37.29 34.86C37.331 34.8818 37.3662 34.913 37.3926 34.9512C37.419 34.9894 37.4359 35.0333 37.4417 35.0794C37.4476 35.1255 37.4424 35.1723 37.4264 35.2159C37.4104 35.2595 37.3842 35.2986 37.35 35.33L36.51 36.47C36.4895 36.5116 36.4596 36.5479 36.4227 36.576C36.3858 36.6041 36.3429 36.6232 36.2974 36.6319C36.2519 36.6406 36.2049 36.6386 36.1603 36.6262C36.1156 36.6137 36.0744 36.5911 36.04 36.56L35.97 36.5001C35.8617 36.3993 35.7341 36.3215 35.5948 36.2717C35.4556 36.2218 35.3076 36.2009 35.16 36.21C34.8616 36.3279 34.6116 36.5428 34.45 36.82L34.06 37.34C33.8377 37.5794 33.7128 37.8933 33.71 38.22C33.8138 38.5368 34.0311 38.8039 34.32 38.97L34.56 39.15C34.95 39.43 35.45 39.23 36.04 38.55C36.5897 37.8925 37.2333 37.3198 37.95 36.85C38.3207 36.6208 38.7561 36.519 39.19 36.56C39.7248 36.606 40.2334 36.8115 40.65 37.15L41.07 37.46C41.362 37.6487 41.6097 37.8984 41.7961 38.1918C41.9825 38.4853 42.1033 38.8155 42.15 39.16C42.1904 39.886 41.9546 40.6005 41.49 41.16L40.42 42.61C40.0204 43.2312 39.3975 43.6751 38.68 43.85C38.3235 43.9182 37.9563 43.9061 37.6051 43.8144C37.254 43.7227 36.9276 43.5538 36.65 43.32Z" fill="white"/>
<path d="M46.38 35.47L45.38 36.47C45.21 36.64 45.05 36.66 44.9 36.47L39.32 31.08C39.305 31.0613 39.286 31.0461 39.2643 31.0357C39.2427 31.0253 39.219 31.0198 39.195 31.0198C39.171 31.0198 39.1473 31.0253 39.1256 31.0357C39.104 31.0461 39.085 31.0613 39.07 31.08L37.75 32.44C37.7231 32.4772 37.6878 32.5075 37.6469 32.5284C37.6061 32.5493 37.5609 32.5601 37.515 32.5601C37.4691 32.5601 37.4239 32.5493 37.3831 32.5284C37.3422 32.5075 37.3069 32.4772 37.28 32.44L36.52 31.7C36.4846 31.6719 36.456 31.6362 36.4363 31.5955C36.4167 31.5548 36.4065 31.5102 36.4065 31.465C36.4065 31.4198 36.4167 31.3752 36.4363 31.3345C36.456 31.2938 36.4846 31.2581 36.52 31.23L40.87 26.73C40.8979 26.6928 40.9342 26.6625 40.9758 26.6417C41.0175 26.6208 41.0634 26.61 41.11 26.61C41.1566 26.61 41.2025 26.6208 41.2442 26.6417C41.2858 26.6625 41.3221 26.6928 41.35 26.73L42.1 27.46C42.1373 27.488 42.1675 27.5242 42.1883 27.5659C42.2092 27.6075 42.22 27.6534 42.22 27.7C42.22 27.7466 42.2092 27.7925 42.1883 27.8342C42.1675 27.8758 42.1373 27.9121 42.1 27.94L40.78 29.3C40.7594 29.3148 40.7425 29.3344 40.7309 29.357C40.7193 29.3796 40.7133 29.4046 40.7133 29.43C40.7133 29.4554 40.7193 29.4805 40.7309 29.5031C40.7425 29.5257 40.7594 29.5452 40.78 29.56L46.36 34.95C46.4045 34.9764 46.4416 35.0136 46.468 35.058C46.4945 35.1025 46.5094 35.1528 46.5114 35.2045C46.5134 35.2562 46.5024 35.3076 46.4794 35.3539C46.4565 35.4003 46.4223 35.4403 46.38 35.47Z" fill="white"/>
<path d="M55.42 28.0001L53.94 29.0001C53.3734 29.4478 52.6605 29.6687 51.94 29.6201C51.5993 29.5597 51.2755 29.4265 50.9908 29.2298C50.7061 29.0331 50.4671 28.7774 50.29 28.4801L47.49 24.4801C47.2717 24.2122 47.1155 23.8992 47.0325 23.5638C46.9495 23.2284 46.9418 22.8788 47.01 22.54C47.2078 21.8323 47.6695 21.2275 48.3 20.8501L49.78 19.8501C50.3472 19.4051 51.0615 19.1909 51.78 19.2501C52.1195 19.307 52.4426 19.4364 52.7274 19.6297C53.0122 19.823 53.2518 20.0756 53.43 20.3701L53.85 20.9701C53.8824 21.0068 53.9057 21.0506 53.9179 21.0981C53.9301 21.1456 53.9308 21.1953 53.9201 21.2431C53.9093 21.2909 53.8875 21.3355 53.8561 21.3733C53.8248 21.411 53.785 21.4407 53.74 21.46L52.6 22.2501C52.5663 22.2835 52.525 22.3084 52.4797 22.3228C52.4345 22.3372 52.3864 22.3407 52.3395 22.3329C52.2927 22.325 52.2483 22.3062 52.2102 22.2779C52.172 22.2496 52.1411 22.2126 52.12 22.17L51.76 21.65C51.6283 21.4299 51.4171 21.2688 51.17 21.2C50.901 21.19 50.6378 21.279 50.43 21.45L49.51 22.1001C49.2806 22.2309 49.1065 22.4405 49.02 22.69C49.0073 22.8155 49.0202 22.9422 49.0581 23.0626C49.0959 23.1829 49.1578 23.2943 49.24 23.39L51.93 27.28C52.0617 27.5001 52.2729 27.6613 52.52 27.7301C52.7836 27.745 53.0424 27.6552 53.24 27.4801L54.17 26.8401C54.4038 26.7072 54.5815 26.494 54.67 26.2401C54.6906 25.9839 54.6119 25.7296 54.45 25.53L54.09 25.01C54.0589 24.9746 54.0363 24.9328 54.0238 24.8874C54.0113 24.842 54.0093 24.7944 54.018 24.7481C54.0267 24.7019 54.0458 24.6581 54.0739 24.6203C54.1019 24.5825 54.1382 24.5517 54.18 24.53L55.32 23.7401C55.355 23.7062 55.3972 23.6807 55.4435 23.6656C55.4898 23.6505 55.5389 23.6462 55.5871 23.6529C55.6353 23.6597 55.6814 23.6773 55.7217 23.7046C55.7621 23.7318 55.7957 23.7678 55.82 23.81L56.23 24.41C56.4447 24.6797 56.598 24.993 56.6792 25.3281C56.7604 25.6632 56.7675 26.012 56.7 26.3501C56.4984 27.0427 56.0407 27.6326 55.42 28.0001Z" fill="white"/>
<path d="M60.53 24.96L59.28 25.6C59.243 25.6279 59.2001 25.6468 59.1546 25.6553C59.1091 25.6638 59.0623 25.6618 59.0177 25.6492C58.9732 25.6366 58.9321 25.6139 58.8978 25.5828C58.8635 25.5517 58.8369 25.5131 58.82 25.47L54.59 17.1699C54.49 16.9699 54.59 16.83 54.76 16.72L59.46 14.32C59.4974 14.2943 59.5401 14.2774 59.585 14.2707C59.6298 14.2639 59.6756 14.2673 59.719 14.2808C59.7623 14.2943 59.802 14.3174 59.8351 14.3484C59.8681 14.3794 59.8938 14.4176 59.91 14.46L60.38 15.3999C60.4057 15.4365 60.4226 15.4785 60.4294 15.5227C60.4362 15.5669 60.4327 15.6121 60.4191 15.6547C60.4055 15.6973 60.3823 15.7362 60.3513 15.7683C60.3202 15.8005 60.2821 15.825 60.24 15.84L57.24 17.35C57.12 17.41 57.09 17.49 57.14 17.59L58.23 19.73C58.2389 19.7548 58.2535 19.7772 58.2726 19.7954C58.2917 19.8137 58.3148 19.8272 58.34 19.835C58.3652 19.8427 58.3919 19.8446 58.4179 19.8402C58.444 19.8359 58.4686 19.8255 58.49 19.81L61.02 18.5199C61.0567 18.4922 61.0996 18.4736 61.145 18.4657C61.1903 18.4578 61.237 18.4608 61.2809 18.4745C61.3249 18.4882 61.365 18.5121 61.3979 18.5443C61.4308 18.5766 61.4555 18.6162 61.47 18.6599L61.94 19.58C61.9675 19.6183 61.9856 19.6624 61.9928 19.709C62 19.7556 61.9961 19.8031 61.9815 19.8479C61.9669 19.8927 61.942 19.9335 61.9087 19.9668C61.8754 20.0002 61.8348 20.0252 61.79 20.0399L59.31 21.32C59.19 21.38 59.15 21.46 59.21 21.56L60.7 24.5C60.7273 24.5396 60.7446 24.5851 60.7506 24.6328C60.7565 24.6805 60.7509 24.729 60.7343 24.7741C60.7176 24.8192 60.6904 24.8595 60.6548 24.8919C60.6193 24.9242 60.5765 24.9476 60.53 24.96Z" fill="white"/>
<path d="M65.22 22.32L62.17 13.52C62.1 13.32 62.17 13.1801 62.39 13.1001L66.26 11.76C66.941 11.4904 67.699 11.4904 68.38 11.76C68.6906 11.9098 68.9661 12.1236 69.1884 12.3873C69.4107 12.6509 69.5748 12.9585 69.67 13.29L71.27 17.93C71.4042 18.2485 71.4675 18.5923 71.4554 18.9377C71.4433 19.2831 71.3562 19.6217 71.2 19.93C70.8231 20.5547 70.2223 21.0124 69.52 21.21L65.65 22.54C65.43 22.55 65.31 22.49 65.22 22.32ZM66.93 20.32L68.63 19.7301C68.8942 19.6701 69.1262 19.513 69.28 19.29C69.3746 19.0524 69.3746 18.7876 69.28 18.55L67.73 14.08C67.6637 13.8346 67.5064 13.6236 67.29 13.4901C67.0329 13.4088 66.7547 13.4265 66.51 13.54L64.8 14.1301C64.7761 14.1336 64.7534 14.1428 64.7339 14.1569C64.7143 14.1711 64.6985 14.1898 64.6877 14.2114C64.6769 14.233 64.6714 14.2568 64.6718 14.281C64.6723 14.3051 64.6785 14.3288 64.69 14.3501L66.69 20.22C66.74 20.24 66.81 20.3201 66.93 20.2301V20.32Z" fill="white"/>
<path d="M77.17 18.77L76.07 9.51998C76.0607 9.47504 76.0619 9.42866 76.0735 9.38424C76.085 9.33983 76.1065 9.29865 76.1365 9.26388C76.1664 9.22911 76.204 9.20168 76.2462 9.18368C76.2884 9.16568 76.3342 9.15753 76.38 9.16L80.33 8.69003C81.0502 8.55202 81.796 8.69905 82.41 9.10006C82.6814 9.31026 82.9048 9.57595 83.0652 9.87948C83.2256 10.183 83.3193 10.5174 83.34 10.8601L83.41 11.4901C83.4796 11.8766 83.4065 12.2753 83.2041 12.6119C83.0018 12.9485 82.684 13.2002 82.31 13.32C82.7127 13.3152 83.1047 13.4494 83.42 13.7C83.5794 13.8397 83.7094 14.0099 83.8021 14.2005C83.8948 14.3911 83.9485 14.5983 83.96 14.81L84.07 15.7401C84.1305 16.0781 84.1182 16.4252 84.0336 16.758C83.9491 17.0909 83.7944 17.4018 83.58 17.67C83.0764 18.1928 82.3946 18.507 81.67 18.55L77.55 19.04C77.31 19.07 77.2 18.98 77.17 18.77ZM78.78 12.94L80.46 12.7401C80.7373 12.7306 81.0026 12.6244 81.21 12.44C81.2869 12.3406 81.3411 12.2254 81.3688 12.1027C81.3964 11.9801 81.3968 11.8529 81.37 11.7301L81.3 11.1301C81.2979 11.0034 81.2682 10.8786 81.2129 10.7646C81.1577 10.6506 81.0782 10.5501 80.98 10.4701C80.7377 10.342 80.4581 10.3031 80.19 10.3601L78.5 10.56C78.38 10.56 78.32 10.6401 78.34 10.7501L78.58 12.7501C78.59 12.9101 78.66 12.96 78.78 12.94ZM79.28 17.19L81.13 16.9701C81.4082 16.9649 81.675 16.8582 81.88 16.67C81.9582 16.5712 82.0132 16.4561 82.0409 16.3332C82.0686 16.2103 82.0683 16.0828 82.04 15.96L81.93 15.06C81.93 14.9358 81.9011 14.8133 81.8455 14.7022C81.79 14.5911 81.7093 14.4945 81.61 14.42C81.3535 14.2913 81.0612 14.2526 80.78 14.31L78.97 14.53C78.85 14.53 78.79 14.6001 78.81 14.7201L79.08 17.04C79.0789 17.0676 79.085 17.0951 79.0977 17.1197C79.1104 17.1443 79.1293 17.1652 79.1525 17.1803C79.1756 17.1954 79.2023 17.2042 79.2299 17.2059C79.2575 17.2076 79.2851 17.2021 79.31 17.19H79.28Z" fill="white"/>
<path d="M87.71 18.2401H86.3C86.07 18.2401 85.96 18.12 85.96 17.9L86.24 8.60004C86.24 8.38004 86.37 8.27997 86.6 8.27997L90.54 8.39996C91.2751 8.38093 91.99 8.64196 92.54 9.13007C92.7819 9.37777 92.9671 9.67495 93.0828 10.0013C93.1985 10.3276 93.2419 10.6752 93.21 11.02V12.23C93.2452 12.7276 93.1127 13.2225 92.8335 13.6358C92.5544 14.0491 92.1447 14.3569 91.67 14.5099V14.57L93.34 18.08C93.4267 18.3334 93.3267 18.4533 93.04 18.44H91.7C91.5566 18.4471 91.4134 18.4233 91.28 18.3701C91.1804 18.3075 91.1061 18.2119 91.07 18.1L89.51 14.7H88.4C88.27 14.7 88.2 14.7 88.2 14.86L88.11 18.04C88.0989 18.0807 88.0793 18.1187 88.0526 18.1513C88.0258 18.184 87.9925 18.2106 87.9547 18.2294C87.917 18.2483 87.8757 18.259 87.8335 18.2608C87.7913 18.2626 87.7492 18.2556 87.71 18.2401ZM88.4 13.0099H90.02C90.2943 13.0415 90.5709 12.9742 90.8 12.82C90.8918 12.7374 90.9637 12.6352 91.0105 12.5209C91.0572 12.4067 91.0776 12.2832 91.07 12.16V10.95C91.0847 10.8221 91.0718 10.6925 91.0321 10.57C90.9924 10.4475 90.9269 10.3351 90.84 10.2401C90.6203 10.0705 90.3471 9.98538 90.07 10.0001H88.45C88.32 10.0001 88.26 9.99997 88.26 10.16L88.18 12.82C88.2 12.9467 88.2733 13.0099 88.4 13.0099Z" fill="white"/>
<path d="M98.95 19.32L97.12 18.99C96.3916 18.9086 95.7222 18.5507 95.25 17.99C95.0475 17.7032 94.9096 17.3758 94.8457 17.0305C94.7818 16.6853 94.7935 16.3303 94.88 15.99L95.76 11.1599C95.7947 10.8186 95.9018 10.4885 96.0742 10.1919C96.2467 9.8953 96.4805 9.63896 96.76 9.43997C97.4024 9.08257 98.1566 8.98246 98.87 9.15994L100.69 9.49002C101.417 9.57628 102.085 9.93335 102.56 10.49C102.765 10.7757 102.904 11.1029 102.968 11.4486C103.032 11.7943 103.019 12.15 102.93 12.49L102.06 17.32C102.026 17.6615 101.919 17.9918 101.747 18.2885C101.574 18.5852 101.34 18.8414 101.06 19.0399C100.419 19.4013 99.6632 19.5016 98.95 19.32ZM97.75 17.32L98.91 17.5299C99.1694 17.607 99.4485 17.582 99.69 17.46C99.7874 17.38 99.8676 17.2811 99.926 17.1695C99.9844 17.0578 100.02 16.9356 100.03 16.81L100.87 12.1599C100.906 12.0386 100.917 11.9112 100.901 11.7855C100.886 11.6599 100.844 11.5389 100.78 11.43C100.596 11.2297 100.342 11.108 100.07 11.09L98.92 10.88C98.7934 10.84 98.6602 10.8255 98.528 10.8376C98.3958 10.8496 98.2673 10.8878 98.15 10.95C98.0527 11.03 97.9724 11.1287 97.914 11.2404C97.8556 11.352 97.8202 11.4744 97.81 11.6L96.97 16.25C96.934 16.3714 96.9234 16.4988 96.9389 16.6244C96.9544 16.75 96.9956 16.8711 97.06 16.98C97.1385 17.096 97.2405 17.1941 97.3593 17.2682C97.4782 17.3423 97.6113 17.3906 97.75 17.4099V17.32Z" fill="white"/>
<path d="M104.82 20.82L103.49 20.37C103.27 20.29 103.19 20.15 103.26 19.95L106.26 11.1399C106.271 11.0948 106.292 11.0528 106.322 11.0172C106.352 10.9817 106.39 10.9536 106.433 10.9352C106.475 10.9168 106.522 10.9086 106.568 10.9112C106.614 10.9137 106.66 10.927 106.7 10.95L108.03 11.4099C108.076 11.416 108.12 11.4331 108.158 11.4597C108.196 11.4864 108.227 11.5217 108.249 11.5629C108.271 11.6041 108.282 11.6498 108.282 11.6963C108.282 11.7428 108.271 11.7886 108.25 11.83L106.81 16C107.048 15.7275 107.313 15.4795 107.6 15.2599L111.11 12.81C111.209 12.7315 111.327 12.6815 111.452 12.6657C111.578 12.6498 111.705 12.6686 111.82 12.72L113.36 13.24C113.47 13.24 113.53 13.3399 113.54 13.4099C113.55 13.4799 113.49 13.55 113.37 13.62L109.07 16.45L110.71 22.45C110.71 22.59 110.71 22.69 110.66 22.73C110.611 22.7555 110.556 22.7687 110.5 22.7687C110.444 22.7687 110.389 22.7555 110.34 22.73L109.31 22.32C108.94 22.2 108.73 22.0099 108.68 21.7599L107.51 17.35L106.15 18.1L105.29 20.6C105.18 20.84 105.04 20.9 104.82 20.82Z" fill="white"/>
<path d="M116.61 25.93L111.79 23.46C111.746 23.446 111.706 23.422 111.673 23.3898C111.639 23.3577 111.614 23.3183 111.598 23.2747C111.583 23.2312 111.578 23.1845 111.583 23.1386C111.589 23.0927 111.605 23.0486 111.63 23.0099L115.88 14.73C115.897 14.6869 115.924 14.6483 115.958 14.6172C115.992 14.5862 116.033 14.5634 116.078 14.5508C116.122 14.5382 116.169 14.5361 116.215 14.5446C116.26 14.5532 116.303 14.5721 116.34 14.6L121.16 17.07C121.202 17.085 121.24 17.1095 121.271 17.1417C121.302 17.1738 121.326 17.2127 121.339 17.2553C121.353 17.2979 121.356 17.3431 121.349 17.3873C121.343 17.4314 121.326 17.4734 121.3 17.5099L120.82 18.45C120.805 18.4921 120.78 18.5301 120.748 18.5612C120.716 18.5923 120.677 18.6155 120.635 18.6291C120.592 18.6426 120.547 18.6462 120.503 18.6395C120.459 18.6327 120.417 18.6157 120.38 18.59L117.3 17.0099C117.18 16.9499 117.1 17.01 117.05 17.07L116.13 18.86C116.07 18.96 116.13 19.04 116.23 19.1L118.75 20.3899C118.794 20.404 118.834 20.4281 118.867 20.4603C118.901 20.4924 118.926 20.5318 118.942 20.5754C118.957 20.6189 118.962 20.6654 118.957 20.7114C118.951 20.7573 118.935 20.8013 118.91 20.84L118.43 21.78C118.413 21.8231 118.386 21.8617 118.352 21.8928C118.318 21.9238 118.277 21.9466 118.232 21.9592C118.188 21.9718 118.141 21.9739 118.095 21.9654C118.05 21.9569 118.007 21.9379 117.97 21.91L115.45 20.6201C115.33 20.5601 115.25 20.62 115.19 20.68L114.19 22.59C114.19 22.7 114.19 22.78 114.29 22.84L117.37 24.42C117.413 24.4339 117.452 24.4577 117.484 24.4893C117.516 24.521 117.541 24.5596 117.555 24.6024C117.57 24.6451 117.574 24.6907 117.568 24.7354C117.562 24.7801 117.546 24.8228 117.52 24.86L117.04 25.79C117.025 25.8306 117 25.8672 116.969 25.8972C116.938 25.9271 116.9 25.9496 116.859 25.9631C116.817 25.9765 116.774 25.9805 116.731 25.9748C116.688 25.9691 116.646 25.9538 116.61 25.93Z" fill="white"/>
<path d="M119.61 27.84L118.46 27.03C118.418 27.0104 118.38 26.9813 118.351 26.9449C118.322 26.9084 118.302 26.8656 118.292 26.82C118.283 26.7744 118.284 26.7272 118.295 26.6821C118.307 26.6369 118.329 26.5951 118.36 26.56L123.72 18.95C123.743 18.9106 123.775 18.8771 123.813 18.852C123.852 18.8268 123.895 18.8108 123.94 18.805C123.986 18.7992 124.032 18.8038 124.075 18.8185C124.118 18.8333 124.158 18.8577 124.19 18.8899L127.42 21.16C128.042 21.5466 128.496 22.1537 128.69 22.86C128.761 23.2089 128.754 23.5691 128.669 23.915C128.585 24.2608 128.424 24.5836 128.2 24.86L127.51 25.86C127.252 26.2817 126.863 26.6074 126.403 26.7879C125.943 26.9684 125.436 26.9938 124.96 26.86L124.42 30.7C124.35 30.96 124.21 31.01 123.97 30.84L122.88 30.07C122.751 29.9966 122.642 29.8938 122.56 29.7699C122.518 29.6606 122.518 29.5393 122.56 29.43L123.14 25.74L122.23 25.1C122.12 25.03 122.04 25.04 121.97 25.1L120.14 27.7C120.131 27.7573 120.105 27.8106 120.066 27.8536C120.027 27.8965 119.977 27.9274 119.92 27.9422C119.864 27.957 119.805 27.9552 119.75 27.9371C119.695 27.9189 119.646 27.8852 119.61 27.84ZM123.07 23.84L124.39 24.78C124.605 24.9549 124.873 25.0503 125.15 25.05C125.273 25.0334 125.39 24.9888 125.492 24.9194C125.594 24.85 125.679 24.7577 125.74 24.6499L126.44 23.6499C126.522 23.5524 126.582 23.4388 126.616 23.3164C126.651 23.1941 126.659 23.0657 126.64 22.94C126.546 22.6752 126.362 22.452 126.12 22.31L124.8 21.38C124.785 21.3613 124.766 21.3461 124.744 21.3357C124.723 21.3253 124.699 21.3199 124.675 21.3199C124.651 21.3199 124.627 21.3253 124.606 21.3357C124.584 21.3461 124.565 21.3613 124.55 21.38L123.02 23.56C122.95 23.7 122.97 23.78 123.07 23.85V23.84Z" fill="white"/>
<path d="M128.67 35.2L127.59 34.03C127.46 33.89 127.49 33.77 127.7 33.67L136.31 29.32C136.408 29.2743 136.518 29.2643 136.622 29.2917C136.726 29.3191 136.818 29.3823 136.88 29.47L138.38 31.09C138.463 31.1616 138.517 31.2603 138.534 31.3685C138.55 31.4766 138.528 31.587 138.47 31.68L133.4 39.91C133.28 40.1 133.16 40.13 133.02 39.98L131.95 38.81C131.915 38.7822 131.886 38.7473 131.866 38.7077C131.845 38.6681 131.833 38.6246 131.83 38.58C131.844 38.4895 131.886 38.4056 131.95 38.34L132.89 36.84L130.7 34.47L129.13 35.28C129.057 35.3406 128.965 35.3726 128.87 35.3701C128.826 35.3594 128.784 35.3384 128.75 35.3089C128.715 35.2794 128.688 35.2421 128.67 35.2ZM136.24 31.49L132.14 33.65L133.8 35.45L136.29 31.54L136.24 31.49Z" fill="white"/>
<path d="M135.73 39.32L135.99 39.1499C136.024 39.1191 136.065 39.097 136.11 39.0852C136.154 39.0734 136.201 39.0724 136.246 39.0822C136.291 39.0919 136.333 39.1122 136.368 39.1414C136.404 39.1705 136.432 39.2078 136.45 39.25L137.24 40.4199C137.274 40.452 137.299 40.4918 137.315 40.5359C137.33 40.58 137.334 40.6271 137.327 40.6732C137.32 40.7193 137.303 40.7631 137.275 40.8008C137.248 40.8385 137.212 40.8691 137.17 40.8899L137.07 40.96C136.939 41.0245 136.823 41.1171 136.732 41.2311C136.64 41.3451 136.575 41.4779 136.54 41.62C136.549 41.9388 136.665 42.2453 136.87 42.49L137.31 43.1399C137.462 43.4213 137.711 43.6382 138.01 43.75C138.164 43.7677 138.32 43.7527 138.469 43.7062C138.617 43.6597 138.754 43.5826 138.87 43.48L139.03 43.37C139.146 43.2953 139.239 43.1909 139.301 43.0678C139.362 42.9446 139.39 42.8072 139.38 42.6699C139.356 42.3171 139.25 41.9747 139.07 41.6699C138.861 41.3063 138.677 40.9287 138.52 40.5399C138.347 40.1418 138.207 39.7305 138.1 39.3099C137.995 38.8876 138.041 38.442 138.23 38.0499C138.468 37.5521 138.842 37.1324 139.31 36.84L139.76 36.5399C140.04 36.3237 140.365 36.1715 140.71 36.0938C141.056 36.016 141.414 36.0147 141.76 36.09C142.468 36.2939 143.071 36.7584 143.45 37.3899L144.38 38.7599C144.834 39.3451 145.046 40.083 144.97 40.82C144.911 41.1625 144.778 41.4883 144.582 41.7748C144.385 42.0613 144.128 42.3019 143.83 42.48L143.59 42.6399C143.555 42.6706 143.513 42.6928 143.468 42.7046C143.423 42.7164 143.376 42.7174 143.33 42.7077C143.284 42.6979 143.242 42.6778 143.205 42.6487C143.169 42.6196 143.14 42.5823 143.12 42.5399L142.33 41.37C142.298 41.3369 142.274 41.2969 142.26 41.2532C142.246 41.2095 142.243 41.1631 142.249 41.1177C142.256 41.0723 142.273 41.0291 142.299 40.9913C142.325 40.9536 142.36 40.9223 142.4 40.8999H142.48C142.61 40.8303 142.725 40.7351 142.818 40.62C142.911 40.5049 142.98 40.3722 143.02 40.23C143.016 39.9102 142.899 39.6022 142.69 39.36L142.33 38.82C142.171 38.5325 141.916 38.3096 141.61 38.19C141.277 38.1865 140.954 38.3036 140.7 38.5199L140.46 38.69C140.06 38.96 140.08 39.4899 140.53 40.2799C140.972 41.0196 141.308 41.8173 141.53 42.6499C141.612 43.0753 141.56 43.5158 141.38 43.9099C141.167 44.3914 140.82 44.8013 140.38 45.09L139.94 45.3899C139.66 45.6067 139.336 45.7594 138.99 45.8372C138.644 45.9149 138.286 45.9159 137.94 45.84C137.236 45.6338 136.636 45.1695 136.26 44.5399L135.26 43.0399C134.826 42.4681 134.619 41.7554 134.68 41.0399C134.723 40.6952 134.839 40.3636 135.02 40.067C135.201 39.7705 135.443 39.5158 135.73 39.32Z" fill="white"/>
<path d="M148.02 45.7301L139.78 50.07C139.742 50.0955 139.699 50.1119 139.653 50.118C139.608 50.1241 139.562 50.1198 139.518 50.1053C139.475 50.0908 139.435 50.0666 139.403 50.0345C139.37 50.0024 139.345 49.9632 139.33 49.92L138.67 48.67C138.644 48.6324 138.627 48.5896 138.619 48.5445C138.612 48.4995 138.614 48.4533 138.627 48.4094C138.639 48.3654 138.661 48.3248 138.691 48.2904C138.721 48.2559 138.758 48.2285 138.8 48.2101L147.04 43.8701C147.079 43.8448 147.123 43.8287 147.169 43.8232C147.215 43.8177 147.261 43.823 147.305 43.8385C147.348 43.854 147.388 43.8793 147.42 43.9126C147.452 43.9458 147.476 43.9859 147.49 44.03L148.14 45.28C148.168 45.3154 148.188 45.357 148.197 45.4013C148.206 45.4456 148.205 45.4915 148.193 45.5352C148.182 45.579 148.16 45.6193 148.13 45.6532C148.1 45.687 148.062 45.7134 148.02 45.7301Z" fill="white"/>
<path d="M140.85 53.02L140.28 51.54C140.21 51.35 140.28 51.2501 140.51 51.2401L150.14 50.31C150.247 50.3017 150.354 50.3312 150.441 50.3933C150.529 50.4554 150.592 50.5462 150.62 50.65L151.42 52.7C151.477 52.7949 151.496 52.908 151.471 53.0161C151.447 53.1241 151.382 53.2187 151.29 53.28L143.56 59.1001C143.38 59.2401 143.26 59.21 143.19 59.03L142.61 57.55C142.577 57.4666 142.577 57.3735 142.61 57.29C142.61 57.23 142.7 57.1701 142.81 57.1001L144.23 56.1001L143.06 53.1001L141.3 53.29C141.212 53.317 141.118 53.317 141.03 53.29C140.978 53.266 140.934 53.2282 140.902 53.1805C140.87 53.1329 140.852 53.0772 140.85 53.02ZM149.31 52.32L144.71 52.8301L145.59 55.1201L149.33 52.3801L149.31 52.32Z" fill="white"/>
<path d="M69.31 139.16L69.62 137.83C69.6785 137.566 69.8 137.32 69.9741 137.112C70.1482 136.905 70.3698 136.743 70.62 136.64L73.87 135.08C74.0943 135.001 74.2962 134.869 74.4581 134.695C74.6201 134.52 74.7374 134.31 74.8 134.08L74.89 133.66C74.9271 133.55 74.94 133.433 74.9279 133.317C74.9159 133.202 74.8791 133.09 74.82 132.99C74.6456 132.797 74.4079 132.673 74.15 132.64L73.62 132.52C73.3913 132.433 73.1387 132.433 72.91 132.52C72.8173 132.589 72.7394 132.676 72.681 132.775C72.6225 132.875 72.5848 132.985 72.57 133.1L72.47 133.54C72.4667 133.584 72.4532 133.626 72.4307 133.663C72.4082 133.701 72.3772 133.732 72.3403 133.756C72.3034 133.779 72.2615 133.793 72.2181 133.797C72.1746 133.802 72.1307 133.796 72.09 133.78L70.81 133.49C70.7664 133.487 70.7243 133.473 70.6868 133.451C70.6494 133.428 70.6178 133.397 70.5945 133.36C70.5711 133.323 70.5568 133.282 70.5525 133.238C70.5483 133.195 70.5543 133.151 70.57 133.11L70.68 132.64C70.7265 132.327 70.8399 132.027 71.0125 131.761C71.185 131.496 71.4127 131.27 71.68 131.1C72.3 130.788 73.0162 130.728 73.68 130.93L74.82 131.19C75.4917 131.292 76.0976 131.65 76.51 132.19C76.6827 132.458 76.7961 132.76 76.8427 133.076C76.8893 133.391 76.8679 133.713 76.78 134.02L76.65 134.58C76.5739 134.931 76.4155 135.26 76.1878 135.538C75.96 135.816 75.6694 136.036 75.34 136.18L72.02 137.78C71.9574 137.808 71.9017 137.849 71.8568 137.901C71.8119 137.953 71.7788 138.014 71.76 138.08L71.71 138.3L75.29 139.11C75.3332 139.112 75.3753 139.125 75.4129 139.146C75.4506 139.167 75.4828 139.197 75.507 139.233C75.5312 139.269 75.5468 139.31 75.5525 139.353C75.5582 139.396 75.554 139.439 75.54 139.48L75.32 140.48C75.3143 140.523 75.2987 140.564 75.2744 140.6C75.2501 140.636 75.2178 140.666 75.1799 140.687C75.1421 140.709 75.0998 140.721 75.0564 140.723C75.0131 140.725 74.9698 140.717 74.93 140.7L69.54 139.48C69.4672 139.468 69.4022 139.427 69.3591 139.367C69.3161 139.307 69.2984 139.233 69.31 139.16Z" fill="white"/>
<path d="M83.39 141.69L81.86 141.59C81.179 141.59 80.5241 141.329 80.03 140.86C79.8168 140.622 79.6581 140.34 79.5648 140.035C79.4716 139.729 79.446 139.407 79.49 139.09L79.79 134.54C79.7887 134.219 79.8569 133.902 79.9898 133.611C80.1227 133.319 80.3172 133.059 80.56 132.85C81.1139 132.456 81.7957 132.285 82.47 132.37L84 132.48C84.6781 132.48 85.3301 132.741 85.82 133.21C86.0315 133.449 86.1891 133.731 86.2823 134.036C86.3754 134.342 86.4019 134.664 86.36 134.98L86.06 139.52C86.0581 139.841 85.9875 140.158 85.8529 140.449C85.7184 140.741 85.5231 141 85.28 141.21C84.7335 141.604 84.058 141.775 83.39 141.69ZM82.28 140.03L83.19 140.1C83.4338 140.138 83.6832 140.085 83.89 139.95C84.051 139.777 84.1373 139.547 84.13 139.31L84.42 134.94C84.4583 134.706 84.4046 134.466 84.27 134.27C84.0811 134.108 83.8386 134.023 83.59 134.03L82.69 133.97C82.4462 133.932 82.1968 133.985 81.99 134.12C81.9061 134.203 81.8405 134.303 81.7975 134.414C81.7544 134.524 81.7348 134.642 81.74 134.76L81.45 139.13C81.4297 139.247 81.4334 139.366 81.4609 139.482C81.4884 139.597 81.5391 139.705 81.61 139.8C81.8055 139.963 82.0559 140.045 82.31 140.03H82.28Z" fill="white"/>
<path d="M89.99 141.5L89.87 140.14C89.848 139.865 89.8939 139.589 90.0038 139.336C90.1136 139.083 90.2841 138.861 90.5 138.69L93.11 136.21C93.297 136.069 93.448 135.886 93.5505 135.676C93.6531 135.466 93.7043 135.234 93.7 135V134.57C93.703 134.453 93.6804 134.337 93.6337 134.23C93.5871 134.123 93.5175 134.027 93.43 133.95C93.2005 133.827 92.9364 133.785 92.68 133.83H92.15C91.9022 133.831 91.6634 133.923 91.48 134.09C91.3466 134.279 91.2927 134.512 91.33 134.74V135.2C91.3393 135.242 91.3388 135.286 91.3283 135.328C91.3178 135.37 91.2978 135.409 91.2696 135.442C91.2415 135.475 91.2062 135.501 91.1663 135.518C91.1265 135.535 91.0832 135.543 91.04 135.54L89.74 135.66C89.6972 135.669 89.653 135.668 89.6105 135.658C89.5681 135.647 89.5286 135.627 89.4949 135.6C89.4612 135.572 89.4343 135.537 89.4162 135.497C89.398 135.457 89.389 135.414 89.39 135.37V134.88C89.3407 134.566 89.3598 134.246 89.4461 133.94C89.5324 133.635 89.6839 133.352 89.89 133.11C90.3775 132.633 91.0278 132.358 91.71 132.34L92.87 132.24C93.5428 132.134 94.2307 132.291 94.79 132.68C95.0358 132.883 95.2352 133.136 95.3749 133.422C95.5147 133.709 95.5914 134.022 95.6 134.34L95.65 134.91C95.6833 135.267 95.6319 135.627 95.4998 135.961C95.3678 136.295 95.1588 136.592 94.89 136.83L92.22 139.38C92.1677 139.423 92.1268 139.479 92.1007 139.542C92.0745 139.604 92.064 139.672 92.07 139.74V139.97L95.72 139.64C95.94 139.64 96.05 139.72 96.07 139.92L96.16 140.92C96.16 141.12 96.06 141.23 95.86 141.25L90.36 141.73C90.12 141.79 90.01 141.7 89.99 141.5Z" fill="white"/>
<path d="M99.99 140.32L99.67 138.99C99.6094 138.722 99.6141 138.443 99.6837 138.176C99.7533 137.91 99.8858 137.664 100.07 137.46L102.29 134.62C102.449 134.451 102.568 134.248 102.638 134.026C102.707 133.804 102.725 133.57 102.69 133.34L102.58 132.92C102.564 132.805 102.523 132.694 102.461 132.596C102.399 132.498 102.317 132.414 102.22 132.35C101.974 132.261 101.706 132.261 101.46 132.35L100.94 132.48C100.694 132.514 100.469 132.639 100.31 132.83C100.266 132.936 100.243 133.05 100.243 133.165C100.243 133.28 100.266 133.394 100.31 133.5L100.42 133.95C100.436 133.991 100.442 134.035 100.437 134.078C100.433 134.121 100.419 134.163 100.395 134.2C100.372 134.237 100.341 134.268 100.303 134.291C100.266 134.313 100.224 134.327 100.18 134.33L98.91 134.64C98.8701 134.658 98.8265 134.666 98.783 134.663C98.7394 134.66 98.6971 134.647 98.6597 134.625C98.6223 134.602 98.591 134.571 98.5684 134.533C98.5458 134.496 98.5326 134.454 98.53 134.41L98.41 133.94C98.3147 133.635 98.286 133.312 98.3256 132.995C98.3653 132.678 98.4725 132.373 98.64 132.1C99.0573 131.571 99.6558 131.215 100.32 131.1L101.45 130.83C102.11 130.617 102.826 130.667 103.45 130.97C103.723 131.134 103.958 131.355 104.139 131.617C104.32 131.879 104.443 132.177 104.5 132.49L104.63 133.05C104.719 133.395 104.724 133.756 104.646 134.104C104.568 134.452 104.408 134.776 104.18 135.05L101.92 137.97C101.875 138.021 101.843 138.082 101.825 138.148C101.808 138.214 101.806 138.283 101.82 138.35L101.87 138.57L105.44 137.7C105.65 137.7 105.78 137.7 105.82 137.92L106.06 138.92C106.107 139.113 106.027 139.233 105.82 139.28L100.45 140.6C100.404 140.635 100.348 140.655 100.29 140.658C100.232 140.66 100.175 140.646 100.125 140.616C100.076 140.586 100.036 140.541 100.012 140.489C99.9882 140.436 99.9804 140.377 99.99 140.32Z" fill="white"/>
<defs>
<linearGradient id="paint0_linear_7272_929" x1="87.52" y1="98.91" x2="88.14" y2="71.18" gradientUnits="userSpaceOnUse">
<stop stop-color="#3D82F7"/>
<stop offset="0.58" stop-color="#0D67F9"/>
<stop offset="1" stop-color="#0D49CC"/>
</linearGradient>
<linearGradient id="paint1_linear_7272_929" x1="76.54" y1="54.15" x2="102.17" y2="80.67" gradientUnits="userSpaceOnUse">
<stop stop-color="#32D7F5"/>
<stop offset="0.57" stop-color="#1D93F4"/>
<stop offset="1" stop-color="#0D67F9"/>
</linearGradient>
</defs>
</svg>
