<svg width="98" height="84" viewBox="0 0 98 84" fill="none" xmlns="http://www.w3.org/2000/svg">
<g opacity="0.8">
<path d="M16.66 41.0447L11.5294 40.5835C11.4141 40.5835 11.3564 40.5258 11.3564 40.3529L11.5294 38.1623C11.587 37.7011 11.7023 37.2976 11.9906 37.067C12.2788 36.8364 12.6247 36.7211 13.0282 36.7788L13.3741 36.8364C13.8353 36.8941 14.1235 37.1247 14.2388 37.6435C14.2964 37.4129 14.4117 37.24 14.5847 37.067C14.7576 36.9517 14.9882 36.8941 15.2764 36.8941L15.7953 36.9517C16.2564 37.0094 16.5447 37.1247 16.7753 37.4129C17.0059 37.7011 17.0635 38.047 17.0635 38.5658L16.8906 40.8717C16.8329 40.987 16.7753 41.0447 16.66 41.0447ZM13.72 39.5459L13.7776 38.6235C13.7776 38.4506 13.7776 38.2776 13.72 38.1623C13.6623 38.047 13.547 37.9894 13.3741 37.9894H13.0282C12.8553 37.9894 12.74 37.9894 12.6247 38.1047C12.567 38.1623 12.5094 38.3353 12.4517 38.5082L12.3941 39.4306C12.3941 39.4882 12.3941 39.5459 12.4517 39.5459L13.6047 39.6611C13.6623 39.6035 13.6623 39.6035 13.72 39.5459ZM16.0259 39.7188L16.1412 38.6811C16.1412 38.5082 16.1412 38.3353 16.0835 38.22C16.0259 38.1047 15.9106 38.047 15.7376 38.047L15.2188 37.9894C15.0459 37.9894 14.9306 37.9894 14.8153 38.1047C14.7576 38.1623 14.7 38.3353 14.6423 38.5658L14.5847 39.5459C14.5847 39.6035 14.5847 39.6611 14.6423 39.6611L15.9106 39.7764C16.0259 39.8341 16.0259 39.7764 16.0259 39.7188Z" fill="white"/>
<path d="M18.1009 33.0894L17.4092 36.0294C17.3515 36.1447 17.2939 36.2023 17.1786 36.2023L12.1633 35.0494C12.048 35.0494 11.9904 34.9341 12.048 34.8188L12.7398 31.8788C12.7398 31.7635 12.8551 31.7059 12.9704 31.7635L13.5468 31.8788C13.6621 31.8788 13.7198 31.9941 13.6621 32.1094L13.2586 33.9541C13.2586 34.0118 13.2586 34.0694 13.3162 34.0694L14.4115 34.3C14.4692 34.3 14.5268 34.3 14.5268 34.2423L14.8727 32.7435C14.9304 32.6282 14.988 32.5706 15.1033 32.5706L15.6798 32.6859C15.7951 32.6859 15.8527 32.8012 15.7951 32.9165L15.3915 34.4729C15.3915 34.5306 15.3915 34.5882 15.4492 34.5882L16.6021 34.8765C16.6598 34.8765 16.7174 34.8765 16.7174 34.8188L17.1209 32.9741C17.1209 32.8588 17.2362 32.8012 17.3515 32.8588L17.928 32.9741C18.0433 32.9165 18.1009 32.9741 18.1009 33.0894Z" fill="white"/>
<path d="M17.0059 31.7635L16.833 31.7059C16.7177 31.6482 16.66 31.5906 16.7177 31.4753L17.0059 30.7259C17.0636 30.6106 17.1212 30.5529 17.2365 30.6106H17.2941C17.5247 30.6682 17.64 30.7259 17.7553 30.6682C17.8706 30.6106 17.9859 30.4953 18.0436 30.2647L18.2165 29.8612C18.2741 29.6306 18.3318 29.4576 18.2741 29.3423C18.2165 29.227 18.1012 29.1117 17.8706 29.0541L17.7553 28.9964C17.5824 28.9388 17.4671 28.9388 17.2941 29.0541C17.1789 29.1694 17.0636 29.2847 16.9483 29.5153C16.833 29.6882 16.7177 29.9188 16.6024 30.1494C16.4871 30.38 16.3141 30.5529 16.1989 30.7259C16.0836 30.8988 15.9106 31.0141 15.6224 31.0141C15.3341 31.0717 15.0459 31.0141 14.7577 30.8988L14.4694 30.7835C14.0659 30.6106 13.7777 30.38 13.6624 30.0341C13.5471 29.6882 13.5471 29.2847 13.72 28.8811L14.0659 28.0164C14.2389 27.5553 14.4694 27.267 14.8153 27.0941C15.1612 26.9212 15.5071 26.9212 15.9106 27.0941L16.0836 27.1517C16.1989 27.2094 16.2565 27.267 16.1989 27.3823L15.853 28.1317C15.7953 28.247 15.7377 28.3047 15.6224 28.247H15.5647C15.3341 28.1894 15.2189 28.1317 15.1036 28.1894C14.9883 28.247 14.873 28.3623 14.8153 28.5929L14.7 28.9388C14.5847 29.1694 14.5847 29.3423 14.6424 29.4576C14.7 29.5729 14.8153 29.6882 15.1036 29.7459L15.2765 29.8035C15.5071 29.9188 15.7377 29.7459 15.9683 29.2847C16.1989 28.8235 16.4294 28.42 16.7177 28.0741C16.8906 27.9012 17.0636 27.7859 17.3518 27.7282C17.5824 27.6706 17.8706 27.7282 18.2165 27.8435L18.5047 27.9588C18.9083 28.1317 19.1965 28.3623 19.3118 28.7082C19.4271 29.0541 19.4271 29.4576 19.2541 29.8612L18.9083 30.7835C18.7353 31.2447 18.5047 31.5329 18.1589 31.7059C17.7553 31.9364 17.4094 31.9364 17.0059 31.7635Z" fill="white"/>
<path d="M21.0409 26.1717L20.695 26.8635C20.6374 26.9788 20.5221 27.0364 20.4644 26.9788L16.7174 24.9035C16.6597 24.8459 16.6021 24.9035 16.6021 24.9611L15.968 25.8259C15.9103 25.9411 15.795 25.9411 15.7374 25.8835L15.2186 25.5953C15.1033 25.5376 15.1033 25.48 15.1609 25.3647L16.8327 22.3094C16.8903 22.1941 17.0056 22.1941 17.0633 22.2517L17.5821 22.54C17.6974 22.5976 17.6974 22.6553 17.6397 22.7706L17.1209 23.6929C17.0633 23.7506 17.1209 23.8082 17.1786 23.8082L20.9256 25.8835C21.0409 25.9411 21.0986 26.0564 21.0409 26.1717Z" fill="white"/>
<path d="M25.2498 20.2341L23.3475 22.54C23.2898 22.6553 23.1745 22.6553 23.0592 22.5976L19.0816 19.3118C18.9663 19.2541 18.9663 19.1388 19.0816 19.0235L20.9839 16.7176C21.0416 16.6023 21.1569 16.6023 21.2145 16.7176L21.6757 17.0635C21.791 17.1212 21.791 17.2365 21.6757 17.2941L20.4651 18.7929C20.4075 18.8506 20.4075 18.9082 20.4651 18.9659L21.3298 19.6576C21.3875 19.7153 21.4451 19.7153 21.4451 19.6576L22.4251 18.447C22.4828 18.3318 22.5981 18.3318 22.7134 18.3894L23.1745 18.7353C23.2898 18.7929 23.2898 18.9082 23.1745 19.0235L22.1945 20.2341C22.1369 20.2918 22.1369 20.3494 22.1945 20.407L23.1169 21.1565C23.1745 21.2141 23.2322 21.2141 23.2322 21.1565L24.4428 19.6576C24.5004 19.5423 24.6157 19.5423 24.6734 19.6576L25.1345 20.0035C25.3075 20.0612 25.3075 20.1765 25.2498 20.2341Z" fill="white"/>
<path d="M27.7285 17.8706L26.9791 18.5623C26.6332 18.9082 26.2873 19.0235 25.8838 19.0235C25.5379 19.0235 25.192 18.8506 24.9038 18.5047L23.0591 16.4871C22.7709 16.1412 22.5979 15.7953 22.6556 15.4494C22.7132 15.1035 22.8862 14.7576 23.232 14.4118L23.9815 13.72C24.3273 13.3741 24.6732 13.2588 25.0768 13.2588C25.4226 13.2588 25.7685 13.4318 26.0568 13.7776L26.345 14.0659C26.4026 14.1812 26.4026 14.2388 26.345 14.3541L25.7685 14.8729C25.6532 14.9882 25.5956 14.9306 25.4803 14.8729L25.2497 14.6423C25.1344 14.5271 25.0191 14.4118 24.9038 14.4118C24.7885 14.4118 24.6732 14.4694 24.5003 14.5847L24.0391 14.9882C23.9238 15.1035 23.8085 15.2188 23.8085 15.3341C23.8085 15.4494 23.8662 15.5647 23.9815 15.68L25.7685 17.5823C25.8838 17.6976 25.9991 17.8129 26.1144 17.8129C26.2297 17.8129 26.345 17.7553 26.5179 17.64L26.9791 17.2365C27.0944 17.1212 27.2097 17.0059 27.2097 16.8906C27.2097 16.7753 27.152 16.66 27.0368 16.5447L26.8062 16.3141C26.7485 16.1988 26.7485 16.1412 26.8062 16.0259L27.3826 15.5071C27.4979 15.3918 27.5556 15.3918 27.6709 15.5071L27.9591 15.7953C28.2473 16.1412 28.4203 16.4871 28.3626 16.8329C28.2473 17.1788 28.0744 17.5247 27.7285 17.8706Z" fill="white"/>
<path d="M30.2068 15.8529L29.5727 16.2565C29.4574 16.3141 29.3998 16.3141 29.2845 16.1988L26.4021 11.9329C26.3445 11.8176 26.3445 11.76 26.4598 11.7023L27.0362 11.2988C27.1515 11.2412 27.2092 11.2412 27.3245 11.2412L30.668 12.9129H30.7257L28.9962 10.2612C28.9386 10.1459 28.9386 10.0882 29.0539 10.0306L29.688 9.62704C29.8033 9.56939 29.8609 9.56939 29.9762 9.68469L32.8586 13.9506C32.9162 14.0659 32.9162 14.1235 32.8009 14.1812L32.2245 14.527C32.1092 14.5847 31.9939 14.5847 31.8786 14.527L28.5927 12.9129H28.5351L30.3221 15.5647C30.3798 15.68 30.3221 15.7953 30.2068 15.8529Z" fill="white"/>
<path d="M35.4533 12.5094L33.6086 7.72469C33.5509 7.60939 33.6086 7.55175 33.7238 7.4941L35.7991 6.68704C36.2603 6.5141 36.6638 6.5141 36.9521 6.62939C37.298 6.74469 37.5286 7.03292 37.7015 7.43645L37.8168 7.78234C37.9897 8.24351 37.8744 8.5894 37.4709 8.93528C37.7015 8.87763 37.9321 8.87763 38.105 8.99292C38.278 9.10822 38.4509 9.28116 38.5662 9.51175L38.7391 9.97292C38.9121 10.3765 38.9121 10.78 38.7391 11.0682C38.5662 11.4141 38.278 11.6447 37.8168 11.8176L35.7415 12.6247C35.6262 12.6823 35.5109 12.6247 35.4533 12.5094ZM35.5109 9.16587L36.3756 8.81998C36.5486 8.76234 36.6638 8.64704 36.7215 8.53175C36.7791 8.41645 36.7791 8.30116 36.7215 8.12822L36.6062 7.83998C36.5486 7.66704 36.4333 7.55175 36.318 7.55175C36.2027 7.4941 36.0874 7.55175 35.8568 7.60939L35.0497 7.95528C34.9921 7.95528 34.9921 8.01292 34.9921 8.07057L35.3956 9.10822C35.4533 9.16587 35.4533 9.22351 35.5109 9.16587ZM36.3756 11.3565L37.3556 11.0106C37.5286 10.9529 37.6438 10.8376 37.7015 10.7223C37.7591 10.607 37.7591 10.4917 37.7015 10.3188L37.5286 9.85763C37.4709 9.68469 37.3556 9.56939 37.2403 9.56939C37.125 9.51175 36.9521 9.56939 36.7791 9.62704L35.8568 9.97292C35.7991 9.97292 35.7991 10.0306 35.7991 10.0882L36.2603 11.2988C36.2603 11.4141 36.318 11.4141 36.3756 11.3565Z" fill="white"/>
<path d="M41.045 10.78L40.2956 10.9529C40.1803 10.9529 40.1227 10.9529 40.065 10.8376L38.9697 5.82233C38.9697 5.70704 38.9697 5.64939 39.1427 5.59175L41.2756 5.13057C41.7368 5.01528 42.1403 5.07292 42.4286 5.24586C42.7168 5.41881 42.9474 5.70704 43.0627 6.16822L43.2356 6.80233C43.3509 7.43645 43.178 7.89763 42.7168 8.24351V8.30116L44.1003 9.97292C44.158 10.0882 44.158 10.1459 43.985 10.2035L43.2356 10.3765C43.1203 10.3765 43.0627 10.4341 43.005 10.3765C42.9474 10.3765 42.8897 10.3188 42.8321 10.2612L41.5062 8.58939L40.9297 8.70469C40.8721 8.70469 40.8144 8.76233 40.8144 8.81998L41.218 10.5494C41.218 10.6647 41.1603 10.78 41.045 10.78ZM40.6991 7.89763L41.5638 7.72469C41.7368 7.66704 41.9097 7.60939 41.9674 7.4941C42.025 7.3788 42.0827 7.26351 42.025 7.09057L41.8521 6.45645C41.7944 6.28351 41.7368 6.16822 41.6215 6.11057C41.5062 6.05292 41.3909 6.05292 41.1603 6.11057L40.3533 6.28351C40.2956 6.28351 40.238 6.34116 40.2956 6.39881L40.6415 7.83998C40.5838 7.89763 40.6415 7.89763 40.6991 7.89763Z" fill="white"/>
<path d="M47.2131 9.85765L46.1755 9.91529C45.7143 9.97294 45.3108 9.85765 45.0226 9.62706C44.7343 9.39647 44.5614 9.05059 44.5614 8.64706L44.3884 5.93765C44.3308 5.47647 44.4461 5.13059 44.7343 4.9C44.9649 4.66941 45.3684 4.49647 45.8296 4.43882L46.8673 4.38118C47.3284 4.32353 47.732 4.43882 48.0202 4.66941C48.3084 4.9 48.4814 5.24588 48.4814 5.64941L48.6543 8.35882C48.712 8.82 48.5967 9.16588 48.3084 9.39647C48.0778 9.68471 47.732 9.8 47.2131 9.85765ZM46.3484 8.99294L46.9826 8.93529C47.1555 8.93529 47.3284 8.87765 47.3861 8.76235C47.4437 8.64706 47.5014 8.53176 47.5014 8.35882L47.2708 5.76471C47.2708 5.59176 47.2131 5.47647 47.0978 5.36118C46.9826 5.30353 46.8673 5.24588 46.6943 5.30353L46.0602 5.36118C45.8873 5.36118 45.7143 5.41882 45.6567 5.47647C45.599 5.53412 45.5414 5.70706 45.5414 5.88L45.7143 8.47412C45.7143 8.64706 45.772 8.76235 45.8873 8.87765C46.0026 8.93529 46.1178 8.99294 46.3484 8.99294Z" fill="white"/>
<path d="M50.5571 9.85763L49.8077 9.79999C49.6924 9.79999 49.6348 9.74234 49.6348 9.62705L50.0383 4.49646C50.0383 4.38116 50.0959 4.32352 50.2689 4.32352L51.0183 4.38116C51.1336 4.38116 51.1912 4.43881 51.1912 4.55411L51.0183 6.97528C51.0759 6.85999 51.1912 6.68705 51.3642 6.45646L52.9207 4.6694C53.0359 4.55411 53.1512 4.49646 53.2665 4.49646L54.1889 4.55411C54.2465 4.55411 54.3042 4.55411 54.3042 4.61175C54.3042 4.6694 54.3042 4.6694 54.2465 4.72705L52.3442 6.85999L54.0736 9.85763C54.1312 9.91528 54.1312 9.97293 54.0736 10.0306C54.0159 10.0882 53.9583 10.0882 53.9006 10.0882L53.2089 10.0306C52.9783 10.0306 52.863 9.91528 52.8054 9.79999L51.5948 7.6094L50.9606 8.18587L50.7877 9.68469C50.7877 9.79999 50.7301 9.85763 50.5571 9.85763Z" fill="white"/>
<path d="M57.5895 10.9529L54.7071 10.2611C54.5918 10.2611 54.5342 10.1458 54.5342 10.0306L55.6871 5.01526C55.6871 4.89996 55.8024 4.84232 55.9177 4.89997L58.8577 5.53408C58.973 5.53408 59.0307 5.64938 58.973 5.76467L58.8577 6.34114C58.8577 6.45644 58.7424 6.51408 58.6271 6.45644L56.7824 6.05291C56.7248 6.05291 56.6671 6.05291 56.6671 6.11055L56.4365 7.20585C56.4365 7.26349 56.4365 7.32114 56.5518 7.32114L58.1083 7.66702C58.2236 7.66702 58.2812 7.78232 58.2812 7.89761L58.1659 8.47408C58.1659 8.58938 58.0507 8.64702 57.9354 8.58938L56.3789 8.24349C56.3212 8.24349 56.2636 8.24349 56.2636 8.30114L55.9754 9.45408C55.9754 9.51173 55.9754 9.56938 56.0907 9.56938L57.9354 9.97291C58.0507 9.97291 58.1083 10.0882 58.0506 10.2035L57.9354 10.78C57.8201 10.8953 57.7048 10.9529 57.5895 10.9529Z" fill="white"/>
<path d="M59.4918 11.5294L58.7424 11.2412C58.6271 11.1835 58.5695 11.1259 58.6271 11.0106L60.4718 6.16821C60.5295 6.05292 60.5871 5.99527 60.7024 6.05292L62.7201 6.80233C63.1812 6.97527 63.4695 7.20586 63.6424 7.55174C63.8153 7.89763 63.8153 8.24351 63.6424 8.64704L63.4118 9.28115C63.1812 9.85762 62.7777 10.2035 62.2012 10.2035V10.2612L62.4318 12.3941C62.4318 12.567 62.3742 12.567 62.2012 12.5094L61.5095 12.2212C61.3942 12.1635 61.3365 12.1635 61.2789 12.1059C61.2212 12.0482 61.2212 11.9906 61.2212 11.9329L61.0483 9.85762L60.4718 9.62704C60.4142 9.62704 60.3565 9.62704 60.3565 9.68468L59.7224 11.2988C59.6648 11.587 59.6071 11.587 59.4918 11.5294ZM60.7601 8.93527L61.6248 9.28115C61.7977 9.3388 61.9706 9.3388 62.0859 9.3388C62.2012 9.3388 62.2589 9.22351 62.3742 9.05057L62.6048 8.41645C62.6624 8.24351 62.6624 8.12821 62.6048 8.01292C62.5471 7.89763 62.4318 7.83998 62.2589 7.72468L61.3942 7.3788C61.3365 7.3788 61.2789 7.3788 61.2789 7.43645L60.7601 8.81998C60.7024 8.87763 60.7024 8.93527 60.7601 8.93527Z" fill="white"/>
<path d="M65.6603 14.4694L65.0262 14.0659C64.9109 14.0082 64.9109 13.8929 64.9685 13.8353L67.7356 9.51174C67.7932 9.39645 67.9085 9.39645 67.9662 9.45409L69.8685 10.6647C70.2721 10.8953 70.5026 11.2412 70.6179 11.587C70.7332 11.9329 70.6179 12.2788 70.3874 12.6823L69.9262 13.3741C69.6956 13.72 69.4074 13.9506 69.0615 14.0082C68.7156 14.0659 68.3121 13.9506 67.9085 13.72L66.9285 13.0859C66.8709 13.0282 66.8132 13.0282 66.8132 13.0859L65.9485 14.4694C65.8332 14.4694 65.7179 14.527 65.6603 14.4694ZM67.4474 12.2212L68.2544 12.74C68.4274 12.8553 68.5426 12.9129 68.6579 12.8553C68.7732 12.8553 68.8885 12.74 68.9462 12.6247L69.3497 12.0482C69.465 11.8753 69.465 11.76 69.465 11.6447C69.465 11.5294 69.3497 11.4141 69.1768 11.2988L68.3697 10.78C68.3121 10.7223 68.2544 10.78 68.2544 10.78L67.4474 12.0482C67.3321 12.1059 67.3897 12.1635 67.4474 12.2212Z" fill="white"/>
<path d="M69.1183 16.8906L68.4842 16.3141C68.4265 16.2565 68.4265 16.1988 68.5418 16.0835L73.0383 13.1435C73.1536 13.0859 73.2689 13.0859 73.3842 13.2012L74.3065 14.0082C74.4218 14.1235 74.4218 14.2388 74.4218 14.2965L72.1159 19.1388C72.0583 19.2541 72.0006 19.2541 71.943 19.1965L71.3089 18.62C71.2512 18.5623 71.2512 18.5623 71.2512 18.5047C71.2512 18.447 71.2512 18.447 71.3089 18.3894L71.7124 17.5247L70.3865 16.3718L69.5794 16.8906C69.5218 16.9482 69.4642 16.9482 69.4642 16.9482C69.2336 16.9482 69.1759 16.9482 69.1183 16.8906ZM73.0959 14.4118L70.963 15.8529L72.0006 16.7753L73.0959 14.4118Z" fill="white"/>
<path d="M72.9234 20.4647L72.4622 19.8882C72.4045 19.7729 72.4045 19.7153 72.4622 19.6L76.4398 16.3141C76.5551 16.2565 76.6128 16.2565 76.7281 16.3718L77.1892 16.8906C77.2469 17.0059 77.3045 17.0635 77.2469 17.1788L75.921 20.6953L78.3422 18.6776C78.4575 18.62 78.5151 18.62 78.6304 18.7353L79.0916 19.3118C79.1492 19.4271 79.1492 19.4847 79.0916 19.6L75.1139 22.8859C74.9987 22.9435 74.941 22.9435 74.8257 22.8282L74.4222 22.3094C74.3645 22.1941 74.3069 22.0788 74.3645 21.9635L75.6328 18.5047L73.2116 20.5223C73.0963 20.58 72.981 20.58 72.9234 20.4647Z" fill="white"/>
<path d="M76.9017 25.9988L76.4982 25.1918C76.4406 25.0765 76.4982 25.0188 76.6135 25.0188L81.8594 23.9235C81.9747 23.9235 82.09 23.9812 82.1476 24.0965L82.7241 25.1918C82.7817 25.3071 82.7817 25.4223 82.6664 25.5376L78.7464 29.1694C78.6311 29.2847 78.5735 29.2271 78.5158 29.1694L78.1123 28.3623C78.0547 28.3047 78.0547 28.2471 78.0547 28.2471C78.0547 28.1894 78.1123 28.1894 78.17 28.1318L78.8617 27.4976L78.0547 25.8835L77.0747 26.1141C77.017 26.1141 76.9594 26.1141 76.9017 26.1141C76.9594 26.0565 76.9017 26.0565 76.9017 25.9988ZM81.4559 25.0765L78.977 25.6529L79.6111 26.8635L81.4559 25.0765Z" fill="white"/>
<path d="M80.0716 29.227L80.2445 29.1694C80.3598 29.1117 80.4175 29.1694 80.4751 29.2847L80.7057 30.0341C80.7634 30.1494 80.7057 30.207 80.5904 30.2647H80.5328C80.3022 30.3223 80.1869 30.4376 80.1292 30.5529C80.0716 30.6682 80.0716 30.8412 80.1869 31.0717L80.3022 31.4753C80.3598 31.7059 80.4751 31.8212 80.5904 31.8788C80.7057 31.9365 80.8786 31.9365 81.1092 31.8788L81.2245 31.8212C81.3975 31.7635 81.4551 31.6482 81.5128 31.4753C81.5704 31.3023 81.5704 31.1294 81.5128 30.8988C81.4551 30.6682 81.3975 30.4376 81.3975 30.207C81.3398 29.9765 81.3398 29.7459 81.3398 29.5153C81.3398 29.2847 81.4551 29.0541 81.5704 28.8812C81.7434 28.6506 81.9739 28.5353 82.3198 28.42L82.6081 28.3047C83.0116 28.1894 83.4151 28.1894 83.7034 28.3623C83.9916 28.5353 84.2798 28.8235 84.3951 29.2847L84.6833 30.1494C84.8563 30.6106 84.8563 31.0141 84.6833 31.36C84.5104 31.7059 84.2798 31.9365 83.8186 32.0517L83.6457 32.1094C83.5304 32.167 83.4728 32.1094 83.4151 31.9941L83.1845 31.2447C83.1269 31.1294 83.1845 31.0717 83.2998 31.0141H83.3575C83.5881 30.9565 83.7034 30.8412 83.761 30.7259C83.8186 30.6106 83.8186 30.4376 83.7034 30.207L83.5881 29.8612C83.5304 29.6306 83.4151 29.4576 83.2998 29.4C83.1845 29.3423 83.0116 29.3423 82.781 29.4576L82.6081 29.5153C82.3775 29.5729 82.2622 29.8612 82.4351 30.38C82.5504 30.8988 82.6081 31.36 82.6081 31.7635C82.6081 31.9941 82.4928 32.2247 82.3198 32.3976C82.1469 32.5706 81.9163 32.7435 81.5704 32.8588L81.2822 32.9741C80.8786 33.0894 80.4751 33.0894 80.1869 32.9165C79.8987 32.7435 79.6104 32.4553 79.4951 31.9941L79.1492 31.0717C78.9763 30.6106 78.9763 30.207 79.1492 29.9188C79.3798 29.5729 79.6104 29.3423 80.0716 29.227Z" fill="white"/>
<path d="M85.6639 34.4153L80.6486 35.5106C80.5334 35.5106 80.4757 35.5106 80.4181 35.3377L80.2451 34.5882C80.2451 34.4729 80.2451 34.4153 80.3604 34.3577L85.3757 33.2624C85.491 33.2624 85.5486 33.2624 85.6063 33.4353L85.7792 34.1847C85.8369 34.3 85.7792 34.4153 85.6639 34.4153Z" fill="white"/>
<path d="M80.7637 37.24L80.6484 36.3753C80.6484 36.26 80.7061 36.2023 80.8214 36.26L86.0673 37.1823C86.1826 37.24 86.2402 37.2976 86.2979 37.4129L86.4131 38.6235C86.4131 38.7965 86.3555 38.8541 86.2402 38.9117L81.2826 40.8717C81.1673 40.9294 81.1096 40.8717 81.1096 40.7565L80.9943 39.8917C80.9943 39.8341 80.9943 39.7765 80.9943 39.7765C80.9943 39.7765 81.052 39.7188 81.1096 39.7188L82.032 39.3729L81.859 37.5859L80.879 37.4129C80.8214 37.4129 80.7637 37.4129 80.7061 37.3553C80.8214 37.3553 80.7637 37.2976 80.7637 37.24ZM85.3755 38.1047L82.839 37.7012L82.9543 39.027L85.3755 38.1047Z" fill="white"/>
</g>
<g opacity="0.8">
<path d="M38.2783 77.9965L38.4513 77.1894C38.5089 76.8435 38.7395 76.613 39.0854 76.44L41.103 75.46C41.4489 75.2871 41.6219 75.1141 41.6795 74.8835L41.7371 74.5953C41.7948 74.4224 41.7371 74.2494 41.6795 74.1918C41.6219 74.0765 41.4489 74.0188 41.276 73.9612L40.9301 73.9035C40.7571 73.8459 40.5842 73.8459 40.4689 73.9035C40.3536 73.9612 40.296 74.0765 40.2383 74.2494L40.1807 74.5377C40.123 74.653 40.0654 74.7106 39.9501 74.7106L39.143 74.5377C39.0277 74.48 38.9701 74.4224 38.9701 74.3071L39.0277 74.0188C39.143 73.5577 39.3736 73.2694 39.6619 73.0388C40.0077 72.8659 40.4113 72.8082 40.8724 72.9235L41.5642 73.0965C42.083 73.2118 42.4289 73.4424 42.6018 73.7306C42.8324 74.0188 42.8901 74.4224 42.7748 74.8835L42.7171 75.2294C42.6018 75.6906 42.3136 76.0365 41.9101 76.2094L39.8348 77.1894C39.7195 77.2471 39.7195 77.3047 39.6619 77.3624L39.6042 77.4777L41.8524 77.9965C41.9677 78.0541 42.0254 78.1118 42.0254 78.2271L42.083 78.8612C42.083 78.9765 41.9677 79.0341 41.8524 78.9765L38.5089 78.1694C38.336 78.1694 38.2783 78.1118 38.2783 77.9965Z" fill="white"/>
<path d="M47.0977 79.6106L46.1177 79.553C45.5989 79.553 45.253 79.38 44.9648 79.0918C44.6766 78.8035 44.5613 78.4577 44.6189 77.9965L44.7918 75.1718C44.7918 74.7106 44.9648 74.3647 45.253 74.1341C45.5413 73.9035 45.9448 73.7883 46.4636 73.8459L47.4436 73.9035C47.9624 73.9035 48.3083 74.0765 48.5966 74.3647C48.8848 74.653 49.0001 74.9988 48.9424 75.46L48.7695 78.2847C48.7695 78.7459 48.5966 79.0918 48.3083 79.3224C48.0201 79.4953 47.6165 79.6106 47.0977 79.6106ZM46.406 78.573L46.9824 78.6306C47.213 78.6306 47.3283 78.6306 47.4436 78.5153C47.5589 78.4577 47.5589 78.2847 47.6165 78.1118L47.7895 75.4024C47.7895 75.2294 47.7895 75.0565 47.6742 74.9988C47.6165 74.9412 47.4436 74.8835 47.2707 74.8259L46.6942 74.7682C46.4636 74.7682 46.3483 74.7683 46.233 74.8835C46.1177 74.9412 46.1177 75.1141 46.0601 75.2871L45.8871 77.9965C45.8871 78.1694 45.8871 78.3424 46.0024 78.4C46.0601 78.5153 46.233 78.573 46.406 78.573Z" fill="white"/>
<path d="M51.306 79.38L51.1907 78.5153C51.1331 78.1694 51.2484 77.8812 51.5366 77.593L53.0931 75.9789C53.3237 75.7483 53.4389 75.46 53.4389 75.2294L53.3813 74.9412C53.3813 74.7683 53.3237 74.653 53.2084 74.5377C53.0931 74.48 52.9778 74.4224 52.7472 74.48L52.4013 74.5377C52.1707 74.5377 52.0554 74.5953 51.9978 74.7106C51.9401 74.8259 51.8825 74.9412 51.9401 75.1142L51.9978 75.4024C51.9978 75.5177 51.9401 75.633 51.8248 75.633L51.0178 75.7483C50.9025 75.7483 50.7872 75.6906 50.7872 75.5753L50.7295 75.2871C50.6719 74.8259 50.7872 74.4224 51.0178 74.1918C51.2484 73.9036 51.6519 73.7306 52.1131 73.673L52.8625 73.5577C53.3813 73.5 53.7848 73.5577 54.0731 73.7883C54.3613 74.0189 54.5342 74.3647 54.5919 74.8259L54.6495 75.1718C54.7072 75.633 54.5342 76.0365 54.246 76.3824L52.6319 78.0542C52.5742 78.1118 52.5166 78.2271 52.5166 78.2847V78.4L54.7648 78.1118C54.8801 78.1118 54.9954 78.1695 54.9954 78.2847L55.0531 78.9189C55.0531 79.0342 54.9954 79.0918 54.8801 79.1495L51.4789 79.553C51.3637 79.553 51.306 79.4953 51.306 79.38Z" fill="white"/>
<path d="M56.2061 74.5953L56.0332 73.9035C56.0332 73.7883 56.0332 73.7306 56.0909 73.6153L56.7826 72.8659C56.8979 72.7506 57.0132 72.693 57.1285 72.6353L57.8779 72.4047C57.9932 72.3471 58.1085 72.4047 58.1085 72.52L59.5497 77.7083C59.5497 77.7659 59.5497 77.8235 59.5497 77.8812C59.5497 77.9388 59.492 77.9388 59.4344 77.9388L58.6273 78.1694C58.512 78.2271 58.3967 78.1694 58.3967 78.0541L57.2438 73.8459L56.4944 74.5953C56.3214 74.7683 56.2638 74.7683 56.2061 74.5953Z" fill="white"/>
</g>
<path d="M69.5801 70.1565C70.8483 69.2918 72.0589 68.3694 73.1542 67.3318C74.2495 66.2941 75.2872 65.1988 76.2095 63.9882C77.1319 62.7776 77.9966 61.5094 78.746 60.1835C79.4954 58.8576 80.1295 57.4741 80.6483 56.0329C81.1671 54.5918 81.5707 53.1506 81.8589 51.6518C82.1472 50.2106 82.3201 48.7118 82.3777 47.2706C82.493 47.2129 83.3001 46.7518 83.1848 45.7141C83.1272 44.6188 82.2624 43.9271 81.8589 43.6388C81.8589 43.6388 81.7436 44.6188 81.513 45.08C81.3401 45.3682 80.706 46.2906 82.2624 47.2129C82.2048 48.7118 82.0319 50.1529 81.7436 51.6518C81.4554 53.1506 81.0519 54.5918 80.533 55.9753C80.0142 57.3588 79.3801 58.7424 78.6307 60.0682C77.8813 61.3941 77.0166 62.6047 76.0942 63.8153C75.1719 64.9682 74.0766 66.0635 72.9813 67.1012C71.886 68.0812 70.6754 69.0035 69.4072 69.8106C68.1389 70.6176 66.813 71.3094 65.4295 71.8859C64.1613 72.4624 62.8354 72.8659 61.5095 73.1541C61.3366 73.2118 61.1636 73.3847 61.2213 73.5576L61.2789 73.7306C61.3366 73.9035 61.5672 74.0188 61.7401 73.9612C62.3166 73.7306 62.893 73.5 63.5272 73.2694C64.2189 72.9812 64.9683 72.6929 65.6601 72.4047C66.986 71.7706 68.3119 71.0212 69.5801 70.1565Z" fill="#7473AD"/>
<path d="M65.1992 73.1541C65.1992 73.1541 66.9286 75.6906 69.4651 75.1718C72.0016 74.6529 72.5204 72.9812 72.5204 72.9812C72.5204 72.9812 70.5028 72.52 69.3498 71.8859C68.2545 71.1941 66.0063 71.8859 65.1992 73.1541Z" fill="#7473AD"/>
<path d="M67.3895 68.5424C67.3318 67.5047 67.0436 66.7553 66.7554 66.1212C66.7554 66.1212 65.7754 67.3318 64.9683 68.1388C63.9883 69.1188 64.2765 70.8482 64.853 71.6553C64.9107 71.7129 67.6201 71.1365 67.3895 68.5424Z" fill="#7473AD"/>
<path d="M75.2295 68.0812C73.7306 67.7353 71.713 69.1765 71.54 70.3294C71.54 70.3294 72.9812 71.8282 75.2295 71.367C77.42 70.9059 78.2847 68.2541 78.2847 68.2541C78.2847 68.2541 76.7283 68.4271 75.2295 68.0812Z" fill="#7473AD"/>
<path d="M70.272 68.6576C70.272 68.6576 74.0767 67.1588 71.1367 63.0659C71.1367 63.0659 70.5026 64.3917 69.8108 65.487C69.0614 66.64 70.0414 68.4847 70.272 68.6576Z" fill="#7473AD"/>
<path d="M79.0923 62.9506C77.3052 63.0659 76.3829 64.8529 76.2676 65.7753C76.2676 65.7753 78.1123 66.9859 79.784 65.9482C81.4558 64.9682 82.2052 63.4118 82.1476 62.4318C82.0899 62.4894 80.8793 62.8353 79.0923 62.9506Z" fill="#7473AD"/>
<path d="M74.7685 64.5647C74.7685 64.5647 76.8438 63.0082 75.5179 60.3565C75.2873 59.9529 74.8838 59.4341 74.5379 59.1459C74.5379 59.8376 73.9038 60.587 73.6155 61.9129C73.1544 63.5847 73.8461 64.2765 74.7685 64.5647Z" fill="#7473AD"/>
<path d="M80.0723 58.6847C79.5534 59.2035 79.1499 60.1259 79.3229 60.76C79.3229 60.76 80.9946 61.4518 82.4934 60.4141C83.5887 59.6071 84.0499 58.2812 83.9923 56.7823C82.0323 57.9929 81.5711 57.1282 80.0723 58.6847Z" fill="#7473AD"/>
<path d="M81.4554 55.5141C81.4554 55.5141 84.9142 56.0329 85.2025 52.3435C85.2025 52.0553 85.2025 51.7671 85.2025 51.4788C85.2025 51.4788 84.1648 52.1129 82.7813 52.5165C81.3978 52.92 81.4554 55.5141 81.4554 55.5141Z" fill="#7473AD"/>
<path d="M76.4978 58.4541C76.4978 59.607 77.939 60.2412 77.939 60.2412C77.939 60.2412 78.8614 59.3188 78.5731 57.5317C78.4002 56.6094 77.5931 55.9753 76.8437 55.5717C76.8437 56.1482 76.4402 57.4165 76.4978 58.4541Z" fill="#7473AD"/>
<path d="M78.977 54.5918C79.8993 55.3412 80.2452 55.2835 80.2452 55.2835C80.2452 55.2835 81.3405 53.3235 79.4381 52.0553C79.0346 51.8247 78.6311 51.5941 78.2275 51.4212C78.5734 51.9976 78.2275 53.9576 78.977 54.5918Z" fill="#7473AD"/>
<path d="M82.5509 50.6141C82.5509 50.6141 85.5485 50.7294 85.3756 47.5588C85.3756 47.3282 85.3179 47.04 85.3179 46.8094C85.3179 46.8094 84.5109 47.4435 83.3579 47.9624C82.2626 48.4812 82.5509 50.6141 82.5509 50.6141Z" fill="#7473AD"/>
<path d="M80.2454 50.2106C80.9948 50.8447 81.2831 50.7294 81.2831 50.7294C81.2831 50.7294 82.1478 49.1153 80.6489 48.1353C80.3607 47.9047 80.0148 47.7894 79.6689 47.6165C79.8995 48.1353 79.6689 49.7494 80.2454 50.2106Z" fill="#7473AD"/>
<path d="M27.7859 70.1565C26.5176 69.2918 25.307 68.3694 24.2117 67.3318C23.1165 66.2941 22.0788 65.1988 21.1565 63.9882C20.2341 62.7776 19.3694 61.5094 18.62 60.1835C17.8706 58.8576 17.2365 57.4741 16.7176 56.0329C16.1988 54.5918 15.7953 53.1506 15.507 51.6518C15.2188 50.2106 15.0459 48.7118 14.9882 47.2706C14.8729 47.2129 14.0659 46.7518 14.1812 45.7141C14.2388 44.6188 15.1035 43.9271 15.507 43.6388C15.507 43.6388 15.6223 44.6188 15.8529 45.08C16.0259 45.3682 16.66 46.2906 15.1035 47.2129C15.1612 48.7118 15.3341 50.1529 15.6223 51.6518C15.9106 53.1506 16.3141 54.5918 16.8329 55.9753C17.3517 57.3588 17.9859 58.7424 18.7353 60.0682C19.4847 61.3941 20.3494 62.6047 21.2718 63.8153C22.1941 64.9682 23.2894 66.0635 24.3847 67.1012C25.48 68.0812 26.6906 69.0035 27.9588 69.8106C29.227 70.6176 30.5529 71.3094 31.9365 71.8859C33.2047 72.4624 34.5306 72.8659 35.8565 73.1541C36.0294 73.2118 36.2023 73.3847 36.1447 73.5576L36.087 73.7306C36.0294 73.9035 35.7988 74.0188 35.6259 73.9612C35.0494 73.7306 34.4729 73.5 33.8388 73.2694C33.147 72.9812 32.3976 72.6929 31.7059 72.4047C30.38 71.7706 29.0541 71.0212 27.7859 70.1565Z" fill="#7473AD"/>
<path d="M32.1669 73.1541C32.1669 73.1541 30.4375 75.6906 27.901 75.1718C25.3645 74.6529 24.8457 72.9812 24.8457 72.9812C24.8457 72.9812 26.8634 72.52 28.0163 71.8859C29.1116 71.1941 31.3598 71.8859 32.1669 73.1541Z" fill="#7473AD"/>
<path d="M29.9768 68.5424C30.0345 67.5047 30.3227 66.7553 30.6109 66.1212C30.6109 66.1212 31.5909 67.3318 32.398 68.1388C33.378 69.1188 33.0898 70.8482 32.5133 71.6553C32.4556 71.7129 29.7462 71.1365 29.9768 68.5424Z" fill="#7473AD"/>
<path d="M22.1949 68.0812C23.6938 67.7353 25.7114 69.1765 25.8844 70.3294C25.8844 70.3294 24.4432 71.8282 22.1949 71.367C20.0044 70.9059 19.1396 68.2541 19.1396 68.2541C19.1396 68.2541 20.6961 68.4271 22.1949 68.0812Z" fill="#7473AD"/>
<path d="M27.0948 68.6576C27.0948 68.6576 23.2901 67.1588 26.2301 63.0659C26.2301 63.0659 26.8642 64.3917 27.556 65.487C28.3054 66.64 27.3254 68.4847 27.0948 68.6576Z" fill="#7473AD"/>
<path d="M18.2742 62.9506C20.0613 63.0659 20.9836 64.8529 21.0989 65.7753C21.0989 65.7753 19.2542 66.9859 17.5824 65.9482C15.9107 64.9682 15.1613 63.4118 15.2189 62.4318C15.2766 62.4894 16.4871 62.8353 18.2742 62.9506Z" fill="#7473AD"/>
<path d="M22.6559 64.5647C22.6559 64.5647 20.5806 63.0082 21.9065 60.3565C22.1371 59.9529 22.5406 59.4341 22.8865 59.1459C22.8865 59.8376 23.5206 60.587 23.8089 61.9129C24.27 63.5847 23.5206 64.2765 22.6559 64.5647Z" fill="#7473AD"/>
<path d="M17.2939 58.6847C17.8127 59.2035 18.2163 60.1259 18.0433 60.76C18.0433 60.76 16.3716 61.4518 14.8727 60.4141C13.7775 59.6071 13.3163 58.2812 13.3739 56.7823C15.3339 57.9929 15.7951 57.1282 17.2939 58.6847Z" fill="#7473AD"/>
<path d="M15.9101 55.5141C15.9101 55.5141 12.4513 56.0329 12.1631 52.3435C12.1631 52.0553 12.1631 51.7671 12.1631 51.4788C12.1631 51.4788 13.2007 52.1129 14.5843 52.5165C15.9678 52.92 15.9101 55.5141 15.9101 55.5141Z" fill="#7473AD"/>
<path d="M20.926 58.4541C20.926 59.607 19.4848 60.2412 19.4848 60.2412C19.4848 60.2412 18.5625 59.3188 18.8507 57.5317C19.0237 56.6094 19.8307 55.9753 20.5801 55.5717C20.5801 56.1482 20.926 57.4165 20.926 58.4541Z" fill="#7473AD"/>
<path d="M18.3896 54.5918C17.4672 55.3412 17.1214 55.2835 17.1214 55.2835C17.1214 55.2835 16.0261 53.3235 17.9284 52.0553C18.332 51.8247 18.7355 51.5941 19.139 51.4212C18.7931 51.9976 19.139 53.9576 18.3896 54.5918Z" fill="#7473AD"/>
<path d="M14.8153 50.6141C14.8153 50.6141 11.8177 50.7294 11.9906 47.5588C11.9906 47.3282 12.0483 47.04 12.0483 46.8094C12.0483 46.8094 12.8553 47.4435 14.0083 47.9624C15.1035 48.4812 14.8153 50.6141 14.8153 50.6141Z" fill="#7473AD"/>
<path d="M17.1217 50.2106C16.3723 50.8447 16.0841 50.7294 16.0841 50.7294C16.0841 50.7294 15.2194 49.1153 16.7182 48.1353C17.0065 47.9047 17.3523 47.7894 17.6982 47.6165C17.4676 48.1353 17.6982 49.7494 17.1217 50.2106Z" fill="#7473AD"/>
<g opacity="0.3">
<path opacity="0.3" d="M83.588 76.6706L83.2998 76.3823C92.5233 67.1588 97.5963 54.9376 97.5963 41.967C97.5963 29.0541 92.581 16.8906 83.4727 7.7247L83.761 7.43646C92.9269 16.7176 97.9998 28.9388 97.9998 41.967C97.9998 55.0529 92.8692 67.3894 83.588 76.6706Z" fill="#7473AD"/>
</g>
<g opacity="0.5">
<path opacity="0.5" d="M71.9435 82.4353L71.7705 82.0894C86.1823 73.9035 95.1752 58.5118 95.1752 41.9671C95.1752 25.48 86.2976 10.1459 71.9435 1.90237L72.174 1.55649C86.6434 9.85766 95.6364 25.3647 95.6364 41.9671C95.5787 58.6271 86.5282 74.1918 71.9435 82.4353Z" fill="#7473AD"/>
</g>
<path d="M59.6075 83.9341L59.4922 83.5306C78.5734 78.6882 91.8322 61.6247 91.8322 41.9671C91.8322 22.3671 78.5734 5.24588 59.5498 0.403529L59.6651 0C78.8616 4.9 92.2357 22.1365 92.2357 41.9671C92.2934 61.7976 78.8616 79.0341 59.6075 83.9341Z" fill="#7473AD"/>
<g opacity="0.3">
<path opacity="0.3" d="M14.4118 76.6706C5.13059 67.3894 0 55.0529 0 41.967C0 28.9388 5.07294 16.7176 14.2388 7.43646L14.5271 7.7247C5.41882 16.8906 0.403529 29.0541 0.403529 41.967C0.403529 54.9376 5.47647 67.1588 14.7 76.3823L14.4118 76.6706Z" fill="#7473AD"/>
</g>
<g opacity="0.5">
<path opacity="0.5" d="M26.0562 82.4353C11.4715 74.1341 2.4209 58.6271 2.4209 41.9671C2.4209 25.3647 11.4138 9.85766 25.8833 1.55649L26.1138 1.90237C11.7597 10.1459 2.88208 25.48 2.88208 41.9671C2.88208 58.5118 11.875 73.9035 26.2868 82.0894L26.0562 82.4353Z" fill="#7473AD"/>
</g>
<path d="M38.3929 83.9341C19.1388 79.0341 5.70703 61.7976 5.70703 41.9671C5.70703 22.1365 19.0811 4.9 38.2776 0L38.3929 0.403529C19.3694 5.24588 6.11056 22.3671 6.11056 41.9671C6.11056 61.6247 19.427 78.7459 38.4506 83.5306L38.3929 83.9341Z" fill="#7473AD"/>
<path d="M48.9995 69.5224C33.896 69.5224 21.6172 57.2435 21.6172 42.14C21.6172 27.0365 33.896 14.8153 48.9995 14.8153C64.1031 14.8153 76.3819 27.0941 76.3819 42.1977C76.3819 57.3012 64.0454 69.5224 48.9995 69.5224ZM48.9995 15.2765C34.1842 15.2765 22.0784 27.3247 22.0784 42.1977C22.0784 57.0706 34.1266 69.1188 48.9995 69.1188C63.8148 69.1188 75.9207 57.0706 75.9207 42.1977C75.9207 27.3247 63.8148 15.2765 48.9995 15.2765Z" fill="#7473AD"/>
<path d="M41.0449 57.3588H56.4943L52.8049 53.6694H49.5767L50.499 40.9871L49.1155 39.6035L47.2708 40.9871L47.9626 53.6694H44.7343L41.0449 57.3588Z" fill="url(#paint0_linear)"/>
<path fill-rule="evenodd" clip-rule="evenodd" d="M46.3477 36.9518L38.8536 29.2847H40.5254L47.8465 36.8365L43.1771 41.5635L46.3477 36.9518ZM59.3183 44.5612L51.7089 36.7788L54.6489 31.9365L49.8642 36.8365L57.3583 44.6765L59.3183 44.5612ZM55.3407 44.5612L48.8842 37.8741L38.6807 48.4812L49.1148 39.8341L53.7842 44.6765L55.3407 44.5612ZM42.4854 29.2847L48.8265 35.8565L59.2607 25.0188L48.7113 33.8388L44.3877 29.2847H42.4854Z" fill="url(#paint1_linear)"/>
<defs>
<linearGradient id="paint0_linear" x1="48.7956" y1="55.0628" x2="49.1368" y2="39.6144" gradientUnits="userSpaceOnUse">
<stop stop-color="#3D82F7"/>
<stop offset="0.5775" stop-color="#0D67F9"/>
<stop offset="1" stop-color="#0D49CC"/>
</linearGradient>
<linearGradient id="paint1_linear" x1="42.5862" y1="30.1689" x2="56.8641" y2="44.9455" gradientUnits="userSpaceOnUse">
<stop stop-color="#32D7F5"/>
<stop offset="0.5695" stop-color="#1D93F4"/>
<stop offset="1" stop-color="#0D67F9"/>
</linearGradient>
</defs>
</svg>
