<?xml version="1.0" encoding="utf-8"?>
<!-- Generator: Adobe Illustrator 25.4.1, SVG Export Plug-In . SVG Version: 6.00 Build 0)  -->
<svg version="1.1" id="Layer_1" xmlns="http://www.w3.org/2000/svg" xmlns:xlink="http://www.w3.org/1999/xlink" x="0px" y="0px"
	 viewBox="0 0 98 84" style="enable-background:new 0 0 98 84;" xml:space="preserve">
<style type="text/css">
	.st0{fill:#FFFFFF;}
	.st1{fill:#7473AD;}
	.st2{opacity:0.3;}
	.st3{opacity:0.5;}
	.st4{fill:url(#SVGID_1_);}
	.st5{fill-rule:evenodd;clip-rule:evenodd;fill:url(#SVGID_00000032613653226595932770000011854859215297648044_);}
</style>
<g>
	<g>
		<g>
			<path class="st0" d="M12.2,38l0.1-1c0-0.1,0.1-0.1,0.2-0.1l4,0.3c0.1,0,0.1,0.1,0.1,0.2l0,0.6c0,0.1-0.1,0.1-0.2,0.1l-3.1-0.3
				l0,0l2.2,0.9c0.1,0,0.1,0.1,0.1,0.2l0,0.6c0,0.1-0.1,0.1-0.1,0.2L13,40.2l0,0l3.1,0.3c0.1,0,0.1,0,0.1,0c0,0,0,0.1,0,0.1l0,0.6
				c0,0.1-0.1,0.1-0.2,0.1l-4-0.3C12,41,12,40.9,12,40.8l0.1-1.1c0-0.1,0-0.1,0.1-0.1l2.4-0.6l0,0l-2.3-0.9
				C12.2,38.1,12.2,38.1,12.2,38z"/>
			<path class="st0" d="M17.1,34.5l-0.2,0.8c-0.1,0.4-0.2,0.6-0.5,0.8c-0.2,0.2-0.5,0.2-0.8,0.1l-2.1-0.5c-0.3-0.1-0.6-0.2-0.7-0.5
				s-0.2-0.5-0.1-0.9l0.2-0.8c0.1-0.4,0.2-0.6,0.5-0.8c0.2-0.2,0.5-0.2,0.8-0.1l2.1,0.5c0.3,0.1,0.6,0.2,0.7,0.5
				C17.2,33.8,17.2,34.1,17.1,34.5z M16.3,35l0.1-0.5c0-0.1,0-0.3,0-0.3c0-0.1-0.1-0.1-0.3-0.2l-2-0.4c-0.1,0-0.2,0-0.3,0
				c-0.1,0-0.1,0.1-0.2,0.3l-0.1,0.5c0,0.1,0,0.3,0,0.3c0,0.1,0.1,0.1,0.3,0.2l2,0.4c0.1,0,0.2,0,0.3,0C16.2,35.2,16.2,35.1,16.3,35
				z"/>
			<path class="st0" d="M16.5,32.4l-0.1,0c-0.1,0-0.1-0.1-0.1-0.2l0.2-0.6c0-0.1,0.1-0.1,0.2-0.1l0,0c0.2,0.1,0.3,0.1,0.4,0
				s0.2-0.2,0.2-0.3l0.1-0.3c0.1-0.2,0.1-0.3,0-0.4c0-0.1-0.1-0.2-0.3-0.2l-0.1,0c-0.1,0-0.2,0-0.3,0.1c-0.1,0.1-0.2,0.2-0.3,0.4
				c-0.1,0.2-0.1,0.3-0.2,0.5c-0.1,0.2-0.2,0.3-0.3,0.5c-0.1,0.1-0.3,0.2-0.5,0.3c-0.2,0-0.4,0-0.7-0.1l-0.2-0.1
				c-0.3-0.1-0.5-0.3-0.7-0.6c-0.1-0.3-0.1-0.6,0-0.9l0.2-0.7c0.1-0.4,0.3-0.6,0.6-0.7s0.5-0.1,0.9,0l0.1,0c0.1,0,0.1,0.1,0.1,0.2
				l-0.2,0.6c0,0.1-0.1,0.1-0.2,0.1l0,0c-0.2-0.1-0.3-0.1-0.4,0s-0.2,0.2-0.2,0.3l-0.1,0.3c-0.1,0.2-0.1,0.3,0,0.4
				c0,0.1,0.2,0.2,0.3,0.2l0.1,0c0.2,0.1,0.4-0.1,0.5-0.4c0.2-0.4,0.3-0.7,0.6-0.9c0.1-0.1,0.3-0.2,0.5-0.3c0.2,0,0.4,0,0.7,0.1
				l0.2,0.1c0.3,0.1,0.5,0.3,0.7,0.6c0.1,0.3,0.1,0.6,0,0.9l-0.3,0.7c-0.1,0.3-0.3,0.6-0.6,0.7C17.1,32.5,16.8,32.5,16.5,32.4z"/>
			<path class="st0" d="M19.4,27.9l-0.3,0.5c0,0.1-0.1,0.1-0.2,0.1l-3-1.4c0,0-0.1,0-0.1,0l-0.3,0.7c0,0.1-0.1,0.1-0.2,0.1L15,27.7
				c-0.1,0-0.1-0.1-0.1-0.2l1.1-2.4c0-0.1,0.1-0.1,0.2-0.1l0.4,0.2c0.1,0,0.1,0.1,0.1,0.2l-0.3,0.7c0,0.1,0,0.1,0,0.1l3,1.4
				C19.5,27.7,19.5,27.8,19.4,27.9z"/>
			<path class="st0" d="M18,22l3.4,2.1c0.1,0,0.1,0.1,0,0.2l-0.3,0.5c-0.1,0.1-0.1,0.1-0.2,0.1l-3.4-2.1c-0.1,0-0.1-0.1,0-0.2
				l0.3-0.5C17.9,21.9,18,21.9,18,22z"/>
			<path class="st0" d="M22.4,22.8l-0.4,0.5c-0.1,0.1-0.1,0.1-0.2,0l-3.2-2.4c-0.1-0.1-0.1-0.1,0-0.2l0.3-0.4
				c0.1-0.1,0.1-0.1,0.2-0.1l2.9,0.4l0,0l-2-1.5c-0.1-0.1-0.1-0.1,0-0.2l0.4-0.5c0.1-0.1,0.1-0.1,0.2,0l3.2,2.4
				c0.1,0.1,0.1,0.1,0,0.2l-0.3,0.4c-0.1,0.1-0.1,0.1-0.2,0.1l-2.8-0.4l0,0l2,1.5C22.5,22.7,22.5,22.7,22.4,22.8z"/>
			<path class="st0" d="M25,19.7l-0.4,0.4c-0.1,0.1-0.1,0.1-0.2,0l-2.8-2.8c-0.1-0.1-0.1-0.1,0-0.2l0.4-0.4c0.1-0.1,0.1-0.1,0.2-0.1
				l2.8,0.7l0,0l-1.8-1.7c-0.1-0.1-0.1-0.1,0-0.2l0.4-0.4c0.1-0.1,0.1-0.1,0.2,0l2.8,2.8c0.1,0.1,0.1,0.1,0,0.2l-0.4,0.4
				c-0.1,0.1-0.2,0.1-0.3,0.1l-2.8-0.7l0,0l1.8,1.7C25.1,19.6,25.1,19.6,25,19.7z"/>
			<path class="st0" d="M28.8,16.2l-0.6,0.5c-0.3,0.2-0.6,0.3-0.8,0.3c-0.3,0-0.5-0.2-0.7-0.4l-1.3-1.6c-0.2-0.3-0.3-0.5-0.3-0.8
				c0-0.3,0.2-0.5,0.5-0.8l0.6-0.5c0.3-0.2,0.6-0.3,0.8-0.3s0.5,0.2,0.7,0.4l1.3,1.6c0.2,0.3,0.3,0.5,0.3,0.8
				C29.3,15.7,29.1,15.9,28.8,16.2z M27.8,16l0.4-0.3c0.1-0.1,0.2-0.2,0.2-0.3c0-0.1,0-0.2-0.1-0.3l-1.3-1.6
				c-0.1-0.1-0.2-0.2-0.3-0.2c-0.1,0-0.2,0-0.3,0.1l-0.4,0.3c-0.1,0.1-0.2,0.2-0.2,0.3c0,0.1,0,0.2,0.1,0.3l1.3,1.6
				c0.1,0.1,0.2,0.2,0.3,0.2C27.6,16.2,27.7,16.1,27.8,16z"/>
			<path class="st0" d="M31.9,14l-0.8,0.5c-0.1,0.1-0.2,0-0.2,0l-3.1-2.8c-0.1-0.1-0.1-0.1,0-0.2l0.6-0.4c0.1-0.1,0.2,0,0.2,0
				l2.4,2.4l0,0L30,10.4c0-0.1,0-0.2,0.1-0.2l0.6-0.4c0.1-0.1,0.2,0,0.2,0.1l1.2,3.9C32,13.9,32,14,31.9,14z"/>
			<path class="st0" d="M33.8,12.9l-0.6,0.3c-0.1,0-0.1,0-0.1-0.1l-0.7-4.1c0-0.1,0-0.2,0.1-0.2l0.8-0.4c0.1-0.1,0.2,0,0.3,0
				l2.7,3.1c0.1,0.1,0.1,0.1,0,0.2L35.7,12c0,0-0.1,0-0.1,0c0,0-0.1,0-0.1-0.1L35,11.4L33.8,12l0.1,0.7
				C33.9,12.8,33.9,12.8,33.8,12.9C33.9,12.9,33.9,12.9,33.8,12.9z M33.2,9.4l0.4,1.9l0.9-0.5L33.2,9.4L33.2,9.4z"/>
			<path class="st0" d="M38.2,11l-0.6,0.2c-0.1,0-0.2,0-0.2-0.1L36.4,8c0,0,0-0.1-0.1,0l-0.8,0.3c-0.1,0-0.2,0-0.2-0.1l-0.2-0.4
				c0-0.1,0-0.1,0.1-0.2l2.5-0.9c0.1,0,0.2,0,0.2,0.1l0.2,0.4c0,0.1,0,0.1-0.1,0.2l-0.8,0.3c-0.1,0-0.1,0.1-0.1,0.1l1.1,3.1
				C38.4,10.9,38.3,11,38.2,11z"/>
			<path class="st0" d="M39.7,6.3l1.1,3.8c0,0.1,0,0.1-0.1,0.2L40,10.5c-0.1,0-0.2,0-0.2-0.1l-1.1-3.8c0-0.1,0-0.1,0.1-0.2l0.6-0.2
				C39.6,6.2,39.6,6.2,39.7,6.3z"/>
			<path class="st0" d="M43.5,9.7l-0.9,0.2c-0.1,0-0.2,0-0.2-0.1L40.6,6c-0.1-0.1,0-0.2,0.1-0.2l0.7-0.1c0.1,0,0.2,0,0.2,0.1
				l1.3,3.1l0,0L43,5.6c0-0.1,0-0.2,0.1-0.2l0.7-0.1c0.1,0,0.2,0,0.2,0.1l-0.4,4.1C43.6,9.6,43.6,9.7,43.5,9.7z"/>
			<path class="st0" d="M47.7,9.2l-2.3,0.2c-0.1,0-0.2,0-0.2-0.1l-0.3-4c0-0.1,0-0.1,0.1-0.2L47.3,5c0.1,0,0.1,0,0.2,0.1l0,0.5
				c0,0.1,0,0.1-0.1,0.1l-1.5,0.1c-0.1,0-0.1,0-0.1,0.1l0.1,0.9c0,0,0,0.1,0.1,0.1l1.2-0.1c0.1,0,0.2,0,0.2,0.1l0,0.4
				c0,0.1,0,0.1-0.1,0.2l-1.2,0.1c-0.1,0-0.1,0-0.1,0.1L46,8.5c0,0,0,0.1,0.1,0.1l1.5-0.1c0.1,0,0.1,0,0.2,0.1l0,0.5
				C47.8,9.2,47.8,9.2,47.7,9.2z"/>
			<path class="st0" d="M52.6,9.4l-2.3-0.2c-0.1,0-0.1-0.1-0.1-0.1l0.3-4C50.4,5,50.5,5,50.6,5l2.3,0.2C53,5.1,53,5.2,53,5.3l0,0.5
				c0,0.1-0.1,0.1-0.2,0.1l-1.5-0.1c-0.1,0-0.1,0-0.1,0.1l-0.1,0.9c0,0,0,0.1,0.1,0.1l1.2,0.1c0.1,0,0.1,0.1,0.1,0.2l0,0.4
				c0,0.1-0.1,0.1-0.2,0.1l-1.2-0.1c-0.1,0-0.1,0-0.1,0.1l-0.1,0.9c0,0,0,0.1,0.1,0.1l1.5,0.1c0.1,0,0.1,0.1,0.1,0.1l0,0.4
				C52.7,9.4,52.7,9.4,52.6,9.4z"/>
			<path class="st0" d="M55.3,9.8l-0.8-0.1c-0.4-0.1-0.6-0.2-0.8-0.4c-0.2-0.2-0.2-0.5-0.2-0.8l0.4-2.1C54,6,54.1,5.8,54.4,5.6
				s0.5-0.2,0.9-0.1L56,5.6c0.4,0.1,0.6,0.2,0.8,0.4s0.2,0.5,0.2,0.8l-0.1,0.3c0,0.1-0.1,0.1-0.2,0.1l-0.6-0.1
				c-0.1,0-0.1-0.1-0.1-0.2l0-0.3c0-0.1,0-0.2,0-0.3s-0.2-0.1-0.3-0.1l-0.5-0.1c-0.1,0-0.3,0-0.3,0c-0.1,0-0.1,0.1-0.1,0.3l-0.4,2
				c0,0.1,0,0.2,0,0.3C54.5,8.9,54.6,9,54.8,9l0.5,0.1c0.1,0,0.3,0,0.3,0c0.1,0,0.1-0.1,0.1-0.3l0-0.3c0-0.1,0.1-0.1,0.2-0.1
				l0.6,0.1c0.1,0,0.1,0.1,0.1,0.2L56.6,9c-0.1,0.3-0.2,0.6-0.4,0.7C55.9,9.8,55.6,9.9,55.3,9.8z"/>
			<path class="st0" d="M57.8,10.4l-0.6-0.2c-0.1,0-0.1-0.1-0.1-0.2l1.2-3.8c0-0.1,0.1-0.1,0.2-0.1L59,6.3c0.1,0,0.1,0.1,0.2,0.1
				l0.6,2.8l0,0l0.7-2.4c0-0.1,0.1-0.1,0.2-0.1L61.3,7c0.1,0,0.1,0.1,0.1,0.2L60.2,11c0,0.1-0.1,0.1-0.2,0.1l-0.5-0.2
				c-0.1,0-0.2-0.1-0.2-0.2L58.7,8l0,0L58,10.3C57.9,10.4,57.9,10.4,57.8,10.4z"/>
			<path class="st0" d="M62.4,11.9l1.8-3.6c0-0.1,0.1-0.1,0.2-0.1L66,9.1c0.3,0.2,0.5,0.4,0.6,0.6s0.1,0.5-0.1,0.8l-0.1,0.2
				c-0.2,0.3-0.4,0.5-0.8,0.4c0.2,0.1,0.3,0.2,0.3,0.4c0,0.2,0,0.3-0.1,0.5l-0.2,0.4C65.5,12.8,65.3,13,65,13
				c-0.3,0.1-0.6,0-0.9-0.1l-1.6-0.8C62.4,12.1,62.4,12,62.4,11.9z M63.6,11.9l0.7,0.4c0.1,0.1,0.3,0.1,0.3,0.1s0.2-0.1,0.2-0.2
				l0.2-0.3c0.1-0.1,0.1-0.2,0-0.3c0-0.1-0.1-0.2-0.3-0.2l-0.7-0.4c0,0-0.1,0-0.1,0l-0.5,0.9C63.5,11.8,63.5,11.8,63.6,11.9z
				 M64.4,10.2l0.6,0.3c0.1,0.1,0.2,0.1,0.3,0.1c0.1,0,0.2-0.1,0.2-0.2l0.1-0.2c0.1-0.1,0.1-0.2,0-0.3s-0.1-0.2-0.3-0.2l-0.7-0.3
				c0,0-0.1,0-0.1,0l-0.4,0.8C64.3,10.2,64.4,10.2,64.4,10.2z"/>
			<path class="st0" d="M66.4,14.2l-0.5-0.3c-0.1-0.1-0.1-0.1,0-0.2l2.2-3.3c0.1-0.1,0.1-0.1,0.2,0l1.4,0.9c0.3,0.2,0.5,0.4,0.6,0.7
				c0.1,0.3,0,0.6-0.2,0.8l-0.3,0.4c-0.3,0.4-0.6,0.6-1.1,0.5l0,0l-0.2,1.7c0,0.1-0.1,0.1-0.2,0.1l-0.5-0.3c-0.1,0-0.1-0.1-0.1-0.1
				c0,0,0-0.1,0-0.1l0.2-1.6L67.5,13c0,0-0.1,0-0.1,0l-0.8,1.1C66.6,14.3,66.5,14.3,66.4,14.2z M67.8,12.5l0.6,0.4
				c0.1,0.1,0.2,0.1,0.3,0.1s0.2-0.1,0.2-0.2l0.3-0.4c0.1-0.1,0.1-0.2,0.1-0.3c0-0.1-0.1-0.2-0.2-0.3l-0.6-0.4c0,0-0.1,0-0.1,0
				l-0.6,1C67.8,12.4,67.8,12.4,67.8,12.5z"/>
			<path class="st0" d="M70.3,17.2l-0.6-0.5c-0.3-0.2-0.4-0.5-0.5-0.8c0-0.3,0.1-0.5,0.3-0.8l1.4-1.6c0.2-0.3,0.5-0.4,0.8-0.4
				c0.3,0,0.6,0.1,0.8,0.3l0.6,0.5c0.3,0.2,0.4,0.5,0.5,0.8c0,0.3-0.1,0.5-0.3,0.8l-1.4,1.6c-0.2,0.3-0.5,0.4-0.8,0.4
				C70.9,17.5,70.6,17.4,70.3,17.2z M70.3,16.2l0.4,0.3c0.1,0.1,0.2,0.1,0.3,0.1c0.1,0,0.2-0.1,0.3-0.2l1.3-1.5
				c0.1-0.1,0.1-0.2,0.1-0.3c0-0.1-0.1-0.2-0.2-0.3L72.1,14c-0.1-0.1-0.2-0.1-0.3-0.1c-0.1,0-0.2,0.1-0.3,0.2l-1.3,1.5
				c-0.1,0.1-0.1,0.2-0.1,0.3C70.1,16,70.2,16.1,70.3,16.2z"/>
			<path class="st0" d="M72.3,19l-0.4-0.4c-0.1-0.1-0.1-0.1,0-0.2l2.9-2.7c0.1-0.1,0.1-0.1,0.2,0l0.4,0.4c0.1,0.1,0.1,0.1,0,0.2
				L74,17.5l0,0c0.1,0,0.3-0.1,0.5-0.1l1.8-0.2c0.1,0,0.2,0,0.3,0.1l0.5,0.5c0,0,0,0.1,0,0.1c0,0,0,0-0.1,0l-2.2,0.2l-0.6,2.6
				c0,0.1,0,0.1-0.1,0.1c0,0-0.1,0-0.1-0.1l-0.4-0.4c-0.1-0.1-0.2-0.2-0.1-0.3l0.4-1.9l-0.7,0L72.5,19C72.4,19,72.4,19,72.3,19z"/>
			<path class="st0" d="M75.9,23.2l-1.4-1.9c-0.1-0.1-0.1-0.1,0-0.2l3.2-2.4c0.1-0.1,0.1,0,0.2,0l1.4,1.9c0.1,0.1,0,0.1,0,0.2
				l-0.4,0.3c-0.1,0.1-0.1,0-0.2,0l-0.9-1.2c0,0-0.1-0.1-0.1,0L77,20.4c0,0,0,0.1,0,0.1l0.7,1c0.1,0.1,0.1,0.1,0,0.2L77.3,22
				c-0.1,0.1-0.1,0-0.2,0l-0.7-1c0,0-0.1-0.1-0.1,0l-0.7,0.6c0,0,0,0.1,0,0.1l0.9,1.2c0.1,0.1,0,0.1,0,0.2l-0.4,0.3
				C76,23.3,75.9,23.3,75.9,23.2z"/>
			<path class="st0" d="M76.7,24.6l-0.3-0.5c-0.1-0.1,0-0.2,0-0.2l3.4-2c0.1,0,0.1,0,0.2,0.1l0.9,1.4c0.2,0.3,0.3,0.6,0.2,0.9
				c-0.1,0.3-0.2,0.5-0.5,0.7l-0.4,0.3c-0.4,0.3-0.8,0.2-1.2,0l0,0l-0.9,1.4c-0.1,0.1-0.1,0.1-0.2,0l-0.3-0.5c0-0.1-0.1-0.1-0.1-0.2
				c0,0,0-0.1,0-0.1l0.9-1.3L78.2,24c0,0-0.1-0.1-0.1,0l-1.2,0.7C76.9,24.7,76.8,24.7,76.7,24.6z M78.8,23.6l0.4,0.6
				c0.1,0.1,0.2,0.2,0.2,0.2c0.1,0,0.2,0,0.3-0.1l0.4-0.3c0.1-0.1,0.2-0.2,0.2-0.2s0-0.2-0.1-0.3L79.9,23c0,0-0.1-0.1-0.1,0l-1,0.6
				C78.8,23.6,78.8,23.6,78.8,23.6z"/>
			<path class="st0" d="M79.1,29.1l-0.2-0.6c0-0.1,0-0.1,0.1-0.1l4.1-0.4c0.1,0,0.2,0,0.2,0.1l0.3,0.9c0,0.1,0,0.2-0.1,0.2l-3.3,2.5
				c-0.1,0.1-0.1,0.1-0.2,0L79.9,31c0,0,0-0.1,0-0.1c0,0,0-0.1,0.1-0.1l0.6-0.5L80,29.1l-0.8,0.1C79.2,29.2,79.2,29.2,79.1,29.1
				C79.1,29.2,79.1,29.1,79.1,29.1z M82.7,28.8l-2,0.2l0.4,1L82.7,28.8L82.7,28.8z"/>
			<path class="st0" d="M81.3,31.9l0.1,0c0.1,0,0.1,0,0.2,0.1l0.2,0.6c0,0.1,0,0.2-0.1,0.2l-0.1,0c-0.2,0-0.3,0.1-0.3,0.2
				c0,0.1,0,0.2,0,0.4l0.1,0.3c0,0.2,0.1,0.3,0.2,0.3c0.1,0.1,0.2,0.1,0.4,0l0.1,0c0.1,0,0.2-0.1,0.2-0.2c0-0.1,0-0.3,0-0.4
				c0-0.2,0-0.3-0.1-0.5c0-0.2,0-0.4,0-0.6c0-0.2,0.1-0.3,0.2-0.5c0.1-0.2,0.3-0.3,0.6-0.3l0.2-0.1c0.3-0.1,0.6-0.1,0.9,0.1
				s0.4,0.4,0.5,0.8l0.2,0.7c0.1,0.4,0.1,0.7-0.1,0.9c-0.1,0.2-0.4,0.4-0.7,0.5l-0.1,0c-0.1,0-0.1,0-0.2-0.1l-0.2-0.6
				c0-0.1,0-0.2,0.1-0.2l0,0c0.2,0,0.3-0.1,0.3-0.2s0-0.2,0-0.4L84,32.6c0-0.2-0.1-0.3-0.2-0.4c-0.1,0-0.2,0-0.4,0l-0.1,0
				c-0.2,0.1-0.3,0.3-0.2,0.7c0.1,0.4,0.1,0.8,0.1,1.1c0,0.2-0.1,0.3-0.2,0.5s-0.3,0.3-0.6,0.3l-0.2,0.1c-0.3,0.1-0.6,0.1-0.9-0.1
				s-0.4-0.4-0.5-0.8l-0.2-0.7c-0.1-0.4-0.1-0.7,0.1-0.9C80.7,32.1,81,32,81.3,31.9z"/>
			<path class="st0" d="M85.4,36.1l-3.9,0.7c-0.1,0-0.1,0-0.2-0.1l-0.1-0.6c0-0.1,0-0.2,0.1-0.2l3.9-0.7c0.1,0,0.1,0,0.2,0.1
				l0.1,0.6C85.5,36.1,85.5,36.1,85.4,36.1z"/>
			<path class="st0" d="M81.5,38.2l-0.1-0.7c0-0.1,0-0.1,0.1-0.1l4.1,0.8c0.1,0,0.1,0.1,0.2,0.2l0.1,0.9c0,0.1,0,0.2-0.1,0.2
				L81.9,41c-0.1,0-0.1,0-0.1-0.1l-0.1-0.7c0-0.1,0-0.1,0-0.1c0,0,0.1,0,0.1-0.1l0.7-0.3l-0.1-1.4l-0.7-0.1c-0.1,0-0.1,0-0.1,0
				S81.5,38.3,81.5,38.2z M85,39l-2-0.4l0.1,1L85,39L85,39z"/>
		</g>
	</g>
	<g>
		<g>
			<path class="st0" d="M38.3,78l0.2-0.8c0.1-0.3,0.3-0.6,0.7-0.7l2-1c0.3-0.1,0.5-0.3,0.6-0.6l0.1-0.3c0-0.2,0-0.3,0-0.4
				c-0.1-0.1-0.2-0.2-0.4-0.2L41,73.9c-0.2,0-0.3,0-0.4,0s-0.2,0.2-0.2,0.4l-0.1,0.3c0,0.1-0.1,0.2-0.2,0.1l-0.8-0.2
				c-0.1,0-0.2-0.1-0.2-0.2l0.1-0.3c0.1-0.5,0.3-0.8,0.7-1c0.3-0.2,0.7-0.2,1.2-0.1l0.7,0.2c0.5,0.1,0.8,0.3,1.1,0.6
				c0.2,0.3,0.3,0.7,0.2,1.1l-0.1,0.3c-0.1,0.5-0.4,0.8-0.8,1l-2.1,1c-0.1,0-0.1,0.1-0.2,0.2l0,0.1l2.2,0.5c0.1,0,0.2,0.1,0.2,0.2
				L42,78.9c0,0.1-0.1,0.2-0.2,0.1l-3.4-0.8C38.3,78.2,38.3,78.1,38.3,78z"/>
			<path class="st0" d="M47.1,79.6l-1-0.1c-0.5,0-0.9-0.2-1.1-0.4s-0.4-0.6-0.4-1.1l0.2-2.8c0-0.5,0.2-0.8,0.5-1.1
				c0.3-0.2,0.7-0.3,1.2-0.3l1,0.1c0.5,0,0.9,0.2,1.1,0.4s0.4,0.6,0.4,1.1l-0.2,2.8c0,0.5-0.2,0.8-0.5,1.1
				C48,79.5,47.6,79.6,47.1,79.6z M46.4,78.6l0.6,0c0.2,0,0.4,0,0.4-0.1c0.1-0.1,0.1-0.2,0.1-0.4l0.1-2.7c0-0.2,0-0.3-0.1-0.4
				c-0.1-0.1-0.2-0.1-0.4-0.1l-0.6,0c-0.2,0-0.4,0-0.4,0.1c-0.1,0.1-0.1,0.2-0.1,0.4L45.9,78c0,0.2,0,0.3,0.1,0.4
				C46.1,78.5,46.2,78.6,46.4,78.6z"/>
			<path class="st0" d="M51.3,79.4l-0.1-0.8c0-0.3,0.1-0.6,0.4-0.9l1.6-1.6c0.3-0.3,0.4-0.5,0.3-0.8l0-0.3c0-0.2-0.1-0.3-0.2-0.4
				s-0.3-0.1-0.5-0.1l-0.3,0c-0.2,0-0.3,0.1-0.4,0.2C52,74.9,52,75,52,75.2l0,0.3c0,0.1,0,0.2-0.2,0.2L51,75.8c-0.1,0-0.2,0-0.2-0.2
				l0-0.3c-0.1-0.5,0-0.8,0.3-1.1c0.2-0.3,0.6-0.5,1.1-0.5l0.7-0.1c0.5-0.1,0.9,0,1.2,0.2c0.3,0.2,0.5,0.6,0.5,1l0,0.4
				c0.1,0.5-0.1,0.9-0.4,1.2l-1.6,1.6c-0.1,0.1-0.1,0.2-0.1,0.2l0,0.1l2.3-0.3c0.1,0,0.2,0,0.2,0.2l0.1,0.6c0,0.1,0,0.2-0.2,0.2
				l-3.4,0.4C51.4,79.6,51.3,79.5,51.3,79.4z"/>
			<path class="st0" d="M56.2,74.7L56,73.9c0-0.1,0-0.2,0.1-0.3l0.7-0.7c0.1-0.1,0.2-0.2,0.3-0.2l0.7-0.2c0.1,0,0.2,0,0.2,0.1
				l1.4,5.2c0,0.1,0,0.1,0,0.2c0,0-0.1,0.1-0.1,0.1l-0.8,0.2c-0.1,0-0.2,0-0.2-0.1L57.2,74l-0.8,0.7C56.3,74.8,56.3,74.8,56.2,74.7z
				"/>
		</g>
	</g>
	<path class="st1" d="M69.6,70.2c1.3-0.8,2.5-1.8,3.6-2.8c1.1-1,2.2-2.1,3.1-3.4c0.9-1.2,1.8-2.5,2.5-3.8c0.7-1.3,1.4-2.7,1.9-4.1
		c0.5-1.4,0.9-2.9,1.2-4.4c0.3-1.5,0.4-2.9,0.5-4.4c0.1-0.1,0.9-0.5,0.8-1.5c-0.1-1.1-0.9-1.8-1.3-2.1c0,0-0.1,1-0.4,1.4
		c-0.2,0.3-0.8,1.2,0.7,2.1c-0.1,1.5-0.2,3-0.5,4.4c-0.3,1.5-0.7,2.9-1.2,4.3c-0.5,1.4-1.2,2.8-1.9,4.1c-0.7,1.3-1.6,2.5-2.5,3.7
		c-0.9,1.2-2,2.3-3.1,3.3c-1.1,1-2.3,1.9-3.6,2.7c-1.3,0.8-2.6,1.5-4,2.1c-1.3,0.6-2.6,1-3.9,1.3c-0.2,0-0.3,0.2-0.3,0.4l0,0.2
		c0.1,0.2,0.3,0.3,0.5,0.2c0.6-0.3,1.2-0.5,1.8-0.7c0.7-0.3,1.4-0.6,2.1-0.9C67,71.8,68.3,71.1,69.6,70.2z"/>
	<path class="st1" d="M65.2,73.2c0,0,1.7,2.5,4.3,2c2.6-0.5,3.1-2.2,3.1-2.2s-2-0.5-3.2-1.1C68.2,71.2,66,71.9,65.2,73.2z"/>
	<path class="st1" d="M67.4,68.6c-0.1-1-0.3-1.8-0.6-2.4c0,0-1,1.2-1.8,2c-1,1-0.7,2.7-0.1,3.5C64.9,71.7,67.6,71.2,67.4,68.6z"/>
	<path class="st1" d="M75.2,68.1c-1.5-0.4-3.5,1.1-3.7,2.3c0,0,1.5,1.5,3.7,1c2.2-0.4,3.1-3.1,3.1-3.1S76.7,68.5,75.2,68.1z"/>
	<path class="st1" d="M70.3,68.7c0,0,3.8-1.5,0.8-5.6c0,0-0.6,1.3-1.3,2.4C69.1,66.7,70,68.5,70.3,68.7z"/>
	<path class="st1" d="M79.1,63c-1.8,0.1-2.7,1.9-2.8,2.8c0,0,1.9,1.2,3.5,0.2c1.6-1,2.4-2.6,2.3-3.5C82.1,62.5,80.9,62.8,79.1,63z"
		/>
	<path class="st1" d="M74.7,64.6c0,0,2.1-1.5,0.7-4.2c-0.2-0.4-0.6-0.9-1-1.2c0,0.7-0.6,1.4-0.9,2.8C73.1,63.6,73.8,64.3,74.7,64.6z
		"/>
	<path class="st1" d="M80.1,58.7c-0.5,0.5-0.9,1.4-0.8,2.1c0,0,1.7,0.7,3.2-0.4c1.1-0.8,1.6-2.2,1.5-3.7C82,58,81.6,57.2,80.1,58.7z
		"/>
	<path class="st1" d="M81.5,55.5c0,0,3.5,0.5,3.7-3.2c0-0.3,0-0.6,0-0.9c0,0-1,0.6-2.4,1.1C81.4,53,81.5,55.5,81.5,55.5z"/>
	<path class="st1" d="M76.5,58.5c0,1.1,1.4,1.8,1.4,1.8s0.9-1,0.6-2.7c-0.1-0.9-1-1.5-1.7-2C76.8,56.2,76.5,57.4,76.5,58.5z"/>
	<path class="st1" d="M79,54.6c0.9,0.8,1.3,0.7,1.3,0.7s1.1-2-0.8-3.2c-0.4-0.3-0.8-0.5-1.2-0.6C78.6,52.1,78.2,54,79,54.6z"/>
	<path class="st1" d="M82.6,50.7c0,0,3,0.1,2.8-3.1c0-0.3,0-0.5-0.1-0.7c0,0-0.8,0.6-1.9,1.1C82.3,48.5,82.6,50.7,82.6,50.7z"/>
	<path class="st1" d="M80.3,50.3c0.7,0.6,1,0.5,1,0.5s0.9-1.6-0.6-2.6c-0.3-0.2-0.7-0.4-1-0.5C79.9,48.2,79.7,49.8,80.3,50.3z"/>
	<path class="st1" d="M27.8,70.2c-1.3-0.8-2.5-1.8-3.6-2.8c-1.1-1-2.2-2.1-3.1-3.4c-0.9-1.2-1.8-2.5-2.5-3.8
		c-0.7-1.3-1.4-2.7-1.9-4.1c-0.5-1.4-0.9-2.9-1.2-4.4c-0.3-1.5-0.4-2.9-0.5-4.4c-0.1-0.1-0.9-0.5-0.8-1.5c0.1-1.1,0.9-1.8,1.3-2.1
		c0,0,0.1,1,0.4,1.4c0.2,0.3,0.8,1.2-0.7,2.1c0.1,1.5,0.2,3,0.5,4.4c0.3,1.5,0.7,2.9,1.2,4.3c0.5,1.4,1.2,2.8,1.9,4.1
		c0.7,1.3,1.6,2.5,2.5,3.7c0.9,1.2,2,2.3,3.1,3.3c1.1,1,2.3,1.9,3.6,2.7c1.3,0.8,2.6,1.5,4,2.1c1.3,0.6,2.6,1,3.9,1.3
		c0.2,0,0.3,0.2,0.3,0.4l0,0.2c-0.1,0.2-0.3,0.3-0.5,0.2c-0.6-0.3-1.2-0.5-1.8-0.7c-0.7-0.3-1.4-0.6-2.1-0.9
		C30.4,71.8,29.1,71.1,27.8,70.2z"/>
	<path class="st1" d="M32.2,73.2c0,0-1.7,2.5-4.3,2c-2.6-0.5-3.1-2.2-3.1-2.2s2-0.5,3.2-1.1C29.1,71.2,31.4,71.9,32.2,73.2z"/>
	<path class="st1" d="M30,68.6c0.1-1,0.3-1.8,0.6-2.4c0,0,1,1.2,1.8,2c1,1,0.7,2.7,0.1,3.5C32.5,71.7,29.8,71.2,30,68.6z"/>
	<path class="st1" d="M22.2,68.1c1.5-0.4,3.5,1.1,3.7,2.3c0,0-1.5,1.5-3.7,1c-2.2-0.4-3.1-3.1-3.1-3.1S20.7,68.5,22.2,68.1z"/>
	<path class="st1" d="M27.1,68.7c0,0-3.8-1.5-0.8-5.6c0,0,0.6,1.3,1.3,2.4C28.3,66.7,27.3,68.5,27.1,68.7z"/>
	<path class="st1" d="M18.3,63c1.8,0.1,2.7,1.9,2.8,2.8c0,0-1.9,1.2-3.5,0.2c-1.6-1-2.4-2.6-2.3-3.5C15.3,62.5,16.5,62.8,18.3,63z"
		/>
	<path class="st1" d="M22.6,64.6c0,0-2.1-1.5-0.7-4.2c0.2-0.4,0.6-0.9,1-1.2c0,0.7,0.6,1.4,0.9,2.8C24.2,63.6,23.5,64.3,22.6,64.6z"
		/>
	<path class="st1" d="M17.3,58.7c0.5,0.5,0.9,1.4,0.8,2.1c0,0-1.7,0.7-3.2-0.4c-1.1-0.8-1.6-2.2-1.5-3.7
		C15.3,58,15.8,57.2,17.3,58.7z"/>
	<path class="st1" d="M15.9,55.5c0,0-3.5,0.5-3.7-3.2c0-0.3,0-0.6,0-0.9c0,0,1,0.6,2.4,1.1C16,53,15.9,55.5,15.9,55.5z"/>
	<path class="st1" d="M20.9,58.5c0,1.1-1.4,1.8-1.4,1.8s-0.9-1-0.6-2.7c0.1-0.9,1-1.5,1.7-2C20.6,56.2,20.9,57.4,20.9,58.5z"/>
	<path class="st1" d="M18.4,54.6c-0.9,0.8-1.3,0.7-1.3,0.7s-1.1-2,0.8-3.2c0.4-0.3,0.8-0.5,1.2-0.6C18.8,52.1,19.1,54,18.4,54.6z"/>
	<path class="st1" d="M14.8,50.7c0,0-3,0.1-2.8-3.1c0-0.3,0-0.5,0.1-0.7c0,0,0.8,0.6,1.9,1.1C15.1,48.5,14.8,50.7,14.8,50.7z"/>
	<path class="st1" d="M17.1,50.3c-0.7,0.6-1,0.5-1,0.5s-0.9-1.6,0.6-2.6c0.3-0.2,0.7-0.4,1-0.5C17.5,48.2,17.7,49.8,17.1,50.3z"/>
	<g class="st2">
		<path class="st1" d="M83.6,76.7l-0.3-0.3C92.5,67.2,97.6,55,97.6,42c0-12.9-5-25.1-14.1-34.2l0.3-0.3C92.9,16.7,98,29,98,42
			C98,55.1,92.9,67.4,83.6,76.7z"/>
	</g>
	<g class="st3">
		<path class="st1" d="M71.9,82.5l-0.2-0.4C86.2,73.9,95.1,58.5,95.1,42c0-16.5-8.9-31.8-23.2-40.1l0.2-0.4
			C86.6,9.9,95.6,25.4,95.6,42C95.6,58.7,86.5,74.2,71.9,82.5z"/>
	</g>
	<g>
		<path class="st1" d="M59.6,84l-0.1-0.4C78.6,78.7,91.9,61.6,91.9,42c0-19.6-13.3-36.7-32.3-41.6L59.7,0
			c19.2,4.9,32.6,22.1,32.6,42C92.3,61.8,78.9,79.1,59.6,84z"/>
	</g>
	<g class="st2">
		<path class="st1" d="M14.4,76.7C5.1,67.4,0,55.1,0,42C0,29,5.1,16.7,14.2,7.5l0.3,0.3C5.4,16.9,0.4,29.1,0.4,42
			c0,13,5.1,25.2,14.3,34.4L14.4,76.7z"/>
	</g>
	<g class="st3">
		<path class="st1" d="M26.1,82.5C11.5,74.2,2.4,58.7,2.4,42c0-16.6,9-32.1,23.4-40.4l0.2,0.4C11.8,10.2,2.9,25.5,2.9,42
			c0,16.6,9,31.9,23.4,40.1L26.1,82.5z"/>
	</g>
	<g>
		<path class="st1" d="M38.4,84C19.1,79.1,5.7,61.8,5.7,42c0-19.8,13.4-37.1,32.6-42l0.1,0.4C19.4,5.3,6.1,22.4,6.1,42
			c0,19.7,13.3,36.8,32.4,41.6L38.4,84z"/>
	</g>
	<path class="st1" d="M49,69.6c-15.1,0-27.4-12.3-27.4-27.4S33.9,14.9,49,14.9c15.1,0,27.4,12.3,27.4,27.4S64.1,69.6,49,69.6z
		 M49,15.3c-14.8,0-26.9,12.1-26.9,26.9S34.1,69.1,49,69.1c14.8,0,26.9-12.1,26.9-26.9S63.8,15.3,49,15.3z"/>
	
		<linearGradient id="SVGID_1_" gradientUnits="userSpaceOnUse" x1="48.7954" y1="29.0145" x2="49.1366" y2="44.4629" gradientTransform="matrix(1 0 0 -1 0 84.1102)">
		<stop  offset="0" style="stop-color:#3D82F7"/>
		<stop  offset="0.5775" style="stop-color:#0D67F9"/>
		<stop  offset="1" style="stop-color:#0D49CC"/>
	</linearGradient>
	<path class="st4" d="M41,57.4h15.4l-3.7-3.7h-3.3L50.4,41l-1.4-1.4L47.3,41l0.7,12.7h-3.3L41,57.4z"/>
	
		<linearGradient id="SVGID_00000029731184747100505180000003365619437274301628_" gradientUnits="userSpaceOnUse" x1="42.5867" y1="53.9084" x2="56.8646" y2="39.1317" gradientTransform="matrix(1 0 0 -1 0 84.1102)">
		<stop  offset="0" style="stop-color:#32D7F5"/>
		<stop  offset="0.5695" style="stop-color:#1D93F4"/>
		<stop  offset="1" style="stop-color:#0D67F9"/>
	</linearGradient>
	<path style="fill-rule:evenodd;clip-rule:evenodd;fill:url(#SVGID_00000029731184747100505180000003365619437274301628_);" d="
		M46.4,37l-7.5-7.6h1.7l7.3,7.5l-4.7,4.7L46.4,37z M59.3,44.6l-7.6-7.8l2.9-4.8l-4.8,4.9l7.5,7.8L59.3,44.6z M55.4,44.6l-6.4-6.7
		L38.7,48.5l10.4-8.6l4.7,4.8L55.4,44.6z M42.5,29.3l6.4,6.5l10.4-10.8l-10.5,8.8l-4.3-4.5H42.5L42.5,29.3z"/>
</g>
</svg>
