<svg width="98" height="98" viewBox="0 0 98 98" fill="none" xmlns="http://www.w3.org/2000/svg">
<path d="M17.1119 62.4372C11.9372 49.8671 14.4523 34.8729 24.6626 24.6626C34.8728 14.4524 49.867 11.9373 62.4372 17.112" stroke="#0D67F9" stroke-width="2" stroke-miterlimit="10" stroke-linecap="round"/>
<path d="M81.2844 35.959C86.4645 48.5345 83.944 63.5234 73.7338 73.7336C63.5236 83.9438 48.5346 86.4643 35.9592 81.2842" stroke="#0D67F9" stroke-width="2" stroke-miterlimit="10" stroke-linecap="round"/>
<path d="M57.198 20.3927L63.0737 17.2141L59.9004 11.333" stroke="#0D67F9" stroke-width="2.1693" stroke-miterlimit="10" stroke-linecap="round" stroke-linejoin="round"/>
<path d="M40.3151 77.9243L34.3592 80.9477L37.3933 86.9037" stroke="#0D67F9" stroke-width="2.1693" stroke-miterlimit="10" stroke-linecap="round" stroke-linejoin="round"/>
<path d="M48.182 36.4928C48.5645 35.8142 49.5418 35.8142 49.9243 36.4928L53.0769 42.0861C53.2196 42.3393 53.4654 42.5179 53.7503 42.5754L60.044 43.8453C60.8076 43.9993 61.1096 44.9288 60.5824 45.5023L56.2371 50.229C56.0404 50.443 55.9465 50.7319 55.9799 51.0206L56.717 57.3988C56.8065 58.1726 56.0158 58.7471 55.3075 58.4229L49.4693 55.7509C49.205 55.6299 48.9012 55.6299 48.637 55.7509L42.7988 58.4229C42.0904 58.7471 41.2998 58.1726 41.3892 57.3988L42.1264 51.0206C42.1597 50.7319 42.0658 50.443 41.8692 50.229L37.5238 45.5023C36.9966 44.9288 37.2986 43.9993 38.0622 43.8453L44.356 42.5754C44.6409 42.5179 44.8866 42.3393 45.0293 42.0861L48.182 36.4928Z" stroke="#0D67F9" stroke-width="2" stroke-miterlimit="10" stroke-linecap="round"/>
<path d="M48.1824 25.8893C48.5649 25.2107 49.5422 25.2107 49.9247 25.8893L56.4429 37.4536C56.5856 37.7068 56.8313 37.8854 57.1162 37.9429L70.1288 40.5684C70.8924 40.7225 71.1944 41.6519 70.6672 42.2254L61.683 51.9981C61.4864 52.2121 61.3925 52.501 61.4258 52.7897L62.9499 65.9767C63.0393 66.7506 62.2487 67.325 61.5403 67.0008L49.4697 61.4763C49.2055 61.3554 48.9017 61.3554 48.6374 61.4763L36.5668 67.0008C35.8584 67.325 35.0678 66.7506 35.1572 65.9767L36.6813 52.7897C36.7147 52.501 36.6208 52.2121 36.4241 51.9981L27.44 42.2254C26.9128 41.6519 27.2148 40.7225 27.9784 40.5684L40.9909 37.9429C41.2758 37.8854 41.5216 37.7068 41.6643 37.4536L48.1824 25.8893Z" stroke="#0D67F9" stroke-opacity="0.5" stroke-width="2" stroke-miterlimit="10" stroke-linecap="round"/>
</svg>
