<svg width="95" height="95" viewBox="0 0 95 95" fill="none" xmlns="http://www.w3.org/2000/svg">
<path d="M47.5993 70.7465C60.5522 70.7465 71.0527 60.2461 71.0527 47.2932C71.0527 34.3403 60.5522 23.8398 47.5993 23.8398C34.6464 23.8398 24.146 34.3403 24.146 47.2932C24.146 60.2461 34.6464 70.7465 47.5993 70.7465Z" stroke="#0D67F9" stroke-opacity="0.5" stroke-width="2.1693" stroke-miterlimit="10" stroke-linecap="round"/>
<path d="M54.3646 51.4665C54.3646 48.2467 51.6853 47.1186 49.0883 46.2373V41.5603C50.0402 41.8658 50.7453 42.5474 51.18 43.605L51.5678 44.5098L54.1531 43.0762L53.8476 42.3476C52.978 40.2794 51.2506 38.928 49.1001 38.5638V36.8951C49.1001 36.19 48.5243 35.626 47.831 35.626C47.1377 35.626 46.5618 36.2018 46.5618 36.8951V38.4815L45.4925 38.8575C43.4008 39.6449 42.1434 41.431 42.1434 43.6285C42.1434 46.5193 44.1999 47.6239 46.5501 48.4582V53.5582C45.3867 53.1822 44.5877 52.3831 44.2586 51.208L43.9413 50.1269L41.3091 51.678L41.5206 52.3479C42.2492 54.6041 44.0941 56.0965 46.5501 56.5665V58.2352C46.5501 58.9403 47.1259 59.5043 47.8192 59.5043C48.5125 59.5043 49.0883 58.9285 49.0883 58.2352V56.6723C52.2729 56.3668 54.3646 54.3691 54.3646 51.4665ZM51.3681 51.49C51.3681 52.7121 50.5337 53.5112 49.0883 53.7462V49.3278C50.6277 49.9154 51.3681 50.4794 51.3681 51.49ZM46.5501 41.5721V45.3207C45.5747 44.8741 45.14 44.4041 45.14 43.5933C45.14 42.8647 45.4455 42.2771 46.0213 41.8893L46.5501 41.5721Z" fill="#0D67F9"/>
<path d="M16.595 47.5645C16.595 30.6591 30.2996 16.9545 47.2049 16.9545L79.0771 16.9545" stroke="#0D67F9" stroke-width="2.1693" stroke-miterlimit="10" stroke-linecap="round"/>
<path d="M77.8262 47.5639C77.8262 64.4692 64.1216 78.1738 47.2162 78.1738L14.7017 78.1738" stroke="#0D67F9" stroke-width="2.1693" stroke-miterlimit="10" stroke-linecap="round"/>
<path d="M75.0427 9.99967L82.0866 17.0323L75.0427 24.0762" stroke="#0D67F9" stroke-width="2.1693" stroke-miterlimit="10" stroke-linecap="round"/>
<path d="M20.0439 71.1637L13 78.1963L20.0439 85.2402" stroke="#0D67F9" stroke-width="2.1693" stroke-miterlimit="10" stroke-linecap="round"/>
</svg>
