<svg width="98" height="100" viewBox="0 0 98 100" fill="none" xmlns="http://www.w3.org/2000/svg">
<path d="M45.6769 44.7969H34.4141V53.392H45.6769V44.7969Z" stroke="#0D67F9" stroke-width="2" stroke-miterlimit="10" stroke-linecap="round"/>
<path d="M63.9818 44.7969H52.719V53.392H63.9818V44.7969Z" stroke="#0D67F9" stroke-width="2" stroke-miterlimit="10" stroke-linecap="round"/>
<path d="M52.7181 44.7969H45.677V68.8914H52.7181V44.7969Z" stroke="#0D67F9" stroke-width="2" stroke-miterlimit="10" stroke-linecap="round"/>
<path d="M45.6771 53.3916H36.4456V68.891H45.6771V53.3916Z" stroke="#0D67F9" stroke-width="2" stroke-miterlimit="10" stroke-linecap="round"/>
<path d="M61.9468 53.3916H52.719V68.891H61.9468V53.3916Z" stroke="#0D67F9" stroke-width="2" stroke-miterlimit="10" stroke-linecap="round"/>
<path d="M49.1948 42.9613H44.3108C44.3108 42.9613 37.0477 42.817 37.2401 38.044C37.4325 33.271 43.7817 30.9437 46.3643 35.8314C48.8211 40.4897 49.1948 42.9613 49.1948 42.9613Z" stroke="#0D67F9" stroke-width="2" stroke-miterlimit="10" stroke-linecap="round"/>
<path d="M49.1943 42.9613H54.0821C54.0821 42.9613 61.3452 42.817 61.1528 38.044C60.9567 33.271 54.6112 30.9437 52.0285 35.8314C49.568 40.4897 49.1943 42.9613 49.1943 42.9613Z" stroke="#0D67F9" stroke-width="2" stroke-miterlimit="10" stroke-linecap="round"/>
<g opacity="0.5">
<path d="M17.112 64.2453C11.9373 51.6752 14.4524 36.6809 24.6626 26.4707C34.8729 16.2604 49.8671 13.7454 62.4372 18.92C66.419 20.1746 75.7711 25.7071 81.3254 37.8011" stroke="#0D67F9" stroke-width="2" stroke-miterlimit="10" stroke-linecap="round"/>
<path d="M81.2844 37.7676C86.4645 50.3431 83.944 65.332 73.7338 75.5422C63.5236 85.7524 48.5346 88.2729 35.9592 83.0928" stroke="#0D67F9" stroke-width="2" stroke-miterlimit="10" stroke-linecap="round"/>
<path d="M40.3151 79.7319L34.3592 82.7553L37.3933 88.7113" stroke="#0D67F9" stroke-width="2.1693" stroke-miterlimit="10" stroke-linecap="round" stroke-linejoin="round"/>
</g>
</svg>
