<svg width="98" height="98" viewBox="0 0 98 98" fill="none" xmlns="http://www.w3.org/2000/svg">
<path d="M17.0312 62.1142C11.8842 49.6113 14.3859 34.6971 24.5415 24.5415C34.6972 14.3858 49.6113 11.8842 62.1142 17.0312" stroke="#0D67F9" stroke-width="2" stroke-miterlimit="10" stroke-linecap="round"/>
<path d="M80.8608 35.7773C86.0132 48.2856 83.5062 63.1944 73.3506 73.35C63.1949 83.5057 48.2861 86.0127 35.7779 80.8603" stroke="#0D67F9" stroke-width="2" stroke-miterlimit="10" stroke-linecap="round"/>
<path d="M56.9039 20.2945L62.7481 17.1328L59.5918 11.2832" stroke="#0D67F9" stroke-width="2.1693" stroke-miterlimit="10" stroke-linecap="round" stroke-linejoin="round"/>
<path d="M40.113 77.518L34.1888 80.5253L37.2068 86.4494" stroke="#0D67F9" stroke-width="2.1693" stroke-miterlimit="10" stroke-linecap="round" stroke-linejoin="round"/>
<path d="M49.1707 66.3415C58.6539 66.3415 66.3415 58.6539 66.3415 49.1707C66.3415 39.6876 58.6539 32 49.1707 32C39.6876 32 32 39.6876 32 49.1707C32 58.6539 39.6876 66.3415 49.1707 66.3415Z" stroke="#0D67F9" stroke-opacity="0.5" stroke-width="2.1693" stroke-miterlimit="10" stroke-linecap="round"/>
<path d="M55.6015 53.0329C55.6015 49.8131 52.9223 48.685 50.3253 47.8037V43.1267C51.2771 43.4322 51.9822 44.1138 52.417 45.1714L52.8048 46.0763L55.39 44.6426L55.0845 43.914C54.2149 41.8458 52.4875 40.4945 50.337 40.1302V38.4615C50.337 37.7564 49.7612 37.1924 49.0679 37.1924C48.3746 37.1924 47.7988 37.7682 47.7988 38.4615V40.0479L46.7294 40.4239C44.6377 41.2113 43.3804 42.9975 43.3804 45.1949C43.3804 48.0857 45.4368 49.1903 47.787 50.0246V55.1246C46.6237 54.7486 45.8246 53.9495 45.4956 52.7744L45.1783 51.6933L42.546 53.2445L42.7575 53.9143C43.4861 56.1705 45.331 57.6629 47.787 58.1329V59.8016C47.787 60.5067 48.3628 61.0707 49.0562 61.0707C49.7495 61.0707 50.3253 60.4949 50.3253 59.8016V58.2387C53.5098 57.9332 55.6015 55.9355 55.6015 53.0329ZM52.605 53.0564C52.605 54.2786 51.7707 55.0776 50.3253 55.3127V50.8942C51.8647 51.4818 52.605 52.0458 52.605 53.0564ZM47.787 43.1385V46.8871C46.8117 46.4405 46.3769 45.9705 46.3769 45.1597C46.3769 44.4311 46.6824 43.8435 47.2582 43.4557L47.787 43.1385Z" fill="#0D67F9"/>
</svg>
