<svg width="145" height="125" viewBox="0 0 145 125" fill="none" xmlns="http://www.w3.org/2000/svg">
<path d="M25.0579 61.1264L17.5138 60.4208C17.351 60.4208 17.2424 60.3123 17.2424 60.0952L17.5138 56.893C17.6223 56.1875 17.7852 55.6447 18.2194 55.2648C18.6536 54.9391 19.142 54.7763 19.739 54.8306L20.2275 54.9391C20.9331 55.0477 21.313 55.3733 21.4758 56.1332C21.5844 55.8075 21.7472 55.5362 21.9643 55.2648C22.2356 55.102 22.5613 54.9934 22.9955 54.9934L23.7553 55.102C24.4609 55.2105 24.8408 55.3733 25.2207 55.8075C25.5464 56.2417 25.6549 56.7302 25.6549 57.49L25.3835 60.9093C25.3293 61.0178 25.2207 61.1264 25.0579 61.1264ZM20.716 58.9012L20.8245 57.5443C20.8245 57.2729 20.8245 57.0558 20.716 56.8387C20.6074 56.6759 20.4446 56.5674 20.2275 56.5674H19.739C19.4677 56.5674 19.3048 56.5674 19.142 56.7302C19.0335 56.8387 18.9792 57.0558 18.8707 57.3272L18.7621 58.6841C18.7621 58.7926 18.7621 58.8469 18.8707 58.8469L20.5531 59.0097C20.6617 59.0097 20.6617 59.0097 20.716 58.9012ZM24.1352 59.1725L24.2981 57.6528C24.2981 57.3815 24.2981 57.1644 24.1895 56.9473C24.081 56.7845 23.9181 56.6759 23.701 56.6759L22.9412 56.5674C22.6698 56.5674 22.507 56.5674 22.3442 56.7302C22.2356 56.8387 22.1814 57.0558 22.0728 57.4358L21.9643 58.9012C21.9643 59.0097 21.9643 59.064 22.0728 59.064L23.9181 59.2268C24.1352 59.3353 24.1352 59.2268 24.1352 59.1725Z" fill="#062652"/>
<path d="M27.1771 49.4033L26.1459 53.7452C26.0373 53.9081 25.983 54.0166 25.8202 54.0166L18.4389 52.2798C18.2761 52.2798 18.1676 52.117 18.2761 51.9542L19.3073 47.6123C19.3073 47.4495 19.4701 47.3409 19.633 47.4495L20.5014 47.6123C20.6642 47.6123 20.7727 47.7751 20.6642 47.9379L20.0672 50.6516C20.0672 50.7602 20.0672 50.8144 20.1757 50.8144L21.8039 51.1401C21.9125 51.1401 21.9668 51.1401 21.9668 51.0315L22.4552 48.8063C22.5638 48.6435 22.618 48.5349 22.7809 48.5349L23.6492 48.6978C23.8121 48.6978 23.9206 48.8606 23.8121 49.0234L23.2151 51.3029C23.2151 51.4115 23.2151 51.4657 23.3236 51.4657L25.0061 51.8999C25.1146 51.8999 25.1689 51.8999 25.1689 51.7914L25.7659 49.0777C25.7659 48.9149 25.9288 48.8063 26.0916 48.9149L26.96 49.0777C27.1228 49.132 27.1771 49.2405 27.1771 49.4033Z" fill="#062652"/>
<path d="M25.6017 47.4501L25.3303 47.3416C25.1675 47.233 25.0589 47.1787 25.1675 47.0159L25.6017 45.9304C25.7102 45.7676 25.7645 45.6591 25.9273 45.7676H26.0359C26.3615 45.8762 26.5243 45.9304 26.7414 45.8762C26.9042 45.7676 27.0671 45.6048 27.1756 45.2791L27.447 44.6821C27.5555 44.3565 27.6098 44.0851 27.5555 43.9223C27.447 43.7595 27.2842 43.5967 26.9585 43.4881L26.7957 43.3796C26.5243 43.271 26.3615 43.271 26.0901 43.4881C25.9273 43.6509 25.7645 43.8138 25.6017 44.1937C25.4388 44.465 25.276 44.7907 25.1132 45.1163C24.9504 45.442 24.679 45.7133 24.5162 45.9847C24.3534 46.2561 24.082 46.4189 23.6478 46.4189C23.2136 46.5275 22.7794 46.4189 22.3995 46.2561L21.9653 46.0933C21.3683 45.8219 20.9341 45.4962 20.7713 45.0078C20.6085 44.5193 20.6085 43.9223 20.8798 43.3253L21.3683 42.077C21.6397 41.3714 21.9653 40.9915 22.4538 40.7201C22.9422 40.4488 23.485 40.4488 24.082 40.7201L24.3534 40.8287C24.5162 40.9372 24.6247 40.9915 24.5162 41.1543L24.0277 42.2398C23.9192 42.4026 23.8649 42.5112 23.7021 42.4026H23.5935C23.2679 42.2941 23.1051 42.2398 22.888 42.2941C22.7251 42.4026 22.5623 42.5654 22.4538 42.8911L22.2909 43.3796C22.1281 43.7052 22.1281 43.9766 22.1824 44.1394C22.2909 44.3022 22.4538 44.465 22.888 44.5736L23.1593 44.6821C23.485 44.845 23.8649 44.5736 24.1905 43.9223C24.5162 43.2167 24.8961 42.674 25.276 42.1313C25.5474 41.8599 25.7645 41.6971 26.1987 41.6428C26.5243 41.5342 26.9585 41.6428 27.447 41.8056L27.8812 41.9684C28.4782 42.2398 28.9124 42.5654 29.0752 43.0539C29.238 43.5424 29.238 44.1394 28.9667 44.7364L28.4782 46.0933C28.2068 46.7988 27.8812 47.1787 27.3927 47.4501C26.6871 47.7215 26.1444 47.7215 25.6017 47.4501Z" fill="#062652"/>
<path d="M31.5155 39.201L31.0271 40.2322C30.9185 40.3951 30.7557 40.5036 30.7014 40.3951L25.1655 37.3557C25.0569 37.2472 25.0027 37.3557 25.0027 37.4643L24.08 38.7126C23.9715 38.8754 23.8086 38.8754 23.7544 38.8211L22.9945 38.3869C22.8317 38.2784 22.8317 38.2241 22.886 38.0613L25.3283 33.5565C25.4369 33.3937 25.5997 33.3937 25.654 33.448L26.4138 33.8822C26.5766 33.9907 26.5766 34.045 26.5223 34.2078L25.7625 35.5647C25.654 35.6732 25.7625 35.7275 25.871 35.7275L31.407 38.7668C31.5155 38.8754 31.6241 39.0382 31.5155 39.201Z" fill="#062652"/>
<path d="M37.7011 30.4632L34.8788 33.8825C34.7703 34.0453 34.6075 34.0453 34.4447 33.991L28.5831 29.1606C28.4202 29.0521 28.4202 28.8893 28.5831 28.7264L31.4053 25.3072C31.5139 25.1444 31.6767 25.1444 31.7309 25.3072L32.4365 25.7956C32.5993 25.9042 32.5993 26.067 32.4365 26.1213L30.6455 28.3465C30.5369 28.4551 30.5369 28.5093 30.6455 28.6179L31.8938 29.6491C32.0023 29.7576 32.0566 29.7576 32.0566 29.6491L33.522 27.8581C33.6305 27.6952 33.7934 27.6952 33.9562 27.7495L34.6617 28.238C34.8246 28.3465 34.8246 28.5093 34.6617 28.6722L33.1963 30.4632C33.0878 30.5718 33.0878 30.626 33.1963 30.7346L34.5532 31.8201C34.6617 31.9286 34.716 31.9286 34.716 31.8201L36.5071 29.5948C36.6156 29.432 36.7784 29.432 36.8327 29.5948L37.5383 30.0833C37.8096 30.1918 37.8096 30.4089 37.7011 30.4632Z" fill="#062652"/>
<path d="M41.3946 26.9903L40.3091 28.0215C39.8207 28.51 39.2779 28.7271 38.6809 28.7271C38.1924 28.7271 37.6497 28.4557 37.2155 27.9672L34.5018 24.9822C34.0676 24.4937 33.7962 23.951 33.9048 23.4625C34.0133 22.974 34.2304 22.4313 34.7732 21.9428L35.8587 20.9116C36.3471 20.4232 36.8899 20.2061 37.4869 20.2061C37.9753 20.2061 38.5181 20.4774 38.9523 20.9659L39.3865 21.4001C39.495 21.5629 39.495 21.6715 39.3865 21.8343L38.5181 22.5941C38.3553 22.7569 38.2467 22.7027 38.0839 22.5941L37.7583 22.2685C37.5954 22.1056 37.4326 21.9428 37.2698 21.9428C37.107 21.9428 36.9441 22.0514 36.6728 22.2142L35.9672 22.8112C35.8044 22.974 35.6416 23.1369 35.6416 23.2997C35.6416 23.4625 35.7501 23.6253 35.9129 23.7881L38.5181 26.6104C38.6809 26.7732 38.8437 26.936 39.0066 26.936C39.1694 26.936 39.3322 26.8275 39.6036 26.6647L40.3091 26.0677C40.472 25.9048 40.6348 25.742 40.6348 25.5792C40.6348 25.4164 40.5262 25.2535 40.3634 25.0907L40.0378 24.7651C39.9292 24.6023 39.9292 24.4937 40.0378 24.3309L40.9061 23.571C41.069 23.4082 41.1775 23.4082 41.3403 23.571L41.7745 24.0052C42.2087 24.4937 42.4801 25.0364 42.3715 25.5249C42.1544 25.9591 41.8831 26.5018 41.3946 26.9903Z" fill="#062652"/>
<path d="M45.0307 24.0053L44.108 24.6023C43.9452 24.7109 43.8366 24.7109 43.6738 24.4938L39.4404 18.198C39.3319 18.0352 39.3319 17.9266 39.549 17.8724L40.4174 17.2754C40.5802 17.1668 40.6887 17.1668 40.8516 17.1668L45.7905 19.6091H45.8991L43.2396 15.7557C43.1311 15.5929 43.1311 15.4843 43.3482 15.43L44.2708 14.833C44.4337 14.7245 44.5422 14.7245 44.705 14.9416L48.9384 21.2374C49.0469 21.4002 49.0469 21.5087 48.8299 21.563L47.9615 22.0515C47.7986 22.16 47.6358 22.16 47.473 22.0515L42.6426 19.6634H42.5341L45.1392 23.5711C45.2478 23.734 45.1935 23.9511 45.0307 24.0053Z" fill="#062652"/>
<path d="M52.7357 19.0669L50.022 12.0113C49.9134 11.8485 50.022 11.7399 50.1848 11.6857L53.2241 10.4916C53.9297 10.2203 54.4724 10.2203 54.9066 10.3831C55.3951 10.5459 55.775 10.9801 55.9921 11.5771L56.1549 12.0656C56.4263 12.7712 56.2635 13.2596 55.6665 13.7481C55.9921 13.6395 56.372 13.6395 56.5891 13.8566C56.8605 14.0195 57.0776 14.2908 57.2947 14.6165L57.5661 15.322C57.8374 15.919 57.8374 16.5161 57.5661 16.9503C57.2947 17.4387 56.8605 17.8186 56.2092 18.0357L53.1699 19.284C53.007 19.3383 52.8442 19.284 52.7357 19.0669ZM52.8442 14.1823L54.0925 13.6938C54.3639 13.5853 54.5267 13.4224 54.581 13.2596C54.6895 13.0968 54.6895 12.934 54.581 12.6626L54.4182 12.2284C54.3096 11.957 54.1468 11.7942 53.984 11.7942C53.8211 11.6857 53.6583 11.7942 53.2784 11.9028L52.0844 12.3912C51.9758 12.3912 51.9758 12.4998 51.9758 12.5541L52.5728 14.0737C52.7357 14.1823 52.7357 14.2365 52.8442 14.1823ZM54.0925 17.3844L55.5579 16.896C55.8293 16.7874 55.9921 16.6246 56.0464 16.4618C56.1549 16.299 56.1549 16.1361 56.0464 15.8648L55.775 15.1592C55.6665 14.8878 55.5036 14.725 55.3408 14.725C55.178 14.6165 54.9066 14.725 54.6353 14.8336L53.2784 15.322C53.1699 15.322 53.1699 15.4306 53.1699 15.4849L53.8754 17.2759C53.9297 17.493 54.0382 17.493 54.0925 17.3844Z" fill="#062652"/>
<path d="M60.9847 16.5708L59.8992 16.8422C59.7364 16.8422 59.6278 16.8422 59.5735 16.6794L57.9453 9.29809C57.9453 9.13526 57.9453 9.02672 58.2167 8.97244L61.3646 8.26688C62.0701 8.10406 62.6129 8.15833 63.0471 8.4297C63.4813 8.70107 63.8069 9.13526 63.9697 9.78655L64.2411 10.7092C64.4039 11.6319 64.1326 12.3374 63.4813 12.8259V12.9344L65.5437 15.3768C65.6522 15.5396 65.6522 15.6482 65.3809 15.7024L64.2954 15.9738C64.1326 15.9738 64.024 16.0823 63.9697 15.9738C63.8612 15.9738 63.8069 15.8652 63.6984 15.811L61.7445 13.3686L60.8761 13.5315C60.7676 13.5315 60.7133 13.64 60.7133 13.6943L61.3103 16.2452C61.256 16.3537 61.1475 16.5708 60.9847 16.5708ZM60.4962 12.2832L61.7445 12.0118C62.0159 11.9032 62.233 11.849 62.3415 11.6861C62.4501 11.5233 62.5043 11.3605 62.4501 11.0891L62.1787 10.1665C62.0701 9.8951 62.0159 9.73228 61.853 9.678C61.6902 9.56946 61.5274 9.56946 61.1475 9.678L59.9535 9.94937C59.8449 9.94937 59.7906 10.0579 59.8449 10.1122L60.3334 12.2289C60.2791 12.2832 60.3876 12.2832 60.4962 12.2832Z" fill="#062652"/>
<path d="M70.0488 15.1596L68.5292 15.2681C67.8236 15.3767 67.2809 15.1596 66.8467 14.8339C66.4125 14.5083 66.1411 13.9655 66.1411 13.3685L65.8697 9.35225C65.7612 8.64669 65.9783 8.15823 66.3582 7.83258C66.6839 7.50694 67.2809 7.23557 67.9864 7.12702L69.5061 7.01847C70.2117 6.90992 70.7544 7.12702 71.1886 7.45266C71.6228 7.77831 71.8942 8.32105 71.8942 8.91806L72.1655 12.9343C72.2741 13.6399 72.057 14.1284 71.6771 14.454C71.3514 14.9425 70.8087 15.1053 70.0488 15.1596ZM68.8005 13.9113L69.7232 13.8027C69.9946 13.8027 70.2117 13.6942 70.3202 13.5314C70.4288 13.3685 70.483 13.2057 70.483 12.9343L70.1574 9.13516C70.1574 8.86379 70.0488 8.70097 69.886 8.53814C69.7232 8.4296 69.5604 8.37532 69.289 8.4296L68.3663 8.53814C68.095 8.53814 67.8779 8.64669 67.7693 8.70097C67.6608 8.80951 67.6065 9.02661 67.6065 9.29798L67.8779 13.0972C67.8779 13.3685 67.9864 13.5314 68.1492 13.6942C68.2578 13.8027 68.4749 13.9113 68.8005 13.9113Z" fill="#062652"/>
<path d="M74.9838 15.1597L73.8983 15.0512C73.7355 15.0512 73.627 14.9426 73.627 14.7798L74.224 7.23573C74.224 7.0729 74.3325 6.96436 74.5496 6.96436L75.6351 7.0729C75.7979 7.0729 75.9065 7.18145 75.9065 7.34427L75.6351 10.9264C75.7436 10.7635 75.9065 10.4922 76.1236 10.1665L78.4031 7.56137C78.5659 7.39855 78.7287 7.29 78.8915 7.29L80.2484 7.39855C80.3569 7.39855 80.4112 7.39855 80.4112 7.5071C80.4112 7.61564 80.4112 7.61564 80.3027 7.66992L77.4804 10.8178L80.0313 15.214C80.1398 15.3226 80.1398 15.3768 80.0313 15.4854C79.9227 15.5939 79.8685 15.5939 79.7599 15.5939L78.7287 15.4854C78.4031 15.4854 78.2402 15.3226 78.1317 15.1597L76.3407 11.9576L75.418 12.826L75.1466 15.0512C75.3095 15.1055 75.2552 15.1597 74.9838 15.1597Z" fill="#062652"/>
<path d="M85.3524 16.7879L81.119 15.7567C80.9562 15.7567 80.8477 15.5939 80.8477 15.431L82.5302 8.04978C82.5302 7.88696 82.693 7.77841 82.8558 7.88696L87.1977 8.80961C87.3605 8.80961 87.4691 8.97244 87.3605 9.13526L87.1977 10.0036C87.1977 10.1665 87.0349 10.275 86.8721 10.1665L84.1584 9.56945C84.0498 9.56945 83.9956 9.56945 83.9956 9.678L83.6699 11.3062C83.6699 11.4148 83.6699 11.469 83.8327 11.469L86.1122 11.9575C86.2751 11.9575 86.3836 12.1203 86.3836 12.2832L86.2208 13.1515C86.2208 13.3144 86.058 13.4229 85.8951 13.3144L83.6156 12.8259C83.5071 12.8259 83.4528 12.8259 83.4528 12.9344L83.0186 14.6169C83.0186 14.7255 83.0186 14.7798 83.1814 14.7798L85.8951 15.3768C86.058 15.3768 86.1665 15.5396 86.058 15.7024L85.8951 16.5708C85.678 16.7336 85.5152 16.7879 85.3524 16.7879Z" fill="#062652"/>
<path d="M88.1729 17.6563L87.0874 17.2221C86.9246 17.1136 86.816 17.0593 86.9246 16.8965L89.6383 9.78659C89.7468 9.62377 89.8011 9.51522 89.9639 9.62377L92.949 10.7093C93.6545 10.9806 94.0345 11.3063 94.3058 11.7947C94.5772 12.2832 94.5772 12.8259 94.3058 13.423L93.9802 14.3456C93.6545 15.214 93.0575 15.7025 92.1891 15.7025V15.7567L92.5148 18.9046C92.5148 19.176 92.4062 19.176 92.1891 19.0675L91.1579 18.6333C90.9951 18.5247 90.8866 18.5247 90.8323 18.4704C90.7237 18.3619 90.7237 18.3076 90.7237 18.1991L90.4524 15.1597L89.584 14.8341C89.4754 14.8341 89.4212 14.8341 89.4212 14.9426L88.4985 17.3307C88.39 17.7106 88.3357 17.7106 88.1729 17.6563ZM90.0182 13.8029L91.2665 14.2913C91.5378 14.3999 91.7549 14.3999 91.972 14.3999C92.1891 14.3999 92.2434 14.2371 92.4062 13.9657L92.7319 13.043C92.8404 12.7717 92.8404 12.6088 92.7319 12.446C92.6233 12.2832 92.4605 12.1747 92.2434 12.0118L90.9951 11.5234C90.8866 11.5234 90.8323 11.5234 90.8323 11.6319L90.0724 13.6943C89.9096 13.7486 89.9096 13.8029 90.0182 13.8029Z" fill="#062652"/>
<path d="M97.2336 21.9977L96.3109 21.4007C96.1481 21.2922 96.1481 21.1293 96.2024 21.0751L100.273 14.725C100.381 14.5622 100.544 14.5622 100.599 14.6164L103.421 16.4075C104.018 16.7331 104.343 17.2759 104.506 17.7643C104.669 18.2528 104.506 18.7955 104.181 19.3926L103.475 20.4238C103.149 20.9122 102.715 21.2922 102.227 21.3464C101.738 21.455 101.141 21.2379 100.544 20.9122L99.0789 19.9896C98.9704 19.881 98.9161 19.881 98.9161 19.9896L97.6678 22.052C97.505 21.9977 97.3421 22.052 97.2336 21.9977ZM99.8387 18.687L101.033 19.4468C101.304 19.6097 101.467 19.7182 101.63 19.6097C101.793 19.6097 101.955 19.4468 102.064 19.284L102.661 18.4156C102.824 18.1443 102.824 17.9814 102.824 17.8186C102.824 17.6558 102.661 17.493 102.39 17.3301L101.196 16.5703C101.087 16.4618 101.033 16.5703 101.033 16.5703L99.8387 18.4156C99.6759 18.4699 99.7845 18.5784 99.8387 18.687Z" fill="#062652"/>
<path d="M102.338 25.5252L101.415 24.6568C101.306 24.5483 101.307 24.494 101.524 24.3312L108.145 19.9893C108.308 19.8807 108.471 19.8807 108.633 20.0978L109.99 21.2918C110.153 21.4547 110.153 21.6175 110.153 21.726L106.734 28.8359C106.625 28.9988 106.571 28.9988 106.463 28.9445L105.54 28.0761C105.431 27.9676 105.431 27.9676 105.431 27.9133C105.431 27.8047 105.431 27.8047 105.54 27.7505L106.137 26.5022L104.183 24.8197L102.989 25.5795C102.88 25.688 102.826 25.688 102.826 25.688C102.501 25.6338 102.392 25.6338 102.338 25.5252ZM108.199 21.8889L105.051 24.0055L106.571 25.3624L108.199 21.8889Z" fill="#062652"/>
<path d="M107.926 30.7892L107.22 29.9208C107.112 29.758 107.112 29.6495 107.22 29.4867L113.082 24.6563C113.244 24.5477 113.353 24.5477 113.516 24.7648L114.221 25.5246C114.33 25.6875 114.384 25.796 114.33 25.9588L112.376 31.1149L115.958 28.1298C116.121 28.0213 116.23 28.0213 116.392 28.2383L117.098 29.1067C117.207 29.2696 117.207 29.3781 117.098 29.5409L111.236 34.3713C111.074 34.4799 110.965 34.4799 110.802 34.2628L110.205 33.5029C110.097 33.3401 110.042 33.1773 110.097 33.0145L111.942 27.9127L108.36 30.8978C108.197 30.9521 108.034 30.952 107.926 30.7892Z" fill="#062652"/>
<path d="M113.787 38.9838L113.19 37.7897C113.082 37.6269 113.19 37.5184 113.353 37.5184L121.06 35.8901C121.223 35.8901 121.386 35.9987 121.494 36.1615L122.362 37.7897C122.471 37.9526 122.471 38.1154 122.254 38.2782L116.501 43.6513C116.338 43.8141 116.23 43.7599 116.175 43.6513L115.578 42.4573C115.47 42.3487 115.47 42.2945 115.47 42.2945C115.47 42.1859 115.578 42.1859 115.633 42.1317L116.664 41.209L115.47 38.8209L114.004 39.1466C113.896 39.1466 113.841 39.1466 113.733 39.1466C113.896 39.038 113.787 39.038 113.787 38.9838ZM120.517 37.6269L116.881 38.4953L117.803 40.2863L120.517 37.6269Z" fill="#062652"/>
<path d="M118.455 43.7049L118.726 43.5964C118.889 43.4878 118.998 43.5964 119.052 43.7592L119.378 44.8447C119.486 45.0075 119.378 45.1161 119.215 45.1703H119.106C118.781 45.2789 118.618 45.4417 118.509 45.6045C118.401 45.7673 118.401 46.0387 118.618 46.3644L118.781 46.9614C118.889 47.287 119.052 47.4498 119.215 47.5584C119.378 47.6669 119.649 47.6669 119.975 47.5584L120.137 47.4498C120.409 47.3413 120.463 47.1785 120.572 46.9614C120.68 46.69 120.68 46.4729 120.572 46.093C120.463 45.7673 120.409 45.3874 120.409 45.0618C120.3 44.7361 120.3 44.3562 120.3 44.0306C120.3 43.7049 120.463 43.325 120.626 43.1079C120.897 42.7823 121.223 42.6195 121.711 42.4024L122.146 42.2395C122.743 42.0767 123.34 42.0767 123.774 42.3481C124.208 42.6195 124.642 43.0536 124.805 43.7049L125.239 44.9532C125.511 45.6588 125.511 46.2015 125.239 46.7443C124.968 47.2327 124.642 47.6127 123.991 47.7755L123.719 47.884C123.557 47.9926 123.448 47.884 123.394 47.7212L123.068 46.6357C122.96 46.4729 123.068 46.3644 123.231 46.3101H123.34C123.665 46.2015 123.828 46.0387 123.937 45.8759C124.045 45.7131 124.045 45.4417 123.828 45.1161L123.665 44.6276C123.557 44.3019 123.394 44.0306 123.231 43.922C123.068 43.8135 122.797 43.8135 122.471 44.0306L122.2 44.1391C121.874 44.2477 121.711 44.6276 121.928 45.3874C122.091 46.1473 122.2 46.8528 122.2 47.4498C122.2 47.7755 122.037 48.1554 121.766 48.3725C121.494 48.6439 121.169 48.861 120.68 49.0781L120.246 49.2409C119.649 49.4037 119.052 49.4037 118.618 49.1323C118.184 48.861 117.749 48.4268 117.587 47.7755L117.098 46.4186C116.827 45.7131 116.827 45.1703 117.098 44.7361C117.424 44.2477 117.804 43.8678 118.455 43.7049Z" fill="#062652"/>
<path d="M126.705 51.3568L119.324 52.985C119.161 52.985 119.052 52.985 118.998 52.7137L118.727 51.6282C118.727 51.4654 118.727 51.3568 118.889 51.3025L126.271 49.6743C126.433 49.6743 126.542 49.6743 126.596 49.9457L126.868 51.0312C126.976 51.194 126.868 51.3568 126.705 51.3568Z" fill="#062652"/>
<path d="M119.485 55.5359L119.322 54.2876C119.322 54.1247 119.43 54.0162 119.593 54.1247L127.3 55.4816C127.463 55.5901 127.572 55.6444 127.626 55.8072L127.789 57.5983C127.789 57.8697 127.68 57.9239 127.517 58.0325L120.19 60.909C120.027 61.0176 119.919 60.909 119.919 60.7462L119.756 59.4979C119.756 59.3893 119.756 59.3351 119.756 59.3351C119.756 59.3351 119.865 59.2265 119.919 59.2265L121.276 58.738L121.004 56.1329L119.539 55.8615C119.43 55.8615 119.376 55.8615 119.268 55.753C119.539 55.6987 119.485 55.5902 119.485 55.5359ZM126.269 56.7842L122.524 56.1872L122.687 58.141L126.269 56.7842Z" fill="#062652"/>
<path d="M56.9102 115.559L57.1815 114.364C57.2901 113.876 57.6157 113.496 58.1042 113.279L61.0893 111.814C61.5777 111.542 61.8491 111.325 61.9576 110.945L62.0662 110.511C62.1747 110.24 62.0662 110.023 61.9576 109.914C61.8491 109.751 61.632 109.643 61.3606 109.588L60.8722 109.48C60.6008 109.371 60.3837 109.371 60.1666 109.48C60.0038 109.588 59.8952 109.751 59.841 109.968L59.7324 110.402C59.6239 110.565 59.5696 110.674 59.4068 110.674L58.2127 110.402C58.0499 110.294 57.9414 110.24 57.9414 110.077L58.0499 109.643C58.2127 108.937 58.5384 108.557 58.9726 108.177C59.461 107.906 60.058 107.852 60.7636 108.014L61.7948 108.286C62.5547 108.449 63.0431 108.774 63.3145 109.208C63.6401 109.643 63.7487 110.24 63.5859 110.891L63.4773 111.379C63.3145 112.085 62.8803 112.573 62.2833 112.845L59.2439 114.31C59.0811 114.419 59.0811 114.473 58.9726 114.582L58.864 114.744L62.1747 115.504C62.3376 115.613 62.4461 115.667 62.4461 115.83L62.5547 116.753C62.5547 116.915 62.3918 117.024 62.229 116.915L57.2901 115.721C56.9644 115.776 56.9102 115.721 56.9102 115.559Z" fill="#062652"/>
<path d="M69.8838 117.946L68.4184 117.838C67.6585 117.838 67.1701 117.567 66.7359 117.132C66.3017 116.698 66.1389 116.21 66.2474 115.504L66.5188 111.325C66.5188 110.619 66.7902 110.131 67.2243 109.805C67.6585 109.48 68.2555 109.317 69.0154 109.371L70.4808 109.48C71.2406 109.48 71.7291 109.751 72.1633 110.185C72.5975 110.619 72.7603 111.108 72.6517 111.813L72.3804 115.993C72.3804 116.698 72.109 117.187 71.6748 117.512C71.2406 117.729 70.6436 117.946 69.8838 117.946ZM68.8526 116.372L69.7209 116.481C70.0466 116.481 70.2094 116.481 70.4265 116.318C70.5893 116.21 70.5893 115.993 70.6979 115.721L70.9693 111.705C70.9693 111.434 70.9693 111.216 70.8064 111.108C70.6979 110.999 70.4808 110.945 70.2094 110.837L69.341 110.728C69.0154 110.728 68.8526 110.728 68.6355 110.891C68.4726 110.999 68.4726 111.216 68.3641 111.488L68.0927 115.504C68.0927 115.775 68.0927 115.993 68.2556 116.101C68.3641 116.318 68.6355 116.372 68.8526 116.372Z" fill="#062652"/>
<path d="M76.0696 117.566L75.9068 116.318C75.7983 115.829 76.0154 115.395 76.3953 114.961L78.6748 112.573C79.0004 112.247 79.1632 111.813 79.1632 111.488L79.0547 111.053C79.0547 110.782 78.9461 110.619 78.7833 110.456C78.6205 110.348 78.4577 110.293 78.0778 110.348L77.5893 110.456C77.2637 110.456 77.1008 110.565 76.9923 110.728C76.8837 110.89 76.8295 111.053 76.8837 111.325L76.9923 111.759C76.9923 111.922 76.8837 112.085 76.7209 112.085L75.5269 112.247C75.3641 112.247 75.2012 112.139 75.2012 111.976L75.0927 111.542C74.9841 110.836 75.2012 110.293 75.5269 109.914C75.8525 109.479 76.4495 109.208 77.1551 109.154L78.2406 108.991C79.0004 108.882 79.5974 108.991 80.0316 109.317C80.4658 109.642 80.7372 110.185 80.7915 110.836L80.9 111.325C81.0086 112.03 80.7372 112.573 80.303 113.116L77.9149 115.558C77.8064 115.667 77.7521 115.829 77.7521 115.884V116.047L81.0628 115.612C81.2257 115.612 81.3885 115.721 81.3885 115.884L81.497 116.806C81.497 116.969 81.3885 117.078 81.2257 117.132L76.2324 117.729C76.1782 117.838 76.0696 117.729 76.0696 117.566Z" fill="#062652"/>
<path d="M83.287 110.511L83.0156 109.48C83.0156 109.317 83.0156 109.208 83.1242 109.046L84.1554 107.96C84.3182 107.797 84.481 107.689 84.6438 107.634L85.7293 107.309C85.8921 107.2 86.055 107.309 86.055 107.472L88.1717 115.124C88.1717 115.233 88.1717 115.287 88.1717 115.396C88.1717 115.504 88.0631 115.504 88.0088 115.504L86.8148 115.83C86.652 115.938 86.4892 115.83 86.4892 115.667L84.8067 109.48L83.7212 110.565C83.5041 110.782 83.3955 110.782 83.287 110.511Z" fill="#062652"/>
<path d="M102.986 103.998C104.831 102.75 106.622 101.339 108.25 99.8197C109.878 98.3001 111.398 96.672 112.755 94.8811C114.111 93.0902 115.414 91.2451 116.499 89.2914C117.585 87.3377 118.562 85.2754 119.321 83.1589C120.081 81.0424 120.678 78.9259 121.112 76.7008C121.546 74.5843 121.818 72.3592 121.872 70.2427C122.035 70.1342 123.229 69.483 123.066 67.9634C122.957 66.3353 121.709 65.3585 121.112 64.9243C121.112 64.9243 120.949 66.3896 120.624 67.0408C120.352 67.475 119.43 68.8317 121.709 70.1885C121.601 72.4135 121.384 74.53 120.949 76.7008C120.515 78.9259 119.918 81.0424 119.159 83.0504C118.399 85.1126 117.476 87.1206 116.337 89.0743C115.251 91.028 113.949 92.8189 112.592 94.6098C111.235 96.2921 109.607 97.9202 108.033 99.4398C106.405 100.905 104.614 102.262 102.769 103.456C100.924 104.65 98.9702 105.681 96.908 106.495C95.0628 107.363 93.1091 107.96 91.1554 108.34C90.8841 108.449 90.667 108.666 90.7213 108.937L90.8298 109.208C90.9383 109.48 91.264 109.642 91.5353 109.534C92.4036 109.208 93.2177 108.828 94.1945 108.503C95.2256 108.069 96.311 107.634 97.3422 107.255C99.1873 106.386 101.141 105.247 102.986 103.998Z" fill="#7473AD"/>
<path d="M96.5293 108.394C96.5293 108.394 99.0802 112.139 102.825 111.379C106.57 110.62 107.33 108.177 107.33 108.177C107.33 108.177 104.345 107.472 102.662 106.549C101.034 105.518 97.7233 106.549 96.5293 108.394Z" fill="#7473AD"/>
<path d="M99.7857 101.611C99.6772 100.091 99.2973 98.9515 98.8631 98.0288C98.8631 98.0288 97.3977 99.8199 96.2036 101.014C94.7382 102.479 95.1724 105.03 96.0408 106.17C96.1494 106.278 100.111 105.464 99.7857 101.611Z" fill="#7473AD"/>
<path d="M111.347 100.959C109.122 100.471 106.191 102.587 105.92 104.27C105.92 104.27 108.037 106.495 111.347 105.79C114.549 105.084 115.852 101.23 115.852 101.23C115.852 101.23 113.518 101.448 111.347 100.959Z" fill="#7473AD"/>
<path d="M104.016 101.774C104.016 101.774 109.606 99.5488 105.264 93.5244C105.264 93.5244 104.341 95.4783 103.31 97.1065C102.225 98.8433 103.69 101.557 104.016 101.774Z" fill="#7473AD"/>
<path d="M117.044 93.3618C114.385 93.5246 113.028 96.1841 112.865 97.5409C112.865 97.5409 115.579 99.332 118.021 97.8123C120.464 96.3469 121.603 94.0674 121.495 92.6562C121.441 92.7105 119.649 93.199 117.044 93.3618Z" fill="#7473AD"/>
<path d="M110.64 95.7498C110.64 95.7498 113.68 93.4703 111.726 89.5625C111.4 88.9655 110.803 88.2057 110.26 87.7715C110.26 88.8027 109.338 89.8882 108.903 91.842C108.252 94.3386 109.283 95.3156 110.64 95.7498Z" fill="#7473AD"/>
<path d="M118.457 87.1206C117.697 87.8804 117.1 89.2373 117.371 90.1599C117.371 90.1599 119.814 91.1911 122.039 89.6715C123.667 88.4774 124.318 86.5236 124.264 84.2983C121.333 86.0894 120.682 84.7868 118.457 87.1206Z" fill="#7473AD"/>
<path d="M120.517 82.4535C120.517 82.4535 125.618 83.2133 126.053 77.7859C126.053 77.3517 126.053 76.9175 126.053 76.5376C126.053 76.5376 124.533 77.4603 122.47 78.0573C120.408 78.6 120.517 82.4535 120.517 82.4535Z" fill="#7473AD"/>
<path d="M113.191 86.7407C113.191 88.4232 115.308 89.4001 115.308 89.4001C115.308 89.4001 116.665 88.0433 116.231 85.3839C115.959 84.027 114.765 83.1043 113.68 82.5073C113.68 83.3757 113.137 85.221 113.191 86.7407Z" fill="#7473AD"/>
<path d="M116.825 81.0968C118.182 82.1822 118.671 82.128 118.671 82.128C118.671 82.128 120.299 79.2514 117.477 77.3519C116.88 77.0262 116.283 76.6463 115.686 76.4292C116.228 77.2433 115.74 80.1198 116.825 81.0968Z" fill="#7473AD"/>
<path d="M122.091 75.2357C122.091 75.2357 126.487 75.3986 126.27 70.731C126.27 70.4053 126.162 69.9712 126.162 69.6455C126.162 69.6455 124.968 70.5682 123.285 71.328C121.711 72.0878 122.091 75.2357 122.091 75.2357Z" fill="#7473AD"/>
<path d="M118.726 74.6385C119.811 75.5612 120.245 75.3984 120.245 75.3984C120.245 75.3984 121.494 73.0103 119.323 71.5992C118.889 71.2735 118.4 71.1107 117.857 70.8394C118.183 71.5449 117.857 73.933 118.726 74.6385Z" fill="#7473AD"/>
<path d="M41.4446 103.998C39.5994 102.75 37.8085 101.339 36.1804 99.8197C34.5523 98.3001 33.0328 96.672 31.676 94.8811C30.3193 93.0902 29.0168 91.2451 27.9314 89.2914C26.8461 87.3377 25.8692 85.2754 25.1094 83.1589C24.3497 81.0424 23.7527 78.9259 23.3185 76.7008C22.8844 74.5843 22.613 72.3592 22.5588 70.2427C22.3959 70.1342 21.202 69.483 21.3648 67.9634C21.4734 66.3353 22.7216 65.3585 23.3185 64.9243C23.3185 64.9243 23.4813 66.3896 23.807 67.0408C24.0783 67.475 25.0009 68.8317 22.7216 70.1885C22.8301 72.4135 23.0472 74.53 23.4813 76.7008C23.9155 78.9259 24.5125 81.0424 25.2722 83.0504C26.032 85.1126 26.9546 87.1206 28.0943 89.0743C29.1796 91.028 30.4821 92.8189 31.8389 94.6098C33.1956 96.2921 34.8237 97.9202 36.3975 99.4398C38.0256 100.905 39.8165 102.262 41.6617 103.456C43.5068 104.65 45.4605 105.681 47.5228 106.495C49.3679 107.363 51.3216 107.96 53.2753 108.34C53.5467 108.449 53.7638 108.666 53.7095 108.937L53.601 109.208C53.4924 109.48 53.1668 109.642 52.8955 109.534C52.0271 109.208 51.2131 108.828 50.2362 108.503C49.2051 108.069 48.1197 107.634 47.0886 107.255C45.2434 106.386 43.344 105.247 41.4446 103.998Z" fill="#7473AD"/>
<path d="M47.9041 108.394C47.9041 108.394 45.3532 112.139 41.6083 111.379C37.8633 110.62 37.1035 108.177 37.1035 108.177C37.1035 108.177 40.0886 107.472 41.7711 106.549C43.3993 105.518 46.71 106.549 47.9041 108.394Z" fill="#7473AD"/>
<path d="M44.7031 101.611C44.8116 100.091 45.1915 98.9515 45.6257 98.0288C45.6257 98.0288 47.0911 99.8199 48.2852 101.014C49.7506 102.479 49.3164 105.03 48.448 106.17C48.3394 106.278 44.3232 105.464 44.7031 101.611Z" fill="#7473AD"/>
<path d="M33.1981 100.959C35.4233 100.471 38.3541 102.587 38.6255 104.27C38.6255 104.27 36.5088 106.495 33.1981 105.79C29.9959 105.084 28.6934 101.23 28.6934 101.23C28.6934 101.23 31.0271 101.448 33.1981 100.959Z" fill="#7473AD"/>
<path d="M40.4159 101.774C40.4159 101.774 34.8256 99.5488 39.1675 93.5244C39.1675 93.5244 40.0902 95.4783 41.1214 97.1065C42.2069 98.8433 40.7958 101.557 40.4159 101.774Z" fill="#7473AD"/>
<path d="M27.4439 93.3618C30.1033 93.5246 31.4602 96.1841 31.623 97.5409C31.623 97.5409 28.9093 99.332 26.4669 97.8123C24.0246 96.3469 22.8849 94.0674 22.9934 92.6562C23.0477 92.7105 24.7844 93.199 27.4439 93.3618Z" fill="#7473AD"/>
<path d="M33.9027 95.7498C33.9027 95.7498 30.8633 93.4703 32.8172 89.5625C33.1428 88.9655 33.7399 88.2057 34.2826 87.7715C34.2826 88.8027 35.2053 89.8882 35.6395 91.842C36.2907 94.3386 35.151 95.3156 33.9027 95.7498Z" fill="#7473AD"/>
<path d="M25.9823 87.1206C26.7421 87.8804 27.3392 89.2373 27.0678 90.1599C27.0678 90.1599 24.6255 91.1911 22.4002 89.6715C20.772 88.4774 20.1207 86.5236 20.175 84.2983C23.1058 86.0894 23.8114 84.7868 25.9823 87.1206Z" fill="#7473AD"/>
<path d="M23.9715 82.4535C23.9715 82.4535 18.8697 83.2133 18.4355 77.7859C18.4355 77.3517 18.4355 76.9175 18.4355 76.5376C18.4355 76.5376 19.9552 77.4603 22.0176 78.0573C24.0258 78.6 23.9715 82.4535 23.9715 82.4535Z" fill="#7473AD"/>
<path d="M31.3514 86.7407C31.3514 88.4232 29.2347 89.4001 29.2347 89.4001C29.2347 89.4001 27.8778 88.0433 28.312 85.3839C28.5834 84.027 29.7774 83.1043 30.8629 82.5073C30.8629 83.3757 31.3514 85.221 31.3514 86.7407Z" fill="#7473AD"/>
<path d="M27.6075 81.0968C26.2507 82.1822 25.7622 82.128 25.7622 82.128C25.7622 82.128 24.134 79.2514 26.9562 77.3519C27.5532 77.0262 28.1503 76.6463 28.7473 76.4292C28.2045 77.2433 28.693 80.1198 27.6075 81.0968Z" fill="#7473AD"/>
<path d="M22.3451 75.2357C22.3451 75.2357 17.9489 75.3986 18.166 70.731C18.166 70.4053 18.2745 69.9712 18.2745 69.6455C18.2745 69.6455 19.4686 70.5682 21.1511 71.328C22.7793 72.0878 22.3451 75.2357 22.3451 75.2357Z" fill="#7473AD"/>
<path d="M25.7655 74.6385C24.68 75.5612 24.2458 75.3984 24.2458 75.3984C24.2458 75.3984 22.9975 73.0103 25.1685 71.5992C25.6027 71.2735 26.0911 71.1107 26.6339 70.8394C26.2539 71.5449 26.5796 73.933 25.7655 74.6385Z" fill="#7473AD"/>
<path d="M88.3366 124.295L88.1738 123.698C116.285 116.589 135.823 91.4077 135.823 62.482C135.823 33.6106 116.285 8.37523 88.2824 1.26591L88.4452 0.668945C116.72 7.8868 136.419 33.285 136.419 62.482C136.474 91.679 116.665 117.077 88.3366 124.295Z" fill="#7473AD"/>
<path opacity="0.3" d="M123.669 113.604L123.234 113.17C136.802 99.6028 144.291 81.5853 144.291 62.4824C144.291 43.4881 136.91 25.5248 123.506 12.066L123.94 11.6318C137.453 25.3078 144.888 43.3253 144.888 62.4824C144.888 81.7481 137.29 99.9285 123.669 113.604Z" fill="#7473AD"/>
<path opacity="0.5" d="M106.459 122.07L106.188 121.582C127.407 109.534 140.649 86.8494 140.649 62.4824C140.649 38.2239 127.57 15.5935 106.459 3.49136L106.784 3.00293C128.112 15.2136 141.354 38.0611 141.354 62.5367C141.3 87.0122 127.95 109.914 106.459 122.07Z" fill="#7473AD"/>
<path opacity="0.3" d="M21.7468 113.604C8.07082 99.9285 0.527344 81.7481 0.527344 62.4824C0.527344 43.271 8.01655 25.3078 21.4754 11.6318L21.9096 12.066C8.50497 25.5248 1.12431 43.4338 1.12431 62.4824C1.12431 81.5853 8.61351 99.6028 22.1809 113.17L21.7468 113.604Z" fill="#7473AD"/>
<path opacity="0.5" d="M38.8981 122.07C17.4074 109.86 4.11133 87.0123 4.11133 62.4825C4.11133 38.0069 17.3531 15.1594 38.6268 2.94873L38.9524 3.43716C17.7873 15.5935 4.76256 38.1697 4.76256 62.4282C4.76256 86.7952 18.0043 109.48 39.2238 121.528L38.8981 122.07Z" fill="#7473AD"/>
<path d="M57.0763 124.295C28.6933 117.077 8.93921 91.679 8.93921 62.482C8.93921 33.285 28.6391 7.8868 56.9135 0.668945L57.0763 1.26591C29.0732 8.37523 9.53617 33.6106 9.53617 62.482C9.53617 91.4077 29.1275 116.643 57.1849 123.698L57.0763 124.295Z" fill="#7473AD"/>
<path d="M72.7051 103.076C50.4546 103.076 32.3828 85.0039 32.3828 62.7534C32.3828 40.5029 50.4546 22.4854 72.7051 22.4854C94.9556 22.4854 113.027 40.5571 113.027 62.8077C113.027 85.0582 94.8471 103.076 72.7051 103.076ZM72.7051 23.1909C50.8887 23.1909 33.034 40.937 33.034 62.8619C33.034 84.7868 50.7802 102.533 72.7051 102.533C94.5215 102.533 112.376 84.7868 112.376 62.8619C112.322 40.937 94.5215 23.1909 72.7051 23.1909Z" fill="#7473AD"/>
<path d="M60.9844 85.1667H83.7233L78.2964 79.7398H73.5206L74.8774 61.071L72.8151 59.0088L70.1017 61.071L71.1328 79.7398H66.3571L60.9844 85.1667Z" fill="url(#paint0_linear_7283_2013)"/>
<path fill-rule="evenodd" clip-rule="evenodd" d="M68.8 55.1014L57.7833 43.8133H60.2254L71.0251 54.9386L64.1329 61.8851L68.8 55.1014ZM87.9029 66.281L76.6691 54.8301L81.0107 47.7208L73.9556 54.9386L84.9724 66.498L87.9029 66.281ZM82.0418 66.281L72.5446 56.4582L57.512 72.0878L72.8703 59.3344L79.7625 66.4438L82.0418 66.281ZM63.1017 43.8133L72.4361 53.4733L87.7944 37.5181L72.2733 50.4885L65.9237 43.7591H63.1017V43.8133Z" fill="url(#paint1_linear_7283_2013)"/>
<defs>
<linearGradient id="paint0_linear_7283_2013" x1="72.4322" y1="81.7651" x2="72.9347" y2="59.0122" gradientUnits="userSpaceOnUse">
<stop stop-color="#3D82F7"/>
<stop offset="0.5775" stop-color="#0D67F9"/>
<stop offset="1" stop-color="#0D49CC"/>
</linearGradient>
<linearGradient id="paint1_linear_7283_2013" x1="63.2707" y1="45.081" x2="84.2996" y2="66.8445" gradientUnits="userSpaceOnUse">
<stop stop-color="#32D7F5"/>
<stop offset="0.5695" stop-color="#1D93F4"/>
<stop offset="1" stop-color="#0D67F9"/>
</linearGradient>
</defs>
</svg>
