<svg width="145" height="125" viewBox="0 0 145 125" fill="none" xmlns="http://www.w3.org/2000/svg">
<path d="M26.4635 50.5987L19.2157 48.1473C18.9492 48.1473 18.9492 47.9874 18.9492 47.8808L19.9618 44.8431C20.2283 44.097 20.548 43.6707 20.9744 43.4042C21.4007 43.1377 21.9869 43.1377 22.5731 43.2443L22.9995 43.4042C23.7456 43.6707 24.012 44.1503 24.012 44.8431C24.1719 44.5766 24.4384 44.2569 24.7581 44.097C25.0779 43.9371 25.3444 43.9371 25.7707 44.097L26.5168 44.3635C27.103 44.5233 27.5294 44.9497 27.7958 45.376C27.9557 45.8024 27.9557 46.3886 27.7958 47.1347L26.7833 50.3323C26.73 50.4388 26.5701 50.5987 26.4635 50.5987ZM22.5198 47.2946L22.9462 46.0155C23.1061 45.7491 23.1061 45.5892 22.9462 45.2695C22.9462 45.1096 22.6797 45.003 22.5198 44.8431L22.0935 44.6832C21.827 44.5233 21.6672 44.5233 21.5073 44.6832C21.3474 44.8431 21.2408 44.9497 21.2408 45.2695L20.8145 46.5485C20.8145 46.7084 20.8145 46.7084 20.9744 46.7084L22.5198 47.2946C22.5198 47.4012 22.5198 47.4012 22.5198 47.2946ZM25.9839 48.4137L26.4102 46.9748C26.5701 46.7084 26.5701 46.3886 26.4102 46.2287C26.4102 46.0688 26.1437 45.9623 25.9839 45.8024L25.2378 45.5359C24.9713 45.376 24.8114 45.376 24.6516 45.5359C24.4917 45.6958 24.3851 45.8024 24.2252 46.1221L23.7989 47.561C23.7989 47.7209 23.7989 47.7209 23.9588 47.7209L25.824 48.3071C25.8773 48.5736 25.8773 48.4137 25.9839 48.4137Z" fill="#062652"/>
<path d="M31.2023 39.301L29.1772 43.1914C29.0173 43.3513 29.0174 43.3513 28.7509 43.3513L21.9294 39.8872C21.7695 39.7274 21.7695 39.7274 21.7695 39.4609L23.7947 35.5705C23.9545 35.4106 23.9545 35.4106 24.0611 35.4106L24.8072 35.837C24.9671 35.9969 24.9671 35.9969 24.9671 36.2633L23.6881 38.8747C23.6881 39.0346 23.6881 39.0346 23.6881 39.0346L25.127 39.7806C25.2868 39.7806 25.2869 39.7806 25.2869 39.6208L26.2994 37.5956C26.4593 37.4358 26.4593 37.4358 26.7258 37.4358L27.4718 37.8621C27.6317 38.022 27.6317 38.022 27.6317 38.2885L26.6192 40.3136C26.6192 40.4735 26.6192 40.4735 26.6192 40.4735L28.218 41.3261C28.3778 41.3261 28.3778 41.3261 28.3778 41.1663L29.6569 38.5549C29.8167 38.395 29.8167 38.395 29.9233 38.395L30.6694 38.8214C31.3622 39.0345 31.3622 39.1944 31.2023 39.301Z" fill="#062652"/>
<path d="M30.3494 36.69L30.1895 36.5301C30.0296 36.3702 30.0296 36.2636 30.1895 36.1038L30.9356 35.0912C31.0955 34.9313 31.202 34.9313 31.3619 34.9313H31.5218C31.7883 35.0912 31.9481 35.1978 32.2679 35.0912C32.4278 35.0912 32.6942 34.9313 32.8541 34.505L33.2805 33.9188C33.4403 33.6523 33.5469 33.3325 33.5469 33.1727C33.5469 33.0128 33.387 32.7463 33.1206 32.5864L32.9607 32.4266C32.8008 32.2667 32.5344 32.2667 32.3745 32.4266C32.2146 32.5864 31.9481 32.693 31.6284 33.0128C31.4685 33.2792 31.2021 33.4391 30.8823 33.7589C30.6158 34.0253 30.2961 34.1852 30.0296 34.505C29.7631 34.6649 29.4434 34.7714 29.017 34.7714C28.5907 34.7714 28.1643 34.6116 27.738 34.3451L27.3117 34.0786C26.7255 33.6523 26.459 33.226 26.459 32.6397C26.459 32.0535 26.6189 31.4673 27.0452 30.8811L27.7913 29.7086C28.2176 29.1224 28.644 28.8559 29.2302 28.6961C29.8164 28.5362 30.2428 28.6961 30.829 29.1224L30.9889 29.2823C31.1487 29.4422 31.1487 29.5488 30.9889 29.7086L30.2428 30.7212C30.0829 30.8811 29.9763 30.8811 29.8164 30.8811C29.55 30.7212 29.3901 30.6146 29.0703 30.6146C28.9104 30.6146 28.644 30.7745 28.4841 31.2008L28.2177 31.6272C28.0578 31.8936 27.9512 32.2134 27.9512 32.3733C27.9512 32.5331 28.1111 32.7996 28.5374 32.9595L28.6973 33.1194C28.9638 33.3858 29.4434 33.1194 29.8697 32.5331C30.2961 31.9469 30.8823 31.5206 31.4685 31.0942C31.735 30.9344 32.0547 30.8278 32.4811 30.8278C32.9074 30.8278 33.2272 30.9877 33.6535 31.2541L33.92 31.5206C34.5062 31.9469 34.7727 32.3733 34.7727 32.9595C34.7727 33.5457 34.6128 34.1319 34.1864 34.7182L33.4403 36.1571C33.014 36.7433 32.5877 37.0097 32.0014 37.1696C31.4152 37.3295 30.7757 37.1696 30.3494 36.69Z" fill="#062652"/>
<path d="M38.289 29.9227L37.5429 30.7754C37.3831 30.9353 37.2765 30.9353 37.1166 30.7754L32.4801 26.4587H32.3735L31.361 27.6311C31.2011 27.791 31.0945 27.791 30.9346 27.6311L30.3484 27.0449C30.1885 26.885 30.1885 26.7784 30.3484 26.6185L33.8125 22.8348C33.9723 22.6749 34.0789 22.6749 34.2388 22.8348L34.825 23.421C34.9849 23.5809 34.9849 23.6874 34.825 23.8473L33.8125 25.0198C33.6526 25.1796 33.6526 25.1796 33.8125 25.1796L38.4489 29.4963C38.4489 29.6029 38.4489 29.7628 38.289 29.9227Z" fill="#062652"/>
<path d="M46.9778 22.6755L43.3539 25.2869C43.1941 25.4468 43.0875 25.4468 42.9276 25.2869L38.6109 19.0516C38.451 18.8918 38.451 18.7852 38.7708 18.6253L42.3947 16.014C42.5545 15.8541 42.6611 15.8541 42.821 16.014L43.2473 16.76C43.4072 16.9199 43.4072 17.0265 43.2473 17.1864L40.9558 18.7852C40.7959 18.7852 40.7959 18.9451 40.9558 18.9451L41.9683 20.2241C41.9683 20.384 42.1282 20.384 42.1282 20.2241L43.9934 18.9451C44.1533 18.7852 44.2599 18.7852 44.4198 18.9451L44.8461 19.6912C45.006 19.851 45.006 19.9576 44.6863 20.1175L42.821 21.3965C42.6611 21.3965 42.6611 21.5564 42.821 21.5564L43.8336 22.9953C43.8336 23.1552 43.9934 23.1552 43.9934 22.9953L46.285 21.3965C46.4449 21.2366 46.5515 21.2366 46.7114 21.3965L47.1377 22.1426C47.2443 22.5157 47.1377 22.6755 46.9778 22.6755Z" fill="#062652"/>
<path d="M51.7218 20.2243L50.4428 20.9704C49.8566 21.2368 49.2703 21.3967 48.6841 21.2368C48.0979 21.077 47.8314 20.6506 47.5117 20.0644L45.6464 16.4405C45.38 15.8543 45.2201 15.268 45.4866 14.8417C45.6464 14.4154 46.0728 13.989 46.7656 13.5627L48.0446 12.8166C48.6308 12.5501 49.217 12.3902 49.8033 12.5501C50.3895 12.71 50.6559 13.1363 50.9757 13.7226L51.2422 14.3088C51.402 14.4687 51.2422 14.5752 51.0823 14.7351L50.0697 15.3213C49.9099 15.4812 49.8033 15.3213 49.6434 15.1615L49.4302 14.7351C49.2703 14.4687 49.1638 14.3088 49.0039 14.3088C48.844 14.3088 48.5775 14.3088 48.4177 14.4687L47.565 14.7351C47.2985 14.895 47.1386 15.0016 47.1386 15.1615C47.1386 15.3213 47.1386 15.4279 47.2985 15.7477L49.0572 19.2117C49.217 19.4782 49.3236 19.6381 49.4835 19.6381C49.6434 19.6381 49.9099 19.6381 50.0697 19.4782L50.9224 19.0518C51.1889 18.892 51.3488 18.7854 51.3488 18.6255C51.3488 18.4656 51.3487 18.359 51.1889 18.0393L50.9224 17.6129C50.7625 17.4531 50.9224 17.3465 51.0823 17.1866L52.0949 16.6004C52.2547 16.4405 52.3613 16.6004 52.5212 16.7602L52.7877 17.3465C53.0541 17.9327 53.0541 18.5189 52.9475 18.9452C52.7344 19.4782 52.308 19.7979 51.7218 20.2243Z" fill="#062652"/>
<path d="M56.3558 18.1994L55.3432 18.4659C55.1833 18.4659 55.0768 18.4659 55.0768 18.306L52.7852 11.0582C52.7852 10.8983 52.7852 10.7917 52.945 10.7917L53.7977 10.3654C53.9576 10.3654 54.0642 10.3654 54.2241 10.3654L58.2743 14.1492L56.8354 9.67258C56.8354 9.5127 56.8354 9.40611 56.9953 9.40611L58.0079 9.13965C58.1677 9.13965 58.2743 9.13965 58.2743 9.29953L60.5659 16.5473C60.5659 16.7072 60.5659 16.8138 60.406 16.8138L59.3935 17.0803C59.2336 17.0803 59.127 17.0803 58.9671 16.9204L55.0768 13.2965L56.5157 17.7731C56.5157 18.0395 56.5157 18.1994 56.3558 18.1994Z" fill="#062652"/>
<path d="M63.3396 16.3346L62.327 16.4945C62.1671 16.4945 62.0605 16.4945 62.0605 16.228C62.2204 15.4819 62.4869 14.2029 62.9132 12.1778C63.4994 10.3125 63.7659 8.9802 63.9258 8.12751C63.9258 7.96764 64.0857 7.86105 64.1923 7.86105L65.2048 7.70117C65.3647 7.70117 65.4713 7.70117 65.4713 7.96764L63.7126 15.9083C63.606 16.1747 63.606 16.1747 63.3396 16.3346Z" fill="#062652"/>
<path d="M67.8111 13.4033V13.1368C67.8111 12.9769 67.971 12.8704 68.0776 12.8704H69.25C69.4099 12.8704 69.5165 13.0302 69.5165 13.1368V13.2967C69.5165 13.5632 69.6764 13.8829 69.7829 14.0428C69.8895 14.2027 70.2093 14.2027 70.529 14.2027H71.1153C71.3817 14.2027 71.7015 14.0428 71.8613 14.0428C72.0212 13.8829 72.0213 13.6165 72.0213 13.2967V13.1368C72.0213 12.8704 71.8614 12.7105 71.7548 12.5506C71.4883 12.3907 71.3284 12.3907 70.9021 12.3907C70.6356 12.3907 70.156 12.3907 69.8895 12.2308C69.4632 12.2308 69.1434 12.071 68.877 11.9644C68.6105 11.8578 68.2907 11.6979 68.0243 11.3782C67.7578 11.1117 67.7578 10.6321 67.7578 10.0991V9.6728C67.7578 8.9267 67.9177 8.50035 68.344 8.07401C68.7704 7.64767 69.1967 7.48779 69.9428 7.48779H71.2218C71.9679 7.48779 72.5009 7.64767 72.9805 7.91413C73.4069 8.1806 73.5667 8.76682 73.5667 9.51292V9.77938C73.5667 9.93926 73.4068 10.0458 73.3003 10.0458H72.1278C71.9679 10.0458 71.8613 9.88597 71.8613 9.77938V9.6195C71.8613 9.35304 71.7015 9.03328 71.5949 8.8734C71.4883 8.71353 71.1686 8.71353 70.8488 8.71353H70.2626C69.8362 8.71353 69.6764 8.8734 69.5165 8.97999C69.3566 9.13987 69.3566 9.40633 69.3566 9.72609V9.99255C69.3566 10.4189 69.7829 10.5788 70.529 10.7387C71.2751 10.7387 71.968 10.8985 72.5542 11.165C72.8206 11.3249 73.1404 11.4315 73.4068 11.9111C73.6733 12.3374 73.6733 12.6572 73.6733 13.1901V13.6165C73.6733 14.3626 73.5134 14.7889 73.0871 15.2152C72.6608 15.6416 72.2344 15.8015 71.4883 15.8015H70.0494C69.3033 15.8015 68.7704 15.6416 68.2907 15.3751C68.0776 14.5757 67.8111 14.1494 67.8111 13.4033Z" fill="#062652"/>
<path d="M78.0422 15.7485L76.8697 15.5886C76.7098 15.5886 76.6033 15.4287 76.6033 15.3221L77.3494 8.98027C77.3494 8.82039 77.3493 8.82039 77.1895 8.82039L75.5907 8.66051C75.4308 8.66051 75.3242 8.50064 75.3242 8.39405L75.4841 7.54137C75.4841 7.38149 75.644 7.2749 75.7506 7.2749L80.8134 7.86112C80.9733 7.86112 81.0799 8.021 81.0799 8.12759V8.98027C81.0799 9.14015 80.92 9.24674 80.8134 9.24674L79.2146 9.08686C79.0547 9.08686 79.0547 9.08686 79.0547 9.24674L78.3086 15.5886C78.3619 15.7485 78.202 15.7485 78.0422 15.7485Z" fill="#062652"/>
<path d="M82.6799 16.4412L81.5075 16.1747C81.3476 16.1747 81.241 16.0148 81.3476 15.9083L83.2128 8.55386C83.2128 8.39398 83.3727 8.28739 83.4793 8.39398L86.7834 9.14008C87.5295 9.29996 87.9559 9.56642 88.2223 9.99276C88.4888 10.4191 88.4888 11.0053 88.3822 11.5915L88.1157 12.764C87.9559 13.3502 87.6894 13.9364 87.1032 14.043C86.6769 14.3095 86.0906 14.3095 85.3446 14.2029L83.5859 13.7765C83.426 13.7765 83.426 13.7765 83.426 13.9364L82.8398 16.228C83.1062 16.4412 82.9997 16.6011 82.6799 16.4412ZM84.2787 12.5508L85.7176 12.8173C85.984 12.8173 86.1439 12.8173 86.3038 12.8173C86.4637 12.6574 86.5703 12.5508 86.5703 12.2311L86.8367 11.3784C86.8367 11.1119 86.8367 10.952 86.8367 10.7922C86.6769 10.6323 86.5703 10.5257 86.2505 10.5257L84.8116 10.2592C84.6517 10.2592 84.6517 10.2592 84.6517 10.4191L84.0655 12.6041C84.1188 12.3909 84.1188 12.5508 84.2787 12.5508Z" fill="#062652"/>
<path d="M91.3652 19.0522L94.8293 12.2307C94.9891 12.0708 94.9891 12.0708 95.2556 12.0708L98.1334 13.5097C98.7196 13.7762 99.146 14.2558 99.4124 14.7887C99.5723 15.2151 99.5723 15.8013 99.2526 16.3875L98.9861 16.8139C98.7196 17.4001 98.1334 17.6665 97.3873 17.56C97.6538 17.7198 97.8136 17.9863 97.9735 18.3061C98.1334 18.5725 97.9735 18.8923 97.8136 19.3186L97.5472 20.0647C97.2807 20.6509 96.8011 21.0773 96.3747 21.2372C95.7885 21.397 95.3622 21.2372 94.6161 20.9707L91.5784 19.3719C91.3652 19.3719 91.3652 19.212 91.3652 19.0522ZM93.5502 18.9456L94.8293 19.6917C95.0957 19.8515 95.2556 19.8515 95.5753 19.8515C95.7352 19.8515 95.8418 19.6917 96.0017 19.4252L96.2682 18.6791C96.4281 18.4126 96.428 18.2528 96.428 18.0929C96.428 17.933 96.1616 17.8264 95.8418 17.6665L94.5628 16.9204C94.4029 16.9204 94.4029 16.9204 94.4029 16.9204L93.5502 18.6791C93.3903 18.7857 93.5502 18.7857 93.5502 18.9456ZM95.149 15.748L96.428 16.3342C96.6945 16.4941 96.8544 16.4941 97.0143 16.4941C97.1741 16.4941 97.2807 16.3342 97.4406 16.0678L97.7071 15.6414C97.8669 15.375 97.867 15.2151 97.867 15.0552C97.867 14.8953 97.6005 14.7887 97.4406 14.6289L96.1616 14.0426C96.0017 14.0426 96.0017 14.0426 96.0017 14.0426L95.2556 15.4815C95.149 15.5881 95.149 15.748 95.149 15.748Z" fill="#062652"/>
<path d="M99.0418 23.5286L98.1892 22.7825C98.0293 22.6226 98.0293 22.516 98.0293 22.3561L102.506 16.1209C102.666 15.961 102.772 15.961 102.932 16.1209L105.544 17.9861C106.13 18.4125 106.396 18.8388 106.556 19.425C106.716 20.0113 106.556 20.4376 106.13 21.0238L105.544 21.8765C104.957 22.6226 104.265 22.8891 103.359 22.7292L102.932 25.9268C102.932 26.0866 102.772 26.1932 102.506 26.0866L101.653 25.5004C101.493 25.3405 101.387 25.3405 101.387 25.2339C101.387 25.2339 101.387 25.0741 101.387 24.9675L101.973 21.9298L101.227 21.3436C101.067 21.3436 101.067 21.3436 101.067 21.3436L99.4682 23.5286C99.3083 23.6885 99.2017 23.6885 99.0418 23.5286ZM101.92 20.3843L102.932 21.1304C103.199 21.2903 103.359 21.3969 103.518 21.3969C103.678 21.3969 103.785 21.237 103.945 21.1304L104.531 20.2777C104.691 20.1178 104.691 19.8514 104.691 19.6915C104.691 19.5316 104.531 19.425 104.265 19.1053L103.252 18.3592C103.092 18.3592 103.092 18.3592 103.092 18.3592L101.813 20.1178C101.813 20.2244 101.813 20.3843 101.92 20.3843Z" fill="#062652"/>
<path d="M106.285 29.763L105.273 28.7505C104.686 28.1642 104.527 27.7379 104.42 27.1517C104.42 26.5655 104.58 26.1391 105.166 25.7128L108.044 22.835C108.47 22.4086 109.056 22.0889 109.483 22.0889C110.069 22.0889 110.495 22.3553 111.082 22.835L112.094 23.8475C112.68 24.4337 112.84 24.8601 112.947 25.4463C112.947 26.0325 112.787 26.4589 112.201 26.8852L109.323 29.763C108.897 30.1894 108.31 30.5091 107.884 30.5091C107.298 30.5091 106.818 30.1894 106.285 29.763ZM106.392 27.8978L107.138 28.6439C107.298 28.8038 107.564 28.9103 107.724 28.9103C107.884 28.9103 107.991 28.7505 108.31 28.6439L111.082 25.8727C111.241 25.7128 111.348 25.4463 111.348 25.2864C111.348 25.1266 111.188 25.02 111.082 24.7002L110.335 23.9541C110.176 23.7942 109.909 23.6877 109.749 23.6877C109.589 23.6877 109.483 23.8475 109.163 23.9541L106.392 26.7253C106.232 26.8852 106.125 27.1517 106.125 27.3116C106.125 27.4714 106.285 27.578 106.392 27.8978Z" fill="#062652"/>
<path d="M109.751 33.6526L109.004 32.7999C108.845 32.6401 108.845 32.5335 109.004 32.3736L115.24 27.897C115.4 27.7371 115.506 27.7371 115.666 28.0569L116.412 28.9096C116.572 29.0695 116.572 29.176 116.412 29.3359L113.534 31.5209C113.694 31.5209 113.961 31.361 114.387 31.361H117.851C118.011 31.361 118.277 31.5209 118.437 31.6275L119.183 32.6401C119.183 32.7999 119.183 32.7999 119.183 32.7999H119.023L114.813 32.6401L113.055 37.4364C113.055 37.5963 112.895 37.5963 112.895 37.5963C112.895 37.5963 112.735 37.5963 112.735 37.4364L112.149 36.5837C111.989 36.3173 111.882 36.1574 111.989 35.8376L113.268 32.3736L111.989 32.2137L110.23 33.4927C110.017 33.8125 109.857 33.8125 109.751 33.6526Z" fill="#062652"/>
<path d="M115.402 42.9253L113.377 39.0349C113.217 38.8751 113.377 38.7685 113.537 38.6086L120.305 34.9847C120.465 34.8248 120.571 34.9847 120.731 35.1446L122.756 39.0349C122.916 39.1948 122.756 39.3014 122.596 39.4613L121.85 39.8876C121.69 40.0475 121.584 39.8876 121.424 39.7277L120.145 37.2763C120.145 37.1164 119.985 37.1164 119.985 37.1164L118.546 37.8625C118.386 37.8625 118.386 38.0224 118.546 38.0224L119.559 40.0475C119.719 40.2074 119.559 40.314 119.399 40.4738L118.653 40.9002C118.493 41.0601 118.386 40.9002 118.226 40.7403L117.214 38.7152C117.214 38.5553 117.054 38.5553 117.054 38.5553L115.455 39.408C115.295 39.408 115.295 39.5679 115.455 39.5679L116.734 42.0193C116.894 42.1792 116.734 42.2858 116.574 42.4457L115.722 43.0319C115.668 43.0852 115.508 43.0852 115.402 42.9253Z" fill="#062652"/>
<path d="M116.518 45.8025L116.092 44.63C116.092 44.4702 116.092 44.3636 116.252 44.3636L123.5 41.9121C123.659 41.9121 123.766 41.9121 123.766 42.072L124.779 45.1097C125.045 45.8558 125.045 46.3887 124.779 46.8683C124.619 47.2947 124.192 47.721 123.5 47.8809L122.647 48.1474C121.794 48.4138 121.048 48.3072 120.462 47.5611L118.277 49.8527C118.117 50.0126 118.01 50.0126 117.85 49.6929L117.584 48.6803C117.584 48.5204 117.424 48.4138 117.584 48.4138C117.584 48.2539 117.584 48.2539 117.744 48.1474L119.929 45.9624L119.662 45.1097C119.662 44.9498 119.503 44.9498 119.503 44.9498L117.051 45.8025C116.838 46.1222 116.678 45.9624 116.518 45.8025ZM120.888 44.7899L121.315 46.0689C121.474 46.3354 121.581 46.4953 121.741 46.6552C121.901 46.815 122.007 46.815 122.327 46.6552L123.18 46.3887C123.446 46.2288 123.606 46.2288 123.606 45.9624C123.606 45.8025 123.606 45.536 123.606 45.2163L123.18 43.9372C123.18 43.7774 123.02 43.7774 123.02 43.7774L120.995 44.5235C120.888 44.6833 120.728 44.7899 120.888 44.7899Z" fill="#062652"/>
<path d="M56.6738 115.824L56.9403 114.652C57.1002 114.225 57.3666 113.799 57.9529 113.479L60.9905 112.04C61.4169 111.774 61.7366 111.454 61.8432 111.187L62.0031 110.761C62.0031 110.495 62.0031 110.335 62.0031 110.175C61.8432 110.015 61.7366 109.908 61.4169 109.908L60.9905 109.749C60.7241 109.749 60.4043 109.749 60.2444 109.749C60.0846 109.908 59.978 110.015 59.978 110.335L59.8181 110.761C59.8181 110.921 59.6582 111.028 59.5516 110.921L58.3792 110.655C58.2193 110.655 58.1127 110.495 58.1127 110.388L58.2726 109.962C58.4325 109.216 58.699 108.789 59.2852 108.523C59.7115 108.256 60.2977 108.256 61.0438 108.363L62.0564 108.629C62.8025 108.789 63.3354 109.056 63.6552 109.482C63.9216 109.908 64.0815 110.495 63.9216 111.241L63.7618 111.827C63.6019 112.573 63.1755 112.999 62.5893 113.266L59.5516 114.705C59.3918 114.705 59.3918 114.865 59.2852 114.971V115.131L62.5893 115.877C62.7492 115.877 62.8558 116.037 62.8558 116.144L62.6959 116.996C62.6959 117.156 62.536 117.263 62.4294 117.156L57.5265 115.984C56.6738 116.09 56.6738 115.984 56.6738 115.824Z" fill="#062652"/>
<path d="M69.6764 118.115L68.2375 117.955C67.4914 117.955 66.9584 117.689 66.4788 117.369C66.0525 116.943 65.8926 116.517 65.8926 115.77L66.159 111.56C66.159 110.814 66.4255 110.388 66.9051 109.962C67.3315 109.695 67.9177 109.535 68.6638 109.535L70.1027 109.695C70.8488 109.695 71.3817 109.962 71.8614 110.441C72.2877 110.867 72.4476 111.294 72.4476 112.04L72.1811 116.25C72.1811 116.996 71.9147 117.422 71.435 117.849C70.9554 118.009 70.4225 118.115 69.6764 118.115ZM68.6638 116.676H69.5165C69.783 116.676 70.1027 116.676 70.1027 116.517C70.2626 116.357 70.2626 116.25 70.2626 115.93L70.5291 111.88C70.5291 111.614 70.529 111.454 70.3692 111.294C70.2093 111.134 70.1027 111.134 69.783 111.134H68.9303C68.6638 111.134 68.344 111.134 68.344 111.294C68.0776 111.294 68.0776 111.454 68.0776 111.72L67.8111 115.77C67.8111 116.037 67.8111 116.197 67.971 116.357C68.0776 116.517 68.3973 116.676 68.6638 116.676Z" fill="#062652"/>
<path d="M75.7483 117.849L75.5884 116.57C75.5884 116.144 75.7483 115.557 76.1747 115.291L78.4663 112.999C78.8926 112.573 79.0525 112.253 78.8926 111.827V111.401C78.8926 111.134 78.7327 110.974 78.6261 110.814C78.4662 110.654 78.1998 110.654 77.88 110.654H77.4537C77.1872 110.654 77.0273 110.814 76.8675 110.921C76.7076 111.187 76.7076 111.347 76.7076 111.667V112.093C76.7076 112.253 76.7076 112.36 76.4411 112.36L75.2687 112.52C75.1088 112.52 75.0022 112.52 75.0022 112.253V111.827C74.8423 111.081 75.0022 110.548 75.4286 110.228C75.695 109.802 76.2812 109.482 77.0273 109.482L78.0399 109.322C78.786 109.162 79.3189 109.322 79.7986 109.589C80.2249 109.855 80.5447 110.441 80.5447 111.027V111.614C80.7046 112.36 80.3848 112.893 79.9584 113.372L77.6669 115.824C77.507 115.984 77.507 116.09 77.507 116.09V116.25L80.8111 115.824C80.971 115.824 81.0776 115.824 81.0776 116.09L81.2375 116.943C81.2375 117.103 81.2375 117.209 80.971 117.209L75.9082 117.796C75.9082 118.115 75.9082 118.009 75.7483 117.849Z" fill="#062652"/>
<path d="M83.1044 110.921L82.8379 109.908C82.8379 109.748 82.8379 109.642 82.9978 109.482L84.0103 108.469C84.1702 108.31 84.2768 108.203 84.4367 108.203L85.6091 107.937C85.769 107.937 85.8756 107.937 85.8756 108.096L88.0606 115.771C88.0606 115.93 88.0606 115.93 88.0606 116.037L87.9007 116.197L86.7283 116.463C86.5684 116.463 86.4618 116.463 86.4618 116.303L84.7031 110.068L83.5307 111.241C83.2642 111.028 83.1044 111.028 83.1044 110.921Z" fill="#062652"/>
<path d="M100.212 105.858C99.1993 106.444 98.027 107.031 96.9079 107.617C96.0553 108.043 95.0429 108.629 94.1369 109.055C93.8705 109.215 93.3909 109.055 93.3909 108.789L93.231 108.523C93.0712 108.256 93.231 107.936 93.4975 107.777C95.6823 107.031 97.7072 106.178 99.5723 105.165C101.757 103.993 103.782 102.554 105.647 101.116C107.512 99.6767 109.431 97.9182 110.976 96.0531C112.575 94.188 114.173 92.2696 115.452 90.2447C116.731 88.2197 117.904 86.0349 118.916 83.7435C119.929 81.4521 120.675 79.1074 121.367 76.816C121.953 74.5246 122.38 72.02 122.646 69.5688C122.806 67.1175 122.913 64.7728 122.806 62.3216C120.195 61.1492 121.048 59.444 121.207 59.0177C121.474 58.2716 121.474 56.5664 121.474 56.5664C122.22 56.9927 123.659 58.0052 123.925 59.7637C124.192 61.3624 123.073 62.215 122.913 62.3748C123.073 64.8261 123.073 67.1708 122.753 69.6221C122.433 72.0733 122.007 74.5246 121.474 76.8693C120.941 79.214 120.035 81.6652 119.182 83.7968C118.17 86.0882 116.998 88.273 115.719 90.298C114.44 92.4828 112.948 94.3479 111.243 96.213C109.644 98.0781 107.939 99.8366 105.914 101.435C104.368 103.247 102.343 104.526 100.212 105.858ZM99.6256 107.137C99.6256 107.137 102.823 111.027 106.873 109.748C110.923 108.469 111.509 105.698 111.509 105.698C111.509 105.698 108.205 105.272 106.18 104.419C104.262 103.407 100.798 104.952 99.6256 107.137ZM102.503 99.357C102.237 97.7583 101.651 96.4794 101.064 95.5735C101.064 95.5735 99.6256 97.7583 98.4533 99.1971C97.0145 100.956 97.7073 103.673 98.8796 105.006C98.8796 104.846 103.249 103.513 102.503 99.357ZM114.919 97.332C112.468 97.0656 109.431 99.6234 109.271 101.648C109.271 101.648 111.882 103.833 115.346 102.661C118.809 101.648 119.822 97.1722 119.822 97.1722C119.822 97.1722 117.531 97.5985 114.919 97.332ZM107.139 99.0373C107.139 99.0373 113.054 95.9998 107.566 89.7651C107.566 89.7651 106.713 91.9499 105.807 93.9749C104.848 95.9998 106.713 98.7708 107.139 99.0373ZM120.461 88.3263C117.584 88.7526 116.412 91.79 116.252 93.3887C116.252 93.3887 119.449 94.9873 121.9 93.1223C124.351 91.2572 125.364 88.646 125.097 87.0474C125.204 87.0474 123.339 87.7401 120.461 88.3263ZM113.64 91.6835C113.64 91.6835 116.678 88.8059 114.067 84.756C113.64 84.1698 112.894 83.4771 112.202 82.9975C112.362 84.1698 111.456 85.4487 111.189 87.6335C110.87 90.3513 112.202 91.3637 113.64 91.6835ZM121.314 81.2389C120.568 82.0916 120.035 83.6902 120.461 84.7027C120.461 84.7027 123.232 85.5553 125.524 83.5303C127.122 82.0916 127.709 79.7469 127.389 77.2956C124.351 79.8001 123.499 78.5212 121.314 81.2389ZM123.019 75.9101C123.019 75.9101 128.668 76.1765 128.508 70.1017C128.508 69.6753 128.508 69.0892 128.348 68.6629C128.348 68.6629 126.749 69.8352 124.565 70.8477C122.593 71.7003 123.019 75.9101 123.019 75.9101ZM115.506 81.3988C115.665 83.2639 118.117 84.1698 118.117 84.1698C118.117 84.1698 119.396 82.4113 118.703 79.6936C118.277 78.2548 116.838 77.4022 115.506 76.816C115.665 77.6153 115.239 79.8002 115.506 81.3988ZM118.969 74.8976C120.568 75.9101 121.154 75.7502 121.154 75.7502C121.154 75.7502 122.593 72.4463 119.396 70.6878C118.65 70.4214 117.957 70.1017 117.371 69.9418C117.85 70.6878 117.531 74.045 118.969 74.8976ZM124.032 67.8103C124.032 67.8103 128.934 67.5438 128.082 62.4814C128.082 62.0551 127.922 61.7354 127.815 61.3091C127.815 61.3091 126.643 62.4814 124.938 63.4939C123.232 64.5064 124.032 67.8103 124.032 67.8103ZM120.302 67.4905C121.58 68.3431 122.06 68.2366 122.06 68.2366C122.06 68.2366 123.232 65.4656 120.621 64.1866C120.035 63.9202 119.449 63.7603 118.863 63.6005C119.289 64.3465 119.129 66.9576 120.302 67.4905ZM44.6853 105.858C45.6978 106.444 46.8701 107.031 47.9892 107.617C48.8418 108.043 49.8543 108.629 50.7602 109.055C51.0266 109.215 51.5062 109.055 51.5062 108.789L51.6661 108.523C51.8259 108.256 51.6661 107.936 51.3996 107.777C49.2148 107.031 47.1898 106.178 45.3248 105.165C43.1399 103.993 41.115 102.554 39.2499 101.116C37.3848 99.6767 35.4664 97.9182 33.921 96.0531C32.3224 94.188 30.7237 92.2696 29.4448 90.2447C28.1659 88.2197 26.9935 86.0349 25.9811 83.7435C24.8087 81.5587 23.9561 79.2673 23.3699 76.9226C22.7838 74.6312 22.3575 72.1266 22.091 69.6754C21.9312 67.2241 21.8246 64.8794 21.9311 62.4281C24.5423 61.2558 23.6897 59.5506 23.5298 59.1243C23.2634 58.3782 23.2634 56.673 23.2634 56.673C22.5173 57.0993 21.0785 58.1118 20.8121 59.8703C20.5456 61.4689 21.6647 62.3216 21.8246 62.4814C21.6647 64.9327 21.6647 67.2774 21.9844 69.7286C22.2509 72.1799 22.7305 74.6312 23.2634 76.9759C23.8495 79.2673 24.7022 81.7718 25.5548 83.9034C26.5672 86.1948 27.7396 88.3796 29.0185 90.4045C30.2974 92.5894 31.7895 94.4545 33.4947 96.3196C35.0934 98.1847 36.7986 99.9432 38.8236 101.542C40.4755 103.247 42.5005 104.526 44.6853 105.858ZM38.6104 104.419C36.5855 105.272 33.2816 105.698 33.2816 105.698C33.2816 105.698 33.8677 108.469 37.9177 109.748C41.9676 111.027 45.1649 107.137 45.1649 107.137C44.0991 104.952 40.6354 103.407 38.6104 104.419ZM45.9642 104.846C47.1366 103.673 47.8293 100.956 46.3905 99.0373C45.2182 97.5985 43.7794 95.4136 43.7794 95.4136C43.1932 96.4261 42.7669 97.5985 42.3406 99.1971C41.6479 103.513 45.9642 104.846 45.9642 104.846ZM24.862 97.0123C24.862 97.0123 25.8745 101.489 29.3382 102.501C32.802 103.513 35.4131 101.489 35.4131 101.489C35.2533 99.6234 32.3757 96.8524 29.7645 97.1722C27.3133 97.5985 24.862 97.0123 24.862 97.0123ZM39.0367 93.9749C38.0242 91.9499 37.2782 89.7651 37.2782 89.7651C31.7895 95.84 37.7045 99.0373 37.7045 99.0373C38.1308 98.7708 40.0492 95.9998 39.0367 93.9749ZM19.6398 87.0474C19.3733 88.646 20.3858 91.2572 22.8371 93.1223C25.2883 94.9873 28.4856 93.3887 28.4856 93.3887C28.3258 91.79 27.2067 88.7526 24.2758 88.3263C21.3983 87.9 19.6398 87.0474 19.6398 87.0474ZM33.548 87.4737C33.2816 85.2889 32.3757 84.0099 32.5355 82.8376C31.9494 83.2639 31.0967 84.0099 30.6704 84.5961C28.0593 88.646 31.0968 91.5236 31.0968 91.5236C32.6421 91.3637 33.9743 90.3513 33.548 87.4737ZM17.4549 77.5087C17.0286 79.96 17.6148 82.1448 19.32 83.7435C21.5048 85.7684 24.3824 84.9158 24.3824 84.9158C24.6489 83.9034 24.2225 82.3047 23.5298 81.4521C21.3983 78.5212 20.3858 79.8002 17.4549 77.5087ZM20.0661 70.8477C17.8812 69.9951 16.2826 68.6629 16.2826 68.6629C16.1227 69.0892 16.1227 69.5155 16.1227 70.1017C15.9629 76.1765 21.6114 75.9101 21.6114 75.9101C21.6114 75.9101 22.2509 71.7003 20.0661 70.8477ZM29.3382 76.7627C28.0593 77.3489 26.5672 78.2015 26.1409 79.6403C25.3949 82.4113 26.7271 84.1165 26.7271 84.1165C26.7271 84.1165 29.0185 83.2639 29.3382 81.3455C29.4981 79.8001 29.1784 77.6153 29.3382 76.7627ZM27.5797 69.8352C26.8337 69.9951 26.1409 70.2615 25.5548 70.5813C22.3575 72.3398 23.7962 75.6437 23.7962 75.6437C23.7962 75.6437 24.3824 75.8035 25.9811 74.791C27.1534 74.045 26.9935 70.6878 27.5797 69.8352ZM19.7996 63.4406C18.0411 62.4281 16.922 61.2558 16.922 61.2558C16.7622 61.5222 16.7622 62.0018 16.6556 62.4281C15.9096 67.4905 20.7055 67.757 20.7055 67.757C20.7055 67.757 21.6647 64.4531 19.7996 63.4406ZM25.8745 63.4406C25.2883 63.6005 24.7021 63.7071 24.116 64.0268C21.5048 65.3057 22.6772 68.0767 22.6772 68.0767C22.6772 68.0767 23.1035 68.2366 24.4357 67.3307C25.5548 66.9576 25.4482 64.3465 25.8745 63.4406Z" fill="#7473AD"/>
<path d="M123.34 113.798L122.914 113.372C136.503 99.7833 144.016 81.8251 144.016 62.7478C144.016 43.7772 136.662 25.8723 123.181 12.4436L123.607 11.8574C137.195 25.446 144.602 43.5107 144.602 62.7478C144.602 81.985 137.089 100.21 123.34 113.798Z" fill="#7473AD" fill-opacity="0.3"/>
<path d="M106.288 122.324L106.021 121.738C127.124 109.748 140.446 87.0473 140.446 62.7478C140.446 38.4483 127.23 15.9073 106.128 3.75756L106.395 3.17139C127.657 15.481 140.979 38.1819 140.979 62.7478C140.979 87.3138 127.657 110.174 106.288 122.324Z" fill="#7473AD" fill-opacity="0.5"/>
<path d="M88.062 124.616L87.9021 124.03C115.985 116.942 135.648 91.79 135.648 62.8544C135.648 33.9188 116.092 8.82001 88.062 1.73266L88.2218 1.14648C116.411 8.39371 136.235 33.8123 136.235 62.9077C136.181 91.9499 116.411 117.422 88.062 124.616Z" fill="#7473AD"/>
<path d="M21.5045 113.798C7.75609 100.21 0.242432 81.985 0.242432 62.7478C0.242432 43.5107 7.59623 25.6058 21.2381 11.8574L21.6644 12.2837C8.23568 25.8723 0.828591 43.8305 0.828591 62.7478C0.828591 81.8251 8.34226 99.8899 21.9308 113.372L21.5045 113.798Z" fill="#7473AD" fill-opacity="0.3"/>
<path d="M38.6085 122.324C17.1865 110.174 3.91772 87.3138 3.91772 62.7478C3.91772 38.2884 17.2398 15.481 38.5019 3.17139L38.7683 3.75756C17.6661 15.9073 4.5039 38.4483 4.5039 62.7478C4.5039 87.0473 17.826 109.748 38.9282 121.898L38.6085 122.324Z" fill="#7473AD" fill-opacity="0.5"/>
<path d="M56.7801 124.616C28.4307 117.368 8.60742 91.9499 8.60742 62.6946C8.60742 33.4392 28.2708 8.02066 56.6203 0.773438L56.7801 1.35961C28.857 8.60683 9.1936 33.759 9.1936 62.6946C9.1936 91.6302 28.857 116.782 56.94 123.87L56.7801 124.616Z" fill="#7473AD"/>
<path d="M72.4481 103.407C50.0137 103.407 31.7891 85.1823 31.7891 62.7479C31.7891 40.3135 50.0137 22.0889 72.4481 22.0889C94.8825 22.0889 113.107 40.3135 113.107 62.7479C113.107 85.1823 94.8293 103.407 72.4481 103.407ZM72.4481 22.8349C50.44 22.8349 32.5351 40.7931 32.5351 62.7479C32.5351 84.7027 50.3334 102.661 72.4481 102.661C94.4562 102.661 112.361 84.7027 112.361 62.7479C112.361 40.7931 94.4029 22.8349 72.4481 22.8349Z" fill="#7473AD"/>
<path d="M60.5625 85.2888H83.4232L78.0944 79.8001H73.2984L74.5774 60.9893L72.5524 58.9644L69.7814 60.9893L70.7939 79.8001H65.9979L60.5625 85.2888Z" fill="url(#paint0_linear_7283_2074)"/>
<path fill-rule="evenodd" clip-rule="evenodd" d="M68.5033 54.9143L57.3661 43.6171H59.8173L70.6881 54.7544L63.7607 61.8418L68.5033 54.9143ZM87.7405 66.3713L76.4433 54.8077L80.7597 47.5605L73.6723 54.8077L84.8096 66.3713H87.7405ZM81.8254 66.3713L72.2868 56.4063L57.0996 72.1797L72.5533 59.2839L79.4808 66.3713H81.8254ZM62.7482 43.6704L72.1269 53.3689L87.5806 37.3291L71.9671 50.438L65.6258 43.6171H62.7482V43.6704Z" fill="url(#paint1_linear_7283_2074)"/>
<defs>
<linearGradient id="paint0_linear_7283_2074" x1="72.0656" y1="81.8731" x2="72.5722" y2="58.9357" gradientUnits="userSpaceOnUse">
<stop stop-color="#3D82F7"/>
<stop offset="0.5775" stop-color="#0D67F9"/>
<stop offset="1" stop-color="#0D49CC"/>
</linearGradient>
<linearGradient id="paint1_linear_7283_2074" x1="62.8907" y1="44.9237" x2="84.0902" y2="66.8636" gradientUnits="userSpaceOnUse">
<stop stop-color="#32D7F5"/>
<stop offset="0.5695" stop-color="#1D93F4"/>
<stop offset="1" stop-color="#0D67F9"/>
</linearGradient>
</defs>
</svg>
