<svg width="146" height="125" viewBox="0 0 146 125" fill="none" xmlns="http://www.w3.org/2000/svg">
<path fill-rule="evenodd" clip-rule="evenodd" d="M36.5394 99.8969C38.1762 101.425 39.9505 102.798 41.8399 103.999C43.6583 105.286 45.6393 106.327 47.7311 107.093L50.8244 108.422C51.7342 108.699 52.6226 109.042 53.4829 109.448C53.5497 109.48 53.6225 109.497 53.6966 109.5C53.7707 109.502 53.8444 109.489 53.9131 109.461C53.9818 109.433 54.044 109.391 54.0956 109.338C54.1473 109.285 54.1873 109.222 54.2131 109.152V108.857C54.2131 108.57 54.0654 108.274 53.77 108.274C51.7944 107.834 49.8697 107.191 48.0265 106.354C45.988 105.472 44.0187 104.438 42.1352 103.261C38.3659 100.908 35.0342 97.9182 32.2892 94.4242C30.9379 92.7201 29.7147 90.9183 28.6297 89.0334C27.5475 87.092 26.6095 85.0736 25.8236 82.9945C24.3315 78.8792 23.5007 74.5535 23.362 70.1782C25.5774 68.849 24.6913 67.5279 24.3959 67.0849C24.0666 66.4435 23.8659 65.7438 23.8051 65.0254C23.2879 65.3787 22.8506 65.8366 22.5213 66.3694C22.192 66.9022 21.9781 67.4981 21.8933 68.1187C21.8496 68.5358 21.9259 68.9566 22.1135 69.3317C22.301 69.7068 22.5919 70.0204 22.9518 70.2356C22.9939 70.2605 23.0326 70.2908 23.0667 70.3259C23.1672 72.5007 23.4139 74.6662 23.8051 76.8079C24.24 79.0082 24.8323 81.1744 25.5774 83.2899C26.3572 85.3702 27.2925 87.3889 28.3753 89.3288C29.4619 91.2816 30.6905 93.1519 32.0512 94.9247C33.3551 96.7459 34.8607 98.4139 36.5394 99.8969V99.8969ZM108.744 99.8969C107.104 101.425 105.327 102.798 103.435 103.999C101.621 105.286 99.6424 106.324 97.5523 107.085L94.459 108.414C93.5524 108.692 92.6667 109.035 91.8087 109.439C91.7413 109.472 91.6679 109.489 91.5933 109.492C91.5186 109.494 91.4443 109.481 91.3749 109.453C91.3055 109.426 91.2427 109.384 91.1903 109.331C91.1378 109.277 91.097 109.214 91.0703 109.144V108.849C91.0703 108.562 91.218 108.266 91.5134 108.266C93.4897 107.828 95.4147 107.185 97.2569 106.346C99.2989 105.466 101.271 104.432 103.156 103.253C106.928 100.904 110.261 97.9129 113.002 94.416C114.359 92.7166 115.585 90.9173 116.67 89.0334C117.753 87.0935 118.688 85.0749 119.468 82.9945C120.213 80.9293 120.805 78.8122 121.24 76.6602C121.64 74.5197 121.887 72.3536 121.979 70.1782C119.763 68.849 120.65 67.5279 120.945 67.0849C121.274 66.4435 121.475 65.7438 121.536 65.0254C122.052 65.3802 122.488 65.8384 122.817 66.371C123.146 66.9035 123.361 67.4987 123.447 68.1187C123.487 68.5353 123.409 68.9547 123.222 69.329C123.035 69.7034 122.746 70.0175 122.389 70.2356L122.266 70.3259C122.168 72.5005 121.924 74.666 121.536 76.8079C121.101 79.0082 120.509 81.1744 119.763 83.2899C118.191 87.4679 116.007 91.3889 113.281 94.9247C111.955 96.7501 110.424 98.4183 108.719 99.8969H108.744ZM103.296 111.384C99.4641 112.114 96.9615 108.438 96.9615 108.438C98.1348 106.518 101.376 105.493 103.148 106.518C104.668 107.2 106.244 107.749 107.858 108.159C107.858 108.159 107.095 110.654 103.296 111.392V111.384ZM100.178 101.669C100.096 100.447 99.7956 99.2494 99.2918 98.1329C99.2918 98.1329 97.8149 99.8969 96.6415 101.078C95.1646 102.547 95.6077 105.058 96.4938 106.231C96.4938 106.264 100.465 105.501 100.178 101.669ZM106.217 104.319C106.504 102.547 109.458 100.34 111.665 100.931C113.158 101.286 114.701 101.386 116.227 101.226C116.227 101.226 114.906 105.206 111.665 105.788C110.706 105.994 109.711 105.969 108.763 105.713C107.816 105.458 106.943 104.98 106.217 104.319V104.319ZM104.445 101.858C104.445 101.858 110.04 99.6426 105.626 93.6037C105.056 94.819 104.415 95.9998 103.706 97.14C102.68 98.8795 104.001 101.522 104.445 101.817V101.858ZM113.281 97.5831C113.429 96.2621 114.758 93.6036 117.384 93.4806C118.869 93.3293 120.343 93.0854 121.798 92.7504C121.946 94.0714 120.773 96.4262 118.418 97.9031C116.063 99.38 113.281 97.5421 113.281 97.5421V97.5831ZM110.927 95.819C110.927 95.819 114.02 93.6036 111.96 89.6324C111.597 88.9452 111.094 88.3415 110.483 87.8601C110.425 88.4335 110.258 88.9905 109.991 89.5011C109.633 90.2909 109.358 91.1159 109.171 91.9626C108.572 94.3011 109.597 95.3349 110.927 95.778V95.819ZM117.704 90.215C117.675 89.6456 117.765 89.0764 117.969 88.5438C118.172 88.0112 118.484 87.5268 118.885 87.1216C119.625 86.2892 120.611 85.7144 121.7 85.4806C122.751 85.205 123.744 84.7407 124.629 84.1104C124.754 85.1332 124.616 86.1709 124.228 87.1256C123.841 88.0803 123.216 88.9204 122.414 89.5668C121.735 90.0383 120.953 90.3396 120.133 90.4452C119.313 90.5509 118.48 90.4579 117.704 90.1739V90.215ZM120.945 82.4119C120.945 82.4119 126.098 83.1504 126.393 77.7022V76.373C125.267 77.0271 124.083 77.5765 122.857 78.014C120.797 78.6868 120.945 82.3709 120.945 82.3709V82.4119ZM115.603 89.4437C115.603 89.4437 113.544 88.4099 113.544 86.7935C113.568 85.8719 113.658 84.9533 113.815 84.0447V84.0447C113.904 83.5401 113.961 83.0304 113.987 82.5186L114.135 82.6253C115.136 83.3391 116.35 84.2007 116.49 85.4642C116.635 86.1524 116.631 86.8636 116.478 87.55C116.325 88.2365 116.027 88.8822 115.603 89.4437V89.4437ZM117.244 81.0417C118.574 82.2232 119.156 82.0755 119.156 82.0755C119.156 82.0755 120.797 79.1299 117.983 77.3658C117.457 76.9549 116.855 76.6536 116.211 76.4797C116.374 76.9965 116.447 77.538 116.424 78.0797C116.481 79.1874 116.522 80.492 117.244 81.0417ZM126.672 70.7361C126.761 71.3164 126.721 71.9093 126.553 72.4719C126.385 73.0345 126.095 73.5529 125.702 73.9894C125.309 74.426 124.825 74.7698 124.283 74.9962C123.741 75.2225 123.156 75.3257 122.57 75.2982C122.57 75.2982 122.126 72.0161 123.751 71.3269C124.734 70.8713 125.671 70.3217 126.549 69.6859C126.681 70.0193 126.729 70.3799 126.688 70.7361H126.672ZM119.156 74.7074C120.19 75.5935 120.633 75.4458 120.633 75.4458C121.001 74.8143 121.114 74.0664 120.949 73.3545C120.784 72.6425 120.354 72.0202 119.747 71.6141C119.287 71.3155 118.794 71.0705 118.278 70.8838C118.383 71.2858 118.438 71.6991 118.442 72.1146C118.524 73.0746 118.606 74.2643 119.173 74.7074H119.156ZM48.3219 108.447C48.3219 108.447 45.8193 112.122 41.9876 111.392C38.1558 110.662 37.4255 108.11 37.4255 108.11C39.0399 107.7 40.6156 107.151 42.1352 106.469C43.7598 105.501 47.1485 106.527 48.3219 108.447ZM45.967 98.1329C45.4631 99.2494 45.163 100.447 45.0809 101.669C44.7855 105.501 48.7649 106.231 48.7649 106.231C49.6511 105.058 50.0941 102.547 48.6172 101.078C47.4357 99.8969 45.967 98.1329 45.967 98.1329V98.1329ZM33.5938 100.931C35.8009 100.34 38.7466 102.572 39.0419 104.319C38.3161 104.98 37.4431 105.458 36.4956 105.713C35.548 105.969 34.5532 105.994 33.5938 105.788C30.3528 105.206 29.0236 101.226 29.0236 101.226C30.5527 101.386 32.0979 101.286 33.5938 100.931V100.931ZM39.6327 93.5462C35.2102 99.5852 40.8142 101.801 40.8142 101.801C41.1014 101.505 42.5783 98.8549 41.5445 97.0826C40.8411 95.9464 40.2028 94.7712 39.6327 93.5626V93.5462ZM27.8502 93.3985C30.5004 93.5462 31.8215 96.2047 31.9527 97.5011C31.9527 97.5011 29.1548 99.2734 26.8 97.7964C24.4451 96.3195 23.2636 93.9647 23.4113 92.6437C24.8735 92.9927 26.356 93.2502 27.8502 93.415V93.3985ZM33.1507 89.5749C31.0912 93.5462 34.1845 95.7616 34.1845 95.7616C35.5055 95.3185 36.5394 94.2847 35.9486 91.9298C35.7614 91.0831 35.4864 90.2581 35.1281 89.4683C34.8609 88.9577 34.6938 88.4007 34.6358 87.8273C34.0233 88.3055 33.5175 88.9063 33.1507 89.5914V89.5749ZM26.3733 87.0642C26.7744 87.4694 27.0866 87.9538 27.29 88.4864C27.4934 89.019 27.5836 89.5881 27.5548 90.1575C26.7792 90.445 25.9459 90.5421 25.1249 90.4408C24.304 90.3394 23.5193 90.0425 22.8369 89.5749C22.0372 88.9267 21.4151 88.086 21.0291 87.1317C20.643 86.1773 20.5056 85.1406 20.6298 84.1186C21.5004 84.7409 22.4843 85.1869 23.5261 85.4314C24.6259 85.6657 25.6229 86.2432 26.3733 87.0806V87.0642ZM18.8657 77.6448C19.1611 83.093 24.3138 82.3545 24.3138 82.3545C24.3138 82.3545 24.4615 78.6704 22.4021 77.9319C21.1755 77.4944 19.9917 76.9451 18.8657 76.2909V77.6448ZM31.6738 86.777C31.6738 88.4181 29.6143 89.4273 29.6143 89.4273C29.191 88.8657 28.8928 88.22 28.74 87.5336C28.5871 86.8472 28.5831 86.1359 28.7282 85.4478C28.8758 84.1842 30.082 83.3227 31.0912 82.6088L31.2389 82.5022C31.2604 83.0143 31.318 83.5243 31.4112 84.0284V84.0284C31.5655 84.9425 31.6532 85.8666 31.6738 86.7935V86.777ZM26.0779 82.0591C26.0779 82.0591 26.6687 82.2068 27.9979 81.0253C28.6297 80.4837 28.7035 79.2202 28.7774 78.1207C28.7729 77.5642 28.856 77.0104 29.0236 76.4797C28.3828 76.6556 27.7832 76.9568 27.2594 77.3658C24.4615 79.1299 26.0779 82.0755 26.0779 82.0755V82.0591ZM22.6892 75.2817C22.1024 75.3107 21.5164 75.2086 20.9739 74.9828C20.4315 74.757 19.9461 74.4131 19.5532 73.9762C19.1603 73.5393 18.8697 73.0203 18.7025 72.457C18.5353 71.8937 18.4958 71.3002 18.5867 70.7197C18.5519 70.3682 18.6025 70.0135 18.7344 69.6859C19.6105 70.3239 20.5478 70.8736 21.5323 71.3269C23.1323 72.0571 22.6892 75.2982 22.6892 75.2982V75.2817ZM24.6092 75.4294C24.6092 75.4294 25.0523 75.5771 26.0779 74.691C26.6523 74.2151 26.7343 73.0499 26.7918 72.0982C26.7976 71.6823 26.8555 71.2688 26.9641 70.8674C26.4456 71.0539 25.9501 71.2989 25.4872 71.5977C24.8783 72.0067 24.4485 72.6326 24.2853 73.3477C24.1222 74.0628 24.238 74.8132 24.6092 75.4458V75.4294Z" fill="#7473AD"/>
<path opacity="0.3" d="M124.039 113.6L123.596 113.156C137.026 99.792 144.602 81.642 144.657 62.6949C144.713 43.7478 137.243 25.5538 123.891 12.111L124.334 11.668C137.781 25.2406 145.3 43.5892 145.244 62.6947C145.189 81.8003 137.564 100.105 124.039 113.6V113.6Z" fill="#7473AD"/>
<path opacity="0.5" d="M106.799 122.141L106.512 121.55C116.955 115.635 125.646 107.062 131.703 96.7004C137.759 86.3388 140.965 74.5587 140.994 62.557C141.023 50.5553 137.875 38.7597 131.869 28.3689C125.863 17.978 117.213 9.36228 106.799 3.39703L107.094 2.81445C117.634 8.81942 126.392 17.5132 132.474 28.0086C138.556 38.504 141.745 50.4252 141.715 62.5555C141.685 74.6859 138.437 86.5911 132.303 97.0562C126.169 107.521 117.368 116.172 106.799 122.124V122.141Z" fill="#7473AD"/>
<path d="M88.6828 124.356L88.5352 123.766C102.15 120.307 114.225 112.414 122.855 101.331C131.485 90.2478 136.179 76.6065 136.196 62.5597C136.213 48.5129 131.552 34.8603 122.949 23.7566C114.345 12.6529 102.289 4.73035 88.6828 1.23918L88.8305 0.648438C102.579 4.16579 114.763 12.1635 123.459 23.3781C132.155 34.5927 136.867 48.385 136.85 62.5761C136.833 76.7673 132.089 90.5483 123.366 101.742C114.643 112.936 102.44 120.905 88.6828 124.389V124.356Z" fill="#7473AD"/>
<path opacity="0.3" d="M22.1063 113.6C8.58136 100.105 0.956059 81.8003 0.900694 62.6947C0.845329 43.5892 8.36443 25.2406 21.811 11.668L22.254 12.111C8.89858 25.5517 1.42657 43.7455 1.48042 62.6932C1.53427 81.6409 9.10956 99.7919 22.5412 113.156L22.1063 113.6Z" fill="#7473AD"/>
<path opacity="0.5" d="M39.3378 122.141C28.7835 116.2 19.9924 107.568 13.86 97.1237C7.72768 86.6794 4.47324 74.7964 4.42821 62.6849C4.38318 50.5735 7.54916 38.6665 13.6037 28.1769C19.6582 17.6873 28.3849 8.98991 38.8948 2.9707L39.1902 3.56149C28.8098 9.54159 20.1953 18.1601 14.22 28.5433C8.24479 38.9264 5.12132 50.7049 5.16631 62.6845C5.21129 74.6641 8.42313 86.4189 14.4762 96.7568C20.5292 107.095 29.2083 115.648 39.6332 121.55L39.3378 122.141Z" fill="#7473AD"/>
<path d="M57.4553 124.356C43.6998 120.867 31.4988 112.895 22.7799 101.698C14.0609 90.5012 9.32085 76.7187 9.30862 62.5275C9.29638 48.3364 14.0126 34.5457 22.7123 23.334C31.412 12.1222 43.5992 4.12853 57.3486 0.615723L57.4963 1.20651C43.8755 4.6862 31.8029 12.606 23.1865 23.7142C14.5701 34.8223 9.90137 48.4852 9.91831 62.5435C9.93525 76.6017 14.6369 90.2533 23.28 101.341C31.9232 112.428 44.0149 120.319 57.644 123.766L57.4553 124.356Z" fill="#7473AD"/>
<path d="M72.7813 102.629C64.813 102.615 57.028 100.238 50.4108 95.7982C43.7936 91.3589 38.6415 85.057 35.606 77.6895C32.5706 70.322 31.7881 62.2198 33.3576 54.4075C34.927 46.5953 38.778 39.4239 44.4233 33.8004C50.0687 28.1768 57.2549 24.3537 65.0731 22.8145C72.8914 21.2752 80.9905 22.089 88.3463 25.153C95.702 28.2169 101.984 33.3934 106.398 40.0277C110.811 46.662 113.158 54.4562 113.142 62.4246C113.084 73.0965 108.808 83.3124 101.247 90.8441C93.6858 98.3758 83.4534 102.612 72.7813 102.629V102.629ZM72.7813 22.6464C64.9451 22.648 57.2854 24.9732 50.7706 29.3279C44.2559 33.6827 39.1786 39.8714 36.181 47.1116C33.1833 54.3517 32.3998 62.3182 33.9296 70.0036C35.4594 77.6891 39.2336 84.7483 44.7752 90.2887C50.3169 95.8292 57.3769 99.602 65.0626 101.13C72.7484 102.658 80.7147 101.873 87.9542 98.8741C95.1938 95.8749 101.381 90.7964 105.735 84.2808C110.088 77.7651 112.412 70.1049 112.412 62.2687C112.384 51.7674 108.199 41.7044 100.773 34.2797C93.3464 26.8549 83.2826 22.6724 72.7813 22.6464V22.6464Z" fill="#7473AD"/>
<path d="M61.2852 85.1693H83.9722L78.5158 79.7211H73.6584L75.1353 61.0135L73.0676 58.9541L70.5651 61.0135L71.5989 79.7211H66.7333L61.2852 85.1693Z" fill="url(#paint0_linear_7283_1124)"/>
<path fill-rule="evenodd" clip-rule="evenodd" d="M69.246 55.1223L58.1692 43.906H60.6717L71.4286 54.9582L64.5035 61.8833L69.246 55.1223ZM88.2408 66.3141L77.0491 54.827L81.3239 47.7542L74.2511 54.9747L85.2952 66.4618L88.2408 66.3141ZM82.4972 66.3141L73.0696 56.468L57.8984 72.0576L73.2173 59.389L80.1424 66.4618L82.4972 66.3141ZM63.4943 43.7748L72.9383 53.3501L88.2572 37.4404L72.7906 50.4044L66.4563 43.7748H63.4943Z" fill="url(#paint1_linear_7283_1124)"/>
<path d="M26.8581 49.3377L19.6869 46.6957C19.6505 46.6857 19.617 46.6675 19.5888 46.6425C19.5605 46.6175 19.5384 46.5864 19.5242 46.5515C19.5099 46.5166 19.5038 46.4789 19.5064 46.4413C19.509 46.4037 19.5202 46.3672 19.5392 46.3346L20.6715 43.2741C20.8407 42.6964 21.2255 42.2058 21.7463 41.9039C22.0039 41.7864 22.2837 41.7256 22.5668 41.7256C22.8499 41.7256 23.1297 41.7864 23.3873 41.9039L23.8714 42.0844C24.1818 42.176 24.4483 42.3768 24.6218 42.6499C24.7953 42.923 24.864 43.2497 24.815 43.5695C24.9631 43.2745 25.2058 43.0377 25.5042 42.8967C25.6642 42.8301 25.8356 42.7958 26.0089 42.7958C26.1821 42.7958 26.3536 42.8301 26.5135 42.8967L27.2273 43.1593C27.4977 43.2394 27.7476 43.3769 27.96 43.5624C28.1724 43.7479 28.3423 43.977 28.4581 44.2341C28.6562 44.7987 28.6327 45.4174 28.3924 45.9654L27.2109 49.149C27.1398 49.3404 27.0222 49.4033 26.8581 49.3377ZM23.1986 45.99L23.7073 44.7264C23.8 44.5204 23.8203 44.289 23.7648 44.07C23.7232 43.9737 23.6602 43.8882 23.5806 43.82C23.5009 43.7517 23.4068 43.7025 23.3053 43.6761L22.8376 43.5039C22.7436 43.461 22.6415 43.4388 22.5381 43.4388C22.4348 43.4388 22.3326 43.461 22.2386 43.5039C22.0543 43.632 21.9208 43.8207 21.8612 44.0372L21.3771 45.35C21.3771 45.4485 21.3771 45.5059 21.4592 45.5387L23.0427 46.1213C23.0621 46.1268 23.0825 46.1274 23.1021 46.1231C23.1218 46.1189 23.1401 46.11 23.1555 46.097C23.1709 46.084 23.1828 46.0675 23.1904 46.0489C23.1979 46.0302 23.2007 46.01 23.1986 45.99V45.99ZM26.4807 47.2044L27.014 45.7767C27.1106 45.5688 27.1309 45.3334 27.0714 45.112C27.0265 45.0198 26.9621 44.9383 26.8828 44.8732C26.8036 44.8081 26.7112 44.7608 26.6119 44.7346L25.9227 44.4803C25.8287 44.4374 25.7265 44.4152 25.6232 44.4152C25.5199 44.4152 25.4178 44.4374 25.3237 44.4803C25.1354 44.624 24.9998 44.8259 24.9381 45.0546L24.4212 46.4577C24.4119 46.4751 24.4066 46.4945 24.4058 46.5143C24.405 46.534 24.4087 46.5537 24.4166 46.5719C24.4245 46.59 24.4364 46.6062 24.4514 46.6191C24.4664 46.632 24.4841 46.6413 24.5032 46.6464L26.3001 47.311C26.3986 47.3356 26.456 47.3028 26.4889 47.1879L26.4807 47.2044Z" fill="#062652"/>
<path d="M31.9861 38.5477L29.8774 42.4533C29.865 42.4888 29.8446 42.5209 29.8178 42.5473C29.791 42.5736 29.7586 42.5935 29.723 42.6054C29.6873 42.6173 29.6494 42.6209 29.6122 42.6158C29.575 42.6108 29.5394 42.5973 29.5082 42.5764L22.7882 38.9826C22.7515 38.9691 22.7185 38.9471 22.692 38.9183C22.6655 38.8895 22.6463 38.8549 22.6358 38.8172C22.6254 38.7795 22.6241 38.7398 22.6321 38.7016C22.64 38.6633 22.657 38.6274 22.6815 38.597L24.7984 34.6914C24.8107 34.6568 24.8309 34.6256 24.8572 34.6001C24.8836 34.5746 24.9155 34.5555 24.9505 34.5444C24.9854 34.5333 25.0225 34.5304 25.0587 34.536C25.095 34.5415 25.1295 34.5554 25.1595 34.5765L25.9226 34.9867C25.9566 35.0009 25.9871 35.0225 26.0117 35.05C26.0363 35.0776 26.0543 35.1103 26.0646 35.1457C26.0748 35.1812 26.077 35.2185 26.0708 35.2549C26.0647 35.2913 26.0505 35.3258 26.0292 35.356L24.6754 37.8585C24.6261 37.9488 24.6754 38.0226 24.7246 38.0636L26.1769 38.8841C26.259 38.9252 26.3246 38.8842 26.3738 38.8021L27.4815 36.759C27.494 36.7236 27.5143 36.6915 27.5411 36.6651C27.5679 36.6388 27.6003 36.6188 27.636 36.607C27.6716 36.5951 27.7095 36.5915 27.7467 36.5965C27.7839 36.6016 27.8195 36.6151 27.8507 36.636L28.6138 37.0462C28.6485 37.0609 28.6794 37.0834 28.704 37.1119C28.7286 37.1404 28.7464 37.1742 28.7559 37.2107C28.7654 37.2471 28.7664 37.2853 28.7589 37.3223C28.7513 37.3592 28.7354 37.3938 28.7123 37.4236L27.6046 39.4749C27.5554 39.5651 27.6046 39.639 27.6538 39.68L29.2046 40.5005C29.2866 40.5497 29.3523 40.5005 29.4097 40.4267L30.7553 37.9242C30.7695 37.8901 30.7911 37.8596 30.8187 37.835C30.8462 37.8104 30.8789 37.7924 30.9143 37.7821C30.9498 37.7719 30.9871 37.7698 31.0235 37.7759C31.0599 37.782 31.0944 37.7962 31.1246 37.8175L31.8794 38.2277C31.9075 38.2417 31.9325 38.261 31.9531 38.2847C31.9737 38.3083 31.9894 38.3358 31.9993 38.3656C32.0092 38.3953 32.0131 38.4267 32.0109 38.458C32.0086 38.4892 32.0002 38.5197 31.9861 38.5477V38.5477Z" fill="#062652"/>
<path d="M30.9609 36.1927L30.7558 36.0451C30.7268 36.022 30.7033 35.9927 30.6872 35.9593C30.671 35.9259 30.6627 35.8893 30.6627 35.8522C30.6627 35.8152 30.671 35.7786 30.6872 35.7452C30.7033 35.7118 30.7268 35.6825 30.7558 35.6594L31.4368 34.7241C31.4544 34.6906 31.4795 34.6615 31.5102 34.6393C31.5408 34.6171 31.5761 34.6022 31.6134 34.5959C31.6507 34.5895 31.689 34.5919 31.7252 34.6027C31.7615 34.6135 31.7948 34.6326 31.8225 34.6584L31.9045 34.7158C31.993 34.796 32.0967 34.8577 32.2095 34.8971C32.3222 34.9366 32.4417 34.9531 32.5609 34.9456C32.8058 34.8488 33.0109 34.6725 33.1435 34.4451L33.5209 33.9282C33.6983 33.7351 33.8002 33.4846 33.8081 33.2225C33.7772 33.0984 33.7213 32.982 33.6437 32.8804C33.566 32.7788 33.4684 32.6942 33.3568 32.6318L33.2337 32.5415C33.1447 32.4708 33.038 32.4257 32.9252 32.4113C32.8124 32.3968 32.6977 32.4135 32.5937 32.4594C32.3383 32.5757 32.1114 32.7465 31.9291 32.9599C31.7036 33.223 31.4625 33.4724 31.2071 33.7066C30.9477 33.9425 30.6736 34.1617 30.3866 34.363C30.0883 34.5577 29.7312 34.6419 29.3774 34.601C28.9262 34.5552 28.4984 34.3783 28.1466 34.0922L27.7856 33.8297C27.5462 33.6774 27.3435 33.4741 27.1917 33.2344C27.0399 32.9947 26.9429 32.7246 26.9076 32.4431C26.8761 31.8475 27.0694 31.2619 27.4492 30.8021L28.2697 29.7108C28.6031 29.2048 29.1114 28.8396 29.6973 28.6851C29.9783 28.6393 30.2659 28.6543 30.5406 28.7294C30.8152 28.8044 31.0705 28.9376 31.2891 29.12L31.4861 29.2595C31.5198 29.2783 31.5487 29.3048 31.5703 29.3369C31.5919 29.3689 31.6056 29.4056 31.6104 29.4439C31.6152 29.4823 31.6109 29.5212 31.5979 29.5576C31.5848 29.594 31.5634 29.6268 31.5353 29.6533L30.8461 30.5805C30.8292 30.6146 30.8047 30.6443 30.7745 30.6674C30.7442 30.6904 30.709 30.7062 30.6716 30.7134C30.6343 30.7205 30.5957 30.7189 30.5591 30.7087C30.5224 30.6984 30.4887 30.6798 30.4604 30.6543L30.403 30.6051C30.3142 30.5224 30.2094 30.4587 30.0952 30.4178C29.9809 30.3769 29.8595 30.3597 29.7384 30.3672C29.4935 30.4639 29.2884 30.6402 29.1558 30.8677L28.8358 31.2943C28.6534 31.4908 28.551 31.7483 28.5486 32.0164C28.6338 32.2763 28.8121 32.4955 29.0492 32.6318L29.2461 32.7795C29.5661 33.0092 29.9763 32.8451 30.4604 32.2872C30.9138 31.75 31.4415 31.2803 32.0276 30.8923C32.3318 30.7042 32.689 30.6207 33.045 30.6543C33.4838 30.6921 33.9011 30.8608 34.243 31.1384L34.5876 31.3928C34.8272 31.5476 35.0304 31.7524 35.1834 31.9932C35.3363 32.234 35.4354 32.505 35.4737 32.7877C35.5069 33.3834 35.3134 33.9697 34.9322 34.4287L34.0542 35.6266C33.7237 36.132 33.2133 36.4928 32.6266 36.6358C32.3335 36.6931 32.0313 36.683 31.7427 36.6062C31.4541 36.5294 31.1868 36.388 30.9609 36.1927V36.1927Z" fill="#062652"/>
<path d="M38.9447 29.7193L38.1241 30.5398C37.9847 30.6793 37.8534 30.6957 37.7303 30.5398L33.1519 26.1173C33.1396 26.1019 33.124 26.0894 33.1062 26.0809C33.0884 26.0724 33.069 26.0679 33.0493 26.0679C33.0296 26.0679 33.0102 26.0724 32.9924 26.0809C32.9746 26.0894 32.959 26.1019 32.9467 26.1173L31.9129 27.2659C31.8908 27.2964 31.8619 27.3213 31.8283 27.3384C31.7948 27.3555 31.7577 27.3645 31.7201 27.3645C31.6825 27.3645 31.6453 27.3555 31.6118 27.3384C31.5783 27.3213 31.5493 27.2964 31.5273 27.2659L30.9037 26.6588C30.8746 26.6357 30.8512 26.6064 30.835 26.573C30.8189 26.5396 30.8105 26.503 30.8105 26.466C30.8105 26.4289 30.8189 26.3923 30.835 26.3589C30.8512 26.3255 30.8746 26.2962 30.9037 26.2732L34.4729 22.5809C34.4958 22.5503 34.5255 22.5255 34.5597 22.5084C34.5939 22.4913 34.6316 22.4824 34.6698 22.4824C34.708 22.4824 34.7457 22.4913 34.7799 22.5084C34.8141 22.5255 34.8438 22.5503 34.8667 22.5809L35.4821 23.1798C35.5127 23.2028 35.5375 23.2325 35.5546 23.2667C35.5717 23.3009 35.5806 23.3385 35.5806 23.3767C35.5806 23.415 35.5717 23.4526 35.5546 23.4868C35.5375 23.521 35.5127 23.5507 35.4821 23.5737L34.3744 24.6896C34.3575 24.7017 34.3437 24.7178 34.3342 24.7363C34.3246 24.7549 34.3197 24.7754 34.3197 24.7963C34.3197 24.8171 34.3246 24.8377 34.3342 24.8562C34.3437 24.8748 34.3575 24.8908 34.3744 24.9029L38.9528 29.3254C38.9815 29.3499 39.0044 29.3804 39.0199 29.4148C39.0353 29.4492 39.0429 29.4866 39.0421 29.5243C39.0413 29.562 39.0322 29.599 39.0153 29.6328C38.9985 29.6665 38.9743 29.6961 38.9447 29.7193V29.7193Z" fill="#062652"/>
<path d="M46.3605 23.59L45.1462 24.4105C44.6813 24.7778 44.0964 24.9592 43.5052 24.9192C43.2256 24.8697 42.96 24.7605 42.7263 24.5991C42.4927 24.4377 42.2966 24.2278 42.1514 23.9838L39.8539 20.7018C39.6692 20.4754 39.5379 20.2104 39.4697 19.9263C39.4015 19.6422 39.3982 19.3463 39.4601 19.0608C39.6224 18.4801 40.0012 17.9839 40.5185 17.6742L41.7329 16.8537C42.1975 16.4864 42.7834 16.3077 43.3739 16.3531C43.6524 16.3998 43.9176 16.5061 44.1512 16.6647C44.3849 16.8233 44.5815 17.0305 44.7277 17.2721L45.0724 17.7644C45.099 17.7946 45.118 17.8306 45.128 17.8696C45.138 17.9085 45.1387 17.9493 45.1298 17.9885C45.121 18.0277 45.1031 18.0643 45.0774 18.0953C45.0517 18.1262 45.019 18.1506 44.9821 18.1665L44.0467 18.8147C44.019 18.8421 43.9852 18.8626 43.948 18.8744C43.9109 18.8862 43.8715 18.889 43.833 18.8826C43.7945 18.8762 43.7582 18.8608 43.7268 18.8375C43.6955 18.8143 43.6702 18.784 43.6529 18.7491L43.3575 18.3224C43.2495 18.1418 43.0761 18.0096 42.8734 17.9531C42.6527 17.9449 42.4367 18.0179 42.2662 18.1583L41.5114 18.6916C41.3231 18.7989 41.1802 18.9709 41.1093 19.1757C41.0989 19.2787 41.1095 19.3827 41.1405 19.4814C41.1715 19.5802 41.2223 19.6716 41.2898 19.7501L43.497 22.9418C43.605 23.1224 43.7783 23.2546 43.9811 23.3111C44.1973 23.3234 44.4097 23.2496 44.5718 23.1059L45.3349 22.5808C45.5268 22.4718 45.6726 22.2969 45.7452 22.0885C45.7621 21.8783 45.6974 21.6697 45.5647 21.5059L45.2693 21.0793C45.2438 21.0503 45.2252 21.0158 45.215 20.9786C45.2047 20.9414 45.2031 20.9023 45.2102 20.8644C45.2173 20.8264 45.233 20.7906 45.256 20.7596C45.279 20.7286 45.3088 20.7032 45.3431 20.6854L46.2785 20.0372C46.3072 20.0094 46.3418 19.9886 46.3798 19.9762C46.4178 19.9638 46.4581 19.9602 46.4976 19.9657C46.5372 19.9713 46.575 19.9858 46.6081 20.0081C46.6412 20.0305 46.6688 20.06 46.6888 20.0946L47.0252 20.587C47.2014 20.8083 47.3271 21.0654 47.3937 21.3403C47.4603 21.6152 47.4662 21.9014 47.4108 22.1788C47.2586 22.7683 46.8816 23.2749 46.3605 23.59V23.59Z" fill="#062652"/>
<path d="M50.5549 21.0957L49.5293 21.6208C49.4984 21.6435 49.4627 21.6587 49.4249 21.6652C49.3872 21.6716 49.3484 21.6692 49.3118 21.658C49.2751 21.6469 49.2416 21.6273 49.2138 21.6009C49.1861 21.5745 49.1649 21.542 49.1519 21.506L45.6811 14.7039C45.5991 14.548 45.6811 14.425 45.8206 14.3347L49.677 12.3655C49.7077 12.3444 49.7427 12.3306 49.7795 12.325C49.8163 12.3195 49.8539 12.3223 49.8895 12.3334C49.925 12.3444 49.9576 12.3634 49.9847 12.3888C50.0119 12.4143 50.0329 12.4456 50.0462 12.4804L50.4319 13.2517C50.453 13.2817 50.4668 13.3161 50.4724 13.3524C50.478 13.3886 50.4751 13.4257 50.4639 13.4607C50.4528 13.4956 50.4338 13.5275 50.4083 13.5539C50.3828 13.5803 50.3515 13.6004 50.317 13.6127L47.8555 14.8517C47.757 14.9009 47.7324 14.9665 47.7734 15.0486L48.6678 16.8044C48.6751 16.8248 48.6871 16.8432 48.7027 16.8582C48.7184 16.8731 48.7373 16.8842 48.758 16.8906C48.7787 16.897 48.8006 16.8984 48.822 16.8949C48.8433 16.8913 48.8636 16.8828 48.8811 16.8701L50.957 15.8116C50.9871 15.7889 51.0223 15.7736 51.0595 15.7671C51.0967 15.7606 51.135 15.7631 51.1711 15.7743C51.2072 15.7855 51.2401 15.8052 51.267 15.8317C51.294 15.8581 51.3143 15.8907 51.3262 15.9265L51.7118 16.6814C51.7344 16.7128 51.7492 16.749 51.7552 16.7872C51.7611 16.8255 51.7579 16.8645 51.7459 16.9013C51.7339 16.938 51.7135 16.9715 51.6862 16.9988C51.6589 17.0262 51.6255 17.0468 51.5888 17.0588L49.5211 18.1173C49.4226 18.1665 49.3898 18.2321 49.439 18.3142L50.6616 20.7265C50.6829 20.7566 50.6971 20.7912 50.7032 20.8276C50.7093 20.864 50.7072 20.9013 50.697 20.9367C50.6867 20.9722 50.6686 21.0048 50.644 21.0324C50.6195 21.0599 50.589 21.0816 50.5549 21.0957V21.0957Z" fill="#062652"/>
<path d="M54.4029 18.8968L51.9003 11.6763C51.8429 11.5122 51.9003 11.3974 52.0808 11.3317L55.2562 10.2323C55.8149 10.0111 56.437 10.0111 56.9957 10.2323C57.2505 10.3553 57.4765 10.5306 57.6589 10.747C57.8413 10.9633 57.976 11.2157 58.0541 11.4876L59.3669 15.2948C59.4771 15.5561 59.529 15.8382 59.5191 16.1216C59.5092 16.405 59.4377 16.6829 59.3095 16.9358C59.0002 17.4484 58.5073 17.8239 57.931 17.986L54.7557 19.0855C54.5752 19.1184 54.4603 19.0691 54.4029 18.8968ZM55.8059 17.2558L57.2008 16.7717C57.4176 16.7225 57.6079 16.5936 57.7341 16.4107C57.8118 16.2157 57.8118 15.9985 57.7341 15.8035L56.4624 12.1359C56.4079 11.9345 56.2788 11.7613 56.1013 11.6517C55.8904 11.585 55.6621 11.5997 55.4613 11.6928L54.0583 12.1769C54.0387 12.1798 54.02 12.1873 54.004 12.1989C53.9879 12.2105 53.9749 12.2259 53.9661 12.2436C53.9572 12.2613 53.9528 12.2809 53.9531 12.3007C53.9534 12.3205 53.9586 12.34 53.968 12.3574L55.609 17.1737C55.6501 17.223 55.7075 17.2476 55.8059 17.2148V17.2558Z" fill="#062652"/>
<path d="M64.2064 16.0085L63.3039 8.41881C63.2963 8.38193 63.2973 8.34383 63.3067 8.30738C63.3162 8.27094 63.3339 8.23716 63.3584 8.20863C63.383 8.18009 63.4138 8.15754 63.4484 8.14277C63.4831 8.128 63.5206 8.12141 63.5582 8.12344L66.7992 7.73778C67.3902 7.62454 68.0021 7.74518 68.5059 8.07421C68.7286 8.24668 68.9119 8.46473 69.0435 8.71378C69.1751 8.96283 69.252 9.23714 69.269 9.51831L69.3264 10.0352C69.3857 10.3536 69.3267 10.6827 69.1606 10.9607C68.9944 11.2387 68.7324 11.4465 68.4238 11.5449C68.7565 11.5424 69.0803 11.6523 69.3428 11.8567C69.6011 12.0919 69.7572 12.4188 69.7777 12.7675L69.8679 13.5306C69.9176 13.8079 69.9074 14.0927 69.8381 14.3658C69.7688 14.6389 69.6418 14.8941 69.4659 15.1141C69.0527 15.5431 68.4932 15.8008 67.8987 15.8362L64.5182 16.2383C64.4823 16.2482 64.4445 16.2499 64.4078 16.2431C64.3711 16.2364 64.3365 16.2213 64.3064 16.1992C64.2764 16.1771 64.2518 16.1484 64.2345 16.1154C64.2172 16.0823 64.2075 16.0458 64.2064 16.0085V16.0085ZM65.5274 11.2249L66.9059 11.0608C67.1334 11.053 67.3511 10.966 67.5213 10.8147C67.5865 10.7342 67.6323 10.6398 67.6551 10.5388C67.6779 10.4377 67.677 10.3328 67.6526 10.2321L67.5951 9.73981C67.5934 9.63588 67.569 9.53357 67.5237 9.44004C67.4783 9.3465 67.4131 9.264 67.3326 9.1983C67.1337 9.09322 66.9043 9.06129 66.6844 9.10806L65.2977 9.27212C65.1992 9.27212 65.15 9.33776 65.1664 9.42802L65.3633 11.069C65.3416 11.0941 65.3306 11.1267 65.333 11.1598C65.3353 11.1929 65.3506 11.2237 65.3756 11.2455C65.4007 11.2672 65.4333 11.2782 65.4664 11.2759C65.4995 11.2736 65.5303 11.2582 65.5521 11.2331L65.5274 11.2249ZM65.9377 14.7121L67.4556 14.5316C67.6839 14.5274 67.9028 14.4399 68.071 14.2855C68.1352 14.2044 68.1803 14.11 68.203 14.0091C68.2258 13.9083 68.2255 13.8036 68.2023 13.7029L68.1202 12.9644C68.1174 12.8622 68.0917 12.7619 68.0448 12.671C67.9979 12.5801 67.9311 12.5009 67.8495 12.4393C67.639 12.3337 67.3992 12.3019 67.1685 12.349L65.6833 12.5296C65.5849 12.5296 65.5356 12.5952 65.5521 12.6855L65.7736 14.589C65.7729 14.6094 65.7771 14.6297 65.7856 14.6482C65.7941 14.6667 65.8069 14.683 65.8228 14.6957C65.8387 14.7084 65.8574 14.7173 65.8773 14.7216C65.8973 14.7259 65.9179 14.7254 65.9377 14.7203V14.7121Z" fill="#062652"/>
<path d="M72.8558 15.5814H71.6989C71.5102 15.5814 71.4199 15.483 71.4199 15.3025L71.6497 7.67175C71.6497 7.49124 71.7563 7.40918 71.9451 7.40918L75.1779 7.50764C75.781 7.49202 76.3676 7.7061 76.8189 8.10659C77.018 8.31108 77.1703 8.5564 77.2652 8.82559C77.3602 9.09477 77.3954 9.38141 77.3686 9.66557V10.6501C77.3975 11.0584 77.2888 11.4645 77.0597 11.8036C76.8306 12.1428 76.4945 12.3953 76.105 12.5209V12.5702L77.4753 15.4501C77.5464 15.658 77.4643 15.7564 77.2291 15.7455H76.1296C76.012 15.7513 75.8944 15.7317 75.785 15.6881C75.7033 15.6368 75.6423 15.5584 75.6127 15.4666L74.3327 12.6768H73.422C73.3153 12.6768 73.2579 12.6768 73.2579 12.8081L73.184 15.4173C73.1749 15.4507 73.1589 15.4818 73.1369 15.5086C73.115 15.5354 73.0876 15.5572 73.0566 15.5727C73.0256 15.5882 72.9917 15.597 72.9571 15.5985C72.9225 15.6 72.888 15.5942 72.8558 15.5814V15.5814ZM73.422 11.2902H74.7512C74.9763 11.316 75.2032 11.2607 75.3912 11.1343C75.4665 11.0665 75.5255 10.9826 75.5639 10.8888C75.6023 10.7951 75.619 10.6939 75.6127 10.5928V9.59992C75.6248 9.49497 75.6142 9.38867 75.5816 9.28817C75.549 9.18767 75.4953 9.0953 75.424 9.01734C75.2401 8.88533 75.0185 8.81627 74.7922 8.82043H73.463C73.3563 8.82043 73.3071 8.82046 73.3071 8.95174L73.2414 11.1343C73.2579 11.2382 73.318 11.2902 73.422 11.2902Z" fill="#062652"/>
<path d="M82.0786 16.5007L80.5771 16.23C79.9794 16.1632 79.4302 15.8695 79.0428 15.4094C78.8766 15.1741 78.7634 14.9055 78.711 14.6222C78.6586 14.3389 78.6682 14.0477 78.7392 13.7684L79.4612 9.80537C79.4896 9.52528 79.5775 9.25448 79.719 9.0111C79.8605 8.76772 80.0524 8.55734 80.2817 8.39407C80.8113 8.10846 81.4272 8.02676 82.013 8.16435L83.5063 8.43514C84.1028 8.50592 84.6506 8.79889 85.0407 9.25564C85.2088 9.49001 85.3232 9.75859 85.3757 10.0422C85.4282 10.3259 85.4174 10.6176 85.3442 10.8967L84.6304 14.8597C84.6025 15.1399 84.5148 15.4109 84.3733 15.6543C84.2317 15.8978 84.0396 16.1081 83.8099 16.271C83.2839 16.5674 82.6638 16.6497 82.0786 16.5007V16.5007ZM81.094 14.8597L82.0458 15.032C82.2587 15.0952 82.4876 15.0747 82.6858 14.9746C82.7657 14.9089 82.8315 14.8278 82.8795 14.7362C82.9274 14.6446 82.9564 14.5443 82.9648 14.4413L83.654 10.6259C83.6835 10.5263 83.6922 10.4217 83.6795 10.3187C83.6668 10.2156 83.633 10.1163 83.5802 10.0269C83.4315 9.8638 83.2259 9.76392 83.0058 9.74793L82.054 9.5756C81.9501 9.54276 81.8408 9.53094 81.7323 9.5408C81.6239 9.55066 81.5184 9.58202 81.4222 9.63304C81.3423 9.6987 81.2765 9.77975 81.2286 9.87137C81.1806 9.96299 81.1516 10.0633 81.1432 10.1664L80.454 13.9818C80.3995 14.1861 80.4259 14.4036 80.5279 14.5889C80.5962 14.6765 80.6816 14.7493 80.7789 14.8029C80.8763 14.8565 80.9835 14.8898 81.094 14.9007V14.8597Z" fill="#062652"/>
<path d="M86.8861 17.7072L85.7949 17.3298C85.6144 17.2642 85.5487 17.1493 85.6061 16.9852L88.0677 9.75653C88.0767 9.71947 88.0941 9.68502 88.1187 9.65587C88.1433 9.62672 88.1743 9.60368 88.2093 9.58856C88.2443 9.57345 88.2823 9.56663 88.3204 9.56873C88.3585 9.57083 88.3956 9.58176 88.4287 9.60063L89.52 9.97808C89.5578 9.98307 89.5938 9.99706 89.6251 10.0189C89.6563 10.0407 89.6819 10.0698 89.6996 10.1035C89.7173 10.1373 89.7266 10.1749 89.7268 10.213C89.7269 10.2511 89.7179 10.2888 89.7005 10.3227L88.5271 13.7442C88.7223 13.5206 88.9395 13.3172 89.1754 13.137L92.0553 11.1268C92.1364 11.0624 92.2336 11.0214 92.3363 11.0084C92.439 10.9954 92.5433 11.0108 92.6379 11.0529L93.9015 11.4796C93.9917 11.4796 94.041 11.5617 94.0492 11.6191C94.0574 11.6765 94.0081 11.7421 93.9097 11.7914L90.3815 14.1134L91.7271 19.0365C91.7271 19.1513 91.7271 19.2334 91.6861 19.2662C91.6455 19.2871 91.6005 19.298 91.5548 19.298C91.5092 19.298 91.4641 19.2871 91.4235 19.2662L90.4882 18.9462C90.1818 18.8368 90.0095 18.6809 89.9712 18.4785L89.0112 14.8601L87.8954 15.4754L87.1897 17.5267C87.1897 17.7154 87.0748 17.7647 86.8861 17.7072Z" fill="#062652"/>
<path d="M96.5688 21.8914L92.6304 19.8648C92.5942 19.8533 92.5612 19.8335 92.534 19.8071C92.5067 19.7808 92.4859 19.7484 92.4732 19.7127C92.4605 19.6769 92.4562 19.6388 92.4607 19.6011C92.4652 19.5634 92.4783 19.5273 92.4991 19.4955L95.9863 12.7017C96.0001 12.6664 96.022 12.6347 96.0501 12.6092C96.0783 12.5837 96.1119 12.565 96.1485 12.5547C96.185 12.5444 96.2235 12.5426 96.2608 12.5496C96.2982 12.5566 96.3334 12.5722 96.3637 12.5951L100.319 14.6217C100.353 14.634 100.384 14.6542 100.41 14.6805C100.435 14.7069 100.454 14.7388 100.465 14.7738C100.477 14.8087 100.48 14.8457 100.474 14.882C100.468 14.9183 100.455 14.9528 100.433 14.9828L100.04 15.754C100.027 15.7886 100.007 15.8198 99.9808 15.8453C99.9544 15.8708 99.9225 15.8899 99.8875 15.901C99.8526 15.9121 99.8155 15.915 99.7793 15.9094C99.743 15.9039 99.7085 15.89 99.6785 15.8689L97.1514 14.5725C97.0529 14.5233 96.9873 14.5725 96.9463 14.6217L96.1914 16.0904C96.1422 16.1725 96.1914 16.2382 96.2734 16.2874L98.3411 17.3458C98.3773 17.3573 98.4102 17.377 98.4375 17.4034C98.4648 17.4298 98.4856 17.4621 98.4983 17.4979C98.511 17.5336 98.5153 17.5718 98.5108 17.6095C98.5063 17.6472 98.4932 17.6833 98.4724 17.7151L98.0786 18.4863C98.0647 18.5217 98.0428 18.5534 98.0147 18.5789C97.9865 18.6044 97.9529 18.623 97.9163 18.6334C97.8798 18.6437 97.8413 18.6454 97.804 18.6384C97.7666 18.6314 97.7314 18.6159 97.7011 18.593L95.6334 17.5345C95.535 17.4853 95.4693 17.5345 95.4201 17.5838L94.5996 19.1509C94.5996 19.2412 94.5996 19.3068 94.6817 19.3561L97.2088 20.6524C97.2441 20.6638 97.2762 20.6833 97.3026 20.7093C97.329 20.7353 97.3489 20.7671 97.3609 20.8021C97.3728 20.8372 97.3764 20.8746 97.3714 20.9113C97.3664 20.9479 97.3529 20.9829 97.3319 21.0135L96.938 21.7766C96.9261 21.8124 96.9059 21.8449 96.8789 21.8714C96.8519 21.8978 96.819 21.9175 96.7829 21.9288C96.7468 21.94 96.7086 21.9425 96.6713 21.936C96.6341 21.9295 96.599 21.9142 96.5688 21.8914V21.8914Z" fill="#062652"/>
<path d="M99.0299 23.4584L98.0863 22.7938C98.0516 22.7777 98.0211 22.7538 97.9972 22.7239C97.9733 22.694 97.9567 22.6589 97.9487 22.6215C97.9408 22.5841 97.9417 22.5453 97.9513 22.5082C97.9609 22.4712 97.9791 22.4369 98.0043 22.4081L102.402 16.1641C102.422 16.1316 102.449 16.1041 102.481 16.0834C102.513 16.0628 102.55 16.0497 102.587 16.0449C102.625 16.0402 102.664 16.044 102.7 16.0561C102.736 16.0682 102.769 16.0883 102.796 16.1148L105.438 17.9774C105.951 18.296 106.323 18.7975 106.48 19.3804C106.533 19.6603 106.524 19.9484 106.455 20.2246C106.385 20.5008 106.257 20.7587 106.078 20.9804L105.512 21.8009C105.308 22.1568 104.993 22.4352 104.614 22.5926C104.236 22.7499 103.815 22.7774 103.42 22.6707V22.6707L102.977 25.8215C102.927 26.0348 102.804 26.0758 102.607 25.9363L101.713 25.3045C101.607 25.2443 101.517 25.16 101.45 25.0584C101.431 25.0143 101.422 24.9668 101.422 24.9189C101.422 24.8709 101.431 24.8235 101.45 24.7794L101.918 21.7517L101.171 21.2266C101.081 21.1691 101.016 21.1774 100.958 21.2266L99.4566 23.3599C99.4455 23.4038 99.4225 23.4438 99.3902 23.4754C99.3578 23.5071 99.3174 23.5292 99.2733 23.5394C99.2292 23.5495 99.1832 23.5473 99.1402 23.5331C99.0973 23.5188 99.0591 23.493 99.0299 23.4584V23.4584ZM101.869 20.1764L102.952 20.9476C103.128 21.0906 103.348 21.1688 103.576 21.1691C103.676 21.1556 103.772 21.1189 103.856 21.062C103.94 21.005 104.01 20.9294 104.06 20.841L104.634 20.0205C104.701 19.9405 104.75 19.8472 104.778 19.7468C104.807 19.6464 104.813 19.5411 104.798 19.4379C104.721 19.2206 104.57 19.0375 104.371 18.921L103.288 18.1579C103.276 18.1425 103.26 18.1301 103.243 18.1215C103.225 18.113 103.205 18.1086 103.186 18.1086C103.166 18.1086 103.147 18.113 103.129 18.1215C103.111 18.1301 103.096 18.1425 103.083 18.1579L101.828 19.9466C101.77 20.0615 101.787 20.1107 101.869 20.1846V20.1764Z" fill="#062652"/>
<path d="M106.464 29.4976L105.578 28.5458C105.471 28.4227 105.496 28.3242 105.668 28.2422L112.741 24.6484C112.819 24.6084 112.91 24.598 112.996 24.619C113.082 24.6401 113.157 24.6913 113.208 24.7632L114.439 26.0924C114.507 26.1512 114.552 26.2322 114.565 26.3209C114.579 26.4096 114.56 26.5003 114.513 26.5766L110.353 33.3293C110.255 33.4852 110.156 33.5098 110.041 33.3868L109.163 32.4186C109.135 32.3957 109.111 32.3671 109.094 32.3346C109.077 32.3021 109.067 32.2665 109.065 32.2299C109.076 32.1556 109.111 32.0867 109.163 32.033L109.934 30.8022L108.138 28.8575L106.849 29.5222C106.79 29.5719 106.714 29.5981 106.636 29.596C106.602 29.593 106.569 29.5826 106.539 29.5656C106.509 29.5486 106.484 29.5254 106.464 29.4976V29.4976ZM112.675 26.4535L109.311 28.2258L110.673 29.7027L112.716 26.4945L112.675 26.4535Z" fill="#062652"/>
<path d="M112.256 32.8696L112.47 32.7301C112.498 32.7051 112.533 32.6873 112.569 32.6782C112.606 32.6691 112.645 32.6689 112.682 32.6778C112.719 32.6866 112.753 32.7041 112.782 32.729C112.811 32.7538 112.833 32.7851 112.847 32.8204L113.504 33.7722C113.529 33.7999 113.548 33.8331 113.559 33.8694C113.57 33.9056 113.572 33.9439 113.566 33.9812C113.56 34.0185 113.545 34.0538 113.523 34.0845C113.5 34.1151 113.471 34.1402 113.438 34.1578L113.356 34.2152C113.248 34.2682 113.153 34.3442 113.078 34.4377C113.003 34.5313 112.95 34.6402 112.921 34.7567C112.929 35.0183 113.024 35.2698 113.192 35.4706L113.553 36.0039C113.677 36.2348 113.881 36.4126 114.127 36.5044C114.254 36.5189 114.382 36.5067 114.504 36.4685C114.625 36.4304 114.737 36.3671 114.833 36.2829L114.964 36.2008C115.059 36.1376 115.136 36.0504 115.186 35.9481C115.236 35.8458 115.259 35.7321 115.251 35.6183C115.231 35.3288 115.144 35.0479 114.997 34.7978C114.825 34.4994 114.675 34.1896 114.546 33.8706C114.404 33.5439 114.289 33.2064 114.201 32.8614C114.115 32.5148 114.153 32.1493 114.308 31.8276C114.501 31.42 114.809 31.0778 115.194 30.843L115.563 30.5886C115.793 30.4112 116.059 30.2862 116.343 30.2225C116.626 30.1587 116.92 30.1576 117.204 30.2194C117.785 30.3852 118.281 30.7667 118.591 31.286L119.354 32.4101C119.727 32.8903 119.9 33.4956 119.838 34.1003C119.789 34.3814 119.681 34.6486 119.519 34.8837C119.358 35.1188 119.147 35.3163 118.903 35.4624L118.706 35.5937C118.677 35.6189 118.643 35.637 118.606 35.6467C118.568 35.6563 118.53 35.6572 118.492 35.6492C118.455 35.6412 118.42 35.6247 118.39 35.6008C118.36 35.5769 118.336 35.5464 118.32 35.5116L117.672 34.5516C117.646 34.5239 117.627 34.4907 117.616 34.4544C117.605 34.4181 117.603 34.3799 117.609 34.3426C117.616 34.3053 117.63 34.2699 117.653 34.2393C117.675 34.2087 117.704 34.1836 117.737 34.166H117.795C117.903 34.1104 117.998 34.0328 118.075 33.9381C118.151 33.8434 118.207 33.7338 118.238 33.6163C118.234 33.3539 118.139 33.1011 117.967 32.9024L117.672 32.4593C117.541 32.2234 117.332 32.0406 117.081 31.9424C116.808 31.9395 116.542 32.0357 116.334 32.2132L116.137 32.3527C115.809 32.5742 115.826 33.0091 116.195 33.6573C116.557 34.2642 116.834 34.9187 117.015 35.6019C117.083 35.9509 117.04 36.3123 116.892 36.6357C116.718 37.0308 116.433 37.367 116.072 37.6039L115.711 37.8501C115.481 38.028 115.215 38.1532 114.931 38.217C114.648 38.2808 114.354 38.2816 114.07 38.2193C113.492 38.0501 113 37.6692 112.691 37.1527L111.871 35.9301C111.512 35.462 111.339 34.8772 111.387 34.2891C111.423 34.0044 111.519 33.7306 111.669 33.4859C111.819 33.2412 112.019 33.0311 112.256 32.8696V32.8696Z" fill="#062652"/>
<path d="M122.341 38.1622L115.604 41.6985C115.573 41.7194 115.538 41.7329 115.5 41.738C115.463 41.743 115.425 41.7394 115.39 41.7275C115.354 41.7157 115.321 41.6957 115.295 41.6694C115.268 41.643 115.248 41.6109 115.235 41.5754L114.694 40.5498C114.672 40.519 114.658 40.4839 114.652 40.4469C114.646 40.4099 114.648 40.372 114.658 40.336C114.668 40.2999 114.686 40.2665 114.711 40.2383C114.735 40.21 114.766 40.1875 114.8 40.1724L121.561 36.6114C121.593 36.5906 121.629 36.5775 121.667 36.573C121.704 36.5685 121.743 36.5728 121.778 36.5855C121.814 36.5982 121.846 36.619 121.873 36.6463C121.899 36.6736 121.919 36.7065 121.93 36.7427L122.464 37.7683C122.49 37.7999 122.508 37.8375 122.516 37.8777C122.524 37.9179 122.521 37.9595 122.509 37.9986C122.497 38.0377 122.475 38.0732 122.446 38.1018C122.416 38.1303 122.38 38.1511 122.341 38.1622V38.1622Z" fill="#062652"/>
<path d="M116.425 44.1193L115.957 42.9049C115.899 42.7572 115.957 42.6669 116.146 42.6587L124.047 41.8957C124.135 41.8888 124.222 41.913 124.294 41.964C124.366 42.0149 124.418 42.0895 124.441 42.1747L125.097 43.8567C125.144 43.9345 125.159 44.0274 125.139 44.116C125.12 44.2047 125.066 44.2823 124.991 44.3326L118.648 49.1079C118.5 49.2228 118.402 49.1982 118.345 49.0505L117.869 47.8361C117.841 47.7677 117.841 47.6913 117.869 47.6228C117.869 47.5736 117.942 47.5244 118.033 47.4669L119.198 46.6054L118.238 44.1438L116.794 44.2997C116.722 44.3219 116.644 44.3219 116.572 44.2997C116.536 44.2821 116.504 44.2568 116.479 44.2257C116.453 44.1945 116.435 44.1582 116.425 44.1193V44.1193ZM123.325 43.5531L119.551 43.9716L120.273 45.8505L123.341 43.6023L123.325 43.5531Z" fill="#062652"/>
<path d="M57.7986 114.798L58.0447 113.706C58.094 113.49 58.1941 113.289 58.3368 113.119C58.4795 112.949 58.6607 112.816 58.8652 112.73L61.5319 111.45C61.7167 111.386 61.883 111.278 62.0161 111.135C62.1491 110.992 62.2449 110.818 62.295 110.629L62.3688 110.285C62.3992 110.194 62.4099 110.099 62.3999 110.004C62.39 109.909 62.3598 109.817 62.3114 109.735C62.1661 109.58 61.9722 109.478 61.7616 109.448L61.3268 109.349C61.1391 109.278 60.9319 109.278 60.7442 109.349C60.6681 109.406 60.6042 109.477 60.5563 109.559C60.5084 109.641 60.4774 109.731 60.4652 109.825L60.3832 110.195C60.3793 110.23 60.3674 110.263 60.3484 110.293C60.3295 110.323 60.3039 110.347 60.2738 110.366C60.2436 110.384 60.2097 110.395 60.1746 110.398C60.1395 110.401 60.1042 110.396 60.0714 110.383L59.0211 110.145C58.9854 110.143 58.9508 110.132 58.9201 110.113C58.8894 110.095 58.8634 110.069 58.8443 110.039C58.8252 110.009 58.8134 109.974 58.8099 109.939C58.8064 109.903 58.8113 109.867 58.8242 109.833L58.9883 109.546C59.0265 109.289 59.1196 109.043 59.2611 108.825C59.4027 108.607 59.5895 108.422 59.8088 108.283C60.3176 108.027 60.9052 107.977 61.4498 108.143L62.3852 108.357C62.9349 108.444 63.4306 108.737 63.7719 109.177C63.9136 109.397 64.0067 109.645 64.0449 109.904C64.0831 110.163 64.0655 110.427 63.9934 110.679L63.8867 111.138C63.8243 111.426 63.6944 111.696 63.5075 111.924C63.3206 112.152 63.0822 112.333 62.8119 112.451L60.0878 113.764C60.0364 113.787 59.9907 113.821 59.9538 113.863C59.917 113.906 59.8899 113.956 59.8744 114.01L59.8334 114.19L62.7708 114.855C62.8063 114.857 62.8408 114.867 62.8717 114.884C62.9026 114.902 62.929 114.926 62.9489 114.956C62.9688 114.985 62.9816 115.019 62.9863 115.054C62.991 115.089 62.9874 115.125 62.976 115.159L62.7955 115.979C62.7908 116.014 62.778 116.048 62.7581 116.078C62.7381 116.107 62.7116 116.132 62.6805 116.149C62.6495 116.167 62.6148 116.177 62.5792 116.179C62.5436 116.18 62.5081 116.174 62.4755 116.16L58.0529 115.159C57.8232 115.06 57.7575 114.962 57.7986 114.798Z" fill="#062652"/>
<path d="M69.3109 116.874L68.0555 116.792C67.4968 116.792 66.9594 116.577 66.554 116.193C66.3791 115.997 66.2488 115.766 66.1723 115.515C66.0958 115.265 66.0748 115 66.1109 114.74L66.3571 111.007C66.3581 110.744 66.415 110.485 66.5239 110.246C66.6329 110.007 66.7913 109.794 66.9888 109.62C67.4434 109.297 68.0027 109.157 68.556 109.227L69.8114 109.317C70.3678 109.316 70.9028 109.531 71.3047 109.916C71.4769 110.113 71.6054 110.344 71.6817 110.594C71.7581 110.845 71.7806 111.108 71.7478 111.368L71.5016 115.093C71.5001 115.357 71.4421 115.617 71.3317 115.856C71.2214 116.095 71.0611 116.308 70.8616 116.48C70.415 116.807 69.8593 116.948 69.3109 116.874V116.874ZM68.4001 115.52L69.1468 115.569C69.3469 115.6 69.5514 115.556 69.7211 115.446C69.7869 115.376 69.8382 115.293 69.872 115.203C69.9058 115.113 69.9215 115.017 69.9181 114.921L70.156 111.335C70.1874 111.143 70.1433 110.946 70.0329 110.786C69.8779 110.653 69.679 110.583 69.475 110.589L68.7365 110.539C68.5365 110.508 68.3319 110.552 68.1622 110.662C68.0933 110.731 68.0395 110.813 68.0042 110.903C67.9689 110.994 67.9528 111.091 67.957 111.188L67.7191 114.773C67.7024 114.869 67.7055 114.967 67.728 115.062C67.7506 115.156 67.7922 115.245 67.8504 115.323C68.0033 115.454 68.1989 115.524 68.4001 115.52V115.52Z" fill="#062652"/>
<path d="M74.7252 116.717L74.6267 115.601C74.6086 115.376 74.6463 115.149 74.7365 114.942C74.8266 114.734 74.9664 114.552 75.1436 114.412L77.2933 112.377C77.4443 112.26 77.5659 112.109 77.6485 111.937C77.7311 111.764 77.7724 111.575 77.7693 111.384V111.031C77.7717 110.935 77.7531 110.84 77.7149 110.752C77.6766 110.664 77.6195 110.586 77.5477 110.522C77.3594 110.422 77.1427 110.387 76.9323 110.424H76.4975C76.2941 110.425 76.0982 110.501 75.9477 110.637C75.8391 110.792 75.795 110.984 75.8246 111.171V111.548C75.8323 111.583 75.8318 111.619 75.8233 111.653C75.8147 111.688 75.7982 111.72 75.7751 111.747C75.7521 111.774 75.723 111.795 75.6903 111.809C75.6576 111.823 75.6222 111.829 75.5867 111.827L74.52 111.926C74.4849 111.933 74.4486 111.932 74.4138 111.924C74.379 111.915 74.3465 111.899 74.3189 111.876C74.2913 111.853 74.2692 111.824 74.2543 111.792C74.2394 111.759 74.2321 111.723 74.2328 111.688V111.286C74.1924 111.028 74.2081 110.765 74.2789 110.514C74.3497 110.264 74.474 110.031 74.6431 109.833C75.0431 109.441 75.5767 109.216 76.1364 109.201L77.0882 109.119C77.6401 109.036 78.203 109.165 78.6636 109.48C78.8653 109.647 79.0289 109.854 79.1435 110.089C79.2582 110.324 79.3212 110.581 79.3282 110.842L79.3692 111.31C79.3966 111.603 79.3544 111.899 79.246 112.172C79.1376 112.446 78.9662 112.691 78.7456 112.886L76.5549 114.978C76.5135 115.015 76.481 115.06 76.4597 115.111C76.4384 115.163 76.4289 115.218 76.4318 115.273V115.462L79.4267 115.191C79.6072 115.191 79.6974 115.257 79.7138 115.421L79.7877 116.241C79.7877 116.405 79.7056 116.496 79.5415 116.512L75.0287 116.906C74.8318 116.931 74.7416 116.881 74.7252 116.717Z" fill="#062652"/>
<path d="M82.9388 115.749L82.668 114.658C82.6183 114.438 82.6222 114.209 82.6793 113.99C82.7364 113.772 82.8451 113.57 82.9962 113.402L84.8178 111.072C84.9491 110.934 85.047 110.767 85.1039 110.585C85.1608 110.403 85.1752 110.21 85.146 110.022L85.0557 109.677C85.0424 109.583 85.0092 109.492 84.9583 109.412C84.9074 109.331 84.8399 109.262 84.7603 109.21C84.5588 109.137 84.3382 109.137 84.1367 109.21L83.7101 109.316C83.5081 109.344 83.3238 109.447 83.1931 109.604C83.1568 109.691 83.1381 109.784 83.1381 109.878C83.1381 109.973 83.1568 110.066 83.1931 110.153L83.2834 110.522C83.2963 110.556 83.3012 110.592 83.2977 110.628C83.2942 110.663 83.2824 110.698 83.2633 110.728C83.2442 110.758 83.2182 110.784 83.1875 110.802C83.1568 110.821 83.1222 110.832 83.0865 110.834L82.0444 111.089C82.0117 111.103 81.976 111.11 81.9402 111.108C81.9044 111.105 81.8697 111.095 81.8391 111.076C81.8084 111.057 81.7827 111.032 81.7642 111.001C81.7456 110.97 81.7348 110.936 81.7326 110.9L81.6342 110.514C81.556 110.264 81.5324 109.999 81.565 109.739C81.5975 109.479 81.6855 109.228 81.8229 109.005C82.1653 108.57 82.6563 108.278 83.2014 108.184L84.1285 107.963C84.6699 107.788 85.2578 107.829 85.7695 108.077C85.9936 108.212 86.1863 108.393 86.3349 108.608C86.4834 108.823 86.5844 109.067 86.6311 109.325L86.7377 109.784C86.8106 110.067 86.8151 110.364 86.7509 110.649C86.6867 110.934 86.5556 111.2 86.3685 111.425L84.4239 113.788C84.387 113.83 84.3604 113.88 84.3461 113.934C84.3319 113.988 84.3304 114.045 84.3418 114.1L84.3829 114.28L87.3121 113.567C87.4844 113.567 87.5911 113.567 87.6239 113.747L87.8208 114.568C87.8618 114.723 87.8208 114.822 87.6239 114.871L83.2178 115.946C83.0783 115.971 82.9716 115.913 82.9388 115.749Z" fill="#062652"/>
<defs>
<linearGradient id="paint0_linear_7283_1124" x1="72.6984" y1="81.7724" x2="73.2071" y2="59.0197" gradientUnits="userSpaceOnUse">
<stop stop-color="#3D82F7"/>
<stop offset="0.58" stop-color="#0D67F9"/>
<stop offset="1" stop-color="#0D49CC"/>
</linearGradient>
<linearGradient id="paint1_linear_7283_1124" x1="63.6912" y1="45.0465" x2="84.7208" y2="66.8146" gradientUnits="userSpaceOnUse">
<stop stop-color="#32D7F5"/>
<stop offset="0.57" stop-color="#1D93F4"/>
<stop offset="1" stop-color="#0D67F9"/>
</linearGradient>
</defs>
</svg>
