<?xml version="1.0" encoding="utf-8"?>
<!-- Generator: Adobe Illustrator 26.0.2, SVG Export Plug-In . SVG Version: 6.00 Build 0)  -->
<svg version="1.1" id="Layer_1" xmlns="http://www.w3.org/2000/svg" xmlns:xlink="http://www.w3.org/1999/xlink" x="0px" y="0px"
	 viewBox="0 0 32 32" style="enable-background:new 0 0 32 32;" xml:space="preserve">
<path d="M30.2,28.1c0.6,0.6,0.6,1.5,0,2.1c-0.3,0.3-0.7,0.4-1,0.4c-0.4,0-0.7-0.1-1-0.4L16,18.1L3.9,30.2c-0.3,0.3-0.7,0.4-1,0.4
	s-0.7-0.1-1-0.4c-0.6-0.6-0.6-1.5,0-2.1L13.9,16L1.8,3.9c-0.6-0.6-0.6-1.5,0-2.1s1.5-0.6,2.1,0L16,13.9L28.1,1.8
	c0.6-0.6,1.5-0.6,2.1,0c0.6,0.6,0.6,1.5,0,2.1L18.1,16L30.2,28.1z"/>
</svg>
