<svg width="55" height="57" viewBox="0 0 55 57" fill="none" xmlns="http://www.w3.org/2000/svg">
<path d="M49.9721 26.3068V24.0158C49.9721 11.832 40.0792 1.93909 27.8954 1.93909C15.7115 1.93909 5.8186 11.832 5.8186 24.0158V26.3068" stroke="#0D67F9" stroke-width="2" stroke-miterlimit="10" stroke-linecap="round" stroke-linejoin="round"/>
<path d="M9.36067 41.5106V25.682C5.29938 25.682 1.96704 29.0143 1.96704 33.0756V34.117C1.96704 38.1783 5.19524 41.5106 9.36067 41.5106Z" stroke="#0D67F9" stroke-width="2" stroke-miterlimit="10" stroke-linecap="round" stroke-linejoin="round"/>
<path d="M46.5388 41.5106V25.682C50.6001 25.682 53.9324 29.0143 53.9324 33.0756V34.117C53.9324 38.1783 50.6001 41.5106 46.5388 41.5106Z" stroke="#0D67F9" stroke-width="2" stroke-miterlimit="10" stroke-linecap="round" stroke-linejoin="round"/>
<path d="M49.5577 40.99V44.3223C49.5577 48.5919 46.1212 52.0284 41.8516 52.0284H33.0001" stroke="#0D67F9" stroke-width="2" stroke-miterlimit="10" stroke-linecap="round" stroke-linejoin="round"/>
<path d="M29.5624 55.3606H25.2928C23.4184 55.3606 21.8563 53.7985 21.8563 51.9241C21.8563 50.0496 23.4184 48.4876 25.2928 48.4876H29.5624C31.4368 48.4876 32.9988 50.0496 32.9988 51.9241C33.103 53.7985 31.5409 55.3606 29.5624 55.3606Z" stroke="#0D67F9" stroke-width="2" stroke-miterlimit="10" stroke-linecap="round" stroke-linejoin="round"/>
</svg>
