<svg width="43" height="45" viewBox="0 0 43 45" fill="none" xmlns="http://www.w3.org/2000/svg">
<path d="M18.0801 16.9884C18.0801 18.4141 16.9873 19.336 15.2918 19.336C13.7717 19.336 12.6159 18.5895 12.2157 17.3437L12.1797 17.2313L12.9712 16.7681L13.0252 16.948C13.2995 17.9104 14.127 18.459 15.2918 18.459C16.4476 18.459 17.1672 17.8969 17.1672 16.9974C17.1672 16.116 16.3127 15.7697 15.1929 15.4189L15.1569 15.4054C13.8122 14.9692 12.544 14.5554 12.544 13.0623C12.544 12.0639 13.1196 11.2859 14.0281 10.9441V11.938C13.6683 12.1808 13.4569 12.5676 13.4569 13.0353C13.4569 13.8808 14.163 14.1596 15.3188 14.5374C16.677 14.9916 18.0801 15.4549 18.0801 16.9884Z" fill="#0D67F9"/>
<path d="M15.1289 11.6366V10.7596C16.3612 10.7641 17.373 11.4252 17.8408 12.5361L17.8902 12.6575L17.1167 13.0892L17.0537 12.9363C16.8064 12.3427 16.2757 11.6366 15.1289 11.6366Z" fill="#0D67F9"/>
<path d="M15.1016 16.2914V20.5998" stroke="#0D67F9" stroke-width="1.7754" stroke-miterlimit="10" stroke-linecap="round"/>
<path d="M15.1016 10.202V14.9511" stroke="#0D67F9" stroke-width="1.7754" stroke-miterlimit="10" stroke-linecap="round"/>
<path d="M41.5977 33.1786L38.9083 31.4877L31.6812 41.8539L33.7229 43.4954" stroke="#0D67F9" stroke-width="2" stroke-miterlimit="10" stroke-linecap="round"/>
<path d="M38.0156 32.7604L32.3221 28.9333C31.0493 28.0788 29.4618 27.8314 27.9912 28.2542L15.9655 31.7396C14.6568 32.1173 13.9192 33.507 14.3375 34.8067C14.7287 36.0165 15.988 36.7135 17.2202 36.4077L24.137 34.6898" stroke="#0D67F9" stroke-width="2" stroke-miterlimit="10" stroke-linecap="round"/>
<path d="M14.2244 34.0961L5.70653 28.5509C4.46079 27.7369 2.7878 28.1462 2.05025 29.4369C1.38915 30.5972 1.72195 32.0723 2.81928 32.8368L15.614 41.7279C16.4685 42.3216 17.5434 42.506 18.5507 42.2316L29.3352 39.2634C29.9109 39.106 30.527 39.2409 30.9812 39.6232L32.4023 40.8195" stroke="#0D67F9" stroke-width="2" stroke-miterlimit="10" stroke-linecap="round"/>
<path d="M21.6943 22.2233C20.0438 23.7344 17.8492 24.6563 15.4341 24.6563C10.3162 24.6563 6.16526 20.5053 6.16526 15.3874C6.16526 10.2695 10.3162 6.11856 15.4341 6.11856C20.552 6.11856 24.703 10.2695 24.703 15.3874H20.7499L26.5334 24.1931L32.4023 15.3874H29.3262C29.3262 7.71509 23.1065 1.49536 15.4341 1.49536C7.76179 1.49536 1.54206 7.71509 1.54206 15.3874C1.54206 15.4864 1.54206 15.5853 1.54656 15.6843" stroke="#0D67F9" stroke-opacity="0.5" stroke-width="2" stroke-miterlimit="10" stroke-linecap="round"/>
<path d="M1.53906 17.5461V18.5445" stroke="#0D67F9" stroke-opacity="0.5" stroke-width="2" stroke-miterlimit="10" stroke-linecap="round"/>
<path d="M1.53906 20.7616V21.76" stroke="#0D67F9" stroke-opacity="0.5" stroke-width="2" stroke-miterlimit="10" stroke-linecap="round"/>
</svg>
