<svg xmlns="http://www.w3.org/2000/svg" viewBox="0 0 212.08 81.25"><defs><style>.cls-1{fill:#f4a506;}.cls-2{fill:#1a1a4f;}.cls-3{fill:#fff;}</style></defs><g id="Layer_2" data-name="Layer 2"><g id="Layer_1-2" data-name="Layer 1"><circle class="cls-1" cx="57.57" cy="25.99" r="7.8"/><path class="cls-2" d="M5.72,0h35.7c4.95-.2,6.09,3.51,5.77,7.84-.15,4,0,8.09,0,12.13v1l.88-.56q4.53-2.92,9-5.87a.86.86,0,0,1,1.12,0q11.26,7.32,22.54,14.62a1.18,1.18,0,0,1,.48.85c0,2.07,0,4.14,0,6.2a4.5,4.5,0,0,1-.06.53H74.76c0,.17-.05.24-.05.32,0,5.92,0,11.85,0,17.77a1,1,0,0,0,.46.69,3.91,3.91,0,0,1,2.11,3.56v1.16c2.4.49,3.75,1.57,3.87,3.44.14,2.34,0,4.69,0,7.11h-34c0,1.34,0,2.6,0,3.86a6.87,6.87,0,0,1-6.89,6.61q-16.78,0-33.57,0C4.32,81.08,2.19,80.55,1,79A4.94,4.94,0,0,1,0,75.53V5.72A6.15,6.15,0,0,1,.9,2C2.13.6,3.5.1,5.72,0ZM34,36.73c0-2.24,0-4.35,0-6.46a1.37,1.37,0,0,1,.72-1.34C37.81,27,40.86,25,43.94,23.05c1-.6.75-1.26-.06-4.38a10.77,10.77,0,0,1,.55-6.53,3.94,3.94,0,0,0,.1-1.6H2.69V68.07H34c0-.95.06-1.85,0-2.74-.23-2.9,1-4.59,3.9-5.17,0-.34,0-.7,0-1.07a3.92,3.92,0,0,1,2-3.53,1.06,1.06,0,0,0,.63-1.1q0-8.44,0-16.89c0-.26,0-.51,0-.84Zm41.3-7.87a1.69,1.69,0,0,0-.25-.3q-8.5-5.5-17-11a.79.79,0,0,0-.73,0c-.93.57-1.81,1.22-2.73,1.81l-13.8,8.87c-.23.14-.45.3-.68.45l0,.18h8.31v2.62H36.73V34H78.54V31.41H66.87V28.86ZM72,36.73H43.3V55h7.83V39.38H64.25V55H72Zm2.6,23.57c.28-2.1-.18-2.66-2.11-2.66H42.77a6.11,6.11,0,0,0-1,0A1.26,1.26,0,0,0,40.64,59c0,.42,0,.84,0,1.36H69.39v2.57H38.8a8.44,8.44,0,0,0-.87,0,1.25,1.25,0,0,0-1.22,1.23c-.05,1.29,0,2.58,0,3.91H78.6c0-1.31,0-2.55,0-3.79a1.29,1.29,0,0,0-1.34-1.37c-.5,0-1,0-1.5,0H72.1V60.3ZM44.49,70.81H2.7c0,1.56,0,3.06,0,4.56a2.48,2.48,0,0,0,.34,1.16c.85,1.61,2.3,2.09,4.05,2.09q16.49,0,33,0c.3,0,.6,0,.9,0a3.83,3.83,0,0,0,3.49-3.42C44.59,73.73,44.49,72.29,44.49,70.81ZM2.56,7.86l41.91,0c.58-3.42-1.66-5.08-5.43-5.06-11.81.07-18.68-.13-30.53.08C4.4,2.93,2.27,2.08,2.56,7.86ZM53.78,55h7.73V42H53.78Z"/><path class="cls-1" d="M34,36.73h6.52c0,.33,0,.58,0,.84q0,8.45,0,16.89a1.06,1.06,0,0,1-.63,1.1,3.92,3.92,0,0,0-2,3.53c0,.37,0,.73,0,1.07-2.9.58-4.13,2.27-3.9,5.17.07.89,0,1.79,0,2.74H2.69V10.54H44.53l0,0c0,3.79,0,7.57,0,11.36a1.16,1.16,0,0,1-.64,1.12C40.86,25,37.81,27,34.72,28.93A1.37,1.37,0,0,0,34,30.27C34,32.38,34,34.49,34,36.73ZM23.66,51.14h1.09a6.8,6.8,0,0,0,5.34-2.55A6.26,6.26,0,0,0,31,42a6.07,6.07,0,0,0-5.24-3.92c-1.84-.17-3.69-.1-5.54-.15a7.38,7.38,0,0,1-1.49-.13,3.81,3.81,0,0,1-2.88-3.95,3.88,3.88,0,0,1,3.89-3.64q2.58-.06,5.16,0a3.85,3.85,0,0,1,3.87,3.38c0,.21.27.52.42.53.76.06,1.51,0,2.3,0a5.9,5.9,0,0,0-1.19-3.89c-1.59-2.24-3.91-2.9-6.59-2.82,0-1.15,0-2.2,0-3.25,0-.22-.24-.6-.38-.61-.76-.06-1.52,0-2.38,0v3.84c-.8.07-1.48.12-2.16.19-5.42.54-8.81,9-1.43,12.32a9.05,9.05,0,0,0,3.81.77c1.22,0,2.44,0,3.66,0a3.86,3.86,0,0,1,4,3.87A3.78,3.78,0,0,1,24.8,48.4c-1.81,0-3.62,0-5.43,0a3.69,3.69,0,0,1-3.48-3c0-.25-.1-.5-.16-.77H13.12a5.93,5.93,0,0,0,1.26,3.9c1.62,2.17,3.9,2.84,6.57,2.66v4c.74,0,1.4,0,2.05,0s.68-.19.67-.69C23.65,53.35,23.66,52.3,23.66,51.14Z"/><path class="cls-3" d="M23.66,51.14c0,1.16,0,2.21,0,3.27,0,.5-.13.72-.67.69s-1.31,0-2.05,0v-4c-2.67.18-4.95-.49-6.57-2.66a5.93,5.93,0,0,1-1.26-3.9h2.61c.06.27.12.52.16.77a3.69,3.69,0,0,0,3.48,3c1.81.06,3.62.06,5.43,0a3.78,3.78,0,0,0,3.94-3.86,3.86,3.86,0,0,0-4-3.87c-1.22,0-2.44,0-3.66,0a9.05,9.05,0,0,1-3.81-.77c-7.38-3.36-4-11.78,1.43-12.32.68-.07,1.36-.12,2.16-.19V23.54c.86,0,1.62,0,2.38,0,.14,0,.37.39.38.61,0,1.05,0,2.1,0,3.25,2.68-.08,5,.58,6.59,2.82a5.9,5.9,0,0,1,1.19,3.89c-.79,0-1.54,0-2.3,0-.15,0-.38-.32-.42-.53a3.85,3.85,0,0,0-3.87-3.38q-2.58-.06-5.16,0a3.88,3.88,0,0,0-3.89,3.64,3.81,3.81,0,0,0,2.88,3.95,7.38,7.38,0,0,0,1.49.13c1.85,0,3.7,0,5.54.15A6.07,6.07,0,0,1,31,42a6.26,6.26,0,0,1-.86,6.6,6.8,6.8,0,0,1-5.34,2.55Z"/><rect class="cls-1" x="19.73" y="73.43" width="7.73" height="2.52"/><path class="cls-1" d="M98.92,35.92a10,10,0,0,1-3.77-3.69,10.34,10.34,0,0,1-1.39-5.35,10.29,10.29,0,0,1,1.39-5.33,10,10,0,0,1,3.77-3.69,10.86,10.86,0,0,1,10.45,0,9.82,9.82,0,0,1,3.74,3.69,10.38,10.38,0,0,1,1.38,5.33,10.43,10.43,0,0,1-1.38,5.35,9.84,9.84,0,0,1-3.75,3.69,10.84,10.84,0,0,1-10.44,0Zm8.44-3.11a5.61,5.61,0,0,0,2.17-2.37,7.62,7.62,0,0,0,.79-3.56,7.6,7.6,0,0,0-.79-3.56A5.56,5.56,0,0,0,107.36,21a6.83,6.83,0,0,0-6.45,0,5.54,5.54,0,0,0-2.19,2.33,7.6,7.6,0,0,0-.79,3.56,7.62,7.62,0,0,0,.79,3.56,5.59,5.59,0,0,0,2.19,2.37,6.75,6.75,0,0,0,6.45,0Z"/><path class="cls-1" d="M131.05,22.57a7,7,0,0,1,1.77,5.06v9.42h-4.06V28.18a4.13,4.13,0,0,0-1-2.94,3.38,3.38,0,0,0-2.61-1,3.46,3.46,0,0,0-2.65,1,4.09,4.09,0,0,0-1,2.94v8.87h-4.06V21h4.06v2a5.59,5.59,0,0,1,2.07-1.64,6.52,6.52,0,0,1,2.77-.59A6.19,6.19,0,0,1,131.05,22.57Z"/><path class="cls-1" d="M140.74,15.6V37.05h-4.06V15.6Z"/><path class="cls-1" d="M145,18.39A2.38,2.38,0,0,1,145,15a2.68,2.68,0,0,1,3.57,0,2.38,2.38,0,0,1,0,3.39,2.68,2.68,0,0,1-3.57,0ZM148.8,21V37.05h-4.06V21Z"/><path class="cls-1" d="M166.34,22.57a7,7,0,0,1,1.77,5.06v9.42h-4.06V28.18a4.17,4.17,0,0,0-1-2.94,3.38,3.38,0,0,0-2.61-1,3.47,3.47,0,0,0-2.66,1,4.09,4.09,0,0,0-1,2.94v8.87H152.8V21h4.06v2a5.59,5.59,0,0,1,2.07-1.64,6.55,6.55,0,0,1,2.77-.59A6.18,6.18,0,0,1,166.34,22.57Z"/><path class="cls-1" d="M186.79,30.24H175A4,4,0,0,0,176.26,33a3.8,3.8,0,0,0,2.64,1A3.32,3.32,0,0,0,182.12,32h4.38a7.28,7.28,0,0,1-2.67,3.81,7.76,7.76,0,0,1-4.84,1.5,8.41,8.41,0,0,1-4.16-1A7.29,7.29,0,0,1,172,33.37a9,9,0,0,1-1-4.35,9.08,9.08,0,0,1,1-4.38,7.15,7.15,0,0,1,2.84-2.9,9.17,9.17,0,0,1,8.31,0,6.89,6.89,0,0,1,2.81,2.8,8.45,8.45,0,0,1,1,4.16A9.35,9.35,0,0,1,186.79,30.24Zm-4.09-2.73a3.21,3.21,0,0,0-1.13-2.5,4,4,0,0,0-2.7-1,3.71,3.71,0,0,0-2.54.92,4.06,4.06,0,0,0-1.26,2.53Z"/><path class="cls-2" d="M109,54.38a5.33,5.33,0,0,1,.3,6,5.37,5.37,0,0,1-2.3,1.93,8.55,8.55,0,0,1-3.57.69H94.74V42.81h8.36a8.75,8.75,0,0,1,3.55.67,5.07,5.07,0,0,1,2.26,1.86,4.86,4.86,0,0,1,.77,2.69,4.66,4.66,0,0,1-.94,3,5.09,5.09,0,0,1-2.51,1.68A4.6,4.6,0,0,1,109,54.38ZM98.8,51.17h3.72a3.37,3.37,0,0,0,2.23-.66,2.3,2.3,0,0,0,.78-1.87,2.33,2.33,0,0,0-.78-1.88,3.32,3.32,0,0,0-2.23-.67H98.8Zm6.4,7.88a2.43,2.43,0,0,0,.82-2,2.53,2.53,0,0,0-.87-2,3.46,3.46,0,0,0-2.34-.74h-4v5.45h4.09A3.45,3.45,0,0,0,105.2,59.05Z"/><path class="cls-2" d="M113.32,50.64a6.95,6.95,0,0,1,6.36-3.91,6.6,6.6,0,0,1,3.15.72A6.5,6.5,0,0,1,125,49.28V47h4.09V63.05H125V60.71a6.11,6.11,0,0,1-2.16,1.87,6.66,6.66,0,0,1-3.18.74,6.78,6.78,0,0,1-3.69-1,7.13,7.13,0,0,1-2.64-2.94,9.44,9.44,0,0,1-1-4.37A9.29,9.29,0,0,1,113.32,50.64Zm11.09,1.84a4.15,4.15,0,0,0-3.68-2.18,4.08,4.08,0,0,0-2.09.55,4,4,0,0,0-1.55,1.61,5,5,0,0,0-.6,2.5,5.16,5.16,0,0,0,.6,2.54,4.27,4.27,0,0,0,1.56,1.67,4,4,0,0,0,2.08.58,4.13,4.13,0,0,0,2.11-.57,4,4,0,0,0,1.57-1.62,5.85,5.85,0,0,0,0-5.08Z"/><path class="cls-2" d="M146.59,48.57a7,7,0,0,1,1.77,5.06v9.42H144.3V54.18a4.17,4.17,0,0,0-1-2.94,3.38,3.38,0,0,0-2.61-1,3.48,3.48,0,0,0-2.66,1,4.13,4.13,0,0,0-1,2.94v8.87h-4.06V47h4.06v2a5.59,5.59,0,0,1,2.07-1.64,6.55,6.55,0,0,1,2.77-.59A6.16,6.16,0,0,1,146.59,48.57Z"/><path class="cls-2" d="M161.73,63.05l-5.45-6.84v6.84h-4.06V41.6h4.06V53.8L161.67,47H167l-7.07,8.06,7.13,8Z"/><path class="cls-2" d="M169.43,44.39a2.38,2.38,0,0,1,0-3.39A2.68,2.68,0,0,1,173,41a2.38,2.38,0,0,1,0,3.39,2.68,2.68,0,0,1-3.57,0Zm3.79,2.6V63.05h-4.06V47Z"/><path class="cls-2" d="M190.76,48.57a7,7,0,0,1,1.77,5.06v9.42h-4.06V54.18a4.13,4.13,0,0,0-1-2.94,3.35,3.35,0,0,0-2.61-1,3.46,3.46,0,0,0-2.65,1,4.09,4.09,0,0,0-1,2.94v8.87h-4.06V47h4.06v2a5.59,5.59,0,0,1,2.07-1.64,6.52,6.52,0,0,1,2.77-.59A6.18,6.18,0,0,1,190.76,48.57Z"/><path class="cls-2" d="M205.84,47.44A5.81,5.81,0,0,1,208,49.28V47h4.09V63.17a8.62,8.62,0,0,1-.9,4,6.63,6.63,0,0,1-2.7,2.78,8.59,8.59,0,0,1-4.35,1,9.31,9.31,0,0,1-5.61-1.59A5.93,5.93,0,0,1,196,65h4a3,3,0,0,0,1.38,1.75,4.73,4.73,0,0,0,2.56.65,4,4,0,0,0,2.88-1.05,4.29,4.29,0,0,0,1.1-3.21V60.68a6.22,6.22,0,0,1-2.16,1.88,6.49,6.49,0,0,1-3.15.76,6.87,6.87,0,0,1-3.71-1,7.24,7.24,0,0,1-2.66-2.94,9.56,9.56,0,0,1-1-4.37,9.41,9.41,0,0,1,1-4.32,7.21,7.21,0,0,1,2.64-2.9,7.12,7.12,0,0,1,3.73-1A6.78,6.78,0,0,1,205.84,47.44Zm1.57,5a4.15,4.15,0,0,0-3.69-2.18,4,4,0,0,0-2.08.55,4.1,4.1,0,0,0-1.56,1.61,5.08,5.08,0,0,0-.59,2.5,5.26,5.26,0,0,0,.59,2.54,4.29,4.29,0,0,0,1.57,1.67,4,4,0,0,0,2.07.58,4.16,4.16,0,0,0,2.12-.57,4,4,0,0,0,1.57-1.62,5.85,5.85,0,0,0,0-5.08Z"/></g></g></svg>