<svg id="Layer_1" data-name="Layer 1" xmlns="http://www.w3.org/2000/svg" viewBox="0 0 60.53 60.26"><defs><style>.cls-1,.cls-2,.cls-3{fill:none;stroke:#0d67f9;stroke-linecap:round;stroke-width:2px;}.cls-1,.cls-3{stroke-miterlimit:10;}.cls-2{stroke-linejoin:round;}.cls-3{stroke-opacity:0.5;}</style></defs><path class="cls-1" d="M15.73,31.12a29.37,29.37,0,0,1,54.11,0" transform="translate(-12.23 -12.18)"/><path class="cls-1" d="M69.84,53.5a29.37,29.37,0,0,1-54.11,0" transform="translate(-12.23 -12.18)"/><path class="cls-2" d="M64.75,30l5.4,1.6,1.62-5.37" transform="translate(-12.23 -12.18)"/><path class="cls-2" d="M20.34,54.09,15,52.35l-1.75,5.34" transform="translate(-12.23 -12.18)"/><path class="cls-3" d="M42.66,29h5.9V25l7,7-7,7V35.15H36.13V31.31l-7,7,7,7v-4H42" transform="translate(-12.23 -12.18)"/><path class="cls-1" d="M42.68,52.19c0-2.43-3.37-4.41-7.57-4.43s-7.6,1.92-7.62,4.34,3.38,4.41,7.57,4.43S42.67,54.61,42.68,52.19Z" transform="translate(-12.23 -12.18)"/><path class="cls-1" d="M27.49,52.14v2.53a3.8,3.8,0,0,0,2.24,3.12,11.87,11.87,0,0,0,10.75,0,3.73,3.73,0,0,0,2.2-3.11V52.15" transform="translate(-12.23 -12.18)"/><path class="cls-1" d="M60,45.68c0-2.42-3.37-4.4-7.57-4.43s-7.6,1.92-7.62,4.35S48.19,50,52.39,50,60,48.1,60,45.68Z" transform="translate(-12.23 -12.18)"/><path class="cls-1" d="M44.81,45.64v2.52a3.8,3.8,0,0,0,2.24,3.12,11.85,11.85,0,0,0,10.74,0A3.72,3.72,0,0,0,60,48.19V45.64" transform="translate(-12.23 -12.18)"/><path class="cls-1" d="M44.81,48.43V51a3.83,3.83,0,0,0,2.24,3.12,11.88,11.88,0,0,0,10.74,0A3.74,3.74,0,0,0,60,51V48.44" transform="translate(-12.23 -12.18)"/><path class="cls-1" d="M44.81,51.68v2.53a3.8,3.8,0,0,0,2.24,3.11,11.88,11.88,0,0,0,10.74,0A3.74,3.74,0,0,0,60,54.24V51.69" transform="translate(-12.23 -12.18)"/></svg>