<svg width="35" height="35" viewBox="0 0 35 35" fill="none" xmlns="http://www.w3.org/2000/svg">
<path d="M17.13 30.51H6.92C4.75 30.51 3 28.75 3 26.59V11.65C3 9.47998 4.76 7.72998 6.92 7.72998H27.34C29.51 7.72998 31.26 9.48998 31.26 11.65V20.12" stroke="#0D67F9" stroke-width="2" stroke-miterlimit="10" stroke-linecap="round" stroke-linejoin="round"/>
<path d="M19.7401 3H14.5301C13.7201 3 13.0601 3.66 13.0601 4.47V7.72H21.2101V4.47C21.2101 3.66 20.5501 3 19.7401 3Z" stroke="#0D67F9" stroke-width="2" stroke-miterlimit="10" stroke-linecap="round" stroke-linejoin="round"/>
<path d="M3 15H31.27" stroke="#0D67F9" stroke-width="2" stroke-miterlimit="10" stroke-linecap="round" stroke-linejoin="round"/>
<path d="M17.1299 15.5V18.62" stroke="#0D67F9" stroke-width="2" stroke-miterlimit="10" stroke-linecap="round" stroke-linejoin="round"/>
<path d="M24.4701 30.4499C27.0437 30.4499 29.1301 28.3635 29.1301 25.7899C29.1301 23.2162 27.0437 21.1299 24.4701 21.1299C21.8964 21.1299 19.8101 23.2162 19.8101 25.7899C19.8101 28.3635 21.8964 30.4499 24.4701 30.4499Z" stroke="#0D67F9" stroke-width="2" stroke-miterlimit="10" stroke-linecap="round" stroke-linejoin="round"/>
<path d="M27.89 28.96L30.79 31.92" stroke="#0D67F9" stroke-width="2" stroke-miterlimit="10" stroke-linecap="round" stroke-linejoin="round"/>
</svg>
