<svg width="146" height="125" viewBox="0 0 146 125" fill="none" xmlns="http://www.w3.org/2000/svg">
<path d="M18.8578 56.7773L19.0207 55.3113C19.0207 55.1484 19.1836 55.1484 19.2922 55.1484L25.2103 55.5828C25.3731 55.5828 25.3731 55.7457 25.3731 55.8543V56.723C25.3731 56.8858 25.2102 56.8859 25.1016 56.8859L20.5409 56.4515L23.7986 57.7546C23.9614 57.7546 23.9615 57.9174 23.9615 58.026V58.8947C23.9615 59.0576 23.7986 59.0576 23.7986 59.1662L20.1066 59.9263L24.6673 60.3607C24.8302 60.3607 24.8302 60.3607 24.8302 60.3607V60.5236V61.3923C24.8302 61.5551 24.6673 61.5551 24.5587 61.5551L18.6406 61.1208C18.6406 61.1208 18.6406 60.9579 18.6406 60.8493L18.8035 59.2205C18.8035 59.0576 18.8036 59.0576 18.9664 59.0576L22.4956 58.1889L19.1293 56.8859C18.8578 56.9401 18.8578 56.9401 18.8578 56.7773Z" fill="#062652"/>
<path d="M26.0766 51.6196L25.8051 52.8141C25.6422 53.4114 25.5336 53.6828 25.045 54.0086C24.7735 54.2801 24.2849 54.2801 23.8505 54.1715L20.7557 53.4114C20.3214 53.2485 19.887 53.1399 19.7241 52.6512C19.5613 52.2169 19.4527 51.8911 19.5613 51.3482L19.8328 50.1537C19.9956 49.5565 20.1042 49.285 20.5929 48.9592C20.8644 48.6878 21.353 48.6878 21.7873 48.7964L24.8821 49.5565C25.3164 49.7194 25.7508 49.8279 25.9137 50.3166C26.2394 50.5881 26.2395 51.0224 26.0766 51.6196ZM24.9364 52.3798L25.0993 51.6196C25.0993 51.4568 25.0993 51.1853 25.0993 51.1853C25.0993 51.0224 24.9364 51.0224 24.665 50.9138L21.7331 50.3166C21.5702 50.3166 21.4616 50.3166 21.2987 50.3166C21.1358 50.3166 21.1358 50.4795 21.0272 50.7509L20.8644 51.5111C20.8644 51.6739 20.8644 51.9454 20.8644 51.9454C20.8644 52.1083 21.0272 52.1083 21.2987 52.2169L24.2306 52.8141C24.3935 52.8141 24.5021 52.8141 24.665 52.8141C24.7735 52.6512 24.7735 52.5426 24.9364 52.3798Z" fill="#062652"/>
<path d="M25.2083 48.5257H25.0454C24.8825 48.5257 24.8825 48.3628 24.8825 48.2542L25.1539 47.3855C25.1539 47.2227 25.3168 47.2227 25.4254 47.2227C25.6969 47.3855 25.8598 47.3855 26.0227 47.2227C26.1856 47.0598 26.2942 46.9512 26.2942 46.7883L26.457 46.354C26.6199 46.0825 26.6199 45.9196 26.457 45.7567C26.457 45.5938 26.2942 45.4853 26.0227 45.4853H25.8598C25.6969 45.4853 25.5883 45.4852 25.4254 45.6481C25.2625 45.811 25.154 45.9196 24.9911 46.2454C24.8282 46.5168 24.8282 46.6797 24.7196 47.0055C24.611 47.3312 24.4481 47.4398 24.2853 47.7656C24.1224 47.9285 23.8509 48.0371 23.5251 48.2C23.2537 48.2 22.9279 48.2 22.4936 48.0371L22.2221 47.8742C21.7878 47.7113 21.462 47.4398 21.1905 47.0055C21.0276 46.5711 21.0276 46.1368 21.1905 45.7024L21.462 44.6708C21.6249 44.0736 21.8963 43.8021 22.3307 43.6393C22.765 43.4764 23.0908 43.4764 23.6338 43.6393H23.7966C23.9595 43.6393 23.9595 43.8021 23.9595 43.9107L23.688 44.7794C23.688 44.9423 23.5252 44.9423 23.4166 44.9423C23.1451 44.7794 22.9822 44.7794 22.8193 44.9423C22.6565 45.1052 22.5479 45.2138 22.5479 45.3767L22.385 45.811C22.2221 46.0825 22.2221 46.2454 22.385 46.4082C22.385 46.5711 22.6565 46.6797 22.8193 46.6797H22.9822C23.2537 46.8426 23.5794 46.5168 23.7423 46.0825C24.0138 45.4853 24.1767 45.0509 24.611 44.7794C24.7739 44.6165 25.0454 44.508 25.3711 44.3451C25.6426 44.3451 25.9684 44.3451 26.4027 44.508L26.6742 44.6708C27.1086 44.8337 27.4343 45.1052 27.7058 45.5395C27.8687 45.9739 27.8687 46.4083 27.7058 46.8426L27.2714 47.8742C27.1086 48.3085 26.8371 48.7429 26.4027 48.9058C26.077 48.6886 25.6426 48.6886 25.2083 48.5257Z" fill="#062652"/>
<path d="M29.4973 41.9023L29.063 42.6624C29.063 42.8253 28.9001 42.8253 28.7915 42.8253L24.3937 40.7621H24.2308L23.7964 41.7937C23.7964 41.9566 23.6335 41.9566 23.525 41.9566L23.0906 41.6852C22.9278 41.6852 22.9277 41.5223 22.9277 41.4137L24.5566 37.8846C24.5566 37.7217 24.7194 37.7217 24.828 37.7217L25.4252 37.9932C25.5881 37.9932 25.5882 38.156 25.5882 38.2646L25.1538 39.2962C25.1538 39.4591 25.1538 39.4591 25.1538 39.4591L29.5517 41.5223C29.6602 41.6309 29.6602 41.7394 29.4973 41.9023Z" fill="#062652"/>
<path d="M27.4315 33.2154L32.4266 36.3102C32.5894 36.3102 32.5894 36.473 32.4266 36.5816L31.9922 37.3417C31.8294 37.5046 31.8294 37.5046 31.7208 37.5046L26.7257 34.4099C26.5628 34.4099 26.5628 34.247 26.7257 34.1384L27.1601 33.3783C27.2686 33.0525 27.4315 33.0525 27.4315 33.2154Z" fill="#062652"/>
<path d="M33.8944 34.4103L33.2971 35.1704C33.1342 35.3333 33.1342 35.3333 33.0257 35.1704L28.3021 31.6413C28.1392 31.4784 28.1392 31.4784 28.3021 31.3698L28.7365 30.7726C28.8994 30.6097 28.8994 30.6097 29.0079 30.6097L33.2971 31.207L30.3653 28.9809C30.2024 28.818 30.2024 28.818 30.3653 28.7094L30.9625 27.9493C31.1254 27.7864 31.1254 27.7864 31.234 27.9493L35.9575 31.4784C36.1204 31.6413 36.1204 31.6413 35.9575 31.7499L35.5232 32.3471C35.3604 32.51 35.3604 32.51 35.2518 32.51L31.1254 31.9128L34.0573 34.1388C34.0573 34.2474 34.0573 34.2474 33.8944 34.4103Z" fill="#062652"/>
<path d="M37.7501 29.85L37.1528 30.4473C36.99 30.6101 36.99 30.6101 36.8814 30.4473L32.755 26.3209C32.5921 26.158 32.5921 26.158 32.755 26.0494L33.3523 25.4522C33.5151 25.2893 33.5151 25.2893 33.6237 25.2893L37.7501 26.3209L35.0896 23.8234C34.9268 23.6605 34.9268 23.6605 35.0896 23.5519L35.6869 22.9547C35.8498 22.7918 35.8498 22.7918 35.9583 22.9547L40.0847 27.081C40.2476 27.2439 40.2476 27.2439 40.0847 27.3525L39.4875 27.9497C39.3246 28.1126 39.216 28.1126 39.0531 28.1126L34.9267 27.081L37.5872 29.5786C37.8586 29.6871 37.8587 29.6871 37.7501 29.85Z" fill="#062652"/>
<path d="M43.3415 24.6924L42.4728 25.4525C42.0385 25.724 41.6041 25.8869 41.2784 25.8869C40.844 25.8869 40.5183 25.6154 40.2468 25.2896L38.3465 22.955C38.075 22.5206 37.9121 22.1949 37.9121 21.7605C37.9121 21.3262 38.1836 21.0004 38.6722 20.5661L39.5409 19.8059C39.9753 19.5345 40.4097 19.3716 40.7354 19.3716C41.0612 19.3716 41.4956 19.6431 41.767 19.9688L43.6673 22.3035C43.9388 22.7378 44.1016 23.0636 44.1016 23.4979C44.0474 23.9323 43.7759 24.258 43.3415 24.6924ZM41.8756 24.3666L42.4728 23.9323C42.6357 23.7694 42.7443 23.6608 42.7443 23.4979C42.7443 23.335 42.7443 23.2265 42.5815 23.0636L40.6812 20.7289C40.5183 20.5661 40.4097 20.4575 40.2468 20.4575C40.0839 20.4575 39.9753 20.4575 39.8124 20.6203L39.2152 21.0547C39.0523 21.2176 38.9437 21.3262 38.9437 21.4891C38.9437 21.6519 38.9437 21.7605 39.1066 21.9234L41.0069 24.2581C41.1698 24.4209 41.2783 24.5295 41.4412 24.5295C41.5498 24.6924 41.7127 24.5295 41.8756 24.3666Z" fill="#062652"/>
<path d="M47.8988 21.4356L46.7043 22.1957C46.5415 22.3586 46.4329 22.1957 46.4329 22.1957L41.8722 18.0694C41.7093 17.9065 41.7093 17.9065 41.8722 17.7979L42.7409 17.2007C42.9037 17.0378 43.0123 17.2007 43.0123 17.2007L46.5414 20.7298L45.0755 16.1691C45.0755 16.0062 45.0755 15.8976 45.2384 15.8976L46.1071 15.3004C46.27 15.1375 46.3786 15.3004 46.3786 15.4633L48.1703 21.2184C48.0617 21.2727 48.0617 21.4356 47.8988 21.4356Z" fill="#062652"/>
<path d="M50.7253 19.8066L49.8566 20.241C49.6937 20.241 49.6937 20.241 49.6937 20.0781L48.6621 14.0514C48.6621 13.8886 48.6621 13.78 48.825 13.78L50.0195 13.1827C50.1823 13.0199 50.291 13.1827 50.4538 13.1827L54.4173 17.7434C54.5802 17.9063 54.5802 17.9063 54.4173 18.0149L53.5486 18.4493H53.3857C53.3857 18.4493 53.2228 18.4493 53.2228 18.2864L52.4627 17.5263L50.671 18.395L50.8339 19.4266C50.8339 19.6437 50.8339 19.6437 50.7253 19.8066C50.8339 19.8066 50.8339 19.8066 50.7253 19.8066ZM49.8023 14.6487L50.3995 17.472L51.7026 16.7119L49.8023 14.6487Z" fill="#062652"/>
<path d="M57.1843 17.038L56.3157 17.3094C56.1528 17.3094 56.0442 17.3094 56.0442 17.1465L54.5783 12.5858C54.5783 12.5858 54.5782 12.423 54.4154 12.5858L53.2209 13.0202C53.058 13.0202 52.9494 13.0202 52.9494 12.8573L52.678 12.2601C52.678 12.0972 52.6779 12.0972 52.8408 11.9886L56.5328 10.6855C56.6957 10.6855 56.8043 10.6855 56.8043 10.8484L57.0758 11.4457C57.0758 11.6085 57.0758 11.6085 56.9129 11.7171L55.7184 12.1515C55.5556 12.1515 55.5555 12.3144 55.5555 12.3144L57.1843 16.8751C57.4558 16.8751 57.3472 17.038 57.1843 17.038Z" fill="#062652"/>
<path d="M59.4093 10.0882L61.0382 15.6805C61.0382 15.8433 61.0381 15.8433 60.8753 15.9519L59.8437 16.2234C59.6808 16.2234 59.5722 16.2234 59.5722 16.0605L57.9434 10.4682C57.9434 10.3054 57.9434 10.3054 58.1063 10.1968L58.975 9.92529C59.2464 9.92529 59.2465 9.92529 59.4093 10.0882Z" fill="#062652"/>
<path d="M65.0016 15.0832L63.6985 15.3546C63.5356 15.3546 63.4271 15.3546 63.4271 15.1918L60.7667 9.59946C60.6038 9.43658 60.7667 9.32799 60.9295 9.32799L61.9611 9.16511C62.124 9.16511 62.2326 9.16511 62.2326 9.32799L64.1329 13.8887L64.2958 9.00222C64.2958 8.83934 64.2958 8.73075 64.4587 8.73075L65.4903 8.56787C65.6531 8.56787 65.7617 8.56787 65.7617 8.73075L65.1645 14.7574C65.1645 14.9746 65.1645 15.0832 65.0016 15.0832Z" fill="#062652"/>
<path d="M71.1934 14.3776L67.8272 14.6491C67.6643 14.6491 67.5557 14.6491 67.5557 14.4862L67.1213 8.56814C67.1213 8.40526 67.1214 8.40526 67.2842 8.29667L70.6505 8.13379C70.8133 8.13379 70.8133 8.13379 70.9219 8.29667V9.05679C70.9219 9.21967 70.9219 9.21967 70.759 9.21967L68.533 9.38255C68.3701 9.38255 68.3701 9.38255 68.3701 9.54544L68.533 10.8485C68.533 10.8485 68.533 11.0114 68.6959 11.0114L70.4875 10.8485C70.6504 10.8485 70.759 10.8485 70.759 11.0114V11.6086C70.759 11.7715 70.7591 11.7715 70.5962 11.8801L68.8044 12.043C68.6416 12.043 68.6416 12.043 68.6416 12.2058V13.4003C68.6416 13.4003 68.6416 13.5632 68.8044 13.5632L71.0305 13.4003C71.1934 13.4003 71.1934 13.4003 71.302 13.5632V14.3233C71.3563 14.3776 71.3563 14.3776 71.1934 14.3776Z" fill="#062652"/>
<path d="M78.4096 14.6491L74.9891 14.3776C74.8262 14.3776 74.8262 14.2147 74.8262 14.2147L75.2606 8.29667C75.0977 8.13379 75.2606 8.13379 75.4235 8.13379L78.7897 8.40526C78.9525 8.24238 78.9526 8.40526 78.9526 8.56814V9.32826C78.9526 9.49114 78.7897 9.49114 78.6811 9.49114L76.455 9.32826C76.2921 9.32826 76.2922 9.32826 76.2922 9.49114L76.1292 10.7942C76.1292 10.7942 76.1293 10.9571 76.2922 10.9571L78.0838 11.12C78.2467 11.12 78.2467 11.2828 78.2467 11.3914V11.9887C78.2467 12.1516 78.0838 12.1516 77.9753 12.1516L76.1835 11.9887C76.0206 11.9887 76.0207 11.9887 76.0207 12.1516L75.8578 13.4546C75.8578 13.4546 75.8578 13.6175 76.0207 13.6175L78.2467 13.7804C78.4096 13.7804 78.4096 13.9433 78.4096 13.9433V14.5405C78.5725 14.6491 78.5725 14.6491 78.4096 14.6491Z" fill="#062652"/>
<path d="M82.3753 15.2465L81.1808 15.0836C80.5836 14.9208 80.3121 14.8122 79.9863 14.4864C79.7148 14.2149 79.7148 13.7263 79.7148 13.2919L80.3121 10.1972C80.475 9.59993 80.5835 9.32846 81.0722 9.0027C81.5065 8.73123 81.8323 8.73123 82.3753 8.83981L83.4069 9.0027C84.0041 9.16558 84.2755 9.27417 84.6013 9.59993C84.8728 9.8714 84.8728 10.36 84.8728 10.7944L84.7099 11.2288C84.7099 11.3916 84.5471 11.3916 84.4385 11.3916L83.5698 11.2288C83.4069 11.2288 83.4069 11.0659 83.4069 10.9573V10.5229C83.4069 10.36 83.4069 10.2515 83.4069 10.0886C83.4069 9.9257 83.1354 9.92569 82.9725 9.92569L82.2124 9.76281C82.0495 9.76281 81.778 9.76281 81.778 9.76281C81.6152 9.76281 81.6151 9.92569 81.6151 10.1972L81.0179 13.129C81.0179 13.2919 81.0179 13.4005 81.0179 13.5634C81.1808 13.8349 81.2894 13.9978 81.6151 13.9978L82.3753 14.1606C82.5381 14.1606 82.8096 14.1606 82.8096 14.1606C82.9725 14.1606 82.9725 13.9978 82.9725 13.7263V13.2919C82.9725 13.129 83.1354 13.129 83.244 13.129L84.1127 13.2919C84.2756 13.2919 84.2756 13.4548 84.2756 13.5634V13.9978C84.1127 14.4321 84.0041 14.8665 83.6783 15.0293C83.244 15.2465 82.8096 15.4094 82.3753 15.2465Z" fill="#062652"/>
<path d="M86.0668 16.1145L85.1981 15.843C85.0352 15.843 85.0352 15.6802 85.0352 15.5716L86.8269 9.97929C86.8269 9.81641 86.9898 9.81641 87.0984 9.81641L87.8584 10.0879C88.0213 10.0879 88.0213 10.2508 88.1299 10.2508L88.9987 14.3771L90.0302 10.848C90.0302 10.6851 90.1931 10.6851 90.3017 10.6851L91.1704 11.1195C91.3333 11.1195 91.3333 11.2823 91.3333 11.3909L89.5416 16.9832C89.5416 17.1461 89.3787 17.1461 89.2701 17.1461L88.51 16.8746C88.3471 16.8746 88.2385 16.7118 88.2385 16.6032L87.3698 12.6397L86.3382 16.0059C86.2296 16.1145 86.2296 16.1145 86.0668 16.1145Z" fill="#062652"/>
<path d="M92.8516 18.3406L95.512 13.0198C95.512 12.8569 95.6749 12.8569 95.7835 12.8569L98.1181 14.16C98.5524 14.4315 98.8782 14.7572 98.9868 15.0287C99.0953 15.3002 99.1497 15.7888 98.8239 16.2232L98.661 16.4946C98.3895 16.929 98.0638 17.2548 97.4666 17.0919C97.738 17.2548 97.9009 17.3633 97.9009 17.6891C97.9009 17.9606 97.9009 18.1235 97.738 18.4492L97.4666 19.0465C97.3037 19.6437 97.0322 19.9152 96.5979 19.9152C96.1635 20.078 95.7291 19.9152 95.2948 19.7523L92.9601 18.5578C92.8515 18.6121 92.8516 18.5035 92.8516 18.3406ZM94.5889 18.3406L95.6205 18.9379C95.7834 19.1008 96.0549 19.1008 96.0549 19.1008C96.0549 19.1008 96.3264 18.9379 96.3264 18.8293L96.5979 18.3949C96.7608 18.232 96.7608 18.1235 96.5979 17.9606C96.5979 17.7977 96.435 17.6891 96.1635 17.6891L95.1319 17.0919H94.969L94.2089 18.3949C94.4804 18.1778 94.4804 18.1778 94.5889 18.3406ZM95.7835 15.8431L96.6521 16.2775C96.815 16.4403 96.9236 16.4403 97.0865 16.4403C97.2493 16.4403 97.3579 16.2775 97.3579 16.1689L97.5208 15.8974C97.6837 15.7345 97.6837 15.6259 97.5208 15.463C97.358 15.3002 97.3579 15.1916 97.0865 15.1916L96.0549 14.7572H95.892L95.2948 15.9517C95.6206 15.8431 95.7835 15.8431 95.7835 15.8431Z" fill="#062652"/>
<path d="M98.7143 21.7066L97.9542 21.2723C97.7913 21.1094 97.7913 21.1094 97.9542 21.0008L101.212 16.1143C101.375 15.9515 101.375 15.9515 101.483 16.1143L103.546 17.4174C103.981 17.6889 104.307 18.0146 104.415 18.449C104.578 18.8833 104.415 19.3177 104.144 19.6435L103.709 20.2407C103.275 20.8379 102.841 21.1094 102.081 21.0008L101.809 23.4983C101.809 23.6612 101.646 23.6612 101.538 23.6612L100.777 23.2269C100.615 23.2269 100.615 23.064 100.615 23.064V22.9011L100.886 20.5665L100.289 19.9692H100.126L98.9314 21.5981C99.04 21.8695 98.8771 21.8695 98.7143 21.7066ZM100.777 19.2091L101.646 19.8063C101.809 19.9692 101.918 19.9692 102.081 19.9692C102.243 19.9692 102.352 19.8063 102.352 19.6978L102.786 19.1005C102.949 18.9376 102.949 18.8291 102.949 18.6662C102.949 18.5033 102.786 18.3947 102.678 18.2318L101.809 17.6346H101.646L100.777 19.1005C100.777 19.1005 100.777 19.1005 100.777 19.2091Z" fill="#062652"/>
<path d="M104.471 26.1586L103.602 25.3985C103.168 25.127 103.005 24.6383 102.842 24.204C102.842 23.7696 103.005 23.4439 103.276 23.0095L105.339 20.6749C105.611 20.2405 106.099 20.0776 106.534 20.0776C106.968 20.0776 107.403 20.2405 107.728 20.512L108.597 21.2721C109.031 21.5436 109.194 22.0322 109.357 22.4666C109.357 22.9009 109.194 23.2267 108.923 23.661L106.86 25.9957C106.588 26.43 106.099 26.5929 105.665 26.5929C105.339 26.5929 104.905 26.43 104.471 26.1586ZM104.471 24.6926L105.068 25.127C105.231 25.2899 105.339 25.2899 105.502 25.2899C105.665 25.2899 105.774 25.127 105.937 25.0184L107.837 22.7923C108 22.6295 108 22.5209 108 22.358C108 22.1951 107.837 22.0865 107.728 21.9236L107.131 21.4893C106.968 21.3264 106.86 21.3264 106.697 21.3264C106.534 21.3264 106.425 21.4893 106.262 21.5979L104.362 23.8239C104.199 23.9868 104.199 24.0954 104.199 24.2583C104.199 24.3669 104.308 24.5298 104.471 24.6926Z" fill="#062652"/>
<path d="M107.403 28.8186L106.806 28.2214C106.643 28.0585 106.643 28.0585 106.806 27.9499L111.095 23.9864C111.258 23.8235 111.258 23.8235 111.366 23.9864L111.964 24.5837C112.127 24.7465 112.127 24.7465 111.964 24.8551L109.901 26.6468C110.063 26.6468 110.335 26.4839 110.661 26.4839L113.321 26.2125C113.484 26.2125 113.593 26.2125 113.755 26.3754L114.516 27.1355V27.2984C114.516 27.2984 114.516 27.2984 114.353 27.2984L111.095 27.5698L110.226 31.4247C110.226 31.5876 110.226 31.5876 110.063 31.5876C110.063 31.5876 109.901 31.5876 109.901 31.4247L109.303 30.8275C109.14 30.6646 109.032 30.556 109.14 30.3931L109.738 27.5698H108.706L107.674 28.8729C107.566 28.8186 107.566 28.8186 107.403 28.8186Z" fill="#062652"/>
<path d="M112.722 35.0078L110.659 32.1845C110.496 32.0216 110.496 32.0216 110.659 31.913L115.383 28.3839C115.546 28.221 115.546 28.3839 115.654 28.3839L117.718 31.2072C117.88 31.3701 117.718 31.3701 117.718 31.4787L117.12 31.913C116.957 32.0759 116.957 31.913 116.849 31.913L115.546 30.1213C115.546 30.1213 115.383 29.9584 115.383 30.1213L114.351 30.8814V31.0443L115.383 32.5103C115.546 32.6731 115.546 32.6731 115.383 32.7817L114.786 33.2161C114.623 33.379 114.623 33.2161 114.514 33.2161L113.483 31.7501C113.483 31.7501 113.32 31.5873 113.32 31.7501L112.288 32.6189V32.7817L113.591 34.5734C113.754 34.7363 113.591 34.7363 113.591 34.8449L112.994 35.2793C112.885 35.1164 112.722 35.1164 112.722 35.0078Z" fill="#062652"/>
<path d="M113.919 37.0704L113.485 36.3103C113.322 36.1474 113.485 36.0388 113.485 36.0388L118.48 33.1069C118.642 33.1069 118.642 33.1069 118.751 33.2698L120.054 35.333C120.326 35.7673 120.488 36.2017 120.326 36.636C120.163 37.0704 120.054 37.3962 119.565 37.6676L118.968 38.102C118.371 38.5363 117.774 38.3735 117.176 38.102L115.873 40.1652C115.711 40.328 115.711 40.328 115.602 40.1652L115.168 39.405C115.168 39.2422 115.005 39.2422 115.005 39.1336V38.9707L116.308 37.0704L116.036 36.2017C116.036 36.2017 115.873 36.0388 115.873 36.2017L114.082 37.2333C114.19 37.179 114.082 37.179 113.919 37.0704ZM117.014 35.5502L117.611 36.4189C117.774 36.5818 117.882 36.6903 117.882 36.6903C118.045 36.6903 118.154 36.6903 118.317 36.5275L118.914 36.0931C119.077 35.9302 119.185 35.8216 119.185 35.8216C119.185 35.8216 119.185 35.5502 119.022 35.3873L118.588 34.6272C118.588 34.6272 118.425 34.4643 118.425 34.6272L117.014 35.5502Z" fill="#062652"/>
<path d="M117.447 43.6938L117.176 42.8251C117.176 42.6622 117.176 42.6622 117.339 42.6622L123.365 42.0649C123.528 42.0649 123.637 42.0649 123.637 42.2278L124.071 43.5309C124.071 43.6938 124.071 43.8024 123.908 43.8024L119.022 47.4944C118.859 47.6572 118.859 47.6572 118.75 47.4944L118.587 46.4628V46.2999C118.587 46.2999 118.587 46.137 118.75 46.137L119.619 45.3769L118.75 43.5852L117.556 43.7481C117.61 43.8024 117.61 43.8024 117.447 43.6938C117.447 43.6938 117.447 43.8024 117.447 43.6938ZM122.768 43.2594L119.836 43.5309L120.433 44.9968L122.768 43.2594Z" fill="#062652"/>
<path d="M120.703 47.8193H120.866C121.029 47.8193 121.029 47.8194 121.137 47.9822L121.409 48.8509C121.409 49.0138 121.409 49.1224 121.246 49.1224H121.083C120.811 49.1224 120.648 49.2853 120.648 49.3939C120.648 49.5025 120.648 49.6653 120.648 49.9911L120.811 50.4255C120.811 50.6969 120.974 50.8598 121.083 50.8598C121.246 51.0227 121.354 51.0227 121.68 50.8598H121.843C122.006 50.8598 122.114 50.6969 122.114 50.5883C122.114 50.4255 122.114 50.154 122.114 49.9911C122.114 49.7196 122.114 49.5568 121.952 49.231C121.952 48.9595 121.952 48.6338 121.952 48.3623C121.952 48.0908 122.114 47.9279 122.223 47.6022C122.332 47.2764 122.657 47.1678 123.092 47.1678L123.363 47.0049C123.798 46.8421 124.232 46.8421 124.666 47.1678C125.101 47.4393 125.263 47.7651 125.426 48.3623L125.698 49.3939C125.861 49.9911 125.861 50.4255 125.535 50.6969C125.372 50.9684 124.938 51.2942 124.503 51.4571H124.34C124.178 51.4571 124.178 51.4571 124.069 51.2942L123.798 50.4255C123.798 50.2626 123.798 50.154 123.96 50.154C124.232 50.154 124.395 49.9911 124.395 49.8825C124.395 49.7739 124.395 49.6111 124.395 49.2853L124.558 48.8509C124.558 48.5795 124.395 48.4166 124.286 48.2537C124.123 48.2537 124.015 48.2537 123.689 48.2537H123.526C123.255 48.4166 123.092 48.6881 123.255 49.2853C123.417 49.8825 123.417 50.4798 123.417 50.9141C123.417 51.1856 123.255 51.3485 123.146 51.6742C123.037 52 122.712 52.1086 122.277 52.1086L122.006 52.2715C121.571 52.4344 121.137 52.4343 120.703 52.1086C120.268 51.8371 120.106 51.5114 119.943 50.9141L119.671 49.8825C119.508 49.2853 119.508 48.8509 119.834 48.5795C119.78 48.0908 120.268 47.9279 120.703 47.8193Z" fill="#062652"/>
<path d="M126.729 54.0086L120.973 55.0402C120.81 55.0402 120.81 55.0402 120.702 54.8773L120.539 54.0086C120.539 53.8457 120.539 53.7372 120.702 53.7372L126.457 52.7056C126.62 52.7056 126.62 52.7056 126.729 52.8685L126.891 53.7372C126.891 54.0086 126.891 54.0086 126.729 54.0086Z" fill="#062652"/>
<path d="M120.973 57.1032L120.811 56.0716C120.811 55.9087 120.811 55.9087 120.973 55.9087L127 57.1032C127.163 57.1032 127.163 57.266 127.272 57.3746L127.434 58.6777C127.434 58.8406 127.434 58.9492 127.272 58.9492L121.516 61.1752C121.353 61.1752 121.353 61.1752 121.353 61.0123L121.191 59.9807C121.191 59.8179 121.191 59.8179 121.191 59.8179C121.191 59.8179 121.353 59.8179 121.353 59.655L122.385 59.2206L122.222 57.1575L121.191 56.9946C121.028 56.9946 121.028 56.9946 121.028 56.9946C121.028 56.9946 120.973 57.2117 120.973 57.1032ZM126.131 58.2433L123.2 57.6461L123.362 59.112L126.131 58.2433Z" fill="#062652"/>
<path d="M57.3494 115.737L57.6208 114.542C57.7837 114.108 58.0552 113.673 58.6524 113.511L61.5843 112.045C62.0187 111.882 62.3444 111.61 62.453 111.176L62.6159 110.742C62.6159 110.47 62.6159 110.307 62.6159 110.144C62.453 109.981 62.3444 109.873 62.0186 109.873L61.2585 109.71C60.987 109.71 60.8242 109.71 60.6613 109.71C60.4984 109.71 60.3898 109.981 60.3898 110.307L60.227 110.742C60.227 110.904 60.0641 111.013 59.9555 110.904L58.761 110.633C58.5981 110.633 58.4895 110.47 58.4895 110.361L58.6524 109.927C58.8153 109.167 59.0868 108.733 59.684 108.461C60.1184 108.19 60.7156 108.19 61.4757 108.298L62.5073 108.57C63.2674 108.733 63.7018 109.004 64.1361 109.438C64.4076 109.873 64.5705 110.47 64.4076 111.067L64.2447 111.502C64.0818 112.262 63.6475 112.696 63.0502 112.968L59.9555 114.434C59.7926 114.434 59.7926 114.596 59.684 114.705V114.868L62.9417 115.628C63.1046 115.628 63.2132 115.791 63.2132 115.899L62.7788 117.094C62.7788 117.257 62.6159 117.365 62.5073 117.257L57.5123 116.062C57.3494 116.008 57.3494 115.899 57.3494 115.737Z" fill="#062652"/>
<path d="M70.3248 118.071L68.8589 117.908C68.0987 117.908 67.5558 117.637 67.23 117.311C66.9586 117.04 66.6328 116.442 66.6328 115.682L66.9043 111.556C66.9043 110.796 67.1758 110.361 67.6644 109.927C68.0988 109.656 68.696 109.493 69.4561 109.493L70.9221 109.656C71.6822 109.656 72.2251 109.927 72.5509 110.253C72.8224 110.524 73.1481 111.122 73.1481 111.882L72.8766 116.008C72.8766 116.768 72.6051 117.202 72.1165 117.637C71.6279 117.963 71.0307 118.071 70.3248 118.071ZM69.2932 116.605H70.1619C70.4334 116.605 70.7592 116.605 70.7592 116.442C70.922 116.279 70.9221 116.171 70.9221 115.845L71.085 111.882C71.085 111.61 71.0849 111.447 70.9221 111.284C70.7592 111.121 70.6506 111.121 70.3248 111.121H69.4561C69.1847 111.121 68.8589 111.121 68.8589 111.284C68.696 111.447 68.696 111.556 68.696 111.882L68.5331 115.736C68.5331 116.008 68.5331 116.171 68.696 116.334C68.8046 116.442 68.9675 116.605 69.2932 116.605Z" fill="#062652"/>
<path d="M76.5135 117.799L76.3506 116.605C76.3506 116.17 76.5135 115.736 76.9478 115.302L79.2825 112.967C79.7168 112.533 79.8797 112.207 79.7168 111.773V111.338C79.7168 111.067 79.5539 110.904 79.4453 110.741C79.2824 110.578 79.011 110.578 78.6853 110.578H78.2509C77.9794 110.578 77.8165 110.741 77.6537 110.85C77.4908 111.121 77.4908 111.284 77.4908 111.61V112.044C77.4908 112.207 77.4908 112.316 77.2193 112.316L76.0248 112.478C75.862 112.478 75.7534 112.478 75.7534 112.207V111.773C75.5905 111.012 75.7533 110.578 76.1877 110.144C76.4592 109.709 77.0564 109.384 77.8165 109.384L78.8481 109.221C79.6082 109.058 80.1512 109.221 80.6398 109.492C81.0742 109.764 81.4 110.361 81.4 110.958V111.555C81.5629 112.316 81.237 112.858 80.8027 113.347L78.4681 115.682C78.3052 115.845 78.3052 115.953 78.3052 115.953V116.116L81.6714 115.682C81.8343 115.682 81.9429 115.682 81.9429 115.953L82.1058 116.822C82.1058 116.985 82.1058 117.093 81.8343 117.093L76.8393 117.691C76.6221 118.071 76.5135 117.962 76.5135 117.799Z" fill="#062652"/>
<path d="M83.7344 110.85L83.4629 109.655C83.4629 109.492 83.4629 109.384 83.6258 109.221L84.6574 108.189C84.8203 108.027 84.9288 107.918 85.0917 107.918L86.1233 107.646C86.2862 107.646 86.3948 107.646 86.3948 107.809L88.458 115.465C88.458 115.628 88.458 115.628 88.458 115.736L88.2951 115.899L87.1006 116.171C86.9378 116.171 86.8292 116.171 86.8292 116.008L85.2003 109.818L84.0058 110.85C83.8429 111.013 83.8429 111.013 83.7344 110.85Z" fill="#062652"/>
<path d="M103.439 104.227C105.339 103.032 107.13 101.566 108.759 100.101C110.388 98.6347 112.016 97.006 113.319 95.1059C114.622 93.3143 115.98 91.4142 117.011 89.514C118.043 87.6139 119.074 85.5509 119.834 83.4879C120.594 81.4249 121.137 79.199 121.626 77.0274C122.06 74.8016 122.223 72.7386 122.386 70.567C122.549 70.4041 123.689 69.8069 123.58 68.3411C123.417 66.7124 122.277 65.6809 121.68 65.2466C121.68 65.2466 121.517 66.7124 121.083 67.3096C120.811 67.7439 119.888 69.1011 122.114 70.4041C121.951 72.63 121.843 74.8016 121.354 76.8646C120.92 79.0904 120.323 81.1534 119.563 83.2165C118.803 85.2795 117.771 87.3425 116.74 89.2426C115.708 91.1427 114.405 92.9343 113.048 94.6716C111.745 96.4631 110.116 98.0375 108.488 99.5576C106.859 101.023 105.122 102.381 103.167 103.521C101.267 104.715 99.3126 105.747 97.2496 106.615C95.3494 107.484 93.395 108.081 91.4949 108.515C91.2234 108.515 91.0605 108.787 91.0605 109.113V109.384C91.2234 109.656 91.4949 109.818 91.8206 109.656C92.6892 109.221 93.6122 108.895 94.4808 108.624C95.5123 108.19 96.5438 107.755 97.5753 107.321C99.6383 106.615 101.538 105.584 103.439 104.227Z" fill="#7473AD"/>
<path d="M96.9785 108.678C96.9785 108.678 99.476 112.37 103.331 111.61C107.186 110.85 107.892 108.353 107.892 108.353C107.892 108.353 104.96 107.592 103.168 106.724C101.376 105.692 98.1187 106.724 96.9785 108.678Z" fill="#7473AD"/>
<path d="M100.182 101.892C100.019 100.426 99.748 99.232 99.3137 98.3633C99.3137 98.3633 97.8477 100.155 96.6532 101.295C95.1873 102.761 95.6216 105.259 96.4903 106.453C96.5446 106.453 100.508 105.693 100.182 101.892Z" fill="#7473AD"/>
<path d="M111.693 101.132C109.467 100.535 106.535 102.761 106.264 104.499C106.264 104.499 108.49 106.725 111.693 105.964C114.951 105.367 116.254 101.404 116.254 101.404C116.254 101.404 113.919 101.73 111.693 101.132Z" fill="#7473AD"/>
<path d="M104.473 102.001C104.473 102.001 110.065 99.7752 105.667 93.7485C105.667 93.7485 104.799 95.6488 103.767 97.2777C102.735 99.0694 104.038 101.73 104.473 102.001Z" fill="#7473AD"/>
<path d="M117.448 93.64C114.788 93.8029 113.485 96.4633 113.322 97.7664C113.322 97.7664 116.145 99.5581 118.48 98.0378C120.815 96.5719 122.009 94.1829 121.846 92.8799C121.846 92.8799 120.109 93.3142 117.448 93.64Z" fill="#7473AD"/>
<path d="M110.983 95.9754C110.983 95.9754 114.077 93.7493 112.014 89.7858C111.743 89.1886 111.146 88.4828 110.548 87.9941C110.548 89.0257 109.68 90.0573 109.245 92.1205C108.594 94.5094 109.625 95.541 110.983 95.9754Z" fill="#7473AD"/>
<path d="M118.913 87.2883C118.153 88.0484 117.61 89.3515 117.719 90.3831C117.719 90.3831 120.216 91.4147 122.443 89.7859C124.071 88.5914 124.777 86.5282 124.669 84.3564C121.737 86.2567 121.139 85.0623 118.913 87.2883Z" fill="#7473AD"/>
<path d="M120.976 82.5652C120.976 82.5652 126.134 83.3253 126.405 77.8416C126.405 77.4073 126.405 76.9729 126.405 76.5386C126.405 76.5386 124.939 77.4073 122.876 78.1674C120.813 78.8732 120.976 82.5652 120.976 82.5652Z" fill="#7473AD"/>
<path d="M113.592 87.0172C113.592 88.646 115.655 89.6776 115.655 89.6776C115.655 89.6776 116.958 88.2116 116.524 85.7141C116.361 84.411 115.058 83.488 114.026 82.7822C114.08 83.5966 113.592 85.3883 113.592 87.0172Z" fill="#7473AD"/>
<path d="M117.283 81.2619C118.586 82.4563 119.183 82.2935 119.183 82.2935C119.183 82.2935 120.812 79.3616 117.989 77.5699C117.392 77.1355 116.795 76.8098 116.197 76.7012C116.686 77.5699 116.143 80.3932 117.283 81.2619Z" fill="#7473AD"/>
<path d="M122.602 75.5073C122.602 75.5073 127 75.6702 126.728 70.9466C126.728 70.5123 126.728 70.1865 126.565 69.915C126.565 69.915 125.371 70.7837 123.742 71.5439C122.167 72.2497 122.602 75.5073 122.602 75.5073Z" fill="#7473AD"/>
<path d="M119.238 74.9105C120.269 75.7793 120.704 75.6707 120.704 75.6707C120.704 75.6707 122.007 73.336 119.835 71.8158C119.401 71.5443 118.803 71.2185 118.369 71.0557C118.641 71.8158 118.315 74.2047 119.238 74.9105Z" fill="#7473AD"/>
<path d="M41.8753 104.227C39.9751 103.032 38.1836 101.566 36.5549 100.101C34.9262 98.6347 33.2975 97.006 31.9946 95.1059C30.6916 93.3143 29.3344 91.4142 28.3029 89.514C27.2714 87.6139 26.2399 85.5509 25.4798 83.4879C24.7198 81.4249 24.1769 79.199 23.6883 77.0274C23.1996 74.8558 23.0911 72.7386 22.9282 70.567C22.7653 70.4041 21.6253 69.8069 21.7338 68.3411C21.8967 66.7124 23.0368 65.6809 23.634 65.2466C23.634 65.2466 23.7968 66.7124 24.2311 67.3096C24.5026 67.7439 25.4255 69.1011 23.1996 70.4041C23.3625 72.63 23.4711 74.8016 23.9597 76.8646C24.394 79.0904 24.9912 81.1534 25.7513 83.2165C26.5113 85.2795 27.5428 87.3425 28.5743 89.2426C29.6058 91.1427 30.9088 92.9343 32.266 94.6716C33.569 96.4631 35.1976 98.0375 36.8263 99.5576C38.455 101.023 40.1923 102.381 42.1467 103.521C44.0469 104.715 46.0013 105.747 48.0643 106.615C49.9644 107.484 51.9189 108.081 53.819 108.515C54.0904 108.515 54.2533 108.787 54.2533 109.113V109.384C54.0905 109.656 53.819 109.818 53.4933 109.656C52.6246 109.221 51.7017 108.895 50.8331 108.624C49.8016 108.19 48.7701 107.755 47.7386 107.321C45.6756 106.615 43.7754 105.584 41.8753 104.227Z" fill="#7473AD"/>
<path d="M48.3369 108.678C48.3369 108.678 45.8394 112.37 41.9845 111.61C38.1296 110.85 37.4238 108.353 37.4238 108.353C37.4238 108.353 40.3557 107.592 42.1474 106.724C43.7762 105.692 47.1425 106.724 48.3369 108.678Z" fill="#7473AD"/>
<path d="M45.0797 101.892C45.2426 100.426 45.5141 99.232 45.9484 98.3633C45.9484 98.3633 47.4144 100.155 48.6089 101.295C50.0748 102.761 49.6404 105.259 48.7717 106.453C48.7717 106.453 44.8083 105.693 45.0797 101.892Z" fill="#7473AD"/>
<path d="M33.6252 101.132C35.8512 100.535 38.7831 102.761 39.0546 104.499C39.0546 104.499 36.8285 106.725 33.6252 105.964C30.3675 105.367 29.0645 101.404 29.0645 101.404C29.0645 101.404 31.3991 101.73 33.6252 101.132Z" fill="#7473AD"/>
<path d="M40.844 102.001C40.844 102.001 35.2517 99.7752 39.6495 93.7485C39.6495 93.7485 40.5182 95.6488 41.5498 97.2777C42.5814 99.0694 41.1155 101.73 40.844 102.001Z" fill="#7473AD"/>
<path d="M27.8695 93.64C30.53 93.8029 31.8331 96.4633 31.9959 97.7664C31.9959 97.7664 29.1727 99.5581 26.838 98.0378C24.5034 96.5719 23.3089 94.1829 23.4717 92.8799C23.4717 92.8799 25.2091 93.3142 27.8695 93.64Z" fill="#7473AD"/>
<path d="M34.2213 95.9754C34.2213 95.9754 31.1265 93.7493 33.1897 89.7858C33.4612 89.1886 34.0584 88.4828 34.6556 87.9941C34.6556 89.0257 35.5243 90.0573 35.9587 92.1205C36.5559 94.5094 35.5243 95.541 34.2213 95.9754Z" fill="#7473AD"/>
<path d="M26.4027 87.2883C27.1628 88.0484 27.7057 89.3515 27.5971 90.3831C27.5971 90.3831 25.0996 91.4147 22.8736 89.7859C21.2448 88.5914 20.539 86.5282 20.6475 84.3564C23.4708 86.2567 24.1766 85.0623 26.4027 87.2883Z" fill="#7473AD"/>
<path d="M24.3396 82.5652C24.3396 82.5652 19.1816 83.3253 18.9102 77.8416C18.9102 77.4073 18.9102 76.9729 18.9102 76.5386C18.9102 76.5386 20.3761 77.4073 22.4393 78.1674C24.5024 78.8732 24.3396 82.5652 24.3396 82.5652Z" fill="#7473AD"/>
<path d="M31.7237 87.0167C31.7237 88.6455 29.6605 89.6771 29.6605 89.6771C29.6605 89.6771 28.3574 88.2111 28.7918 85.7136C28.9547 84.4106 30.2577 83.4876 31.2893 82.7817C31.235 83.5961 31.7237 85.3879 31.7237 87.0167Z" fill="#7473AD"/>
<path d="M28.0318 81.2624C26.7288 82.4568 26.1315 82.294 26.1315 82.294C26.1315 82.294 24.5027 79.3621 27.326 77.5704C27.9232 77.136 28.5205 76.8102 29.1177 76.7017C28.6291 77.5704 29.0634 80.3937 28.0318 81.2624Z" fill="#7473AD"/>
<path d="M22.7107 75.5078C22.7107 75.5078 18.3129 75.6707 18.5843 70.9471C18.5843 70.5128 18.5844 70.187 18.7472 69.9155C18.7472 69.9155 19.9417 70.7842 21.5705 71.5443C23.145 72.2502 22.7107 75.5078 22.7107 75.5078Z" fill="#7473AD"/>
<path d="M26.0763 74.9101C25.0447 75.7788 24.6103 75.6702 24.6103 75.6702C24.6103 75.6702 23.3073 73.3355 25.4791 71.8153C25.9134 71.5438 26.5106 71.2181 26.945 71.0552C26.6735 71.8153 26.9993 74.2042 26.0763 74.9101Z" fill="#7473AD"/>
<path d="M124.069 113.836L123.635 113.402C137.207 99.8291 144.699 81.8592 144.699 62.695C144.699 43.6936 137.316 25.7237 123.906 12.3142L124.341 11.8799C137.75 25.4523 145.242 43.5307 145.242 62.695C145.297 81.9678 137.805 100.101 124.069 113.836Z" fill="#7473AD" fill-opacity="0.3"/>
<path d="M106.858 122.359L106.586 121.762C127.976 109.656 141.06 87.0168 141.06 62.6951C141.06 38.3733 127.922 15.8431 106.858 3.62795L107.129 3.03076C128.519 15.4088 141.766 38.2647 141.766 62.6951C141.766 87.2883 128.356 110.144 106.858 122.359Z" fill="#7473AD" fill-opacity="0.5"/>
<path d="M88.7273 124.585L88.5645 123.988C116.686 116.767 136.285 91.577 136.285 62.6949C136.285 33.8128 116.686 8.62239 88.673 1.40187L88.8359 0.804688C117.121 8.02521 136.882 33.3785 136.882 62.6949C136.882 91.8484 117.175 117.365 88.7273 124.585Z" fill="#7473AD"/>
<path d="M22.114 113.836C8.43296 100.155 0.886719 82.0221 0.886719 62.695C0.886719 43.5307 8.37869 25.398 21.7882 11.8799L22.2226 12.3142C8.81303 25.7237 1.42962 43.6936 1.42962 62.695C1.42962 81.8592 8.92161 99.8291 22.494 113.402L22.114 113.836Z" fill="#7473AD" fill-opacity="0.3"/>
<path d="M39.379 122.359C17.8803 110.144 4.4707 87.288 4.4707 62.6948C4.4707 38.2102 17.7174 15.4085 38.9446 3.19336L39.2161 3.79055C18.3146 15.8971 5.17649 38.4273 5.17649 62.7491C5.17649 87.2337 18.4232 109.764 39.6504 121.816L39.379 122.359Z" fill="#7473AD" fill-opacity="0.5"/>
<path d="M57.4557 124.585C29.0079 117.365 9.30078 91.9027 9.30078 62.6949C9.30078 33.487 29.0622 8.02521 57.3471 0.804688L57.51 1.40187C29.4966 8.62239 9.89795 33.8128 9.89795 62.6949C9.89795 91.7398 29.4965 116.93 57.6186 123.988L57.4557 124.585Z" fill="#7473AD"/>
<path d="M73.0927 103.358C50.8339 103.358 32.7012 85.2252 32.7012 62.9664C32.7012 40.7077 50.8339 22.7378 73.0927 22.7378C95.3514 22.7378 113.484 40.8705 113.484 63.1293C113.484 85.388 95.3514 103.358 73.0927 103.358ZM73.0927 23.335C51.2682 23.335 33.4612 41.142 33.4612 62.9664C33.4612 84.7908 51.1597 102.598 73.0927 102.598C94.9171 102.598 112.724 84.7908 112.724 62.9664C112.724 41.142 94.9171 23.335 73.0927 23.335Z" fill="#7473AD"/>
<path d="M61.3125 85.3879H84.0055L78.5766 79.959H73.6905L75.1564 61.229L73.0933 59.166L70.596 61.229L71.6275 79.959H66.7415L61.3125 85.3879Z" fill="url(#paint0_linear_7283_2139)"/>
<path fill-rule="evenodd" clip-rule="evenodd" d="M69.2932 55.3112L58.2181 44.1275H60.7154L71.4647 55.2026L64.5156 62.1517L69.2932 55.3112ZM88.2945 66.4949L77.1109 54.9855L81.3998 47.9278L74.3421 55.1483L85.4172 66.6577L88.2945 66.4949ZM82.5398 66.4949L73.0934 56.6142L57.8923 72.2496L73.202 59.6001L80.1511 66.6577L82.5398 66.4949ZM63.5385 43.9647L72.9849 53.5197L88.2945 37.6128L72.822 50.588L66.4701 43.9647H63.5385Z" fill="url(#paint1_linear_7283_2139)"/>
<defs>
<linearGradient id="paint0_linear_7283_2139" x1="72.7328" y1="81.9799" x2="73.2355" y2="59.2186" gradientUnits="userSpaceOnUse">
<stop stop-color="#3D82F7"/>
<stop offset="0.5775" stop-color="#0D67F9"/>
<stop offset="1" stop-color="#0D49CC"/>
</linearGradient>
<linearGradient id="paint1_linear_7283_2139" x1="63.7164" y1="45.2396" x2="84.7531" y2="67.0112" gradientUnits="userSpaceOnUse">
<stop stop-color="#32D7F5"/>
<stop offset="0.5695" stop-color="#1D93F4"/>
<stop offset="1" stop-color="#0D67F9"/>
</linearGradient>
</defs>
</svg>
