<?xml version="1.0" encoding="utf-8"?>
<!-- Generator: Adobe Illustrator 25.3.1, SVG Export Plug-In . SVG Version: 6.00 Build 0)  -->
<svg version="1.1" id="Layer_1" xmlns="http://www.w3.org/2000/svg" xmlns:xlink="http://www.w3.org/1999/xlink" x="0px" y="0px"
	 viewBox="0 0 643 888" style="enable-background:new 0 0 643 888;" xml:space="preserve">
<style type="text/css">
	.st0{fill:url(#SVGID_1_);}
	.st1{fill:none;stroke:url(#SVGID_2_);stroke-width:2;}
</style>
<g>
	
		<linearGradient id="SVGID_1_" gradientUnits="userSpaceOnUse" x1="321.5" y1="1066" x2="321.5" y2="178" gradientTransform="matrix(1 0 0 -1 0 1066)">
		<stop  offset="0" style="stop-color:#D1F0FF;stop-opacity:0.34"/>
		<stop  offset="0.5969" style="stop-color:#D1F0FF;stop-opacity:0"/>
	</linearGradient>
	<path class="st0" d="M32,0h579c17.7,0,32,14.3,32,32v824c0,17.7-14.3,32-32,32H32c-17.7,0-32-14.3-32-32V32C0,14.3,14.3,0,32,0z"/>
	
		<linearGradient id="SVGID_2_" gradientUnits="userSpaceOnUse" x1="321.5" y1="1066" x2="321.5" y2="595" gradientTransform="matrix(1 0 0 -1 0 1066)">
		<stop  offset="0" style="stop-color:#47B6F5"/>
		<stop  offset="1" style="stop-color:#FFFFFF;stop-opacity:0"/>
	</linearGradient>
	<path class="st1" d="M32,1h579c17.1,0,31,13.9,31,31v824c0,17.1-13.9,31-31,31H32c-17.1,0-31-13.9-31-31V32C1,14.9,14.9,1,32,1z"/>
</g>
</svg>
