<svg width="100" height="100" viewBox="0 0 100 100" fill="none" xmlns="http://www.w3.org/2000/svg">
<path d="M50.1199 16.3273C54.0763 16.3273 57.2836 13.12 57.2836 9.16364C57.2836 5.20727 54.0763 2 50.1199 2C46.1636 2 42.9563 5.20727 42.9563 9.16364C42.9563 13.12 46.1636 16.3273 50.1199 16.3273Z" stroke="#0D67F9" stroke-opacity="0.5" stroke-width="2.5" stroke-miterlimit="10" stroke-linecap="round" stroke-linejoin="round"/>
<path d="M79.0816 28.3221C83.038 28.3221 86.2452 25.1149 86.2452 21.1585C86.2452 17.2021 83.038 13.9949 79.0816 13.9949C75.1252 13.9949 71.918 17.2021 71.918 21.1585C71.918 25.1149 75.1252 28.3221 79.0816 28.3221Z" stroke="#0D67F9" stroke-opacity="0.5" stroke-width="2.5" stroke-miterlimit="10" stroke-linecap="round" stroke-linejoin="round"/>
<path d="M91.0762 57.2836C95.0326 57.2836 98.2399 54.0763 98.2399 50.1199C98.2399 46.1636 95.0326 42.9563 91.0762 42.9563C87.1199 42.9563 83.9126 46.1636 83.9126 50.1199C83.9126 54.0763 87.1199 57.2836 91.0762 57.2836Z" stroke="#0D67F9" stroke-opacity="0.5" stroke-width="2.5" stroke-miterlimit="10" stroke-linecap="round" stroke-linejoin="round"/>
<path d="M79.0816 86.245C83.038 86.245 86.2452 83.0377 86.2452 79.0814C86.2452 75.125 83.038 71.9177 79.0816 71.9177C75.1252 71.9177 71.918 75.125 71.918 79.0814C71.918 83.0377 75.1252 86.245 79.0816 86.245Z" stroke="#0D67F9" stroke-opacity="0.5" stroke-width="2.5" stroke-miterlimit="10" stroke-linecap="round" stroke-linejoin="round"/>
<path d="M50.1199 98.2399C54.0763 98.2399 57.2836 95.0326 57.2836 91.0762C57.2836 87.1199 54.0763 83.9126 50.1199 83.9126C46.1636 83.9126 42.9563 87.1199 42.9563 91.0762C42.9563 95.0326 46.1636 98.2399 50.1199 98.2399Z" stroke="#0D67F9" stroke-opacity="0.5" stroke-width="2.5" stroke-miterlimit="10" stroke-linecap="round" stroke-linejoin="round"/>
<path d="M21.1583 86.245C25.1146 86.245 28.3219 83.0377 28.3219 79.0814C28.3219 75.125 25.1146 71.9177 21.1583 71.9177C17.2019 71.9177 13.9946 75.125 13.9946 79.0814C13.9946 83.0377 17.2019 86.245 21.1583 86.245Z" stroke="#0D67F9" stroke-opacity="0.5" stroke-width="2.5" stroke-miterlimit="10" stroke-linecap="round" stroke-linejoin="round"/>
<path d="M9.16364 57.2836C13.12 57.2836 16.3273 54.0763 16.3273 50.1199C16.3273 46.1636 13.12 42.9563 9.16364 42.9563C5.20727 42.9563 2 46.1636 2 50.1199C2 54.0763 5.20727 57.2836 9.16364 57.2836Z" stroke="#0D67F9" stroke-opacity="0.5" stroke-width="2.5" stroke-miterlimit="10" stroke-linecap="round" stroke-linejoin="round"/>
<path d="M21.1583 28.3221C25.1146 28.3221 28.3219 25.1149 28.3219 21.1585C28.3219 17.2021 25.1146 13.9949 21.1583 13.9949C17.2019 13.9949 13.9946 17.2021 13.9946 21.1585C13.9946 25.1149 17.2019 28.3221 21.1583 28.3221Z" stroke="#0D67F9" stroke-opacity="0.5" stroke-width="2.5" stroke-miterlimit="10" stroke-linecap="round" stroke-linejoin="round"/>
<path d="M10.0049 39.9928C10.1802 39.2826 10.3819 38.5811 10.5924 37.8796" stroke="#0D67F9" stroke-opacity="0.5" stroke-width="2.5" stroke-miterlimit="10" stroke-linecap="round" stroke-linejoin="round"/>
<path d="M11.4956 35.2931C11.934 34.1444 11.9866 34.2232 12.5214 33.1272" stroke="#0D67F9" stroke-opacity="0.5" stroke-width="2.5" stroke-miterlimit="10" stroke-linecap="round" stroke-linejoin="round"/>
<path d="M13.5823 30.7159C13.9242 30.0671 14.2837 29.4358 14.6608 28.8132" stroke="#0D67F9" stroke-opacity="0.5" stroke-width="2.5" stroke-miterlimit="10" stroke-linecap="round" stroke-linejoin="round"/>
<path d="M14.9588 71.9176C14.573 71.2951 14.2047 70.6638 13.854 70.0237" stroke="#0D67F9" stroke-opacity="0.5" stroke-width="2.5" stroke-miterlimit="10" stroke-linecap="round" stroke-linejoin="round"/>
<path d="M12.4781 67.2793C11.9607 66.1482 12.0569 66.306 11.6448 65.1311" stroke="#0D67F9" stroke-opacity="0.5" stroke-width="2.5" stroke-miterlimit="10" stroke-linecap="round" stroke-linejoin="round"/>
<path d="M10.5928 62.3429C10.3736 61.6502 10.1807 60.94 10.0054 60.2297" stroke="#0D67F9" stroke-opacity="0.5" stroke-width="2.5" stroke-miterlimit="10" stroke-linecap="round" stroke-linejoin="round"/>
<path d="M40.9486 90.4538C40.2296 90.296 39.5281 90.1118 38.8267 89.9102" stroke="#0D67F9" stroke-opacity="0.5" stroke-width="2.5" stroke-miterlimit="10" stroke-linecap="round" stroke-linejoin="round"/>
<path d="M35.7754 88.9194C34.5478 88.4635 34.3024 88.4896 33.1274 87.9285" stroke="#0D67F9" stroke-opacity="0.5" stroke-width="2.5" stroke-miterlimit="10" stroke-linecap="round" stroke-linejoin="round"/>
<path d="M30.7513 86.6659C30.1025 86.3239 29.4712 85.9644 28.8398 85.5874" stroke="#0D67F9" stroke-opacity="0.5" stroke-width="2.5" stroke-miterlimit="10" stroke-linecap="round" stroke-linejoin="round"/>
<path d="M71.9184 85.2717C71.2958 85.6575 70.6645 86.0258 70.0244 86.3765" stroke="#0D67F9" stroke-opacity="0.5" stroke-width="2.5" stroke-miterlimit="10" stroke-linecap="round" stroke-linejoin="round"/>
<path d="M67.1396 87.8232C65.9559 88.3581 65.9384 88.3757 64.6934 88.8054" stroke="#0D67F9" stroke-opacity="0.5" stroke-width="2.5" stroke-miterlimit="10" stroke-linecap="round" stroke-linejoin="round"/>
<path d="M61.9488 89.7612C61.2474 89.9717 60.5459 90.1558 59.8357 90.3312" stroke="#0D67F9" stroke-opacity="0.5" stroke-width="2.5" stroke-miterlimit="10" stroke-linecap="round" stroke-linejoin="round"/>
<path d="M90.3568 59.7126C90.1902 60.4229 89.9973 61.1331 89.7957 61.8346" stroke="#0D67F9" stroke-opacity="0.5" stroke-width="2.5" stroke-miterlimit="10" stroke-linecap="round" stroke-linejoin="round"/>
<path d="M88.8662 64.6055C88.4103 65.8243 88.4889 65.7277 87.9277 66.8851" stroke="#0D67F9" stroke-opacity="0.5" stroke-width="2.5" stroke-miterlimit="10" stroke-linecap="round" stroke-linejoin="round"/>
<path d="M86.6742 69.489C86.3322 70.1379 85.9727 70.7692 85.5957 71.4005" stroke="#0D67F9" stroke-opacity="0.5" stroke-width="2.5" stroke-miterlimit="10" stroke-linecap="round" stroke-linejoin="round"/>
<path d="M85.2715 28.3223C85.6573 28.9448 86.0256 29.5761 86.3763 30.2162" stroke="#0D67F9" stroke-opacity="0.5" stroke-width="2.5" stroke-miterlimit="10" stroke-linecap="round" stroke-linejoin="round"/>
<path d="M87.8411 33.1448C88.3847 34.3548 88.3852 34.0567 88.8061 35.3193" stroke="#0D67F9" stroke-opacity="0.5" stroke-width="2.5" stroke-miterlimit="10" stroke-linecap="round" stroke-linejoin="round"/>
<path d="M89.7964 38.4146C89.9981 39.116 90.191 39.8175 90.3576 40.5365" stroke="#0D67F9" stroke-opacity="0.5" stroke-width="2.5" stroke-miterlimit="10" stroke-linecap="round" stroke-linejoin="round"/>
<path d="M59.3264 9.78613C60.0454 9.95273 60.7469 10.1281 61.4483 10.3298" stroke="#0D67F9" stroke-opacity="0.5" stroke-width="2.5" stroke-miterlimit="10" stroke-linecap="round" stroke-linejoin="round"/>
<path d="M64.7009 11.3994C66.0074 11.8904 66.0865 11.908 67.3228 12.5218" stroke="#0D67F9" stroke-opacity="0.5" stroke-width="2.5" stroke-miterlimit="10" stroke-linecap="round" stroke-linejoin="round"/>
<path d="M70.0234 13.8545C70.6635 14.2052 71.2948 14.5735 71.9174 14.9593" stroke="#0D67F9" stroke-opacity="0.5" stroke-width="2.5" stroke-miterlimit="10" stroke-linecap="round" stroke-linejoin="round"/>
<path d="M28.3215 14.9681C28.9441 14.5823 29.5754 14.214 30.2155 13.8633" stroke="#0D67F9" stroke-opacity="0.5" stroke-width="2.5" stroke-miterlimit="10" stroke-linecap="round" stroke-linejoin="round"/>
<path d="M32.6885 12.5218C33.5653 12.0834 34.0037 11.645 35.3189 11.2065" stroke="#0D67F9" stroke-opacity="0.5" stroke-width="2.5" stroke-miterlimit="10" stroke-linecap="round" stroke-linejoin="round"/>
<path d="M37.9495 10.435C38.6509 10.2333 39.3611 10.058 40.0714 9.89136" stroke="#0D67F9" stroke-opacity="0.5" stroke-width="2.5" stroke-miterlimit="10" stroke-linecap="round" stroke-linejoin="round"/>
<path d="M64.1927 61.4573H35.24C33.1532 61.4573 31.4609 59.7651 31.4609 57.6782V38.3531C31.4609 36.2662 33.1532 34.574 35.24 34.574H64.1927C66.2795 34.574 67.9718 36.2662 67.9718 38.3531V57.6782C67.9718 59.7651 66.2795 61.4573 64.1927 61.4573Z" stroke="#0D67F9" stroke-width="2.1222" stroke-miterlimit="10" stroke-linecap="round"/>
<path d="M49.7168 61.8782V66.1395" stroke="#0D67F9" stroke-width="2.1222" stroke-miterlimit="10" stroke-linecap="round"/>
<path d="M55.6784 66.3501H43.7537" stroke="#0D67F9" stroke-width="2.1222" stroke-miterlimit="10" stroke-linecap="round"/>
</svg>
