<svg width="100" height="100" viewBox="0 0 100 100" fill="none" xmlns="http://www.w3.org/2000/svg">
<path d="M33.391 88.9859C17.8966 82.5283 7 67.2395 7 49.4087C7 31.578 17.8966 16.2891 33.391 9.83154" stroke="#0D67F9" stroke-opacity="0.5" stroke-width="2.5" stroke-miterlimit="10" stroke-linecap="round"/>
<path d="M66.3049 9.83154C81.8087 16.2891 92.696 31.578 92.696 49.4087C92.696 67.2395 81.8087 82.5283 66.3049 88.9859" stroke="#0D67F9" stroke-opacity="0.5" stroke-width="2.5" stroke-miterlimit="10" stroke-linecap="round"/>
<path d="M31.681 17.2704L34.036 9.36435L26.1299 7" stroke="#0D67F9" stroke-opacity="0.5" stroke-width="2.5" stroke-miterlimit="10" stroke-linecap="round"/>
<path d="M67.1741 82.248L64.6135 90.0887L72.4635 92.64" stroke="#0D67F9" stroke-opacity="0.5" stroke-width="2.5" stroke-miterlimit="10" stroke-linecap="round"/>
<path d="M59.558 29.4568C59.558 29.4568 59.586 30.6997 59.8383 31.5688C61.0625 35.8863 63.5671 37.7273 67.9594 38.6712C69.0621 38.9142 70.3704 39.1198 70.3704 39.1198C70.5667 42.2598 73.4637 71.8189 49.8482 77.0429C26.2327 71.8189 29.1298 42.2691 29.326 39.1198C29.326 39.1198 30.6437 38.9142 31.7371 38.6712C36.1294 37.7273 38.6339 35.8863 39.8581 31.5688C40.1105 30.6997 40.1385 29.4568 40.1385 29.4568H59.558Z" stroke="#0D67F9" stroke-width="2.5" stroke-miterlimit="10" stroke-linecap="round"/>
<path d="M40.7366 50.9323H47.4091V44.2598H52.6331V50.9323H59.3056V56.1563H52.6331V62.8288H47.4091V56.1563H40.7366V50.9323Z" stroke="#0D67F9" stroke-width="2.5" stroke-miterlimit="10" stroke-linecap="round"/>
</svg>
