<svg width="100" height="100" viewBox="0 0 100 100" fill="none" xmlns="http://www.w3.org/2000/svg">
<path d="M31.1572 11.2755C42.1571 5.94845 54.9607 5.60266 66.1942 10.2194" stroke="#0D67F9" stroke-opacity="0.5" stroke-width="2.5" stroke-miterlimit="10" stroke-linecap="round" stroke-linejoin="round"/>
<path d="M10.2229 66.1906C4.79309 52.9945 6.22297 37.6302 14.5219 25.5742" stroke="#0D67F9" stroke-opacity="0.5" stroke-width="2.5" stroke-miterlimit="10" stroke-linecap="round" stroke-linejoin="round"/>
<path d="M72.0913 86.4802C60.3718 93.611 45.9701 94.611 33.4937 89.4708" stroke="#0D67F9" stroke-opacity="0.5" stroke-width="2.5" stroke-miterlimit="10" stroke-linecap="round" stroke-linejoin="round"/>
<path d="M89.4747 33.49C94.9138 46.6861 93.484 62.0317 85.1943 74.0783" stroke="#0D67F9" stroke-opacity="0.5" stroke-width="2.5" stroke-miterlimit="10" stroke-linecap="round" stroke-linejoin="round"/>
<path d="M49.2865 68.303C49.2865 68.303 48.5482 65.4152 51.679 65.1722C53.6136 65.0227 58.221 65.0601 61.4639 65.1068C63.3798 65.1348 64.9499 63.5835 64.9499 61.6676C64.9499 59.7704 63.4078 58.2284 61.5107 58.2284H52.8098C52.5108 58.2284 52.2024 58.191 51.9126 58.1256L48.866 57.4153C48.5762 57.3499 48.2678 57.3125 47.9688 57.3125H42.5202C41.9688 57.3125 41.4361 57.4246 40.9315 57.6489C39.7165 58.1816 37.4736 59.4059 36.0063 61.5554L33.1091 64.4526" stroke="#0D67F9" stroke-width="2.5" stroke-miterlimit="10" stroke-linecap="round"/>
<path d="M43.2024 74.0882L45.3519 71.9947L59.7629 71.7144C60.6601 71.6957 61.5199 71.3686 62.2022 70.7891L72.688 61.8734C72.9404 61.6584 73.174 61.4061 73.3609 61.1351L78.7908 53.3127C78.7908 53.3127 76.2674 49.995 72.3983 53.2473L69.5105 56.3781L64.1648 59.5089" stroke="#0D67F9" stroke-width="2.5" stroke-miterlimit="10" stroke-linecap="round"/>
<path d="M40.8008 80.7795L45.2307 76.116L32.1374 63.0227L27.343 67.6301" stroke="#0D67F9" stroke-width="2.5" stroke-miterlimit="10" stroke-linecap="round"/>
<path d="M39.8104 38.3968C44.5899 38.3968 48.4645 34.5223 48.4645 29.7427C48.4645 24.9632 44.5899 21.0886 39.8104 21.0886C35.0308 21.0886 31.1562 24.9632 31.1562 29.7427C31.1562 34.5223 35.0308 38.3968 39.8104 38.3968Z" stroke="#0D67F9" stroke-width="2.5" stroke-miterlimit="10" stroke-linecap="round"/>
<path d="M61.483 37.2099C65.0289 37.2099 67.9035 34.3353 67.9035 30.7894C67.9035 27.2434 65.0289 24.3689 61.483 24.3689C57.937 24.3689 55.0625 27.2434 55.0625 30.7894C55.0625 34.3353 57.937 37.2099 61.483 37.2099Z" stroke="#0D67F9" stroke-width="2.5" stroke-miterlimit="10" stroke-linecap="round"/>
<path d="M52.6885 49.3405C52.6885 44.9013 48.1932 41.3032 43.754 41.3032H36.2775C31.8383 41.3032 27.343 44.9013 27.343 49.3405V57.303" stroke="#0D67F9" stroke-width="2.5" stroke-miterlimit="10" stroke-linecap="round"/>
<path d="M72.0906 49.8265V47.9947C72.0906 44.3032 68.3523 41.3032 64.6514 41.3032H58.4272C56.6515 41.3032 54.8665 41.9948 53.4927 43.1163" stroke="#0D67F9" stroke-width="2.5" stroke-miterlimit="10" stroke-linecap="round"/>
</svg>
