<svg width="100" height="100" viewBox="0 0 100 100" fill="none" xmlns="http://www.w3.org/2000/svg">
<path d="M49.9233 18.1683C53.5596 18.1683 56.5074 15.2205 56.5074 11.5841C56.5074 7.94782 53.5596 5 49.9233 5C46.2869 5 43.3391 7.94782 43.3391 11.5841C43.3391 15.2205 46.2869 18.1683 49.9233 18.1683Z" stroke="#0D67F9" stroke-width="2.5" stroke-miterlimit="10" stroke-linecap="round"/>
<path d="M35.1343 35.9837L39.3886 24.7653C40.2623 22.4735 42.4528 20.9541 44.9092 20.9541H49.9233H54.9373C57.3937 20.9541 59.5969 22.4735 60.4579 24.7653L64.7123 35.9837" stroke="#0D67F9" stroke-width="2.5" stroke-miterlimit="10" stroke-linecap="round"/>
<path d="M49.923 82.3003C52.5943 82.3003 54.7598 80.1348 54.7598 77.4635C54.7598 74.7922 52.5943 72.6267 49.923 72.6267C47.2517 72.6267 45.0862 74.7922 45.0862 77.4635C45.0862 80.1348 47.2517 82.3003 49.923 82.3003Z" stroke="#0D67F9" stroke-width="2.5" stroke-miterlimit="10" stroke-linecap="round"/>
<path d="M39.0718 95.38L42.1866 87.1498C42.8197 85.4658 44.4404 84.3516 46.2384 84.3516H49.9103H53.5822C55.3802 84.3516 57.0009 85.4658 57.634 87.1498L60.7488 95.38" stroke="#0D67F9" stroke-width="2.5" stroke-miterlimit="10" stroke-linecap="round"/>
<path d="M81.2479 65.2574C83.9192 65.2574 86.0848 63.0918 86.0848 60.4206C86.0848 57.7493 83.9192 55.5837 81.2479 55.5837C78.5766 55.5837 76.4111 57.7493 76.4111 60.4206C76.4111 63.0918 78.5766 65.2574 81.2479 65.2574Z" stroke="#0D67F9" stroke-width="2.5" stroke-miterlimit="10" stroke-linecap="round"/>
<path d="M70.3967 78.337L73.5115 70.1069C74.1446 68.4228 75.7653 67.3086 77.5633 67.3086H81.2352H84.9072C86.7051 67.3086 88.3258 68.4228 88.9589 70.1069L92.0737 78.337" stroke="#0D67F9" stroke-width="2.5" stroke-miterlimit="10" stroke-linecap="round"/>
<path d="M18.8634 65.2574C21.5347 65.2574 23.7002 63.0918 23.7002 60.4206C23.7002 57.7493 21.5347 55.5837 18.8634 55.5837C16.1921 55.5837 14.0266 57.7493 14.0266 60.4206C14.0266 63.0918 16.1921 65.2574 18.8634 65.2574Z" stroke="#0D67F9" stroke-width="2.5" stroke-miterlimit="10" stroke-linecap="round"/>
<path d="M8 78.337L11.1148 70.1069C11.7479 68.4228 13.3686 67.3086 15.1666 67.3086H18.8385H22.5104C24.3084 67.3086 25.9291 68.4228 26.5622 70.1069L29.677 78.337" stroke="#0D67F9" stroke-width="2.5" stroke-miterlimit="10" stroke-linecap="round"/>
<path d="M71.3972 33.1091C74.9805 36.7684 77.6901 41.2254 79.2602 46.1381" stroke="#0D67F9" stroke-width="2.5" stroke-miterlimit="10" stroke-linecap="round"/>
<path d="M17.2935 48.5947C19.0534 43.7452 21.8897 39.4782 25.4983 36.0215" stroke="#0D67F9" stroke-width="2.5" stroke-miterlimit="10" stroke-linecap="round"/>
<path d="M83.1728 40.0225L79.6275 47.2017L72.4482 43.6564" stroke="#0D67F9" stroke-width="2.5" stroke-miterlimit="10" stroke-linecap="round"/>
<path d="M17.5085 36.4266L25.5108 35.9834L25.954 43.9857" stroke="#0D67F9" stroke-width="2.5" stroke-miterlimit="10" stroke-linecap="round"/>
<path d="M49.9229 64.9411C56.5802 64.9411 61.977 59.5443 61.977 52.8871C61.977 46.2298 56.5802 40.833 49.9229 40.833C43.2657 40.833 37.8689 46.2298 37.8689 52.8871C37.8689 59.5443 43.2657 64.9411 49.9229 64.9411Z" stroke="#0D67F9" stroke-opacity="0.5" stroke-width="2.5" stroke-miterlimit="10" stroke-linecap="round"/>
</svg>
