<?xml version="1.0" encoding="utf-8"?>
<!-- Generator: Adobe Illustrator 26.0.3, SVG Export Plug-In . SVG Version: 6.00 Build 0)  -->
<svg version="1.1" id="Layer_1" xmlns="http://www.w3.org/2000/svg" xmlns:xlink="http://www.w3.org/1999/xlink" x="0px" y="0px"
	 viewBox="0 0 50 50" style="enable-background:new 0 0 50 50;" xml:space="preserve">
<style type="text/css">
	.st0{fill:url(#SVGID_1_);}
	.st1{fill:url(#SVGID_00000093898477831817771160000015275525629207891332_);}
	.st2{fill:#FFFFFF;}
</style>
<linearGradient id="SVGID_1_" gradientUnits="userSpaceOnUse" x1="25" y1="1.5202" x2="25" y2="48.9723">
	<stop  offset="0" style="stop-color:#1E4C83"/>
	<stop  offset="0.5925" style="stop-color:#152566"/>
	<stop  offset="1" style="stop-color:#100F56"/>
</linearGradient>
<path class="st0" d="M50,25c0,7.1-3,13.5-7.7,18.1c-1,1-2.1,1.9-3.3,2.6c-0.2,0.1-0.3,0.2-0.5,0.3c-0.3,0.2-0.5,0.3-0.8,0.5
	c-2.7,1.6-5.8,2.8-9.1,3.2C27.4,49.9,26.2,50,25,50c-7.4,0-14.1-3.2-18.7-8.4c-0.1-0.1-0.2-0.2-0.2-0.3C5,40,4,38.6,3.1,37.2
	c0,0,0,0,0-0.1C2.5,36,2,34.8,1.5,33.6C1.3,33,1.1,32.5,1,31.9c0-0.2-0.1-0.4-0.2-0.6C0.3,29.3,0,27.2,0,25C0,11.2,11.2,0,25,0
	S50,11.2,50,25z"/>
<linearGradient id="SVGID_00000120524308165153028070000001782251579341926587_" gradientUnits="userSpaceOnUse" x1="23.441" y1="25.3291" x2="16.1523" y2="48.6096">
	<stop  offset="0" style="stop-color:#000000;stop-opacity:0.5"/>
	<stop  offset="1" style="stop-color:#100F56;stop-opacity:0"/>
</linearGradient>
<path style="fill:url(#SVGID_00000120524308165153028070000001782251579341926587_);" d="M40.4,28.5l2,2.4L28.6,49.7
	C27.4,49.9,26.2,50,25,50c-7.4,0-14.1-3.2-18.7-8.4c-0.1-0.1-0.2-0.2-0.2-0.3C5,40,4,38.6,3.1,37.2c0,0,0,0,0-0.1
	C2.5,36,2,34.8,1.5,33.6C1.3,33,1.1,32.5,1,31.9c0-0.2-0.1-0.4-0.2-0.6L7,21.9h8.4c0,0-0.7,10.1,3,9.7c1.8-0.2,0.8,2.2,2.1,2.6
	c1.3,0.5,2.3,1,3.9,0.5c1.6-0.5,4.5,0.3,4.7-0.1c0.3-0.4,0.2-3.1,3.5-3.7c0.8-0.2,2-4.6,2.6-7.2c0.2-1,1.2-1.8,2.2-1.8h5L40.4,28.5z
	"/>
<g>
	<g>
		<path class="st2" d="M28,35.9c-0.3,0-0.6-0.1-0.9-0.2l-1.8-0.8c-0.2-0.1-0.4-0.1-0.6,0l-1.8,0.8c-1.1,0.5-2.5,0-3-1.1L19,32.9
			c-0.1-0.2-0.3-0.4-0.5-0.4l-1.9-0.5c-1.2-0.3-1.9-1.6-1.6-2.8l0.5-1.9c0.1-0.2,0-0.5-0.1-0.6L14.3,25c-0.7-1-0.4-2.4,0.6-3.1
			l1.6-1.1c0.2-0.1,0.3-0.3,0.3-0.6l0.2-1.9c0.1-1.2,1.2-2.2,2.4-2.1l1.9,0.2c0.2,0,0.4-0.1,0.6-0.2l1.4-1.4c0.9-0.9,2.3-0.9,3.2,0
			l0,0l1.4,1.4c0.2,0.2,0.4,0.2,0.6,0.2l1.9-0.2c1.2-0.1,2.3,0.8,2.4,2.1l0.2,1.9c0,0.2,0.1,0.4,0.3,0.6l1.6,1.1
			c1,0.7,1.3,2.1,0.6,3.1l-1.1,1.6c-0.1,0.2-0.2,0.4-0.1,0.6l0.5,1.9c0.3,1.2-0.4,2.4-1.6,2.8l-1.9,0.5c-0.2,0.1-0.4,0.2-0.5,0.4
			L30,34.6C29.6,35.4,28.8,35.9,28,35.9z M19.2,17.7c-0.4,0-0.7,0.3-0.8,0.7l-0.2,1.9c-0.1,0.7-0.4,1.3-0.9,1.6l-1.6,1.1
			c-0.3,0.2-0.4,0.7-0.2,1.1l1.1,1.6c0.4,0.5,0.5,1.2,0.3,1.9l-0.5,1.9c-0.1,0.4,0.1,0.8,0.5,1l1.9,0.5c0.6,0.2,1.2,0.6,1.4,1.2
			l0.8,1.8c0.2,0.4,0.6,0.5,1,0.4l1.8-0.8c0.6-0.3,1.3-0.3,1.9,0l1.8,0.8c0.4,0.2,0.8,0,1-0.4l0.8-1.8c0.3-0.6,0.8-1,1.4-1.2
			l1.9-0.5c0.4-0.1,0.7-0.5,0.5-1l-0.5-1.9c-0.2-0.6,0-1.3,0.3-1.9l1.1-1.6c0.2-0.3,0.2-0.8-0.2-1.1l-1.6-1.1
			c-0.5-0.4-0.9-1-0.9-1.6l-0.2-1.9c0-0.4-0.4-0.7-0.8-0.7l-1.9,0.2c-0.7,0.1-1.3-0.2-1.8-0.6l-1.4-1.4c-0.3-0.3-0.8-0.3-1.1,0
			L23,17.2c-0.5,0.5-1.1,0.7-1.8,0.6L19.2,17.7C19.2,17.7,19.2,17.7,19.2,17.7z"/>
	</g>
	<g>
		<g>
			<rect x="20.5" y="24.2" transform="matrix(0.5753 -0.818 0.818 0.5753 -9.6698 31.2262)" class="st2" width="9.4" height="1.5"/>
		</g>
		<g>
			<path class="st2" d="M27.3,29.7c-0.9,0-1.7-0.8-1.7-1.7s0.8-1.7,1.7-1.7S29,27.1,29,28S28.3,29.7,27.3,29.7z M27.3,27.8
				c-0.1,0-0.2,0.1-0.2,0.2c0,0.2,0.4,0.2,0.4,0C27.5,27.9,27.4,27.8,27.3,27.8z"/>
		</g>
		<g>
			<path class="st2" d="M22.5,24.6c-0.9,0-1.7-0.8-1.7-1.7s0.8-1.7,1.7-1.7s1.7,0.8,1.7,1.7S23.5,24.6,22.5,24.6z M22.5,22.7
				c-0.1,0-0.2,0.1-0.2,0.2c0,0.2,0.4,0.2,0.4,0C22.7,22.8,22.6,22.7,22.5,22.7z"/>
		</g>
	</g>
	<g>
		<path class="st2" d="M42.5,31.7h-7v-1.5h5.3L38,26.9c-0.3-0.3-0.3-0.7,0-1l2.9-3.2h-4.3v-1.5h6c0.3,0,0.6,0.2,0.7,0.4
			c0.1,0.3,0.1,0.6-0.1,0.8l-3.6,4l3.6,4c0.2,0.2,0.2,0.5,0.1,0.8S42.8,31.7,42.5,31.7z"/>
	</g>
	<g>
		<path class="st2" d="M14.5,31.7h-7c-0.3,0-0.6-0.2-0.7-0.4c-0.1-0.3-0.1-0.6,0.1-0.8l3.6-4l-3.6-4c-0.2-0.2-0.2-0.5-0.1-0.8
			c0.1-0.3,0.4-0.4,0.7-0.4h6v1.5H9.1l2.9,3.2c0.3,0.3,0.3,0.7,0,1l-2.9,3.2h5.3V31.7z"/>
	</g>
</g>
</svg>
