<svg id="Layer_1" data-name="Layer 1" xmlns="http://www.w3.org/2000/svg" viewBox="0 0 61.58 61.86"><defs><style>.cls-1,.cls-2,.cls-3{fill:none;stroke:#0d67f9;stroke-linecap:round;stroke-width:2px;}.cls-1,.cls-2{stroke-miterlimit:10;}.cls-1{stroke-opacity:0.5;}.cls-3{stroke-linejoin:round;}</style></defs><path class="cls-1" d="M47.06,27.91H58a4.13,4.13,0,0,1,4.12,4.14V53.2A4.13,4.13,0,0,1,58,57.34H26.51a4.13,4.13,0,0,1-4.12-4.14V32.05a4.13,4.13,0,0,1,4.12-4.14H40.9" transform="translate(-11.71 -11.38)"/><path class="cls-1" d="M42.27,57.41V68.82" transform="translate(-11.71 -11.38)"/><path class="cls-2" d="M31.06,69.68a30,30,0,0,1,0-55.32" transform="translate(-11.71 -11.38)"/><path class="cls-2" d="M53.94,14.36a30,30,0,0,1,0,55.32" transform="translate(-11.71 -11.38)"/><path class="cls-3" d="M29.87,19.56,31.51,14,26,12.38" transform="translate(-11.71 -11.38)"/><path class="cls-3" d="M54.55,65l-1.78,5.48,5.45,1.79" transform="translate(-11.71 -11.38)"/><path class="cls-2" d="M47.06,68.82H37.48" transform="translate(-11.71 -11.38)"/><path class="cls-2" d="M36,35.52H29.88V49.79H36Z" transform="translate(-11.71 -11.38)"/><path class="cls-2" d="M33,50.13v3.52" transform="translate(-11.71 -11.38)"/><path class="cls-2" d="M33,31.66v3.51" transform="translate(-11.71 -11.38)"/><path class="cls-2" d="M57.62,47.81H51.46v9.34h6.16Z" transform="translate(-11.71 -11.38)"/><path class="cls-2" d="M54.54,57.49V61" transform="translate(-11.71 -11.38)"/><path class="cls-2" d="M54.54,44v3.52" transform="translate(-11.71 -11.38)"/><path class="cls-2" d="M47.07,24.52H40.9V42.9h6.17Z" transform="translate(-11.71 -11.38)"/><path class="cls-2" d="M44,43.25v3.51" transform="translate(-11.71 -11.38)"/><path class="cls-2" d="M44,20.66v3.52" transform="translate(-11.71 -11.38)"/></svg>