<svg width="75" height="74" viewBox="0 0 75 74" fill="none" xmlns="http://www.w3.org/2000/svg">
<rect width="74" height="75" rx="37" transform="matrix(4.37114e-08 1 1 -4.37114e-08 0 0)" fill="#43D7F1"/>
<path d="M53 45.5194L50.9187 44.2108L45.3257 52.2331L46.9058 53.5035" stroke="white" stroke-width="2" stroke-miterlimit="10" stroke-linecap="round"/>
<path d="M50.2297 45.1957L45.8235 42.2339C44.8386 41.5726 43.61 41.3812 42.4719 41.7084L33.1653 44.4057C32.1525 44.698 31.5817 45.7735 31.9054 46.7793C32.2082 47.7155 33.1827 48.255 34.1363 48.0183L39.4892 46.6888" stroke="white" stroke-width="2" stroke-miterlimit="10" stroke-linecap="round"/>
<path d="M31.8148 46.2295L25.2229 41.9382C24.2588 41.3082 22.9641 41.6249 22.3933 42.6238C21.8817 43.5218 22.1392 44.6633 22.9885 45.255L32.8902 52.1358C33.5515 52.5952 34.3833 52.7379 35.1629 52.5256L43.5089 50.2285C43.9544 50.1067 44.4312 50.2111 44.7828 50.5069L45.8826 51.4327" stroke="white" stroke-width="2" stroke-miterlimit="10" stroke-linecap="round"/>
<path d="M37.5957 37.0412C36.3184 38.2106 34.62 38.9241 32.751 38.9241C28.7903 38.9241 25.5779 35.7117 25.5779 31.751C25.5779 27.7903 28.7903 24.5779 32.751 24.5779C36.7117 24.5779 39.9241 27.7903 39.9241 31.751H36.8648L41.3406 38.5656L45.8826 31.751H43.502C43.502 25.8134 38.6886 21 32.751 21C26.8134 21 22 25.8134 22 31.751C22 31.8275 22 31.9041 22.0035 31.9807" stroke="white" stroke-opacity="0.5" stroke-width="1.8" stroke-miterlimit="10" stroke-linecap="round"/>
<path d="M22 35V35.7727" stroke="white" stroke-opacity="0.5" stroke-width="2" stroke-miterlimit="10" stroke-linecap="round"/>
</svg>
