<svg width="75" height="74" viewBox="0 0 75 74" fill="none" xmlns="http://www.w3.org/2000/svg">
<rect width="74" height="75" rx="37" transform="matrix(4.37114e-08 1 1 -4.37114e-08 0 0)" fill="#F7B040"/>
<path d="M37.1098 37.9832C41.5234 37.9832 45.1014 34.4053 45.1014 29.9916C45.1014 25.578 41.5234 22 37.1098 22C32.6961 22 29.1182 25.578 29.1182 29.9916C29.1182 34.4053 32.6961 37.9832 37.1098 37.9832Z" stroke="white" stroke-width="2.1693" stroke-miterlimit="10" stroke-linecap="round"/>
<path d="M40.4822 32.0126C40.4822 30.3295 39.0817 29.7398 37.7242 29.2791V26.8344C38.2217 26.9879 38.5903 27.3442 38.8176 27.9032L39.0203 28.3762L40.3717 27.6268L40.212 27.2459C39.7574 26.1648 38.8544 25.4584 37.7303 25.268V24.3957C37.7303 24.0271 37.4293 23.7323 37.0669 23.7323C36.7045 23.7323 36.4035 24.0333 36.4035 24.3957V25.225L35.8445 25.4215C34.7511 25.8331 34.0938 26.7668 34.0938 27.9155C34.0938 29.4266 35.1688 30.004 36.3973 30.4401V33.106C35.7892 32.9095 35.3715 32.4918 35.1995 31.8775L35.0337 31.3124L33.6577 32.1232L33.7683 32.4733C34.1491 33.6527 35.1135 34.4328 36.3973 34.6785V35.5508C36.3973 35.9194 36.6983 36.2142 37.0608 36.2142C37.4232 36.2142 37.7242 35.9132 37.7242 35.5508V34.7338C39.3888 34.5741 40.4822 33.5299 40.4822 32.0126ZM38.9158 32.0249C38.9158 32.6638 38.4797 33.0815 37.7242 33.2043V30.8947C38.5227 31.2018 38.9158 31.4966 38.9158 32.0249ZM36.3912 26.8405V28.8C35.8814 28.5666 35.6541 28.3209 35.6541 27.897C35.6541 27.5162 35.8138 27.2091 36.1148 27.0063L36.3912 26.8405Z" fill="white"/>
<path d="M56.2197 37.8235H52.3744V52.0069H22.091V37.8235H18" stroke="white" stroke-opacity="0.5" stroke-width="2.1693" stroke-miterlimit="10" stroke-linecap="round"/>
<path d="M18.7983 32.3811C25.2174 32.3811 30.4141 37.584 30.4141 43.9969" stroke="white" stroke-width="2.1693" stroke-miterlimit="10" stroke-linecap="round"/>
<path d="M34.3823 41.1897L30.4142 45.1579L26.4521 41.1897" stroke="white" stroke-width="2.1693" stroke-miterlimit="10" stroke-linecap="round" stroke-linejoin="round"/>
<path d="M56.2135 32.3811C49.7944 32.3811 44.5977 37.584 44.5977 43.9969" stroke="white" stroke-width="2.1693" stroke-miterlimit="10" stroke-linecap="round"/>
<path d="M40.6294 41.1897L44.5976 45.1579L48.5657 41.1897" stroke="white" stroke-width="2.1693" stroke-miterlimit="10" stroke-linecap="round" stroke-linejoin="round"/>
</svg>
