<svg width="75" height="74" viewBox="0 0 75 74" fill="none" xmlns="http://www.w3.org/2000/svg">
<rect width="74" height="75" rx="37" transform="matrix(4.37114e-08 1 1 -4.37114e-08 0 0)" fill="#3378FF"/>
<path d="M48.3396 36.7221V48.5501C48.3396 50.325 46.9014 51.7701 45.1195 51.7701H26.2201C24.4452 51.7701 23 50.332 23 48.5501V26.2201C23 24.4452 24.4382 23 26.2201 23H45.1195C46.8944 23 48.3396 24.4382 48.3396 26.2201V28.8017" stroke="white" stroke-width="2.1693" stroke-miterlimit="10" stroke-linecap="round"/>
<path d="M43.4427 34.1265H27.8966C27.595 34.1265 27.3564 33.881 27.3564 33.5863V31.5589C27.3564 31.2572 27.602 31.0187 27.8966 31.0187H43.4427C43.7444 31.0187 43.9829 31.2642 43.9829 31.5589V33.5863C43.9899 33.881 43.7444 34.1265 43.4427 34.1265Z" stroke="white" stroke-opacity="0.5" stroke-width="2.1693" stroke-miterlimit="10" stroke-linecap="round"/>
<path d="M43.4427 46.4174H27.8966C27.595 46.4174 27.3564 46.1718 27.3564 45.8772V43.8498C27.3564 43.5481 27.602 43.3096 27.8966 43.3096H43.4427C43.7444 43.3096 43.9829 43.5551 43.9829 43.8498V45.8772C43.9899 46.1789 43.7444 46.4174 43.4427 46.4174Z" stroke="white" stroke-opacity="0.5" stroke-width="2.1693" stroke-miterlimit="10" stroke-linecap="round"/>
<path d="M27.981 27.8757H36.4906" stroke="white" stroke-opacity="0.5" stroke-width="2.1693" stroke-miterlimit="10" stroke-linecap="round"/>
<path d="M27.981 40.6367H36.4906" stroke="white" stroke-opacity="0.5" stroke-width="2.1693" stroke-miterlimit="10" stroke-linecap="round"/>
<path d="M42.3226 40.8211L40.1978 41.3661C39.9866 41.4231 39.7882 41.2393 39.8266 41.0239L40.2426 38.7741C40.2554 38.7171 40.281 38.66 40.3258 38.6157L51.11 27.9499C51.2252 27.8359 51.4172 27.8359 51.5324 27.9499L53.2476 29.6483C53.3628 29.7624 53.3628 29.9525 53.2476 30.0666L42.457 40.745C42.4186 40.783 42.3738 40.8084 42.3226 40.8211Z" fill="white"/>
</svg>
