<svg width="75" height="74" viewBox="0 0 75 74" fill="none" xmlns="http://www.w3.org/2000/svg">
<rect width="74" height="75" rx="37" transform="matrix(4.37114e-08 1 1 -4.37114e-08 0 0)" fill="#FD5056"/>
<path d="M38.9236 54.4641C35.4498 54.7319 31.8241 54.0027 28.5504 52.1126C19.9568 47.1511 17.0362 36.1438 21.9977 27.5503C26.9592 18.9567 37.9324 16.0164 46.526 20.9779C55.1195 25.9394 58.0939 36.9323 53.1324 45.5259" stroke="white" stroke-opacity="0.5" stroke-width="2.5" stroke-miterlimit="10" stroke-linecap="round"/>
<path d="M35.7598 34.5737L38.8337 49.3229L42.1988 45.6415L45.964 50.4662L49.1819 47.7124L45.2434 42.9981L49.9467 40.7031L35.7598 34.5737Z" stroke="white" stroke-width="2.1693" stroke-miterlimit="10" stroke-linecap="round"/>
<path d="M39.0595 32.1256L40.8245 30.7961" stroke="white" stroke-width="2.1693" stroke-miterlimit="10" stroke-linecap="round"/>
<path d="M36.3226 31.1725L36.5786 28.826" stroke="white" stroke-width="2.1693" stroke-miterlimit="10" stroke-linecap="round"/>
<path d="M33.3589 31.671L31.8491 29.8168" stroke="white" stroke-width="2.1693" stroke-miterlimit="10" stroke-linecap="round"/>
<path d="M32.2138 34.3542L30.0591 34.1191" stroke="white" stroke-width="2.1693" stroke-miterlimit="10" stroke-linecap="round"/>
<path d="M32.7417 37.3265L31.0936 38.5698" stroke="white" stroke-width="2.1693" stroke-miterlimit="10" stroke-linecap="round"/>
</svg>
