<svg width="80" height="80" viewBox="0 0 80 80" fill="none" xmlns="http://www.w3.org/2000/svg">
<path d="M33.0078 40.9216L37.4605 45.1234L48.3099 34.3994" stroke="white" stroke-width="1.5" stroke-miterlimit="10" stroke-linecap="round"/>
<path d="M55.2088 53.6527H24.7927C22.5978 53.6527 20.8418 51.8967 20.8418 49.7018V29.3826C20.8418 27.1876 22.5978 25.4316 24.7927 25.4316H55.2088C57.4037 25.4316 59.1597 27.1876 59.1597 29.3826V49.7018C59.2224 51.8967 57.4037 53.6527 55.2088 53.6527Z" stroke="white" stroke-width="1.5" stroke-miterlimit="10" stroke-linecap="round"/>
<path d="M40.0322 53.7158V64.6907" stroke="white" stroke-width="1.5" stroke-miterlimit="10" stroke-linecap="round"/>
<path d="M40.032 70.0205C41.4174 70.0205 42.5405 68.8974 42.5405 67.512C42.5405 66.1265 41.4174 65.0034 40.032 65.0034C38.6465 65.0034 37.5234 66.1265 37.5234 67.512C37.5234 68.8974 38.6465 70.0205 40.032 70.0205Z" stroke="white" stroke-width="1.5" stroke-miterlimit="10" stroke-linecap="round"/>
<path d="M28.9313 65.506C18.5836 61.1788 11.2461 50.8938 11.2461 38.9782C11.2461 26.9999 18.5836 16.7149 28.9313 12.3877" stroke="white" stroke-opacity="0.5" stroke-width="1.5" stroke-miterlimit="10" stroke-linecap="round"/>
<path d="M51.0693 12.3877C61.4798 16.7149 68.7545 26.9999 68.7545 38.9782C68.7545 50.9565 61.4798 61.1788 51.0693 65.506" stroke="white" stroke-opacity="0.5" stroke-width="1.5" stroke-miterlimit="10" stroke-linecap="round"/>
<path d="M28.8466 16.878L30.4144 11.5473L25.1465 9.97949" stroke="white" stroke-opacity="0.5" stroke-width="1.5" stroke-miterlimit="10" stroke-linecap="round" stroke-linejoin="round"/>
<path d="M51.3642 60.8149L49.6709 66.0829L54.8761 67.7761" stroke="white" stroke-opacity="0.5" stroke-width="1.5" stroke-miterlimit="10" stroke-linecap="round" stroke-linejoin="round"/>
</svg>
