<svg width="81" height="81" viewBox="0 0 81 81" fill="none" xmlns="http://www.w3.org/2000/svg">
<path d="M42.9585 69.092C37.4699 69.5151 31.7414 68.363 26.569 65.3767C12.9914 57.5377 8.37705 40.1465 16.2161 26.5689C24.0551 12.9914 41.3923 8.34585 54.9699 16.1849C68.5475 24.0239 73.2469 41.3923 65.4079 54.9698" stroke="white" stroke-opacity="0.5" stroke-width="1.5" stroke-miterlimit="10" stroke-linecap="round"/>
<path d="M37.9609 37.667L42.8176 60.9703L48.1344 55.1537L54.0833 62.7766L59.1675 58.4256L52.9448 50.9772L60.3758 47.3511L37.9609 37.667Z" stroke="white" stroke-width="1.5" stroke-miterlimit="10" stroke-linecap="round"/>
<path d="M43.1762 33.7974L45.9649 31.6969" stroke="white" stroke-width="1.5" stroke-miterlimit="10" stroke-linecap="round"/>
<path d="M38.8533 32.2928L39.2578 28.5854" stroke="white" stroke-width="1.5" stroke-miterlimit="10" stroke-linecap="round"/>
<path d="M34.1685 33.0805L31.7832 30.1509" stroke="white" stroke-width="1.5" stroke-miterlimit="10" stroke-linecap="round"/>
<path d="M32.3604 37.3202L28.9561 36.9487" stroke="white" stroke-width="1.5" stroke-miterlimit="10" stroke-linecap="round"/>
<path d="M33.1945 42.0155L30.5906 43.9798" stroke="white" stroke-width="1.5" stroke-miterlimit="10" stroke-linecap="round"/>
</svg>
