<svg width="80" height="80" viewBox="0 0 80 80" fill="none" xmlns="http://www.w3.org/2000/svg">
<path d="M63.744 23.9822C66.91 28.6044 68.8095 34.2397 68.8095 40.3182C68.8095 56.2744 55.8293 69.1913 39.8731 69.1913C23.9169 69.1913 11 56.2744 11 40.3182C11 24.3621 23.9169 11.3818 39.8731 11.3818" stroke="#0D67F9" stroke-opacity="0.5" stroke-width="1.5" stroke-miterlimit="10" stroke-linecap="round"/>
<path d="M59.3752 40.3164C59.3752 51.0805 50.6373 59.7551 39.9366 59.7551C29.2358 59.7551 20.4346 51.0172 20.4346 40.3164" stroke="#0D67F9" stroke-width="1.5" stroke-miterlimit="10" stroke-linecap="round"/>
<path d="M49.7515 40.3164C49.7515 51.0805 45.3193 59.7551 39.8739 59.7551C34.4285 59.7551 30.0596 51.0172 30.0596 40.3164" stroke="#0D67F9" stroke-width="1.5" stroke-miterlimit="10" stroke-linecap="round"/>
<path d="M54.8798 52.3455C51.334 50.1293 45.8887 48.7363 39.8734 48.7363C33.7949 48.7363 28.4128 50.1293 24.8037 52.3455" stroke="#0D67F9" stroke-width="1.5" stroke-miterlimit="10" stroke-linecap="round"/>
<path d="M20.4346 40.3174H59.3752V18.8525" stroke="#0D67F9" stroke-width="1.5" stroke-miterlimit="10" stroke-linecap="round"/>
<path d="M39.873 29.0444V59.7537" stroke="#0D67F9" stroke-width="1.5" stroke-miterlimit="10" stroke-linecap="round"/>
<path d="M49.751 40.3171V22.6514" stroke="#0D67F9" stroke-width="1.5" stroke-miterlimit="10" stroke-linecap="round"/>
<path d="M30.0596 40.3139V34.4253" stroke="#0D67F9" stroke-width="1.5" stroke-miterlimit="10" stroke-linecap="round"/>
<path d="M17.2051 31.01L25.6897 36.8352L33.9211 20.4991L42.469 25.6912L50.7004 11.7612" stroke="#0D67F9" stroke-width="1.5" stroke-miterlimit="10" stroke-linecap="round"/>
<path d="M52.4731 16.382L51.0168 11L45.6348 12.4563" stroke="#0D67F9" stroke-width="1.5" stroke-miterlimit="10" stroke-linecap="round" stroke-linejoin="round"/>
</svg>
