<svg width="81" height="81" viewBox="0 0 81 81" fill="none" xmlns="http://www.w3.org/2000/svg">
<path d="M14.4755 51.8937C10.2036 41.5165 12.2799 29.138 20.7089 20.709C29.1379 12.28 41.5164 10.2037 51.8936 14.4756" stroke="white" stroke-opacity="0.5" stroke-width="1.5" stroke-miterlimit="10" stroke-linecap="round"/>
<path d="M67.4531 30.0337C71.7295 40.4153 69.6487 52.7893 61.2197 61.2183C52.7907 69.6474 40.4167 71.7281 30.0351 67.4517" stroke="white" stroke-opacity="0.5" stroke-width="1.5" stroke-miterlimit="10" stroke-linecap="round"/>
<path d="M47.5679 17.1838L52.4185 14.5597L49.7988 9.70459" stroke="white" stroke-opacity="0.5" stroke-width="1.5" stroke-miterlimit="10" stroke-linecap="round" stroke-linejoin="round"/>
<path d="M33.6304 64.6787L28.7135 67.1747L31.2183 72.0916" stroke="white" stroke-opacity="0.5" stroke-width="1.5" stroke-miterlimit="10" stroke-linecap="round" stroke-linejoin="round"/>
<rect x="28.8916" y="33.9492" width="7.24002" height="17.6978" stroke="white" stroke-width="1.5" stroke-miterlimit="10" stroke-linecap="round" stroke-linejoin="round"/>
<rect width="2.41334" height="4.02223" transform="matrix(1 0 0 -1 31.3057 33.9492)" fill="white"/>
<rect width="2.41334" height="4.02223" transform="matrix(1 0 0 -1 31.3057 55.6675)" fill="white"/>
<rect x="43.3711" y="28.8926" width="9.30859" height="22.7543" stroke="white" stroke-width="1.5" stroke-miterlimit="10" stroke-linecap="round" stroke-linejoin="round"/>
<rect width="3.10286" height="5.17144" transform="matrix(1 0 0 -1 46.4736 28.8926)" fill="white"/>
<rect width="3.10286" height="5.17144" transform="matrix(1 0 0 -1 46.4736 56.8179)" fill="white"/>
</svg>
