<svg width="80" height="81" viewBox="0 0 80 81" fill="none" xmlns="http://www.w3.org/2000/svg">
<path d="M33.0078 41.8874L37.4605 46.0892L48.3099 35.3652" stroke="#0D67F9" stroke-width="1.5" stroke-miterlimit="10" stroke-linecap="round"/>
<path d="M55.2088 54.6185H24.7927C22.5978 54.6185 20.8418 52.8625 20.8418 50.6676V30.3484C20.8418 28.1534 22.5978 26.3975 24.7927 26.3975H55.2088C57.4037 26.3975 59.1597 28.1534 59.1597 30.3484V50.6676C59.2224 52.8625 57.4037 54.6185 55.2088 54.6185Z" stroke="#0D67F9" stroke-width="1.5" stroke-miterlimit="10" stroke-linecap="round"/>
<path d="M40.0322 54.6816V65.6565" stroke="#0D67F9" stroke-width="1.5" stroke-miterlimit="10" stroke-linecap="round"/>
<path d="M40.032 70.9863C41.4174 70.9863 42.5405 69.8632 42.5405 68.4778C42.5405 67.0923 41.4174 65.9692 40.032 65.9692C38.6465 65.9692 37.5234 67.0923 37.5234 68.4778C37.5234 69.8632 38.6465 70.9863 40.032 70.9863Z" stroke="#0D67F9" stroke-width="1.5" stroke-miterlimit="10" stroke-linecap="round"/>
<path d="M28.9313 66.4718C18.5836 62.1446 11.2461 51.8596 11.2461 39.944C11.2461 27.9658 18.5836 17.6807 28.9313 13.3535" stroke="#0D67F9" stroke-opacity="0.5" stroke-width="1.5" stroke-miterlimit="10" stroke-linecap="round"/>
<path d="M51.0693 13.3535C61.4798 17.6807 68.7545 27.9658 68.7545 39.944C68.7545 51.9223 61.4798 62.1446 51.0693 66.4718" stroke="#0D67F9" stroke-opacity="0.5" stroke-width="1.5" stroke-miterlimit="10" stroke-linecap="round"/>
<path d="M28.8466 17.8438L30.4144 12.5131L25.1465 10.9453" stroke="#0D67F9" stroke-opacity="0.5" stroke-width="1.5" stroke-miterlimit="10" stroke-linecap="round" stroke-linejoin="round"/>
<path d="M51.3642 61.7808L49.6709 67.0487L54.8761 68.742" stroke="#0D67F9" stroke-opacity="0.5" stroke-width="1.5" stroke-miterlimit="10" stroke-linecap="round" stroke-linejoin="round"/>
</svg>
