<svg width="80" height="80" viewBox="0 0 80 80" fill="none" xmlns="http://www.w3.org/2000/svg">
<path d="M40.0929 62.0168C52.2524 62.0168 62.1096 52.1596 62.1096 40.0001C62.1096 27.8406 52.2524 17.9834 40.0929 17.9834C27.9334 17.9834 18.0762 27.8406 18.0762 40.0001C18.0762 52.1596 27.9334 62.0168 40.0929 62.0168Z" stroke="white" stroke-opacity="0.5" stroke-width="1.5" stroke-miterlimit="10" stroke-linecap="round"/>
<path d="M40.0928 11.2852C55.9696 11.2852 68.8075 24.1231 68.8075 39.9999V67.5363" stroke="white" stroke-width="1.5" stroke-miterlimit="10" stroke-linecap="round"/>
<path d="M40.0927 68.7144C24.2158 68.7144 11.3779 55.8765 11.3779 39.9996V13.7036" stroke="white" stroke-width="1.5" stroke-miterlimit="10" stroke-linecap="round"/>
<path d="M75.2574 61.8921L68.6834 68.4661L62.1094 61.8921" stroke="white" stroke-width="1.5" stroke-miterlimit="10" stroke-linecap="round"/>
<path d="M17.9522 18.7283L11.3162 12.1543L4.74219 18.7283" stroke="white" stroke-width="1.5" stroke-miterlimit="10" stroke-linecap="round"/>
<path d="M40.0306 30.5106C43.9011 30.5106 47.0387 29.7609 47.0387 28.8361C47.0387 27.9113 43.9011 27.1616 40.0306 27.1616C36.1601 27.1616 33.0225 27.9113 33.0225 28.8361C33.0225 29.7609 36.1601 30.5106 40.0306 30.5106Z" stroke="white" stroke-width="1.5" stroke-miterlimit="10" stroke-linecap="round"/>
<path d="M32.9605 28.8374V30.822C32.9605 30.822 32.6504 34.8532 36.0614 37.1479C37.7359 38.2643 38.5422 39.5667 38.8523 40.621H41.147C41.5191 39.5667 42.2633 38.2643 43.9378 37.1479C47.3489 34.8532 47.0388 30.822 47.0388 30.822V28.8374" stroke="white" stroke-width="1.5" stroke-miterlimit="10" stroke-linecap="round"/>
<path d="M40.0306 54.016C43.9011 54.016 47.0387 53.2663 47.0387 52.3415C47.0387 51.4167 43.9011 50.667 40.0306 50.667C36.1601 50.667 33.0225 51.4167 33.0225 52.3415C33.0225 53.2663 36.1601 54.016 40.0306 54.016Z" stroke="white" stroke-width="1.5" stroke-miterlimit="10" stroke-linecap="round"/>
<path d="M32.9605 52.3417V50.3571C32.9605 50.3571 32.6504 46.3259 36.0614 44.0312C37.7359 42.9148 38.5422 41.6124 38.8523 40.5581H41.147C41.5191 41.6124 42.2633 42.9148 43.9378 44.0312C47.3489 46.3259 47.0388 50.3571 47.0388 50.3571V52.3417" stroke="white" stroke-width="1.5" stroke-miterlimit="10" stroke-linecap="round"/>
</svg>
