<svg width="81" height="81" viewBox="0 0 81 81" fill="none" xmlns="http://www.w3.org/2000/svg">
<path d="M11.248 40.9309C11.248 24.9849 24.1998 12.0332 40.1457 12.0332C56.0917 12.0332 69.0434 24.9849 69.0434 40.9309C69.0434 56.8768 56.0917 69.8286 40.1457 69.8286" stroke="#0D67F9" stroke-width="1.5" stroke-miterlimit="10" stroke-linecap="round"/>
<path d="M41.1738 19.832C41.1738 19.4178 40.838 19.082 40.4238 19.082C40.0096 19.082 39.6738 19.4178 39.6738 19.832H41.1738ZM39.6738 19.832V37.6146H41.1738V19.832H39.6738Z" fill="#0D67F9"/>
<path d="M40.4248 43.4374C41.8092 43.4374 42.9315 42.3151 42.9315 40.9306C42.9315 39.5462 41.8092 38.4238 40.4248 38.4238C39.0403 38.4238 37.918 39.5462 37.918 40.9306C37.918 42.3151 39.0403 43.4374 40.4248 43.4374Z" stroke="#0D67F9" stroke-opacity="0.5" stroke-width="1.5" stroke-miterlimit="10" stroke-linecap="round"/>
<path d="M55.8829 41.6807C56.2971 41.6807 56.6329 41.3449 56.6329 40.9307C56.6329 40.5165 56.2971 40.1807 55.8829 40.1807V41.6807ZM43.9355 41.6807H55.8829V40.1807H43.9355V41.6807Z" fill="#0D67F9"/>
<path d="M40.1455 12.0332V14.6793" stroke="#0D67F9" stroke-opacity="0.5" stroke-width="1.5" stroke-miterlimit="10" stroke-linecap="round"/>
<path d="M60.5481 20.4585L58.668 22.3386" stroke="#0D67F9" stroke-opacity="0.5" stroke-width="1.5" stroke-miterlimit="10" stroke-linecap="round"/>
<path d="M69.0438 40.9307H66.3281" stroke="#0D67F9" stroke-opacity="0.5" stroke-width="1.5" stroke-miterlimit="10" stroke-linecap="round"/>
<path d="M60.5481 61.3322L58.668 59.4521" stroke="#0D67F9" stroke-opacity="0.5" stroke-width="1.5" stroke-miterlimit="10" stroke-linecap="round"/>
<path d="M40.1453 69.8291H11.8047" stroke="#0D67F9" stroke-width="1.5" stroke-miterlimit="10" stroke-linecap="round"/>
<path d="M40.1455 58.8257V69.8277" stroke="#0D67F9" stroke-width="1.5" stroke-miterlimit="10" stroke-linecap="round"/>
<path d="M11.248 40.9307H13.8941" stroke="#0D67F9" stroke-opacity="0.5" stroke-width="1.5" stroke-miterlimit="10" stroke-linecap="round"/>
<path d="M19.6738 20.4585L21.5539 22.3386" stroke="#0D67F9" stroke-opacity="0.5" stroke-width="1.5" stroke-miterlimit="10" stroke-linecap="round"/>
<path d="M14.9385 69.8972V55.4136" stroke="#0D67F9" stroke-width="1.5" stroke-miterlimit="10" stroke-linecap="round"/>
<path d="M21.2051 69.8982V51.3062" stroke="#0D67F9" stroke-width="1.5" stroke-miterlimit="10" stroke-linecap="round"/>
<path d="M33.8086 69.8983V54.3701" stroke="#0D67F9" stroke-width="1.5" stroke-miterlimit="10" stroke-linecap="round"/>
<path d="M27.542 69.8983V43.02" stroke="#0D67F9" stroke-width="1.5" stroke-miterlimit="10" stroke-linecap="round"/>
</svg>
