<svg width="80" height="81" viewBox="0 0 80 81" fill="none" xmlns="http://www.w3.org/2000/svg">
<path d="M40.0929 62.9826C52.2524 62.9826 62.1096 53.1254 62.1096 40.9659C62.1096 28.8064 52.2524 18.9492 40.0929 18.9492C27.9334 18.9492 18.0762 28.8064 18.0762 40.9659C18.0762 53.1254 27.9334 62.9826 40.0929 62.9826Z" stroke="#0D67F9" stroke-opacity="0.5" stroke-width="1.5" stroke-miterlimit="10" stroke-linecap="round"/>
<path d="M40.0928 12.251C55.9696 12.251 68.8075 25.0889 68.8075 40.9657V68.5021" stroke="#0D67F9" stroke-width="1.5" stroke-miterlimit="10" stroke-linecap="round"/>
<path d="M40.0927 69.6802C24.2158 69.6802 11.3779 56.8423 11.3779 40.9655V14.6694" stroke="#0D67F9" stroke-width="1.5" stroke-miterlimit="10" stroke-linecap="round"/>
<path d="M75.2574 62.8579L68.6834 69.4319L62.1094 62.8579" stroke="#0D67F9" stroke-width="1.5" stroke-miterlimit="10" stroke-linecap="round"/>
<path d="M17.9522 19.6941L11.3162 13.1201L4.74219 19.6941" stroke="#0D67F9" stroke-width="1.5" stroke-miterlimit="10" stroke-linecap="round"/>
<path d="M40.0306 31.4765C43.9011 31.4765 47.0387 30.7268 47.0387 29.802C47.0387 28.8771 43.9011 28.1274 40.0306 28.1274C36.1601 28.1274 33.0225 28.8771 33.0225 29.802C33.0225 30.7268 36.1601 31.4765 40.0306 31.4765Z" stroke="#0D67F9" stroke-width="1.5" stroke-miterlimit="10" stroke-linecap="round"/>
<path d="M32.9605 29.8032V31.7878C32.9605 31.7878 32.6504 35.8191 36.0614 38.1138C37.7359 39.2301 38.5422 40.5325 38.8523 41.5868H41.147C41.5191 40.5325 42.2633 39.2301 43.9378 38.1138C47.3489 35.8191 47.0388 31.7878 47.0388 31.7878V29.8032" stroke="#0D67F9" stroke-width="1.5" stroke-miterlimit="10" stroke-linecap="round"/>
<path d="M40.0306 54.9818C43.9011 54.9818 47.0387 54.2321 47.0387 53.3073C47.0387 52.3825 43.9011 51.6328 40.0306 51.6328C36.1601 51.6328 33.0225 52.3825 33.0225 53.3073C33.0225 54.2321 36.1601 54.9818 40.0306 54.9818Z" stroke="#0D67F9" stroke-width="1.5" stroke-miterlimit="10" stroke-linecap="round"/>
<path d="M32.9605 53.3075V51.3229C32.9605 51.3229 32.6504 47.2917 36.0614 44.997C37.7359 43.8806 38.5422 42.5782 38.8523 41.5239H41.147C41.5191 42.5782 42.2633 43.8806 43.9378 44.997C47.3489 47.2917 47.0388 51.3229 47.0388 51.3229V53.3075" stroke="#0D67F9" stroke-width="1.5" stroke-miterlimit="10" stroke-linecap="round"/>
</svg>
