<svg width="81" height="80" viewBox="0 0 81 80" fill="none" xmlns="http://www.w3.org/2000/svg">
<path d="M11.248 39.9651C11.248 24.0191 24.1998 11.0674 40.1457 11.0674C56.0917 11.0674 69.0434 24.0191 69.0434 39.9651C69.0434 55.911 56.0917 68.8627 40.1457 68.8627" stroke="white" stroke-width="1.5" stroke-miterlimit="10" stroke-linecap="round"/>
<path d="M41.1738 18.8662C41.1738 18.452 40.838 18.1162 40.4238 18.1162C40.0096 18.1162 39.6738 18.452 39.6738 18.8662H41.1738ZM39.6738 18.8662V36.6488H41.1738V18.8662H39.6738Z" fill="white"/>
<path d="M40.4248 42.4716C41.8092 42.4716 42.9315 41.3493 42.9315 39.9648C42.9315 38.5803 41.8092 37.458 40.4248 37.458C39.0403 37.458 37.918 38.5803 37.918 39.9648C37.918 41.3493 39.0403 42.4716 40.4248 42.4716Z" stroke="white" stroke-opacity="0.5" stroke-width="1.5" stroke-miterlimit="10" stroke-linecap="round"/>
<path d="M55.8829 40.7148C56.2971 40.7148 56.6329 40.3791 56.6329 39.9648C56.6329 39.5506 56.2971 39.2148 55.8829 39.2148V40.7148ZM43.9355 40.7148H55.8829V39.2148H43.9355V40.7148Z" fill="white"/>
<path d="M40.1455 11.0674V13.7134" stroke="white" stroke-opacity="0.5" stroke-width="1.5" stroke-miterlimit="10" stroke-linecap="round"/>
<path d="M60.5481 19.4927L58.668 21.3728" stroke="white" stroke-opacity="0.5" stroke-width="1.5" stroke-miterlimit="10" stroke-linecap="round"/>
<path d="M69.0438 39.9648H66.3281" stroke="white" stroke-opacity="0.5" stroke-width="1.5" stroke-miterlimit="10" stroke-linecap="round"/>
<path d="M60.5481 60.3664L58.668 58.4863" stroke="white" stroke-opacity="0.5" stroke-width="1.5" stroke-miterlimit="10" stroke-linecap="round"/>
<path d="M40.1453 68.8633H11.8047" stroke="white" stroke-width="1.5" stroke-miterlimit="10" stroke-linecap="round"/>
<path d="M40.1455 57.8599V68.8619" stroke="white" stroke-width="1.5" stroke-miterlimit="10" stroke-linecap="round"/>
<path d="M11.248 39.9648H13.8941" stroke="white" stroke-opacity="0.5" stroke-width="1.5" stroke-miterlimit="10" stroke-linecap="round"/>
<path d="M19.6738 19.4927L21.5539 21.3728" stroke="white" stroke-opacity="0.5" stroke-width="1.5" stroke-miterlimit="10" stroke-linecap="round"/>
<path d="M14.9385 68.9314V54.4478" stroke="white" stroke-width="1.5" stroke-miterlimit="10" stroke-linecap="round"/>
<path d="M21.2051 68.9323V50.3403" stroke="white" stroke-width="1.5" stroke-miterlimit="10" stroke-linecap="round"/>
<path d="M33.8086 68.9324V53.4043" stroke="white" stroke-width="1.5" stroke-miterlimit="10" stroke-linecap="round"/>
<path d="M27.542 68.9325V42.0542" stroke="white" stroke-width="1.5" stroke-miterlimit="10" stroke-linecap="round"/>
</svg>
