<svg width="40" height="57" viewBox="0 0 40 57" fill="none" xmlns="http://www.w3.org/2000/svg">
<path d="M16.4567 38.8801C12.4249 38.8586 9.08301 30.6225 9.08301 26.4398C9.08301 19.6052 14.2144 18.0959 16.1979 18.0959C17.0819 18.0959 18.0521 18.4409 18.8714 18.7643C19.4535 18.9799 20.0572 19.1955 20.4022 19.1955C20.5962 19.1955 21.0706 19.0015 21.5018 18.829C22.4073 18.484 23.5285 18.0312 24.8221 18.0312C25.7923 18.0312 28.7461 18.2469 30.514 20.8988L30.9237 21.524L30.32 21.9768C29.4576 22.6236 27.9052 23.7879 27.9052 26.1164C27.9052 28.8761 29.6732 29.9326 30.514 30.4285C30.8805 30.6441 31.2686 30.8812 31.2686 31.3987C31.2686 31.7221 28.6383 38.837 24.8005 38.837C23.8519 38.837 23.205 38.5567 22.6229 38.298C22.0408 38.0393 21.5233 37.8237 20.6825 37.8237C20.2513 37.8237 19.7123 38.0177 19.1517 38.2333C18.3755 38.5352 17.4915 38.8586 16.4782 38.8586H16.4567V38.8801Z" fill="white"/>
<path d="M25.2324 12.0742C25.3402 15.6748 22.7529 18.1758 20.1872 18.0249C19.756 15.1358 22.7529 12.0742 25.2324 12.0742Z" fill="white"/>
<path fill-rule="evenodd" clip-rule="evenodd" d="M4.55176 0.230469C2.34262 0.230469 0.551758 2.02133 0.551758 4.23047V52.5716C0.551758 54.7808 2.34262 56.5716 4.55175 56.5716H35.7966C38.0057 56.5716 39.7966 54.7808 39.7966 52.5716V4.23047C39.7966 2.02133 38.0057 0.230469 35.7966 0.230469H4.55176ZM5.42676 2.66211C3.7699 2.66211 2.42676 4.00525 2.42676 5.66211V45.121C2.42676 46.7778 3.76991 48.121 5.42676 48.121H34.9245C36.5813 48.121 37.9245 46.7778 37.9245 45.121V5.66211C37.9245 4.00525 36.5813 2.66211 34.9245 2.66211H5.42676Z" fill="white"/>
<circle cx="20.1751" cy="52.2181" r="1.92023" fill="#C4C4C4"/>
</svg>
