<svg width="442" height="147" viewBox="0 0 442 147" fill="none" xmlns="http://www.w3.org/2000/svg">
<path d="M36 0H406C425.9 0 442 16.1 442 36V111C442 130.9 425.9 147 406 147H36C16.1 147 0 130.9 0 111V36C0 16.1 16.1 0 36 0Z" fill="url(#paint0_linear)"/>
<path d="M36 1H406C425.3 1 441 16.7 441 36V111C441 130.3 425.3 146 406 146H36C16.7 146 1 130.3 1 111V36C1 16.7 16.7 1 36 1Z" stroke="url(#paint1_linear)" stroke-width="2"/>
<defs>
<linearGradient id="paint0_linear" x1="0" y1="73.5" x2="430" y2="73.5" gradientUnits="userSpaceOnUse">
<stop stop-color="#D1F0FF" stop-opacity="0.34"/>
<stop offset="0.5969" stop-color="#D1F0FF" stop-opacity="0"/>
</linearGradient>
<linearGradient id="paint1_linear" x1="-2.58061e-08" y1="73.5" x2="381" y2="73.5" gradientUnits="userSpaceOnUse">
<stop stop-color="#47B6F5"/>
<stop offset="0.6284" stop-color="white" stop-opacity="0"/>
</linearGradient>
</defs>
</svg>
