<svg width="442" height="147" viewBox="0 0 442 147" fill="none" xmlns="http://www.w3.org/2000/svg">
<path d="M406 147L36 147C16.1 147 0 130.9 0 111V36C0 16.1 16.1 0 36 0L406 0C425.9 0 442 16.1 442 36V111C442 130.9 425.9 147 406 147Z" fill="url(#paint0_linear)"/>
<path d="M406 146L36 146C16.7 146 1 130.3 1 111V36C1 16.7 16.7 1 36 1L406 1C425.3 1 441 16.7 441 36V111C441 130.3 425.3 146 406 146Z" stroke="url(#paint1_linear)" stroke-width="2"/>
<defs>
<linearGradient id="paint0_linear" x1="442" y1="73.5" x2="12" y2="73.5" gradientUnits="userSpaceOnUse">
<stop stop-color="#D1F0FF" stop-opacity="0.34"/>
<stop offset="0.5969" stop-color="#D1F0FF" stop-opacity="0"/>
</linearGradient>
<linearGradient id="paint1_linear" x1="442" y1="73.5" x2="61" y2="73.5" gradientUnits="userSpaceOnUse">
<stop stop-color="#47B6F5"/>
<stop offset="0.6284" stop-color="white" stop-opacity="0"/>
</linearGradient>
</defs>
</svg>
