<?xml version="1.0" encoding="utf-8"?>
<!-- Generator: Adobe Illustrator 27.5.0, SVG Export Plug-In . SVG Version: 6.00 Build 0)  -->
<svg version="1.1" id="Layer_1" xmlns="http://www.w3.org/2000/svg" xmlns:xlink="http://www.w3.org/1999/xlink" x="0px" y="0px"
	 viewBox="0 0 50 50" style="enable-background:new 0 0 50 50;" xml:space="preserve">
<style type="text/css">
	.st0{fill:url(#SVGID_1_);}
	.st1{fill:url(#SVGID_00000053504556028851535930000014369304908379338158_);}
	.st2{fill:none;stroke:#FFFFFF;stroke-width:1.6;stroke-linecap:round;stroke-miterlimit:10;}
	.st3{fill:#FFFFFF;}
</style>
<g>
	
		<linearGradient id="SVGID_1_" gradientUnits="userSpaceOnUse" x1="25" y1="1029.5201" x2="25" y2="1076.9723" gradientTransform="matrix(1 0 0 1 0 -1028)">
		<stop  offset="0" style="stop-color:#1E4C83"/>
		<stop  offset="0.5925" style="stop-color:#152566"/>
		<stop  offset="1" style="stop-color:#100F56"/>
	</linearGradient>
	<path class="st0" d="M50,25c0,13.8-11.2,25-25,25c-1.7,0-3.2-0.2-4.8-0.5c0,0,0,0-0.1,0c-1.7-0.3-3.2-0.8-4.7-1.4
		C9,45.5,3.9,40.1,1.5,33.6c0,0,0,0,0-0.1c-0.1-0.4-0.3-0.8-0.4-1.1C0.4,30.1,0,27.6,0,25C0,11.2,11.2,0,25,0S50,11.2,50,25z"/>
	
		<linearGradient id="SVGID_00000119096164330140631020000009419477375347972233_" gradientUnits="userSpaceOnUse" x1="8.8195" y1="1072.7266" x2="34.2871" y2="1043.4299" gradientTransform="matrix(1 0 0 1 0 -1028)">
		<stop  offset="0" style="stop-color:#000000;stop-opacity:0.5"/>
		<stop  offset="1" style="stop-color:#100F56;stop-opacity:0"/>
	</linearGradient>
	<path style="fill:url(#SVGID_00000119096164330140631020000009419477375347972233_);" d="M37.8,23.1c-2.9,3-5.9,5.9-8.8,8.8
		l3.3,3.3c0.4,0.4,0.5,1.1,0.3,1.7C32,37.8,21.6,48,20.3,49.3c-0.1,0.1-0.1,0.2-0.2,0.2c-1.7-0.3-3.2-0.8-4.7-1.4
		C9,45.5,3.9,40.1,1.5,33.6C2.1,33,13.1,22,14.1,21c1.8-2,5.3-2,7.1,0c1-0.9,5.3-5.3,6.6-6.6c0.5-0.5,1-1,1.6-1.6
		c3.4-3.4,8.5,1.6,5.1,5.1c-0.5,0.5-1,1-1.6,1.6c-1.1,1.1-2.3,2.3-3.4,3.4c-0.8,0.9-1.7,1.7-2.5,2.6l10.2-3.8
		C37.9,21.4,38.5,22.6,37.8,23.1z"/>
	<g>
		<line class="st2" x1="13.9" y1="31.2" x2="37.3" y2="22.5"/>
		<g>
			<path class="st3" d="M31.9,13.4c1.1,0,2,0.9,2,2s-0.9,2-2,2c-1.1,0-2-0.9-2-2S30.7,13.4,31.9,13.4 M31.9,11.8
				c-2,0-3.6,1.6-3.6,3.6s1.6,3.6,3.6,3.6s3.6-1.6,3.6-3.6S33.8,11.8,31.9,11.8L31.9,11.8z"/>
		</g>
		<g>
			<path class="st3" d="M17.6,21.1c1.8,0,3.3,1.5,3.3,3.3s-1.5,3.3-3.3,3.3s-3.3-1.5-3.3-3.3S15.7,21.1,17.6,21.1 M17.6,19.5
				c-2.7,0-4.9,2.2-4.9,4.9s2.2,4.9,4.9,4.9s4.9-2.2,4.9-4.9S20.3,19.5,17.6,19.5L17.6,19.5z"/>
		</g>
		<g>
			<path class="st3" d="M25.6,30.9l5.4,5.5H20.2L25.6,30.9 M25.6,29.3c-0.4,0-0.8,0.2-1.1,0.5L19,35.3c-0.5,0.5-0.6,1.1-0.3,1.7
				c0.2,0.6,0.8,1,1.5,1H31c0.6,0,1.2-0.4,1.5-1c0.2-0.6,0.1-1.3-0.3-1.7l-5.4-5.5C26.4,29.5,26,29.3,25.6,29.3L25.6,29.3z"/>
		</g>
	</g>
</g>
</svg>
