<svg width="957" height="124" viewBox="0 0 957 124" fill="none" xmlns="http://www.w3.org/2000/svg">
<mask id="mask0" style="mask-type:alpha" maskUnits="userSpaceOnUse" x="0" y="0" width="957" height="124">
<rect x="0.693604" y="0.669922" width="956" height="122.945" fill="url(#paint0_radial)"/>
</mask>
<g mask="url(#mask0)">
<path opacity="0.5" d="M313.842 123.615C288.765 123.615 266.834 105.848 261.56 81.3261L250.548 29.6914C250.178 28.1183 248.79 27.0079 247.217 27.0079H-166.879V-20H1124.27V26.9154H710.171C708.598 26.9154 707.117 28.0258 706.84 29.5989L695.828 81.2336C690.553 105.755 668.622 123.522 643.545 123.522H313.842V123.615Z" fill="url(#paint1_linear)"/>
<path d="M313.842 110.66C294.872 110.66 278.216 97.1497 274.236 78.6426L262.299 22.8438C261.189 17.7544 256.655 14.053 251.473 14.053H-153.924V-20H1111.31V13.9605H705.914C700.732 13.9605 696.197 17.6619 695.087 22.7513L683.15 78.5501C679.171 97.1497 662.515 110.567 643.545 110.567H313.842V110.66Z" fill="url(#paint2_linear)"/>
<path d="M1102.06 -20H-144.671V4.70692H251.473C261.097 4.70692 269.332 11.3695 271.368 20.8081L283.305 76.6068C286.359 91.0423 299.129 101.314 313.842 101.314H643.545C658.258 101.314 671.028 91.0423 674.082 76.6068L686.019 20.8081C688.054 11.462 696.29 4.70692 705.914 4.70692H1102.06V-20Z" fill="url(#paint3_linear)"/>
<path d="M1111.31 13.9601L936.974 14.4228L762.638 14.7004L719.054 14.7929H708.134C707.209 14.7929 706.284 14.7929 705.451 14.7929C704.618 14.7929 703.785 14.978 702.952 15.2556C701.379 15.7183 699.806 16.6436 698.696 17.8466C697.493 19.0496 696.568 20.5301 696.105 22.1032C695.92 22.8435 695.735 23.7689 695.55 24.6942L694.994 27.3777L692.681 38.0193L688.147 59.3024L685.833 69.944L684.723 75.311C684.353 77.0692 683.983 78.8274 683.52 80.6781C682.595 84.2869 681.207 87.7107 679.263 90.9495C677.413 94.0957 675.099 97.1493 672.416 99.6478C669.732 102.239 666.771 104.46 663.532 106.31C660.294 108.161 656.777 109.457 653.169 110.382C652.243 110.567 651.318 110.845 650.485 110.937L647.709 111.307C646.784 111.4 645.858 111.4 644.933 111.492L643.545 111.585H642.157H631.238H609.399H565.815H478.647H391.479H347.895H326.056H315.137H313.749L312.454 111.4C311.528 111.307 310.603 111.4 309.678 111.215L306.901 110.845C305.976 110.659 305.051 110.474 304.218 110.289C300.609 109.364 297.093 108.068 293.854 106.218C290.615 104.367 287.654 102.146 284.971 99.5553C282.287 96.9643 280.066 94.0031 278.123 90.8569C276.18 87.7107 274.792 84.1944 273.866 80.5855C273.404 78.8273 273.034 76.9766 272.663 75.2185L271.553 69.8514L269.24 59.2099L264.705 37.9268L262.485 27.3777L261.929 24.6942C261.744 23.7689 261.559 22.8435 261.374 22.1032C260.911 20.5301 259.986 19.0496 258.783 17.8466C257.58 16.6436 256.1 15.7183 254.526 15.2556C253.694 14.978 252.861 14.8855 252.028 14.7929C251.195 14.7929 250.27 14.7929 249.344 14.7929H238.425L194.841 14.7004L20.5047 14.4228L-153.924 13.9601L20.4122 13.4974L194.841 13.3124L238.425 13.2198H249.344C250.27 13.2198 251.103 13.2198 252.121 13.2198C253.138 13.2198 254.064 13.4049 254.989 13.6825C256.84 14.2377 258.598 15.2556 259.986 16.6436C261.374 18.0317 262.392 19.6973 262.947 21.548C263.225 22.4734 263.41 23.3987 263.595 24.2315L264.15 26.9151L266.464 37.5566L270.998 58.8397L273.311 69.4813L274.422 74.8483C274.792 76.6065 275.162 78.4572 275.625 80.1228C276.55 83.5466 277.845 86.8779 279.696 89.9316C281.547 92.9853 283.675 95.8538 286.266 98.3523C288.857 100.851 291.726 102.979 294.779 104.737C297.926 106.495 301.257 107.698 304.681 108.624C305.513 108.809 306.439 108.994 307.272 109.179L309.955 109.549C310.88 109.642 311.713 109.642 312.639 109.734L313.934 109.827H315.322H326.241H348.08H391.664H478.832H566H609.584H631.423H642.342H643.73L645.025 109.734C645.951 109.642 646.784 109.734 647.709 109.549L650.392 109.179C651.225 108.994 652.151 108.809 652.983 108.624C656.407 107.791 659.831 106.495 662.885 104.737C665.938 102.979 668.9 100.851 671.398 98.3523C673.989 95.8538 676.117 92.9853 677.968 89.9316C679.819 86.8779 681.114 83.5466 682.04 80.1228C682.502 78.4572 682.872 76.6065 683.242 74.8483L684.353 69.4813L686.666 58.8397L691.201 37.5566L693.514 26.9151L694.069 24.2315C694.254 23.3062 694.439 22.4734 694.717 21.548C695.272 19.6973 696.29 17.9391 697.678 16.6436C699.066 15.2556 700.732 14.2377 702.675 13.6825C703.6 13.4049 704.526 13.2198 705.543 13.2198C706.561 13.1273 707.394 13.2198 708.32 13.2198H719.239L762.823 13.3124L937.159 13.59L1111.31 13.9601Z" fill="url(#paint4_linear)"/>
<path d="M1124.27 26.9153L769.763 27.1929H725.439H714.334H711.558H710.17C709.708 27.1929 709.337 27.2854 708.967 27.4705C708.227 27.7481 707.579 28.3959 707.302 29.2287C707.117 29.5988 707.117 30.0615 707.024 30.5242L706.746 31.9122L702.12 53.5655L697.493 75.2187L696.383 80.6783C696.012 82.4365 695.457 84.2872 694.995 86.0453C693.792 89.5617 692.404 93.078 690.553 96.2242C690.09 97.057 689.627 97.8899 689.165 98.6301L687.592 100.944L686.759 102.054L685.926 103.164L684.168 105.293C683.613 106.033 682.872 106.681 682.225 107.328C681.577 107.976 680.929 108.716 680.281 109.272C678.893 110.475 677.505 111.77 676.025 112.881C670.103 117.322 663.255 120.746 656.037 122.412L653.354 123.059C652.428 123.245 651.503 123.337 650.578 123.43C649.652 123.522 648.727 123.707 647.802 123.707L645.025 123.8C644.1 123.892 643.175 123.892 642.249 123.892H639.473H633.921H611.805H567.481H478.832H390.183H345.859H323.743H318.191H315.415C314.489 123.892 313.564 123.892 312.639 123.8L309.863 123.707C308.937 123.707 308.012 123.522 307.087 123.43C306.161 123.337 305.236 123.245 304.311 123.059L301.627 122.412C294.409 120.746 287.562 117.415 281.639 112.881C280.066 111.863 278.771 110.475 277.383 109.272C276.642 108.716 276.087 107.976 275.44 107.328C274.792 106.681 274.144 106.033 273.496 105.293L271.738 103.164L270.905 102.054L270.072 100.944L268.499 98.6301C268.037 97.8899 267.574 97.057 267.111 96.2242C265.261 92.9855 263.873 89.5617 262.67 86.0453C262.207 84.2872 261.652 82.4365 261.282 80.6783L260.171 75.2187L255.544 53.5655L250.918 31.9122L250.64 30.5242C250.548 30.0615 250.455 29.5988 250.362 29.2287C250.085 28.4884 249.437 27.8407 248.697 27.4705C248.327 27.2854 247.864 27.1929 247.494 27.1929H246.106H243.33H232.226H187.901L-166.879 26.9153L187.624 26.6377H231.948H243.052H245.828H247.216C247.679 26.6377 248.234 26.7302 248.697 26.9153C249.622 27.2854 250.362 28.1183 250.733 29.0436C250.918 29.5063 251.01 29.969 251.103 30.4316L251.38 31.8197L256.007 53.4729L260.634 75.1262L261.837 80.5858C262.207 82.3439 262.762 84.1021 263.225 85.9528C264.428 89.3766 265.723 92.893 267.574 96.0392C268.037 96.872 268.499 97.6123 268.962 98.4451L270.535 100.758L271.275 101.869L272.108 102.979L273.866 105.108C274.422 105.848 275.162 106.403 275.717 107.143C276.365 107.791 276.92 108.531 277.66 109.087C279.048 110.29 280.344 111.585 281.917 112.603C287.747 117.045 294.502 120.283 301.627 121.949L304.311 122.504C305.236 122.689 306.161 122.782 306.994 122.874C307.919 122.967 308.845 123.152 309.678 123.152L312.454 123.245C313.379 123.337 314.304 123.337 315.23 123.337H318.006H323.558H345.674H389.998H478.647H567.296H611.62H633.736H639.288H642.064C642.99 123.337 643.915 123.337 644.84 123.245L647.616 123.152C648.542 123.152 649.467 122.967 650.393 122.874C651.318 122.782 652.243 122.689 653.076 122.504L655.76 121.949C662.885 120.283 669.64 117.045 675.47 112.603C676.95 111.585 678.338 110.29 679.726 109.087C680.466 108.531 681.022 107.791 681.669 107.143C682.317 106.496 682.965 105.848 683.52 105.108L685.278 102.979L686.111 101.869L686.851 100.758L688.424 98.4451C688.887 97.7048 689.35 96.872 689.813 96.0392C691.663 92.893 693.051 89.4692 694.162 85.9528C694.624 84.1946 695.087 82.4365 695.55 80.5858L696.753 75.1262L701.379 53.4729L706.006 31.8197L706.284 30.4316C706.376 29.969 706.469 29.5063 706.654 29.0436C707.024 28.1183 707.764 27.2854 708.69 26.9153C709.152 26.7302 709.708 26.6377 710.17 26.6377H711.558H714.334H725.439H769.763L1124.27 26.9153Z" fill="url(#paint5_linear)"/>
<path fill-rule="evenodd" clip-rule="evenodd" d="M354.648 32.375V55.7864L357.146 53.6581L361.958 58.1923V38.7599L354.648 32.375Z" fill="#0A9AF6"/>
<path fill-rule="evenodd" clip-rule="evenodd" d="M354.648 28.2109V30.8019L361.958 37.2794V34.7809L354.648 28.2109Z" fill="#201B4C"/>
<path fill-rule="evenodd" clip-rule="evenodd" d="M368.158 22.2891V61.8942L375.375 55.6943L375.468 28.674L368.158 22.2891Z" fill="#0A9AF6"/>
<path fill-rule="evenodd" clip-rule="evenodd" d="M336.511 72.7208L357.147 55.2316L367.048 64.3926L387.221 47.7363L383.612 42.9244L405.543 41.2588L396.197 61.0613L393.051 56.5271L367.048 72.7208L357.147 61.8016L336.511 72.7208Z" fill="#201B4C"/>
<path fill-rule="evenodd" clip-rule="evenodd" d="M381.207 32.375V51.0671L385.556 47.4583L381.669 41.9987L388.517 41.4435V38.7599L381.207 32.375Z" fill="#0A9AF6"/>
<path fill-rule="evenodd" clip-rule="evenodd" d="M368.158 17.9395V20.5304L375.468 27.0079V24.5095L368.158 17.9395Z" fill="#201B4C"/>
<path fill-rule="evenodd" clip-rule="evenodd" d="M381.207 28.2109V30.8019L388.517 37.1869V34.6884L381.207 28.2109Z" fill="#201B4C"/>
<path d="M417.664 36.4461C417.664 31.5417 421.273 28.0254 426.178 28.0254C428.769 28.0254 430.989 28.9507 432.47 30.7089L430.527 32.5596C429.416 31.2641 427.936 30.6164 426.27 30.6164C423.031 30.6164 420.625 33.0223 420.625 36.3536C420.625 39.6848 423.031 42.0908 426.27 42.0908C427.936 42.0908 429.324 41.443 430.527 40.1475L432.47 41.9982C430.989 43.7564 428.769 44.6817 426.178 44.6817C421.273 44.8668 417.664 41.3505 417.664 36.4461Z" fill="#201B4C"/>
<path d="M446.904 40.795H439.039L437.466 44.5889H434.412L441.537 28.3027H444.406L451.531 44.5889H448.477L446.904 40.795ZM445.887 38.4816L442.925 31.3564L439.964 38.4816H445.887Z" fill="#201B4C"/>
<path d="M468.65 34.1325C468.65 37.7413 466.059 39.9622 461.895 39.9622H458.286V44.6815H455.325V28.3027H461.802C466.059 28.3027 468.65 30.5236 468.65 34.1325ZM465.689 34.1325C465.689 32.0967 464.393 30.8937 461.802 30.8937H458.378V37.3712H461.802C464.301 37.3712 465.689 36.1682 465.689 34.1325Z" fill="#201B4C"/>
<path d="M473.369 28.3027H476.33V44.5889H473.369V28.3027Z" fill="#201B4C"/>
<path d="M485.584 30.8937H480.309V28.3027H493.727V30.8937H488.452V44.6815H485.491V30.8937H485.584Z" fill="#201B4C"/>
<path d="M507.238 40.795H499.373L497.8 44.5889H494.746L501.871 28.3027H504.74L511.865 44.5889H508.811L507.238 40.795ZM506.313 38.4816L503.352 31.3564L500.391 38.4816H506.313Z" fill="#201B4C"/>
<path d="M515.751 28.3027H518.712V42.0905H526.948V44.6815H515.751V28.3027Z" fill="#201B4C"/>
<path d="M556.098 30.8937H550.823V28.3027H564.241V30.8937H558.966V44.6815H556.005V30.8937H556.098Z" fill="#201B4C"/>
<path d="M580.157 42.0905V44.5889H568.312V28.3027H579.879V30.8012H571.273V35.0578H578.954V37.5563H571.273V42.0905H580.157V42.0905Z" fill="#201B4C"/>
<path d="M599.218 28.3027V44.5889H596.812L588.114 33.5772V44.5889H585.245V28.3027H587.651L596.349 39.3144V28.3027H599.218Z" fill="#201B4C"/>
<path d="M605.326 28.3027H612.266C617.356 28.3027 620.872 31.5415 620.872 36.4458C620.872 41.3502 617.356 44.5889 612.266 44.5889H605.326V28.3027ZM612.081 42.0905C615.598 42.0905 617.911 39.8696 617.911 36.5384C617.911 33.2071 615.598 30.9863 612.081 30.9863H608.287V42.183H612.081V42.0905Z" fill="#201B4C"/>
<path fill-rule="evenodd" clip-rule="evenodd" d="M531.575 42.8311L537.127 37.1865L528.429 28.2105H526.393L535.276 37.279L531.575 42.8311ZM530.742 28.2105L538.33 35.9835L550.73 23.1211L538.237 33.5776L533.055 28.2105H530.742ZM548.416 46.5325L539.533 37.1865L545.177 31.3567L541.754 37.0939L550.822 46.44L548.416 46.5325ZM546.01 46.44L538.33 38.3894L526.208 51.0668L538.608 40.7953L544.16 46.5325L546.01 46.44Z" fill="#0A9AF6"/>
<path d="M439.317 66.4283L439.78 65.4104C440.428 66.0581 441.631 66.5208 442.834 66.5208C444.407 66.5208 445.147 65.873 445.147 65.1328C445.147 62.9119 439.595 64.2999 439.595 60.8761C439.595 59.4881 440.705 58.2852 443.111 58.2852C444.222 58.2852 445.332 58.5628 446.072 59.118L445.61 60.1359C444.777 59.5807 443.944 59.3956 443.111 59.3956C441.538 59.3956 440.89 60.0433 440.89 60.8761C440.89 63.097 446.442 61.709 446.442 65.1328C446.442 66.5208 445.332 67.7238 442.834 67.7238C441.445 67.5387 440.057 67.076 439.317 66.4283Z" fill="#919191"/>
<path d="M458.194 67.4457V60.6906L454.863 66.2427H454.215L450.884 60.6906V67.3531H449.588V58.0996H450.699L454.585 64.5771L458.379 58.0996H459.489V67.3531H458.194V67.4457Z" fill="#919191"/>
<path d="M469.391 65.1325H464.486L463.469 67.4459H462.081L466.245 58.1924H467.54L471.704 67.4459H470.316L469.391 65.1325ZM468.928 64.1146L466.985 59.5804L465.042 64.1146H468.928Z" fill="#919191"/>
<path d="M480.68 67.4457L478.737 64.5771C478.552 64.5771 478.367 64.5771 478.182 64.5771H475.868V67.3531H474.573V58.0996H478.182C480.588 58.0996 482.068 59.3026 482.068 61.3383C482.068 62.7264 481.328 63.7443 480.032 64.2069L482.253 67.2606H480.68V67.4457ZM480.588 61.4309C480.588 60.1354 479.662 59.3951 477.997 59.3951H475.776V63.5592H477.997C479.755 63.5592 480.588 62.7264 480.588 61.4309Z" fill="#919191"/>
<path d="M487.065 59.3956H483.918V58.2852H491.506V59.3956H488.36V67.4461H487.065V59.3956V59.3956Z" fill="#919191"/>
<path d="M499.187 58.2852H500.482V67.5387H499.187V58.2852Z" fill="#919191"/>
<path d="M512.513 58.2852V67.5387H511.402L505.85 60.6911V67.5387H504.554V58.2852H505.665L511.217 65.1328V58.2852H512.513Z" fill="#919191"/>
<path d="M524.45 58.2852L520.379 67.5387H519.083L515.012 58.2852H516.4L519.731 65.873L523.062 58.2852H524.45Z" fill="#919191"/>
<path d="M533.61 66.3355V67.4459H526.947V58.1924H533.425V59.3028H528.243V62.1714H532.87V63.2818H528.243V66.3355H533.61Z" fill="#919191"/>
<path d="M536.201 66.4283L536.664 65.4104C537.311 66.0581 538.514 66.5208 539.717 66.5208C541.29 66.5208 542.031 65.873 542.031 65.1328C542.031 62.9119 536.479 64.2999 536.479 60.8761C536.479 59.4881 537.589 58.2852 539.995 58.2852C541.105 58.2852 542.216 58.5628 542.956 59.118L542.493 60.1359C541.66 59.5807 540.828 59.3956 539.995 59.3956C538.422 59.3956 537.774 60.0433 537.774 60.8761C537.774 63.097 543.326 61.709 543.326 65.1328C543.326 66.5208 542.216 67.7238 539.717 67.7238C538.329 67.5387 536.941 67.076 536.201 66.4283Z" fill="#919191"/>
<path d="M548.232 59.3956H545.086V58.2852H552.674V59.3956H549.527V67.4461H548.232V59.3956V59.3956Z" fill="#919191"/>
<path d="M564.055 67.4457V60.6906L560.723 66.2427H560.076L556.744 60.6906V67.3531H555.449V58.0996H556.559L560.446 64.5771L564.24 58.0996H565.35V67.3531H564.055V67.4457Z" fill="#919191"/>
<path d="M576.084 66.3355V67.4459H569.421V58.1924H575.899V59.3028H570.717V62.1714H575.344V63.2818H570.717V66.3355H576.084Z" fill="#919191"/>
<path d="M587.374 58.2852V67.5387H586.356L580.804 60.6911V67.5387H579.508V58.2852H580.618L586.171 65.1328V58.2852H587.374Z" fill="#919191"/>
<path d="M593.296 59.3956H590.15V58.2852H597.738V59.3956H594.591V67.4461H593.296V59.3956V59.3956Z" fill="#919191"/>
</g>
<defs>
<radialGradient id="paint0_radial" cx="0" cy="0" r="1" gradientUnits="userSpaceOnUse" gradientTransform="translate(478.694 62.1426) scale(411.451 5839.61)">
<stop offset="0.454081" stop-color="#C4C4C4"/>
<stop offset="1" stop-color="#C4C4C4" stop-opacity="0"/>
</radialGradient>
<linearGradient id="paint1_linear" x1="-166.879" y1="51.7994" x2="1124.29" y2="51.7994" gradientUnits="userSpaceOnUse">
<stop stop-color="#006AFF" stop-opacity="0"/>
<stop offset="0.5477" stop-color="#006AFF" stop-opacity="0.1"/>
<stop offset="0.6097" stop-color="#0676F3" stop-opacity="0.0863061"/>
<stop offset="0.7454" stop-color="#108CDD" stop-opacity="0.0562997"/>
<stop offset="0.8773" stop-color="#1699D0" stop-opacity="0.0271373"/>
<stop offset="1" stop-color="#189DCC" stop-opacity="0"/>
</linearGradient>
<linearGradient id="paint2_linear" x1="-153.924" y1="45.3181" x2="1111.34" y2="45.3181" gradientUnits="userSpaceOnUse">
<stop stop-color="#189DCC" stop-opacity="0"/>
<stop offset="0.5477" stop-color="#189DCC" stop-opacity="0.3"/>
<stop offset="1" stop-color="#189DCC" stop-opacity="0"/>
</linearGradient>
<linearGradient id="paint3_linear" x1="-144.67" y1="40.6884" x2="1102.08" y2="40.6884" gradientUnits="userSpaceOnUse">
<stop stop-color="white" stop-opacity="0"/>
<stop offset="0.2876" stop-color="white" stop-opacity="0.8569"/>
<stop offset="0.3356" stop-color="white"/>
<stop offset="0.5374" stop-color="white"/>
<stop offset="0.6684" stop-color="white"/>
<stop offset="0.7132" stop-color="white" stop-opacity="0.8649"/>
<stop offset="1" stop-color="white" stop-opacity="0"/>
</linearGradient>
<linearGradient id="paint4_linear" x1="-153.924" y1="62.3792" x2="1111.34" y2="62.3792" gradientUnits="userSpaceOnUse">
<stop stop-color="#189DCC" stop-opacity="0"/>
<stop offset="0.1496" stop-color="#18A2CC" stop-opacity="0.2731"/>
<stop offset="0.3338" stop-color="#17B1CC" stop-opacity="0.6094"/>
<stop offset="0.5354" stop-color="#15CACC" stop-opacity="0.9776"/>
<stop offset="0.5477" stop-color="#15CCCC"/>
<stop offset="0.5924" stop-color="#16C4CC" stop-opacity="0.9013"/>
<stop offset="0.7341" stop-color="#17AECC" stop-opacity="0.5879"/>
<stop offset="0.8718" stop-color="#18A1CC" stop-opacity="0.2834"/>
<stop offset="1" stop-color="#189DCC" stop-opacity="0"/>
</linearGradient>
<linearGradient id="paint5_linear" x1="-166.879" y1="75.3298" x2="1124.29" y2="75.3298" gradientUnits="userSpaceOnUse">
<stop stop-color="#006AFF" stop-opacity="0"/>
<stop offset="0.5477" stop-color="#006AFF" stop-opacity="0.4"/>
<stop offset="0.6097" stop-color="#0676F3" stop-opacity="0.3452"/>
<stop offset="0.7454" stop-color="#108CDD" stop-opacity="0.2252"/>
<stop offset="0.8773" stop-color="#1699D0" stop-opacity="0.1085"/>
<stop offset="1" stop-color="#189DCC" stop-opacity="0"/>
</linearGradient>
</defs>
</svg>
