<svg width="74" height="73" viewBox="0 0 74 73" fill="none" xmlns="http://www.w3.org/2000/svg">
<path d="M38.569 61.9021C33.6687 62.2799 28.5541 61.2512 23.936 58.585C11.8135 51.586 7.69357 36.0587 14.6925 23.9361C21.6915 11.8136 37.1707 7.66596 49.2933 14.6649C61.4158 21.6638 65.6115 37.1709 58.6126 49.2934" stroke="#0D67F9" stroke-opacity="0.5" stroke-width="2.5" stroke-miterlimit="10" stroke-linecap="round"/>
<path d="M34.1079 33.8438L38.4441 54.6497L43.1911 49.4564L48.5025 56.2625L53.0418 52.3777L47.486 45.7275L54.1207 42.4901L34.1079 33.8438Z" stroke="#0D67F9" stroke-width="2.1693" stroke-miterlimit="10" stroke-linecap="round"/>
<path d="M38.7641 30.3904L41.2539 28.515" stroke="#0D67F9" stroke-width="2.1693" stroke-miterlimit="10" stroke-linecap="round"/>
<path d="M34.904 29.0464L35.2651 25.7363" stroke="#0D67F9" stroke-width="2.1693" stroke-miterlimit="10" stroke-linecap="round"/>
<path d="M30.7215 29.7494L28.5918 27.1338" stroke="#0D67F9" stroke-width="2.1693" stroke-miterlimit="10" stroke-linecap="round"/>
<path d="M29.1079 33.5338L26.0684 33.2021" stroke="#0D67F9" stroke-width="2.1693" stroke-miterlimit="10" stroke-linecap="round"/>
<path d="M29.8516 37.7271L27.5267 39.481" stroke="#0D67F9" stroke-width="2.1693" stroke-miterlimit="10" stroke-linecap="round"/>
</svg>
