<svg width="72" height="72" viewBox="0 0 72 72" fill="none" xmlns="http://www.w3.org/2000/svg">
<path d="M59.8262 48.6188L56.5481 46.5576L47.7388 59.1931L50.2276 61.194" stroke="white" stroke-width="2.5" stroke-miterlimit="10" stroke-linecap="round"/>
<path d="M55.4639 48.1091L48.5239 43.4441C46.9726 42.4026 45.0375 42.1011 43.245 42.6164L28.5867 46.8648C26.9915 47.3252 26.0925 49.0191 26.6023 50.6033C27.0792 52.0779 28.6141 52.9276 30.1161 52.5549L38.5471 50.4608" stroke="white" stroke-width="2.5" stroke-miterlimit="10" stroke-linecap="round"/>
<path d="M26.4593 49.7375L16.0768 42.9785C14.5584 41.9863 12.5192 42.4852 11.6201 44.0584C10.8143 45.4727 11.22 47.2707 12.5575 48.2027L28.1532 59.0401C29.1947 59.7637 30.5049 59.9885 31.7328 59.6541L44.8781 56.0361C45.5798 55.8443 46.3308 56.0087 46.8845 56.4747L48.6167 57.9328" stroke="white" stroke-width="2.5" stroke-miterlimit="10" stroke-linecap="round"/>
<path d="M35.5646 35.2655C33.5528 37.1074 30.8777 38.2312 27.9339 38.2312C21.6957 38.2312 16.636 33.1715 16.636 26.9332C16.636 20.695 21.6957 15.6353 27.9339 15.6353C34.1722 15.6353 39.2319 20.695 39.2319 26.9332H34.4134L41.463 37.6666L48.6167 26.9332H44.8672C44.8672 17.5813 37.2859 10 27.9339 10C18.582 10 11.0007 17.5813 11.0007 26.9332C11.0007 27.0538 11.0007 27.1744 11.0062 27.295" stroke="#F2F2F2" stroke-width="2.5" stroke-miterlimit="10" stroke-linecap="round"/>
<path d="M11 32.0508V33.2677" stroke="#F2F2F2" stroke-width="2.5" stroke-miterlimit="10" stroke-linecap="round"/>
<path d="M31.0069 28.6778C31.0069 27.0566 29.6362 26.4886 28.3075 26.0449V23.6901C28.7945 23.838 29.1552 24.1811 29.3777 24.7196L29.576 25.1751L30.8987 24.4533L30.7424 24.0865C30.2975 23.0451 29.4137 22.3647 28.3135 22.1813V21.3411C28.3135 20.9861 28.019 20.7021 27.6643 20.7021C27.3096 20.7021 27.015 20.9921 27.015 21.3411V22.1399L26.4679 22.3292C25.3978 22.7256 24.7545 23.625 24.7545 24.7314C24.7545 26.1869 25.8066 26.7431 27.009 27.1631V29.731C26.4138 29.5416 26.005 29.1393 25.8366 28.5476L25.6743 28.0033L24.3276 28.7843L24.4359 29.1216C24.8086 30.2576 25.7525 31.009 27.009 31.2456V32.0858C27.009 32.4408 27.3035 32.7248 27.6582 32.7248C28.0129 32.7248 28.3075 32.4349 28.3075 32.0858V31.2989C29.9368 31.1451 31.0069 30.1392 31.0069 28.6778ZM29.4738 28.6896C29.4738 29.305 29.047 29.7073 28.3075 29.8256V27.601C29.0891 27.8968 29.4738 28.1808 29.4738 28.6896ZM27.0029 23.696V25.5834C26.504 25.3586 26.2815 25.1219 26.2815 24.7136C26.2815 24.3468 26.4378 24.051 26.7324 23.8557L27.0029 23.696Z" fill="white"/>
</svg>
