<svg width="72" height="72" viewBox="0 0 72 72" fill="none" xmlns="http://www.w3.org/2000/svg">
<path d="M35.1981 37.2586C42.1731 37.2586 47.8274 31.6043 47.8274 24.6293C47.8274 17.6543 42.1731 12 35.1981 12C28.2232 12 22.5688 17.6543 22.5688 24.6293C22.5688 31.6043 28.2232 37.2586 35.1981 37.2586Z" stroke="#0D67F9" stroke-width="2.1693" stroke-miterlimit="10" stroke-linecap="round"/>
<path d="M40.5271 27.8228C40.5271 25.163 38.3138 24.2311 36.1685 23.5031V19.6395C36.9548 19.8822 37.5372 20.4452 37.8964 21.3286L38.2167 22.0761L40.3523 20.8918L40.1 20.2899C39.3816 18.5814 37.9546 17.4651 36.1782 17.1641V15.7857C36.1782 15.2033 35.7025 14.7373 35.1298 14.7373C34.557 14.7373 34.0814 15.213 34.0814 15.7857V17.0962L33.198 17.4068C31.4701 18.0572 30.4314 19.5327 30.4314 21.348C30.4314 23.736 32.1302 24.6485 34.0717 25.3378V29.5508C33.1106 29.2401 32.4505 28.58 32.1787 27.6093L31.9166 26.7162L29.7422 27.9976L29.9169 28.5509C30.5188 30.4147 32.0428 31.6476 34.0717 32.0358V33.4143C34.0717 33.9967 34.5473 34.4627 35.1201 34.4627C35.6928 34.4627 36.1685 33.987 36.1685 33.4143V32.1232C38.7992 31.8708 40.5271 30.2206 40.5271 27.8228ZM38.0517 27.8423C38.0517 28.8518 37.3625 29.5119 36.1685 29.7061V26.0561C37.4304 26.5415 38.0517 27.0074 38.0517 27.8423ZM34.062 19.6492V22.7459C33.2563 22.377 32.8971 21.9887 32.8971 21.3189C32.8971 20.717 33.1495 20.2317 33.6251 19.9113L34.062 19.6492Z" fill="#0D67F9"/>
<path d="M65.3993 37.0059H59.3225V59.4202H11.4651V37.0059H5" stroke="#0D67F9" stroke-opacity="0.5" stroke-width="2.1693" stroke-miterlimit="10" stroke-linecap="round"/>
<path d="M6.26221 28.4053C16.4064 28.4053 24.6189 36.6274 24.6189 46.7619" stroke="#0D67F9" stroke-width="2.1693" stroke-miterlimit="10" stroke-linecap="round"/>
<path d="M30.8916 42.3252L24.6206 48.5962L18.3594 42.3252" stroke="#0D67F9" stroke-width="2.1693" stroke-miterlimit="10" stroke-linecap="round" stroke-linejoin="round"/>
<path d="M65.3898 28.4053C55.2456 28.4053 47.0332 36.6274 47.0332 46.7619" stroke="#0D67F9" stroke-width="2.1693" stroke-miterlimit="10" stroke-linecap="round"/>
<path d="M40.7612 42.3252L47.0322 48.5962L53.3032 42.3252" stroke="#0D67F9" stroke-width="2.1693" stroke-miterlimit="10" stroke-linecap="round" stroke-linejoin="round"/>
</svg>
