<svg width="73" height="73" viewBox="0 0 73 73" fill="none" xmlns="http://www.w3.org/2000/svg">
<path d="M13.795 25.6787C15.918 21.246 19.3661 17.331 23.9842 14.6647C36.1068 7.6658 51.6138 11.8616 58.6128 23.9841C65.6117 36.1066 61.464 51.5859 49.3415 58.5848C37.219 65.5838 21.6916 61.4639 14.6927 49.3414" stroke="#78A5EE" stroke-width="2.5" stroke-miterlimit="10" stroke-linecap="round"/>
<path d="M37.8792 36.1305C40.9186 36.1305 43.3825 33.6666 43.3825 30.6273C43.3825 27.5879 40.9186 25.124 37.8792 25.124C34.8399 25.124 32.376 27.5879 32.376 30.6273C32.376 33.6666 34.8399 36.1305 37.8792 36.1305Z" stroke="#0D67F9" stroke-width="2.5" stroke-miterlimit="10" stroke-linecap="round"/>
<path d="M29.9531 48.153V43.0895C29.9531 40.2666 32.8117 37.9785 35.6347 37.9785H40.3891C43.212 37.9785 46.0706 40.2666 46.0706 43.0895V48.153" stroke="#0D67F9" stroke-width="2.5" stroke-miterlimit="10" stroke-linecap="round"/>
<path d="M17.0148 45.434L25.8203 36.6389L17.0148 27.8437" stroke="#0D67F9" stroke-width="2.5" stroke-miterlimit="10" stroke-linecap="round"/>
<path d="M25.8203 36.6387L2.00037 36.6387" stroke="#0D67F9" stroke-width="2.5" stroke-miterlimit="10" stroke-linecap="round"/>
</svg>
