<svg width="145" height="125" viewBox="0 0 145 125" fill="none" xmlns="http://www.w3.org/2000/svg">
<path d="M20.2477 44.4164L20.8357 42.5457C20.8357 42.3853 20.996 42.2784 21.1029 42.3853L28.3722 44.6837C28.5325 44.6837 28.6394 44.844 28.5325 44.9509L28.2653 45.9665C28.2653 46.1268 28.1049 46.2337 27.998 46.1268L22.1719 44.363L25.8065 46.982C25.9669 47.1424 25.9669 47.2493 25.9669 47.4097L25.6996 48.5856C25.6996 48.7459 25.5393 48.8528 25.4324 48.8528L20.9426 49.0132L26.7686 50.777C26.929 50.777 26.929 50.777 26.929 50.9374C26.929 50.9374 26.929 51.0977 26.929 51.2046L26.6617 52.2202C26.6617 52.3805 26.5014 52.4874 26.3945 52.3805L19.1253 50.0822C18.9649 50.0822 18.858 49.9218 18.9649 49.8149L19.5528 47.9442C19.5528 47.7838 19.7132 47.7838 19.8201 47.7838H24.6306V47.6235L20.5684 44.7371C20.2477 44.6837 20.2477 44.5768 20.2477 44.4164Z" fill="#062652"/>
<path d="M31.101 40.0874L30.3526 41.3702C30.0854 41.9582 29.6043 42.3858 29.0698 42.5461C28.6422 42.7065 28.0543 42.7065 27.4663 42.3858L23.8317 40.515C23.2437 40.2478 22.8161 39.7667 22.6558 39.2322C22.4954 38.6442 22.6558 38.2166 22.923 37.4683L23.6713 36.1855C23.9386 35.5976 24.4197 35.17 24.9542 35.0096C25.3818 34.8493 25.9697 34.8493 26.5577 35.17L30.1923 37.0407C30.7802 37.308 31.2079 37.789 31.3682 38.3235C31.5286 38.7511 31.4217 39.3391 31.101 40.0874ZM29.3905 40.515L29.8181 39.6598C29.9785 39.3926 29.9785 39.2322 29.9785 39.0719C29.9785 38.9115 29.8181 38.8046 29.5509 38.6442L26.0766 36.8804C25.8094 36.72 25.649 36.72 25.4887 36.72C25.3283 36.72 25.2214 36.8804 25.061 37.1476L24.6334 38.0028C24.4731 38.2701 24.4731 38.4304 24.4731 38.5908C24.4731 38.7511 24.6334 38.8581 24.9007 39.0184L28.375 40.7823C28.6422 40.9426 28.8026 40.9426 28.9629 40.9426C29.0698 40.9426 29.2302 40.6219 29.3905 40.515Z" fill="#062652"/>
<path d="M31.2556 35.5447L31.0953 35.3843C30.9349 35.224 30.9349 35.1171 31.0953 34.9567L31.8435 34.1015C32.0039 33.9412 32.1108 33.9412 32.2711 34.1015H32.4315C32.6988 34.2619 32.8591 34.3688 33.1798 34.3688C33.3402 34.3688 33.6074 34.2084 33.7678 33.9412L34.1954 33.3532C34.3557 33.086 34.4626 32.7653 34.4626 32.6049C34.4626 32.4446 34.3023 32.1773 34.035 32.017L33.4471 31.8566C33.2867 31.6963 33.0195 31.6963 32.8591 31.6963C32.5919 31.8566 32.4315 31.9635 32.1108 32.1239C31.9504 32.3911 31.6832 32.5515 31.3625 32.8722C31.0418 33.1929 30.7745 33.2998 30.5073 33.6205C30.24 33.7808 29.9194 33.8877 29.4918 33.8877C29.0641 33.8877 28.6365 33.7274 28.3158 33.2998L28.0486 33.0325C27.4606 32.6049 27.1934 32.1773 27.1934 31.5894C27.1934 31.0014 27.3537 30.4135 27.7813 29.9859L28.6365 28.8099C29.0641 28.222 29.4917 27.9547 30.0797 27.7944C30.6676 27.634 31.0952 27.7944 31.6832 28.222L31.8435 28.3823C32.0039 28.5427 32.0039 28.6496 31.8435 28.8099L31.0953 29.6652C30.9349 29.8255 30.828 29.8255 30.6676 29.6652C30.4004 29.5048 30.24 29.3979 29.9193 29.3979C29.759 29.3979 29.4917 29.5583 29.3314 29.8255L29.0641 30.5738C28.7969 30.8411 28.7969 31.1618 28.7969 31.3221C28.7969 31.4825 28.9572 31.7497 29.2245 31.9101L29.3848 32.0704C29.6521 32.3377 30.1332 32.2308 30.5608 31.6428C30.9884 31.0549 31.5763 30.6273 32.1643 30.1997C32.4315 30.0393 32.7522 29.9324 33.1798 29.9324C33.6074 29.9324 33.9281 30.0928 34.3557 30.36L34.623 30.6273C35.2109 31.0549 35.4782 31.4825 35.4782 32.0704C35.4782 32.6584 35.3178 33.2463 34.8902 33.6739L34.035 34.8498C33.6074 35.4378 33.1798 35.705 32.5919 35.8654C32.2712 36.1326 31.6832 36.0257 31.2556 35.5447Z" fill="#062652"/>
<path d="M39.3814 29.0241L38.5262 29.8793C38.3659 30.0396 38.259 30.0396 38.0986 29.8793L33.6088 25.3895H33.4484L32.2725 26.5654C32.1122 26.7257 32.0053 26.7257 31.8449 26.5654L31.257 25.9774C31.0966 25.8171 31.0966 25.7102 31.257 25.5498L34.8916 21.9152C35.052 21.7548 35.1588 21.7548 35.3192 21.9152L35.9072 22.5031C36.0675 22.6635 36.0675 22.7704 35.9072 22.9307L34.8916 23.9463C34.7312 24.1066 34.7312 24.1066 34.8916 24.1066L39.3814 28.5965C39.5418 28.7568 39.5418 28.9172 39.3814 29.0241Z" fill="#062652"/>
<path d="M46.6515 23.2524L45.636 23.8403C45.4756 24.0007 45.3687 24.0007 45.2084 23.8403L41.5738 18.6022C41.5738 18.4418 41.4134 18.4418 41.4134 18.6022L40.1306 19.4574C39.9702 19.6177 39.8634 19.6177 39.703 19.4574L39.2754 18.7091C39.1151 18.5487 39.2754 18.4418 39.4357 18.2815L43.6583 15.3952C43.8187 15.2348 43.9256 15.2348 44.0859 15.3952L44.5135 16.1435C44.6739 16.3038 44.5135 16.4107 44.3532 16.5711L43.0704 17.4263C42.91 17.4263 42.91 17.5866 43.0704 17.5866L46.705 22.8248C46.7584 22.9317 46.7584 23.092 46.6515 23.2524Z" fill="#062652"/>
<path d="M50.7141 20.794L49.6986 21.2216C49.5382 21.3819 49.4313 21.2216 49.271 21.0612L45.957 14.2196C45.7967 14.0592 45.957 13.9523 46.1174 13.792L49.0037 12.3488C49.5917 12.0816 50.1796 11.9212 50.7676 12.0816C51.3555 12.2419 51.6228 12.6695 51.9435 13.2575L52.3711 14.1127C52.7987 14.9679 52.6383 15.7162 52.1038 16.3041L54.7229 18.1749C54.8832 18.3352 54.8832 18.4421 54.5625 18.6025L53.547 19.0301C53.3867 19.0301 53.2798 19.1905 53.2798 19.1905C53.1194 19.1905 53.1194 19.1905 53.0125 19.0301L50.7141 17.4266L49.8589 17.8542C49.6986 17.8542 49.6986 18.0145 49.6986 18.0145L50.9814 20.3129C50.821 20.4733 50.821 20.6336 50.7141 20.794ZM49.2175 16.7317L50.3934 16.1438C50.6607 15.9834 50.821 15.8765 50.821 15.7162C50.821 15.5558 50.821 15.4489 50.821 15.1282L50.3934 14.273C50.2331 14.0058 50.1262 13.8454 49.9658 13.8454C49.8055 13.8454 49.5382 13.8454 49.2175 14.0058L48.0416 14.5937C47.8812 14.5937 47.8812 14.7541 47.8812 14.7541L48.8968 16.7852C49.1106 16.7317 49.1106 16.7317 49.2175 16.7317Z" fill="#062652"/>
<path d="M57.9276 9.14176L59.1036 8.87451C59.2639 8.87451 59.3708 8.87451 59.3708 9.03486L61.1347 14.7006C61.295 15.2886 61.295 15.8765 60.9743 16.3041C60.7071 16.7317 60.226 17.0524 59.5311 17.3197L58.088 17.7473C57.3397 17.9076 56.8052 17.9076 56.3241 17.7473C55.8965 17.48 55.4689 16.999 55.3086 16.4645L53.7051 10.7987C53.7051 10.6384 53.7051 10.5315 53.8654 10.5315L55.0413 10.2642C55.2017 10.2642 55.3086 10.2642 55.3086 10.4246L57.0724 15.93C57.2328 16.1972 57.2328 16.3576 57.3397 16.3576C57.5 16.5179 57.6069 16.3576 57.9276 16.3576L58.7829 16.0903C59.0501 15.93 59.2105 15.93 59.3708 15.8231C59.5312 15.6627 59.5312 15.5558 59.3708 15.2351L57.6069 9.72972C57.6604 9.30211 57.8207 9.14176 57.9276 9.14176Z" fill="#062652"/>
<path d="M62.7359 14.2199V13.9527C62.7359 13.7923 62.7359 13.6854 63.0032 13.6854L64.1791 13.5251C64.3394 13.5251 64.4463 13.5251 64.4463 13.7923V13.9527C64.4463 14.2199 64.6067 14.5406 64.7136 14.5406C64.8739 14.701 65.1412 14.701 65.4619 14.701L66.0498 14.5406C66.3171 14.5406 66.6378 14.3803 66.7981 14.2734C66.9585 14.113 66.9585 13.8458 66.9585 13.5251V13.3647C66.9585 13.0975 66.7981 12.9371 66.5309 12.7768C66.2636 12.6164 66.1033 12.6164 65.6757 12.6164C65.4084 12.6164 64.9274 12.6164 64.6601 12.6164C64.2325 12.6164 63.9118 12.6164 63.6446 12.4561C63.3773 12.4561 63.0566 12.1888 62.7894 11.8681C62.5221 11.6008 62.3618 11.1198 62.3618 10.5853V10.1577C62.2014 9.40938 62.3618 8.98178 62.7894 8.55418C63.0566 8.12657 63.6446 7.80587 64.3929 7.80587L65.6757 7.64552C66.424 7.48517 66.9585 7.64552 67.4396 7.91277C67.8672 8.18002 68.1879 8.66108 68.2948 9.35593V9.73008C68.2948 9.89044 68.2948 9.99734 68.0275 9.99734L66.7447 10.1577C66.5843 10.1577 66.4774 10.1577 66.4774 9.89044V9.73008C66.4774 9.46283 66.3171 9.14213 66.2102 9.14213C66.0498 8.98178 65.7826 8.98178 65.4619 8.98178L64.8739 9.14213C64.4463 9.14213 64.286 9.30248 64.1256 9.40938C63.9653 9.56973 63.9653 9.83699 64.1256 10.2646V10.5318C64.1256 10.9594 64.5532 11.1198 65.3015 11.1198C66.0499 11.1198 66.7447 11.1198 67.3327 11.2801C67.5999 11.4405 67.9206 11.5474 68.1878 11.8681C68.4551 12.1354 68.6154 12.6164 68.6154 13.044V13.4716C68.7758 14.2199 68.6154 14.6475 68.1878 15.0751C67.7602 15.5027 67.3326 15.8234 66.5843 15.8234L65.4084 15.9838C64.6601 16.1441 64.1256 15.9838 63.6446 15.7165C63.1635 15.3958 62.8963 14.8079 62.7359 14.2199Z" fill="#062652"/>
<path d="M73.1608 15.3957H72.0384C71.8781 15.3957 71.7712 15.2353 71.7712 15.1284L71.9315 8.76783C71.9315 8.60748 71.9315 8.60748 71.7712 8.60748H70.1676C70.0073 8.60748 69.9004 8.44713 69.9004 8.34023V7.48503C69.9004 7.32467 70.0607 7.21777 70.1676 7.21777L75.4058 7.37812C75.5661 7.37812 75.673 7.53848 75.673 7.64538V8.50058C75.673 8.66093 75.5127 8.76783 75.4058 8.76783H73.8023C73.6419 8.76783 73.6419 8.76783 73.6419 8.92819L73.4816 15.2888C73.4816 15.3957 73.4816 15.3957 73.1608 15.3957Z" fill="#062652"/>
<path d="M81.2823 16.1438L76.9528 15.5559C76.7924 15.5559 76.6855 15.3955 76.6855 15.2886L77.7011 7.75212C77.7011 7.59176 77.8614 7.48486 77.9683 7.48486L82.2978 8.07282C82.4582 8.07282 82.5651 8.23317 82.5651 8.34007L82.4047 9.19527C82.4047 9.35563 82.2444 9.46253 82.1375 9.46253L79.3581 9.03492C79.1977 9.03492 79.1977 9.03492 79.1977 9.19527L78.9305 10.7988C78.9305 10.9591 78.9305 10.9591 79.0908 10.9591L81.3892 11.2264C81.5495 11.2264 81.6564 11.3867 81.6564 11.4936L81.4961 12.3488C81.4961 12.5092 81.3357 12.6161 81.2288 12.6161L78.9305 12.3488C78.7701 12.3488 78.7701 12.3488 78.7701 12.5092L78.5028 14.2731C78.5028 14.4334 78.5029 14.4334 78.6632 14.4334L81.4426 14.861C81.603 14.861 81.7099 15.0214 81.7099 15.1283L81.5495 15.9835C81.603 16.1438 81.4426 16.1438 81.2823 16.1438Z" fill="#062652"/>
<path d="M83.0488 16.2509L85.2403 8.87477C85.2403 8.71442 85.4007 8.60752 85.5076 8.71442L88.7146 9.56962C89.4629 9.72998 89.8905 10.1576 90.1578 10.5852C90.425 11.0128 90.425 11.6007 90.3181 12.1887L89.1422 16.144C88.9818 16.732 88.5542 17.1596 88.1266 17.4268C87.699 17.6941 87.1111 17.6941 86.3628 17.4268L83.1557 16.5716C83.0488 16.5716 83.0488 16.4113 83.0488 16.2509ZM85.2403 15.7164L86.6835 16.144C86.9507 16.3044 87.1111 16.3044 87.2714 16.144C87.4318 15.9837 87.5387 15.8768 87.5387 15.7164L88.5542 11.9214C88.7146 11.6542 88.5542 11.4938 88.5542 11.3335C88.3939 11.1731 88.287 11.0662 87.9663 11.0662L86.5231 10.6386C86.3628 10.6386 86.3628 10.6386 86.3628 10.799L84.9196 15.7164C85.0799 15.5561 85.08 15.5561 85.2403 15.7164Z" fill="#062652"/>
<path d="M93.2019 19.7782L96.9969 13.0969C97.1572 12.9365 97.1572 12.9365 97.4244 12.9365L100.311 14.54C100.899 14.8073 101.326 15.2883 101.487 15.8228C101.647 16.2504 101.647 16.8384 101.219 17.4264L100.952 17.854C100.685 18.4419 100.097 18.7092 99.3486 18.6023C99.6159 18.8695 99.7763 19.0299 99.9366 19.3506C100.097 19.6178 99.9366 19.9385 99.7763 20.3661L99.3486 21.1144C99.0814 21.7024 98.6004 21.9696 98.0659 22.13C97.5314 22.2903 97.0503 22.13 96.302 21.8627L93.4157 20.2592C93.2019 20.0454 93.0415 19.8851 93.2019 19.7782ZM95.3933 19.7782L96.6761 20.5265C96.9434 20.6868 97.1038 20.6868 97.2641 20.6868C97.4245 20.6868 97.5313 20.5265 97.6917 20.2592L97.959 19.6713C98.1193 19.404 98.1193 19.2437 98.1193 19.0833C98.1193 18.923 97.8521 18.8161 97.6917 18.6557L96.4089 17.9074C96.2485 17.9074 96.2485 17.9074 96.2485 17.9074L95.3933 19.6713C95.233 19.6178 95.233 19.6178 95.3933 19.7782ZM97.1038 16.7315L98.2796 17.4798C98.5469 17.6402 98.7073 17.6402 98.8676 17.6402C99.028 17.6402 99.1349 17.4798 99.2952 17.2126L99.5625 16.785C99.7228 16.5177 99.7228 16.3573 99.7228 16.197C99.7228 16.0366 99.5625 15.9297 99.2952 15.7694L98.1193 15.0211C97.9589 15.0211 97.959 15.0211 97.959 15.0211L97.1038 16.4642C96.9434 16.5711 96.9434 16.5711 97.1038 16.7315Z" fill="#062652"/>
<path d="M100.575 24.695L99.7201 23.9467C99.5598 23.7863 99.5598 23.6794 99.7201 23.5191L104.531 17.5861C104.691 17.4257 104.798 17.4257 104.958 17.5861L107.577 19.6172C108.165 20.0448 108.433 20.4724 108.593 21.0604C108.753 21.6483 108.593 22.0759 108.165 22.6639L107.31 23.2518C106.722 24.0001 106.027 24.2674 105.119 24.0001L104.531 27.2071C104.531 27.3675 104.37 27.4744 104.103 27.3675L103.248 26.6192C103.088 26.4588 103.088 26.4588 102.981 26.3519C102.981 26.3519 102.981 26.1916 102.981 26.0847L103.569 23.038L102.82 22.4501C102.66 22.4501 102.66 22.4501 102.66 22.4501L101.056 24.4812C100.896 24.695 100.736 24.695 100.575 24.695ZM103.622 21.488L104.638 22.3432C104.905 22.5035 105.065 22.6104 105.225 22.6104C105.386 22.6104 105.493 22.4501 105.653 22.3432L106.241 21.5949C106.401 21.4345 106.508 21.1673 106.401 21.0069C106.401 20.8466 106.241 20.7397 105.974 20.419L104.958 19.5637C104.798 19.5637 104.798 19.5637 104.798 19.5637L103.515 21.3276C103.515 21.3276 103.515 21.488 103.622 21.488Z" fill="#062652"/>
<path d="M107.686 31.0553L106.67 29.8794C106.243 29.2914 105.922 28.8638 105.922 28.2759C105.922 27.6879 106.189 27.2603 106.67 26.8327L109.556 24.0533C109.984 23.6257 110.572 23.305 111.16 23.4654C111.748 23.4654 112.176 23.7326 112.603 24.3206L113.619 25.4965C114.046 26.0844 114.367 26.512 114.367 27.1C114.367 27.6879 114.1 28.1155 113.619 28.5431L110.732 31.3226C110.305 31.7502 109.717 32.0709 109.129 31.9105C108.701 31.8036 108.113 31.4829 107.686 31.0553ZM107.846 29.1845L108.594 29.9329C108.755 30.0932 109.022 30.2001 109.182 30.2001C109.343 30.2001 109.45 30.0398 109.77 29.9329L112.657 27.3138C112.817 27.1534 112.924 27.0465 112.924 26.7258C112.924 26.5655 112.764 26.4586 112.657 26.1379L111.801 25.5499C111.641 25.3896 111.374 25.2827 111.213 25.2827C111.053 25.2827 110.946 25.443 110.625 25.5499L107.739 28.169C107.579 28.3293 107.472 28.4362 107.472 28.7569C107.525 28.7569 107.686 28.9173 107.846 29.1845Z" fill="#062652"/>
<path d="M110.894 35.1169L110.306 34.1014C110.145 33.941 110.145 33.8341 110.306 33.6738L116.666 29.4512C116.827 29.2908 116.934 29.4512 117.094 29.6115L117.682 30.6271C117.842 30.7874 117.842 30.8943 117.682 31.0547L114.635 32.9255C114.796 32.9255 115.063 32.7651 115.491 32.7651L118.965 32.9255C119.125 32.9255 119.392 33.0858 119.553 33.1927L120.301 34.3686C120.301 34.529 120.301 34.529 120.301 34.529H120.141L115.918 34.2617L114.047 39.1791C114.047 39.3395 113.887 39.3395 113.887 39.3395C113.887 39.3395 113.727 39.3395 113.727 39.1791L113.139 38.3239C112.978 38.0567 112.871 37.8963 112.978 37.5756L114.421 34.1014L113.139 33.941L111.375 35.1169C111.161 35.2773 111.054 35.2773 110.894 35.1169Z" fill="#062652"/>
<path d="M116.238 44.5772L114.367 40.515C114.207 40.3546 114.367 40.2477 114.528 40.0874L121.476 36.7735C121.636 36.6131 121.743 36.7735 121.904 36.9338L123.774 40.996C123.935 41.1564 123.774 41.2633 123.614 41.2633L122.866 41.6909C122.705 41.8512 122.599 41.6909 122.599 41.5305L121.423 38.9115C121.423 38.7511 121.262 38.7511 121.262 38.7511L119.819 39.4994C119.659 39.4994 119.659 39.6598 119.819 39.6598L120.835 41.6909C120.995 41.8512 120.835 41.9581 120.674 42.1185L119.926 42.5461C119.766 42.7064 119.659 42.5461 119.498 42.3857L118.483 40.3546C118.483 40.1943 118.323 40.1943 118.323 40.1943L116.719 40.9426C116.559 40.9426 116.559 41.1029 116.719 41.1029L117.895 43.722C118.055 43.8823 117.895 43.9892 117.735 43.9892L116.986 44.4169C116.398 44.6841 116.238 44.6841 116.238 44.5772Z" fill="#062652"/>
<path d="M117.251 47.463L116.984 46.4475C116.984 46.2871 116.984 46.1802 117.145 46.1802L124.414 43.9888C124.574 43.9888 124.681 43.9888 124.681 44.1491L125.536 47.1958C125.697 47.9441 125.697 48.4786 125.536 48.9597C125.269 49.3873 124.788 49.8149 124.253 49.9752L123.238 50.2425C122.383 50.5097 121.634 50.4028 121.046 49.6545L119.015 51.846C118.855 52.0063 118.748 52.0063 118.748 51.6856L118.481 50.6701C118.481 50.5097 118.481 50.4028 118.481 50.4028C118.481 50.2425 118.481 50.2425 118.641 50.1356L120.833 48.1044L120.565 47.2492C120.565 47.0889 120.405 47.0889 120.405 47.0889L117.946 47.8372C117.572 47.7303 117.412 47.7303 117.251 47.463ZM121.634 46.6078L121.902 47.8906C122.062 48.1579 122.062 48.3182 122.169 48.4786C122.329 48.639 122.436 48.639 122.757 48.4786L123.772 48.2113C124.04 48.051 124.2 48.051 124.2 47.9441C124.36 47.7837 124.2 47.5165 124.2 47.1958L123.772 45.913C123.772 45.7526 123.612 45.7526 123.612 45.7526L121.581 46.5009C121.634 46.4475 121.474 46.6078 121.634 46.6078Z" fill="#062652"/>
<path d="M56.8047 115.767L57.0719 114.591C57.2323 114.164 57.4996 113.736 58.0875 113.576L61.1342 112.133C61.5618 111.865 61.8825 111.545 61.9894 111.277L62.1497 110.85C62.1497 110.582 62.1497 110.422 62.1497 110.262C61.9894 110.101 61.8825 109.994 61.5618 109.994L61.1342 109.834C60.8669 109.834 60.5462 109.834 60.3859 109.834C60.2255 109.994 60.1186 110.101 60.1186 110.422L59.9583 110.85C59.9583 111.01 59.7979 111.117 59.691 111.01L58.5151 110.743C58.0875 110.582 58.0875 110.476 58.0875 110.315L58.2479 109.888C58.4082 109.139 58.6754 108.712 59.2634 108.444C59.691 108.177 60.279 108.177 61.0273 108.284L62.0428 108.551C62.7911 108.712 63.3256 108.979 63.6463 109.407C63.9136 109.834 64.0739 110.422 63.9136 111.17L63.7532 111.758C63.5929 112.507 63.1653 112.934 62.5773 113.202L59.5306 114.645C59.3703 114.645 59.3703 114.805 59.2634 114.912V115.072L62.5773 115.821C62.7377 115.821 62.8446 115.981 62.8446 116.088L62.417 117.103C62.417 117.264 62.2566 117.371 62.1497 117.264L57.0719 116.088C56.9116 116.088 56.8047 115.927 56.8047 115.767Z" fill="#062652"/>
<path d="M69.8477 118.119L68.4046 117.959C67.6563 117.959 67.1218 117.692 66.6407 117.371C66.2131 116.943 66.0527 116.516 66.0527 115.767L66.32 111.545C66.32 110.796 66.5873 110.369 67.0683 109.941C67.4959 109.674 68.0839 109.514 68.8322 109.514L70.2753 109.674C71.0236 109.674 71.5581 109.941 72.0392 110.422C72.4668 110.85 72.6271 111.278 72.6271 112.026L72.3599 116.088C72.3599 116.836 72.0926 117.264 71.6116 117.692C71.1305 117.959 70.5426 118.119 69.8477 118.119ZM68.8322 116.516H69.6874C69.9546 116.516 70.2753 116.516 70.2753 116.355C70.4357 116.195 70.4357 116.088 70.4357 115.767L70.7029 111.705C70.7029 111.438 70.7029 111.278 70.5426 111.117C70.3822 110.957 70.2753 110.957 69.9546 110.957H69.0994C68.8322 110.957 68.5115 110.957 68.5115 111.117C68.3511 111.278 68.2442 111.384 68.2442 111.705L67.977 115.767C67.977 116.035 67.977 116.195 68.1373 116.355C68.2442 116.516 68.5115 116.516 68.8322 116.516Z" fill="#062652"/>
<path d="M75.9421 117.798L75.7817 116.516C75.7817 116.088 75.9421 115.5 76.3697 115.233L78.6681 112.934C79.0957 112.507 79.256 112.186 79.0957 111.758V111.277C79.0957 111.01 78.9353 110.85 78.8284 110.689C78.6681 110.529 78.4008 110.529 78.0801 110.529H77.6525C77.3853 110.529 77.2249 110.689 77.0646 110.796C76.9042 111.064 76.9042 111.224 76.9042 111.545V111.972C76.9042 112.133 76.9042 112.24 76.6369 112.24L75.4611 112.4C75.3007 112.4 75.1938 112.4 75.1938 112.133V111.705C75.0335 110.957 75.1938 110.529 75.6214 110.102C75.8887 109.674 76.4766 109.353 77.2249 109.353L78.2405 109.193C78.9888 109.033 79.5233 109.193 80.0043 109.46C80.4319 109.727 80.7526 110.315 80.7526 110.903V111.491C80.913 112.24 80.5923 112.774 80.1647 113.255L77.8663 115.714C77.706 115.874 77.7059 115.981 77.7059 115.981V116.141L81.0199 115.714C81.1802 115.714 81.2871 115.714 81.2871 115.981L81.4475 116.836C81.4475 116.997 81.4475 117.104 81.1802 117.104L76.1024 117.691C76.1024 117.959 75.9421 117.959 75.9421 117.798Z" fill="#062652"/>
<path d="M83.2087 110.69L82.9414 109.674C82.9414 109.514 82.9414 109.407 83.1018 109.246L84.1173 108.231C84.2776 108.07 84.3846 107.964 84.5449 107.964L85.7208 107.696C85.8811 107.696 85.9881 107.696 85.9881 107.857L88.1795 115.553C88.1795 115.714 88.1795 115.714 88.1795 115.821L88.0192 115.981L86.8433 116.141C86.6829 116.141 86.576 116.141 86.576 115.981L84.8122 109.727L83.6363 110.743C83.3156 111.01 83.3156 110.85 83.2087 110.69Z" fill="#062652"/>
<path d="M100.311 105.772C99.296 106.36 98.1201 106.948 97.1047 107.536C96.2495 107.963 95.2341 108.391 94.3255 108.979C94.0582 109.139 93.5772 108.979 93.5772 108.712L93.4169 108.444C93.2566 108.177 93.4169 107.857 93.6841 107.696C95.8754 106.948 97.9064 106.093 99.777 105.077C101.968 103.902 103.999 102.619 105.87 101.015C107.74 99.5724 109.504 97.8087 111.214 96.0984C112.818 94.3347 114.421 92.3037 115.704 90.2728C116.987 88.2418 118.162 86.0506 119.178 83.9127C120.193 81.7749 120.942 79.4233 121.636 76.9647C122.224 74.6666 122.652 72.1546 122.919 69.6961C123.079 67.2376 123.186 64.886 123.079 62.4274C120.461 61.2516 121.316 59.6482 121.476 59.1138C121.743 58.2586 121.743 56.6553 121.743 56.6553C122.491 57.0828 123.935 58.0983 124.202 59.862C124.469 61.4654 123.347 62.3205 123.186 62.4809C123.347 64.9394 123.347 67.291 123.026 69.7495C122.705 72.2081 122.278 74.6666 121.743 77.0182C121.155 79.3164 120.3 81.8283 119.445 83.9662C118.43 86.2643 117.254 88.4556 115.971 90.4866C114.688 92.5175 113.192 94.5485 111.642 96.4191C110.039 98.2897 108.328 100.053 106.297 101.657C104.534 102.993 102.503 104.489 100.311 105.772ZM99.7235 107.055C99.7235 107.055 102.93 110.849 106.992 109.674C111.054 108.391 111.642 105.612 111.642 105.612C111.642 105.612 108.328 105.184 106.404 104.329C104.373 103.314 100.899 104.917 99.7235 107.055ZM102.61 99.2517C102.342 97.6483 101.754 96.3656 101.327 95.457C101.327 95.457 99.8839 97.6483 98.7081 99.0914C97.265 100.855 97.9598 103.581 99.1356 104.757C98.9753 104.757 103.358 103.474 102.61 99.2517ZM115.116 97.2208C112.657 96.9535 109.611 99.5189 109.611 101.443C109.611 101.443 112.23 103.634 115.704 102.458C119.178 101.443 120.193 96.9535 120.193 96.9535C120.193 96.9535 117.574 97.488 115.116 97.2208ZM107.259 98.931C107.259 98.931 113.192 95.8846 107.687 89.7918C107.687 89.7918 106.832 91.9831 105.923 94.014C104.961 95.8846 106.832 98.6638 107.259 98.931ZM120.621 88.2418C117.735 88.6694 116.559 91.7158 116.559 93.3192C116.559 93.3192 119.766 94.9226 122.224 93.052C124.683 91.1814 125.698 88.5625 125.431 86.9591C125.378 87.066 123.347 87.7608 120.621 88.2418ZM113.78 91.5555C113.78 91.5555 116.826 88.6694 114.207 84.6075C113.78 84.0196 113.032 83.3248 112.337 82.8438C112.497 84.0196 111.589 85.3023 111.321 87.4936C111.054 90.2728 112.337 91.2883 113.78 91.5555ZM121.476 81.2404C120.728 82.0956 120.193 83.6989 120.621 84.7144C120.621 84.7144 123.4 85.5695 125.698 83.5386C127.302 82.0956 127.89 79.7439 127.569 77.4458C124.522 79.7974 123.667 78.5147 121.476 81.2404ZM123.24 75.8958C123.24 75.8958 128.905 76.163 128.745 70.0702C128.745 69.6426 128.745 69.0547 128.584 68.6272C128.584 68.6272 126.981 69.803 124.79 70.8185C122.652 71.6736 123.24 75.8958 123.24 75.8958ZM115.65 81.4008C115.811 83.2714 118.269 84.18 118.269 84.18C118.269 84.18 119.552 82.4162 118.857 79.6905C118.43 78.2474 117.093 77.3923 115.811 76.8044C115.811 77.6061 115.383 79.7974 115.65 81.4008ZM119.018 74.72C120.621 75.7355 121.209 75.5751 121.209 75.5751C121.209 75.5751 122.652 72.2615 119.445 70.4978C118.697 70.2305 118.002 69.9099 117.414 69.7495C117.842 70.6581 117.681 73.8649 119.018 74.72ZM124.255 67.772C124.255 67.772 129.065 67.5048 128.317 62.4274C128.317 61.9999 128.157 61.6792 128.05 61.2516C128.05 61.2516 126.874 62.4274 125.164 63.4429C123.347 64.298 124.255 67.772 124.255 67.772ZM120.3 67.4514C121.583 68.3065 122.064 68.1996 122.064 68.1996C122.064 68.1996 123.24 65.4204 120.621 64.1377C120.033 63.8705 119.445 63.7101 118.857 63.5498C119.445 64.298 119.285 66.7566 120.3 67.4514ZM44.8879 105.772C45.9034 106.36 47.0792 106.948 48.0947 107.536C48.9498 107.963 49.9653 108.391 50.8739 108.979C51.1411 109.139 51.6221 108.979 51.6221 108.712L51.7825 108.444C51.9428 108.177 51.7825 107.857 51.5152 107.696C49.3239 106.948 47.293 106.093 45.4224 105.077C43.2311 103.902 41.2002 102.619 39.3296 101.015C37.4589 99.5724 35.6952 97.8087 33.985 96.0984C32.3816 94.3347 30.7782 92.3037 29.4955 90.2728C28.2128 88.2418 27.037 86.0506 26.0215 83.9127C25.0061 81.7214 24.2578 79.4233 23.563 76.9647C22.9751 74.6666 22.5475 72.1546 22.2803 69.6961C22.12 67.2376 22.0131 64.886 22.1199 62.4274C24.7388 61.2516 23.8837 59.6482 23.7233 59.1138C23.4561 58.2586 23.4561 56.6553 23.4561 56.6553C22.7079 57.0828 21.2648 58.0983 20.9976 59.862C20.7304 61.4654 21.8527 62.3205 22.0131 62.4809C21.8527 64.9394 21.8527 67.291 22.1734 69.7495C22.4941 72.2081 22.9216 74.6666 23.4561 77.0182C24.044 79.3164 24.8992 81.8283 25.7543 83.9662C26.7698 86.2643 27.9456 88.4556 29.2283 90.4866C30.511 92.5175 32.0075 94.5485 33.5574 96.4191C35.1073 98.2897 36.871 100.053 38.902 101.657C40.6657 102.993 42.6967 104.489 44.8879 105.772ZM38.7951 104.169C36.7641 105.024 33.5574 105.451 33.5574 105.451C33.5574 105.451 34.1453 108.231 38.2072 109.513C42.2691 110.796 45.4758 106.894 45.4758 106.894C44.3 104.917 40.826 103.314 38.7951 104.169ZM46.0638 104.757C47.2396 103.581 47.9344 100.855 46.4913 99.0914C45.3155 97.6483 43.8725 95.457 43.8725 95.457C43.2846 96.4725 42.857 97.6483 42.5898 99.2517C41.8415 103.474 46.0638 104.757 46.0638 104.757ZM25.006 96.9001C25.006 96.9001 26.0215 101.39 29.4955 102.405C32.9695 103.42 35.5883 101.39 35.5883 101.39C35.428 99.5189 32.5419 96.7398 30.0834 97.1673C27.4646 97.488 25.006 96.9001 25.006 96.9001ZM39.2227 93.8537C38.3675 91.8227 37.4589 89.6314 37.4589 89.6314C31.954 95.7243 37.8865 98.7707 37.8865 98.7707C38.3675 98.6638 40.1312 95.8846 39.2227 93.8537ZM19.8218 87.066C19.5545 88.6694 20.57 91.2883 23.0285 93.1589C25.487 95.0295 28.6938 93.4261 28.6938 93.4261C28.5335 91.8227 27.4111 88.7763 24.6319 88.3487C21.6924 87.7608 19.8218 87.066 19.8218 87.066ZM33.7177 87.4936C33.4505 85.3023 32.5419 84.0196 32.7023 82.8438C32.1144 83.2714 31.2592 84.0196 30.8317 84.6075C28.2128 88.6694 31.2592 91.5555 31.2592 91.5555C32.8626 91.2883 34.1453 90.2728 33.7177 87.4936ZM17.6305 77.4992C17.2029 79.9577 17.7908 82.149 19.5011 83.592C21.6924 85.623 24.5785 84.7679 24.5785 84.7679C24.8457 83.7524 24.4181 82.149 23.7233 81.2939C21.532 78.5147 20.6769 79.7974 17.6305 77.4992ZM20.2493 70.8185C18.0581 69.9633 16.4547 68.6272 16.4547 68.6272C16.2943 69.0547 16.2944 69.4823 16.2944 70.0702C16.134 76.163 21.7993 75.8958 21.7993 75.8958C21.7993 75.8958 22.3872 71.6736 20.2493 70.8185ZM29.4955 76.751C28.2128 77.3389 26.7163 78.194 26.4491 79.637C25.7008 82.4162 27.037 84.1265 27.037 84.1265C27.037 84.1265 29.3352 83.2714 29.6558 81.3473C29.8162 79.7974 29.3886 77.6061 29.4955 76.751ZM27.7852 69.803C27.037 69.9633 26.3422 70.2306 25.7543 70.5512C22.5475 72.3149 23.9906 75.6286 23.9906 75.6286C23.9906 75.6286 24.5785 75.7889 26.1819 74.7735C27.4646 73.8649 27.1973 70.6581 27.7852 69.803ZM20.089 63.3895C18.3253 62.374 17.2029 61.1982 17.2029 61.1982C17.0426 61.4654 17.0426 61.9464 16.9357 62.374C16.1875 67.4514 20.9976 67.7186 20.9976 67.7186C20.9976 67.7186 21.8527 64.298 20.089 63.3895ZM26.1819 63.3895C25.594 63.5498 25.0061 63.6567 24.4181 63.9774C21.7993 65.2601 22.9751 68.0393 22.9751 68.0393C22.9751 68.0393 23.4027 68.1996 24.7388 67.291C25.9146 66.7566 25.7543 64.298 26.1819 63.3895Z" fill="#7473AD"/>
<path opacity="0.3" d="M123.508 113.735L123.08 113.308C136.709 99.8395 144.138 81.8282 144.138 62.6946C144.138 43.6678 136.762 25.8703 123.401 12.3485L123.828 11.9209C137.297 25.5496 144.886 43.5609 144.886 62.6946C144.672 81.9886 137.136 100.107 123.508 113.735Z" fill="#7473AD"/>
<path opacity="0.5" d="M106.404 122.287L106.137 121.699C127.301 109.674 140.502 87.013 140.502 62.6416C140.502 38.4306 127.462 15.7695 106.297 3.74415L106.564 3.15625C127.889 15.3419 141.09 38.1099 141.09 62.6416C141.09 87.1733 127.836 110.102 106.404 122.287Z" fill="#7473AD"/>
<path d="M88.2834 124.478L88.123 123.89C116.129 116.782 135.69 91.5555 135.69 62.6947C135.69 33.8339 116.129 8.71424 88.2834 1.49904L88.4437 0.911133C116.717 8.17979 136.438 33.5666 136.438 62.6947C136.278 91.8227 116.556 117.21 88.2834 124.478Z" fill="#7473AD"/>
<path opacity="0.3" d="M21.6919 113.735C8.06321 100.107 0.527344 81.9886 0.527344 62.6946C0.527344 43.5609 7.90287 25.5496 21.585 11.9209L21.8523 12.3485C8.49077 25.8169 1.11524 43.6678 1.11524 62.6946C1.11524 81.8282 8.65113 99.8395 22.173 113.308L21.6919 113.735Z" fill="#7473AD"/>
<path opacity="0.5" d="M38.7953 122.287C17.31 110.101 4.00195 87.3329 4.00195 62.6944C4.00195 38.1627 17.2031 15.3947 38.528 3.20898L38.7953 3.79689C17.791 15.8222 4.69674 38.4833 4.69674 62.6944C4.69674 87.0657 17.8979 109.673 39.0625 121.752L38.7953 122.287Z" fill="#7473AD"/>
<path d="M56.9124 124.478C28.6395 117.21 8.91797 91.8227 8.91797 62.6947C8.91797 33.5666 28.6395 8.17979 56.9124 0.911133V1.49904C29.0671 8.71424 9.50586 33.8339 9.50586 62.6947C9.50586 91.5555 29.0671 116.782 57.0728 123.89L56.9124 124.478Z" fill="#7473AD"/>
<path d="M72.576 103.314C50.2356 103.314 31.957 85.1954 31.957 62.6946C31.957 40.1939 50.0752 22.0757 72.576 22.0757C94.9164 22.0757 113.195 40.1939 113.195 62.6946C113.195 85.1954 94.9164 103.314 72.576 103.314ZM72.576 22.8239C50.5028 22.8239 32.7053 40.6749 32.7053 62.6946C32.7053 84.7144 50.5562 102.565 72.576 102.565C94.5957 102.565 112.447 84.7144 112.447 62.6946C112.447 40.6749 94.6492 22.8239 72.576 22.8239Z" fill="#7473AD"/>
<path d="M60.9746 84.6072H83.9029L78.398 79.2626H73.5879L74.8706 60.3962L72.8396 58.3652L70.0604 60.3962L71.0759 79.2626H66.2658L60.9746 84.6072Z" fill="url(#paint0_linear_7283_2107)"/>
<path fill-rule="evenodd" clip-rule="evenodd" d="M68.8306 54.4106L57.6603 43.0801H60.1189L71.0218 54.2503L64.0738 61.1982L68.8306 54.4106ZM88.1245 65.7412L76.794 54.1434L81.1231 47.0351L74.0148 54.3037L85.185 65.9015L88.1245 65.7412ZM82.192 65.7412L72.5718 55.7468L57.5 71.5668L72.8924 58.7932L79.8404 65.9015L82.192 65.7412ZM63.0049 43.1335L72.4114 52.8607L87.8039 36.7734L72.3045 49.8143L65.9445 42.9732H63.0584V43.1335H63.0049Z" fill="url(#paint1_linear_7283_2107)"/>
<defs>
<linearGradient id="paint0_linear_7283_2107" x1="72.5241" y1="81.2731" x2="73.0302" y2="58.3583" gradientUnits="userSpaceOnUse">
<stop stop-color="#3D82F7"/>
<stop offset="0.5775" stop-color="#0D67F9"/>
<stop offset="1" stop-color="#0D49CC"/>
</linearGradient>
<linearGradient id="paint1_linear_7283_2107" x1="63.2268" y1="44.3606" x2="84.4056" y2="66.2791" gradientUnits="userSpaceOnUse">
<stop stop-color="#32D7F5"/>
<stop offset="0.5695" stop-color="#1D93F4"/>
<stop offset="1" stop-color="#0D67F9"/>
</linearGradient>
</defs>
</svg>
