<svg width="43" height="44" viewBox="0 0 43 44" fill="none" xmlns="http://www.w3.org/2000/svg">
<path d="M17.541 16.4931C17.541 17.9187 16.4482 18.8406 14.7527 18.8406C13.2327 18.8406 12.0769 18.0941 11.6766 16.8483L11.6406 16.7359L12.4321 16.2727L12.4861 16.4526C12.7604 17.415 13.5879 17.9637 14.7527 17.9637C15.9085 17.9637 16.6281 17.4015 16.6281 16.5021C16.6281 15.6206 15.7736 15.2743 14.6538 14.9235L14.6178 14.91C13.2731 14.4738 12.0049 14.06 12.0049 12.5669C12.0049 11.5686 12.5806 10.7905 13.489 10.4487V11.4426C13.1292 11.6855 12.9179 12.0722 12.9179 12.54C12.9179 13.3854 13.6239 13.6643 14.7797 14.0421C16.1379 14.4963 17.541 14.9595 17.541 16.4931Z" fill="#0D67F9"/>
<path d="M14.5898 11.1411V10.2642C15.8221 10.2687 16.834 10.9298 17.3017 12.0406L17.3512 12.162L16.5776 12.5937L16.5147 12.4408C16.2673 11.8472 15.7366 11.1411 14.5898 11.1411Z" fill="#0D67F9"/>
<path d="M14.5625 15.7959V20.1043" stroke="#0D67F9" stroke-width="1.7754" stroke-miterlimit="10" stroke-linecap="round"/>
<path d="M14.5625 9.70654V14.4557" stroke="#0D67F9" stroke-width="1.7754" stroke-miterlimit="10" stroke-linecap="round"/>
<path d="M41.0586 32.6832L38.3692 30.9922L31.1421 41.3584L33.1839 42.9999" stroke="#0D67F9" stroke-width="2" stroke-miterlimit="10" stroke-linecap="round"/>
<path d="M37.4766 32.2649L31.783 28.4378C30.5103 27.5833 28.9227 27.3359 27.4521 27.7587L15.4264 31.2441C14.1177 31.6218 13.3802 33.0115 13.7984 34.3112C14.1897 35.521 15.4489 36.2181 16.6812 35.9122L23.598 34.1943" stroke="#0D67F9" stroke-width="2" stroke-miterlimit="10" stroke-linecap="round"/>
<path d="M13.6853 33.6007L5.16747 28.0556C3.92173 27.2415 2.24874 27.6508 1.51119 28.9415C0.850086 30.1018 1.18289 31.5769 2.28022 32.3415L15.075 41.2326C15.9294 41.8262 17.0043 42.0106 18.0117 41.7363L28.7961 38.7681C29.3718 38.6107 29.9879 38.7456 30.4421 39.1278L31.8633 40.3241" stroke="#0D67F9" stroke-width="2" stroke-miterlimit="10" stroke-linecap="round"/>
<path d="M21.1553 21.7279C19.5048 23.239 17.3101 24.161 14.8951 24.161C9.77718 24.161 5.62619 20.01 5.62619 14.8921C5.62619 9.77418 9.77718 5.6232 14.8951 5.6232C20.013 5.6232 24.164 9.77418 24.164 14.8921H20.2108L25.9943 23.6977L31.8633 14.8921H28.7871C28.7871 7.21973 22.5674 1 14.8951 1C7.22273 1 1.003 7.21973 1.003 14.8921C1.003 14.991 1.003 15.09 1.0075 15.1889" stroke="#0D67F9" stroke-opacity="0.5" stroke-width="2" stroke-miterlimit="10" stroke-linecap="round"/>
<path d="M1 17.0508V18.0492" stroke="#0D67F9" stroke-opacity="0.5" stroke-width="2" stroke-miterlimit="10" stroke-linecap="round"/>
<path d="M1 20.2661V21.2645" stroke="#0D67F9" stroke-opacity="0.5" stroke-width="2" stroke-miterlimit="10" stroke-linecap="round"/>
</svg>
