<svg width="39" height="39" viewBox="0 0 39 39" fill="none" xmlns="http://www.w3.org/2000/svg">
<path d="M29.8239 34.6276C26.877 36.6461 23.2841 37.8572 19.4086 37.8572C9.23558 37.8572 1.00025 29.5815 1.00025 19.4084C1.00025 9.23534 9.23559 0.999999 19.4087 0.999999C29.5817 1 37.8574 9.23534 37.8574 19.4084" stroke="#0D67F9" stroke-opacity="0.5" stroke-width="2" stroke-miterlimit="10" stroke-linecap="round"/>
<path d="M18.0566 19.3589L27.7758 31.3635L29.1172 26.4291L34.8124 29.0619L36.4545 25.0422L30.6531 22.5914L33.8646 18.2935L18.0566 19.3589Z" stroke="#0D67F9" stroke-width="1.6" stroke-miterlimit="10" stroke-linecap="round"/>
<path d="M19.9171 15.5796L20.9027 13.5398" stroke="#0D67F9" stroke-width="1.05091" stroke-miterlimit="10" stroke-linecap="round"/>
<path d="M16.9744 15.9941L16.1074 13.7349" stroke="#0D67F9" stroke-width="1.05091" stroke-miterlimit="10" stroke-linecap="round"/>
<path d="M14.5037 17.8398L12.2578 16.8574" stroke="#0D67F9" stroke-width="1.05091" stroke-miterlimit="10" stroke-linecap="round"/>
<path d="M14.7172 20.8235L12.6426 21.6196" stroke="#0D67F9" stroke-width="1.05091" stroke-miterlimit="10" stroke-linecap="round"/>
<path d="M16.5973 23.2832L15.6778 25.1895" stroke="#0D67F9" stroke-width="1.05091" stroke-miterlimit="10" stroke-linecap="round"/>
</svg>
