<svg width="39" height="39" viewBox="0 0 39 39" fill="none" xmlns="http://www.w3.org/2000/svg">
<rect x="9.03516" y="9.00391" width="20.6401" height="20.6401" rx="3" stroke="#0D67F9" stroke-width="2" stroke-linejoin="round"/>
<path d="M12.7734 1V5.21752" stroke="#0D67F9" stroke-width="2" stroke-linecap="round" stroke-linejoin="round"/>
<path d="M17.1621 1V5.21752" stroke="#0D67F9" stroke-width="2" stroke-linecap="round" stroke-linejoin="round"/>
<path d="M21.5488 1V5.21752" stroke="#0D67F9" stroke-width="2" stroke-linecap="round" stroke-linejoin="round"/>
<path d="M25.9375 1V5.21752" stroke="#0D67F9" stroke-width="2" stroke-linecap="round" stroke-linejoin="round"/>
<path d="M12.7734 33.4302V37.6477" stroke="#0D67F9" stroke-width="2" stroke-linecap="round" stroke-linejoin="round"/>
<path d="M17.1621 33.4302V37.6477" stroke="#0D67F9" stroke-width="2" stroke-linecap="round" stroke-linejoin="round"/>
<path d="M21.5488 33.4302V37.6477" stroke="#0D67F9" stroke-width="2" stroke-linecap="round" stroke-linejoin="round"/>
<path d="M25.9375 33.4302V37.6477" stroke="#0D67F9" stroke-width="2" stroke-linecap="round" stroke-linejoin="round"/>
<path d="M37.7109 12.7422L33.4934 12.7422" stroke="#0D67F9" stroke-width="2" stroke-linecap="round" stroke-linejoin="round"/>
<path d="M37.7109 17.1299L33.4934 17.1299" stroke="#0D67F9" stroke-width="2" stroke-linecap="round" stroke-linejoin="round"/>
<path d="M37.7109 21.5181L33.4934 21.5181" stroke="#0D67F9" stroke-width="2" stroke-linecap="round" stroke-linejoin="round"/>
<path d="M37.7109 25.9062L33.4934 25.9062" stroke="#0D67F9" stroke-width="2" stroke-linecap="round" stroke-linejoin="round"/>
<path d="M5.2168 12.7422L0.999278 12.7422" stroke="#0D67F9" stroke-width="2" stroke-linecap="round" stroke-linejoin="round"/>
<path d="M5.2168 17.1299L0.999278 17.1299" stroke="#0D67F9" stroke-width="2" stroke-linecap="round" stroke-linejoin="round"/>
<path d="M5.2168 21.5181L0.999278 21.5181" stroke="#0D67F9" stroke-width="2" stroke-linecap="round" stroke-linejoin="round"/>
<path d="M5.2168 25.9062L0.999278 25.9062" stroke="#0D67F9" stroke-width="2" stroke-linecap="round" stroke-linejoin="round"/>
</svg>
