<svg id="Layer_1" data-name="Layer 1" xmlns="http://www.w3.org/2000/svg" viewBox="0 0 120.64 22.8"><defs><style>.cls-1{fill:#f15a2a;}.cls-2{fill:#7a7a7a;}.cls-3{fill:#fefefe;}</style></defs><path class="cls-1" d="M1,20.6l9.4,8.2,1.4-4.5,9.3,9.6a.76.76,0,0,1-.4-.2l-2.9-1.4-1.3-.5h-.2c-.5.3-1.1.6-1.6.9a11.22,11.22,0,0,1-2.6.8,10.45,10.45,0,0,1-2.5,0,12.32,12.32,0,0,1-2.9-.7,9.26,9.26,0,0,1-3.6-2.6,8.23,8.23,0,0,1-2-4.2,7.53,7.53,0,0,1-.4-3A4.84,4.84,0,0,1,1,20.6Z" transform="translate(-0.66 -11.1)"/><path class="cls-1" d="M18.5,29.6l-8.6-14L9,19.3,1.3,11.1l.7.4L4.5,13l2.1,1.4h.2a11,11,0,0,1,2.6-.6,8.3,8.3,0,0,1,3.5.2,10.88,10.88,0,0,1,4.2,2,8.27,8.27,0,0,1,2.6,3.5,9.94,9.94,0,0,1,.4,7A7.45,7.45,0,0,1,18.8,29,1.55,1.55,0,0,1,18.5,29.6Z" transform="translate(-0.66 -11.1)"/><path class="cls-1" d="M107.8,28.8h-11c-.3,0-.3-.1-.3-.4.4-2.1.8-4.3,1.4-6.5.2-1.1.4-2.1.6-3.2,0-.3.1-.3.4-.3H121c.3,0,.3.1.3.3-.6,3.3-1.3,6.4-1.9,9.7,0,.3-.1.3-.4.3Zm4.4-1.6c0-.1,0-.1-.1-.2-.7-2-1.5-3.9-2.2-5.9-.3-.7-.3-.7-1.1-.7-.2,0-.4.1-.4.3-.5,1.5-1.2,3.1-1.7,4.5A13.36,13.36,0,0,1,106,27c0,.1-.1.2,0,.2h1.1c.1,0,.1-.1.1-.2.1-.3.3-.7.4-1.1a.32.32,0,0,1,.3-.3H110a.27.27,0,0,1,.3.3,9.68,9.68,0,0,0,.3,1.1.22.22,0,0,0,.2.2Zm-11-3.4v2.6c0,.9,0,.9.9.9a.27.27,0,0,0,.3-.3V25.1c0-.3.1-.4.3-.4h1.6a2.07,2.07,0,0,0,2-2,2,2,0,0,0-1.9-2.2c-.9-.1-2,0-2.9-.1a.27.27,0,0,0-.3.3Zm13.3-.2a16.65,16.65,0,0,0-1.2-2.3c-.4-.9-.4-.9-1.4-.9-.3,0-.3,0-.2.3.5.9,1.1,1.9,1.5,2.8a4.38,4.38,0,0,1,.6,2.3v.5c0,.9,0,.9.9.9a.27.27,0,0,0,.3-.3v-2a.6.6,0,0,1,.1-.4l2-3.9c.1-.2.1-.2-.2-.3a1.16,1.16,0,0,0-1.4.6c0,.1-.1.2-.1.3s-.1.2-.1.3Z" transform="translate(-0.66 -11.1)"/><path class="cls-2" d="M83.5,28.4H80.4c-.2,0-.2-.1-.2-.3-.3-1.1-.8-2.1-1.2-3.2,0-.2-.2-.3-.4-.3-.6,0-.6,0-.6.6v2.7a.27.27,0,0,1-.3.3H75.3c-.2,0-.3,0-.3-.2V18.7a.27.27,0,0,1,.3-.3h5.8A4.07,4.07,0,0,1,83,19.7a2.49,2.49,0,0,1,0,3.7,4.23,4.23,0,0,1-.7.5c-.3.1-.3.3-.2.5.5,1.2,1.1,2.3,1.6,3.6v.4Zm-5.8-6.8v.7c0,.2.1.2.3.2h1.3a1.33,1.33,0,0,0,1.1-.8,1,1,0,0,0-.9-1.1H78.1a.27.27,0,0,0-.3.3A1.48,1.48,0,0,0,77.7,21.6Z" transform="translate(-0.66 -11.1)"/><path class="cls-2" d="M51,22.2v5.9c0,.2,0,.3-.3.3H48.9c-.3,0-.3-.1-.3-.3V19c0-.2,0-.2.2-.2h2.4c.1,0,.3.1.3.2.9,1.6,1.8,3.3,2.7,4.8,0,.1.1.1.2.3v-5a.52.52,0,0,1,.2-.4c.7-.6,1.5-1.4,2.2-2.1V28.4c0,.3-.1.3-.3.3H54.7c-.2,0-.4-.1-.4-.3-1.1-1.9-2-3.7-3.1-5.6C51.2,22.4,51.1,22.3,51,22.2Z" transform="translate(-0.66 -11.1)"/><path class="cls-2" d="M31,23.4V18.8c0-.3.1-.3.3-.3h2.2a.27.27,0,0,1,.3.3V22c0,.2,0,.3.3.3H36c.3,0,.3-.1.3-.3V19.1c0-.2,0-.3.3-.3H39a.27.27,0,0,1,.3.3v9.2c0,.2,0,.2-.2.2H36.6c-.2,0-.3-.1-.2-.3V24.9c0-.2,0-.3-.3-.3H34.4a.27.27,0,0,0-.3.3v3.2c0,.3-.1.4-.4.4H31.5c-.3,0-.3,0-.3-.3A38.54,38.54,0,0,1,31,23.4Z" transform="translate(-0.66 -11.1)"/><path class="cls-2" d="M57.8,23.4V18.9a.27.27,0,0,1,.3-.3h4.1a4,4,0,0,1,1.8.7,5,5,0,0,1,1.5,7c-.1.1-.2.2-.2.3A5.33,5.33,0,0,1,63,28.2c-.1,0-.3.1-.4.1H58.2a.27.27,0,0,1-.3-.3C57.8,26.5,57.8,24.9,57.8,23.4Zm2.8,0v2.4a.37.37,0,0,0,.1.3,1.68,1.68,0,0,0,1.9-.9,4.75,4.75,0,0,0,0-3.7,1,1,0,0,0-1.3-.6h-.5c-.2,0-.3,0-.3.3A16.2,16.2,0,0,1,60.6,23.4Z" transform="translate(-0.66 -11.1)"/><path class="cls-2" d="M67,23.4V18.8c0-.3.1-.3.3-.3H74a.27.27,0,0,1,.3.3v1.6c0,.3,0,.4-.3.4H70.2c-.3,0-.3.1-.3.3v.8a.27.27,0,0,0,.3.3h2.9c.3,0,.3.1.3.3v1.6a.27.27,0,0,1-.3.3H70.2c-.3,0-.3.1-.3.3v.8c0,.3,0,.4.3.4H74c.2,0,.3,0,.3.3v1.9c0,.2,0,.2-.2.2H67.3c-.2,0-.2-.1-.2-.3C67,26.6,67,25,67,23.4Z" transform="translate(-0.66 -11.1)"/><path class="cls-2" d="M48,22.4v3.2a2.66,2.66,0,0,1-.9,2,3.78,3.78,0,0,1-2.3.8,7.19,7.19,0,0,1-2.9-.3,5.51,5.51,0,0,1-1.4-.9,2.17,2.17,0,0,1-.5-1.4V19.1a.27.27,0,0,1,.3-.3h2.2c.3,0,.3.1.3.3v6.1a.83.83,0,0,0,.3.8,1.59,1.59,0,0,0,1.2.4,3,3,0,0,0,1.1-.6.37.37,0,0,0,.1-.3V19.2c0-.3.1-.4.4-.4h1.7c.3,0,.3.1.3.3C48,20.1,48,21.2,48,22.4Z" transform="translate(-0.66 -11.1)"/><path class="cls-2" d="M84.1,18.6h3.5c.1,0,.3.1.3.2l3.2,4.5a.3.3,0,0,1,0,.4l-3.4,4.6c-.1.1-.2.2-.3.2l-5.2,2.3h-.1l.9-1.3c1.4-1.9,2.8-3.9,4.2-5.8.1-.1.2-.4,0-.5-1.1-1.5-2.1-2.9-3.2-4.4v-.2Z" transform="translate(-0.66 -11.1)"/><path class="cls-2" d="M25.7,30.8V21.2c0-.3-.1-.3-.3-.3H23.9c-.2,0-.3-.1-.2-.2V18.8c0-.2.1-.2.2-.2h6.4c.2,0,.2.1.2.2v1.9c0,.2,0,.2-.2.2H28.8c-.3,0-.3.1-.3.3V28a.76.76,0,0,1-.2.5L26,30.9C25.8,30.8,25.8,30.9,25.7,30.8Z" transform="translate(-0.66 -11.1)"/><path class="cls-2" d="M91.6,22.7l-1.8-2.4c-.1-.1,0-.2,0-.3l1.1-1.4.2-.2,5.2-2.3h.1Z" transform="translate(-0.66 -11.1)"/><path class="cls-2" d="M91.6,24l2.9,4.2a.37.37,0,0,1-.3.1H91.1c-.1.1-.3,0-.4-.1a14.63,14.63,0,0,1-.9-1.3.3.3,0,0,1,0-.4A19.5,19.5,0,0,0,91.6,24Z" transform="translate(-0.66 -11.1)"/><path class="cls-3" d="M112.2,27.2h-1.1c-.2,0-.2-.1-.2-.2-.1-.3-.2-.7-.3-1.1s-.1-.3-.3-.3h-2.1a.27.27,0,0,0-.3.3,7.6,7.6,0,0,1-.4,1.1c0,.1,0,.2-.1.2h-1.1c-.2,0,0-.2,0-.2a13.36,13.36,0,0,1,.7-1.8c.5-1.5,1.2-3.1,1.7-4.5,0-.2.2-.3.4-.3.7,0,.7,0,1.1.7.7,2,1.5,3.9,2.2,5.9C112.1,27,112.1,27.1,112.2,27.2ZM109,22c-.3.8-.6,1.7-.9,2.5-.1.2,0,.2.2.2h1.5c.2,0,.2,0,.2-.2C109.6,23.6,109.3,22.8,109,22Z" transform="translate(-0.66 -11.1)"/><path class="cls-3" d="M101.2,23.8V20.7a.27.27,0,0,1,.3-.3,14.08,14.08,0,0,1,2.9.1,2.25,2.25,0,0,1,1.9,2.2,1.94,1.94,0,0,1-2,2h-1.6c-.3,0-.3.1-.3.4V27c0,.2,0,.3-.3.3-.9,0-.9,0-.9-.9Zm1.2-1.3v.9c0,.1,0,.2.2.2h1.5a1,1,0,0,0,1.1-1.1v-.1c0-.6-.4-1.2-.9-1.2h-1.5c-.2,0-.2.1-.2.3A4.4,4.4,0,0,0,102.4,22.5Z" transform="translate(-0.66 -11.1)"/><path class="cls-3" d="M114.5,23.6l1.1-2.1c0-.1.1-.2.1-.3a.91.91,0,0,1,1.2-.9.37.37,0,0,1,.3.1c.3.1.3.1.2.3l-2,3.9a.6.6,0,0,0-.1.4v2a.27.27,0,0,1-.3.3c-.9,0-.9,0-.9-.9v-.5a3.22,3.22,0,0,0-.6-2.3c-.5-.9-1.1-1.9-1.5-2.8-.2-.3-.2-.3.2-.3,1.1,0,.9,0,1.4.9A6.38,6.38,0,0,0,114.5,23.6Z" transform="translate(-0.66 -11.1)"/><path class="cls-1" d="M109,22a24.13,24.13,0,0,1,.8,2.5c.1.2,0,.2-.2.2h-1.5c-.1,0-.2,0-.2-.2A24.15,24.15,0,0,0,109,22Z" transform="translate(-0.66 -11.1)"/><path class="cls-1" d="M102.4,22.5v-.9c0-.3,0-.3.2-.3h1.5a1,1,0,0,1,.9,1.2,1.2,1.2,0,0,1-.9,1.2h-1.6c-.2,0-.2-.1-.2-.2Z" transform="translate(-0.66 -11.1)"/></svg>