<svg id="Layer_1" data-name="Layer 1" xmlns="http://www.w3.org/2000/svg" xmlns:xlink="http://www.w3.org/1999/xlink" viewBox="0 0 117.1 44.6"><defs><style>.cls-1{fill:url(#linear-gradient);}.cls-2{fill:#fff;}.cls-3{fill:#345d9d;}.cls-4{fill:#53ae94;}.cls-5{fill:#dde1ef;}.cls-6,.cls-7{fill:#062652;}.cls-6{fill-opacity:0.7;}</style><linearGradient id="linear-gradient" x1="306.01" y1="393.37" x2="310.28" y2="373.39" gradientTransform="translate(-283.5 -372.66)" gradientUnits="userSpaceOnUse"><stop offset="0" stop-color="#f28c10"/><stop offset="1" stop-color="#ffb55c"/></linearGradient></defs><path class="cls-1" d="M14.1,10.7A10.55,10.55,0,1,1,24.6,21.2,10.5,10.5,0,0,1,14.1,10.7Z" transform="translate(-2.4 -0.2)"/><path class="cls-2" d="M21.6,16.6c.1-.5.2-.9.3-1.4,0-.1,0-.1-.1-.2-.9-.2-1.7-.4-2.5-.6-.2,0-.2,0-.1-.2a4.25,4.25,0,0,0,.2-1.1c0-.1,0-.1.2-.1s.4.1.6.1a.46.46,0,0,0,.5-.3c0-.2.1-.3.1-.5.4-1.7.7-3.4,1.1-5a.9.9,0,0,1,.1-.5.55.55,0,0,0-.3-.5c-.2-.1-.4-.1-.6-.2S21,6.1,21,6a4.25,4.25,0,0,0,.2-1.1c0-.1.1-.1.2-.1.9.2,1.7.4,2.5.6.2,0,.2,0,.2-.1.1-.4.2-.9.3-1.3,0-.1,0-.1.2-.1a4.25,4.25,0,0,0,1.1.2c.1,0,.1.1.1.2-.1.5-.2.9-.3,1.3,0,.1,0,.1.1.2s.4.1.6.1.1,0,.2-.1c.1-.4.2-.8.3-1.3,0-.2,0-.2.2-.1a4.4,4.4,0,0,0,1,.2c.2,0,.2,0,.1.2-.1.5-.2.9-.3,1.4,0,.1,0,.1.1.2a2.7,2.7,0,0,1,1.5,1.1,2,2,0,0,1,.4.8,2,2,0,0,1-.5,1.8,2.13,2.13,0,0,1-1.2.7,1.09,1.09,0,0,0-.5.1c.2.1.3.2.5.2a3,3,0,0,1,.8.8,2.23,2.23,0,0,1,.3,1.4,2.63,2.63,0,0,1-1.4,2.1,2.89,2.89,0,0,1-1.8.3c-.1,0-.2,0-.2.1l-.3,1.5L24,17v-.1c.1-.4.2-.9.3-1.3,0-.1,0-.1-.1-.2s-.3-.1-.5-.1-.2-.1-.2.1c-.1.5-.2.9-.3,1.4A7,7,0,0,1,21.6,16.6Zm1.7-4.4a3.09,3.09,0,0,1-.2.8c0,.2-.1.3-.1.5s0,.2.2.2a4.25,4.25,0,0,0,1.1.2c.3,0,.6.1.9.1a1.34,1.34,0,0,0,1.2-1.8,1.12,1.12,0,0,0-.8-.7,6.37,6.37,0,0,0-.7-.2L23.5,11h-.1A2.46,2.46,0,0,1,23.3,12.2Zm.9-3.8a3.55,3.55,0,0,0-.2,1c0,.1,0,.1.1.2a1.85,1.85,0,0,1,.7.2A5,5,0,0,0,26,10a1.13,1.13,0,0,0,1.2-.7A1,1,0,0,0,26.8,8a1.61,1.61,0,0,0-.9-.3c-.5-.1-.9-.2-1.3-.3-.1,0-.1,0-.2.1A2.39,2.39,0,0,0,24.2,8.4Z" transform="translate(-2.4 -0.2)"/><path class="cls-3" d="M36.5,32.3A10.4,10.4,0,1,0,26,21.8,10.41,10.41,0,0,0,36.5,32.3Z" transform="translate(-2.4 -0.2)"/><path class="cls-2" d="M32.1,23.8h0c.1-.5.2-.9.3-1.3a.1.1,0,0,1,.1-.1,6.12,6.12,0,0,0,1.2-.5.1.1,0,0,0,.1-.1c.5-1.7,1.5-5.8,1.5-5.8h3.4s-.7,2.8-1.1,4.2a.37.37,0,0,1-.1.3A8.8,8.8,0,0,1,39,20v.1l-.3,1.2a.1.1,0,0,1-.1.1c-.5.2-.9.3-1.4.5-.1,0-.1,0-.1.1l-.6,2.4a4.33,4.33,0,0,0-.1.5h5.7V25c-.2.6-.3,1.3-.5,1.9h-9s.5-2,.8-3a1.42,1.42,0,0,1,.2-.6A5.27,5.27,0,0,0,32.1,23.8Z" transform="translate(-2.4 -0.2)"/><path class="cls-4" d="M2.4,21.9a10.6,10.6,0,0,1,21.2,0A10.52,10.52,0,0,1,13,32.4,10.46,10.46,0,0,1,2.4,21.9Z" transform="translate(-2.4 -0.2)"/><path class="cls-2" d="M11.9,20.7V19.4h-3v-2h8.2v2h-3v1.3c2.5.1,4.3.6,4.3,1.2s-1.8,1.1-4.3,1.2v4.2H11.9V23c-2.5-.1-4.3-.6-4.3-1.2S9.4,20.8,11.9,20.7Zm0,2h2.2c2.2-.1,3.8-.5,3.8-.9s-1.6-.8-3.8-.9v1.5H11.9V20.9c-2.2.1-3.8.5-3.8.9S9.7,22.6,11.9,22.7Z" transform="translate(-2.4 -0.2)"/><path class="cls-5" d="M14.1,34.3A10.55,10.55,0,1,1,24.6,44.8,10.52,10.52,0,0,1,14.1,34.3Z" transform="translate(-2.4 -0.2)"/><path class="cls-6" d="M30.8,35.5l-6.2,2.3-6.2-2.3L24.6,25Z" transform="translate(-2.4 -0.2)"/><path class="cls-6" d="M30.6,36.7l-5.9,6.9-5.9-6.9,5.9,2.2Z" transform="translate(-2.4 -0.2)"/><path class="cls-7" d="M24.6,38.9l5.9-2.1-5.9,6.9V38.9Z" transform="translate(-2.4 -0.2)"/><path class="cls-7" d="M30.8,35.5l-6.2,2.3V25Z" transform="translate(-2.4 -0.2)"/><path d="M56,22.7a6.81,6.81,0,0,1,.8-3.1,5.3,5.3,0,0,1,2.1-2.1,6.11,6.11,0,0,1,3-.8,5.82,5.82,0,0,1,3.3.9,6.07,6.07,0,0,1,2.1,2.6H65.5a3.64,3.64,0,0,0-1.4-1.6,3.8,3.8,0,0,0-2.2-.6,4.28,4.28,0,0,0-2.2.6,4.63,4.63,0,0,0-1.5,1.6,4.71,4.71,0,0,0-.5,2.4,6,6,0,0,0,.5,2.4,4.63,4.63,0,0,0,1.5,1.6,4,4,0,0,0,2.2.6,5.09,5.09,0,0,0,2.2-.5,3.64,3.64,0,0,0,1.4-1.6h1.8a4.91,4.91,0,0,1-2.1,2.6,6,6,0,0,1-3.3.9,5.21,5.21,0,0,1-3-.8,5.3,5.3,0,0,1-2.1-2.1A6.11,6.11,0,0,1,56,22.7Z" transform="translate(-2.4 -0.2)"/><path d="M70.9,20.8A3.18,3.18,0,0,1,72,19.6a3.42,3.42,0,0,1,1.8-.4v1.6h-.4c-1.7,0-2.5.9-2.5,2.8v5H69.4V19.5h1.5Z" transform="translate(-2.4 -0.2)"/><path d="M83.5,19.3,78,32.8H76.4l1.8-4.4-3.7-9h1.7l2.9,7.4,2.8-7.4h1.6Z" transform="translate(-2.4 -0.2)"/><path d="M86.5,21a3.25,3.25,0,0,1,1.3-1.3,3.64,3.64,0,0,1,2.1-.5,4.28,4.28,0,0,1,2.2.6,4.1,4.1,0,0,1,1.6,1.6,4.87,4.87,0,0,1,.6,2.5,5.42,5.42,0,0,1-.6,2.5,4.36,4.36,0,0,1-1.6,1.7,4.28,4.28,0,0,1-2.2.6,4.65,4.65,0,0,1-2.1-.5,4,4,0,0,1-1.3-1.3v6H85V19.3h1.5Zm6.2,2.9a3.42,3.42,0,0,0-.4-1.8,4.26,4.26,0,0,0-1.1-1.2,2.93,2.93,0,0,0-1.6-.4,2.41,2.41,0,0,0-1.5.4A3.18,3.18,0,0,0,87,22.1a3.42,3.42,0,0,0-.4,1.8,3.42,3.42,0,0,0,.4,1.8,4.26,4.26,0,0,0,1.1,1.2,2.82,2.82,0,0,0,1.5.4,2.93,2.93,0,0,0,1.6-.4,2.54,2.54,0,0,0,1.1-1.2A3.42,3.42,0,0,0,92.7,23.9Z" transform="translate(-2.4 -0.2)"/><path d="M98.1,20.6V26a1.49,1.49,0,0,0,.3,1,1.33,1.33,0,0,0,1,.3h1.1v1.3H99.1a2.71,2.71,0,0,1-1.9-.6,2.55,2.55,0,0,1-.6-1.9V20.7H95.4V19.5h1.2V17h1.5v2.3h2.4v1.2H98.1Z" transform="translate(-2.4 -0.2)"/><path d="M106.3,28.6A4.38,4.38,0,0,1,104,28a4.1,4.1,0,0,1-1.6-1.6,5.51,5.51,0,0,1,0-5,3.75,3.75,0,0,1,1.7-1.6,4.75,4.75,0,0,1,2.4-.6,4.38,4.38,0,0,1,2.3.6,5.17,5.17,0,0,1,1.7,1.6,4.87,4.87,0,0,1,.6,2.5,5.14,5.14,0,0,1-.6,2.5,3.75,3.75,0,0,1-1.7,1.6A5.42,5.42,0,0,1,106.3,28.6Zm0-1.3a2.6,2.6,0,0,0,1.5-.4,2.35,2.35,0,0,0,1.1-1.1,3.58,3.58,0,0,0,.4-1.9,3.81,3.81,0,0,0-.4-1.9,2.89,2.89,0,0,0-1.1-1.1,2.82,2.82,0,0,0-1.5-.4,2.41,2.41,0,0,0-1.5.4,2.35,2.35,0,0,0-1.1,1.1,3.58,3.58,0,0,0-.4,1.9,3.81,3.81,0,0,0,.4,1.9,2.35,2.35,0,0,0,1.1,1.1A2.82,2.82,0,0,0,106.3,27.3Z" transform="translate(-2.4 -0.2)"/><path d="M116.2,28.6a4.06,4.06,0,0,1-1.9-.4,2.68,2.68,0,0,1-1.3-1,2.46,2.46,0,0,1-.5-1.5h1.6a1.52,1.52,0,0,0,.6,1.1,2.41,2.41,0,0,0,1.5.4,2.12,2.12,0,0,0,1.4-.4,1.39,1.39,0,0,0,.5-1,1.05,1.05,0,0,0-.5-.9,8,8,0,0,0-1.7-.6c-.7-.2-1.2-.4-1.7-.5a4.44,4.44,0,0,1-1.1-.8,2.17,2.17,0,0,1-.5-1.4,2,2,0,0,1,.4-1.3,2.73,2.73,0,0,1,1.2-.9,4.84,4.84,0,0,1,1.8-.3,3.65,3.65,0,0,1,2.4.8,2.66,2.66,0,0,1,1,2.1H118a1.15,1.15,0,0,0-.6-1.1,2,2,0,0,0-1.4-.4,1.84,1.84,0,0,0-1.3.4,1.05,1.05,0,0,0-.5.9,1.33,1.33,0,0,0,.3.8,4.23,4.23,0,0,0,.7.5c.3.1.7.2,1.2.4.7.2,1.2.4,1.6.5a2.53,2.53,0,0,1,1.5,2.2,2.3,2.3,0,0,1-.4,1.4,2.73,2.73,0,0,1-1.2.9C117.5,28.5,116.9,28.6,116.2,28.6Z" transform="translate(-2.4 -0.2)"/></svg>