<svg id="Layer_1" data-name="Layer 1" xmlns="http://www.w3.org/2000/svg" xmlns:xlink="http://www.w3.org/1999/xlink" viewBox="0 0 113.6 28"><defs><style>.cls-1{fill:#215aff;}.cls-2{fill:url(#linear-gradient);}</style><linearGradient id="linear-gradient" x1="349.1" y1="382.96" x2="366.42" y2="382.96" gradientTransform="translate(-283.5 -372.66)" gradientUnits="userSpaceOnUse"><stop offset="0" stop-color="#215aff"/><stop offset="0.2" stop-color="#215aff"/><stop offset="0.73" stop-color="#215aff" stop-opacity="0"/></linearGradient></defs><path class="cls-1" d="M7.8,12.7v3.5H4.2V12.5H7.7V9h.2c2.3,0,4.7-.1,7.1.1a7.32,7.32,0,0,1,6.1,6.3,7.12,7.12,0,0,1-5.8,8,14.15,14.15,0,0,1-2.9.2h-4v6.9H4.2V19.8h9.3A3.59,3.59,0,0,0,16.9,15a3.08,3.08,0,0,0-2.7-2.3C12.1,12.6,10,12.7,7.8,12.7ZM32,20.6a43.49,43.49,0,0,0-5.1.2c-2.7.3-4.2,1.8-4.4,4.4a4.35,4.35,0,0,0,1.9,4.3,7.39,7.39,0,0,0,8.4-.3,2.76,2.76,0,0,1,.8-.6v1.8h3.7c0-.2.1-.3.1-.4V19.5a3.48,3.48,0,0,0-1.1-2.7,8,8,0,0,0-2.1-1.5,9.42,9.42,0,0,0-5.5-.8,7.15,7.15,0,0,0-4.5,2.2,3.91,3.91,0,0,0-1.1,2.9h3.7a2.77,2.77,0,0,1,1.8-1.7,6.16,6.16,0,0,1,3.3,0c1.4.4,1.9,1.2,1.7,2.9A4.68,4.68,0,0,0,32,20.6Zm.8,4.8A5.45,5.45,0,0,1,28,27.2a1.71,1.71,0,0,1-1.5-1.3,1.69,1.69,0,0,1,.9-2,8.8,8.8,0,0,1,1.5-.5h4.6A2.58,2.58,0,0,1,32.8,25.4Zm85-2.3a20.9,20.9,0,0,0-.1-2.5A8.22,8.22,0,1,0,102.9,27c3.6,5.2,10.5,4.1,13.5.6a12.49,12.49,0,0,0,.8-1.2c-1.2-.3-2.3-.6-3.4-.9a5.62,5.62,0,0,1-6,1.3,3.69,3.69,0,0,1-2.3-2.9h12.3Zm-7.9-5.5a3.91,3.91,0,0,1,3.9,3.1h-8.3A4.31,4.31,0,0,1,109.9,17.6ZM47.1,25.4c-1.4-3.7-2.9-7.3-4.3-11H38.7l.3.9c2,4.7,3.9,9.5,5.9,14.2a1.48,1.48,0,0,1,0,1.3c-.7,1.6-1.3,3.3-2,4.9a6.89,6.89,0,0,0-.3.8h4c2.9-7.3,5.8-14.7,8.8-22.1H51.2c-1.4,3.7-2.7,7.3-4.1,11Zm41.4-11H84.3c-1.3,4.4-2.6,8.7-3.9,13h-.1c-1.3-4.4-2.6-8.7-3.9-13H72.2c1.7,5.3,3.3,10.6,5,15.8h6.4C85.2,25,86.8,19.7,88.5,14.4Zm6.4,15.8v-8a3.86,3.86,0,0,1,4.1-4,11,11,0,0,1,1.8.2V14.3A5.67,5.67,0,0,0,95,16.4l-.1-.1V14.4H91V30.2ZM61.6,9.4H57.8V30.3h3.8Zm4,20.8h3.9V14.4H65.6Z" transform="translate(-4.2 -8.5)"/><path class="cls-2" d="M65.6,12.1V8.5H82.9v3.6Z" transform="translate(-4.2 -8.5)"/></svg>