<svg id="Layer_1" data-name="Layer 1" xmlns="http://www.w3.org/2000/svg" xmlns:xlink="http://www.w3.org/1999/xlink" viewBox="0 0 997.4 244.9"><defs><style>.cls-1{fill:url(#linear-gradient);}.cls-2{fill:#f5a924;}.cls-3{fill:#f5a823;}.cls-4{fill:url(#linear-gradient-2);}.cls-5{fill:#215aff;}.cls-6{fill:url(#linear-gradient-3);}.cls-7{fill:url(#linear-gradient-4);}.cls-8{fill:#54a4e9;}.cls-9{fill:#3e3e3e;}.cls-10{fill:url(#linear-gradient-5);}.cls-11{fill:#0081c7;}.cls-12{fill:#1ab9e9;}.cls-13{fill:#0e9347;}.cls-14{fill:#3bb54a;}.cls-15{fill:#89c763;}.cls-16{fill:#eab633;}.cls-17{fill:#ffbeaa;}.cls-18{fill:url(#linear-gradient-6);}.cls-19{fill:url(#linear-gradient-7);}.cls-20{fill:#f01010;}.cls-21{fill:url(#linear-gradient-8);}.cls-22{fill:#fff;}.cls-23{fill:#345d9d;}.cls-24{fill:#53ae94;}.cls-25{fill:#dde1ef;}.cls-26,.cls-27{fill:#062652;}.cls-26{fill-opacity:0.7;}.cls-28{fill:url(#linear-gradient-9);}.cls-29{fill:#f15a2a;}.cls-30{fill:#7a7a7a;}.cls-31{fill:#fefefe;}.cls-32{fill:url(#linear-gradient-10);}.cls-33{fill:#f29e24;}.cls-34{stroke:#dde1ef;stroke-width:0.24px;fill:url(#linear-gradient-11);}</style><linearGradient id="linear-gradient" x1="403.8" y1="-160.68" x2="403.8" y2="-91.6" gradientTransform="translate(-283.5 253.38)" gradientUnits="userSpaceOnUse"><stop offset="0.21" stop-color="#fff"/><stop offset="1" stop-color="#fff" stop-opacity="0"/></linearGradient><linearGradient id="linear-gradient-2" x1="656.1" y1="-160.68" x2="656.1" y2="-91.6" xlink:href="#linear-gradient"/><linearGradient id="linear-gradient-3" x1="661.04" y1="-131.43" x2="679.68" y2="-131.43" gradientTransform="translate(-283.5 253.38)" gradientUnits="userSpaceOnUse"><stop offset="0" stop-color="#215aff"/><stop offset="0.2" stop-color="#215aff"/><stop offset="0.73" stop-color="#215aff" stop-opacity="0"/></linearGradient><linearGradient id="linear-gradient-4" x1="908.4" y1="-160.68" x2="908.4" y2="-91.6" xlink:href="#linear-gradient"/><linearGradient id="linear-gradient-5" x1="1160.6" y1="-160.68" x2="1160.6" y2="-91.6" xlink:href="#linear-gradient"/><linearGradient id="linear-gradient-6" x1="500.45" y1="-252.88" x2="500.45" y2="-201.45" xlink:href="#linear-gradient"/><linearGradient id="linear-gradient-7" x1="688.35" y1="-252.88" x2="688.35" y2="-201.45" xlink:href="#linear-gradient"/><linearGradient id="linear-gradient-8" x1="466.03" y1="-224.15" x2="469.85" y2="-242.01" gradientTransform="translate(-283.5 253.38)" gradientUnits="userSpaceOnUse"><stop offset="0" stop-color="#f28c10"/><stop offset="1" stop-color="#ffb55c"/></linearGradient><linearGradient id="linear-gradient-9" x1="1063.95" y1="-252.88" x2="1063.95" y2="-201.45" xlink:href="#linear-gradient"/><linearGradient id="linear-gradient-10" x1="876.15" y1="-253.38" x2="876.15" y2="-201.95" xlink:href="#linear-gradient"/><linearGradient id="linear-gradient-11" x1="837.62" y1="-1005.97" x2="841.55" y2="-987.76" gradientTransform="matrix(1, 0, 0, -1, -290, -970)" xlink:href="#linear-gradient-8"/></defs><path class="cls-1" d="M5,92.7H235.6a5,5,0,0,1,5,5V239.9a5,5,0,0,1-5,5H5a5,5,0,0,1-5-5V97.7A5,5,0,0,1,5,92.7Z"/><path class="cls-2" d="M165.9,119.8v6c0,.7.1.9.9.9h5.5c.6,0,.9.1.8.8a3.65,3.65,0,0,0,1.5,3.5h-7c-1.9,0-1.9,0-1.9,1.8V136a3.33,3.33,0,0,0,3.2,3.4h2.8c.5,0,.7.1.7.7v3.1c0,.3,0,.7-.5.7a28.08,28.08,0,0,1-4.1-.1,7.89,7.89,0,0,1-6.4-7.5v-4.4c0-.6-.2-.7-.7-.7H151c-.7,0-1.4.2-1.4,1.1s.6,1.2,1.4,1.2h4.3a5.23,5.23,0,0,1,5.3,5.1,5.49,5.49,0,0,1-5.3,5.4H143a1.42,1.42,0,0,1-1.3-.9c-.5-.8-.8-.9-1.8-.3a7.23,7.23,0,0,1-8.3.5,7.52,7.52,0,0,1-3.5-7.5,4.72,4.72,0,0,1,1.4-2.7,12,12,0,0,1,2.7-2.8c.3.3.2.6.2.9v5.3a3.22,3.22,0,0,0,2.8,3.5h.4a3.55,3.55,0,0,0,3.3-3.7v-8.5c0-.7.1-.9.9-.9h2.6c.7,0,.8.2.8.8v10.6c0,.8.1,1.2,1.2,1.2,3.3-.1,6.6,0,9.9,0h.8a1,1,0,0,0,.9-1.1h0c0-.6-.5-.7-.9-.7h-4.4c-3.3-.1-5.7-2.4-5.7-5.4a5.26,5.26,0,0,1,5-5.5h10.3c.8,0,1.1-.2,1.1-1.1v-5.9Z"/><path class="cls-3" d="M91.6,150v-3.7c0-.5.1-.6.6-.6h2a3.54,3.54,0,0,0,3.4-2.5c-.8.1-1.4.6-2.3.7-4,.3-7.8-2.6-8-6.6-.2-3.4-.1-6.7-.1-10.1,0-.6.2-.6.7-.6h2.7c.7,0,.9.1.9.9v8.6a3.17,3.17,0,0,0,2.9,3.5h.4a3.44,3.44,0,0,0,3.3-3.5v-8.4c0-.8.1-1.2,1.1-1.2h2.6c.5,0,.7.1.7.7,0,5,0,9.9-.1,15a8.64,8.64,0,0,1-5.8,7.7,8.52,8.52,0,0,1-2.3.3A12.29,12.29,0,0,1,91.6,150Z"/><path class="cls-2" d="M179.8,120.2a2.89,2.89,0,0,1,1.9,3.6,2,2,0,0,1-.4.8c-.2.5-.2.6.1.9a2.92,2.92,0,0,1,.4,4.2,2.73,2.73,0,0,1-1.2.9,4.9,4.9,0,0,1-4.7-.1,3,3,0,0,1-1.4-3.8,2.54,2.54,0,0,1,.8-1c.2-.2.6-.3.2-.8-1.2-2-.6-3.8,1.7-4.6A3.36,3.36,0,0,1,179.8,120.2Zm-1.5,5.9a1.88,1.88,0,0,0-2,1.7c0,.8.9,1.5,2,1.5s2-.7,2-1.5C180.4,126.8,179.4,126.1,178.3,126.1Zm0-4.1a1.32,1.32,0,0,0-1.4,1.2v.1a1.4,1.4,0,0,0,1.4,1.2,1.24,1.24,0,0,0,1.4-1.1v-.1a1.35,1.35,0,0,0-1.4-1.3Z"/><path class="cls-2" d="M66.7,126.1a8.88,8.88,0,0,0-8.1-5.3c-3-.1-6.2,0-9.3-.1v22.8h3.9c.6,0,.8-.1.8-.8v-3.1c0-.6.1-.8.8-.8h4a9,9,0,0,0,7.1-3.5A8.34,8.34,0,0,0,66.7,126.1Zm-8.1,8.5h-4c-.6,0-.7-.2-.7-.7v-7.8c0-.6.1-.8.7-.7h4a4.48,4.48,0,0,1,4.5,4.5A4.72,4.72,0,0,1,58.6,134.6Z"/><path class="cls-2" d="M138.6,120.9c-2.4.6-4.7,1.2-7.1,2a26.14,26.14,0,0,0-5.4,2.4,3,3,0,0,1-1.3.2H112.9c-.7,0-.9.1-.9.9v16.4c0,.8-.2,1.1-1.1,1.1h-2.5c-.8,0-1.2-.1-1.2-1.1V126.9c0-1.1-.2-1.3-1.3-1.3-2.5.1-4.8,0-7.3,0-.7,0-.9-.1-.9-.9a14.05,14.05,0,0,0,0-2.9c0-.6.1-.8.8-.8h3.7C114.5,120.9,126.6,120.9,138.6,120.9Z"/><path class="cls-3" d="M85.7,135.3V143a.76.76,0,0,1-.6.8,1.08,1.08,0,0,1-1.2-.5,8.34,8.34,0,0,1-.8-1.2c-.3-.7-.7-.6-1.2-.1a8.24,8.24,0,0,1-8.5,1.5c-3.7-1.2-5.8-4.8-5.5-9a8.6,8.6,0,0,1,8.6-8.6,2.77,2.77,0,0,1,.9.1,8.7,8.7,0,0,1,4.6,2c.5.5.8.5,1.3-.1s.8-1.7,1.8-1.3c.8.3.6,1.3.6,2Zm-13.3-.2a4.28,4.28,0,0,0,4,4.6h.3a4.66,4.66,0,0,0,0-9.3C74.2,130.4,72.4,132.4,72.4,135.1Z"/><path class="cls-2" d="M148.2,120.7a27.59,27.59,0,0,0-2.7.8,41.68,41.68,0,0,0-14.2,7.3,27.43,27.43,0,0,0-9.8,16.8,59.08,59.08,0,0,0-1.9-6.9c-1.4-3.9-3.1-7.5-6.3-10.4-.3-.3-.1-.5.1-.6a3.82,3.82,0,0,1,3.3.2,11.81,11.81,0,0,1,4.3,3.7c.3.3.5.5.8,0,3.8-5.2,9.2-7.9,15.2-9.6A38.19,38.19,0,0,1,148.2,120.7Z"/><path class="cls-2" d="M188.6,120.2a2.89,2.89,0,0,1,1.9,3.6,2,2,0,0,1-.4.8c-.2.5-.2.6.1.9a2.92,2.92,0,0,1,.4,4.2,2.73,2.73,0,0,1-1.2.9,4.9,4.9,0,0,1-4.7-.1,3,3,0,0,1-1.4-3.8,2.54,2.54,0,0,1,.8-1c.2-.2.6-.3.2-.8-1.2-2-.6-3.8,1.7-4.6A3.36,3.36,0,0,1,188.6,120.2Zm-1.5,5.9a1.88,1.88,0,0,0-2,1.7c0,.8.9,1.5,2,1.5s2-.7,2-1.5C189.2,126.8,188.3,126.1,187.1,126.1Zm0-4.1a1.32,1.32,0,0,0-1.4,1.2v.1a1.4,1.4,0,0,0,1.4,1.2,1.24,1.24,0,0,0,1.4-1.1v-.1a1.35,1.35,0,0,0-1.4-1.3Z"/><path class="cls-4" d="M257.3,92.7H487.9a5,5,0,0,1,5,5V239.9a5,5,0,0,1-5,5H257.3a5,5,0,0,1-5-5V97.7A5,5,0,0,1,257.3,92.7Z"/><path class="cls-5" d="M315.3,124.6v3.8h-3.9v-3.9h3.8v-3.8l.2-.1c2.5,0,5.1-.1,7.6.1,3.3.3,6.2,3.5,6.6,6.8a7.72,7.72,0,0,1-6.3,8.7,16.15,16.15,0,0,1-3.1.2h-4.3v7.5h-4.5V132.4c.3,0,.6-.1.9-.1h9.1a3.82,3.82,0,0,0,3.9-3.8,5.07,5.07,0,0,0-.2-1.3,3.19,3.19,0,0,0-2.9-2.5A53,53,0,0,0,315.3,124.6Zm26.1,8.4c-1.8.1-3.7,0-5.4.2-2.9.3-4.6,1.9-4.8,4.7a4.63,4.63,0,0,0,2,4.6,8.16,8.16,0,0,0,9.1-.3c.2-.2.5-.4.8-.7v1.9h4c0-.2.1-.3.1-.4V131.7a3.52,3.52,0,0,0-1.2-2.9,11.87,11.87,0,0,0-2.3-1.6,10,10,0,0,0-5.9-.8,7.2,7.2,0,0,0-4.9,2.4,4.72,4.72,0,0,0-1.2,3.2h4a2.63,2.63,0,0,1,2-1.8,7.31,7.31,0,0,1,3.6,0c1.6.4,2.1,1.3,1.8,3.1A4.67,4.67,0,0,0,341.4,133Zm.8,5.2a5.74,5.74,0,0,1-5.2,1.9,1.81,1.81,0,0,1-1.6-1.4,1.71,1.71,0,0,1,.9-2.1,3,3,0,0,1,1.6-.5c1.6-.1,3.3,0,5,0a2.07,2.07,0,0,1-.7,2.1Zm91.5-2.5a12.29,12.29,0,0,0-.2-2.7,8.85,8.85,0,0,0-10.1-6.9,9,9,0,0,0-7.2,10.3,8.47,8.47,0,0,0,1.4,3.4c3.9,5.6,11.3,4.4,14.5.6.3-.4.6-.9.9-1.3-1.3-.4-2.5-.7-3.7-1a6.22,6.22,0,0,1-6.5,1.4,4,4,0,0,1-2.5-3.1h13.2a.84.84,0,0,0,.2-.7Zm-8.5-5.9c2.1.1,4,1.6,4.2,3.3h-8.9a4.63,4.63,0,0,1,4.7-3.3Zm-67.6,8.4c-1.6-3.9-3.1-7.9-4.6-11.8h-4.4a3.55,3.55,0,0,0,.4.9c2.1,5.1,4.2,10.2,6.4,15.3a1.71,1.71,0,0,1,0,1.4c-.7,1.7-1.4,3.5-2.1,5.3l-.3.9h4.3c3.1-7.9,6.3-15.8,9.5-23.7h-4.5c-1.5,4-2.9,7.9-4.4,11.8-.2-.1-.2-.1-.3-.1Zm44.6-11.8h-4.5c-1.4,4.7-2.8,9.3-4.2,14h-.1c-1.4-4.7-2.8-9.3-4.2-14h-4.5c1.8,5.7,3.6,11.4,5.4,17h6.8c1.7-5.7,3.5-11.3,5.3-17Zm6.8,17v-8.5a4.13,4.13,0,0,1,3.9-4.3h.5a12.25,12.25,0,0,1,1.9.2v-4.4a5.93,5.93,0,0,0-6.2,2.2c-.1,0-.1,0-.1-.1h0v-2.1h-4.2v17Zm-35.8-22.5h-4.1v22.5h4.1Zm4.3,22.5h4.2v-17h-4.2Z"/><path class="cls-6" d="M377.5,123.9V120h18.6v3.9Z"/><path class="cls-7" d="M509.6,92.7H740.2a5,5,0,0,1,5,5V239.9a5,5,0,0,1-5,5H509.6a5,5,0,0,1-5-5V97.7A5,5,0,0,1,509.6,92.7Z"/><path class="cls-8" d="M566.7,131.3h-4v10.6h4Z"/><path class="cls-8" d="M575.6,131.3h-4v10.6h4Z"/><path class="cls-8" d="M573.6,117.4l-14,10.8h27.9Z"/><path class="cls-8" d="M594,141.9h-6.8v-4.2l-8.3,7.5,8.3,7.5v-4.2H594Z"/><path class="cls-8" d="M589.7,133.2h6.9V129l8.3,7.5-8.3,7.5v-4.2h-6.9Z"/><path class="cls-8" d="M576,144.7l1.8,4H559.6v-4Z"/><path class="cls-8" d="M584.5,136.6l-3.9,3.2v-8.5h3.9Z"/><path class="cls-9" d="M616,119.8v11.9h4.7v1.4h-6.5V119.8Z"/><path class="cls-9" d="M627.1,133.3a5,5,0,0,1-5.2-4.8v-.6a5.3,5.3,0,1,1,10.6,0h0a5.17,5.17,0,0,1-5,5.4Zm0-1.5a3.5,3.5,0,0,0,3.6-3.5v-.4c0-2.6-1.7-3.9-3.5-3.9s-3.5,1.2-3.5,3.9S625.3,131.8,627.1,131.8Z"/><path class="cls-9" d="M639.2,122.5c2.6,0,4.3,1.3,4.8,3.5h-1.8a2.92,2.92,0,0,0-3-2.1c-1.9,0-3.3,1.4-3.3,3.9s1.4,4,3.3,4a2.67,2.67,0,0,0,3-2.1h1.9a4.55,4.55,0,0,1-4.8,3.5c-3,0-5.1-2.1-5.1-5.4a4.82,4.82,0,0,1,4.3-5.3Z"/><path class="cls-9" d="M650.7,122.5a4.17,4.17,0,0,1,3.9,2.1v-1.9h1.8v10.5h-1.8v-2a4.17,4.17,0,0,1-3.9,2.1c-2.8,0-5-2.2-5-5.5a5,5,0,0,1,4.7-5.3Zm.4,1.5c-1.9,0-3.5,1.4-3.5,3.9s1.6,3.9,3.5,3.9a3.59,3.59,0,0,0,3.6-3.6v-.3c-.1-2.4-1.7-3.9-3.6-3.9Z"/><path class="cls-9" d="M659.3,119H661v14.2h-1.7Z"/><path class="cls-9" d="M613.4,136.3h9v1.4h-3.6v11.9h-1.7V137.7h-3.7Z"/><path class="cls-9" d="M626.3,149.7h-1.7V139.2h1.7v1.7a3.44,3.44,0,0,1,3.4-1.9v1.8h-.5c-1.7,0-2.9.7-2.9,3.2Z"/><path class="cls-9" d="M636.1,139a4.17,4.17,0,0,1,3.9,2.1v-1.9h1.8v10.5H640v-2a4.17,4.17,0,0,1-3.9,2.1c-2.8,0-5-2.2-5-5.5S633.2,139,636.1,139Zm.3,1.5c-1.9,0-3.5,1.4-3.5,3.9s1.6,3.9,3.5,3.9a3.59,3.59,0,0,0,3.6-3.6v-.3a3.68,3.68,0,0,0-3.4-3.9Z"/><path class="cls-9" d="M652.4,143.7c0-2.1-1.2-3.2-2.9-3.2s-3,1.1-3,3.4v5.8h-1.7V139.2h1.7v1.5a4.22,4.22,0,0,1,3.4-1.7c2.4,0,4.3,1.5,4.3,4.5v6.2h-1.7Z"/><path class="cls-9" d="M660.6,149.8c-2.5,0-4.2-1.3-4.3-3.3h1.8c.1,1,1,1.8,2.5,1.8s2.1-.7,2.1-1.6c0-2.3-6.2-1-6.2-4.9,0-1.6,1.5-2.9,3.8-2.9s3.8,1.2,4,3.3h-1.7c-.1-1.1-.9-1.8-2.3-1.8s-2,.6-2,1.5c0,2.5,6.1,1.1,6.2,4.9C664.5,148.5,663,149.8,660.6,149.8Z"/><path class="cls-9" d="M667.2,140.6h-1.4v-1.4h1.4v-.7c0-2.3,1.1-3.4,3.8-3.4v1.5c-1.6,0-2.1.6-2.1,1.9v.7h2.2v1.4H669v9.1h-1.7l-.1-9.1Z"/><path class="cls-9" d="M677.7,149.8a5,5,0,0,1-5.2-4.8v-.6c0-3.3,2.1-5.4,5.2-5.4a4.79,4.79,0,0,1,5,4.5v.5a4.1,4.1,0,0,1-.1,1.1h-8.4a3.27,3.27,0,0,0,3.3,3.3h.1a2.83,2.83,0,0,0,2.9-1.9h1.9C682,148.4,680.3,149.8,677.7,149.8Zm-3.4-6.1h6.6a3.12,3.12,0,0,0-3-3.2h-.3a3.24,3.24,0,0,0-3.3,3.2Z"/><path class="cls-9" d="M686.7,149.7H685V139.2h1.7v1.7a3.44,3.44,0,0,1,3.4-1.9v1.8h-.5c-1.7,0-2.9.7-2.9,3.2Z"/><path class="cls-10" d="M761.8,92.7H992.4a5,5,0,0,1,5,5V239.9a5,5,0,0,1-5,5H761.8a5,5,0,0,1-5-5V97.7A5,5,0,0,1,761.8,92.7Z"/><path class="cls-11" d="M857.7,151.1H826.2a2.26,2.26,0,0,1-2.3-2.3V128.2a2.26,2.26,0,0,1,2.3-2.3h31.5a2.26,2.26,0,0,1,2.3,2.3v20.6A2.26,2.26,0,0,1,857.7,151.1Z"/><path class="cls-12" d="M832.3,133.9c1.2-.2,2.4-1.5,3-3.4a15.26,15.26,0,0,0-3-.3Z"/><path class="cls-12" d="M834.3,133.6c.1,0,.2,0,.2-.1s.1,0,.2-.1.1,0,.2-.1.1-.1.2-.1.1,0,.2-.1.1-.1.2-.1.1,0,.2-.1.1-.1.2-.1.1,0,.2-.1.1-.1.2-.1.1-.1.2-.1.1-.1.2-.1.1-.1.2-.1.1-.1.2-.1l.2-.2c.1,0,.1-.1.2-.1l.2-.2.2-.2.2-.2.2-.2a11.92,11.92,0,0,0-2-.8,6,6,0,0,1-1.9,3h.1C834.1,133.7,834.2,133.6,834.3,133.6Z"/><path class="cls-12" d="M840.3,125.9h-3.5a15.23,15.23,0,0,1-.6,4.2c.8.3,1.6.6,2.3.9A11.57,11.57,0,0,0,840.3,125.9Z"/><path class="cls-12" d="M832.3,125.4h3.8a13.2,13.2,0,0,0-.6-3.9,18.41,18.41,0,0,1-3.3.3C832.3,121.8,832.3,125.4,832.3,125.4Z"/><path class="cls-12" d="M832.3,117.4v3.8c1,0,2-.2,3-.3C834.6,119,833.5,117.6,832.3,117.4Z"/><path class="cls-12" d="M832.3,129.5c1,0,2.2.2,3.3.3a26.29,26.29,0,0,0,.6-3.9h-3.8C832.3,125.9,832.3,129.5,832.3,129.5Z"/><path class="cls-12" d="M838.3,120.4a9.17,9.17,0,0,1-2.3.9,15.23,15.23,0,0,1,.6,4.2h3.5A7.75,7.75,0,0,0,838.3,120.4Z"/><path class="cls-12" d="M838,120c-.1,0-.1-.1,0,0l-.2-.2-.2-.2-.2-.2-.2-.2c-.1,0-.1-.1-.2-.1l-.2-.2c-.1,0-.1-.1-.2-.1s-.1-.1-.2-.1-.1-.1-.2-.1-.1-.1-.2-.1-.1-.1-.2-.1-.1,0-.2-.1-.1-.1-.2-.1-.3-.2-.3-.2a.35.35,0,0,0-.2-.1c-.1,0-.1,0-.2-.1s-.1-.1-.2-.1-.1,0-.2-.1-.1,0-.2-.1-.1,0-.2-.1-.1,0-.2-.1h-.1a7.32,7.32,0,0,1,1.9,3A5.39,5.39,0,0,0,838,120Z"/><path class="cls-12" d="M823.6,125.4h3.5a15.23,15.23,0,0,1,.6-4.2c-.8-.3-1.6-.6-2.3-.9A10.46,10.46,0,0,0,823.6,125.4Z"/><path class="cls-12" d="M831.6,133.9v-3.8c-1,0-2,.2-3,.3C829.2,132.4,830.4,133.8,831.6,133.9Z"/><path class="cls-12" d="M831.6,125.9h-3.8a13.2,13.2,0,0,0,.6,3.9,18.41,18.41,0,0,1,3.3-.3Z"/><path class="cls-12" d="M831.6,117.4c-1.2.2-2.4,1.5-3,3.4a15.26,15.26,0,0,0,3,.3Z"/><path class="cls-12" d="M831.6,121.8c-1,0-2.2-.2-3.3-.3a26.29,26.29,0,0,0-.6,3.9h3.8Z"/><path class="cls-12" d="M829.9,117.7c-.2,0-.2.1-.2.1s-.2,0-.2.1-.1,0-.2.1-.1,0-.2.1-.1.1-.2.1-.1,0-.2.1-.1.1-.2.1-.1,0-.2.1-.1.1-.2.1-.1,0-.2.1-.1.1-.2.1-.1.1-.2.1-.1.1-.2.1-.1.1-.2.1-.1.1-.2.1l-.2.2c-.1,0-.1.1-.2.1l-.2.2c-.1.1-.2.1-.2.2s-.1.1-.2.2l-.2.2a11.92,11.92,0,0,0,2,.8A9.49,9.49,0,0,1,829.9,117.7Z"/><path class="cls-12" d="M826.1,131.6l.2.2.2.2.2.2c.1,0,.1.1.2.1l.2.2c.1,0,.1.1.2.1s.1.1.2.1.1.1.2.1.1.1.2.1.1.1.2.1.1,0,.2.1.1.1.2.1.1,0,.2.1.1.1.2.1.1,0,.2.1.1.1.2.1.1,0,.2.1.1,0,.2.1.1,0,.2.1.1,0,.2.1h.1a7.32,7.32,0,0,1-1.9-3,7,7,0,0,0-2,.8C826,131.4,826.1,131.4,826.1,131.6Z"/><path class="cls-12" d="M825.6,131a9.17,9.17,0,0,1,2.3-.9,15.23,15.23,0,0,1-.6-4.2h-3.5A7.26,7.26,0,0,0,825.6,131Z"/><path class="cls-13" d="M858.2,122.2c-3.6-1.1-7.2,1.5-10.8.4-.2-.1-.6-.4-.6-.7v-6c0-.2.2-.4.6-.3,3.6,1.1,7.2-1.5,10.8-.4.2.1.6.4.6.7v6C858.8,122.2,858.5,122.3,858.2,122.2Z"/><path class="cls-14" d="M857.2,121.4c-2.9-.3-5.8,1.2-8.7.9a1.7,1.7,0,0,0-1-1.3v-3.8c.6.2,1-.2,1-.9,2.9.3,5.8-1.2,8.7-.9a1.7,1.7,0,0,0,1,1.3v3.8A1.06,1.06,0,0,0,857.2,121.4Z"/><path class="cls-13" d="M852.8,116.6a1.9,1.9,0,0,1,2.2,1.6v.4a2.88,2.88,0,0,1-2.2,2.8,1.9,1.9,0,0,1-2.2-1.6v-.4A3,3,0,0,1,852.8,116.6Z"/><path class="cls-13" d="M849.6,119a.6.6,0,1,1-.6.6h0c0-.3.2-.6.4-.6Z"/><path class="cls-13" d="M856.1,118a.6.6,0,1,1-.6.6h0a.58.58,0,0,1,.6-.6Z"/><path class="cls-15" d="M853.2,118.6c-.2,0-.3.1-.6.1s-.2-.1-.2-.2.1-.2.2-.3.6-.1.8-.2.2-.2.2-.3a.22.22,0,0,0-.2-.2c-.1,0-.2,0-.2.1,0-.2-.1-.2-.2-.2s-.2.2-.2.3a1.08,1.08,0,0,0-.8,1,.65.65,0,0,0,.6.6h.2c.2,0,.3-.1.6-.1s.2.1.2.2-.1.2-.2.3-.6.1-.8.2-.2.2-.2.3a.22.22,0,0,0,.2.2c.1,0,.2,0,.2-.1,0,.2.1.2.2.2s.2-.2.2-.3a1.08,1.08,0,0,0,.8-1C854,118.9,853.6,118.6,853.2,118.6Z"/><path class="cls-14" d="M840.3,120.6a.6.6,0,1,0-.6-.6h0C839.6,120.3,839.9,120.6,840.3,120.6Z"/><path class="cls-14" d="M842.6,120.6a.6.6,0,1,0-.6-.6h0A.65.65,0,0,0,842.6,120.6Z"/><path class="cls-14" d="M845.1,120.6a.6.6,0,1,0,0-1.2h0a.65.65,0,0,0-.6.6C844.4,120.3,844.7,120.6,845.1,120.6Z"/><path class="cls-14" d="M854,124.7a.6.6,0,1,0-.6-.6h0C853.3,124.4,853.6,124.7,854,124.7Z"/><path class="cls-16" d="M850.1,145.8h-1v-1H834.6v1h-1v1H850l.1-1Z"/><path class="cls-16" d="M834.7,135.1h14.5V137H834.7Z"/><path class="cls-16" d="M835.6,138.1h2.9v5.8h-2.9Z"/><path class="cls-16" d="M840.5,138.1h2.9v5.8h-2.9Z"/><path class="cls-16" d="M845.3,138.1h2.9v5.8h-2.9Z"/><path class="cls-16" d="M850.1,133.3l-8.2-3-8.2,3v.8h16.5l-.1-.8Zm-7.7-.1h-1v-1h1Z"/><path class="cls-17" d="M856.5,145.1h0a1.88,1.88,0,0,0-.8.2,1.83,1.83,0,0,0-1-.7h-.3a2.35,2.35,0,0,0-.8.2,1.39,1.39,0,0,0-1.2-.7c-.2,0-.4.1-.6.1v-2.8a1.5,1.5,0,1,0-3,0v9a.54.54,0,0,1-.5.5.76.76,0,0,1-.4-.2l-1-1.1a1.57,1.57,0,0,0-2.2,0,1.39,1.39,0,0,0-.5,1,2.1,2.1,0,0,0,.4,1.1l2.1,2.1a4.76,4.76,0,0,0,3.4,1.4h4.5a3,3,0,0,0,3.1-3v-5.5a1.31,1.31,0,0,0-.8-1.6Z"/><path class="cls-11" d="M871.8,133.7h-4.6V123h4.4c2.2,0,3.4,1.2,3.4,2.7a2.67,2.67,0,0,1-1.8,2.5,2.59,2.59,0,0,1,2.2,2.6C875.3,132.5,874.1,133.7,871.8,133.7Zm-.5-9h-2v2.7h2c1,0,1.6-.5,1.6-1.4S872.4,124.7,871.3,124.7Zm.2,4.3h-2.1v2.9h2.2c1,0,1.7-.5,1.7-1.4A1.67,1.67,0,0,0,871.5,129Z"/><path class="cls-11" d="M880.4,125a3.13,3.13,0,0,1,2.8,1.4v-1.2h2.2v8.5h-2.2v-1.3a3.37,3.37,0,0,1-2.8,1.4c-2.2,0-3.8-1.8-3.8-4.4S878.2,125,880.4,125Zm.5,1.9a2.26,2.26,0,0,0-2.2,2.4v.1a2.44,2.44,0,0,0,2.2,2.6h0a2.58,2.58,0,0,0,2.2-2.9A2.65,2.65,0,0,0,880.9,126.9Z"/><path class="cls-11" d="M893.4,129c0-1.4-.7-2.1-1.9-2.1s-1.9.7-1.9,2.1v4.7h-2.2v-8.5h2.2v1a3.45,3.45,0,0,1,4.8-.4,3.33,3.33,0,0,1,1.2,2.8v5h-2.2V129Z"/><path class="cls-11" d="M897.6,122.3h2.2v6.5l2.9-3.6h2.8l-3.8,4.2,3.8,4.2h-2.8l-2.9-3.6v3.6h-2.2Z"/><path class="cls-16" d="M866.7,136.2h7.8V138h-2.9v9h-2.2v-9h-2.9l.2-1.8Z"/><path class="cls-16" d="M878.2,146.9H876v-8.5h2.2v1.3a2.9,2.9,0,0,1,2.6-1.4v2.2h-.6c-1.3,0-2,.5-2,2.2Z"/><path class="cls-16" d="M885.6,138.3a3.13,3.13,0,0,1,2.8,1.4v-1.2h2.2V147h-2.2v-1.3a3.37,3.37,0,0,1-2.8,1.4c-2.2,0-3.8-1.8-3.8-4.4C881.7,139.9,883.4,138.3,885.6,138.3Zm.5,1.8a2.26,2.26,0,0,0-2.2,2.4v.1a2.44,2.44,0,0,0,2.2,2.6h0a2.24,2.24,0,0,0,2.2-2.3v-.2a2.33,2.33,0,0,0-1.9-2.6Z"/><path class="cls-16" d="M898.6,142.2c0-1.4-.7-2.1-1.9-2.1s-1.9.7-1.9,2.1v4.7h-2.2v-8.5h2.2v1a3.45,3.45,0,0,1,4.8-.4,3.33,3.33,0,0,1,1.2,2.8v5h-2.2v-4.6Z"/><path class="cls-16" d="M906.1,147c-2.2,0-3.6-1.3-3.7-2.8h2.2a1.34,1.34,0,0,0,1.5,1.1c.9,0,1.3-.4,1.3-.9,0-1.5-4.8-.6-4.8-3.7,0-1.4,1.3-2.6,3.4-2.6s3.3,1.1,3.4,2.8h-2.1a1.32,1.32,0,0,0-1.4-1.1c-.8,0-1.2.3-1.2.8,0,1.5,4.7.6,4.8,3.7C909.4,145.9,908.1,147,906.1,147Z"/><path class="cls-16" d="M911.4,140.2h-1v-1.8h1V138c0-2.1,1.2-3,3.6-3v1.8c-1,0-1.4.3-1.4,1.3v.3h1.5v1.8h-1.5v6.7h-2.2v-6.7Z"/><path class="cls-16" d="M920.2,147a4,4,0,0,1-4.2-3.8v-.6a4.06,4.06,0,0,1,3.8-4.4h.4a4,4,0,0,1,4.2,3.8v.4a2.2,2.2,0,0,1-.1.8H918a2,2,0,0,0,2,2,1.94,1.94,0,0,0,1.7-1H924A3.69,3.69,0,0,1,920.2,147Zm-2.1-5.1h4a1.88,1.88,0,0,0-1.9-1.8h-.1a1.8,1.8,0,0,0-2,1.5v.3Z"/><path class="cls-16" d="M928,146.9h-2.2v-8.5H928v1.3a2.9,2.9,0,0,1,2.6-1.4v2.2H930c-1.3,0-2,.5-2,2.2Z"/><path class="cls-18" d="M131.1.5H302.8a3.63,3.63,0,0,1,3.7,3.7V110.1a3.63,3.63,0,0,1-3.7,3.7H131.1a3.63,3.63,0,0,1-3.7-3.7V4.2A3.69,3.69,0,0,1,131.1.5Z"/><path class="cls-19" d="M319,.5H490.7a3.63,3.63,0,0,1,3.7,3.7V110.1a3.63,3.63,0,0,1-3.7,3.7H319a3.63,3.63,0,0,1-3.7-3.7V4.2A3.63,3.63,0,0,1,319,.5Z"/><path class="cls-20" d="M464.7,21.7c0,.1-.1.2-.1.4a3.84,3.84,0,0,1-3.1,3,4.08,4.08,0,1,1-1.6-8,.37.37,0,0,0,.3-.1h1a3.93,3.93,0,0,1,3.4,3.1c0,.1.1.2.1.3A5.65,5.65,0,0,1,464.7,21.7ZM460,19.8h0c.4.1.4.1.4.4V21c0,.5-.1,1-.1,1.4a.27.27,0,0,1-.3.3c-.1,0-.1,0-.1.1a1.7,1.7,0,0,0,1,0h-.1c-.2,0-.2,0-.2-.2V21.1a2,2,0,0,1,.1-.7c.4.8.7,1.6,1.1,2.5.4-.8.8-1.6,1.2-2.5l.1.1v1.9a.35.35,0,0,1-.1.2h-.1c-.1,0-.1,0-.1.1a2.08,2.08,0,0,0,1.1-.1h-.2c-.1,0-.1-.1-.1-.2V20c0-.1.1-.1.1-.2s.1,0,.1-.1v-.1h-.7a14.24,14.24,0,0,1-1.2,2.5c-.3-.6-.6-1.1-.9-1.8-.1-.2-.1-.4-.2-.6s0-.1-.1-.1a.84.84,0,0,1-.7.2Zm-2.5.1c.1,0,.1,0,.1.1.2.1.3.1.3.3v1.1h.3V20.3c0-.1,0-.1.1-.2h.4a.55.55,0,0,1,.5.3.89.89,0,0,1-.2,1.1c-.1.1-.2.1-.4.1s-.6,0-.9.1h-.1c.1.1.4.1.5.1a6.75,6.75,0,0,0,1.4-.2,1.38,1.38,0,0,0,.3-.4.83.83,0,0,0-.5-1c-.1,0-.1,0-.1-.1a3.3,3.3,0,0,0-1.4,0C457.7,19.8,457.7,19.8,457.5,19.9Zm.5,1.8v.7c0,.2-.1.3-.3.4l-.1.1h1.2c0-.1,0-.1-.1-.1-.3-.1-.3-.1-.4-.4v-.6c0-.1-.2-.1-.3-.1Z"/><path d="M419.6,41.7V37.1h.7a.76.76,0,0,0,.1.4c.1,0,.1,0,.1-.1a1.3,1.3,0,0,1,1.9-.1,2.18,2.18,0,0,1,.4.5,2.48,2.48,0,0,1,0,1.7,1.45,1.45,0,0,1-1.8.8c-.1-.1-.4-.1-.5-.2v1.6Zm.7-3.1a.6.6,0,0,0,.1.4,1.21,1.21,0,0,0,.7.7.68.68,0,0,0,.8-.4,2.05,2.05,0,0,0,0-1.1c-.1-.3-.4-.6-.7-.5a.68.68,0,0,0-.7.7C420.3,38.3,420.3,38.5,420.3,38.6Z"/><path class="cls-20" d="M405.9,21.9a3.08,3.08,0,0,1-.1,1c0,.7-.1,1.3-.1,2s-.1,1.1-.1,1.7-.1,1.5-.1,2.2v1.9c0,.2.1.5.1.7a1.21,1.21,0,0,0,.5.5,2.77,2.77,0,0,0,.9.1.2.2,0,1,1,0,.4h0a1.7,1.7,0,0,1-.7-.1h-1.2a13.4,13.4,0,0,0-2,.1.27.27,0,0,1-.3-.3.1.1,0,0,1,.1-.1,2.2,2.2,0,0,1,.8-.1,1.06,1.06,0,0,0,.6-.7,3.75,3.75,0,0,0,.1-1,17.7,17.7,0,0,0,.1-2.3,13.4,13.4,0,0,0,.1-2c0-.6.1-1.3.1-1.9v-.6a8.6,8.6,0,0,1,.1-1.6v-.9a1.27,1.27,0,0,0-.1-.6,1.21,1.21,0,0,0-.5-.5,2.77,2.77,0,0,0-.9-.1.2.2,0,0,1,0-.4h3.2v.6a7.37,7.37,0,0,0,.4,1.4c.5,1.2,1.1,2.4,1.7,3.6l2.4,4.8c.1.1.1.4.2.5.1-.1.1-.1.1-.2a22.56,22.56,0,0,0,1.1-2.2c.7-1.4,1.4-2.8,2-4.2.4-.8.8-1.6,1.2-2.5a3.71,3.71,0,0,0,.4-1.5v-.1h3.1c.1,0,.1,0,.2.1v.3l-.1.1a2.2,2.2,0,0,1-.8.1c-.6.1-.7.4-.8.9,0,.3-.1.7-.1,1v2.9c0,.6.1,1,.1,1.6v.7a10.87,10.87,0,0,0,.1,1.8c0,.6.1,1.1.1,1.7a2.2,2.2,0,0,0,.1.8.68.68,0,0,0,.7.7,2.2,2.2,0,0,0,.8.1.35.35,0,0,1,.2.1v.1c0,.2-.1.3-.4.3-1-.1-2.1-.1-3.1-.1a3.08,3.08,0,0,0-1,.1H415a.27.27,0,0,1-.3-.3c0-.2,0-.2.2-.2s.6-.1.8-.1c.4-.1.7-.4.6-.7V22h-.1c-.1.1-.1.1-.1.2-.3.7-.7,1.5-1,2.2-.7,1.5-1.4,2.8-2.1,4.2s-1.3,2.6-1.9,3.9c0,.1,0,.1-.1.1h0c-.1.1-.1.1-.2.1s-.1-.1-.2-.1a20.29,20.29,0,0,0-1.1-2.6c-1-2.2-2-4.4-3-6.5a7.54,7.54,0,0,0-.6-1.3Q406.05,21.9,405.9,21.9Z"/><path class="cls-20" d="M431.2,29v2.2c.1.5.1.7.7.7h.2c.1,0,.2.1.2.3s-.1.2-.3.2a15.48,15.48,0,0,0-2.1-.1,4.1,4.1,0,0,0-1.1.1h-.2a.1.1,0,0,1-.1-.1v-.1c0-.1.1-.1.1-.2s.4,0,.5-.1a.56.56,0,0,0,.5-.6c0-.4.1-.6.1-.9v-4a.89.89,0,0,0-.6-1H429c-.1-.1-.1-.1-.1-.2s.1-.1.1-.2a4.18,4.18,0,0,0,1-.4,2.18,2.18,0,0,0,.8-.5c.1-.1.3-.1.3.1v.9c0,.1.1.2.3.1a6,6,0,0,0,1.1-.6,2.88,2.88,0,0,1,1.6-.3,1.64,1.64,0,0,1,1.6.7,2.27,2.27,0,0,1,.6,1.6v4.9c.1.3.2.5.5.5a4.33,4.33,0,0,0,.5.1c.2,0,.2.1.2.2s-.1.3-.3.2a12.1,12.1,0,0,0-1.9-.1,9.15,9.15,0,0,0-1.6.1.27.27,0,0,1-.3-.3c0-.2.1-.1.2-.2s.3-.1.6-.1a.66.66,0,0,0,.4-.5c0-.3.1-.4.1-.7V27c0-.3-.1-.5-.1-.8a1.28,1.28,0,0,0-1-1,4.08,4.08,0,0,0-1.9.1,1.3,1.3,0,0,0-.8,1.2A5.24,5.24,0,0,1,431.2,29Z"/><path class="cls-20" d="M344.8,26.3c.2,0,.5.1.8.1a17.7,17.7,0,0,0,2.3.1h2.2a18,18,0,0,0,2.2-.2,2.87,2.87,0,0,0,2.3-2.4,5.45,5.45,0,0,0-.1-2.2,2.46,2.46,0,0,0-2.2-1.8,7.57,7.57,0,0,0-1.5-.1c-.4,0-.5.2-.5.6V26a4.85,4.85,0,0,1-1.7,0V21.7a3.4,3.4,0,0,0-.1-1,.63.63,0,0,0-.7-.7,1.7,1.7,0,0,0-.7-.1.35.35,0,0,1-.2-.1v-.1c0-.1.1-.2.2-.3.3,0,.6-.1.9-.1,1.1,0,2.2-.1,3.4-.1a7.46,7.46,0,0,1,2.6.4,3.45,3.45,0,0,1,2.5,3.4,3.29,3.29,0,0,1-.8,2.5l-.3.3a7.11,7.11,0,0,1-3.4,1.3,20.08,20.08,0,0,1-2.5.1A22.86,22.86,0,0,1,347,27a11.21,11.21,0,0,1-2.1-.4c-.1-.2-.1-.2-.1-.3Z"/><path class="cls-20" d="M372.8,28.4v2.5a1.27,1.27,0,0,0,.1.6c0,.2.1.4.3.4h.1c.2,0,.6.1.8.1a.35.35,0,0,1,.2.1v.1c0,.2-.1.3-.2.3a2.2,2.2,0,0,1-.8-.1,28.05,28.05,0,0,0-2.9,0h-.1c-.1,0-.1,0-.2-.1a.19.19,0,0,1,0-.3.1.1,0,0,1,.1-.1,3.54,3.54,0,0,1,.6-.1.54.54,0,0,0,.5-.5c0-.3.1-.6.1-.9V25.8a.27.27,0,0,0-.3-.3h-.7c-.1,0-.1,0-.2-.1s0-.2.1-.2.4-.1.6-.3c.5-.2.5-.2.5-.7a8.53,8.53,0,0,1,.6-3.1,3.89,3.89,0,0,1,1.8-2.2,3.54,3.54,0,0,1,3-.4,1.28,1.28,0,0,1,.7.5.74.74,0,0,1,.1.9.71.71,0,0,1-1,.3.1.1,0,0,1-.1-.1l-.6-.6c-.2-.1-.5-.2-.7-.3a1.43,1.43,0,0,0-1.1.3,1.46,1.46,0,0,0-.6.9,14.35,14.35,0,0,0-.4,2.2v2a.35.35,0,0,0,.1.2h2.3c.2,0,.3.1.3.2a.37.37,0,0,1-.1.3.52.52,0,0,1-.4.2h-1.9c-.3,0-.3,0-.3.3A5.82,5.82,0,0,0,372.8,28.4Z"/><path class="cls-20" d="M428.3,28.4a4.3,4.3,0,0,1-.7,2.5,3.56,3.56,0,0,1-2.2,1.6,5.67,5.67,0,0,1-2.9-.1,4.1,4.1,0,0,1-2.5-2.8,8.17,8.17,0,0,1,.1-2.7,4.06,4.06,0,0,1,2.9-2.5,4.48,4.48,0,0,1,2.3,0,3.55,3.55,0,0,1,2.7,2.7A3.08,3.08,0,0,1,428.3,28.4Zm-1.8.3a6.93,6.93,0,0,0-.3-2,3.07,3.07,0,0,0-.8-1.3,1.66,1.66,0,0,0-1.2-.5,1.74,1.74,0,0,0-1.5.5,2.58,2.58,0,0,0-.8,1.3,5.24,5.24,0,0,0-.1,2.5,4.94,4.94,0,0,0,.5,1.6,2,2,0,0,0,1.9,1.4,2.82,2.82,0,0,0,1.5-.4,5.5,5.5,0,0,0,.7-.9,8.31,8.31,0,0,0,.1-2.2Z"/><path class="cls-20" d="M450.5,30.5c.1-.1.1-.1.1-.2.4-.8.7-1.7,1.1-2.5a4.59,4.59,0,0,1,.7-1.6c.1-.1.1-.4.1-.5a.37.37,0,0,0-.1-.3c-.1-.1-.4-.1-.5-.1a.37.37,0,0,1-.3-.1c-.1,0-.2-.1-.2-.3a.35.35,0,0,1,.1-.2h.1a14.77,14.77,0,0,1,2.1.1,2.77,2.77,0,0,0,.9-.1c.1,0,.1,0,.2.1a.19.19,0,0,1,0,.3.1.1,0,0,1-.1.1,1.74,1.74,0,0,0-1.2.8c-.3.5-.6,1.1-.9,1.7-.7,1.6-1.5,3.1-2.2,4.6s-1.3,2.8-1.9,4.2a4.88,4.88,0,0,0-.3.7,1.28,1.28,0,0,1-1.4.4c-.4-.1-.7-.4-.6-.8s.2-.7.6-.7h.6a.67.67,0,0,0,.7-.4c.4-.7.7-1.3,1-1.9a2.26,2.26,0,0,0,.2-1.6c-.1-.3-.2-.7-.3-1l-1.5-3.9a3,3,0,0,0-.4-1,1.34,1.34,0,0,0-.7-.6c-.1,0-.2-.1-.4-.1s-.2-.1-.2-.3a.35.35,0,0,1,.1-.2h.1a19.27,19.27,0,0,1,2.4.1,3.4,3.4,0,0,0,1-.1c.2,0,.3.1.3.2s0,.2-.1.2-.4.1-.6.1-.2.1-.2.3a.37.37,0,0,0,.1.3l1.5,4.2C450.2,30.1,450.4,30.2,450.5,30.5Z"/><path class="cls-20" d="M379.3,27.3h-2.2a.37.37,0,0,0-.4.4,8.75,8.75,0,0,0,.2,1.6,3,3,0,0,0,1.6,2c.4.1.8.2,1.3.3a4.25,4.25,0,0,0,1.1-.2,1.21,1.21,0,0,0,.7-.7c.1-.1.1-.1.2-.1a.19.19,0,0,1,.1.3,3.25,3.25,0,0,1-1.3,1.3,3.57,3.57,0,0,1-3.6.1,3.24,3.24,0,0,1-1.8-2,4.91,4.91,0,0,1,.6-4.4,3.77,3.77,0,0,1,2.7-1.7,5.46,5.46,0,0,1,1.8.1,2.8,2.8,0,0,1,1.6,1.6,3.4,3.4,0,0,1,.1,1,.35.35,0,0,1-.1.2h-.1c-.1,0-.4.1-.6.1A5.75,5.75,0,0,1,379.3,27.3Zm-2.3-.6h2.2c.4,0,.7-.1,1.1-.1.2,0,.3-.1.4-.3a1,1,0,0,0-.4-1,2.38,2.38,0,0,0-1.2-.3,2.13,2.13,0,0,0-1.6.7,4.35,4.35,0,0,0-.6.7v.3Z"/><path class="cls-20" d="M360.1,27.3h-2.2a.27.27,0,0,0-.3.3,4.84,4.84,0,0,0,.7,2.6,2.85,2.85,0,0,0,2.5,1.4,5,5,0,0,0,1.2-.2,1.21,1.21,0,0,0,.7-.7c.1-.1.1-.1.2-.1a.22.22,0,0,1,.2.2c0,.1,0,.1-.1.1a4,4,0,0,1-1.5,1.4,4.44,4.44,0,0,1-3.4.1,3.31,3.31,0,0,1-1.9-2.1,4.72,4.72,0,0,1,.8-4.6,3.94,3.94,0,0,1,2.5-1.4,4.45,4.45,0,0,1,1.6.1,2.37,2.37,0,0,1,1.8,1.8,1.1,1.1,0,0,1,0,.8c0,.2-.1.2-.3.2s-.3.1-.5.1Zm-2.5-.6h2.2c.3,0,.7-.1,1-.1.5,0,.6-.1.6-.7a.91.91,0,0,0-.4-.8,2,2,0,0,0-1.1-.3,2.65,2.65,0,0,0-2,1.2.91.91,0,0,0-.3.7Z"/><path class="cls-20" d="M445.2,30.9a3.43,3.43,0,0,1-2.4,1.8,4,4,0,0,1-3.3-.7,2.92,2.92,0,0,1-1.1-1.6,7.77,7.77,0,0,1-.2-1.6,4.3,4.3,0,0,1,1.3-3.4,4.11,4.11,0,0,1,2.8-1.1,2.67,2.67,0,0,1,2.8,2.5v.1c0,.3-.1.4-.5.5h-4.7a.27.27,0,0,0-.3.3v.6a4.39,4.39,0,0,0,.7,2.2,3.34,3.34,0,0,0,2.5,1.2,1.74,1.74,0,0,0,1.5-.5l.3-.3C444.9,30.5,445.2,30.5,445.2,30.9Zm-5.3-4.2h.1a25.28,25.28,0,0,0,2.8-.1.6.6,0,0,0,.4-.1.27.27,0,0,0,.3-.3,1,1,0,0,0-.5-1.1,1.91,1.91,0,0,0-1.3-.2,2.71,2.71,0,0,0-1.9,1.4l.1.4Z"/><path class="cls-20" d="M382.8,28.9a4.06,4.06,0,0,1,1-3,4.21,4.21,0,0,1,2.8-1.6,10.87,10.87,0,0,1,1.8-.1c.3.1.7.1,1,.2a.22.22,0,0,1,.2.2,1.08,1.08,0,0,1,0,1.1.47.47,0,0,1-.7.1,2.7,2.7,0,0,0-.8-.7,2.87,2.87,0,0,0-2.7.1,2.45,2.45,0,0,0-1.1,1.8,3.7,3.7,0,0,0,.6,2.9,3.14,3.14,0,0,0,2.6,1.4,2,2,0,0,0,.7-.1,2.85,2.85,0,0,0,1.4-.8c.1-.1.1-.1.1-.2l.1-.1c.1,0,.2.1.2.3v.1a2.59,2.59,0,0,1-1,1.1,3.7,3.7,0,0,1-1.9.7,4.08,4.08,0,0,1-2.8-.7,3.49,3.49,0,0,1-1.4-2.3C382.8,29.4,382.8,29.1,382.8,28.9Z"/><path class="cls-20" d="M366.1,25.5c.1-.1.4-.3.5-.4s.4-.3.7-.5a1.69,1.69,0,0,1,1-.3,1,1,0,0,1,.9.3.75.75,0,0,1,.1.5c0,.5-.2.9-.8.9a.76.76,0,0,1-.4-.1,4.88,4.88,0,0,0-.7-.3.82.82,0,0,0-1,.4.1.1,0,0,1-.1.1,1.48,1.48,0,0,0-.1.7v4.3a.76.76,0,0,0,.1.4.66.66,0,0,0,.5.4,2.77,2.77,0,0,0,.9.1.35.35,0,0,1,.2.1v.1c0,.2-.1.3-.2.2a2.77,2.77,0,0,1-.9-.1,26.13,26.13,0,0,0-2.8,0h-.2a.1.1,0,0,0-.1-.1c-.1-.2,0-.3.2-.3h.2c.6-.1.7-.3.7-.8V26a.75.75,0,0,0-.4-.7c-.1-.1-.2-.1-.3-.2a.25.25,0,0,1,.1-.4c.5-.2,1-.5,1.6-.7a.37.37,0,0,1,.3-.1c.1,0,.2-.1.2.1v1A.55.55,0,0,0,366.1,25.5Z"/><path class="cls-20" d="M391.8,28.4V25.6c0-.2-.1-.2-.3-.2H391a.35.35,0,0,1-.2-.1c0-.1.1-.2.1-.3.2-.1.5-.1.7-.3a1.21,1.21,0,0,0,.7-.7,1.79,1.79,0,0,1,.5-.7c.1-.1.1-.1.3-.1s.2.1.2.2v.8c0,.3,0,.3.3.3h2c.3,0,.4.1.4.4v.2c-.1.1-.1.2-.3.2h-2.1c-.1,0-.2.1-.3.2v4.2c0,.3.1.6.1.9a1.41,1.41,0,0,0,1.1,1,1.16,1.16,0,0,0,1-.2l.1-.1c.1-.1.1-.1.2,0h0a.37.37,0,0,1,.1.3l-.2.2a2.88,2.88,0,0,1-2.8.5,1.28,1.28,0,0,1-1-1,1.7,1.7,0,0,1-.1-.7A16.13,16.13,0,0,0,391.8,28.4Z"/><path class="cls-20" d="M352.2,32.5h-.8a6.15,6.15,0,0,1-1.3-.1h-1.5a4.87,4.87,0,0,0-1.2.1h-.1c-.2,0-.4-.1-.2-.4a.1.1,0,0,1,.1-.1c.2,0,.4-.1.7-.1.1,0,.2-.1.3-.1.3-.1.4-.4.5-.7s.1-.7.1-1V27.6c.6,0,1.1.1,1.6.1v3.1a4.33,4.33,0,0,1,.1.5,1.21,1.21,0,0,0,.7.7,2.2,2.2,0,0,0,.8.1h.1c.2,0,.3.1.2.4C352.2,32.4,352.2,32.5,352.2,32.5Z"/><path d="M407,37.1h.8V39a.6.6,0,0,0,.1.4.52.52,0,0,0,.7.3.75.75,0,0,0,.5-.7V37h.8v3.3h-.7c0-.1-.1-.2-.1-.4l-.1.1a1.22,1.22,0,0,1-1.6.1.1.1,0,0,1-.1-.1,1.14,1.14,0,0,1-.3-.8,7.39,7.39,0,0,1,0-2.1Z"/><path d="M436.6,38.9h-2.2a.75.75,0,0,0,.4.7,1.48,1.48,0,0,0,.7.1c.3,0,.6-.1.9-.1a3.54,3.54,0,0,1,.1.6c-.1,0-.1,0-.1.1a5.28,5.28,0,0,1-1.3.1,1.61,1.61,0,0,1-1.3-1.2,1.66,1.66,0,0,1,2.1-2.1c.5.1.7.6.8,1S436.6,38.6,436.6,38.9Zm-2.2-.6h1.4a.56.56,0,0,0-.6-.7c-.4,0-.7.1-.8.7Z"/><path d="M424.7,38.9a.85.85,0,0,0,.7.8,1.7,1.7,0,0,0,1,0c.1,0,.1,0,.2-.1.1.1.1.4.1.6-.1,0-.1,0-.1.1a5.28,5.28,0,0,1-1.3.1,1.61,1.61,0,0,1-1.3-1.2,2,2,0,0,1,.4-1.7,1.45,1.45,0,0,1,2.1-.2,1.61,1.61,0,0,1,.5,1.1v.2c0,.3,0,.3-.3.3h-2Zm1.4-.6a.51.51,0,0,0-.5-.7h-.1a.77.77,0,0,0-.8.7Z"/><path d="M430.9,36.9h.4v-.1a1.48,1.48,0,0,0,.1-.7,1,1,0,0,1,.9-.7,1.13,1.13,0,0,1,.8.1,2,2,0,0,1-.1.7c-.2,0-.6-.1-.7.1s-.1.5-.1.7h.7c.1.2,0,.4,0,.7h-.7v2.7h-.8V37.7H431v-.8Z"/><path d="M403.3,40.3c0-.2.1-.5.1-.7.1,0,.4.1.6.1a.75.75,0,0,0,.7-.5v-.1a1.48,1.48,0,0,0,.1-.7V35.6h.7v3a2.77,2.77,0,0,1-.1.9,1.34,1.34,0,0,1-.6.7A2.52,2.52,0,0,1,403.3,40.3Z"/><path d="M413.4,37.2a1.27,1.27,0,0,0-.1.6.37.37,0,0,0-.3-.1h-.6a.35.35,0,0,0-.2.1v.1a.35.35,0,0,0,.4.4c.1.1.4.1.5.2a.94.94,0,0,1,.5.9.76.76,0,0,1-.6.8c-.1.1-.4.1-.6.1a1.47,1.47,0,0,1-1.1-.2c.1-.1.1-.4.1-.6a1.48,1.48,0,0,0,.7.1h.5a.35.35,0,0,0,.2-.1v-.1a.35.35,0,0,0-.4-.4c-.1-.1-.4-.1-.5-.2a.79.79,0,0,1-.5-.8,1,1,0,0,1,.6-.9,3.4,3.4,0,0,1,1-.1C413,36.9,413.2,37.1,413.4,37.2Z"/><path d="M416.4,40.3a1.7,1.7,0,0,1-1,0,1.06,1.06,0,0,1-.6-.7,5.64,5.64,0,0,1-.1-.7V37.6h-.5v-.7h.5v-.6c.2-.1.6-.1.8-.2v.8h.8c.1.2,0,.4,0,.7h-.8v1.5c0,.4.1.6.6.5h.1A1,1,0,0,1,416.4,40.3Z"/><path d="M443.3,39.6v.7a1.7,1.7,0,0,1-1,0,.66.66,0,0,1-.4-.5c-.1-.1-.1-.4-.1-.5V37.7h-.5V37h.5v-.6c.2-.1.6-.1.8-.2V37h.8v.7h-.7v1.6c.1.2.2.3.6.3C443,39.8,443.2,39.6,443.3,39.6Z"/><path d="M440.2,37.2a1.48,1.48,0,0,0-.1.7c-.6-.1-1-.2-1.5.3a1.48,1.48,0,0,0,0,1.3c.2.3.7.5,1.5.2,0,.1.1.4.1.6a3.4,3.4,0,0,1-1,.1,1.2,1.2,0,0,1-1.3-.6l-.1-.1a1.86,1.86,0,0,1-.1-1.9,1.5,1.5,0,0,1,1.4-1,3.4,3.4,0,0,1,1,.1C440.2,37.1,440.2,37.1,440.2,37.2Z"/><path d="M428.9,40.3H428V37h.7v.6a1.09,1.09,0,0,1,1-.7v.7h-.3a.9.9,0,0,0-.6.6c0,.1-.1.2-.1.4v1.7Z"/><path class="cls-21" d="M175,20.3a9.45,9.45,0,1,1,9.5,9.4h-.1A9.59,9.59,0,0,1,175,20.3Z"/><path class="cls-22" d="M181.7,25.5a7.89,7.89,0,0,1,.3-1.3c.1-.1.1-.1-.1-.1-.7-.1-1.5-.3-2.3-.5-.1,0-.1,0-.1-.1.1-.3.1-.6.2-1,0-.1,0-.1.1-.1a4.33,4.33,0,0,0,.5.1c.2,0,.4-.1.4-.3s.1-.2.1-.4c.3-1.5.7-3,1-4.5a.76.76,0,0,1,.1-.4c.1-.2-.1-.4-.3-.4s-.4-.1-.5-.1-.1,0-.1-.1c.1-.3.1-.7.2-1l.1-.1a18.92,18.92,0,0,1,2.3.5c.1,0,.1,0,.1-.1l.2-1.1c0-.1,0-.1.1-.1l1,.2a.1.1,0,0,1,.1.1c-.1.4-.1.7-.2,1.2,0,.1,0,.1.1.1a.75.75,0,0,0,.5.1c.1,0,.1,0,.1-.1l.2-1.1c0-.1,0-.1.1-.1l.9.2c.1,0,.1,0,.1.1-.1.4-.1.8-.2,1.2,0,.1,0,.1.1.1a2.12,2.12,0,0,1,1.3,1,4.88,4.88,0,0,1,.3.7,2.15,2.15,0,0,1-.4,1.6,4.13,4.13,0,0,1-1.1.7.76.76,0,0,0-.4.1c.1.1.2.1.4.2a1.58,1.58,0,0,1,.7.7,2.38,2.38,0,0,1,.3,1.2,2.22,2.22,0,0,1-1.3,1.9,3,3,0,0,1-1.6.2c-.1,0-.1,0-.1.1a6.11,6.11,0,0,1-.3,1.3l-1.2-.2v-.1l.2-1.1c.1-.1,0-.1-.1-.1a.6.6,0,0,0-.4-.1c-.1,0-.1-.1-.2.1a5.27,5.27,0,0,1-.3,1.2C182.5,25.8,182.1,25.6,181.7,25.5Zm1.5-3.8c0,.2-.1.4-.1.7,0,.1-.1.2-.1.4s.1.1.1.2c.3.1.6.1,1,.2.2,0,.5.1.8.1a1.3,1.3,0,0,0,1.2-1.3.37.37,0,0,0-.1-.3,1.58,1.58,0,0,0-.7-.7c-.1-.1-.4-.1-.6-.1a5.27,5.27,0,0,1-1.2-.3h-.1A6.53,6.53,0,0,1,183.2,21.7Zm.8-3.5-.2.9c0,.1,0,.1.1.1s.4.1.7.1a3.75,3.75,0,0,0,1,.1c.5,0,.9-.1,1-.6s.1-.9-.3-1.1a6.89,6.89,0,0,0-.8-.3c-.4-.1-.7-.1-1.2-.2-.1,0-.1,0-.1.1C184.1,17.7,184.1,17.9,184,18.2Z"/><path class="cls-23" d="M195,39.6a9.43,9.43,0,0,0,9.4-9.3,9.26,9.26,0,0,0-9.3-9.2H195a9.25,9.25,0,1,0,0,18.5Z"/><path class="cls-22" d="M191.1,31.9h0c.1-.4.1-.7.2-1.2,0-.1,0-.1.1-.1h0a3,3,0,0,0,1-.4c.1,0,.1,0,.1-.1h0c.4-1.6,1.3-5.1,1.3-5.1h3s-.7,2.5-1,3.7a.37.37,0,0,1-.1.3l1.3-.4v.1c-.1.4-.1.7-.2,1,0,.1,0,.1-.1.1h0c-.4.1-.8.3-1.3.4-.1,0-.1,0-.1.1-.1.7-.4,1.4-.5,2.2,0,.1-.1.2-.1.4h5l-.1.1c-.1.5-.3,1.1-.4,1.7h-8L192,32c0-.1.1-.4.1-.5A5.13,5.13,0,0,1,191.1,31.9Z"/><path class="cls-24" d="M164.6,30.3a9.45,9.45,0,1,1,9.5,9.4H174a9.43,9.43,0,0,1-9.5-9.2C164.6,30.4,164.6,30.4,164.6,30.3Z"/><path class="cls-22" d="M173,29.2V28h-2.7V26.2h7.4V28H175v1.2c2.2.1,3.9.5,3.9,1s-1.6,1-3.9,1V35h-1.9V31.3c-2.2-.1-3.9-.5-3.9-1S170.9,29.3,173,29.2Zm0,1.8h1.9c1.9-.1,3.4-.4,3.4-.8s-1.5-.7-3.4-.8v1.3H173V29.4c-1.9.1-3.4.4-3.4.8S171.1,30.9,173,31Z"/><path class="cls-25" d="M175,41.3a9.47,9.47,0,0,1,9.5-9.4,9.4,9.4,0,0,1-.2,18.8A9.43,9.43,0,0,1,175,41.3Z"/><path class="cls-26" d="M189.9,42.4l-5.5,2-5.5-2,5.5-9.4Z"/><path class="cls-26" d="M189.7,43.6l-5.2,6.1-5.3-6.1,5.2,1.9Z"/><path class="cls-27" d="M184.4,45.4l5.3-1.9-5.2,6.1Z"/><path class="cls-27" d="M189.9,42.4l-5.5,2V33.1Z"/><path d="M212.4,31a5.55,5.55,0,0,1,.7-2.8,4.36,4.36,0,0,1,1.9-1.9,5.94,5.94,0,0,1,2.6-.7,6.41,6.41,0,0,1,3,.8,4.85,4.85,0,0,1,1.9,2.3h-1.6a2.54,2.54,0,0,0-1.3-1.4,3.86,3.86,0,0,0-3.8,0,3,3,0,0,0-1.3,1.4,4.19,4.19,0,0,0-.5,2.2,4.19,4.19,0,0,0,.5,2.2,3,3,0,0,0,1.3,1.4,3.86,3.86,0,0,0,3.8,0,4.36,4.36,0,0,0,1.3-1.4h1.6a3.94,3.94,0,0,1-1.9,2.3,6.11,6.11,0,0,1-3,.8,4.84,4.84,0,0,1-2.6-.7,5.74,5.74,0,0,1-1.9-1.9A4.84,4.84,0,0,1,212.4,31Zm13.4-1.7a3.46,3.46,0,0,1,1-1.1,4.19,4.19,0,0,1,1.6-.4v1.4H228c-1.5,0-2.3.8-2.3,2.5v4.5h-1.3V28h1.3v1.3ZM237.1,28l-4.9,12h-1.4l1.6-3.9-3.3-8h1.5l2.5,6.6,2.5-6.6h1.5Zm2.6,1.5a4.56,4.56,0,0,1,1.2-1.2,4.06,4.06,0,0,1,1.9-.4,3.2,3.2,0,0,1,1.9.5,4,4,0,0,1,1.4,1.5,4.19,4.19,0,0,1,.5,2.2,4.13,4.13,0,0,1-1.9,3.7,3.39,3.39,0,0,1-1.9.5,4.33,4.33,0,0,1-1.9-.4,3.45,3.45,0,0,1-1.2-1.2V40h-1.3V28h1.3Zm5.6,2.6a2.93,2.93,0,0,0-.4-1.6,2.41,2.41,0,0,0-1-1,2.8,2.8,0,0,0-2.8,0,2.41,2.41,0,0,0-1,1,4.19,4.19,0,0,0-.4,1.6,2.93,2.93,0,0,0,.4,1.6,2.41,2.41,0,0,0,1,1,2.8,2.8,0,0,0,2.8,0,2.41,2.41,0,0,0,1-1A3.17,3.17,0,0,0,245.3,32.1Zm4.8-3V34a1.88,1.88,0,0,0,.2.8,1.34,1.34,0,0,0,.9.2h1v1.1H251a2.05,2.05,0,0,1-1.7-.5,2.11,2.11,0,0,1-.6-1.7V29h-1V27.9h1V25.8H250v2.1h2.2V29l-2.1.1Zm7.4,7.2a4.06,4.06,0,0,1-2.1-.5,5.36,5.36,0,0,1-1.5-1.5,5.08,5.08,0,0,1,0-4.5,5.36,5.36,0,0,1,1.5-1.5,4.46,4.46,0,0,1,4.2,0,5.36,5.36,0,0,1,1.5,1.5,4.42,4.42,0,0,1,.5,2.2,4,4,0,0,1-.6,2.2,5.36,5.36,0,0,1-1.5,1.5A3.12,3.12,0,0,1,257.5,36.3Zm0-1.2a2,2,0,0,0,1.3-.4,2.41,2.41,0,0,0,1-1,3.4,3.4,0,0,0,0-3.2,2.41,2.41,0,0,0-1-1,3.26,3.26,0,0,0-1.3-.4,2,2,0,0,0-1.3.4,3.18,3.18,0,0,0-1,1,4.19,4.19,0,0,0-.4,1.6,3.29,3.29,0,0,0,.4,1.7,2,2,0,0,0,1,1A2.77,2.77,0,0,0,257.5,35.1Zm8.8,1.2a4.67,4.67,0,0,1-1.7-.3,3.45,3.45,0,0,1-1.2-.9,2,2,0,0,1-.4-1.3h1.4a2.07,2.07,0,0,0,.6,1,3.26,3.26,0,0,0,1.3.4,1.92,1.92,0,0,0,1.2-.4,1,1,0,0,0,.4-.9c0-.3-.1-.7-.4-.8a6.61,6.61,0,0,0-1.5-.5c-.5-.1-1-.3-1.5-.4a2.29,2.29,0,0,1-1-.7,2,2,0,0,1-.4-1.3,1.5,1.5,0,0,1,.4-1.1,1.89,1.89,0,0,1,1-.8,4.15,4.15,0,0,1,1.6-.3,3.06,3.06,0,0,1,2.2.7,2.85,2.85,0,0,1,.9,1.9h-1.3a1.23,1.23,0,0,0-.5-1,2.84,2.84,0,0,0-1.3-.4,2.66,2.66,0,0,0-1.2.3c-.3.1-.4.5-.4.8a1.85,1.85,0,0,0,.2.7,4.35,4.35,0,0,0,.7.4,7.6,7.6,0,0,1,1.1.4c.4.1,1,.3,1.4.4a2.29,2.29,0,0,1,1,.7,1.75,1.75,0,0,1,.4,1.2,1.92,1.92,0,0,1-.4,1.2,1.59,1.59,0,0,1-1,.8A8.75,8.75,0,0,1,266.3,36.3Z"/><path class="cls-28" d="M694.6.5H866.3A3.63,3.63,0,0,1,870,4.2V110.1a3.63,3.63,0,0,1-3.7,3.7H694.6a3.63,3.63,0,0,1-3.7-3.7V4.2A3.69,3.69,0,0,1,694.6.5Z"/><path class="cls-29" d="M719.1,25.9l9.6,8.4,1.4-4.6,9.5,9.8a.76.76,0,0,1-.4-.2l-3.1-1.4-1.3-.5h-.2c-.5.3-1,.7-1.6,1a12.24,12.24,0,0,1-2.7.9,11.3,11.3,0,0,1-2.6,0,17.29,17.29,0,0,1-3.1-.7,8,8,0,0,1-3.6-2.7,10.78,10.78,0,0,1-2.1-4.3,10.57,10.57,0,0,1-.2-3.1A4.49,4.49,0,0,1,719.1,25.9Z"/><path class="cls-29" d="M737,35.1l-8.9-14.4-.9,3.9-7.9-8.4.7.3,2.6,1.5,2.2,1.4h.2a26.81,26.81,0,0,1,2.7-.7,10.92,10.92,0,0,1,3.6.2,8.7,8.7,0,0,1,4.3,2.1,9.51,9.51,0,0,1,2.7,3.6,10,10,0,0,1,.4,7.2,9.06,9.06,0,0,1-1.3,2.6A4.35,4.35,0,0,0,737,35.1Z"/><path class="cls-29" d="M828.5,34.3H817.2c-.3,0-.3-.1-.3-.4.4-2.2.9-4.4,1.4-6.7.2-1,.4-2.2.7-3.2,0-.3.1-.3.4-.3H842c.3,0,.3.1.3.3-.7,3.4-1.3,6.6-1.9,9.9,0,.3-.1.3-.4.3Zm4.4-1.6c0-.1,0-.1-.1-.2-.7-2.1-1.5-4-2.2-6-.3-.7-.3-.7-1-.7-.2,0-.4.1-.4.3-.5,1.5-1.2,3.1-1.7,4.6a10.66,10.66,0,0,1-.7,1.9c0,.1-.1.2,0,.2h1c.1,0,.1-.1.1-.2a10.37,10.37,0,0,1,.4-1,.32.32,0,0,1,.3-.3h2.2a.27.27,0,0,1,.3.3,2.93,2.93,0,0,0,.3,1,.22.22,0,0,0,.2.2h1.3Zm-11.2-3.6v2.7c0,1,0,1,1,1a.27.27,0,0,0,.3-.3V30.6c0-.3.1-.4.3-.4h1.6a2.34,2.34,0,0,0,2.1-2.1,2,2,0,0,0-1.9-2.2H825c-1-.1-2.1,0-3.1-.1a.27.27,0,0,0-.3.3v3Zm13.5-.1a17.91,17.91,0,0,0-1.2-2.4c-.4-1-.4-1-1.4-1-.3,0-.3,0-.2.3.5,1,1,1.9,1.5,2.9a5.13,5.13,0,0,1,.7,2.4v.5c0,1,0,1,1,1a.27.27,0,0,0,.3-.3V30.3a.6.6,0,0,1,.1-.4l2.1-4c.1-.2.1-.2-.2-.3a1.08,1.08,0,0,0-1.4.7h0c0,.1-.1.2-.1.3s-.1.2-.1.3Z"/><path class="cls-30" d="M803.6,33.9h-3.1c-.2,0-.2-.1-.2-.3-.4-1-.9-2.2-1.3-3.2,0-.2-.2-.3-.4-.3-.7,0-.7,0-.7.7v2.8a.27.27,0,0,1-.3.3h-2.5c-.2,0-.3,0-.3-.2V24.2a.27.27,0,0,1,.3-.3H801a4.07,4.07,0,0,1,1.9,1.3,2.78,2.78,0,0,1,0,3.8,3,3,0,0,1-.7.5c-.3.1-.3.3-.2.5.5,1.2,1,2.4,1.6,3.6Zm-6-7v.7c0,.2.1.2.3.2h1.3a1,1,0,0,0,1-.9.92.92,0,0,0-.9-1h-1.4a.27.27,0,0,0-.3.3Z"/><path class="cls-30" d="M770.2,27.5v6c0,.2,0,.3-.3.3H768c-.3,0-.3-.1-.3-.3V24.1c0-.2,0-.2.2-.2h2.5c.1,0,.3.1.3.2,1,1.6,1.9,3.4,2.8,5,0,.1.1.1.2.3V24.2c0-.1.1-.4.2-.4.7-.7,1.5-1.4,2.2-2.2V33.7c0,.3-.1.3-.3.3h-1.9c-.2,0-.4-.1-.4-.3-1-1.9-2.1-3.8-3.1-5.7A.37.37,0,0,0,770.2,27.5Z"/><path class="cls-30" d="M749.8,28.8V24c0-.3.1-.3.3-.3h2.2a.27.27,0,0,1,.3.3v3.2c0,.2,0,.3.3.3h1.9c.3,0,.3-.1.3-.3V24.1c0-.2,0-.3.3-.3h2.5a.27.27,0,0,1,.3.3v9.4c0,.2,0,.2-.2.2h-2.6c-.2,0-.3-.1-.2-.3V30c0-.2,0-.3-.3-.3h-1.7a.27.27,0,0,0-.3.3v3.2c0,.3-.1.4-.4.4h-2.2c-.3,0-.3,0-.3-.3A30.3,30.3,0,0,1,749.8,28.8Z"/><path class="cls-30" d="M777.2,28.8V24.2a.27.27,0,0,1,.3-.3h4.2a4.38,4.38,0,0,1,1.9.7,5.2,5.2,0,0,1,1.6,7.1l-.1.1c-.1.1-.2.2-.2.3a6.33,6.33,0,0,1-2.4,1.6c-.1,0-.3.1-.4.1h-4.5a.27.27,0,0,1-.3-.3C777.2,31.9,777.2,30.3,777.2,28.8Zm2.9,0v2.5a.37.37,0,0,0,.1.3,1.58,1.58,0,0,0,1.9-1,5,5,0,0,0,0-3.8,1.09,1.09,0,0,0-1.3-.7h-.5c-.2,0-.3,0-.3.3a20.08,20.08,0,0,1,.1,2.4Z"/><path class="cls-30" d="M786.6,28.8V24c0-.3.1-.3.3-.3h6.8a.27.27,0,0,1,.3.3v1.6c0,.3,0,.4-.3.4h-3.9c-.3,0-.3.1-.3.3v.9a.27.27,0,0,0,.3.3h3.1c.3,0,.3.1.3.3v1.6a.27.27,0,0,1-.3.3h-3.1c-.3,0-.3.1-.3.3v1c0,.3,0,.4.3.4h3.9c.2,0,.3,0,.3.3v1.9c0,.2,0,.2-.2.2h-7c-.2,0-.2-.1-.2-.3Z"/><path class="cls-30" d="M767.1,27.8V31a2.81,2.81,0,0,1-1,2.1,4.17,4.17,0,0,1-2.4.9,8.2,8.2,0,0,1-3.1-.3,3.32,3.32,0,0,1-1.4-1,2.39,2.39,0,0,1-.5-1.4V24.4a.27.27,0,0,1,.3-.3h2.2c.3,0,.3.1.3.3v6.3a1,1,0,0,0,.3.9,1.59,1.59,0,0,0,1.2.4,1.45,1.45,0,0,0,1-.7.37.37,0,0,0,.1-.3V24.5c0-.3.1-.4.4-.4h1.7c.3,0,.3.1.3.3A6.65,6.65,0,0,1,767.1,27.8Z"/><path class="cls-30" d="M804.1,23.9h3.6c.1,0,.3.1.3.2l3.2,4.6a.3.3,0,0,1,0,.4l-3.4,4.8c-.1.1-.2.2-.3.2l-5.3,2.4h-.1l1-1.3c1.4-1.9,2.9-4,4.3-6,.1-.1.2-.4,0-.5-1-1.5-2.2-3.1-3.2-4.5l-.1-.3Z"/><path class="cls-30" d="M744.3,36.3V26.5c0-.3-.1-.3-.3-.3h-1.5c-.2,0-.3-.1-.2-.2V24c0-.2.1-.2.2-.2h6.6c.2,0,.2.1.2.2v2c0,.2,0,.2-.2.2h-1.5c-.3,0-.3.1-.3.3v7a.76.76,0,0,1-.2.5l-2.4,2.4C744.4,36.3,744.4,36.5,744.3,36.3Z"/><path class="cls-30" d="M811.9,28.1,810,25.6c-.1-.1,0-.2,0-.3l1-1.4.2-.2,5.3-2.4h.1Z"/><path class="cls-30" d="M811.9,29.3l3.1,4.3a.37.37,0,0,1-.3.1h-3.1c-.1.1-.3,0-.4-.1-.3-.4-.7-.9-1-1.3a.3.3,0,0,1,0-.4C810.7,31.1,811.3,30.2,811.9,29.3Z"/><path class="cls-31" d="M832.9,32.7h-1c-.2,0-.2-.1-.2-.2-.1-.3-.2-.7-.3-1s-.1-.3-.3-.3h-2.2a.27.27,0,0,0-.3.3,3,3,0,0,1-.4,1c0,.1,0,.2-.1.2h-1c-.2,0,0-.2,0-.2a10.66,10.66,0,0,1,.7-1.9c.5-1.5,1.2-3.1,1.7-4.6,0-.2.2-.3.4-.3.7,0,.7,0,1,.7.7,2.1,1.5,4,2.2,6C832.8,32.5,832.8,32.6,832.9,32.7Zm-3.2-5.4c-.3.9-.7,1.7-1,2.6-.1.2,0,.2.2.2h1.5c.2,0,.2,0,.2-.2-.3-.9-.6-1.8-.9-2.6Z"/><path class="cls-31" d="M821.7,29.1V26a.27.27,0,0,1,.3-.3,16.33,16.33,0,0,1,3.1.1,2.16,2.16,0,0,1-.2,4.3h-1.6c-.3,0-.3.1-.3.4v1.9c0,.2,0,.3-.3.3-1,0-1,0-1-1V29.1Zm1.2-1.3v1c0,.1,0,.2.2.2h1.5a.92.92,0,0,0,1-.9v-.2a1.11,1.11,0,0,0-1-1.2h-1.5c-.2,0-.2.1-.2.3A2.15,2.15,0,0,1,822.9,27.8Z"/><path class="cls-31" d="M835.2,29l1-2.2c0-.1.1-.2.1-.3a1,1,0,0,1,1-1h.2a.37.37,0,0,1,.3.1c.3.1.3.1.2.3l-2.1,4a.6.6,0,0,0-.1.4v2.1a.27.27,0,0,1-.3.3c-1,0-1,0-1-1v-.5a3.1,3.1,0,0,0-.7-2.4c-.5-1-1-1.9-1.5-2.9-.2-.3-.2-.3.2-.3,1,0,1,0,1.4,1A9.21,9.21,0,0,1,835.2,29Z"/><path class="cls-29" d="M829.7,27.3a26.72,26.72,0,0,1,.9,2.6c.1.2,0,.2-.2.2h-1.5c-.1,0-.2,0-.2-.2C829,29,829.4,28.1,829.7,27.3Z"/><path class="cls-29" d="M822.9,27.8v-1c0-.3,0-.3.2-.3h1.5a1.19,1.19,0,0,1,1,1.2h0a1.27,1.27,0,0,1-1,1.2H823c-.2,0-.2-.1-.2-.2Z"/><path class="cls-32" d="M506.8,0H678.5a3.63,3.63,0,0,1,3.7,3.7V109.6a3.63,3.63,0,0,1-3.7,3.7H506.8a3.63,3.63,0,0,1-3.7-3.7V3.7A3.63,3.63,0,0,1,506.8,0Z"/><path class="cls-33" d="M586.4,24.4a3.06,3.06,0,0,0-2.3-2.9,6.75,6.75,0,0,0-1.4-.2H579v1.9l1.6,2.5H579V32h2.1V27.7h1L584,32h2.5l-2.2-4.6A2.76,2.76,0,0,0,586.4,24.4Zm-3.9-1.2c.7,0,1.7.1,1.7,1.2s-1.5,1.2-1.5,1.2l-1.4-2.4Z"/><polygon class="cls-33" points="616 21.4 614 21.4 614 30 614 32.1 614 32.1 616 32.1 616 32.1 619.7 32.1 619.7 30 616 30 616 21.4"/><polygon class="cls-33" points="642.8 21.4 640.9 24.9 639.1 21.4 636.7 21.4 639.9 27.3 639.9 32.1 642 32.1 642 27.3 645.2 21.4 642.8 21.4"/><polygon class="cls-33" points="587.1 23.5 589.4 23.5 589.4 32.1 591.4 32.1 591.4 23.5 593.7 23.5 593.7 21.4 587.1 21.4 587.1 23.5"/><polygon class="cls-33" points="573.2 23.3 574.3 23.3 574.3 30 573.2 30 573.2 32.1 574.3 32.1 576.4 32.1 577.5 32.1 577.5 30 576.4 30 576.4 23.3 577.5 23.3 577.5 21.3 573.2 21.3 573.2 23.3"/><path class="cls-33" d="M568.6,32.1l4.2-10.8h-8.6Zm0-5.6-1.3-3.2h2.5Z"/><path class="cls-33" d="M604.4,32.1h2.2l.1-.7h3.9l.1.7h2.2l-4.2-10.6Zm2.9-2,1.3-3.2,1.3,3.2Z"/><path class="cls-33" d="M628.8,32.1H631l.1-.7H635l.1.7h2.2l-4.2-10.6Zm3-1.9L633,27l1.3,3.2Z"/><path class="cls-33" d="M626.5,21.5a6.75,6.75,0,0,0-1.4-.2h-3.6v1.9l1.6,2.5h-1.6V32h2.1V27.7h1.6c1,0,3.8-.2,3.8-3.2A3.62,3.62,0,0,0,626.5,21.5Zm-1.4,4.1-1.4-2.4H625c.7,0,1.7.1,1.7,1.2C626.5,25.5,625.1,25.6,625.1,25.6Z"/><path class="cls-33" d="M595,28a4.4,4.4,0,1,0,8.8,0V21.4h-8.7L595,28Zm2.1-4.5h4.6V28a2.3,2.3,0,0,1-4.6,0V23.5Z"/><path class="cls-34" d="M540.1,26.8a9.5,9.5,0,1,1,9.5,9.5A9.43,9.43,0,0,1,540.1,26.8Z"/><path class="cls-22" d="M549.6,23H543a.1.1,0,0,0-.1.1l3.3,8.6c0,.1.1.1.1,0l3.3-8.6C549.7,23.1,549.7,23,549.6,23Zm-3.3,4.8-1.2-3.4h2.4Z"/><path class="cls-22" d="M554.5,23.2a4.1,4.1,0,0,0-1.1-.1h-2.8v1.5l1.2,1.9h-1.2v4.8h1.6V28h1.2c.7,0,2.9-.1,2.9-2.5A2.42,2.42,0,0,0,554.5,23.2Zm-1.1,3.2-1.1-1.9h1c.6,0,1.3.1,1.3.9S553.4,26.4,553.4,26.4Z"/></svg>