<svg id="Layer_1" data-name="Layer 1" xmlns="http://www.w3.org/2000/svg" xmlns:xlink="http://www.w3.org/1999/xlink" viewBox="0 0 768.4 257.2"><defs><style>.cls-1{fill:url(#linear-gradient);}.cls-2{fill:url(#linear-gradient-2);}.cls-3{fill:#f5a924;}.cls-4{fill:#f5a823;}.cls-5{fill:url(#linear-gradient-3);}.cls-6{fill:url(#linear-gradient-4);}.cls-7{fill:url(#linear-gradient-5);}.cls-8{fill:#215aff;}.cls-9{fill:url(#linear-gradient-6);}.cls-10{fill:#54a4e9;}.cls-11{fill:#3e3e3e;}.cls-12{fill:#0081c7;}.cls-13{fill:#1ab9e9;}.cls-14{fill:#0e9347;}.cls-15{fill:#3bb54a;}.cls-16{fill:#89c763;}.cls-17{fill:#eab633;}.cls-18{fill:#ffbeaa;}.cls-19{fill:#f15a2a;}.cls-20{fill:#7a7a7a;}.cls-21{fill:#fefefe;}.cls-22{fill:url(#linear-gradient-7);}.cls-23{fill:url(#linear-gradient-8);}.cls-24{fill:#fff;}.cls-25{fill:#345d9d;}.cls-26{fill:#53ae94;}.cls-27{fill:#dde1ef;}.cls-28,.cls-29{fill:#062652;}.cls-28{fill-opacity:0.7;}.cls-30{fill:url(#linear-gradient-9);}.cls-31{fill:#f01010;}.cls-32{fill:url(#linear-gradient-10);}.cls-33{fill:#f29e24;}.cls-34{stroke:#dde1ef;stroke-width:0.33px;fill:url(#linear-gradient-11);}</style><linearGradient id="linear-gradient" x1="666.45" y1="1041.6" x2="666.45" y2="1095.05" gradientTransform="translate(-283.5 -969.4)" gradientUnits="userSpaceOnUse"><stop offset="0.21" stop-color="#fff"/><stop offset="1" stop-color="#fff" stop-opacity="0"/></linearGradient><linearGradient id="linear-gradient-2" x1="893.75" y1="1041.6" x2="893.75" y2="1095.05" xlink:href="#linear-gradient"/><linearGradient id="linear-gradient-3" x1="408.2" y1="1103.4" x2="408.2" y2="1159.35" xlink:href="#linear-gradient"/><linearGradient id="linear-gradient-4" x1="667.2" y1="1103.4" x2="667.2" y2="1159.35" xlink:href="#linear-gradient"/><linearGradient id="linear-gradient-5" x1="927.2" y1="1103.4" x2="927.2" y2="1159.35" xlink:href="#linear-gradient"/><linearGradient id="linear-gradient-6" x1="412.73" y1="1128.1" x2="429.98" y2="1128.1" gradientTransform="translate(-283.5 -969.4)" gradientUnits="userSpaceOnUse"><stop offset="0" stop-color="#215aff"/><stop offset="0.2" stop-color="#215aff"/><stop offset="0.73" stop-color="#215aff" stop-opacity="0"/></linearGradient><linearGradient id="linear-gradient-7" x1="554.85" y1="969.4" x2="554.85" y2="1022.85" xlink:href="#linear-gradient"/><linearGradient id="linear-gradient-8" x1="517.96" y1="1003.12" x2="522.71" y2="980.92" gradientTransform="translate(-283.5 -969.4)" gradientUnits="userSpaceOnUse"><stop offset="0" stop-color="#f28c10"/><stop offset="1" stop-color="#ffb55c"/></linearGradient><linearGradient id="linear-gradient-9" x1="780.55" y1="969.4" x2="780.55" y2="1022.85" xlink:href="#linear-gradient"/><linearGradient id="linear-gradient-10" x1="439.05" y1="1041.6" x2="439.05" y2="1095.05" xlink:href="#linear-gradient"/><linearGradient id="linear-gradient-11" x1="384.96" y1="1311.54" x2="390.23" y2="1287.09" gradientTransform="translate(-290 -1200)" xlink:href="#linear-gradient-8"/></defs><path class="cls-1" d="M279.7,72.2H486.2a5,5,0,0,1,5,5V184.9a5,5,0,0,1-5,5H279.7a5,5,0,0,1-5-5V77.2A5,5,0,0,1,279.7,72.2Z"/><path class="cls-2" d="M507,72.2H713.5a5,5,0,0,1,5,5V184.9a5,5,0,0,1-5,5H507a5,5,0,0,1-5-5V77.2A5,5,0,0,1,507,72.2Z"/><path class="cls-3" d="M652.9,91.2v5.6c0,.7.1.9.9.9h5.1c.5,0,.9.1.8.8a3.34,3.34,0,0,0,1.4,3.3h-6.4c-1.8,0-1.8,0-1.8,1.6v3a3.2,3.2,0,0,0,3.1,3.2h2.5c.5,0,.7.1.7.6V113c0,.3,0,.6-.5.6a23.81,23.81,0,0,1-3.8-.1,7.17,7.17,0,0,1-5.9-7v-4c0-.6-.2-.6-.7-.6h-8.9c-.6,0-1.3.2-1.3,1s.5,1.1,1.3,1.1h3.9a4.78,4.78,0,0,1,4.9,4.6v.1a5,5,0,0,1-4.9,5H632a1.4,1.4,0,0,1-1.2-.9c-.5-.8-.8-.9-1.6-.3a6.46,6.46,0,0,1-7.7.4,7,7,0,0,1-3.3-7,4.66,4.66,0,0,1,1.3-2.5,10.3,10.3,0,0,1,2.5-2.6c.3.3.2.6.2.9v4.9a3.1,3.1,0,0,0,2.7,3.3h.3a3.23,3.23,0,0,0,3-3.4V98.6c0-.6.1-.9.9-.9h2.4c.6,0,.8.2.8.8v9.8c0,.8.1,1.1,1.1,1.1,3-.1,6.1,0,9.2,0h.8a1,1,0,0,0,.9-1c0-.5-.5-.6-.9-.6h-4a5.06,5.06,0,0,1-5.2-5,4.91,4.91,0,0,1,4.7-5.1h9.5c.8,0,1-.2,1-1V91.2Z"/><path class="cls-4" d="M584.2,119.2v-3.4c0-.4.1-.5.5-.5h1.9a3.43,3.43,0,0,0,3.2-2.3c-.8.1-1.3.6-2.1.6a6.75,6.75,0,0,1-7.4-6.1h0c-.2-3.2-.1-6.2-.1-9.4,0-.6.2-.6.7-.6h2.5c.6,0,.9.1.9.9v8a3.1,3.1,0,0,0,2.7,3.3h.3a3.28,3.28,0,0,0,3-3.3V98.6c0-.8.1-1.1,1-1.1h2.4c.5,0,.6.1.6.6,0,4.6,0,9.2-.1,13.9a7.73,7.73,0,0,1-5.4,7.1,7.61,7.61,0,0,1-2.1.3A18.09,18.09,0,0,1,584.2,119.2Z"/><path class="cls-3" d="M665.8,91.6a2.54,2.54,0,0,1,1.7,3.3c-.1.2-.2.5-.3.7-.2.4-.2.5.1.9a2.84,2.84,0,0,1,.3,4,2.29,2.29,0,0,1-1,.7,4.59,4.59,0,0,1-4.4-.1,2.76,2.76,0,0,1-1.3-3.6,2.18,2.18,0,0,1,.7-.9c.2-.2.5-.3.2-.8-1.1-1.9-.5-3.5,1.5-4.3A4.24,4.24,0,0,1,665.8,91.6ZM664.4,97a1.93,1.93,0,0,0-1.9,1.5c0,.8.9,1.4,1.9,1.4s1.9-.6,1.9-1.4A1.72,1.72,0,0,0,664.4,97Zm0-3.8c-.8,0-1.4.6-1.3,1.2a1.22,1.22,0,0,0,1.3,1.1h0a1.22,1.22,0,0,0,1.3-1.1c.1-.6-.6-1.2-1.3-1.2Z"/><path class="cls-3" d="M561.2,97a8.2,8.2,0,0,0-7.5-4.9c-2.8-.1-5.8,0-8.6-.1v21.2h3.6c.5,0,.8-.1.8-.8v-2.9c0-.5.1-.8.8-.8H554A8.07,8.07,0,0,0,561.2,97Zm-7.6,7.8h-3.7c-.5,0-.6-.2-.6-.6V97c0-.6.1-.8.6-.6h3.7a4.2,4.2,0,0,1,0,8.4Z"/><path class="cls-3" d="M627.7,92.2a48.43,48.43,0,0,0-6.5,1.9,31.65,31.65,0,0,0-5,2.2,1.72,1.72,0,0,1-1.2.2H604c-.6,0-.9.1-.9.9v15.2c0,.8-.2,1-1,1h-2.3c-.8,0-1.1-.1-1.1-1V97.8c0-1-.2-1.2-1.2-1.2-2.3.1-4.5,0-6.8,0-.6,0-.9-.1-.9-.9V93c0-.5.1-.8.8-.8h37.1Z"/><path class="cls-4" d="M578.8,105.6v7.1a.79.79,0,0,1-.5.8,1,1,0,0,1-1.1-.4,10.47,10.47,0,0,1-.8-1.1c-.3-.6-.6-.5-1.1-.1a7.67,7.67,0,0,1-7.8,1.4,7.78,7.78,0,0,1-5.1-8.3,8,8,0,0,1,7.9-8,2.77,2.77,0,0,1,.9.1,7.66,7.66,0,0,1,4.3,1.9c.4.4.8.4,1.2-.1s.8-1.5,1.6-1.2.5,1.2.5,1.8Zm-12.4-.3a4.09,4.09,0,0,0,3.7,4.3h.3a4.28,4.28,0,0,0,4-4.6,4.22,4.22,0,0,0-4-4,4,4,0,0,0-4,4.3Z"/><path class="cls-3" d="M636.5,92a24.13,24.13,0,0,0-2.5.8,38.11,38.11,0,0,0-13.1,6.8,25.82,25.82,0,0,0-9.1,15.5,32.64,32.64,0,0,0-1.8-6.3c-1.3-3.6-2.8-7-5.8-9.6-.3-.3-.1-.4.1-.5a3.5,3.5,0,0,1,3,.2,11.91,11.91,0,0,1,4,3.4c.3.3.5.4.8,0,3.5-4.8,8.5-7.3,14.1-8.8A30.63,30.63,0,0,1,636.5,92Z"/><path class="cls-3" d="M674,91.6a2.54,2.54,0,0,1,1.7,3.3c-.1.2-.2.5-.3.7-.2.4-.2.5.1.9a2.84,2.84,0,0,1,.3,4,2.29,2.29,0,0,1-1,.7,4.59,4.59,0,0,1-4.4-.1,2.76,2.76,0,0,1-1.3-3.6,2.18,2.18,0,0,1,.7-.9c.2-.2.5-.3.2-.8-1.1-1.9-.5-3.5,1.5-4.3A4.24,4.24,0,0,1,674,91.6ZM672.6,97a1.93,1.93,0,0,0-1.9,1.5c0,.8.9,1.4,1.9,1.4s1.9-.6,1.9-1.4A1.72,1.72,0,0,0,672.6,97Zm0-3.8c-.8,0-1.4.6-1.3,1.2a1.22,1.22,0,0,0,1.3,1.1h0a1.16,1.16,0,0,0,1.3-1.1h0c.1-.6-.6-1.2-1.3-1.2Z"/><path class="cls-5" d="M5,134H244.4a5,5,0,0,1,5,5V252.2a5,5,0,0,1-5,5H5a5,5,0,0,1-5-5V139A5,5,0,0,1,5,134Z"/><path class="cls-6" d="M264,134H503.4a5,5,0,0,1,5,5V252.2a5,5,0,0,1-5,5H264a5,5,0,0,1-5-5V139A5,5,0,0,1,264,134Z"/><path class="cls-7" d="M524,134H763.4a5,5,0,0,1,5,5V252.2a5,5,0,0,1-5,5H524a5,5,0,0,1-5-5V139A5,5,0,0,1,524,134Z"/><path class="cls-8" d="M71.6,161.1v3.5H68V161h3.5v-3.5l.2-.1c2.3,0,4.7-.1,7,.1a7.32,7.32,0,0,1,6.1,6.3,7.21,7.21,0,0,1-5.8,8,28.25,28.25,0,0,1-2.9.2h-4v6.9H68V168.2h9.2a3.56,3.56,0,0,0,3.6-3.5,5,5,0,0,0-.2-1.2,3.21,3.21,0,0,0-2.7-2.4C76,161,73.8,161.1,71.6,161.1ZM95.7,169a41,41,0,0,0-5,.2c-2.7.3-4.2,1.8-4.4,4.3a4.23,4.23,0,0,0,1.8,4.2,7.56,7.56,0,0,0,8.4-.3,2.76,2.76,0,0,1,.8-.6v1.8H101c0-.1.1-.3.1-.4V167.7A3.86,3.86,0,0,0,100,165a8.58,8.58,0,0,0-7.6-2.3,7.15,7.15,0,0,0-4.5,2.2,3.56,3.56,0,0,0-1.1,2.9h3.7a2.77,2.77,0,0,1,1.8-1.7,6.16,6.16,0,0,1,3.3,0c1.4.4,1.9,1.2,1.7,2.9Zm.8,4.8a5.45,5.45,0,0,1-4.8,1.8,1.83,1.83,0,0,1-1.5-1.3,1.53,1.53,0,0,1,.9-1.9,4.42,4.42,0,0,1,1.5-.5c1.5-.1,3,0,4.6,0a2.28,2.28,0,0,1-.7,1.9Zm84.8-2.3a20.9,20.9,0,0,0-.1-2.5,8.12,8.12,0,1,0-14.6,6.3c3.6,5.2,10.4,4,13.4.6a8.34,8.34,0,0,0,.8-1.2l-3.4-.9a5.58,5.58,0,0,1-6,1.3,3.51,3.51,0,0,1-2.3-2.9h12.2a.85.85,0,0,1,0-.7Zm-8-5.5a4,4,0,0,1,3.9,3.1H169A4.11,4.11,0,0,1,173.3,166Zm-62.5,7.8c-1.4-3.7-2.9-7.3-4.3-10.9h-4.1a3.18,3.18,0,0,1,.3.9c2,4.7,3.9,9.5,5.9,14.2a1.48,1.48,0,0,1,0,1.3c-.7,1.6-1.3,3.2-1.9,4.9a6.89,6.89,0,0,0-.3.8h4c2.9-7.3,5.8-14.7,8.8-22H115c-1.4,3.7-2.7,7.3-4.2,10.8Zm41.2-11h-4.2c-1.3,4.3-2.6,8.7-3.9,13h-.1c-1.3-4.3-2.6-8.6-3.9-13h-4.2c1.7,5.3,3.3,10.5,5,15.7H147C148.7,173.3,150.4,168.1,152,162.8Zm6.4,15.8v-7.9a3.8,3.8,0,0,1,3.6-4h.4a11,11,0,0,1,1.8.2v-4.1a5.67,5.67,0,0,0-5.8,2.1.1.1,0,0,1-.1-.1v-1.9h-3.9v15.7Zm-33.2-20.8h-3.8v20.8h3.8Zm4,20.8h3.9V162.8h-3.9Z"/><path class="cls-9" d="M129.2,160.5v-3.6h17.2v3.6Z"/><path class="cls-10" d="M330.6,167.4h-3.7v9.8h3.7Z"/><path class="cls-10" d="M338.8,167.4h-3.7v9.8h3.7Z"/><path class="cls-10" d="M337,154.5l-13,10h25.8Z"/><path class="cls-10" d="M355.8,177.2h-6.3v-3.9l-7.7,6.9,7.7,6.9v-3.9h6.3Z"/><path class="cls-10" d="M351.9,169.2h6.4v-3.9l7.7,6.9-7.7,6.9v-3.9h-6.4Z"/><path class="cls-10" d="M339.2,179.8l1.7,3.7H324v-3.7Z"/><path class="cls-10" d="M347,172.3l-3.6,3v-7.9H347Z"/><path class="cls-11" d="M376.2,156.8v11h4.4v1.3h-6V156.8Z"/><path class="cls-11" d="M386.5,169.2a4.61,4.61,0,0,1-4.8-4.5v-.5a4.9,4.9,0,1,1,9.8-.4v.4a4.81,4.81,0,0,1-4.6,5C386.7,169.3,386.6,169.3,386.5,169.2Zm0-1.3a3.59,3.59,0,0,0,3.3-3.9,3.72,3.72,0,0,0-3.2-3.3c-1.7,0-3.2,1.1-3.2,3.6S384.8,167.9,386.5,167.9Z"/><path class="cls-11" d="M397.7,159.3c2.4,0,4,1.2,4.4,3.2h-1.7a2.54,2.54,0,0,0-2.8-1.9c-1.8,0-3,1.3-3,3.6s1.3,3.7,3,3.7a2.62,2.62,0,0,0,2.8-2h1.8a4.25,4.25,0,0,1-4.5,3.2c-2.8,0-4.7-1.9-4.7-5a4.46,4.46,0,0,1,4-4.8Z"/><path class="cls-11" d="M408.3,159.3a3.91,3.91,0,0,1,3.6,1.9v-1.8h1.7v9.7h-1.7v-1.9a3.82,3.82,0,0,1-3.6,1.9c-2.6,0-4.6-2-4.6-5.1a4.66,4.66,0,0,1,4.3-4.9C408.1,159.3,408.2,159.3,408.3,159.3Zm.4,1.3c-1.8,0-3.2,1.3-3.2,3.6a3.27,3.27,0,0,0,3.2,3.6,3.33,3.33,0,0,0,3.3-3.3v-.3a3.45,3.45,0,0,0-3.3-3.6Z"/><path class="cls-11" d="M416.3,156h1.6v13.1h-1.6Z"/><path class="cls-11" d="M373.8,172h8.3v1.3h-3.3v11h-1.6v-11h-3.4Z"/><path class="cls-11" d="M385.7,184.4h-1.6v-9.7h1.6v1.6a3.18,3.18,0,0,1,3.1-1.8v1.7h-.5c-1.6,0-2.7.6-2.7,3v5.2Z"/><path class="cls-11" d="M394.8,174.5a3.91,3.91,0,0,1,3.6,1.9v-1.8h1.7v9.7h-1.7v-1.9a3.82,3.82,0,0,1-3.6,1.9c-2.6,0-4.6-2-4.6-5.1a4.58,4.58,0,0,1,4.2-4.9A.4.4,0,0,0,394.8,174.5Zm.3,1.4c-1.8,0-3.2,1.3-3.2,3.6a3.27,3.27,0,0,0,3.2,3.6,3.33,3.33,0,0,0,3.3-3.3v-.3a3.39,3.39,0,0,0-3.3-3.6Z"/><path class="cls-11" d="M409.9,178.9c0-1.9-1.1-3-2.7-3s-2.8,1-2.8,3.1v5.4h-1.6v-9.7h1.6v1.4a3.94,3.94,0,0,1,7.1,2v6.3H410v-5.6Z"/><path class="cls-11" d="M417.5,184.5c-2.3,0-3.9-1.2-4-3.1h1.7a2.08,2.08,0,0,0,2.3,1.7c1.4,0,2-.6,2-1.5,0-2.1-5.7-.9-5.7-4.5,0-1.5,1.4-2.7,3.5-2.7s3.5,1.1,3.7,3.1h-1.6a1.87,1.87,0,0,0-2.1-1.7c-1.3,0-1.9.6-1.9,1.4,0,2.3,5.6,1,5.7,4.5C421.1,183.3,419.7,184.5,417.5,184.5Z"/><path class="cls-11" d="M423.7,176h-1.3v-1.3h1.3v-.6c0-2.1,1-3.1,3.5-3.1v1.4c-1.5,0-1.9.6-1.9,1.8v.6h2v1.3h-2v8.4h-1.6Z"/><path class="cls-11" d="M433.4,184.5a4.61,4.61,0,0,1-4.8-4.5v-.5a4.67,4.67,0,0,1,4.2-5h.6a4.44,4.44,0,0,1,4.6,4.2v.4a3.4,3.4,0,0,1-.1,1h-7.8a3,3,0,0,0,3,3h.2a2.59,2.59,0,0,0,2.7-1.8h1.8A4.13,4.13,0,0,1,433.4,184.5Zm-3.1-5.6h6.1a2.9,2.9,0,0,0-2.8-3h-.3a3,3,0,0,0-3,3Z"/><path class="cls-11" d="M441.7,184.4h-1.6v-9.7h1.6v1.6a3.18,3.18,0,0,1,3.1-1.8v1.7h-.5c-1.6,0-2.7.6-2.7,3v5.2Z"/><path class="cls-12" d="M625.6,185.8H596.4a2.27,2.27,0,0,1-2.2-2.1v-19a2.14,2.14,0,0,1,2.2-2.1h29.1a2.27,2.27,0,0,1,2.2,2.1v19.1A2.34,2.34,0,0,1,625.6,185.8Z"/><path class="cls-13" d="M602,169.8c1.1-.1,2.2-1.4,2.8-3.2a13.33,13.33,0,0,0-2.8-.3Z"/><path class="cls-13" d="M603.8,169.5c.1,0,.2,0,.2-.1s.1,0,.2-.1.1,0,.1-.1.1-.1.2-.1.1,0,.2-.1.1-.1.2-.1.1,0,.2-.1a.1.1,0,0,0,.1-.1c.1,0,.1,0,.2-.1s.1-.1.2-.1.1-.1.2-.1.1-.1.2-.1.1-.1.2-.1a.1.1,0,0,0,.1-.1l.2-.1c.1,0,.1-.1.2-.1l.2-.1.2-.1.1-.1.2-.1a6.7,6.7,0,0,0-1.8-.7,5.62,5.62,0,0,1-1.8,2.7l.1.1C603.7,169.6,603.8,169.5,603.8,169.5Z"/><path class="cls-13" d="M609.4,162.4h-3.3a13.2,13.2,0,0,1-.6,3.9,19.45,19.45,0,0,1,2.2.8A9,9,0,0,0,609.4,162.4Z"/><path class="cls-13" d="M602,161.9h3.6a10.88,10.88,0,0,0-.6-3.6,15.26,15.26,0,0,1-3,.3Z"/><path class="cls-13" d="M602,154.6V158a13.33,13.33,0,0,0,2.8-.3C604.2,156,603.1,154.7,602,154.6Z"/><path class="cls-13" d="M602,165.7a15.26,15.26,0,0,1,3,.3,22.54,22.54,0,0,0,.6-3.6H602Z"/><path class="cls-13" d="M607.6,157.3a14.27,14.27,0,0,1-2.2.8,13.2,13.2,0,0,1,.6,3.9h3.3A7.33,7.33,0,0,0,607.6,157.3Z"/><path class="cls-13" d="M607.3,156.9c-.1,0-.1-.1,0,0l-.1-.1-.2-.1c-.1,0-.1-.1-.2-.1l-.2-.1c-.1,0-.1-.1-.2-.1l-.2-.2c-.1,0-.1-.1-.2-.1s-.1-.1-.2-.1a.1.1,0,0,1-.1-.1.35.35,0,0,0-.2-.1c-.1,0-.1-.1-.2-.1s-.1,0-.2-.1-.1-.1-.2-.1-.2-.1-.3-.1-.1-.1-.2-.1-.1,0-.2-.1-.1-.1-.2-.1-.1,0-.2-.1-.1,0-.1-.1-.2-.1-.2-.1a.31.31,0,0,1-.2-.1h-.1a8.39,8.39,0,0,1,1.8,2.8A14.6,14.6,0,0,0,607.3,156.9Z"/><path class="cls-13" d="M594,161.9h3.3a13.2,13.2,0,0,1,.6-3.9,19.45,19.45,0,0,1-2.2-.8A9,9,0,0,0,594,161.9Z"/><path class="cls-13" d="M601.4,169.8v-3.6a13.33,13.33,0,0,0-2.8.3C599.2,168.4,600.3,169.7,601.4,169.8Z"/><path class="cls-13" d="M601.4,162.4h-3.6a10.88,10.88,0,0,0,.6,3.6,15.26,15.26,0,0,1,3-.3v-3.3Z"/><path class="cls-13" d="M601.4,154.6c-1.1.1-2.2,1.4-2.8,3.2a13.33,13.33,0,0,0,2.8.3Z"/><path class="cls-13" d="M601.4,158.6a15.26,15.26,0,0,1-3-.3,22.54,22.54,0,0,0-.6,3.6h3.6v-3.3Z"/><path class="cls-13" d="M599.8,154.8c-.2,0-.2.1-.2.1s-.2,0-.2.1-.1,0-.2.1-.1,0-.2.1-.1.1-.2.1-.1,0-.2.1-.1.1-.2.1-.1,0-.1.1-.1.1-.2.1-.1,0-.2.1-.1.1-.2.1-.1.1-.2.1a.1.1,0,0,0-.1.1.35.35,0,0,1-.2.1c-.1,0-.1.1-.2.1l-.2.1c-.1,0-.1.1-.2.1l-.2.1c-.1.1-.1.1-.2.1l-.2.1-.1.1a6.7,6.7,0,0,0,1.8.7A10.76,10.76,0,0,1,599.8,154.8Z"/><path class="cls-13" d="M596.3,167.7l.2.1.1.1.2.1c.1,0,.1.1.2.1l.2.1c.1,0,.1.1.2.1s.1.1.2.1a.1.1,0,0,1,.1.1.35.35,0,0,0,.2.1c.1,0,.1.1.2.1s.1,0,.2.1.1.1.2.1.1,0,.1.1.1.1.2.1.1,0,.2.1.1.1.2.1.1,0,.2.1.1,0,.2.1.1.1.2.1.1,0,.2.1h.1a8.39,8.39,0,0,1-1.8-2.8,4.84,4.84,0,0,0-1.8.7C596.2,167.5,596.3,167.5,596.3,167.7Z"/><path class="cls-13" d="M595.8,167.1a14.27,14.27,0,0,1,2.2-.8,12.72,12.72,0,0,1-.6-3.9h-3.3A7.33,7.33,0,0,0,595.8,167.1Z"/><path class="cls-14" d="M626,159c-3.3-1-6.7,1.4-10,.4a.75.75,0,0,1-.5-.7v-5.6a.35.35,0,0,1,.5-.3c3.3,1,6.7-1.4,10-.4a.75.75,0,0,1,.5.7v5.6C626.5,159,626.3,159.1,626,159Z"/><path class="cls-15" d="M625,158.3c-2.7-.3-5.3,1.1-8.1.8a1.55,1.55,0,0,0-1-1.2v-3.5a.77.77,0,0,0,1-.8c2.7.3,5.3-1.1,8.1-.8a1.55,1.55,0,0,0,1,1.2v3.5a.82.82,0,0,0-1,.7C625.1,158.2,625.1,158.2,625,158.3Z"/><path class="cls-14" d="M621,153.7a1.77,1.77,0,0,1,2,1.4v.4a2.67,2.67,0,0,1-2,2.6,1.77,1.77,0,0,1-2-1.4v-.5A2.74,2.74,0,0,1,621,153.7Z"/><path class="cls-14" d="M618.1,156a.47.47,0,0,1,.5.5h0a.5.5,0,0,1-1,0C617.5,156.2,617.7,156,618.1,156Z"/><path class="cls-14" d="M624,155.1a.51.51,0,1,1,.2,1h-.3a.47.47,0,0,1-.5-.5h0A.63.63,0,0,1,624,155.1Z"/><path class="cls-16" d="M621.3,155.7c-.2,0-.3.1-.5.1s-.2-.1-.2-.1a1.44,1.44,0,0,1,.2-.3c.1-.1.5-.1.7-.1s.2-.1.2-.3-.1-.2-.2-.1-.2,0-.2.1c0-.1-.1-.2-.2-.1s-.2.1-.2.3a1,1,0,0,0-.7.9.65.65,0,0,0,.6.6h.2a4.33,4.33,0,0,1,.5-.1c.2,0,.2.1.2.1a1.44,1.44,0,0,1-.2.3c-.1.1-.5.1-.7.1s-.2.1-.2.3.1.2.2.1.2,0,.2-.1c0,.1.1.2.2.1s.2-.1.2-.3a1,1,0,0,0,.7-.9.65.65,0,0,0-.6-.6Z"/><path class="cls-15" d="M609.4,157.4a.6.6,0,1,0-.6-.6.58.58,0,0,0,.6.6Z"/><path class="cls-15" d="M611.6,157.4a.6.6,0,0,0,0-1.2h0a.65.65,0,0,0-.6.6.53.53,0,0,0,.6.6Z"/><path class="cls-15" d="M613.9,157.4a.6.6,0,1,0-.6-.6.53.53,0,0,0,.6.6Z"/><path class="cls-15" d="M622.1,161.3a.6.6,0,1,0-.6-.6h0A.65.65,0,0,0,622.1,161.3Z"/><path class="cls-17" d="M618.5,180.8h-.9v-.9H604.2v.9h-.9v.9h15.2Z"/><path class="cls-17" d="M604.2,170.9h13.4v1.8H604.2Z"/><path class="cls-17" d="M605.1,173.7h2.7V179h-2.7Z"/><path class="cls-17" d="M609.6,173.7h2.7V179h-2.7Z"/><path class="cls-17" d="M614.1,173.7h2.7V179h-2.7Z"/><path class="cls-17" d="M618.5,169.2l-7.6-2.8-7.6,2.8v.8h15.3v-.8Zm-7.1-.1h-.9v-.9h.9Z"/><path class="cls-18" d="M624.4,180.1h0a1.45,1.45,0,0,0-.7.2,1.6,1.6,0,0,0-.9-.7h-.3a1.45,1.45,0,0,0-.7.2,1.64,1.64,0,0,0-1.1-.7c-.2,0-.4.1-.6.1v-2.6a1.4,1.4,0,1,0-2.8,0v8.3a.47.47,0,0,1-.5.5.76.76,0,0,1-.4-.2l-.9-1a1.55,1.55,0,0,0-2.1-.1,1.61,1.61,0,0,0-.5,1.1,1.28,1.28,0,0,0,.4,1l1.9,1.9a4.22,4.22,0,0,0,3.2,1.3h4.2a2.9,2.9,0,0,0,2.9-2.9h0v-5a1.18,1.18,0,0,0-.9-1.5C624.6,180.1,624.5,180.1,624.4,180.1Z"/><path class="cls-12" d="M638.6,169.6h-4.3v-9.9h4.1c2.1,0,3.2,1.1,3.2,2.5a2.37,2.37,0,0,1-1.7,2.3,2.38,2.38,0,0,1,2,2.4C641.9,168.5,640.7,169.6,638.6,169.6Zm-.4-8.3h-1.8v2.5h1.8c1,0,1.5-.4,1.5-1.3S639.1,161.3,638.2,161.3Zm.1,4h-1.9V168h2c1,0,1.5-.4,1.5-1.3a1.48,1.48,0,0,0-1.6-1.4Z"/><path class="cls-12" d="M646.5,161.6a3,3,0,0,1,2.6,1.3v-1.1h2v7.9h-2v-1.2a3.32,3.32,0,0,1-2.6,1.3c-2,0-3.6-1.6-3.6-4.1S644.5,161.6,646.5,161.6Zm.5,1.7a2.14,2.14,0,0,0-2.1,2.2v.1a2.23,2.23,0,0,0,2,2.4h.1a2.05,2.05,0,0,0,2.1-2.1v-.2a2.21,2.21,0,0,0-1.9-2.4Z"/><path class="cls-12" d="M658.6,165.2a1.81,1.81,0,0,0-3.6-.3v4.8h-2v-7.9h2v1a3,3,0,0,1,2.4-1.1,3,3,0,0,1,3.1,3.3v4.6h-2l.1-4.4Z"/><path class="cls-12" d="M662.5,159.1h2v6l2.7-3.3h2.6l-3.5,3.9,3.5,3.9h-2.6l-2.7-3.3v3.3h-2Z"/><path class="cls-17" d="M633.9,171.9h7.3v1.6h-2.7v8.3h-2v-8.3h-2.7l.1-1.6Z"/><path class="cls-17" d="M644.5,181.8h-2V174h2v1.2a2.58,2.58,0,0,1,2.5-1.3V176h-.5c-1.2,0-1.8.4-1.8,2l-.2,3.8Z"/><path class="cls-17" d="M651.3,173.8a3,3,0,0,1,2.6,1.3V174h2v7.9h-2v-1.2a3.32,3.32,0,0,1-2.6,1.3c-2,0-3.6-1.6-3.6-4.1S649.3,173.8,651.3,173.8Zm.6,1.7a2.14,2.14,0,0,0-2.1,2.2v.1a2.23,2.23,0,0,0,2,2.4h.1a2.11,2.11,0,0,0,2.1-2.1v-.2a2.29,2.29,0,0,0-1.9-2.4Z"/><path class="cls-17" d="M663.4,177.4a1.69,1.69,0,0,0-1.4-1.9h-.4a1.71,1.71,0,0,0-1.8,1.9v4.4h-2V174h2v1a3,3,0,0,1,2.4-1.1,3,3,0,0,1,3.1,3.3v4.6h-2l.1-4.4Z"/><path class="cls-17" d="M670.3,181.9c-2,0-3.3-1.2-3.4-2.6h2a1.31,1.31,0,0,0,1.4,1c.8,0,1.2-.4,1.2-.8,0-1.4-4.5-.5-4.5-3.4,0-1.3,1.2-2.4,3.1-2.4a2.88,2.88,0,0,1,3.2,2.6h-1.9a1.2,1.2,0,0,0-1.3-1c-.7,0-1.1.3-1.1.7,0,1.4,4.4.5,4.4,3.4C673.4,180.9,672.2,181.9,670.3,181.9Z"/><path class="cls-17" d="M675.2,175.6h-.9V174h.9v-.4q0-2.85,3.3-2.7v1.7c-1,0-1.3.3-1.3,1.2v.3h1.4v1.6h-1.4v6.2h-2.1l.1-6.3Z"/><path class="cls-17" d="M683.4,181.9a4.06,4.06,0,0,1-3.9-4.3,4.12,4.12,0,0,1,3.9-3.9,3.74,3.74,0,0,1,3.9,3.4v.4a1.7,1.7,0,0,1-.1.7h-5.8a2,2,0,0,0,1.8,1.9h0a1.54,1.54,0,0,0,1.5-1h2.2A3.28,3.28,0,0,1,683.4,181.9Zm-2-4.7h3.7a1.75,1.75,0,0,0-1.7-1.7h-.1a1.79,1.79,0,0,0-1.9,1.7Z"/><path class="cls-17" d="M690.6,181.8h-2V174h2v1.2a2.43,2.43,0,0,1,2.4-1.3V176h-.5c-1.2,0-1.8.4-1.8,2l-.1,3.8Z"/><path class="cls-19" d="M307.5,94.6,319.4,105l1.7-5.8,11.8,12.2a.55.55,0,0,1-.5-.3l-3.8-1.8-1.6-.7h-.3l-2,1.2a13.52,13.52,0,0,1-3.4,1.1,17.1,17.1,0,0,1-3.2,0,26.15,26.15,0,0,1-3.8-.9,11.77,11.77,0,0,1-4.6-3.4,10.77,10.77,0,0,1-2.5-5.4,23.4,23.4,0,0,1-.3-3.8A7.44,7.44,0,0,1,307.5,94.6Z"/><path class="cls-19" d="M329.7,106l-11-17.8L317.6,93l-9.8-10.5.8.4,3.2,1.9,2.7,1.7h.3a13,13,0,0,1,3.4-.8,9.33,9.33,0,0,1,4.4.3,13.37,13.37,0,0,1,5.4,2.5,11.46,11.46,0,0,1,3.3,4.5,12.68,12.68,0,0,1,.5,9,13.69,13.69,0,0,1-1.6,3.2A2.18,2.18,0,0,1,329.7,106Z"/><path class="cls-19" d="M443.5,105H429.4c-.4,0-.4-.1-.4-.5.5-2.7,1.1-5.5,1.7-8.3.3-1.3.5-2.7.8-4,0-.4.1-.4.5-.4h28.1c.4,0,.4.1.4.4-.8,4.2-1.6,8.2-2.4,12.3,0,.4-.1.4-.5.4Zm5.5-2c0-.1,0-.1-.1-.3-.9-2.5-1.9-5-2.8-7.5-.4-.9-.4-.9-1.3-.9-.3,0-.5.1-.5.4-.7,1.9-1.5,3.9-2.1,5.8-.3.8-.6,1.5-.9,2.3,0,.1-.1.3,0,.3h1.3c.1,0,.1-.1.1-.3.1-.4.4-.9.5-1.3a.43.43,0,0,1,.4-.4h2.7c.2,0,.4.1.4.3v.1a5,5,0,0,0,.4,1.3.32.32,0,0,0,.3.3Zm-13.9-4.4V102c0,1.2,0,1.2,1.2,1.2.2,0,.4-.1.4-.3v-2.5c0-.4.1-.5.4-.5h2a2.63,2.63,0,0,0,2.5-2.6,2.58,2.58,0,0,0-2.3-2.8h-.1c-1.2-.1-2.5,0-3.8-.1-.2,0-.4.1-.4.3v.1Zm16.9-.3a28,28,0,0,0-1.5-3c-.5-1.2-.5-1.2-1.7-1.2-.4,0-.4,0-.3.4.7,1.2,1.3,2.4,1.9,3.6a5.21,5.21,0,0,1,.8,3v.7c0,1.2,0,1.2,1.2,1.2.2,0,.4-.1.4-.3V100a.75.75,0,0,1,.1-.5l2.5-5c.1-.3.1-.3-.3-.4a1.34,1.34,0,0,0-1.7.8c0,.1-.1.3-.1.4s-.1.3-.1.4Z"/><path class="cls-20" d="M412.5,104.5h-3.9c-.3,0-.3-.1-.3-.4l-1.6-4c0-.3-.3-.4-.5-.4-.8,0-.8,0-.8.8V104c0,.2-.1.4-.3.4H402c-.3,0-.4,0-.4-.3V92.3c0-.2.1-.4.3-.4h7.5a5.65,5.65,0,0,1,2.4,1.6,3.29,3.29,0,0,1,.1,4.6l-.1.1a5.5,5.5,0,0,1-.9.7c-.4.1-.4.4-.3.7.7,1.5,1.3,2.9,2,4.6Zm-7.3-8.7v.9c0,.3.1.3.4.3h1.6a1.38,1.38,0,0,0,1.3-1.1,1.11,1.11,0,0,0-1.1-1.3h-1.8c-.2,0-.4.1-.4.3v.9Z"/><path class="cls-20" d="M371.1,96.6v7.5c0,.3,0,.4-.4.4h-2.3c-.4,0-.4-.1-.4-.4V92.4c0-.3,0-.3.3-.3h3.1c.1,0,.4.1.4.3,1.2,2,2.3,4.2,3.5,6.2,0,.1.1.1.3.4V92.6a.55.55,0,0,1,.3-.5,35,35,0,0,0,2.8-2.7v15c0,.4-.1.4-.4.4H376c-.3,0-.5-.1-.5-.4-1.4-2.4-2.5-4.7-3.9-7.1A1.79,1.79,0,0,0,371.1,96.6Z"/><path class="cls-20" d="M345.7,98.2V92.3c0-.4.1-.4.4-.4h2.8c.2,0,.4.1.4.3v4.1c0,.3,0,.4.4.4h2.4c.4,0,.4-.1.4-.4V92.6c0-.3,0-.4.4-.4H356c.2,0,.4.1.4.3v11.8c0,.3,0,.3-.3.3h-3.2c-.3,0-.4-.1-.3-.4v-4.1c0-.3,0-.4-.4-.4h-2.1c-.2,0-.4.1-.4.3v4.1c0,.4-.1.5-.5.5h-2.8c-.4,0-.4,0-.4-.4A30.56,30.56,0,0,1,345.7,98.2Z"/><path class="cls-20" d="M379.7,98.2V92.4c0-.2.1-.4.3-.4h5.3a5,5,0,0,1,2.3.9,6.35,6.35,0,0,1,1.9,8.9.1.1,0,0,1-.1.1c-.1.1-.3.3-.3.4a6.91,6.91,0,0,1-3,2c-.1,0-.4.1-.5.1H380c-.2,0-.4-.1-.4-.3V104Zm3.6,0v3.1a.6.6,0,0,0,.1.4,2.15,2.15,0,0,0,2.4-1.2,5.52,5.52,0,0,0,0-4.7,1.23,1.23,0,0,0-1.6-.8h-.7c-.3,0-.4,0-.4.4A8.83,8.83,0,0,1,383.3,98.2Z"/><path class="cls-20" d="M391.5,98.2V92.3c0-.4.1-.4.4-.4h8.5c.2,0,.4.1.4.3v2.1c0,.4,0,.5-.4.5h-4.8c-.4,0-.4.1-.4.4v1.1c0,.2.1.4.3.4h3.9c.4,0,.4.1.4.4v2c0,.2-.1.4-.3.4h-3.9c-.4,0-.4.1-.4.4V101c0,.4,0,.5.4.5h4.8c.3,0,.4,0,.4.4v2.4c0,.3,0,.3-.3.3h-8.7c-.3,0-.3-.1-.3-.4Z"/><path class="cls-20" d="M367.2,96.9v4a3,3,0,0,1-1.2,2.5,4.62,4.62,0,0,1-3,1.1,9.88,9.88,0,0,1-3.8-.4,4.34,4.34,0,0,1-1.7-1.2,2.84,2.84,0,0,1-.7-1.7V92.6c0-.2.1-.4.3-.4H360c.4,0,.4.1.4.4v7.8a1.19,1.19,0,0,0,.4,1.1,1.65,1.65,0,0,0,1.5.5,2.22,2.22,0,0,0,1.3-.8c.1-.1.2-.3.1-.4v-8c0-.4.1-.5.5-.5h2.1c.4,0,.4.1.4.4A9.74,9.74,0,0,1,367.2,96.9Z"/><path class="cls-20" d="M413.2,92h4.4c.1,0,.4.1.4.3l4,5.8a.45.45,0,0,1,0,.5l-4.3,5.9c-.1.1-.3.3-.4.3l-6.6,2.9h-.1l1.2-1.6c1.7-2.4,3.6-5,5.4-7.4.1-.1.3-.5,0-.7l-4-5.6Z"/><path class="cls-20" d="M338.8,107.6V95.4c0-.4-.1-.4-.4-.4h-1.9q-.45,0-.3-.3V92.3c0-.3.1-.3.3-.3h8.2c.3,0,.3.1.3.3v2.4c0,.3,0,.3-.3.3h-1.9c-.4,0-.4.1-.4.4v8.7a1.08,1.08,0,0,1-.3.7l-3,2.9C339,107.6,339,107.7,338.8,107.6Z"/><path class="cls-20" d="M422.9,97.3l-2.3-3.1c-.1-.1,0-.3,0-.4l1.3-1.8.3-.3,6.6-3h.1Z"/><path class="cls-20" d="M422.9,98.9l3.8,5.4a.6.6,0,0,1-.4.1h-3.9c-.1.1-.4,0-.5-.1l-1.2-1.6a.45.45,0,0,1,0-.5C421.4,101,422.2,99.9,422.9,98.9Z"/><path class="cls-21" d="M449,103h-1.3c-.3,0-.3-.1-.3-.3-.1-.4-.3-.9-.4-1.3s-.1-.4-.4-.4h-2.7c-.2,0-.4.1-.4.3v.1a5,5,0,0,1-.5,1.3c0,.1,0,.3-.1.3h-1.3c-.3,0,0-.3,0-.3.3-.8.6-1.5.9-2.3.7-1.9,1.5-3.9,2.1-5.8,0-.3.3-.4.5-.4.9,0,.9,0,1.3.9.9,2.5,1.9,5,2.8,7.5C448.9,102.8,448.9,102.9,449,103Zm-4-6.7-1.2,3.2c-.1.3,0,.3.3.3H446c.3,0,.3,0,.3-.3-.5-1.2-.9-2.1-1.3-3.2Z"/><path class="cls-21" d="M435.1,98.6V94.7c0-.2.1-.4.3-.4h.1a24.13,24.13,0,0,1,3.8.1,2.8,2.8,0,0,1,2.4,2.8,2.48,2.48,0,0,1-2.5,2.5h-2c-.4,0-.4.1-.4.5v2.4c0,.3,0,.4-.4.4-1.2,0-1.2,0-1.2-1.2Zm1.4-1.6v1.2c0,.1,0,.3.3.3h1.9a1.24,1.24,0,0,0,1.3-1.2V97a1.42,1.42,0,0,0-1.2-1.5h-1.9c-.3,0-.3.1-.3.4S436.5,96.6,436.5,97Z"/><path class="cls-21" d="M452,98.3l1.3-2.7c0-.1.1-.3.1-.4a1.16,1.16,0,0,1,1.2-1.2h.3a.6.6,0,0,1,.4.1c.4.1.4.1.3.4l-2.5,5c-.1.2-.2.3-.1.5v2.6c0,.2-.1.4-.3.4h-.1c-1.2,0-1.2,0-1.2-1.2v-.7a3.94,3.94,0,0,0-.8-3c-.7-1.2-1.3-2.4-1.9-3.6-.3-.4-.3-.4.3-.4,1.3,0,1.2,0,1.8,1.2A7.89,7.89,0,0,0,452,98.3Z"/><path class="cls-19" d="M445,96.3c.4,1.1.8,2.1,1.1,3.2.1.3,0,.3-.3.3h-1.9c-.1,0-.3,0-.3-.3C444.2,98.3,444.6,97.3,445,96.3Z"/><path class="cls-19" d="M436.5,97V95.8c0-.4,0-.4.3-.4h1.9a1.32,1.32,0,0,1,1.2,1.4h0a1.51,1.51,0,0,1-1.2,1.5h-2c-.3,0-.3-.1-.3-.3Z"/><path class="cls-22" d="M168.1,0H374.6a5,5,0,0,1,5,5V112.7a5,5,0,0,1-5,5H168.1a5,5,0,0,1-5-5V5A5,5,0,0,1,168.1,0Z"/><path class="cls-23" d="M225.1,22.6a11.75,11.75,0,1,1,11.8,11.7h-.1a11.65,11.65,0,0,1-11.7-11.7Z"/><path class="cls-24" d="M233.4,29.1a8.33,8.33,0,0,1,.4-1.5c0-.1,0-.1-.1-.2l-2.8-.6c-.2,0-.2,0-.1-.2l.3-1.2c0-.1,0-.1.2-.1l.6.1c.3,0,.5-.1.5-.4a2,2,0,0,1,.1-.5l1.2-5.6a.9.9,0,0,1,.1-.5c.1-.2-.1-.5-.4-.5h0c-.2-.1-.4-.1-.6-.2s-.1,0-.1-.1l.3-1.2c0-.1.1-.1.2-.1,1,.2,1.9.4,2.8.6.2,0,.2,0,.2-.1.1-.5.2-1,.3-1.4,0-.1,0-.1.2-.1l1.2.3c.1.1.1.1.1.2l-.3,1.5c0,.1,0,.1.1.2l.6.1c.1,0,.1,0,.2-.1.1-.5.2-.9.3-1.4,0-.2,0-.2.2-.1.4.1.8.2,1.1.3s.2,0,.1.2L240,18c0,.1,0,.1.1.2a3,3,0,0,1,1.7,1.2,3.55,3.55,0,0,1,.4.9,2.42,2.42,0,0,1-.6,2,2.48,2.48,0,0,1-1.4.8c-.2,0-.3.1-.5.1.2.1.3.2.5.3a2,2,0,0,1,.9.9,2.61,2.61,0,0,1-1.2,3.8,3.52,3.52,0,0,1-2,.3c-.1,0-.2,0-.2.1a9.36,9.36,0,0,1-.4,1.6l-1.5-.3v-.1c.1-.5.2-1,.3-1.4,0-.1,0-.1-.1-.2l-.6-.1c-.2,0-.2-.1-.3.1a8.33,8.33,0,0,1-.4,1.5A3.93,3.93,0,0,0,233.4,29.1Zm1.9-4.9a2.92,2.92,0,0,1-.2.9.9.9,0,0,0-.1.5c0,.2,0,.2.2.3l1.2.3a3.4,3.4,0,0,0,1,.1,1.54,1.54,0,0,0,1.5-1.5,1.5,1.5,0,0,0-1-1.4c-.2-.1-.5-.1-.7-.2a8.33,8.33,0,0,1-1.5-.4h-.1c-.1.6-.2,1-.3,1.4Zm.9-4.1c-.1.4-.2.8-.3,1.1,0,.1,0,.1.1.2a1.88,1.88,0,0,1,.8.2,5.85,5.85,0,0,0,1.3.2,1.11,1.11,0,0,0,1.3-.8,1.24,1.24,0,0,0-.4-1.4,3,3,0,0,0-1-.4l-1.5-.3c-.1,0-.1,0-.2.1A2.16,2.16,0,0,1,236.2,20.1Z"/><path class="cls-25" d="M249.9,46.6a11.5,11.5,0,1,0-11.6-11.5,11.5,11.5,0,0,0,11.6,11.5Z"/><path class="cls-24" d="M245.1,37.1h0c.1-.6.2-1,.3-1.5a.1.1,0,0,1,.1-.1,5,5,0,0,0,1.3-.5.1.1,0,0,0,.1-.1c.5-1.9,1.7-6.4,1.7-6.4h3.7s-.8,3.1-1.2,4.6a.76.76,0,0,1-.1.4c.6-.2,1.1-.4,1.7-.6V33c-.1.5-.2.9-.3,1.3a.1.1,0,0,1-.1.1l-1.5.5c-.1,0-.1,0-.1.1-.2.9-.5,1.8-.7,2.7a.9.9,0,0,0-.1.5h6.3v.1l-.6,2.1h-10l.9-3.3a1.42,1.42,0,0,1,.2-.6A13.78,13.78,0,0,0,245.1,37.1Z"/><path class="cls-26" d="M212.1,35a11.75,11.75,0,1,1,11.8,11.7h-.1A11.71,11.71,0,0,1,212.1,35Z"/><path class="cls-24" d="M222.6,33.7V32.2h-3.4V30h9.2v2.2H225v1.5c2.7.1,4.8.7,4.8,1.3s-2,1.2-4.8,1.3V41h-2.4V36.3c-2.7-.1-4.8-.7-4.8-1.3S219.9,33.8,222.6,33.7Zm0,2.2H225c2.4-.1,4.2-.5,4.2-1s-1.8-.9-4.2-1v1.6h-2.4V33.9c-2.4.1-4.2.5-4.2,1S220.2,35.8,222.6,35.9Z"/><path class="cls-27" d="M225.1,48.8a11.75,11.75,0,1,1,11.8,11.7h-.1A11.78,11.78,0,0,1,225.1,48.8Z"/><path class="cls-28" d="M243.6,50.1l-6.8,2.5L230,50.1l6.8-11.7Z"/><path class="cls-28" d="M243.3,51.5l-6.5,7.6-6.6-7.6,6.5,2.4Z"/><path class="cls-29" d="M236.8,53.9l6.6-2.4-6.5,7.6-.1-5.2Z"/><path class="cls-29" d="M243.6,50.1l-6.8,2.5V38.4Z"/><path d="M271.5,35.5a5.3,5.3,0,0,1,.7-2.8,6.06,6.06,0,0,1,1.9-2,6,6,0,0,1,5.8.1,4.48,4.48,0,0,1,1.9,2.4h-1.7a3.74,3.74,0,0,0-1.3-1.5,2.88,2.88,0,0,0-2-.5,4.55,4.55,0,0,0-2,.5,4,4,0,0,0-1.4,1.5,5.08,5.08,0,0,0,0,4.5,4,4,0,0,0,1.4,1.5,3.51,3.51,0,0,0,2,.5,4.55,4.55,0,0,0,2-.5,3.74,3.74,0,0,0,1.3-1.5h1.7a5,5,0,0,1-1.9,2.4,4.83,4.83,0,0,1-3.1.8,5,5,0,0,1-2.7-.7,5.54,5.54,0,0,1-2.6-4.7Z"/><path d="M285.3,33.7a2.17,2.17,0,0,1,1-1.1,3.29,3.29,0,0,1,1.7-.4v1.5h-.4c-1.6,0-2.4.8-2.4,2.6v4.6h-1.4V32.4h1.4l.1,1.3Z"/><path d="M297,32.4l-5.1,12.5h-1.4l1.6-4.1-3.4-8.4h1.6l2.7,6.9,2.6-6.9Z"/><path d="M299.8,33.9a3.45,3.45,0,0,1,1.2-1.2,4.49,4.49,0,0,1,1.9-.5,4.55,4.55,0,0,1,2,.5,5.36,5.36,0,0,1,1.5,1.5,4.56,4.56,0,0,1,.5,2.3,5.93,5.93,0,0,1-.5,2.3,4.28,4.28,0,0,1-1.4,1.6,4.07,4.07,0,0,1-4,.1,3.45,3.45,0,0,1-1.2-1.2v5.6h-1.4V32.4h1.4Zm5.8,2.7a3.29,3.29,0,0,0-.4-1.7,2.66,2.66,0,0,0-1-1.1,3.26,3.26,0,0,0-1.4-.4,3,3,0,0,0-2.5,1.5,3.81,3.81,0,0,0,0,3.4,2.66,2.66,0,0,0,1,1.1,3,3,0,0,0,2.9,0,2.66,2.66,0,0,0,1-1.1A3.29,3.29,0,0,0,305.6,36.6Z"/><path d="M310.6,33.5v5a1.61,1.61,0,0,0,.3.9,1,1,0,0,0,.9.2h1v1.2h-1.3a2.9,2.9,0,0,1-1.8-.5,2.33,2.33,0,0,1-.6-1.8v-5H308V32.3h1.1V30.2h1.4v2.1h2.2v1.2Z"/><path d="M318.2,41a5.45,5.45,0,0,1-2.2-.5,4.31,4.31,0,0,1-1.5-1.5,3.72,3.72,0,0,1-.5-2.3,4.65,4.65,0,0,1,.6-2.3,3.12,3.12,0,0,1,1.5-1.5,3.42,3.42,0,0,1,2.2-.5,5.45,5.45,0,0,1,2.2.5,3.62,3.62,0,0,1,1.5,1.5,4.71,4.71,0,0,1,0,4.6,3.86,3.86,0,0,1-1.6,1.5A5.45,5.45,0,0,1,318.2,41Zm0-1.2a2.3,2.3,0,0,0,1.4-.4,2.35,2.35,0,0,0,1.1-1.1,4.27,4.27,0,0,0,0-3.5,3.46,3.46,0,0,0-1-1.1,2.23,2.23,0,0,0-1.4-.3,3.19,3.19,0,0,0-1.4.3,2.17,2.17,0,0,0-1,1.1,3.29,3.29,0,0,0-.4,1.7,3.92,3.92,0,0,0,.4,1.8,3.46,3.46,0,0,0,1,1.1,2.84,2.84,0,0,0,1.3.4Z"/><path d="M327.4,41a5.66,5.66,0,0,1-1.8-.3,2.73,2.73,0,0,1-1.2-.9,2.39,2.39,0,0,1-.5-1.4h1.5a1.33,1.33,0,0,0,.6,1,2.3,2.3,0,0,0,1.4.4,2.77,2.77,0,0,0,1.3-.3,1.05,1.05,0,0,0,.5-.9.89.89,0,0,0-.5-.8,8.8,8.8,0,0,0-1.5-.5,8.8,8.8,0,0,1-1.5-.5,2.54,2.54,0,0,1-1-.8,2.2,2.2,0,0,1-.4-1.3,1.92,1.92,0,0,1,.4-1.2,2.1,2.1,0,0,1,1.1-.8,4.53,4.53,0,0,1,1.6-.3,3.89,3.89,0,0,1,2.3.7,2.52,2.52,0,0,1,.9,2h-1.4a1.61,1.61,0,0,0-.5-1.1,2,2,0,0,0-1.3-.4,2.66,2.66,0,0,0-1.2.3,1,1,0,0,0-.3,1.4c0,.1.1.1.1.2a1.61,1.61,0,0,0,.7.4c.4.1.8.3,1.1.4a8.8,8.8,0,0,1,1.5.5,3.59,3.59,0,0,1,1,.7,1.92,1.92,0,0,1,.4,1.2,1.75,1.75,0,0,1-.4,1.2,3.13,3.13,0,0,1-1.1.9A11,11,0,0,1,327.4,41Z"/><path class="cls-30" d="M393.8,0H600.3a5,5,0,0,1,5,5V112.7a5,5,0,0,1-5,5H393.8a5,5,0,0,1-5-5V5A5,5,0,0,1,393.8,0Z"/><path class="cls-31" d="M572.1,18.2c0,.2-.1.3-.1.5a4.69,4.69,0,0,1-3.8,3.7,5.09,5.09,0,0,1-6.1-3.8v-.2a5.1,5.1,0,0,1,3.9-6h.2a.6.6,0,0,0,.4-.1h1.2a4.78,4.78,0,0,1,4.2,3.8c0,.1.1.3.1.4Zm-6-2.4h0c.5.2.5.2.5.6v.9c0,.6-.1,1.2-.1,1.7,0,.3-.1.4-.4.4-.1,0-.1,0-.1.1h0a2.44,2.44,0,0,0,1.2,0H567c-.3,0-.3,0-.3-.3V17.4a2.2,2.2,0,0,1,.1-.8c.5,1,.9,2,1.4,3.1l1.5-3c.1.1.1.1.1.2v2.3c0,.1-.1.3-.2.3h-.1c-.1,0-.2,0-.2.1a3.21,3.21,0,0,0,1.4-.1h-.3c-.1,0-.2-.1-.2-.3v-3c0-.1.1-.2.2-.3s.2,0,.2-.1v-.1h-.8a21,21,0,0,1-1.5,3c-.4-.7-.7-1.4-1.1-2.2-.1-.2-.2-.5-.3-.7s0-.1-.1-.1h0c-.1.1-.4.1-.7.1Zm-3,.1c.1,0,.1,0,.2.1.3.1.4.1.4.4v1.4h.4V16.4a.37.37,0,0,1,.1-.3h.5a.55.55,0,0,1,.6.4A1.12,1.12,0,0,1,565,18c-.1.1-.3.1-.4.2-.4.1-.7,0-1.1.1h-.2a1.27,1.27,0,0,0,.6.1,4.67,4.67,0,0,0,1.7-.3,1,1,0,0,0,.4-.5,1,1,0,0,0-.6-1.3h-.2a4.85,4.85,0,0,0-1.7,0c-.3-.5-.3-.5-.4-.4Zm.5,2.3V19c0,.3-.1.4-.4.5l-.1.1h1.5c0-.1,0-.1-.1-.1h0c-.4-.1-.4-.1-.5-.5v-.8Z"/><path d="M515.8,43V37.2h.9a.75.75,0,0,0,.1.5c.1,0,.1,0,.1-.1h0a1.73,1.73,0,0,1,2.4-.2,1.79,1.79,0,0,1,.5.7,2.56,2.56,0,0,1,0,2.1,1.74,1.74,0,0,1-2.2,1l-.6-.3v2Zm1-3.7a.75.75,0,0,0,.1.5,1.09,1.09,0,0,0,.8.8.88.88,0,0,0,1-.5,1.7,1.7,0,0,0,0-1.4c-.2-.4-.5-.7-.9-.6a1,1,0,0,0-.8.8C516.8,38.9,516.8,39.1,516.8,39.3Z"/><path class="cls-31" d="M498.9,18.4a5.7,5.7,0,0,1-.1,1.3,21.05,21.05,0,0,1-.2,2.5c0,.7-.1,1.4-.1,2.1,0,.9-.1,1.8-.1,2.7v2.3c0,.3.1.6.1.8a.9.9,0,0,0,.6.6,4.1,4.1,0,0,0,1.1.1c.1,0,.3.1.3.2v.1c0,.1-.1.3-.2.3h-.1a2.77,2.77,0,0,1-.9-.1h-1.5a20.9,20.9,0,0,0-2.5.1c-.3,0-.4-.1-.4-.4a.22.22,0,0,1,.2-.2c.3-.1.7-.1,1-.2a.85.85,0,0,0,.7-.8,5.85,5.85,0,0,0,.2-1.3,26.35,26.35,0,0,0,.2-2.8,20.9,20.9,0,0,0,.1-2.5,16.41,16.41,0,0,1,.2-2.3v-.7a13.4,13.4,0,0,1,.1-2V17.1a1.7,1.7,0,0,0-.1-.7.9.9,0,0,0-.6-.6,4.25,4.25,0,0,0-1.1-.2c-.1,0-.3-.1-.3-.2v-.1a.27.27,0,0,1,.3-.3h3.9v.7a8.45,8.45,0,0,0,.5,1.7c.6,1.5,1.4,2.9,2.1,4.4,1,2,1.9,3.9,2.9,6l.3.6c.1-.1.1-.2.2-.3.5-.9,1-1.8,1.4-2.7.8-1.7,1.7-3.4,2.5-5.2l1.5-3a4.07,4.07,0,0,0,.5-1.8v-.1h3.8a.37.37,0,0,1,.3.1v.4c-.1.1-.1.1-.2.1a3.4,3.4,0,0,1-1,.1c-.7.1-.9.5-1,1.1,0,.4-.1.8-.1,1.2v3.5c0,.7.1,1.3.1,2v.8a16.2,16.2,0,0,0,.1,2.2c0,.7.1,1.4.1,2.1a3.4,3.4,0,0,0,.1,1,.82.82,0,0,0,.8.9,3.4,3.4,0,0,0,1,.1c.1,0,.3.1.3.2v.1c0,.3-.1.4-.5.4-1.3-.1-2.6-.1-3.9-.1a5.7,5.7,0,0,0-1.3.1H510c-.3,0-.4-.1-.4-.4s0-.3.3-.3.7-.1,1-.1.8-.5.7-.9h0V18.5h-.1c-.1.1-.1.2-.2.3-.4.9-.9,1.8-1.3,2.7-.8,1.8-1.7,3.5-2.6,5.2s-1.6,3.2-2.3,4.8c0,.1,0,.1-.1.1h0c-.1.1-.1.2-.3.2s-.2-.1-.3-.2a18.25,18.25,0,0,0-1.4-3.2c-1.2-2.7-2.5-5.4-3.7-8.1-.2-.5-.5-1.1-.7-1.6C498.9,18.5,498.9,18.4,498.9,18.4Z"/><path class="cls-31" d="M530.4,27.2v2.7c.1.6.2.8.8.9h.3c.2,0,.3.2.3.4s-.1.3-.4.3a23.48,23.48,0,0,0-2.6-.1,6.6,6.6,0,0,0-1.4.1h-.3a.22.22,0,0,1-.2-.2v-.2c0-.2.1-.2.2-.3a1.27,1.27,0,0,0,.6-.1c.4,0,.6-.3.6-.7s.1-.7.1-1.1V23.8a1.36,1.36,0,0,0-.7-1.3h-.1c-.1-.1-.2-.2-.2-.3s.1-.2.2-.3c.4-.2.8-.3,1.2-.5s.7-.4,1-.6.4-.1.4.2v1.1c0,.2.1.3.4.2.5-.2.9-.5,1.4-.7a3.44,3.44,0,0,1,2-.4,2.17,2.17,0,0,1,2,.8,2.64,2.64,0,0,1,.7,1.9v6.2q.15.6.6.6c.3,0,.4.1.6.1s.3.1.3.2v.1c0,.2-.2.4-.4.3a17.7,17.7,0,0,0-2.3-.1,12.1,12.1,0,0,0-1.9.1c-.3,0-.4-.1-.4-.4s.1-.2.3-.3a1.48,1.48,0,0,1,.7-.1.63.63,0,0,0,.5-.6c0-.3.1-.5.1-.8V24.8a3.55,3.55,0,0,0-.2-1,2.1,2.1,0,0,0-1.3-1.3,3,3,0,0,0-2.3.2,1.75,1.75,0,0,0-1,1.5A7.77,7.77,0,0,1,530.4,27.2Z"/><path class="cls-31" d="M422.8,23.8c.3,0,.6.1,1,.1.9.1,1.9.1,2.8.2h2.7a12.41,12.41,0,0,0,2.7-.3,3.51,3.51,0,0,0,2.8-2.9,5,5,0,0,0-.2-2.7,3.11,3.11,0,0,0-2.7-2.2,4.68,4.68,0,0,0-1.7-.2c-.5,0-.6.3-.6.7v7a7.39,7.39,0,0,1-2.1,0V18.1a4.87,4.87,0,0,0-.1-1.2q0-.75-.9-.9a2.77,2.77,0,0,0-.9-.1c-.1,0-.3-.1-.3-.2v-.1c0-.2.1-.3.3-.4.4,0,.7-.1,1.1-.1,1.4,0,2.8-.1,4.2-.1a8.59,8.59,0,0,1,3.2.5,4.48,4.48,0,0,1,2.7,5.8,5.39,5.39,0,0,1-.7,1.3l-.4.4a8,8,0,0,1-4.2,1.6,15.06,15.06,0,0,1-3,.1c-1,0-2-.2-3-.3s-1.7-.3-2.6-.5Z"/><path class="cls-31" d="M457.6,26.5v3.1a1.7,1.7,0,0,0,.1.7.46.46,0,0,0,.4.5h.1c.3,0,.7.1,1,.1.1,0,.3.1.3.2v.1c0,.3-.1.4-.3.4a3.4,3.4,0,0,1-1-.1c-1.2,0-2.4-.1-3.6,0h-.1a.37.37,0,0,1-.3-.1.3.3,0,0,1,0-.4c0-.1.1-.1.2-.1s.5-.1.7-.1q.6-.15.6-.6c0-.4.1-.7.1-1.1V23.2c0-.3-.1-.4-.4-.4h-.8c-.2,0-.2,0-.3-.2s0-.3.1-.3a1.61,1.61,0,0,0,.7-.4c.6-.3.6-.3.6-.9a12.17,12.17,0,0,1,.7-3.8,5,5,0,0,1,2.2-2.7,4.42,4.42,0,0,1,3.7-.5,1.46,1.46,0,0,1,.9.6.91.91,0,0,1,.2,1.1,1,1,0,0,1-1.4.3l-.1-.1-.7-.7a3.55,3.55,0,0,0-.9-.4,1.79,1.79,0,0,0-1.4.4,2.59,2.59,0,0,0-.7,1.1,12.82,12.82,0,0,0-.5,2.7v2.5c0,.1.1.3.2.3h2.8c.3,0,.4.1.4.3a.6.6,0,0,1-.1.4.55.55,0,0,1-.5.3h-2.4c-.4,0-.4,0-.4.4C457.6,24.2,457.6,25.4,457.6,26.5Z"/><path class="cls-31" d="M526.7,26.6a5.61,5.61,0,0,1-.9,3.1,5.07,5.07,0,0,1-2.8,2,5.54,5.54,0,0,1-3.6-.2,4.83,4.83,0,0,1-3-3.5,6.13,6.13,0,0,1,.2-3.3,4.9,4.9,0,0,1,3.6-3.1,6.61,6.61,0,0,1,2.8,0,4.6,4.6,0,0,1,3.3,3.3A3.29,3.29,0,0,1,526.7,26.6Zm-2.2.3a6.9,6.9,0,0,0-.4-2.5,4.35,4.35,0,0,0-1-1.6,2,2,0,0,0-1.5-.6,2.33,2.33,0,0,0-1.8.6,3.36,3.36,0,0,0-1,1.6,6.13,6.13,0,0,0-.2,3,6,6,0,0,0,.6,1.9,2.59,2.59,0,0,0,2.4,1.7,2.9,2.9,0,0,0,1.8-.5,4.44,4.44,0,0,0,.8-1.1A10.68,10.68,0,0,0,524.5,26.9Z"/><path class="cls-31" d="M554.2,29.1c.1-.1.1-.2.2-.3.5-1,.9-2.1,1.4-3.1.3-.7.5-1.4.8-2,.1-.2.1-.4.2-.6s0-.3-.2-.4-.4-.1-.6-.2a.6.6,0,0,1-.4-.1c-.2,0-.3-.2-.3-.4s.1-.3.2-.3h.1a22.6,22.6,0,0,1,2.6.1,4.1,4.1,0,0,0,1.1-.1.37.37,0,0,1,.3.1.3.3,0,0,1,0,.4c0,.1-.2.1-.2.2a2.26,2.26,0,0,0-1.5,1,21.16,21.16,0,0,0-1.1,2.1l-2.7,5.8-2.4,5.1c-.1.3-.3.5-.4.8a1.57,1.57,0,0,1-1.7.5,1,1,0,0,1,.1-1.9h.6a1.05,1.05,0,0,0,.9-.5c.5-.8.9-1.6,1.3-2.4a2.77,2.77,0,0,0,.3-2c-.1-.4-.3-.9-.4-1.3l-1.8-4.8c-.2-.5-.3-.9-.5-1.3a1.27,1.27,0,0,0-.9-.7c-.2,0-.3-.1-.5-.1s-.3-.1-.3-.4c0-.1.1-.3.2-.3h.1a27.15,27.15,0,0,1,2.9.1,4.87,4.87,0,0,0,1.2-.1c.3,0,.4.1.4.3s0,.3-.2.3a1.85,1.85,0,0,0-.7.2c-.2.1-.3.1-.3.4a.6.6,0,0,0,.1.4l1.8,5.2C554,28.7,554.2,28.9,554.2,29.1Z"/><path class="cls-31" d="M465.8,25.1h-2.7c-.3,0-.5.1-.5.5a6.45,6.45,0,0,0,.3,2,3.88,3.88,0,0,0,2,2.5,9.36,9.36,0,0,0,1.6.4,2.59,2.59,0,0,0,2.3-1.1c.1-.1.2-.2.3-.2s.3.3.2.4a4.1,4.1,0,0,1-1.6,1.6,4.59,4.59,0,0,1-4.4.1,3.89,3.89,0,0,1-2.2-2.5,6.1,6.1,0,0,1,.7-5.4,5.15,5.15,0,0,1,3.3-2.1,5.5,5.5,0,0,1,2.2.2,3,3,0,0,1,1.9,1.9,4.87,4.87,0,0,1,.1,1.2c0,.1-.1.3-.2.3H469c-.2,0-.5.1-.7.1A10.48,10.48,0,0,1,465.8,25.1Zm-3-.8h2.8c.5,0,.9-.1,1.4-.1.3,0,.4-.1.5-.4a1.3,1.3,0,0,0-.5-1.3,2.6,2.6,0,0,0-1.5-.4,2.73,2.73,0,0,0-1.9.8,5.5,5.5,0,0,0-.7.9A1.09,1.09,0,0,0,462.8,24.3Z"/><path class="cls-31" d="M441.8,25.1H439c-.3,0-.4.1-.4.4a6.09,6.09,0,0,0,.8,3.2,3.36,3.36,0,0,0,3.1,1.7,4,4,0,0,0,1.5-.3,1.76,1.76,0,0,0,.9-.8c.1-.1.1-.2.3-.2a.32.32,0,0,1,.3.3c0,.1,0,.1-.1.2a4.9,4.9,0,0,1-1.8,1.7,5.3,5.3,0,0,1-4.1.1,4,4,0,0,1-2.3-2.6,6.09,6.09,0,0,1,1-5.8,4.79,4.79,0,0,1,3-1.7,6.08,6.08,0,0,1,1.9.1,2.77,2.77,0,0,1,2.2,2.2,1.7,1.7,0,0,1,0,1c0,.3-.1.3-.4.3s-.4.1-.6.1Zm-3-.8h2.7c.4,0,.8-.1,1.2-.1.6,0,.7-.1.7-.8a1.23,1.23,0,0,0-.5-1,2.3,2.3,0,0,0-1.4-.4,3.18,3.18,0,0,0-2.5,1.5,3.09,3.09,0,0,0-.2.8Z"/><path class="cls-31" d="M547.8,29.6a4.26,4.26,0,0,1-3,2.2,5.09,5.09,0,0,1-4-.8,3.52,3.52,0,0,1-1.4-2,6.35,6.35,0,0,1,1.3-6.2,5,5,0,0,1,3.5-1.4,3.47,3.47,0,0,1,2.6,1.1,2.78,2.78,0,0,1,.8,2.1c0,.4-.2.5-.6.6h-5.9c-.3,0-.4.1-.4.4v.7a5.12,5.12,0,0,0,.9,2.7,3.56,3.56,0,0,0,3,1.5,2.33,2.33,0,0,0,1.8-.6c.2-.1.3-.3.4-.4C547.4,29.1,547.6,29.2,547.8,29.6Zm-6.6-5.3h.2c1.2,0,2.4,0,3.5-.1a.75.75,0,0,0,.5-.1c.3,0,.4-.1.4-.4a1.28,1.28,0,0,0-.6-1.4,2.32,2.32,0,0,0-1.6-.3,3.14,3.14,0,0,0-2.3,1.7.66.66,0,0,0-.1.6Z"/><path class="cls-31" d="M470.2,27.1a5.33,5.33,0,0,1,1.2-3.7,5.48,5.48,0,0,1,3.4-2,8.13,8.13,0,0,1,2.2-.1l1.3.3a.45.45,0,0,1,.3.3,1.2,1.2,0,0,1,0,1.4.47.47,0,0,1-.8.1,9,9,0,0,0-1-.9,3,3,0,0,0-3.3.2,3,3,0,0,0-1.4,2.2,4.16,4.16,0,0,0,.7,3.6,3.73,3.73,0,0,0,3.2,1.7,2.2,2.2,0,0,0,.8-.1,2.7,2.7,0,0,0,1.7-1c.1-.1.1-.2.2-.3s.1-.1.2-.1.3.2.3.4v.1a3.33,3.33,0,0,1-1.2,1.4,4.17,4.17,0,0,1-2.4.9,4.65,4.65,0,0,1-3.4-.9,3.84,3.84,0,0,1-1.7-2.8C470.2,27.8,470.2,27.4,470.2,27.1Z"/><path class="cls-31" d="M449.3,22.8c.2-.2.4-.3.6-.5a5.55,5.55,0,0,1,.8-.6,1.92,1.92,0,0,1,1.2-.4,1.19,1.19,0,0,1,1.1.4.73.73,0,0,1,.2.6,1,1,0,0,1-.9,1.1h-.1a.9.9,0,0,1-.5-.1c-.3-.1-.5-.3-.8-.4a1,1,0,0,0-1.3.6h0a2.35,2.35,0,0,0-.2.8v5.3a.9.9,0,0,0,.1.5.63.63,0,0,0,.6.5,4.1,4.1,0,0,0,1.1.1c.1,0,.3.1.3.2V31q0,.45-.3.3a4.1,4.1,0,0,1-1.1-.1c-1.2,0-2.4-.1-3.5,0h-.3c0-.1-.1-.1-.1-.2-.1-.3,0-.4.3-.4h.3c.7-.1.8-.4.9-1V23.4a1,1,0,0,0-.5-.8c-.1-.1-.3-.2-.4-.3a.29.29,0,0,1,.1-.5c.6-.3,1.3-.6,1.9-.9.1-.1.3-.1.4-.2s.3-.1.3.1V22A2.35,2.35,0,0,0,449.3,22.8Z"/><path class="cls-31" d="M481.3,26.6V23.1c0-.3-.1-.3-.4-.3h-.6c-.2,0-.3-.1-.3-.2a.52.52,0,0,1,.2-.4,3.55,3.55,0,0,0,.9-.4,2.36,2.36,0,0,0,.9-.8l.6-.9c.1-.2.2-.2.4-.1s.3.1.3.3v1c0,.4,0,.4.4.4h2.5c.4,0,.5.2.5.5v.3c-.1.2-.1.3-.4.3h-2.6c-.2,0-.3.1-.4.3v5.3a3.59,3.59,0,0,0,.2,1.1,1.6,1.6,0,0,0,1.4,1.2,1.68,1.68,0,0,0,1.2-.3l.1-.1a.19.19,0,0,1,.3,0h0c.1.1.2.3.1.4l-.3.3a3.68,3.68,0,0,1-3.5.6,1.75,1.75,0,0,1-1.2-1.3,2.77,2.77,0,0,1-.1-.9A13.2,13.2,0,0,1,481.3,26.6Z"/><path class="cls-31" d="M432,31.6h-1a8.6,8.6,0,0,1-1.6-.1h-1.8a7.57,7.57,0,0,0-1.5.1h-.3c-.3,0-.5-.2-.3-.5,0-.1.1-.1.2-.2.3,0,.5-.1.8-.1a.52.52,0,0,0,.4-.2,1.15,1.15,0,0,0,.6-.9c0-.4.1-.8.1-1.3V25.3c.7,0,1.4.1,2,.1v3.9c0,.2.1.4.1.6a1.09,1.09,0,0,0,.8.8c.3.1.7.1,1,.2h.1c.3,0,.4.2.3.5Z"/><path d="M500.2,37.2h1v2.3a.75.75,0,0,0,.1.5c.1.4.5.5.9.4a.76.76,0,0,0,.6-.8V37.2h1v4h-.9c0-.2-.1-.3-.1-.5l-.2.2a1.55,1.55,0,0,1-2.1.1l-.1-.1a1.28,1.28,0,0,1-.4-1,24.52,24.52,0,0,1,.2-2.7Z"/><path d="M537,39.6h-2.7a.79.79,0,0,0,.5.8,1.88,1.88,0,0,0,.8.2c.4,0,.7-.1,1.1-.1,0,.2.1.4.1.7-.1,0-.1.1-.2.1a2.92,2.92,0,0,1-1.6.1,1.81,1.81,0,0,1-1.6-1.5,2.06,2.06,0,0,1,2.6-2.6c.6.2.8.7,1,1.2A2,2,0,0,1,537,39.6Zm-2.8-.8h1.7c.1-.4-.3-.8-.7-.9a1.06,1.06,0,0,0-1,.9Z"/><path d="M522.2,39.6a1,1,0,0,0,.8,1,2.85,2.85,0,0,0,1.3,0,.37.37,0,0,0,.3-.1c.1.2.1.5.2.7-.1,0-.1,0-.2.1a4.4,4.4,0,0,1-1.6.2,1.91,1.91,0,0,1-1.6-1.5,2.34,2.34,0,0,1,.5-2.1,1.89,1.89,0,0,1,2.6-.3,2,2,0,0,1,.6,1.4v.3c0,.4,0,.4-.4.4h-2A1.09,1.09,0,0,0,522.2,39.6Zm1.7-.8a.78.78,0,0,0-.6-.9h-.1a1.06,1.06,0,0,0-1,.9Z"/><path d="M529.8,37.1h.5v-.2c.1-.3.1-.5.2-.8a1.44,1.44,0,0,1,1.1-.9,1.73,1.73,0,0,1,1,.1,2.2,2.2,0,0,1-.1.8c-.3,0-.7-.1-.9.1a1,1,0,0,0-.2.9h.8v.8h-.9v3.3h-1V37.9h-.5v-.8Z"/><path d="M495.6,41.3c0-.3.1-.6.1-.8.2,0,.5.1.7.1.5,0,.7-.2.8-.7a2.2,2.2,0,0,0,.1-.8V35.7h1v3.7a2,2,0,0,1-.2,1.1,1.78,1.78,0,0,1-.7.8A2.77,2.77,0,0,1,495.6,41.3Z"/><path d="M508,37.4a6.37,6.37,0,0,1-.2.7.6.6,0,0,0-.4-.1h-.7c-.1,0-.3.1-.3.2v.1c0,.2,0,.3.2.4s.3.1.4.2l.6.3a1.25,1.25,0,0,1,.6,1.1,1.2,1.2,0,0,1-.7,1,1.85,1.85,0,0,1-.7.2,1.74,1.74,0,0,1-1.4-.3c.1-.2.1-.5.2-.7a2.35,2.35,0,0,0,.8.2h.6c.1,0,.3-.1.3-.2v-.1c0-.2,0-.3-.2-.4s-.3-.1-.4-.2l-.6-.3a1.1,1.1,0,0,1-.6-1,1.23,1.23,0,0,1,.7-1.1,3,3,0,0,1,1.3-.2A.76.76,0,0,1,508,37.4Z"/><path d="M511.9,41.3a1.28,1.28,0,0,1-1.2,0,.85.85,0,0,1-.7-.8c0-.2-.1-.5-.1-.8V38h-.6v-.8h.6v-.7l1-.3v1h1V38h-1v1.9c0,.5.2.7.7.6h.2C511.8,40.7,511.9,41,511.9,41.3Z"/><path d="M545.2,40.5v.8a2.85,2.85,0,0,1-1.3,0,.63.63,0,0,1-.5-.6,1.27,1.27,0,0,1-.1-.6v-2h-.6v-.8h.6v-.7c.3-.1.7-.2,1-.3v1h1v.8h-.9v2.1c.1.3.2.5.6.5A.22.22,0,0,1,545.2,40.5Z"/><path d="M541.5,37.4c-.1.3-.1.5-.2.8-.7-.2-1.3-.3-1.8.4a1.53,1.53,0,0,0,0,1.6c.3.4.8.6,1.8.3,0,.2.1.5.1.7a2.54,2.54,0,0,1-1.2.2,2,2,0,0,1-1.6-.7l-.1-.1a2.15,2.15,0,0,1-.2-2.3,2,2,0,0,1,1.7-1.2,4.87,4.87,0,0,1,1.2.1C541.4,37.2,541.5,37.2,541.5,37.4Z"/><path d="M527.4,41.3h-1V37.2h.9v.7a1.11,1.11,0,0,1,1.3-.8V38h-.4c-.4.1-.7.3-.7.7,0,.2-.1.3-.1.5v2.1Z"/><path class="cls-32" d="M52.3,72.2H258.8a5,5,0,0,1,5,5V184.9a5,5,0,0,1-5,5H52.3a5,5,0,0,1-5-5V77.2A5,5,0,0,1,52.3,72.2Z"/><path class="cls-33" d="M147.2,96.1a4.15,4.15,0,0,0-3.1-3.9,6.28,6.28,0,0,0-1.9-.3h-4.9v2.5l2.1,3.4h-2.1v8.5h2.8v-5.8h1.4l2.6,5.8h3.4l-3-6.2A3.91,3.91,0,0,0,147.2,96.1Zm-5.3-1.6c1,0,2.3.2,2.3,1.6s-2,1.6-2,1.6l-1.9-3.2Z"/><polygon class="cls-33" points="187 92.1 184.2 92.1 184.2 103.6 184.2 106.4 184.2 106.4 187 106.4 187 106.4 191.8 106.4 191.8 103.6 187 103.6 187 92.1"/><polygon class="cls-33" points="222.9 92 220.3 96.8 217.9 92 214.6 92 219 100 219 106.4 221.8 106.4 221.8 100 226.2 92 222.9 92"/><polygon class="cls-33" points="148.1 94.8 151.1 94.8 151.1 106.4 153.9 106.4 153.9 94.8 156.9 94.8 156.9 92.1 148.1 92.1 148.1 94.8"/><polygon class="cls-33" points="129.4 94.6 131 94.6 131 103.6 129.4 103.6 129.4 106.4 131 106.4 133.7 106.4 135.3 106.4 135.3 103.6 133.7 103.6 133.7 94.6 135.3 94.6 135.3 91.9 129.4 91.9 129.4 94.6"/><path class="cls-33" d="M123.2,106.4l5.7-14.5H117.4Zm0-7.5-1.7-4.3h3.4Z"/><path class="cls-33" d="M171.3,106.4h2.9l.2-.9h5.3l.2.9h2.9L177,92.1Zm4-2.7,1.7-4.3,1.7,4.3Z"/><path class="cls-33" d="M204.1,106.4H207l.2-.9h5.3l.2.9h2.9l-5.7-14.3Zm4-2.6,1.7-4.3,1.7,4.3Z"/><path class="cls-33" d="M201,92.2a6.28,6.28,0,0,0-1.9-.3h-4.9v2.5l2.1,3.4h-2.1v8.5H197v-5.8h2.1c1.3,0,5.1-.3,5.1-4.3A4.37,4.37,0,0,0,201,92.2Zm-1.9,5.5-1.9-3.2h1.7c.9,0,2.3.2,2.3,1.6S199.1,97.7,199.1,97.7Z"/><path class="cls-33" d="M158.8,100.9a5.91,5.91,0,0,0,5.9,5.9,5.85,5.85,0,0,0,5.9-5.9V92H158.9v8.9Zm2.7-6.1h6.2v6.1a3.1,3.1,0,0,1-6.2,0V94.8Z"/><path class="cls-34" d="M84.9,99.3A12.7,12.7,0,1,1,97.6,112,12.65,12.65,0,0,1,84.9,99.3Z"/><path class="cls-24" d="M97.7,94.2H88.9a.22.22,0,0,0-.2.2l4.4,11.5c0,.1.2.1.2,0l4.4-11.5C97.9,94.3,97.8,94.2,97.7,94.2Zm-4.4,6.4-1.6-4.5h3.2Z"/><path class="cls-24" d="M104.2,94.4a3.89,3.89,0,0,0-1.5-.2H99v2l1.6,2.6H99v6.4h2.1v-4.4h1.6c1,0,3.9-.2,3.9-3.4A3.27,3.27,0,0,0,104.2,94.4Zm-1.5,4.3-1.5-2.5h1.3c.7,0,1.7.2,1.7,1.2C104.3,98.6,102.7,98.7,102.7,98.7Z"/></svg>