<svg width="51" height="51" viewBox="0 0 51 51" fill="none" xmlns="http://www.w3.org/2000/svg">
<path d="M27.104 43.6473C23.5426 43.9218 19.8255 43.1742 16.4693 41.2365C7.65917 36.15 4.66502 24.8653 9.75155 16.0552C14.8381 7.24505 26.0878 4.23071 34.8979 9.31724C43.708 14.4038 46.7573 25.6736 41.6708 34.4838" stroke="#0D67F9" stroke-opacity="0.5" stroke-width="2" stroke-miterlimit="10" stroke-linecap="round"/>
<path d="M23.8594 23.2557L27.0107 38.3766L30.4607 34.6024L34.3208 39.5487L37.6197 36.7255L33.582 31.8923L38.4038 29.5395L23.8594 23.2557Z" stroke="#0D67F9" stroke-width="1.6" stroke-miterlimit="10" stroke-linecap="round"/>
<path d="M27.2419 20.7458L29.0514 19.3828" stroke="#0D67F9" stroke-width="1.05091" stroke-miterlimit="10" stroke-linecap="round"/>
<path d="M24.4367 19.7689L24.6992 17.3633" stroke="#0D67F9" stroke-width="1.05091" stroke-miterlimit="10" stroke-linecap="round"/>
<path d="M21.3954 20.2798L19.8477 18.3789" stroke="#0D67F9" stroke-width="1.05091" stroke-miterlimit="10" stroke-linecap="round"/>
<path d="M20.2207 23.0308L18.0117 22.7898" stroke="#0D67F9" stroke-width="1.05091" stroke-miterlimit="10" stroke-linecap="round"/>
<path d="M20.7667 26.078L19.0771 27.3526" stroke="#0D67F9" stroke-width="1.05091" stroke-miterlimit="10" stroke-linecap="round"/>
</svg>
