<svg width="320" height="516" viewBox="0 0 320 516" fill="none" xmlns="http://www.w3.org/2000/svg">
<path d="M319.5 19.5V494.9C319.5 505.4 311 513.9 300.5 513.9H20.7C10.2 513.9 1.70001 505.4 1.70001 494.9V19.5C1.70001 9 10.2 0.5 20.7 0.5H300.5C311 0.5 319.5 9 319.5 19.5Z" fill="url(#paint0_radial_12674_504)"/>
<path d="M320 494.9V19.5C320 8.7 311.3 0 300.5 0H20.7C9.90001 0 1.20001 8.7 1.20001 19.5V494.9C1.20001 505.7 9.90001 514.4 20.7 514.4H300.5C311.3 514.4 320 505.7 320 494.9ZM300.5 1C310.7 1 319 9.3 319 19.5V494.9C319 505.1 310.7 513.4 300.5 513.4H20.7C10.5 513.4 2.20001 505.1 2.20001 494.9V19.5C2.20001 9.3 10.5 1 20.7 1H300.5Z" fill="url(#paint1_radial_12674_504)"/>
<defs>
<radialGradient id="paint0_radial_12674_504" cx="0" cy="0" r="1" gradientUnits="userSpaceOnUse" gradientTransform="translate(318.819 9.14326) rotate(121.656) scale(418.719 257.097)">
<stop stop-color="#D1F0FF" stop-opacity="0.69"/>
<stop offset="1" stop-color="#D1F0FF" stop-opacity="0"/>
</radialGradient>
<radialGradient id="paint1_radial_12674_504" cx="0" cy="0" r="1" gradientUnits="userSpaceOnUse" gradientTransform="translate(312.448 10.5663) rotate(90) scale(440.04 289.854)">
<stop stop-color="#47B6F5"/>
<stop offset="1" stop-color="#0C6BD2" stop-opacity="0"/>
</radialGradient>
</defs>
</svg>
