<svg width="119" height="119" viewBox="0 0 119 119" fill="none" xmlns="http://www.w3.org/2000/svg">
<path d="M59.5 119C92.3609 119 119 92.3609 119 59.5C119 26.6391 92.3609 0 59.5 0C26.6391 0 0 26.6391 0 59.5C0 92.3609 26.6391 119 59.5 119Z" fill="white"/>
<path d="M52.8426 48.5679H33V63.711H52.8426V48.5679Z" stroke="#0D67F9" stroke-width="2" stroke-miterlimit="10" stroke-linecap="round"/>
<path d="M85.091 48.5679H65.248V63.711H85.091V48.5679Z" stroke="#0D67F9" stroke-width="2" stroke-miterlimit="10" stroke-linecap="round"/>
<path d="M65.247 48.5679H52.8418V91.017H65.247V48.5679Z" stroke="#0D67F9" stroke-width="2" stroke-miterlimit="10" stroke-linecap="round"/>
<path d="M52.842 63.71H36.5781V91.017H52.842V63.71Z" stroke="#0D67F9" stroke-width="2" stroke-miterlimit="10" stroke-linecap="round"/>
<path d="M81.505 63.71H65.248V91.017H81.505V63.71Z" stroke="#0D67F9" stroke-width="2" stroke-miterlimit="10" stroke-linecap="round"/>
<path d="M59.041 45.3346H50.4363C50.4363 45.3346 37.6403 45.0804 37.9793 36.6714C38.3182 28.2624 49.5041 24.1622 54.0541 32.7733C58.3825 40.9802 59.041 45.3346 59.041 45.3346Z" stroke="#0D67F9" stroke-width="2" stroke-miterlimit="10" stroke-linecap="round"/>
<path d="M59.041 45.3346H67.652C67.652 45.3346 80.448 45.0804 80.109 36.6714C79.764 28.2624 68.584 24.1622 64.034 32.7733C59.699 40.9802 59.041 45.3346 59.041 45.3346Z" stroke="#0D67F9" stroke-width="2" stroke-miterlimit="10" stroke-linecap="round"/>
</svg>
