<svg width="119" height="119" viewBox="0 0 119 119" fill="none" xmlns="http://www.w3.org/2000/svg">
<path d="M59.5 119C92.3609 119 119 92.3609 119 59.5C119 26.6391 92.3609 0 59.5 0C26.6391 0 0 26.6391 0 59.5C0 92.3609 26.6391 119 59.5 119Z" fill="white"/>
<path d="M35.3885 69.548C31.4886 60.0744 33.3841 48.7742 41.0789 41.0794C48.7736 33.3847 60.074 31.4892 69.547 35.389" stroke="#0D67F9" stroke-width="2" stroke-miterlimit="10" stroke-linecap="round"/>
<path d="M83.752 49.5928C87.656 59.0701 85.756 70.366 78.062 78.061C70.367 85.756 59.071 87.655 49.5933 83.751" stroke="#0D67F9" stroke-width="2" stroke-miterlimit="10" stroke-linecap="round"/>
<path d="M65.6 37.8609L70.028 35.4654L67.637 31.0332" stroke="#0D67F9" stroke-width="2.1693" stroke-miterlimit="10" stroke-linecap="round" stroke-linejoin="round"/>
<path d="M52.8765 81.219L48.3879 83.497L50.6745 87.986" stroke="#0D67F9" stroke-width="2.1693" stroke-miterlimit="10" stroke-linecap="round" stroke-linejoin="round"/>
<path d="M59.342 72.725C66.527 72.725 72.352 66.9 72.352 59.7146C72.352 52.5294 66.527 46.7046 59.342 46.7046C52.1568 46.7046 46.332 52.5294 46.332 59.7146C46.332 66.9 52.1568 72.725 59.342 72.725Z" stroke="#0D67F9" stroke-width="2.1693" stroke-miterlimit="10" stroke-linecap="round"/>
<path d="M64.823 63.004C64.823 60.2644 62.543 59.3044 60.333 58.5544V54.5744C61.143 54.8344 61.743 55.4144 62.113 56.3144L62.443 57.0844L64.643 55.8644L64.383 55.2444C63.643 53.4844 62.173 52.3344 60.343 52.0244V50.6044C60.343 50.0044 59.853 49.5244 59.263 49.5244C58.6729 49.5244 58.1829 50.0144 58.1829 50.6044V51.9544L57.2729 52.2744C55.4929 52.9444 54.4229 54.4644 54.4229 56.3344C54.4229 58.7944 56.1729 59.7344 58.1729 60.4444V64.784C57.1829 64.464 56.5029 63.784 56.2229 62.784L55.9529 61.864L53.7129 63.184L53.8929 63.754C54.5129 65.674 56.0829 66.944 58.1729 67.344V68.764C58.1729 69.364 58.6629 69.844 59.253 69.844C59.843 69.844 60.333 69.354 60.333 68.764V67.434C63.043 67.174 64.823 65.474 64.823 63.004ZM62.273 63.024C62.273 64.064 61.563 64.744 60.333 64.944V61.184C61.643 61.684 62.273 62.164 62.273 63.024ZM58.1729 54.5844V57.7744C57.3429 57.3944 56.9729 56.9944 56.9729 56.3044C56.9729 55.6844 57.2329 55.1844 57.7229 54.8544L58.1729 54.5844Z" fill="#0D67F9"/>
</svg>
