<svg width="113" height="108" viewBox="0 0 113 108" fill="none" xmlns="http://www.w3.org/2000/svg">
<g clip-path="url(#clip0_12647_1046)">
<path d="M13.1973 64.8375V50.9141" stroke="white" stroke-opacity="0.5" stroke-width="3" stroke-miterlimit="10"/>
<path d="M13.1973 93.6196V76.9946" stroke="white" stroke-width="3" stroke-miterlimit="10"/>
<path d="M33.043 51.0179V28.4702" stroke="white" stroke-opacity="0.5" stroke-width="3" stroke-miterlimit="10"/>
<path d="M33.043 103.906V63.1748" stroke="white" stroke-width="3" stroke-miterlimit="10"/>
<path d="M52.9922 61.8242V0" stroke="white" stroke-opacity="0.5" stroke-width="3" stroke-miterlimit="10"/>
<path d="M52.9922 106.4V73.9814" stroke="white" stroke-width="3" stroke-miterlimit="10"/>
<path d="M72.9434 64.214V19.1187" stroke="white" stroke-opacity="0.5" stroke-width="3" stroke-miterlimit="10"/>
<path d="M72.9434 102.244V76.3711" stroke="white" stroke-width="3" stroke-miterlimit="10"/>
<path d="M92.8926 53.7194V7.68896" stroke="white" stroke-opacity="0.5" stroke-width="3" stroke-miterlimit="10"/>
<path d="M92.8926 89.3594V65.9805" stroke="white" stroke-width="3" stroke-miterlimit="10"/>
<path d="M2.70117 72.007L37.8215 47.693L61.8238 69.9289L107.231 46.2383" stroke="white" stroke-width="3" stroke-miterlimit="10"/>
<path d="M98.918 44.6797L109.724 44.8875L102.451 54.343" stroke="white" stroke-width="3" stroke-miterlimit="10"/>
<path d="M105.154 72.7344C95.1785 92.6844 74.5012 106.4 50.6027 106.4C30.7566 106.4 13.0926 96.9445 1.97461 82.1898" stroke="white" stroke-width="3" stroke-miterlimit="10"/>
</g>
<defs>
<clipPath id="clip0_12647_1046">
<rect width="113" height="108" fill="white"/>
</clipPath>
</defs>
</svg>
