<?xml version="1.0" encoding="utf-8"?>
<!-- Generator: Adobe Illustrator 26.0.3, SVG Export Plug-In . SVG Version: 6.00 Build 0)  -->
<svg version="1.1" id="Layer_1" xmlns="http://www.w3.org/2000/svg" xmlns:xlink="http://www.w3.org/1999/xlink" x="0px" y="0px"
	 viewBox="0 0 177.8 105.1" style="enable-background:new 0 0 177.8 105.1;" xml:space="preserve">
<style type="text/css">
	.st0{fill:#3378FF;}
	.st1{fill:#062652;}
	.st2{fill:#5E6575;}
</style>
<g>
	<path class="st0" d="M126.7,8.1c0.1-0.3,0.1-0.6,0.1-1s0-0.7-0.1-1s-0.2-0.6-0.4-0.8c-0.2-0.3-0.5-0.5-0.8-0.7s-0.6-0.2-1-0.2
		c-0.8,0-1.5,0.4-1.9,1.2c-0.1,0.2-0.2,0.5-0.3,0.8c-0.1,0.3-0.1,0.6-0.2,1c-0.1-0.1-0.2-0.1-0.4-0.2c-0.1-0.1-0.2-0.1-0.3-0.2
		c-0.1-0.1-0.2-0.1-0.4-0.2l-1,0.6v6.3h1.1V8c0.2,0.1,0.3,0.2,0.6,0.3c0.2,0.1,0.5,0.3,0.8,0.4c0.4,0.2,0.8,0.4,1,0.5
		c0.3,0.1,0.5,0.2,0.7,0.3s0.3,0.1,0.4,0.1s0.2,0,0.3,0c0.1,0,0.2,0,0.3,0c0.1,0,0.3-0.1,0.4-0.1c0.1-0.1,0.3-0.2,0.4-0.3
		s0.3-0.3,0.4-0.5C126.6,8.6,126.7,8.4,126.7,8.1z M125.6,7.9c-0.1,0.2-0.1,0.3-0.2,0.4s-0.2,0.1-0.2,0.2c-0.1,0-0.1,0-0.2,0
		c0,0,0,0-0.1,0s-0.1,0-0.3-0.1c-0.1,0-0.3-0.1-0.5-0.2c-0.2-0.1-0.5-0.2-0.8-0.4c0.1-0.5,0.2-0.9,0.2-1.2c0.1-0.3,0.2-0.5,0.3-0.7
		c0.1-0.2,0.2-0.3,0.3-0.3c0.1-0.1,0.3-0.1,0.4-0.1c0.2,0,0.3,0,0.5,0.1c0.1,0.1,0.2,0.2,0.3,0.3c0.1,0.1,0.2,0.2,0.2,0.3
		c0,0.1,0.1,0.2,0.1,0.4c0,0.1,0,0.2,0,0.3c0,0.1,0,0.2,0,0.2C125.7,7.4,125.7,7.7,125.6,7.9z M129.5,5.6h1.1v3.8
		c0,0.6-0.1,1.1-0.2,1.5c-0.2,0.5-0.4,0.8-0.7,1.2c-0.3,0.3-0.7,0.6-1.1,0.7s-1,0.3-1.5,0.3h-0.8V12h0.8c0.4,0,0.8,0,1.1-0.1
		s0.6-0.3,0.8-0.5s0.3-0.5,0.4-0.8c0.1-0.3,0.1-0.7,0.1-1.1L129.5,5.6L129.5,5.6z M174.7,2l-1-1l0.9-1l1,1L174.7,2z M172.4,1.9l-1-1
		l0.9-1l1,1L172.4,1.9z M145.6,11.9l-1,1l-0.9-1l1-1L145.6,11.9z M147.5,5.4c-0.4-0.2-0.7-0.3-1-0.4s-0.5-0.2-0.7-0.3
		c-0.2-0.1-0.4-0.1-0.5-0.2c-0.1,0-0.2-0.1-0.3-0.1s-0.1,0-0.2,0h-0.1c-1,0-1.6,0.6-2,1.8l1.1,0.3c0.1-0.2,0.1-0.4,0.2-0.5
		c0.1-0.1,0.1-0.2,0.2-0.3c0.1-0.1,0.1-0.1,0.2-0.1c0.1,0,0.1,0,0.2,0c0.1,0,0.2,0.1,0.5,0.1c0.2,0.1,0.5,0.2,0.8,0.3
		c0.3,0.1,0.7,0.2,1.1,0.4c0.4,0.2,0.8,0.3,1.2,0.5c-0.3,0.2-0.6,0.3-1,0.5s-0.8,0.4-1.2,0.5c-0.4,0.2-0.9,0.3-1.3,0.4
		c-0.5,0.1-0.9,0.2-1.4,0.2h-0.5h-1.1l0,0l0,0c-0.2,0-0.5,0-0.7,0.1s-0.4,0.2-0.6,0.3s-0.4,0.3-0.5,0.5s-0.3,0.4-0.4,0.6
		c0,0.1-0.1,0.3-0.1,0.4c0,0.1,0,0.2,0,0.3s0,0.1,0,0.2c0,0.2,0,0.3,0.1,0.5c0,0.1,0.1,0.3,0.2,0.4c-0.3-0.1-0.5-0.2-0.7-0.4
		s-0.5-0.3-0.7-0.5s-0.4-0.4-0.5-0.7c-0.1-0.2-0.2-0.5-0.3-0.8c0.4-0.1,0.7-0.1,1.1-0.3c0.5-0.1,0.9-0.3,1.2-0.5s0.6-0.4,0.7-0.6
		c0.2-0.2,0.3-0.5,0.4-0.7c0.1-0.2,0.1-0.5,0.1-0.7c0-0.3-0.1-0.7-0.2-0.9c-0.1-0.3-0.2-0.5-0.4-0.7s-0.4-0.3-0.7-0.4
		s-0.6-0.1-0.9-0.1c-0.2,0-0.3,0-0.5,0.1c-0.2,0-0.4,0.1-0.6,0.2c-0.2,0.1-0.4,0.3-0.5,0.5c-0.2,0.2-0.3,0.5-0.4,0.8
		c-0.1,0.3-0.2,0.6-0.3,1s-0.1,0.8-0.1,1.3c-0.3,0-0.5,0-0.8,0c-0.2,0-0.3,0-0.5,0c-0.3,0-0.6,0-0.8-0.1c-0.2,0-0.3-0.1-0.4-0.2
		c-0.1-0.1-0.2-0.3-0.2-0.5s0-0.5,0-0.9V1h-1.1v5.8c0,0.3,0,0.6,0,0.9c0,0.3,0.1,0.5,0.1,0.7c0.1,0.2,0.2,0.4,0.3,0.5
		c0.1,0.2,0.3,0.3,0.5,0.4c0.2,0.1,0.4,0.2,0.7,0.2c0.2,0,0.5,0.1,0.8,0.1l0,0c0.1,0,0.1,0,0.2,0c0,0,0,0,0.1,0l0,0
		c0.2,0,0.3,0,0.5,0s0.5,0,0.7,0c0,0.3,0.1,0.6,0.3,0.9c0.1,0.3,0.3,0.5,0.5,0.8s0.4,0.5,0.7,0.7s0.5,0.4,0.8,0.6
		c0.3,0.2,0.6,0.3,1,0.4c0.4,0.1,0.7,0.1,1.1,0.1l0.4-1c-0.3-0.2-0.4-0.5-0.5-0.7s-0.1-0.4-0.1-0.5c0-0.2,0-0.3,0.1-0.4
		c0.1-0.2,0.2-0.4,0.4-0.5s0.4-0.2,0.7-0.2h1.1h0.5c0.5,0,1-0.1,1.5-0.2c0.5-0.1,1-0.3,1.5-0.4c0.5-0.2,0.9-0.4,1.3-0.6
		c0.4-0.2,0.8-0.4,1.1-0.6c0.3-0.2,0.6-0.3,0.7-0.5c0.2-0.1,0.3-0.2,0.3-0.2l-0.2-1L147.5,5.4z M137.6,6.9c0.1-0.4,0.2-0.6,0.3-0.8
		c0.1-0.2,0.2-0.3,0.4-0.4c0.1-0.1,0.3-0.1,0.4-0.1c0.4,0,0.7,0.1,0.8,0.3s0.3,0.4,0.3,0.8c0,0.1,0,0.1,0,0.3c0,0.1-0.1,0.2-0.2,0.4
		c-0.1,0.1-0.3,0.3-0.5,0.4s-0.5,0.3-0.9,0.4c-0.1,0-0.3,0.1-0.4,0.1c-0.1,0-0.3,0.1-0.4,0.1C137.5,7.7,137.5,7.2,137.6,6.9z
		 M175.8,5c-0.1-0.4-0.3-0.8-0.5-1.1s-0.5-0.5-0.7-0.6c-0.3-0.1-0.6-0.2-1-0.2c-0.3,0-0.6,0.1-0.9,0.2c-0.3,0.1-0.5,0.3-0.7,0.5
		c-0.2,0.2-0.4,0.5-0.5,0.8s-0.2,0.6-0.2,0.9s0,0.5,0.1,0.7s0.1,0.4,0.2,0.5c0.1,0.1,0.2,0.3,0.3,0.4s0.2,0.2,0.3,0.2
		c0.1,0.1,0.3,0.1,0.4,0.2c0.1,0,0.3,0.1,0.4,0.1c0.1,0,0.3,0,0.4,0c0.1,0,0.2,0,0.3,0h0.9c0,0.1,0,0.2-0.1,0.3
		c-0.1,0.1-0.2,0.2-0.3,0.3c-0.2,0.1-0.4,0.2-0.6,0.2c-0.3,0.1-0.6,0.1-1.1,0.1h-2.4H170c-0.2,0-0.3,0-0.5-0.2
		c-0.2-0.1-0.3-0.2-0.4-0.4c-0.1-0.2-0.3-0.3-0.4-0.5c-0.1-0.2-0.2-0.4-0.4-0.5L166,3.4L165,4l2.3,3.5c0.1,0.2,0.2,0.3,0.2,0.4
		s0,0.2,0,0.2c0,0.1,0,0.1-0.1,0.2c0,0.1-0.1,0.2-0.3,0.2c-0.2,0.1-0.3,0.1-0.6,0.2c-0.2,0-0.4,0-0.5,0s-0.2,0-0.3,0
		c-0.2,0-0.3,0-0.5,0s-0.4-0.1-0.7-0.1c-0.2,0-0.4-0.1-0.5-0.2L163.5,8L163,9l0.5,0.3c0.2,0.1,0.3,0.2,0.5,0.2
		c0.2,0.1,0.4,0.1,0.6,0.2c0.2,0,0.4,0.1,0.6,0.1c0.2,0,0.4,0,0.6,0c0.2,0,0.3,0,0.5,0s0.3,0,0.4,0c0.8-0.1,1.3-0.4,1.6-0.8
		c0.5,0.5,1,0.7,1.6,0.7l0,0l0,0h0.2h2.4c1,0,1.8-0.2,2.3-0.5c0.3-0.2,0.6-0.4,0.7-0.8c0.2-0.3,0.2-0.7,0.2-1.1V6.5
		C175.9,5.9,175.9,5.4,175.8,5z M173.9,6.4c-0.2,0-0.4,0-0.6,0c-0.2,0-0.3-0.1-0.4-0.1l-0.1-0.1l-0.1-0.1c0-0.1-0.1-0.1-0.1-0.2
		s0-0.2,0-0.3c0-0.2,0-0.4,0.1-0.5s0.2-0.3,0.3-0.4s0.2-0.2,0.4-0.2c0.1,0,0.3-0.1,0.4-0.1c0.3,0,0.6,0.1,0.8,0.4
		c0.1,0.2,0.2,0.4,0.3,0.7c0.1,0.3,0.1,0.6,0.1,1h-1.1L173.9,6.4L173.9,6.4z M147,10.9l1,1l-1,1l-0.9-1L147,10.9z M161.4,5.2
		c-0.2-0.3-0.5-0.5-0.8-0.7s-0.6-0.2-1-0.2c-0.8,0-1.5,0.4-1.9,1.2c-0.1,0.2-0.2,0.5-0.3,0.8s-0.1,0.6-0.2,1
		c-0.1-0.1-0.2-0.1-0.4-0.2c-0.1-0.1-0.2-0.1-0.3-0.2s-0.2-0.1-0.4-0.2L155,7.3v6.3h1.1V8c0.2,0.1,0.4,0.2,0.6,0.3
		c0.2,0.1,0.5,0.3,0.8,0.4c0.4,0.2,0.8,0.4,1,0.5c0.3,0.1,0.5,0.2,0.7,0.3s0.3,0.1,0.4,0.1c0.1,0,0.2,0,0.3,0s0.2,0,0.3,0
		s0.3-0.1,0.4-0.1c0.1-0.1,0.3-0.2,0.4-0.3c0.1-0.1,0.3-0.3,0.4-0.5c0.1-0.2,0.2-0.4,0.3-0.7s0.1-0.6,0.1-1s0-0.7-0.1-1
		C161.7,5.8,161.6,5.5,161.4,5.2z M160.7,7.9c-0.1,0.2-0.1,0.3-0.2,0.4c-0.1,0.1-0.2,0.1-0.2,0.2c-0.1,0-0.1,0-0.2,0c0,0,0,0-0.1,0
		s-0.1,0-0.3-0.1c-0.1,0-0.3-0.1-0.5-0.2c-0.2-0.1-0.5-0.2-0.8-0.4c0.1-0.5,0.2-0.9,0.2-1.2c0.1-0.3,0.2-0.5,0.3-0.7
		s0.2-0.3,0.3-0.3c0.1-0.1,0.3-0.1,0.4-0.1c0.2,0,0.3,0,0.5,0.1c0.1,0.1,0.2,0.2,0.3,0.3c0.1,0.1,0.2,0.2,0.2,0.3
		c0,0.1,0.1,0.2,0.1,0.4c0,0.1,0,0.2,0,0.3c0,0.1,0,0.2,0,0.2C160.8,7.4,160.8,7.7,160.7,7.9z M145.8,12.8l0.9,0.8l-0.8,0.9
		l-0.9-0.9L145.8,12.8z"/>
	<path class="st1" d="M128.1,28l-1.3-1.3l1.2-1.3l1.3,1.3L128.1,28z M54.8,28.9l-1.2-1.2l-1.1,1.2l1.2,1.2L54.8,28.9z M52,28.9
		l-1.2-1.2l-1.1,1.2l1.2,1.2L52,28.9z M66.1,24.8l-1.3-1.3l-1.2,1.2l1.3,1.3L66.1,24.8z M158.9,34.6c-0.6-0.8-0.9-2-0.9-3.6v-1.9
		c0-1.7,0.3-2.9,0.9-3.7c0.6-0.8,1.5-1.2,2.7-1.2s2.1,0.4,2.7,1.2c0.6,0.8,0.9,2,0.9,3.6v1.9c0,1.7-0.3,2.9-0.9,3.8
		c-0.6,0.8-1.5,1.2-2.7,1.2C160.4,35.8,159.5,35.4,158.9,34.6z M159.4,31c0,1.2,0.2,2.1,0.5,2.7c0.4,0.6,0.9,0.9,1.6,0.9
		c0.7,0,1.2-0.3,1.6-0.8c0.3-0.5,0.5-1.4,0.5-2.6v-2.4c0-1.2-0.2-2.1-0.5-2.7s-0.9-0.8-1.6-0.8c-0.7,0-1.3,0.3-1.6,0.8
		c-0.3,0.6-0.5,1.4-0.5,2.6V31z M169.6,34.8l5.6-8.9l-0.8-0.5l-5.6,8.9L169.6,34.8z M174.8,30.5c0.7,0,1.2,0.2,1.7,0.7
		c0.4,0.4,0.7,1,0.7,1.7v0.6c0,0.7-0.2,1.2-0.7,1.7c-0.4,0.4-1,0.7-1.7,0.7s-1.2-0.2-1.7-0.7c-0.4-0.4-0.7-1-0.7-1.7v-0.6
		c0-0.7,0.2-1.2,0.7-1.7C173.5,30.7,174.1,30.5,174.8,30.5z M175.7,31.8c-0.2-0.3-0.5-0.4-0.9-0.4s-0.7,0.1-0.9,0.4s-0.3,0.6-0.3,1
		v0.6c0,0.4,0.1,0.7,0.3,1s0.5,0.4,0.9,0.4s0.7-0.1,0.9-0.4c0.2-0.3,0.3-0.6,0.3-1v-0.6C176,32.4,175.9,32.1,175.7,31.8z
		 M166.4,48.6l1.3-1.3l-1.3-1.3l-1.2,1.3L166.4,48.6z M167.6,28.7c-0.4-0.4-0.7-1-0.7-1.7v-0.5c0-0.7,0.2-1.2,0.7-1.7
		c0.4-0.4,1-0.7,1.7-0.7s1.3,0.2,1.7,0.7c0.4,0.4,0.6,1,0.6,1.7v0.6c0,0.7-0.2,1.3-0.7,1.7c-0.4,0.4-1,0.7-1.7,0.7
		C168.6,29.4,168,29.2,167.6,28.7z M168,27.1c0,0.4,0.1,0.7,0.3,1s0.5,0.4,0.9,0.4s0.7-0.1,0.9-0.4s0.3-0.6,0.3-1v-0.6
		c0-0.4-0.1-0.7-0.3-1s-0.5-0.4-0.9-0.4s-0.7,0.1-0.9,0.4s-0.3,0.6-0.3,1V27.1z M77.1,35c0.2-0.2,0.4-0.5,0.6-0.8s0.2-0.7,0.2-1.2
		c0-0.2,0-0.3,0-0.6c0-0.2-0.1-0.4-0.1-0.7c0-0.2-0.1-0.5-0.1-0.7s-0.1-0.4-0.1-0.6s-0.1-0.3-0.1-0.5c0-0.1,0-0.2-0.1-0.2l-1.3,0.4
		c0,0.1,0,0.2,0.1,0.3c0,0.1,0.1,0.3,0.1,0.5s0.1,0.4,0.1,0.6s0.1,0.4,0.1,0.6s0,0.4,0.1,0.5c0,0.2,0,0.3,0,0.4c0,0.3,0,0.6-0.2,0.7
		c-0.1,0.2-0.2,0.3-0.3,0.4c-0.1,0.1-0.3,0.1-0.4,0.2c-0.1,0-0.2,0-0.3,0h-2.7c-0.5,0-0.8,0-1-0.1c-0.2,0-0.4-0.1-0.5-0.3
		c-0.1-0.1-0.2-0.3-0.2-0.6s0-0.6,0-1v-7h-1.4v7c0,0.4,0,0.7,0,1s0.1,0.6,0.2,0.8s0.2,0.5,0.3,0.7c0.1,0.2,0.3,0.3,0.6,0.5
		c0.2,0.1,0.5,0.2,0.8,0.3s0.6,0.1,1,0.1l0,0h3c0.3,0,0.6-0.1,0.9-0.2C76.6,35.4,76.9,35.2,77.1,35z M129.7,32.4c0,0.2,0,0.4,0,0.6
		c0,0.5-0.1,0.9-0.2,1.2c-0.2,0.3-0.3,0.6-0.6,0.8c-0.2,0.2-0.5,0.4-0.8,0.5s-0.6,0.2-0.9,0.2h-1.6h-0.3h-0.8c0,0.7-0.1,1.3-0.3,1.8
		c-0.2,0.5-0.5,0.9-0.9,1.2s-1,0.6-1.6,0.7c-0.6,0.2-1.4,0.2-2.3,0.2v-1.4c0.7,0,1.3-0.1,1.8-0.2c0.5-0.1,0.9-0.3,1.2-0.5
		c0.3-0.2,0.4-0.5,0.6-0.8c0.1-0.3,0.2-0.7,0.2-1.2h-1.3c-0.3,0-0.7,0-1-0.2c-0.3-0.1-0.7-0.3-1-0.5s-0.5-0.5-0.7-0.9
		s-0.3-0.8-0.3-1.4c0-0.3,0-0.6,0.1-0.9s0.1-0.5,0.2-0.7s0.2-0.4,0.3-0.5c0.1-0.2,0.2-0.3,0.3-0.4c0.3-0.3,0.6-0.5,0.9-0.6
		s0.7-0.2,1.1-0.2c0.3,0,0.7,0.1,1,0.2s0.6,0.3,0.8,0.5c0.7,0.6,1,1.6,1,2.9v1.4h0.8h0.3h1.6c0.1,0,0.2,0,0.3,0
		c0.1,0,0.3-0.1,0.4-0.2c0.1-0.1,0.2-0.2,0.3-0.4s0.2-0.4,0.2-0.7c0-0.1,0-0.2,0-0.4s0-0.3-0.1-0.5c0-0.2-0.1-0.4-0.1-0.6
		s-0.1-0.4-0.1-0.6s-0.1-0.3-0.1-0.5c0-0.1-0.1-0.2-0.1-0.3l1.3-0.4c0,0,0,0.1,0.1,0.2c0,0.1,0.1,0.3,0.1,0.5s0.1,0.4,0.1,0.6
		s0.1,0.5,0.1,0.7C129.6,32,129.7,32.2,129.7,32.4z M123.1,32.9c0-0.4,0-0.7-0.1-0.9s-0.1-0.4-0.2-0.6s-0.2-0.3-0.3-0.4
		c-0.1-0.1-0.2-0.1-0.3-0.2c-0.1,0-0.2-0.1-0.3-0.1c-0.1,0-0.2,0-0.2,0c-0.5,0-0.9,0.2-1.1,0.5c-0.3,0.3-0.4,0.8-0.4,1.4
		c0,0.6,0.2,1.1,0.6,1.3c0.1,0.1,0.2,0.1,0.3,0.1c0.1,0,0.2,0.1,0.3,0.1c0.1,0,0.2,0,0.3,0c0.1,0,0.1,0,0.2,0h1.3v-1.2
		C123.2,32.9,123.1,32.9,123.1,32.9z M139.5,38.3l1.3,1.3l1.3-1.3l-1.3-1.3L139.5,38.3z M156.5,58.5l1.1,1.2l1.2-1.2l-1.2-1.2
		L156.5,58.5z M142.5,32.4c0,0.2,0,0.4,0,0.6c0,0.5-0.1,0.9-0.2,1.2c-0.2,0.3-0.4,0.6-0.6,0.8c-0.2,0.2-0.5,0.4-0.8,0.5
		s-0.6,0.2-0.9,0.2h-1.6h-0.3h-0.8c0,0.7-0.1,1.3-0.3,1.8s-0.5,0.9-0.9,1.2s-1,0.6-1.6,0.7c-0.6,0.2-1.4,0.2-2.3,0.2v-1.4
		c0.7,0,1.4-0.1,1.8-0.2c0.5-0.1,0.9-0.3,1.2-0.5s0.4-0.5,0.6-0.8c0.1-0.3,0.2-0.7,0.2-1.2h-1.3c-0.3,0-0.7,0-1-0.2
		c-0.3-0.1-0.7-0.3-0.9-0.5c-0.3-0.2-0.5-0.5-0.7-0.9s-0.3-0.8-0.3-1.4c0-0.3,0-0.6,0.1-0.9s0.1-0.5,0.2-0.7
		c0.1-0.2,0.2-0.4,0.3-0.5c0.1-0.2,0.2-0.3,0.3-0.4c0.3-0.3,0.6-0.5,0.9-0.6c0.3-0.1,0.7-0.2,1.1-0.2c0.3,0,0.7,0.1,1,0.2
		s0.6,0.3,0.8,0.5c0.7,0.6,1,1.6,1,2.9v1.4h0.8h0.3h1.6c0.1,0,0.2,0,0.3,0s0.3-0.1,0.4-0.2c0.1-0.1,0.3-0.2,0.3-0.4
		c0.1-0.2,0.2-0.4,0.2-0.7c0-0.1,0-0.2,0-0.4s0-0.3-0.1-0.5c0-0.2-0.1-0.4-0.1-0.6s-0.1-0.4-0.1-0.6s-0.1-0.3-0.1-0.5
		c0-0.1-0.1-0.2-0.1-0.3l1.3-0.4c0,0,0,0.1,0.1,0.2c0,0.1,0.1,0.3,0.1,0.5s0.1,0.4,0.1,0.6s0.1,0.5,0.1,0.7
		C142.4,32,142.4,32.2,142.5,32.4z M135.8,32.9c0-0.4,0-0.7-0.1-0.9s-0.1-0.4-0.2-0.6c-0.1-0.2-0.2-0.3-0.3-0.4s-0.2-0.1-0.3-0.2
		c-0.1,0-0.2-0.1-0.3-0.1s-0.2,0-0.2,0c-0.5,0-0.9,0.2-1.1,0.5c-0.3,0.3-0.4,0.8-0.4,1.4c0,0.6,0.2,1.1,0.6,1.3
		c0.1,0.1,0.2,0.1,0.3,0.1s0.2,0.1,0.3,0.1s0.2,0,0.2,0c0.1,0,0.1,0,0.2,0h1.3V32.9z M159.3,58.5l1.1,1.2l1.2-1.2l-1.2-1.2
		L159.3,58.5z M176,52.5c-0.1-0.2-0.2-0.5-0.4-0.8s-0.4-0.6-0.7-0.9c-0.2-0.3-0.5-0.6-0.8-0.9c-0.3-0.3-0.5-0.6-0.8-0.9
		c-0.3-0.3-0.5-0.5-0.7-0.7s-0.4-0.4-0.6-0.5l5.8-2.5l-0.6-1.3l-6.7,2.9l-0.1,1.5c0.1,0.1,0.3,0.2,0.5,0.4s0.4,0.4,0.7,0.6
		c0.2,0.2,0.5,0.5,0.8,0.7c0.3,0.3,0.5,0.5,0.8,0.8s0.5,0.6,0.7,0.8c0.2,0.3,0.4,0.5,0.6,0.8c0.2,0.3,0.2,0.5,0.3,0.6
		c0,0.2,0.1,0.3,0.1,0.4c0,0.1,0,0.2,0,0.2c-0.1,0.1-0.2,0.2-0.4,0.3s-0.5,0.1-0.9,0.1h-3.9h-0.3h-0.3c0,0-0.1,0-0.2,0
		c-0.1,0-0.2,0-0.3,0s-0.2-0.1-0.3-0.1s-0.2-0.1-0.3-0.2c-0.1-0.1-0.2-0.2-0.2-0.3c-0.1-0.1-0.1-0.3-0.1-0.5v-2.4h-1.4v2.5
		c0,0.1,0,0.2,0,0.4c0,0.1-0.1,0.2-0.2,0.3c-0.1,0.1-0.3,0.2-0.5,0.3s-0.5,0.1-0.8,0.1h-1.1h-0.3h-1c0,0-0.1,0-0.2,0
		c-0.1,0-0.2,0-0.3,0s-0.2-0.1-0.3-0.1s-0.2-0.1-0.3-0.2c-0.1-0.1-0.2-0.2-0.2-0.3c-0.1-0.1-0.1-0.3-0.1-0.5v-2.4h-1.4v2.5
		c0,0.1,0,0.2,0,0.4c0,0.1-0.1,0.2-0.2,0.3c-0.1,0.1-0.3,0.2-0.5,0.3s-0.5,0.1-0.8,0.1H156h-0.3c-0.2,0-0.4-0.1-0.6-0.2
		c-0.2-0.1-0.4-0.3-0.5-0.5c-0.2-0.2-0.3-0.4-0.5-0.6c-0.2-0.2-0.3-0.4-0.4-0.6l-2.8-4.3l-1.2,0.8l2.7,4.2c0.1,0.2,0.2,0.3,0.2,0.4
		c0,0.1,0.1,0.2,0.1,0.2c0,0.1,0,0.1-0.1,0.2c0,0.1-0.2,0.2-0.3,0.3c-0.2,0.1-0.4,0.1-0.7,0.2c-0.2,0-0.5,0.1-0.6,0.1
		c-0.2,0-0.3,0-0.4,0c-0.2,0-0.4,0-0.6,0c-0.3,0-0.5-0.1-0.8-0.1c-0.2-0.1-0.5-0.1-0.6-0.2l-0.6-0.3l-0.7,1.2l0.6,0.3
		c0.2,0.1,0.4,0.2,0.6,0.3c0.2,0.1,0.5,0.1,0.7,0.2c0.2,0,0.5,0.1,0.7,0.1c0.3,0,0.5,0,0.7,0s0.4,0,0.6,0c0.2,0,0.4,0,0.5-0.1
		c0.9-0.1,1.5-0.4,1.9-0.9c0.6,0.6,1.2,0.9,1.9,0.9l0,0h0.1h0.3h2.2c1,0,1.7-0.3,2.2-0.8c0.2,0.3,0.5,0.4,0.8,0.6
		c0.3,0.1,0.7,0.2,1.2,0.2h1h0.3h1.1c1,0,1.7-0.3,2.2-0.8c0.2,0.3,0.5,0.4,0.8,0.6c0.3,0.1,0.7,0.2,1.2,0.2h0.3h0.3h3.9
		c0.4,0,0.8,0,1.1-0.1s0.6-0.2,0.8-0.3s0.4-0.3,0.5-0.4c0.1-0.1,0.2-0.3,0.2-0.4c0-0.1,0.1-0.2,0.1-0.3s0-0.2,0-0.3s0-0.1,0-0.2
		c0-0.1,0-0.3,0-0.4C176.1,53,176.1,52.8,176,52.5z M117,31.7c0-0.2-0.1-0.5-0.1-0.7s-0.1-0.4-0.1-0.6s-0.1-0.3-0.1-0.5
		c0-0.1,0-0.2-0.1-0.2l-1.3,0.4c0,0.1,0,0.2,0.1,0.3c0,0.1,0.1,0.3,0.1,0.5s0.1,0.3,0.1,0.5s0.1,0.4,0.1,0.6c0,0.2,0,0.4,0.1,0.5
		c0,0.2,0,0.3,0,0.4c0,0.3,0,0.5-0.1,0.7s-0.2,0.3-0.3,0.4c-0.1,0.1-0.3,0.2-0.4,0.2s-0.2,0-0.3,0.1c-0.5,0-0.9-0.1-1.1-0.3
		s-0.3-0.5-0.4-1v-2.3h-1.4v2.2c0,0.3,0,0.5-0.1,0.7s-0.2,0.3-0.3,0.4c-0.1,0.1-0.3,0.2-0.4,0.2c-0.2,0-0.3,0.1-0.4,0.1
		c-0.2,0-0.4,0-0.6-0.1c-0.2,0-0.4-0.2-0.5-0.3c-0.2-0.2-0.3-0.4-0.4-0.6c-0.1-0.3-0.1-0.7-0.1-1.1v-1.4h-1.4v5.1c0,0.4,0,0.7-0.1,1
		s-0.2,0.6-0.4,0.8c-0.2,0.2-0.5,0.4-0.8,0.5c-0.4,0.1-0.8,0.2-1.4,0.2h-1.7c-0.5,0-1-0.1-1.4-0.3s-0.7-0.5-1-0.9
		c-0.2-0.3-0.3-0.6-0.4-1c-0.1-0.3-0.1-0.6-0.1-0.9c0-0.1,0-0.3,0-0.5c0-0.5,0.1-1,0.3-1.5c0.2-0.5,0.4-1.1,0.6-1.6L100,31
		c-0.3,0.7-0.6,1.3-0.8,2c-0.2,0.6-0.3,1.1-0.3,1.5s0,0.6,0,0.7c0,0.4,0,0.8,0.1,1.2c0.1,0.5,0.3,1,0.6,1.4c0.4,0.6,0.9,1.1,1.5,1.4
		c0.6,0.3,1.3,0.5,2,0.5h1.7c1.4,0,2.4-0.3,3-1c0.7-0.6,1-1.6,1-2.9v-0.6c0.4,0.3,1,0.4,1.6,0.4c0.2,0,0.3,0,0.5,0s0.3-0.1,0.5-0.1
		c0.2-0.1,0.3-0.2,0.5-0.3s0.3-0.2,0.4-0.4c0.2,0.3,0.5,0.5,0.9,0.6s0.8,0.2,1.3,0.2c0.3,0,0.6-0.1,0.9-0.2c0.3-0.1,0.6-0.3,0.8-0.5
		c0.2-0.2,0.4-0.5,0.6-0.8c0.1-0.3,0.2-0.7,0.2-1.2c0-0.2,0-0.3,0-0.6C117.1,32.1,117.1,31.9,117,31.7z M75.7,38.4l1.1,1.2l1.2-1.2
		l-1.2-1.2L75.7,38.4z M73,38.4l1.1,1.2l1.2-1.2l-1.2-1.2L73,38.4z M92.1,32.6c-0.1-0.2-0.2-0.4-0.3-0.6c-0.3-0.5-0.6-0.9-0.8-1.2
		c-0.2-0.3-0.4-0.7-0.6-0.9c-0.2-0.3-0.3-0.5-0.4-0.7s-0.2-0.3-0.3-0.5c-0.1-0.1-0.2-0.3-0.2-0.4c-0.1-0.1-0.1-0.2-0.2-0.3L88,28.8
		l2.6,4c0.2,0.2,0.3,0.4,0.3,0.6c0,0.1,0.1,0.3,0.1,0.3c0,0.1,0,0.1,0,0.2c0,0.1-0.2,0.2-0.3,0.3c-0.2,0.1-0.4,0.1-0.7,0.2
		c-0.2,0-0.4,0.1-0.6,0.1s-0.3,0-0.3,0c-0.2,0-0.5,0-0.7,0c-0.3,0-0.5-0.1-0.8-0.1c-0.2-0.1-0.5-0.1-0.6-0.2l-0.6-0.3l-0.7,1.2
		l0.6,0.3c0.2,0.1,0.4,0.2,0.6,0.3s0.5,0.1,0.7,0.2c0.2,0,0.5,0.1,0.7,0.1c0.3,0,0.5,0,0.7,0s0.4,0,0.6,0s0.4,0,0.5-0.1
		c1.1-0.2,1.8-0.6,2.1-1.3c0.1-0.2,0.1-0.4,0.1-0.5s0-0.2,0-0.2c0-0.2,0-0.4-0.1-0.6C92.3,33,92.2,32.8,92.1,32.6z M83,35.3
		c0,0.5-0.1,1-0.2,1.4s-0.3,0.7-0.5,0.9s-0.5,0.4-0.9,0.5s-0.8,0.2-1.3,0.2h-1v1.4h1c0.7,0,1.3-0.1,1.9-0.3c0.5-0.2,1-0.5,1.3-0.9
		c0.4-0.4,0.6-0.8,0.8-1.4c0.2-0.5,0.3-1.2,0.3-1.9v-4.5H83V35.3z M67.4,30.1c0.1,0.5,0.2,1.1,0.2,1.8v1c0,0.5-0.1,0.9-0.3,1.3
		c-0.2,0.4-0.5,0.7-0.9,0.9c-0.6,0.4-1.6,0.6-2.8,0.6h-3.2l0,0c-0.3,0-0.6-0.1-0.9-0.1c-0.3-0.1-0.6-0.3-0.8-0.5c0,0-0.1,0-0.1-0.1
		l-0.1-0.1c-0.5,0.5-1.3,0.8-2.2,0.8H48c-0.3,0-0.7-0.1-1-0.2c-0.3-0.1-0.6-0.3-0.8-0.5c-0.1-0.1-0.2-0.2-0.3-0.3s-0.2-0.3-0.3-0.4
		c-0.1-0.2-0.1-0.4-0.2-0.6c0-0.2-0.1-0.5-0.1-0.7s0-0.5,0.1-0.8s0.1-0.6,0.2-0.8c0.1-0.3,0.1-0.5,0.2-0.7c0.1-0.2,0.1-0.3,0.1-0.3
		l1.3,0.4c0,0.1-0.1,0.2-0.1,0.4c-0.1,0.2-0.1,0.4-0.2,0.6c-0.1,0.2-0.1,0.4-0.1,0.6s-0.1,0.4-0.1,0.6c0,0.3,0.1,0.6,0.2,0.8
		c0.1,0.2,0.2,0.3,0.4,0.4c0.1,0.1,0.3,0.2,0.4,0.2c0.1,0,0.2,0,0.3,0h8.2c0.4,0,0.6,0,0.8-0.1s0.4-0.2,0.5-0.3s0.2-0.2,0.2-0.4
		c0-0.1,0-0.3,0-0.4v-2.5h1.4v2.5c0,0.3,0.1,0.5,0.2,0.7c0.1,0.2,0.3,0.3,0.4,0.4c0.2,0.1,0.3,0.1,0.5,0.1c0.1,0,0.2,0,0.3,0h0.2
		h2.9c0.5,0,1,0,1.3-0.1s0.6-0.2,0.8-0.3c0.2-0.1,0.3-0.2,0.4-0.4c0.1-0.1,0.1-0.3,0.1-0.4h-1.1c-0.1,0-0.3,0-0.4,0
		c-0.2,0-0.3,0-0.5-0.1c-0.2,0-0.3-0.1-0.5-0.1c-0.2-0.1-0.3-0.1-0.5-0.2c-0.1-0.1-0.3-0.2-0.4-0.3c-0.1-0.1-0.3-0.3-0.4-0.4
		c-0.1-0.2-0.2-0.4-0.3-0.6S62,31,62,30.7c0-0.4,0.1-0.8,0.2-1.1c0.1-0.4,0.3-0.7,0.6-0.9c0.3-0.3,0.5-0.4,0.9-0.6
		c0.3-0.1,0.7-0.2,1-0.2c0.4,0,0.8,0.1,1.2,0.3c0.4,0.2,0.7,0.4,0.9,0.8C67,29.1,67.2,29.5,67.4,30.1z M66.2,31.7
		c0-0.5-0.1-0.9-0.2-1.3s-0.2-0.7-0.4-0.9c-0.2-0.3-0.6-0.5-1-0.5c-0.2,0-0.3,0-0.5,0.1c-0.2,0.1-0.3,0.1-0.5,0.3
		c-0.1,0.1-0.2,0.3-0.3,0.4c-0.1,0.2-0.1,0.4-0.1,0.6s0,0.3,0.1,0.4c0,0.1,0.1,0.2,0.1,0.3c0.1,0.1,0.1,0.1,0.2,0.2
		c0.1,0,0.1,0.1,0.2,0.1c0.1,0.1,0.3,0.1,0.5,0.2c0.2,0,0.4,0.1,0.7,0.1C65,31.7,66.2,31.7,66.2,31.7z M155.7,25.6h-4.3l-0.4,2.9
		c0.3,0,0.5-0.1,0.9-0.1c0.9,0,1.7,0.2,2.4,0.6c0.9,0.5,1.6,1.5,1.6,2.9c0,2.2-1.7,3.8-4.2,3.8c-1.2,0-2.3-0.3-2.8-0.7l0.4-1.2
		c0.5,0.3,1.4,0.6,2.4,0.6c1.4,0,2.6-0.9,2.6-2.4c0-1.4-1-2.5-3.2-2.5c-0.6,0-1.1,0.1-1.5,0.1l0.7-5.4h5.3v1.4H155.7z"/>
	<path class="st2" d="M30.7,82c0.2,0,0.4,0.1,0.6,0.1c0.1,0,0.2,0,0.3,0c0.1,0,0.3-0.1,0.4-0.1c0.1-0.1,0.3-0.1,0.4-0.3
		c0.1-0.1,0.3-0.3,0.4-0.5c0.1-0.2,0.2-0.4,0.3-0.7c0.1-0.3,0.1-0.6,0.1-1c0-0.3,0-0.7-0.1-1s-0.2-0.6-0.4-0.9
		c-0.2-0.2-0.4-0.4-0.7-0.6c-0.3-0.1-0.6-0.2-1-0.2c-0.3,0-0.6,0.1-0.9,0.2c-0.2,0.1-0.4,0.3-0.6,0.4c-0.2,0.2-0.3,0.4-0.4,0.6
		s-0.2,0.5-0.3,0.7c-0.1,0.2-0.1,0.5-0.2,0.7s-0.1,0.4-0.2,0.6s-0.2,0.3-0.3,0.4c-0.1,0.1-0.2,0.2-0.4,0.2h-0.4H27l0,0h-0.1
		c-0.1,0-0.1,0-0.2,0s-0.2,0-0.2-0.1c-0.1,0-0.2-0.1-0.2-0.2c-0.1-0.1-0.1-0.2-0.2-0.3c0-0.1-0.1-0.2-0.1-0.4v-6.4h-1.1v6.4
		c0,0.1,0,0.2,0,0.3c0,0.1-0.1,0.2-0.2,0.3c-0.1,0.1-0.2,0.2-0.4,0.2c-0.2,0.1-0.4,0.1-0.7,0.1H20v1.1h3.5c0.8,0,1.4-0.2,1.8-0.6
		c0.2,0.2,0.4,0.4,0.7,0.5c0.3,0.1,0.6,0.2,0.9,0.2l0,0h0.3h0.4c0.5,0,0.9-0.2,1.2-0.6c0.2,0.1,0.5,0.3,0.7,0.4s0.4,0.2,0.6,0.3
		C30.3,81.9,30.5,82,30.7,82z M29.4,80.2c0.1-0.2,0.1-0.4,0.2-0.5c0-0.2,0.1-0.4,0.1-0.5c0-0.2,0.1-0.3,0.2-0.5
		c0.1-0.1,0.1-0.3,0.2-0.4s0.2-0.2,0.3-0.3c0.1-0.1,0.3-0.1,0.4-0.1c0.2,0,0.3,0,0.5,0.1c0.1,0.1,0.2,0.1,0.3,0.3
		c0.1,0.1,0.2,0.2,0.2,0.3c0.1,0.1,0.1,0.2,0.1,0.4c0,0.1,0,0.2,0.1,0.3c0,0.1,0,0.2,0,0.2c0,0.2,0,0.4,0,0.6s-0.1,0.3-0.1,0.4
		s-0.1,0.2-0.2,0.2c-0.1,0.1-0.1,0.1-0.2,0.1s-0.1,0-0.2,0h-0.1c-0.1,0-0.3,0-0.4-0.1c-0.1,0-0.3-0.1-0.4-0.2
		c-0.2-0.1-0.3-0.1-0.5-0.2C29.8,80.4,29.6,80.3,29.4,80.2z M47.1,96.2c-0.2-0.3-0.4-0.5-0.7-0.6s-0.6-0.2-0.9-0.2
		c-0.3,0-0.6,0.1-0.8,0.2c-0.3,0.1-0.5,0.3-0.7,0.5s-0.4,0.5-0.5,0.7c-0.1,0.3-0.2,0.6-0.2,0.9s0,0.5,0.1,0.7s0.1,0.4,0.2,0.5
		c0.1,0.1,0.2,0.3,0.3,0.3c0.1,0.1,0.2,0.2,0.3,0.2c0.1,0.1,0.3,0.1,0.4,0.2c0.1,0,0.3,0.1,0.4,0.1c0.1,0,0.3,0,0.4,0
		c0.1,0,0.2,0,0.3,0h0.9c0,0.1,0,0.2-0.1,0.3c-0.1,0.1-0.2,0.2-0.3,0.3c-0.2,0.1-0.4,0.2-0.6,0.2c-0.3,0.1-0.6,0.1-1.1,0.1h-2.3H42
		c0,0-0.1,0-0.2,0c-0.1,0-0.2-0.1-0.4-0.1c-0.1-0.1-0.2-0.2-0.3-0.3c-0.1-0.1-0.1-0.3-0.1-0.5v-2h-1.1v2.1c0,0.1,0,0.2,0,0.3
		c0,0.1-0.1,0.2-0.2,0.3c-0.1,0.1-0.2,0.2-0.4,0.2c-0.2,0.1-0.4,0.1-0.7,0.1h-6.7c-0.1,0-0.1,0-0.3,0c-0.1,0-0.2-0.1-0.3-0.1
		c-0.1-0.1-0.2-0.2-0.3-0.3c-0.1-0.2-0.1-0.4-0.1-0.6c0-0.1,0-0.3,0-0.5s0.1-0.3,0.1-0.5s0.1-0.3,0.1-0.5s0.1-0.3,0.1-0.4l-1.1-0.3
		c0,0,0,0.1-0.1,0.3c0,0.2-0.1,0.3-0.1,0.5s-0.1,0.4-0.1,0.7c0,0.2-0.1,0.5-0.1,0.7s0,0.4,0.1,0.6c0,0.2,0.1,0.3,0.2,0.5
		c0.1,0.1,0.1,0.3,0.2,0.4s0.2,0.2,0.2,0.3c0.2,0.2,0.4,0.3,0.7,0.4c0.2,0.1,0.5,0.1,0.8,0.1h6.7c0.8,0,1.4-0.2,1.8-0.6
		c0,0,0,0,0.1,0.1c0,0,0,0,0.1,0.1c0.2,0.2,0.4,0.3,0.7,0.4c0.2,0.1,0.4,0.1,0.7,0.1l0,0h2.6c1,0,1.7-0.2,2.3-0.5
		c0.3-0.2,0.5-0.4,0.7-0.7c0.2-0.3,0.2-0.6,0.2-1v-0.8c0-0.5-0.1-1-0.2-1.4C47.5,96.8,47.3,96.5,47.1,96.2z M45.7,98.6
		c-0.2,0-0.4,0-0.6,0c-0.2,0-0.3-0.1-0.4-0.1l-0.1-0.1l-0.1-0.1c0-0.1-0.1-0.1-0.1-0.2s0-0.2,0-0.3c0-0.2,0-0.4,0.1-0.5
		s0.2-0.3,0.3-0.4s0.2-0.2,0.4-0.2c0.1,0,0.3-0.1,0.4-0.1c0.3,0,0.6,0.1,0.8,0.4c0.1,0.2,0.2,0.4,0.3,0.7c0.1,0.3,0.1,0.6,0.1,1
		h-1.1C45.7,98.7,45.7,98.6,45.7,98.6z M5.5,82.4c-0.1-0.3-0.1-0.7-0.1-1c0-0.1,0-0.3,0-0.6c0-0.3,0.1-0.7,0.2-1.2s0.4-1,0.6-1.6
		l1,0.5c-0.4,0.9-0.7,1.8-0.7,2.5c0,0.1,0,0.2,0,0.4c0,0.6,0.1,1.1,0.4,1.5c0.2,0.3,0.5,0.6,0.8,0.7c0.3,0.2,0.7,0.3,1.1,0.3h1.7
		c0.2,0,0.4,0,0.7-0.1c0.2,0,0.4-0.1,0.6-0.1c0.2-0.1,0.3-0.1,0.5-0.2s0.3-0.2,0.4-0.3c0.1-0.1,0.2-0.2,0.2-0.3c0-0.1,0-0.1,0-0.2
		s0-0.1,0-0.2c0-0.2-0.2-0.3-0.3-0.4c-0.2-0.1-0.4-0.2-0.6-0.2c-0.2-0.1-0.5-0.1-0.8-0.1s-0.6,0-0.8,0v-1.1H14h1.5h0.9
		c0.1,0,0.1,0,0.3,0c0.1,0,0.2-0.1,0.3-0.1c0.1-0.1,0.2-0.2,0.3-0.3c0.1-0.1,0.1-0.3,0.1-0.6c0-0.1,0-0.2,0-0.3c0-0.1,0-0.3-0.1-0.4
		c0-0.2,0-0.3-0.1-0.5c0-0.2-0.1-0.3-0.1-0.5c0-0.1-0.1-0.3-0.1-0.4s0-0.2-0.1-0.2L18,77c0,0,0,0.1,0,0.2s0,0.2,0.1,0.4
		c0,0.2,0.1,0.3,0.1,0.5s0.1,0.4,0.1,0.6s0,0.4,0.1,0.5c0,0.2,0,0.3,0,0.5c0,0.4-0.1,0.7-0.2,1s-0.3,0.5-0.5,0.7s-0.4,0.3-0.7,0.4
		c-0.2,0.1-0.5,0.1-0.7,0.1h-0.9h-1.5h-0.1c0.2,0.3,0.3,0.6,0.3,0.9v0.1c0,0.3-0.1,0.5-0.2,0.7c-0.1,0.2-0.3,0.4-0.5,0.6
		s-0.5,0.4-0.8,0.5s-0.6,0.2-1,0.3c-0.3,0-0.7,0-1.1,0H8.8c-0.6,0-1.2-0.1-1.7-0.4S6.2,84,5.9,83.5C5.7,83.2,5.5,82.8,5.5,82.4z
		 M45.5,94l-1-1l1-1l1,1L45.5,94z M15.5,94l1,1l-1,1l-1-1L15.5,94z M37.3,96.3l-0.9,0.9l-0.9-0.9l0.9-1L37.3,96.3z M24.8,93.3
		l-4.7,2.1c0.1,0.1,0.3,0.3,0.5,0.4c0.2,0.2,0.4,0.4,0.6,0.6s0.4,0.5,0.7,0.7c0.2,0.2,0.4,0.5,0.6,0.7s0.4,0.5,0.5,0.7
		c0.2,0.2,0.3,0.5,0.3,0.7c0.1,0.2,0.1,0.3,0.1,0.5c0,0.1,0,0.2,0,0.4v0.1c0,0.1,0,0.2,0,0.3c0,0.1-0.1,0.2-0.1,0.3
		c0,0.1-0.1,0.2-0.2,0.3c-0.1,0.1-0.2,0.2-0.4,0.3c-0.2,0.1-0.4,0.2-0.6,0.3c-0.2,0.1-0.5,0.1-0.9,0.1H18h-0.3h-0.2
		c-0.4,0-0.7-0.1-1-0.2s-0.5-0.3-0.7-0.5c-0.4,0.4-1,0.6-1.8,0.6h-0.9H13h-0.8c-0.4,0-0.7-0.1-0.9-0.2c-0.3-0.1-0.5-0.3-0.7-0.5
		c-0.4,0.4-1,0.6-1.8,0.6H7.1H6.8l0,0l0,0c-0.6,0-1.1-0.3-1.6-0.7c-0.3,0.4-0.8,0.7-1.6,0.8c-0.1,0-0.3,0-0.4,0c-0.2,0-0.3,0-0.5,0
		s-0.4,0-0.6,0c-0.2,0-0.4,0-0.6-0.1c-0.2,0-0.4-0.1-0.6-0.2s-0.3-0.1-0.5-0.2L0,101.1l0.6-1l0.5,0.3c0.1,0.1,0.3,0.1,0.5,0.2
		c0.2,0,0.4,0.1,0.6,0.1s0.3,0,0.5,0c0.1,0,0.2,0,0.3,0s0.3,0,0.5,0s0.4-0.1,0.6-0.2c0.1-0.1,0.2-0.1,0.3-0.2c0,0,0.1-0.1,0.1-0.2
		c0,0,0-0.1,0-0.2s-0.1-0.2-0.2-0.4L2,96.3l0.9-0.6l2.3,3.5c0.1,0.2,0.2,0.3,0.4,0.5c0.1,0.2,0.2,0.3,0.4,0.5
		c0.1,0.1,0.3,0.3,0.4,0.4s0.3,0.1,0.5,0.1h0.2h1.7c0.3,0,0.5,0,0.7-0.1s0.3-0.1,0.4-0.2c0.1-0.1,0.1-0.2,0.2-0.3c0-0.1,0-0.2,0-0.3
		v-2h1.1v2c0,0.1,0,0.3,0.1,0.4c0,0.1,0.1,0.2,0.2,0.3c0.1,0.1,0.1,0.1,0.2,0.2c0.1,0,0.2,0.1,0.2,0.1c0.1,0,0.2,0,0.2,0
		c0.1,0,0.1,0,0.1,0H13h0.3h0.9c0.3,0,0.5,0,0.7-0.1s0.3-0.1,0.4-0.2c0.1-0.1,0.1-0.2,0.2-0.3c0-0.1,0-0.2,0-0.3v-2h1.1v2
		c0,0.1,0,0.3,0.1,0.4c0,0.1,0.1,0.2,0.2,0.3c0.1,0.1,0.1,0.1,0.2,0.2c0.1,0,0.2,0.1,0.2,0.1c0.1,0,0.2,0,0.2,0c0.1,0,0.1,0,0.1,0
		h0.2H18h3.2c0.3,0,0.5,0,0.7-0.1s0.3-0.2,0.4-0.3c0-0.1,0-0.1,0-0.2s0-0.2-0.1-0.3c0-0.1-0.1-0.3-0.2-0.5s-0.3-0.4-0.4-0.6
		c-0.2-0.2-0.4-0.4-0.6-0.7c-0.2-0.2-0.4-0.4-0.6-0.7c-0.2-0.2-0.4-0.4-0.6-0.6s-0.4-0.3-0.5-0.5c-0.2-0.1-0.3-0.2-0.4-0.3l0.1-1.3
		l5.4-2.4L24.8,93.3z M8.4,103.1l0.9,0.9l-1,1l-0.9-1L8.4,103.1z M10.7,103.1l0.9,0.9l-1,1l-0.9-1L10.7,103.1z M15.6,75.7l-0.9-0.9
		l0.9-1l1,1L15.6,75.7z M168.3,96.3l-0.9-0.9l0.9-1l1,1L168.3,96.3z M166,96.3l-0.9-0.9l0.9-1l1,1L166,96.3z M161,81.9
		c1,0,1.7-0.3,2.2-1s0.7-1.7,0.7-3.1v-1.5c0-1.3-0.3-2.3-0.7-2.9c-0.5-0.6-1.2-1-2.2-1s-1.7,0.3-2.2,1s-0.7,1.7-0.7,3V78
		c0,1.3,0.3,2.3,0.7,2.9C159.2,81.6,160,81.9,161,81.9z M159.2,76.1c0-0.9,0.2-1.6,0.4-2.1c0.3-0.5,0.7-0.7,1.3-0.7s1,0.2,1.3,0.7
		s0.4,1.2,0.4,2.2v1.9c0,1-0.2,1.7-0.4,2.1c-0.3,0.4-0.7,0.7-1.3,0.7s-1-0.2-1.3-0.7s-0.4-1.2-0.4-2.2V76.1z M174,75.7l-0.9-0.9
		l0.9-1l1,1L174,75.7z M156.5,94.3l1-1l1,1l-1,1L156.5,94.3z M176.2,75.7l-0.9-0.9l0.9-1l1,1L176.2,75.7z M128.3,93.3l1,1l-1,1l-1-1
		L128.3,93.3z M148.6,73.7h-3.5l-0.3,2.4c0.2,0,0.4-0.1,0.7-0.1c0.7,0,1.4,0.2,2,0.5c0.7,0.4,1.3,1.2,1.3,2.4c0,1.8-1.4,3.1-3.4,3.1
		c-1,0-1.9-0.2-2.3-0.6l0.3-1c0.4,0.2,1.1,0.5,2,0.5c1.1,0,2.1-0.7,2.1-2c0-1.1-0.8-2-2.6-2c-0.5,0-0.9,0.1-1.2,0.1l0.6-4.4h4.3
		L148.6,73.7L148.6,73.7z M17.9,75.7L17,74.8l0.9-1l1,1L17.9,75.7z M20.7,79.6l-0.4-6l1.1-0.1l0.4,6.2L20.7,79.6L20.7,79.6z
		 M34.1,97.2l-0.9-0.9l0.9-1l1,1L34.1,97.2z M126.1,79.6l-0.4-6l1.1-0.1l0.4,6.2L126.1,79.6L126.1,79.6z M128.5,81.8h-3.2v-1.1h3.2
		c0.4,0,0.6,0,0.8-0.1s0.4-0.1,0.5-0.2s0.1-0.2,0.2-0.3c0-0.1,0.1-0.3,0.1-0.5v-6.1h1.1v6.1c0,0.8-0.2,1.4-0.7,1.7
		C130.1,81.6,129.4,81.8,128.5,81.8z M150.7,99.1c0,0.2,0,0.3,0,0.5c0,0.4-0.1,0.7-0.2,1c-0.1,0.3-0.3,0.5-0.5,0.7s-0.4,0.3-0.7,0.4
		c-0.2,0.1-0.5,0.1-0.7,0.1l0,0l0,0h-1.5H147c0.2,0.3,0.3,0.6,0.3,0.9v0.1c0,0.3,0,0.5-0.2,0.7c-0.1,0.2-0.3,0.4-0.5,0.6
		s-0.5,0.4-0.8,0.5s-0.6,0.2-1,0.3c-0.4,0.1-0.7,0.1-1.1,0.1H142c-0.6,0-1.2-0.1-1.7-0.4s-0.9-0.6-1.2-1.1c-0.2-0.3-0.4-0.7-0.5-1.1
		c-0.1-0.3-0.1-0.7-0.1-1c0-0.1,0-0.3,0-0.6c0-0.3,0.1-0.7,0.2-1.2c0.2-0.5,0.4-1,0.6-1.6l1,0.5c-0.4,0.9-0.7,1.8-0.8,2.5
		c0,0.1,0,0.2,0,0.4c0,0.6,0.1,1.1,0.4,1.5c0.2,0.3,0.5,0.6,0.8,0.8c0.3,0.2,0.7,0.3,1.1,0.3h1.7c0.2,0,0.4,0,0.6,0
		c0.2,0,0.4-0.1,0.6-0.1c0.2-0.1,0.4-0.1,0.5-0.2c0.2-0.1,0.3-0.2,0.4-0.3c0.1-0.1,0.2-0.2,0.2-0.3c0-0.1,0-0.1,0-0.2s0-0.1,0-0.2
		c0-0.2-0.2-0.3-0.3-0.4c-0.2-0.1-0.4-0.2-0.6-0.2c-0.2-0.1-0.5-0.1-0.8-0.1s-0.6,0-0.8,0v-1.1h3.6h1.5c0.1,0,0.1,0,0.3,0
		c0.1,0,0.2-0.1,0.3-0.1c0.1-0.1,0.2-0.2,0.3-0.3c0.1-0.1,0.1-0.3,0.1-0.6c0-0.1,0-0.2,0-0.3c0-0.1,0-0.3-0.1-0.4
		c0-0.2,0-0.3-0.1-0.5c0-0.2-0.1-0.3-0.1-0.5c0-0.1-0.1-0.3-0.1-0.4s0-0.2-0.1-0.2l1.1-0.3c0,0,0,0.1,0,0.2s0.1,0.2,0.1,0.4
		c0,0.2,0.1,0.3,0.1,0.5s0.1,0.4,0.1,0.6C150.7,98.8,150.7,99,150.7,99.1z M119.1,99.8c0,0.2,0.1,0.3,0.1,0.4c0,0,0,0.1,0,0.2
		s0,0.2-0.1,0.4c-0.2,0.6-0.8,0.9-1.7,1c-0.1,0-0.3,0-0.4,0c-0.2,0-0.3,0-0.5,0s-0.4,0-0.6,0s-0.4,0-0.6-0.1c-0.2,0-0.4-0.1-0.6-0.2
		s-0.3-0.1-0.5-0.2l-0.5-0.3l0.6-1l0.5,0.3c0.1,0.1,0.3,0.1,0.5,0.2c0.2,0,0.4,0.1,0.6,0.1s0.4,0,0.6,0c0,0,0.1,0,0.2,0s0.3,0,0.5,0
		s0.4-0.1,0.6-0.2c0.1-0.1,0.2-0.1,0.3-0.2v-0.1c0-0.1,0-0.2-0.1-0.3c0-0.1-0.1-0.3-0.2-0.5l-2.1-3.2l0.9-0.6
		c0.1,0.1,0.1,0.2,0.2,0.2c0.1,0.1,0.1,0.2,0.2,0.3c0.1,0.1,0.2,0.2,0.3,0.4c0.1,0.2,0.2,0.3,0.4,0.5c0.1,0.2,0.3,0.5,0.5,0.7
		c0.2,0.3,0.4,0.6,0.7,1c0.1,0.1,0.2,0.3,0.3,0.5C119,99.5,119.1,99.6,119.1,99.8z M120.5,85.1h-0.8V84h0.8c0.4,0,0.8,0,1.1-0.1
		c0.3-0.1,0.5-0.2,0.7-0.4c0.2-0.2,0.3-0.5,0.4-0.8s0.1-0.7,0.1-1.1v-3.7h1.1v3.7c0,0.6-0.1,1.1-0.2,1.5s-0.4,0.8-0.7,1.1
		c-0.3,0.3-0.7,0.5-1.1,0.7C121.5,85,121,85.1,120.5,85.1z M131.3,97.7c-0.4-0.2-0.7-0.3-1-0.4s-0.5-0.2-0.7-0.3
		c-0.2-0.1-0.4-0.1-0.5-0.2c-0.1,0-0.2-0.1-0.3-0.1s-0.1,0-0.2,0h-0.1c-1,0-1.6,0.6-1.9,1.7l1.1,0.3c0.1-0.2,0.1-0.4,0.2-0.5
		s0.1-0.2,0.2-0.3c0.1-0.1,0.1-0.1,0.2-0.1c0.1,0,0.1,0,0.2,0c0.1,0,0.2,0.1,0.5,0.1c0.2,0.1,0.5,0.2,0.8,0.3c0.3,0.1,0.7,0.2,1,0.4
		c0.4,0.1,0.8,0.3,1.1,0.5c-0.3,0.2-0.6,0.3-1,0.5s-0.8,0.4-1.2,0.5c-0.4,0.2-0.9,0.3-1.3,0.4c-0.5,0.1-0.9,0.2-1.3,0.2h-1.4h-0.2
		H125v-1.1c0-1.1-0.3-1.8-0.8-2.3c-0.2-0.2-0.4-0.3-0.7-0.4c-0.2-0.1-0.5-0.1-0.8-0.1s-0.6,0.1-0.9,0.2s-0.5,0.3-0.7,0.5
		c-0.1,0.1-0.2,0.2-0.2,0.3c-0.1,0.1-0.2,0.3-0.2,0.4c-0.1,0.2-0.1,0.4-0.2,0.6c0,0.2-0.1,0.4-0.1,0.7c0,0.4,0.1,0.8,0.2,1.1
		c0.1,0.3,0.3,0.5,0.6,0.7c0.2,0.2,0.5,0.3,0.8,0.4s0.6,0.1,0.8,0.1h1.1c0,0.4,0,0.7-0.1,1s-0.2,0.5-0.5,0.6c-0.2,0.2-0.6,0.3-1,0.4
		s-0.9,0.1-1.5,0.1v1.1c0.7,0,1.4-0.1,1.9-0.2s0.9-0.3,1.3-0.6c0.3-0.3,0.6-0.6,0.8-1c0.2-0.4,0.2-0.9,0.2-1.4h0.7h0.2h1.4
		c0.5,0,1-0.1,1.5-0.2s1-0.3,1.4-0.4c0.5-0.2,0.9-0.4,1.3-0.6c0.4-0.2,0.8-0.4,1.1-0.6s0.5-0.3,0.7-0.4s0.3-0.2,0.3-0.2l-0.1-1
		L131.3,97.7z M123.8,100.7h-1.1c0,0-0.1,0-0.2,0s-0.1,0-0.2,0s-0.2,0-0.2-0.1c-0.1,0-0.2-0.1-0.2-0.1c-0.3-0.2-0.5-0.6-0.5-1.1
		s0.1-0.9,0.3-1.2c0.2-0.3,0.5-0.4,0.9-0.4c0,0,0.1,0,0.2,0s0.2,0,0.2,0.1c0.1,0,0.2,0.1,0.3,0.2c0.1,0.1,0.2,0.2,0.2,0.3
		c0.1,0.1,0.1,0.3,0.2,0.5c0,0.2,0.1,0.4,0.1,0.7C123.8,99.6,123.8,100.7,123.8,100.7z M114.1,84.1c-0.3,0.3-0.7,0.5-1.1,0.7
		s-0.9,0.2-1.5,0.2h-0.8v-1.1h0.8c0.4,0,0.8,0,1.1-0.1c0.3-0.1,0.5-0.2,0.7-0.4c0.2-0.2,0.3-0.5,0.4-0.8s0.1-0.7,0.1-1.1v-3.7h1.1
		v3.7c0,0.6-0.1,1.1-0.2,1.5C114.6,83.4,114.4,83.8,114.1,84.1z M138.1,79.8c0,0.2,0.1,0.3,0.1,0.5c0,0,0,0.1,0,0.2s0,0.2-0.1,0.4
		c-0.2,0.6-0.8,0.9-1.7,1c-0.1,0-0.3,0-0.4,0c-0.2,0-0.3,0-0.5,0s-0.4,0-0.6,0c-0.2,0-0.4,0-0.6-0.1c-0.2,0-0.4-0.1-0.6-0.1
		c-0.2-0.1-0.3-0.1-0.5-0.2l-0.5-0.3l0.6-1l0.5,0.3c0.1,0.1,0.3,0.1,0.5,0.2s0.4,0.1,0.6,0.1c0.2,0,0.4,0,0.6,0c0,0,0.1,0,0.2,0
		c0.1,0,0.3,0,0.5,0s0.4-0.1,0.6-0.2c0.2-0.1,0.2-0.1,0.3-0.2v-0.1c0-0.1,0-0.2-0.1-0.3c0-0.1-0.1-0.3-0.2-0.5l-2.1-3.2l0.9-0.6
		c0.1,0.1,0.1,0.2,0.2,0.2c0.1,0.1,0.1,0.2,0.2,0.3c0.1,0.1,0.2,0.2,0.3,0.4c0.1,0.2,0.2,0.3,0.4,0.5c0.1,0.2,0.3,0.5,0.5,0.7
		c0.2,0.3,0.4,0.6,0.7,1c0.1,0.2,0.2,0.3,0.3,0.5C138,79.5,138.1,79.6,138.1,79.8z M108.5,76.8c-0.2-0.1-0.5-0.1-0.8-0.1
		s-0.6,0.1-0.9,0.2s-0.5,0.3-0.7,0.5c-0.1,0.1-0.2,0.2-0.2,0.3c-0.1,0.1-0.2,0.3-0.2,0.4c-0.1,0.2-0.1,0.4-0.2,0.6
		c0,0.2-0.1,0.4-0.1,0.7c0,0.4,0.1,0.8,0.2,1.1c0.1,0.3,0.3,0.6,0.6,0.7c0.2,0.2,0.5,0.3,0.8,0.4s0.6,0.1,0.8,0.1h1.1
		c0,0.4,0,0.7-0.1,1s-0.2,0.5-0.5,0.6c-0.2,0.2-0.6,0.3-1,0.4s-0.9,0.1-1.5,0.1V85c0.7,0,1.4-0.1,1.9-0.2s0.9-0.3,1.3-0.6
		c0.3-0.3,0.6-0.6,0.8-1c0.2-0.4,0.2-0.9,0.2-1.4v-2.2c0-1.1-0.3-1.8-0.8-2.3C108.9,77,108.7,76.9,108.5,76.8z M108.8,80.7h-1.1
		c0,0-0.1,0-0.2,0s-0.1,0-0.2,0s-0.2,0-0.2-0.1c-0.1,0-0.2-0.1-0.2-0.1c-0.3-0.2-0.5-0.5-0.5-1.1c0-0.5,0.1-0.9,0.3-1.2
		c0.2-0.3,0.5-0.4,0.9-0.4c0,0,0.1,0,0.2,0s0.2,0,0.2,0.1c0.1,0,0.2,0.1,0.3,0.2c0.1,0.1,0.2,0.2,0.2,0.3c0.1,0.1,0.1,0.3,0.2,0.5
		c0,0.2,0.1,0.4,0.1,0.7C108.8,79.6,108.8,80.7,108.8,80.7z M175.2,93.3h1.1v8.4h-1.1V93.3z M172.2,95.6l-1-1l1-1l1,1L172.2,95.6z
		 M108.5,98.6c0-0.2-0.1-0.4-0.1-0.6s-0.1-0.3-0.1-0.5s-0.1-0.3-0.1-0.4s0-0.2,0-0.2l-1.1,0.3c0,0.1,0,0.1,0.1,0.2
		c0,0.1,0,0.2,0.1,0.4c0,0.1,0.1,0.3,0.1,0.5s0.1,0.3,0.1,0.5s0,0.3,0.1,0.4c0,0.1,0,0.2,0,0.3c0,0.3,0,0.5-0.1,0.6
		s-0.2,0.2-0.3,0.3c-0.1,0.1-0.2,0.1-0.3,0.1c-0.1,0-0.2,0-0.3,0h-1.3H105h-0.7v-1.1c0-1.1-0.3-1.8-0.8-2.3
		c-0.2-0.2-0.4-0.3-0.7-0.4c-0.2-0.1-0.5-0.1-0.8-0.1s-0.6,0.1-0.9,0.2s-0.5,0.3-0.7,0.5c-0.1,0.1-0.2,0.2-0.2,0.3
		c-0.1,0.1-0.2,0.3-0.2,0.4c-0.1,0.2-0.1,0.4-0.2,0.6c0,0.2-0.1,0.4-0.1,0.7c0,0.4,0.1,0.8,0.2,1.1c0.1,0.3,0.3,0.5,0.6,0.7
		c0.2,0.2,0.5,0.3,0.8,0.4s0.6,0.1,0.8,0.1h1.1c0,0.4,0,0.7-0.1,1s-0.2,0.5-0.5,0.6c-0.2,0.2-0.6,0.3-1,0.4s-0.9,0.1-1.5,0.1v1.1
		c0.7,0,1.4-0.1,1.9-0.2s0.9-0.3,1.3-0.6c0.3-0.3,0.6-0.6,0.8-1c0.2-0.4,0.2-0.9,0.2-1.4h0.7h0.2h1.3c0.3,0,0.5,0,0.7-0.1
		s0.5-0.2,0.7-0.4c0.2-0.2,0.4-0.4,0.5-0.7c0.1-0.3,0.2-0.6,0.2-1c0-0.1,0-0.3,0-0.5C108.6,99,108.6,98.8,108.5,98.6z M103.2,100.7
		h-1.1c0,0-0.1,0-0.2,0s-0.1,0-0.2,0s-0.2,0-0.2-0.1c-0.1,0-0.2-0.1-0.2-0.1c-0.3-0.2-0.5-0.6-0.5-1.1s0.1-0.9,0.3-1.2
		c0.2-0.3,0.5-0.4,0.9-0.4c0,0,0.1,0,0.2,0s0.2,0,0.2,0.1c0.1,0,0.2,0.1,0.2,0.2c0.1,0.1,0.2,0.2,0.2,0.3c0.1,0.1,0.1,0.3,0.2,0.5
		c0,0.2,0.1,0.4,0.1,0.7L103.2,100.7L103.2,100.7z M176.7,79.1c0,0.2,0,0.3,0,0.5c0,0.4-0.1,0.7-0.2,1c-0.1,0.3-0.3,0.5-0.5,0.7
		s-0.4,0.3-0.7,0.4c-0.2,0.1-0.5,0.1-0.7,0.1h-2.4l0,0c-0.3,0-0.6,0-0.8-0.1c-0.3-0.1-0.5-0.1-0.7-0.2s-0.3-0.2-0.4-0.4
		c-0.1-0.2-0.2-0.3-0.3-0.5s-0.1-0.4-0.1-0.7c0-0.3,0-0.5,0-0.8v-5.7h1.1V79c0,0.3,0,0.6,0,0.8c0,0.2,0.1,0.4,0.2,0.5
		c0.1,0.1,0.2,0.2,0.4,0.2s0.5,0.1,0.8,0.1h2.2c0.1,0,0.1,0,0.3,0c0.1,0,0.2-0.1,0.3-0.1c0.1-0.1,0.2-0.2,0.3-0.3
		c0.1-0.1,0.1-0.3,0.1-0.6c0-0.1,0-0.2,0-0.3c0-0.1,0-0.3-0.1-0.4c0-0.2,0-0.3-0.1-0.5c0-0.2-0.1-0.3-0.1-0.5c0-0.1-0.1-0.3-0.1-0.4
		s0-0.2-0.1-0.2l1.1-0.3c0,0,0,0.1,0,0.2s0,0.2,0.1,0.4c0,0.2,0.1,0.3,0.1,0.5s0.1,0.4,0.1,0.6C176.7,78.8,176.7,79,176.7,79.1z
		 M149.3,102.9l1,1l-1,1l-1-1L149.3,102.9z M173.5,99.1c0,0.2,0,0.3,0,0.5c0,0.4-0.1,0.7-0.2,1c-0.1,0.3-0.3,0.5-0.5,0.7
		s-0.4,0.3-0.7,0.4c-0.2,0.1-0.5,0.1-0.7,0.1h-1.3H170h-0.8c-0.4,0-0.7-0.1-1-0.2s-0.5-0.3-0.7-0.5c-0.4,0.4-1,0.6-1.8,0.6H164h-0.3
		h-1c-0.3,0-0.6,0-0.8-0.1s-0.5-0.2-0.7-0.4c-0.2-0.2-0.4-0.4-0.5-0.7c-0.3,0.2-0.6,0.3-1,0.4c-0.3,0.1-0.7,0.3-1.1,0.4
		c-0.4,0.1-0.8,0.2-1.1,0.3c-0.4,0.1-0.8,0.1-1.2,0.1h-1.7l0,0c-0.3,0-0.6,0-0.8-0.1c-0.3-0.1-0.5-0.1-0.7-0.2s-0.3-0.2-0.4-0.4
		c-0.1-0.2-0.2-0.3-0.3-0.5s-0.1-0.4-0.1-0.7c0-0.3,0-0.5,0-0.8v-5.7h1.1V99c0,0.3,0,0.6,0,0.8c0,0.2,0.1,0.4,0.2,0.5
		c0.1,0.1,0.2,0.2,0.4,0.2s0.5,0.1,0.8,0.1h1.4c0.4,0,0.9-0.1,1.3-0.2c0.5-0.1,0.9-0.2,1.3-0.4c0.4-0.2,0.8-0.3,1.2-0.5
		s0.7-0.4,1-0.5c-0.4-0.2-0.8-0.3-1.1-0.5c-0.4-0.1-0.7-0.3-1-0.4s-0.6-0.2-0.8-0.3c-0.2-0.1-0.4-0.1-0.5-0.1s-0.1,0-0.2,0
		c-0.1,0-0.1,0-0.2,0.1c-0.1,0.1-0.1,0.2-0.2,0.3c-0.1,0.1-0.1,0.3-0.2,0.5l-1.1-0.3c0.3-1.2,0.9-1.7,1.9-1.7h0.1c0,0,0.1,0,0.2,0
		c0.1,0,0.2,0,0.3,0.1c0.1,0,0.3,0.1,0.5,0.2s0.4,0.2,0.7,0.3c0.3,0.1,0.6,0.2,1,0.4l2.1,0.8l0.1,1c0,0-0.1,0.1-0.3,0.2
		s-0.4,0.3-0.7,0.4c0,0.1,0.1,0.3,0.2,0.3c0.1,0.1,0.2,0.1,0.3,0.2c0.1,0,0.2,0.1,0.3,0.1s0.2,0,0.2,0h1h0.3h1.8
		c0.3,0,0.5,0,0.7-0.1s0.3-0.1,0.4-0.2c0.1-0.1,0.1-0.2,0.2-0.3c0-0.1,0-0.2,0-0.3v-2h1.1v2c0,0.1,0,0.3,0.1,0.4
		c0,0.1,0.1,0.2,0.2,0.3c0.1,0.1,0.1,0.1,0.2,0.2c0.1,0,0.2,0.1,0.2,0.1c0.1,0,0.2,0,0.2,0c0.1,0,0.1,0,0.1,0h0.8h0.3h1.3
		c0.1,0,0.1,0,0.3,0c0.1,0,0.2-0.1,0.3-0.1c0.1-0.1,0.2-0.2,0.3-0.3c0.1-0.1,0.1-0.3,0.1-0.6c0-0.1,0-0.2,0-0.3c0-0.1,0-0.3-0.1-0.4
		c0-0.2,0-0.3-0.1-0.5c0-0.2-0.1-0.3-0.1-0.5c0-0.1-0.1-0.3-0.1-0.4s0-0.2-0.1-0.2l1.1-0.3c0,0,0,0.1,0,0.2s0,0.2,0.1,0.4
		c0,0.2,0.1,0.3,0.1,0.5s0.1,0.4,0.1,0.6C173.5,98.8,173.5,99,173.5,99.1z M49.8,81.9c0.1-0.1,0.3-0.1,0.4-0.3
		c0.1-0.1,0.3-0.3,0.4-0.5c0.1-0.2,0.2-0.4,0.3-0.7c0.1-0.3,0.1-0.6,0.1-1c0-0.3,0-0.7-0.1-1s-0.2-0.6-0.4-0.9
		c-0.2-0.2-0.4-0.4-0.7-0.6c-0.3-0.1-0.6-0.2-1-0.2c-0.3,0-0.6,0.1-0.9,0.2c-0.2,0.1-0.4,0.3-0.6,0.4c-0.2,0.2-0.3,0.4-0.4,0.6
		c-0.1,0.2-0.2,0.5-0.3,0.7s-0.1,0.5-0.2,0.7c-0.1,0.2-0.1,0.4-0.2,0.6c-0.1,0.2-0.2,0.3-0.2,0.4c-0.1,0.1-0.2,0.2-0.4,0.2H45h-0.2
		h-1.9l0,0h-0.1c0,0-0.1,0-0.2-0.1c-0.1,0-0.1-0.1-0.2-0.1c0.1-0.1,0.2-0.2,0.4-0.4s0.3-0.3,0.4-0.4c0.1-0.1,0.3-0.3,0.4-0.4
		c0.1-0.2,0.2-0.3,0.3-0.5s0.1-0.3,0.1-0.5s0-0.4-0.1-0.5c-0.1-0.3-0.3-0.5-0.6-0.7s-0.6-0.2-0.9-0.2h-2c-0.7,0-1.1,0.2-1.4,0.5
		c-0.1,0.1-0.1,0.2-0.2,0.3c0,0.1-0.1,0.2-0.1,0.3c0,0.1,0,0.2,0,0.3c0,0.1,0,0.2,0,0.2v0.2c0,0,0.1,0.1,0.3,0.2
		c0.1,0.1,0.3,0.3,0.4,0.4c0.2,0.2,0.4,0.3,0.6,0.5c0.2,0.2,0.4,0.4,0.6,0.5c-0.3,0.1-0.7,0.2-1.1,0.3c-0.4,0.1-1,0.1-1.5,0.1h-0.1
		c-0.4,0-0.7,0-0.8-0.1c-0.2,0-0.3-0.1-0.4-0.2c-0.1-0.1-0.2-0.3-0.2-0.5s0-0.5,0-0.8v-5.7H35V79c0,0.3,0,0.6,0,0.8
		c0,0.3,0.1,0.5,0.1,0.7c0.1,0.2,0.2,0.4,0.3,0.5c0.1,0.2,0.3,0.3,0.4,0.4c0.2,0.1,0.4,0.2,0.7,0.2c0.2,0,0.5,0.1,0.8,0.1l0,0h0.3
		c0.8,0,1.4-0.1,2-0.2s1.1-0.3,1.6-0.5c0.2,0.2,0.4,0.3,0.5,0.4c0.2,0.1,0.3,0.2,0.4,0.2c0.1,0.1,0.2,0.1,0.3,0.1s0.2,0,0.2,0h1.9
		H45h0.5c0.5,0,0.9-0.2,1.2-0.6c0.2,0.1,0.5,0.3,0.7,0.4s0.4,0.2,0.6,0.3c0.2,0.1,0.4,0.1,0.5,0.2c0.2,0,0.4,0.1,0.6,0.1
		c0.1,0,0.2,0,0.3,0C49.5,82,49.6,82,49.8,81.9z M42,79.2c-0.2,0.2-0.4,0.4-0.6,0.5c-0.1-0.1-0.3-0.2-0.5-0.4
		c-0.2-0.2-0.3-0.3-0.5-0.5s-0.3-0.3-0.5-0.4c-0.1-0.1-0.3-0.2-0.3-0.3V78l0,0l0,0h0.1c0,0,0.1,0,0.2,0c0.1,0,0.2,0,0.3,0h2
		c0.1,0,0.2,0,0.3,0.1s0.1,0.1,0.2,0.2v0.1v0.1c0,0.1-0.1,0.1-0.1,0.2C42.4,78.8,42.2,79,42,79.2z M49.2,80.9L49.2,80.9
		c-0.2,0-0.4,0-0.5-0.1c-0.1,0-0.3-0.1-0.4-0.2c-0.2-0.1-0.3-0.1-0.5-0.2s-0.4-0.2-0.6-0.3c0.1-0.2,0.1-0.4,0.2-0.5
		c0-0.2,0.1-0.4,0.1-0.5c0-0.2,0.1-0.3,0.2-0.5c0.1-0.1,0.1-0.3,0.2-0.4c0.1-0.1,0.2-0.2,0.3-0.3c0.1-0.1,0.3-0.1,0.4-0.1
		c0.2,0,0.3,0,0.5,0.1c0.1,0.1,0.2,0.1,0.3,0.3c0.1,0.1,0.2,0.2,0.2,0.3c0.1,0.1,0.1,0.2,0.1,0.4c0,0.1,0,0.2,0.1,0.3s0,0.2,0,0.2
		c0,0.2,0,0.4,0,0.6s-0.1,0.3-0.1,0.4s-0.1,0.2-0.2,0.2c-0.1,0.1-0.1,0.1-0.2,0.1C49.3,80.9,49.2,80.9,49.2,80.9z M155.9,80.9
		c0.5-0.7,0.7-1.7,0.7-3.1v-1.5c0-1.3-0.3-2.3-0.7-2.9c-0.5-0.6-1.2-1-2.2-1s-1.7,0.3-2.2,1s-0.7,1.7-0.7,3V78
		c0,1.3,0.3,2.3,0.7,2.9c0.5,0.7,1.2,1,2.2,1S155.4,81.6,155.9,80.9z M152.3,80.2c-0.3-0.5-0.4-1.2-0.4-2.2v-1.9
		c0-0.9,0.1-1.6,0.4-2.1c0.3-0.5,0.7-0.7,1.3-0.7s1,0.2,1.3,0.7s0.4,1.2,0.4,2.2v1.9c0,1-0.2,1.7-0.4,2.1c-0.3,0.4-0.7,0.7-1.3,0.7
		C153.1,80.9,152.6,80.7,152.3,80.2z M57.6,81.7c-0.2-0.1-0.5-0.2-0.7-0.4c-0.1-0.1-0.2-0.2-0.2-0.3c-0.1-0.1-0.2-0.2-0.2-0.4
		c-0.1-0.1-0.1-0.3-0.2-0.5c0-0.2-0.1-0.4-0.1-0.6s0-0.4,0.1-0.6c0-0.2,0.1-0.5,0.1-0.7s0.1-0.4,0.1-0.5c0-0.2,0.1-0.3,0.1-0.3
		l1.1,0.3c0,0.1-0.1,0.2-0.1,0.3c0,0.2-0.1,0.3-0.1,0.5s-0.1,0.3-0.1,0.5s0,0.3,0,0.5c0,0.3,0,0.5,0.1,0.6c0.1,0.2,0.2,0.3,0.3,0.3
		c0.1,0.1,0.2,0.1,0.3,0.1s0.2,0,0.3,0h7.4c0.1,0,0.3,0,0.4-0.1c0.1,0,0.2-0.1,0.3-0.2c0.2-0.2,0.3-0.4,0.3-0.7v-0.1
		c0-0.1,0-0.1,0-0.2s0-0.2,0-0.3c0-0.1,0-0.2,0-0.3c0-0.1,0-0.2,0-0.3c0-0.1,0-0.2-0.1-0.4c0-0.1-0.1-0.3-0.1-0.5l1.1-0.2
		c0,0.2,0.1,0.3,0.1,0.5c0,0.1,0.1,0.3,0.1,0.4c0,0.2,0.1,0.5,0.1,0.7s0,0.4,0.1,0.5v0.1c0,0.2,0,0.3,0,0.5S68,80.2,68,80.3
		c-0.1,0.1-0.1,0.3-0.2,0.4s-0.1,0.2-0.2,0.3c-0.2,0.2-0.4,0.4-0.7,0.5c-0.3,0.1-0.5,0.2-0.8,0.2h-7.4
		C58.1,81.8,57.9,81.8,57.6,81.7z M55.3,103.1l0.9,0.9l-1,1l-0.9-1L55.3,103.1z M60.3,97.8h1.1v3.7c0,0.6-0.1,1.1-0.2,1.5
		c-0.1,0.4-0.4,0.8-0.7,1.1c-0.3,0.3-0.7,0.5-1.1,0.7c-0.4,0.2-0.9,0.2-1.5,0.2h-0.8v-1.1h0.8c0.4,0,0.8,0,1.1-0.1s0.5-0.2,0.7-0.4
		c0.2-0.2,0.3-0.5,0.4-0.8c0.1-0.3,0.1-0.7,0.1-1.1v-3.7C60.2,97.8,60.3,97.8,60.3,97.8z M54.8,101.7c-0.2,0.1-0.5,0.1-0.7,0.1h-2.4
		l0,0c-0.3,0-0.6,0-0.8-0.1c-0.3-0.1-0.5-0.1-0.7-0.2s-0.3-0.2-0.4-0.4c-0.1-0.2-0.2-0.3-0.3-0.5s-0.1-0.4-0.1-0.7
		c0-0.3,0-0.5,0-0.8v-5.7h1.1V99c0,0.3,0,0.6,0,0.8c0,0.2,0.1,0.4,0.2,0.5c0.1,0.1,0.2,0.2,0.4,0.2s0.5,0.1,0.8,0.1h2.2
		c0.1,0,0.1,0,0.3,0c0.1,0,0.2-0.1,0.3-0.1c0.1-0.1,0.2-0.2,0.3-0.3c0.1-0.1,0.1-0.3,0.1-0.6c0-0.1,0-0.2,0-0.3c0-0.1,0-0.3-0.1-0.4
		c0-0.2,0-0.3-0.1-0.5c0-0.2-0.1-0.3-0.1-0.5c0-0.1-0.1-0.3-0.1-0.4s0-0.2-0.1-0.2l1.1-0.3c0,0,0,0.1,0,0.2s0,0.2,0.1,0.4
		c0,0.2,0.1,0.3,0.1,0.5s0.1,0.4,0.1,0.6s0.1,0.4,0.1,0.5c0,0.2,0,0.3,0,0.5c0,0.4-0.1,0.7-0.2,1c-0.1,0.3-0.3,0.5-0.5,0.7
		C55.3,101.4,55.1,101.6,54.8,101.7z M53.1,103.1L54,104l-1,1l-0.9-1L53.1,103.1z M107.2,102.9l1,1l-1,1l-1-1L107.2,102.9z
		 M63.1,83.9l-1,1l-1-1l1-1L63.1,83.9z M67.9,99.8c0,0.2,0.1,0.3,0.1,0.4c0,0,0,0.1,0,0.2s0,0.2-0.1,0.4c-0.2,0.6-0.8,0.9-1.7,1
		c-0.1,0-0.3,0-0.4,0c-0.2,0-0.3,0-0.5,0s-0.4,0-0.6,0s-0.4,0-0.6-0.1c-0.2,0-0.4-0.1-0.6-0.2c-0.2-0.1-0.3-0.1-0.5-0.2l-0.5-0.3
		l0.6-1l0.5,0.3c0.1,0.1,0.3,0.1,0.5,0.2c0.2,0,0.4,0.1,0.6,0.1s0.4,0,0.6,0c0,0,0.1,0,0.2,0s0.3,0,0.5,0s0.4-0.1,0.6-0.2
		s0.2-0.1,0.3-0.2v-0.1c0-0.1,0-0.2-0.1-0.3c0-0.1-0.1-0.3-0.2-0.5l-2.1-3.2l0.9-0.6c0.1,0.1,0.1,0.2,0.2,0.2
		c0.1,0.1,0.1,0.2,0.2,0.3c0.1,0.1,0.2,0.2,0.3,0.4c0.1,0.2,0.2,0.3,0.4,0.5c0.1,0.2,0.3,0.5,0.5,0.7c0.2,0.3,0.4,0.6,0.7,1
		c0.1,0.1,0.2,0.3,0.3,0.5C67.8,99.5,67.8,99.6,67.9,99.8z M100.2,85h-1.3c-0.3,0-0.6,0-0.9-0.1s-0.5-0.2-0.8-0.3
		c-0.2-0.1-0.5-0.3-0.7-0.5s-0.4-0.4-0.5-0.6c-0.2-0.3-0.3-0.6-0.4-1s-0.1-0.7-0.1-1.1c0-0.5,0.1-1,0.2-1.6c0.2-0.6,0.4-1.2,0.7-1.8
		c0.2,0.1,0.3,0.2,0.5,0.2c0.2,0.1,0.3,0.2,0.5,0.2c-0.5,1.1-0.8,2.1-0.8,2.9c0,0.3,0,0.6,0.1,0.8c0.1,0.3,0.2,0.5,0.3,0.7
		c0.2,0.3,0.5,0.6,0.8,0.7c0.3,0.2,0.7,0.3,1.1,0.3h1.3c0.4,0,0.7,0,1-0.1s0.5-0.2,0.7-0.3c0.2-0.2,0.3-0.3,0.4-0.6
		c0.1-0.2,0.1-0.5,0.1-0.9c-0.4-0.1-0.7-0.2-1.1-0.3c-0.2,0-0.3-0.1-0.5-0.1s-0.3-0.1-0.5-0.1s-0.3-0.1-0.5-0.1s-0.3-0.1-0.4-0.1
		c-0.2-0.4-0.3-0.8-0.3-1.2c0,0,0-0.2,0-0.4c0-0.2,0.1-0.5,0.3-0.9c0.2-0.4,0.4-0.7,0.7-1c0.3-0.3,0.6-0.5,1-0.7s0.8-0.3,1.3-0.3
		c0.1,0,0.2,0,0.3,0c0.4,0,0.8,0.1,1.1,0.2l-0.3,1.1c-0.3-0.1-0.5-0.1-0.8-0.1s-0.5,0-0.8,0.1s-0.5,0.2-0.7,0.3
		c-0.2,0.1-0.4,0.3-0.6,0.5s-0.3,0.4-0.3,0.7c0,0.2-0.1,0.3-0.1,0.5c0,0.1,0,0.2,0,0.3l2.3,0.6c0.3,0.1,0.6,0.2,0.7,0.4
		c0.2,0.2,0.2,0.4,0.2,0.7c0,0.5-0.1,1-0.2,1.4s-0.3,0.7-0.6,1c-0.3,0.3-0.6,0.4-1,0.6C101.4,85,100.8,85,100.2,85z M98.1,98.6
		c0-0.2-0.1-0.4-0.1-0.6s-0.1-0.3-0.1-0.5s-0.1-0.3-0.1-0.4s0-0.2,0-0.2l-1.1,0.3c0,0.1,0,0.1,0.1,0.2c0,0.1,0,0.2,0.1,0.4
		c0,0.1,0.1,0.3,0.1,0.5s0.1,0.3,0.1,0.5s0,0.3,0.1,0.4c0,0.1,0,0.2,0,0.3c0,0.3,0,0.5-0.1,0.6s-0.2,0.2-0.3,0.3
		c-0.1,0.1-0.2,0.1-0.3,0.1c-0.1,0-0.2,0-0.3,0h-1.3h-0.2H94v-1.1c0-1.1-0.3-1.8-0.8-2.3c-0.2-0.2-0.4-0.3-0.7-0.4
		c-0.2-0.1-0.5-0.1-0.8-0.1s-0.6,0.1-0.9,0.2s-0.5,0.3-0.7,0.5c-0.1,0.1-0.2,0.2-0.2,0.3c-0.1,0.1-0.2,0.3-0.2,0.4
		c-0.1,0.2-0.1,0.4-0.2,0.6c0,0.2-0.1,0.4-0.1,0.7c0,0.4,0.1,0.8,0.2,1.1c0.1,0.3,0.3,0.5,0.6,0.7c0.2,0.2,0.5,0.3,0.8,0.4
		s0.6,0.1,0.8,0.1h1.1c0,0.4,0,0.7-0.1,1s-0.2,0.5-0.5,0.6c-0.2,0.2-0.6,0.3-1,0.4s-0.9,0.1-1.5,0.1v1.1c0.7,0,1.4-0.1,1.9-0.2
		s0.9-0.3,1.3-0.6c0.3-0.3,0.6-0.6,0.8-1c0.2-0.4,0.2-0.9,0.2-1.4h0.7h0.2h1.3c0.3,0,0.5,0,0.8-0.1c0.2-0.1,0.5-0.2,0.7-0.4
		c0.2-0.2,0.4-0.4,0.5-0.7c0.1-0.3,0.2-0.6,0.2-1c0-0.1,0-0.3,0-0.5C98.2,99,98.2,98.8,98.1,98.6z M92.8,100.7h-1.1c0,0-0.1,0-0.2,0
		s-0.1,0-0.2,0s-0.2,0-0.2-0.1c-0.1,0-0.2-0.1-0.2-0.1c-0.3-0.2-0.5-0.6-0.5-1.1s0.1-0.9,0.3-1.2c0.2-0.3,0.5-0.4,0.9-0.4
		c0,0,0.1,0,0.2,0s0.2,0,0.2,0.1c0.1,0,0.2,0.1,0.3,0.2c0.1,0.1,0.2,0.2,0.2,0.3c0.1,0.1,0.1,0.3,0.2,0.5c0,0.2,0.1,0.4,0.1,0.7
		C92.8,99.6,92.8,100.7,92.8,100.7z M96.9,95.6l-1-1l1-1l1,1L96.9,95.6z M89.9,79.6c-0.2,0.1-0.4,0.3-0.7,0.4
		c-0.3,0.2-0.7,0.4-1.1,0.6s-0.8,0.4-1.3,0.6s-0.9,0.3-1.5,0.4c-0.5,0.1-1,0.2-1.5,0.2h-1.4h-0.2h-0.1c-0.4,0-0.7-0.1-1-0.2
		s-0.5-0.3-0.7-0.5l0,0l-0.1,0.1c-0.2,0.2-0.4,0.3-0.7,0.4c-0.2,0.1-0.5,0.1-0.8,0.1c-0.7,0-1.3-0.2-1.7-0.6
		c-0.2,0.2-0.4,0.4-0.7,0.5c-0.3,0.1-0.5,0.2-0.8,0.2h-0.1c-0.7,0-1.2-0.2-1.6-0.6l-0.1,0.1c-0.4,0.4-1,0.5-1.7,0.5h-0.5l0,0
		c-0.3,0-0.6,0-0.8-0.1c-0.3-0.1-0.5-0.1-0.7-0.2s-0.3-0.2-0.4-0.4c-0.1-0.2-0.2-0.3-0.3-0.5c-0.1-0.2-0.1-0.4-0.1-0.7
		c0-0.3,0-0.5,0-0.8v-5.7h1.1V79c0,0.3,0,0.6,0,0.8c0,0.2,0.1,0.4,0.2,0.5s0.2,0.2,0.4,0.2c0.2,0,0.5,0.1,0.8,0.1H72
		c0.3,0,0.5,0,0.6-0.1c0.2,0,0.3-0.1,0.4-0.2s0.1-0.2,0.2-0.3c0-0.1,0-0.3,0-0.5v-1.8h1.1v1.8c0,0.4,0.1,0.7,0.3,0.8
		c0.2,0.2,0.5,0.3,0.9,0.3c0.1,0,0.2,0,0.3,0c0.1,0,0.2-0.1,0.3-0.1c0.1-0.1,0.2-0.2,0.3-0.3c0.1-0.1,0.1-0.3,0.1-0.6v-1.8h1.1v1.8
		c0,0.4,0.1,0.7,0.3,0.8c0.2,0.2,0.5,0.3,0.9,0.3c0.1,0,0.2,0,0.3-0.1c0.1,0,0.2-0.1,0.3-0.2c0.1-0.1,0.2-0.2,0.2-0.3
		c0.1-0.1,0.1-0.3,0.1-0.5v-1.8h1.1v1.8c0,0.4,0.1,0.6,0.3,0.8c0.2,0.2,0.5,0.2,0.9,0.2h0.1h0.2h1.4c0.4,0,0.9-0.1,1.3-0.2
		c0.5-0.1,0.9-0.2,1.3-0.4c0.4-0.2,0.8-0.3,1.2-0.5c0.4-0.2,0.7-0.4,1-0.5c-0.4-0.2-0.8-0.3-1.1-0.4c-0.4-0.1-0.7-0.3-1-0.4
		s-0.6-0.2-0.8-0.3c-0.2-0.1-0.4-0.1-0.5-0.1s-0.1,0-0.2,0s-0.1,0-0.2,0.1s-0.1,0.2-0.2,0.3c-0.1,0.1-0.1,0.3-0.2,0.5l-1.1-0.3
		c0.3-1.2,0.9-1.7,1.9-1.7h0.1c0,0,0.1,0,0.2,0s0.2,0,0.3,0.1c0.1,0,0.3,0.1,0.5,0.2s0.4,0.2,0.7,0.3c0.3,0.1,0.6,0.2,1,0.4l2.1,0.8
		l0.2,1C90.2,79.4,90.1,79.5,89.9,79.6z M88,99.1c0,0.2,0,0.3,0,0.5c0,0.4-0.1,0.7-0.2,1s-0.3,0.5-0.5,0.7s-0.4,0.3-0.7,0.4
		c-0.2,0.1-0.5,0.1-0.7,0.1c-0.4,0-0.7-0.1-1-0.2s-0.5-0.3-0.7-0.5c-0.1,0.1-0.2,0.2-0.4,0.3c-0.1,0.1-0.3,0.2-0.4,0.2
		c-0.1,0.1-0.3,0.1-0.4,0.1s-0.3,0-0.4,0c-0.5,0-0.9-0.1-1.3-0.3v0.5c0,1-0.3,1.8-0.8,2.3c-0.6,0.5-1.4,0.8-2.5,0.8h-1.4
		c-0.6,0-1.2-0.1-1.7-0.4s-0.9-0.6-1.2-1.1c-0.2-0.3-0.4-0.7-0.5-1.1c-0.1-0.3-0.1-0.7-0.1-1c0-0.1,0-0.3,0-0.6
		c0-0.3,0.1-0.7,0.2-1.2s0.4-1,0.6-1.6l1,0.5c-0.2,0.5-0.4,0.9-0.5,1.3s-0.2,0.8-0.2,1.2c0,0.1,0,0.2,0,0.4c0,0.2,0,0.5,0.1,0.8
		s0.2,0.5,0.3,0.8c0.2,0.3,0.5,0.6,0.8,0.7c0.3,0.2,0.7,0.3,1.1,0.3H78c0.5,0,0.8,0,1.1-0.1c0.3-0.1,0.5-0.2,0.7-0.4
		c0.2-0.2,0.3-0.4,0.3-0.6c0.1-0.2,0.1-0.5,0.1-0.8v-4.2h1.1v1.2c0,0.4,0,0.7,0.1,0.9c0.1,0.2,0.2,0.4,0.3,0.5
		c0.1,0.1,0.3,0.2,0.4,0.2c0.2,0,0.3,0.1,0.5,0.1c0.1,0,0.2,0,0.3-0.1c0.1,0,0.2-0.1,0.4-0.2c0.1-0.1,0.2-0.2,0.3-0.3
		c0.1-0.1,0.1-0.3,0.1-0.5v-1.8h1.1v1.8c0,0.4,0.1,0.6,0.3,0.8c0.2,0.2,0.5,0.3,0.9,0.3c0.1,0,0.2,0,0.3,0c0.1,0,0.2-0.1,0.3-0.2
		c0.1-0.1,0.2-0.2,0.3-0.3c0.1-0.1,0.1-0.3,0.1-0.6c0-0.1,0-0.2,0-0.3c0-0.1,0-0.3,0-0.4s0-0.3-0.1-0.5c0-0.2-0.1-0.3-0.1-0.4
		s0-0.3-0.1-0.4c0-0.1,0-0.2-0.1-0.2l1.1-0.3c0,0,0,0.1,0,0.2s0,0.2,0.1,0.4c0,0.1,0.1,0.3,0.1,0.5s0.1,0.4,0.1,0.5
		C87.9,98.8,88,98.9,88,99.1z"/>
</g>
</svg>
