<svg id="Layer_1" data-name="Layer 1" xmlns="http://www.w3.org/2000/svg" viewBox="0 0 209 74.71"><defs><style>.cls-1{fill:#3f444d;}.cls-2{fill:#062652;}</style></defs><path class="cls-1" d="M15.29,49.4l.78.79-.79.8-.78-.79Zm-2.1,2.49.78.79.8-.8L14,51.1Zm14.74-7.27c0-.21-.08-.41-.13-.61s-.09-.38-.13-.54l-.11-.39c0-.1,0-.16,0-.17l-.74.23,0,.14.1.36.13.5c0,.19.09.38.13.58a5.81,5.81,0,0,1,.09.58,3.08,3.08,0,0,1,0,.51,1.62,1.62,0,0,1-.12.66,1.2,1.2,0,0,1-.31.44,1.1,1.1,0,0,1-.42.24,1.44,1.44,0,0,1-.46.08h0c-1,0-1.53-.48-1.53-1.42V43.72h-.78v2.09a1.64,1.64,0,0,1-.12.67,1.47,1.47,0,0,1-.32.44,1.26,1.26,0,0,1-.44.24,1.58,1.58,0,0,1-.47.07c-1,0-1.53-.48-1.53-1.42V43.72H20v2.09a1.48,1.48,0,0,1-.13.67,1.21,1.21,0,0,1-.75.68,1.59,1.59,0,0,1-.48.07h-2a2,2,0,0,1-.49-.06,1.19,1.19,0,0,1-.44-.21,1.35,1.35,0,0,1-.33-.38,1.28,1.28,0,0,1-.12-.58V43.71H14.5V46a1.58,1.58,0,0,1-.12.59,1,1,0,0,1-.32.38,1.36,1.36,0,0,1-.49.19,4.31,4.31,0,0,1-.67.07H10.73a2.12,2.12,0,0,1-.49-.06A1.19,1.19,0,0,1,9.8,47a1.1,1.1,0,0,1-.33-.38A1.16,1.16,0,0,1,9.34,46V43.72H8.56v4.09A3.2,3.2,0,0,1,7.92,50a2.78,2.78,0,0,1-2.19.78H4.85v.77h.88a3.59,3.59,0,0,0,2.7-.94,3.82,3.82,0,0,0,.91-2.78V47.6a2.53,2.53,0,0,0,.64.31,2.67,2.67,0,0,0,.75.11H12.9a3.44,3.44,0,0,0,1.19-.2,1.83,1.83,0,0,0,.81-.59,2.69,2.69,0,0,0,.29.3,2.26,2.26,0,0,0,.67.36,2.64,2.64,0,0,0,.81.13h1.91a2.29,2.29,0,0,0,.78-.14,2.17,2.17,0,0,0,.67-.4l.14-.14.15-.18.09.12.09.11a2.42,2.42,0,0,0,1.78.63,2.46,2.46,0,0,0,.81-.14,2.11,2.11,0,0,0,.68-.4l.14-.14c.06-.06.1-.12.15-.18l.09.12.09.11A2.39,2.39,0,0,0,26,48h0a2.38,2.38,0,0,0,.76-.14,2,2,0,0,0,.64-.4,1.94,1.94,0,0,0,.23-.25,2,2,0,0,0,.22-.36A2.47,2.47,0,0,0,28,46.4a2.74,2.74,0,0,0,.06-.59,4.13,4.13,0,0,0,0-.57C28,45,28,44.83,27.93,44.62ZM13.12,49.83l-.4-.4-.79.79.8.79.79-.79Zm-7.55-3a1.59,1.59,0,0,0,.13-.64,2.11,2.11,0,0,0,0-.25A2.38,2.38,0,0,0,5.31,45l-.83-1.25-.6-.9-.4-.61-.27-.41L3,41.6a1.74,1.74,0,0,1-.11-.18l-.67.42.21.33,0,0,.11.16.23.34c.09.15.22.35.39.59s.35.54.59.89.51.78.84,1.26a1.45,1.45,0,0,1,.22.47,1.8,1.8,0,0,1,0,.27.92.92,0,0,1-.06.33.89.89,0,0,1-.4.44,1.93,1.93,0,0,1-.7.25,3.88,3.88,0,0,1-.7.06H3a5.69,5.69,0,0,1-.83-.06A4.92,4.92,0,0,1,1.37,47a3.06,3.06,0,0,1-.63-.27l-.34-.2-.4.67.34.2a4,4,0,0,0,.75.33A5.27,5.27,0,0,0,2,48a6.58,6.58,0,0,0,1,.08A4.79,4.79,0,0,0,3.88,48a2.67,2.67,0,0,0,1.06-.4A1.75,1.75,0,0,0,5.57,46.84ZM56.7,72.48l.79.79.79-.79-.8-.79ZM50,46.87a1.9,1.9,0,0,0,.2.35,1.42,1.42,0,0,0,.23.25,1.84,1.84,0,0,0,.65.41,2.19,2.19,0,0,0,.77.14h7.81a1.8,1.8,0,0,0,.72-.16,2.05,2.05,0,0,0,.63-.44,2.26,2.26,0,0,0,.5-.79,2.77,2.77,0,0,0,.17-1V45.6a7.76,7.76,0,0,0-.1-1c-.06-.36-.12-.7-.2-1l-.77.13c.07.31.13.63.19,1a6.73,6.73,0,0,1,.09,1v0a2,2,0,0,1-.1.67,1.5,1.5,0,0,1-.34.56,1.09,1.09,0,0,1-.79.35H51.83a1.43,1.43,0,0,1-.46-.07,1.06,1.06,0,0,1-.41-.24,1.42,1.42,0,0,1-.3-.44,1.62,1.62,0,0,1-.12-.66c0-.12,0-.25,0-.4s0-.29.08-.44.06-.29.1-.44.07-.26.1-.37l.08-.28,0-.1-.74-.23s0,0,0,.12-.05.18-.09.3l-.1.42c0,.15-.07.31-.11.48s0,.32-.08.49a3.64,3.64,0,0,0,0,.45,2.68,2.68,0,0,0,.06.59A2.08,2.08,0,0,0,50,46.87Zm9.31,25.62.79.8.79-.79-.8-.8ZM74.84,60l-5.92,2.6-.08.67.24.19.66.57c.28.25.61.55,1,.92s.81.79,1.26,1.28a4.25,4.25,0,0,1,.84,1.16,2.07,2.07,0,0,1,.21.78.91.91,0,0,1-.57.84,2.7,2.7,0,0,1-1.16.21H67.48a2,2,0,0,1-.48-.06,1.12,1.12,0,0,1-.44-.21,1.21,1.21,0,0,1-.33-.38A1.27,1.27,0,0,1,66.1,68V65.71h-.78V68a1.58,1.58,0,0,1-.12.59,1,1,0,0,1-.32.38,1.36,1.36,0,0,1-.49.19,4.31,4.31,0,0,1-.67.07h-2a2.12,2.12,0,0,1-.49-.06,1.19,1.19,0,0,1-.44-.21,1.18,1.18,0,0,1-.32-.38,1.16,1.16,0,0,1-.13-.58V65.71h-.78V68a1.39,1.39,0,0,1-.13.59,1,1,0,0,1-.31.38,1.41,1.41,0,0,1-.5.19,4.18,4.18,0,0,1-.67.07H56a.9.9,0,0,1-.48-.15,3,3,0,0,1-.47-.42,5.21,5.21,0,0,1-.46-.6c-.16-.22-.31-.45-.47-.69l-2.58-3.9-.65.42,2.39,3.63a1.69,1.69,0,0,1,.23.48,1.53,1.53,0,0,1,.05.3.72.72,0,0,1-.06.29,1,1,0,0,1-.41.44,2.34,2.34,0,0,1-.72.24,3.85,3.85,0,0,1-.69.06h-.08a5.69,5.69,0,0,1-.83-.06,4.92,4.92,0,0,1-.78-.18,2.93,2.93,0,0,1-.64-.27l-.33-.2-.4.67a6.21,6.21,0,0,0,.77.39,4.86,4.86,0,0,0,.72.26,5.88,5.88,0,0,0,.73.14c.24,0,.51,0,.79,0a5.26,5.26,0,0,0,.78-.07,3.1,3.1,0,0,0,.75-.22,2.46,2.46,0,0,0,.62-.38,1.43,1.43,0,0,0,.41-.56h0v0a3.16,3.16,0,0,0,.37.45,3.92,3.92,0,0,0,.46.37,2.76,2.76,0,0,0,.48.25,1.51,1.51,0,0,0,.35.06v0h2.1a3.4,3.4,0,0,0,1.19-.2,1.86,1.86,0,0,0,.82-.59,1.92,1.92,0,0,0,.28.3,2.53,2.53,0,0,0,.67.36,2.75,2.75,0,0,0,.81.13h2a3.48,3.48,0,0,0,1.19-.2,1.83,1.83,0,0,0,.81-.59,2,2,0,0,0,.29.3,2.26,2.26,0,0,0,.67.36,2.63,2.63,0,0,0,.8.13h3.83a3.4,3.4,0,0,0,1-.13,2.68,2.68,0,0,0,.7-.29,1.57,1.57,0,0,0,.42-.38,1.45,1.45,0,0,0,.22-.36,1.65,1.65,0,0,0,.14-.68v0a2.7,2.7,0,0,0-.16-.8,4.85,4.85,0,0,0-1.1-1.65c-.6-.64-1.14-1.18-1.61-1.62s-.85-.77-1.13-1l5.34-2.35ZM30.17,48H31V38.93h-.79Zm11.52,2.31.73.75.74-.74-.75-.75Zm2-6.14c0-.24-.08-.46-.14-.69s-.09-.42-.14-.6l-.75.23.13.57c0,.2.09.41.13.62s.07.44.1.66a4.72,4.72,0,0,1,.05.64v0a2,2,0,0,1-.07.54,1.71,1.71,0,0,1-.24.51,1.12,1.12,0,0,1-.39.36,1,1,0,0,1-.53.16H40.24a3.53,3.53,0,0,1-.82-.08.84.84,0,0,1-.46-.31,1.33,1.33,0,0,1-.19-.6c0-.25,0-.58,0-1V38.93h-.79v6.34A8.21,8.21,0,0,0,38,46.45a2,2,0,0,0,.31.86,1.52,1.52,0,0,0,.7.53,3.36,3.36,0,0,0,1.11.17H41.8a1.76,1.76,0,0,0,.85-.21,2.11,2.11,0,0,0,.64-.55,2.6,2.6,0,0,0,.39-.76,2.9,2.9,0,0,0,.13-.86v0c0-.22,0-.45-.05-.7S43.69,44.42,43.65,44.19Zm20.74-5.26h-.8V48h.8Zm78,11a3.38,3.38,0,0,0,.56.68,3.5,3.5,0,0,0,.71.5,3.33,3.33,0,0,0,.79.31,3.44,3.44,0,0,0,.84.1h1.63a5.34,5.34,0,0,0,.81-.05,3.51,3.51,0,0,0,.73-.16,3.06,3.06,0,0,0,.65-.33,2.92,2.92,0,0,0,.55-.51A1.88,1.88,0,0,0,150,50a3.06,3.06,0,0,0,.2-.58c0-.2.08-.39.11-.58a4.57,4.57,0,0,0,0-.49,2.46,2.46,0,0,0,0-.28.58.58,0,0,0-.09-.25.64.64,0,0,0-.22-.21,1.92,1.92,0,0,0-.4-.17l-.41-.1-.56-.16L148,47l-.62-.16-.52-.14-.33-.09a3.27,3.27,0,0,1,0-.53,2.81,2.81,0,0,1,.82-2,2.69,2.69,0,0,1,1-.62,3.19,3.19,0,0,1,1.16-.21,3.84,3.84,0,0,1,1,.15l.22-.75a3.88,3.88,0,0,0-.64-.14,4.46,4.46,0,0,0-.63-.05h-.06a3,3,0,0,0-.67.07,3.4,3.4,0,0,0-.71.2,4.07,4.07,0,0,0-.66.33,5,5,0,0,0-.57.46,3.4,3.4,0,0,0-.57.74,3.34,3.34,0,0,0-.36.85,2.91,2.91,0,0,0-.12.69v.27a3.5,3.5,0,0,0,.12.91l.06.22,3.68,1a2.17,2.17,0,0,1,0,.26v.19a3.85,3.85,0,0,1-.08.49,2.74,2.74,0,0,1-.17.48A1.56,1.56,0,0,1,149,50a2,2,0,0,1-.83.54,3.56,3.56,0,0,1-1.28.19h-1.58a2.77,2.77,0,0,1-1.32-.32,2.54,2.54,0,0,1-1-.9,2.78,2.78,0,0,1-.38-.94,4.4,4.4,0,0,1-.1-.93c0-.12,0-.25,0-.38a6.75,6.75,0,0,1,.26-1.39,9.67,9.67,0,0,1,.59-1.52l-.7-.34a8.65,8.65,0,0,0-.94,3.4,2,2,0,0,0,0,.25,4.66,4.66,0,0,0,.12,1.06A3.71,3.71,0,0,0,142.37,49.93Zm-7.33-11h-.79V48H135Zm18.77,0H153v7h.79Zm24.39,3.18-.8-.79-.39.39c-.12.11-.25.25-.39.39l.79.8Zm2.58,0-.8-.79-.39.39-.39.4.79.79ZM135.42,65.25l-.84-.84-.81.83.82.84ZM65.21,63.62l.82-.83L65.19,62l-.81.83ZM64.07,51.53H65a3.59,3.59,0,0,0,2.7-.94,3.82,3.82,0,0,0,.91-2.78V43.72h-.78v4.09A3.2,3.2,0,0,1,67.14,50a2.78,2.78,0,0,1-2.19.78h-.88Zm32-3.76A5.27,5.27,0,0,0,97,48a6.58,6.58,0,0,0,1,.08,4.79,4.79,0,0,0,.88-.08,2.73,2.73,0,0,0,1.06-.4,1.75,1.75,0,0,0,.63-.75,1.78,1.78,0,0,0,.13-.64,2.11,2.11,0,0,0,0-.25,2.26,2.26,0,0,0-.38-.92l-.82-1.25-.6-.9-.4-.61-.27-.41L98,41.6l-.12-.18-.66.42.21.33,0,0,.11.16.23.34c.09.15.22.35.38.59l.6.89q.34.54.84,1.26a1.45,1.45,0,0,1,.22.47,1.8,1.8,0,0,1,0,.27.92.92,0,0,1-.06.33,1,1,0,0,1-.4.44,1.93,1.93,0,0,1-.7.25,3.88,3.88,0,0,1-.7.06h-.07a5.69,5.69,0,0,1-.83-.06,4.92,4.92,0,0,1-.78-.18,2.84,2.84,0,0,1-.63-.27l-.34-.2-.4.67.33.2A4.13,4.13,0,0,0,96,47.77Zm-7,24.56.74.75.74-.74-.75-.75ZM55.2,42.11l-.8-.79-.38.39-.4.39.79.8Zm24.12-1.2-.8-.8q-.21.22-.39.39l-.39.4.79.8Zm2.58,0-.8-.8-.38.4c-.12.11-.25.25-.39.39l.79.8Zm-24.11,1.2-.8-.79-.39.39-.39.4.79.79Zm99.64,29.74-.4-.4-.79.79.79.8.8-.8ZM156,48a3.91,3.91,0,0,0,.91-.22,2,2,0,0,0,.67-.45,2.19,2.19,0,0,0,.47-.72,4,4,0,0,0,.26-1.05,9.78,9.78,0,0,0,.09-1.42V38.93h-.78v5.16c0,.39,0,.73,0,1a3.5,3.5,0,0,1-.11.79,1.82,1.82,0,0,1-.26.58,1.51,1.51,0,0,1-.49.4,2.81,2.81,0,0,1-.77.23,6.72,6.72,0,0,1-1.12.11h-2.56V48h2.56A9.9,9.9,0,0,0,156,48Zm3,21.86a2,2,0,0,0,.64-.55,2.26,2.26,0,0,0,.4-.77,2.79,2.79,0,0,0,.13-.85v0c0-.22,0-.45-.06-.7s-.06-.48-.1-.71-.09-.47-.14-.69l-.14-.6-.76.23c.05.17.09.36.14.56s.09.42.13.63.07.44.1.66,0,.43,0,.64v0a2.5,2.5,0,0,1-.07.54,2,2,0,0,1-.24.51,1.22,1.22,0,0,1-.39.36,1,1,0,0,1-.54.16h-2.54a3.53,3.53,0,0,1-.82-.08.84.84,0,0,1-.46-.31,1.33,1.33,0,0,1-.19-.6c0-.25,0-.58,0-1V60.93h-.8v6.34a8.21,8.21,0,0,0,.08,1.18,1.88,1.88,0,0,0,.32.86,1.49,1.49,0,0,0,.69.53,3.36,3.36,0,0,0,1.11.17h2.64A1.7,1.7,0,0,0,159,69.81Zm-9.51,2.64.79.8.79-.79-.8-.8Zm1-3.19a2.26,2.26,0,0,0,.4-.77,2.79,2.79,0,0,0,.13-.85v0c0-.22,0-.45-.06-.7s-.06-.48-.1-.71-.09-.47-.14-.69l-.14-.6-.76.23c.05.17.09.36.14.56s.09.42.13.63.07.44.1.66,0,.43.05.64v0a2.5,2.5,0,0,1-.07.54,2,2,0,0,1-.24.51,1.33,1.33,0,0,1-.39.36,1,1,0,0,1-.54.16h-3.46a2.12,2.12,0,0,1-.49-.06,1.19,1.19,0,0,1-.44-.21,1.18,1.18,0,0,1-.32-.38,1.16,1.16,0,0,1-.13-.58V65.71h-.78V68a1.39,1.39,0,0,1-.13.59,1,1,0,0,1-.31.38,1.41,1.41,0,0,1-.5.19,4.18,4.18,0,0,1-.67.07H139.7a1.47,1.47,0,0,1-.56-.1,1.35,1.35,0,0,1-.44-.29,1.28,1.28,0,0,1-.28-.45,1.5,1.5,0,0,1-.1-.58v-2.1h-.79v4.62a2.57,2.57,0,0,1-.48,1.71,2.71,2.71,0,0,1-2.14.71h-1.5a2.72,2.72,0,0,1-1.28-.31,2.48,2.48,0,0,1-.94-.88,2.68,2.68,0,0,1-.38-.92,4.76,4.76,0,0,1-.1-.89c0-.13,0-.27,0-.42A7.36,7.36,0,0,1,131,68a11.47,11.47,0,0,1,.6-1.53l-.7-.33a11.47,11.47,0,0,0-.7,1.78,7.9,7.9,0,0,0-.28,1.66v.24a4.1,4.1,0,0,0,.13,1.08,3.83,3.83,0,0,0,.48,1.12,3.23,3.23,0,0,0,1.21,1.14,3.47,3.47,0,0,0,1.67.41h1.5a6.66,6.66,0,0,0,.78,0,4.21,4.21,0,0,0,.74-.15,3.93,3.93,0,0,0,.66-.3,2.5,2.5,0,0,0,.55-.48,3.29,3.29,0,0,0,.68-2.22v-.79a1.9,1.9,0,0,0,.64.35,2.08,2.08,0,0,0,.71.12h2.1a3.4,3.4,0,0,0,1.19-.2,1.86,1.86,0,0,0,.82-.59,1.92,1.92,0,0,0,.28.3,2.53,2.53,0,0,0,.67.36,2.75,2.75,0,0,0,.81.13H149a1.7,1.7,0,0,0,.85-.21A2,2,0,0,0,150.49,69.26Zm-3.59,3.18.79.8.78-.79-.8-.8Zm19.75-28.25c0-.24-.09-.46-.14-.69l-.14-.6-.76.23c0,.17.09.36.13.57s.09.41.14.62.07.44.1.66,0,.43,0,.64v0a2,2,0,0,1-.07.54,1.69,1.69,0,0,1-.23.51,1.33,1.33,0,0,1-.39.36,1.1,1.1,0,0,1-.54.16h-1.55a3.56,3.56,0,0,1-.83-.08.78.78,0,0,1-.45-.31,1.22,1.22,0,0,1-.19-.6,8.7,8.7,0,0,1,0-1V38.93h-.8v6.34a8.21,8.21,0,0,0,.08,1.18,2,2,0,0,0,.32.86,1.49,1.49,0,0,0,.69.53,3.43,3.43,0,0,0,1.12.17h1.65a1.73,1.73,0,0,0,.85-.21,2.11,2.11,0,0,0,.64-.55,2.6,2.6,0,0,0,.39-.76,2.92,2.92,0,0,0,.14-.86v0c0-.22,0-.45-.06-.7S166.69,44.42,166.65,44.19Zm-23.52,28.3.79.8.79-.79-.8-.8Zm49.58-25.26h-1.24a5.65,5.65,0,0,1-.71,0,5.2,5.2,0,0,1-.68-.17,3.71,3.71,0,0,1-.61-.25,2.16,2.16,0,0,1-.49-.31,2.46,2.46,0,0,1-.35-.39,2.21,2.21,0,0,1-.21-.4,1.35,1.35,0,0,1-.09-.36,1.68,1.68,0,0,1,0-.29,1.58,1.58,0,0,1,.16-.68,1.72,1.72,0,0,1,.4-.52,2,2,0,0,1,.56-.35,1.76,1.76,0,0,1,.63-.12,1.81,1.81,0,0,1,.52.07,5.38,5.38,0,0,1,.51.2l.49.28.5.3.4-.67-.57-.34a4.4,4.4,0,0,0-.56-.31,4.49,4.49,0,0,0-.61-.23,2.49,2.49,0,0,0-.68-.08,2.45,2.45,0,0,0-1,.19,2.91,2.91,0,0,0-.81.53,2.63,2.63,0,0,0-.55.78,2.23,2.23,0,0,0-.21.95,2.52,2.52,0,0,0,.09.67,3,3,0,0,0,.24.61,2.85,2.85,0,0,0,.38.53,2.37,2.37,0,0,0,.49.41H186a2.05,2.05,0,0,1-.49-.06,1.19,1.19,0,0,1-.44-.21,1.1,1.1,0,0,1-.33-.38,1.13,1.13,0,0,1-.13-.58V43.83h-.78V46a1.14,1.14,0,0,1-.28.83,1.75,1.75,0,0,1-1.32.4h-7.39a1.49,1.49,0,0,1-.47-.07,1.1,1.1,0,0,1-.42-.24,1.42,1.42,0,0,1-.3-.44,1.82,1.82,0,0,1-.11-.66,3.58,3.58,0,0,1,.06-.61c0-.23.09-.45.14-.66s.1-.39.14-.53.07-.22.07-.22l-.75-.24s0,0,0,.13,0,.17-.08.29-.07.26-.11.42-.07.31-.1.48a3.85,3.85,0,0,0-.08.49,3.64,3.64,0,0,0,0,.45,2.68,2.68,0,0,0,.06.59,2.76,2.76,0,0,0,.15.46,3.82,3.82,0,0,0,.21.36,3,3,0,0,0,.23.25,2,2,0,0,0,.64.4,2.23,2.23,0,0,0,.77.14h7.45a2.5,2.5,0,0,0,1.86-.66l.05-.06.05-.06.13.15.16.14a1.88,1.88,0,0,0,.67.36A2.64,2.64,0,0,0,186,48h6.67ZM157.5,73.92l.78.79.8-.8-.79-.78ZM209,45.24c0-.2-.06-.41-.11-.62s-.08-.41-.13-.61-.09-.38-.13-.54l-.11-.39a1.43,1.43,0,0,0,0-.17l-.74.23a.83.83,0,0,0,0,.14c0,.1.05.21.09.36s.09.31.13.5.09.38.13.58.07.39.1.58a4.63,4.63,0,0,1,0,.51,1.62,1.62,0,0,1-.12.66,1.31,1.31,0,0,1-.3.44,1.27,1.27,0,0,1-.42.24,1.55,1.55,0,0,1-.47.08h0c-1,0-1.52-.48-1.52-1.42V43.72h-.79v2.09a1.64,1.64,0,0,1-.12.67,1.32,1.32,0,0,1-.32.44,1.26,1.26,0,0,1-.44.24,1.53,1.53,0,0,1-.47.07c-1,0-1.53-.48-1.53-1.42V43.72h-.78v2.09a1.48,1.48,0,0,1-.13.67,1.32,1.32,0,0,1-.32.44,1.22,1.22,0,0,1-.43.24,1.59,1.59,0,0,1-.48.07h-1.26a2.05,2.05,0,0,1-.49-.06,1.19,1.19,0,0,1-.44-.21,1.1,1.1,0,0,1-.33-.38,1.16,1.16,0,0,1-.13-.58V43.72h-.78v4.09A3.2,3.2,0,0,1,195.5,50a2.78,2.78,0,0,1-2.19.78h-.88v.77h.88a3.59,3.59,0,0,0,2.7-.94,3.82,3.82,0,0,0,.91-2.78V47.6a2.53,2.53,0,0,0,.64.31,2.56,2.56,0,0,0,.75.11h1.19a2.25,2.25,0,0,0,.78-.14,2.17,2.17,0,0,0,.67-.4,1.85,1.85,0,0,0,.14-.14c.06-.06.1-.12.15-.18l.09.12.1.11a2.4,2.4,0,0,0,1.78.63,2.45,2.45,0,0,0,.8-.14,2.11,2.11,0,0,0,.68-.4l.15-.14.14-.18.09.12.1.11a2.39,2.39,0,0,0,1.77.63h0a2.32,2.32,0,0,0,.75-.14,2,2,0,0,0,.64-.4,1.42,1.42,0,0,0,.23-.25,2,2,0,0,0,.22-.36,2.47,2.47,0,0,0,.16-.46,2.74,2.74,0,0,0,.06-.59C209,45.64,209,45.45,209,45.24Zm-50.16,27,.78.79.8-.8-.79-.79Zm5.88-21.9.74.75.74-.74-.75-.75ZM123.14,69.81A3.2,3.2,0,0,1,122.5,72a2.77,2.77,0,0,1-2.18.78h-.89v.77h.89a3.58,3.58,0,0,0,2.69-.94,3.83,3.83,0,0,0,.91-2.78V65.72h-.78Zm-9-27.34h-.07a3,3,0,0,0-.66.07,3.49,3.49,0,0,0-.72.2,4,4,0,0,0-.65.33,3.7,3.7,0,0,0-.57.46,3.44,3.44,0,0,0-.58.74,3.71,3.71,0,0,0-.35.85,2.57,2.57,0,0,0-.13.69v.27a3.13,3.13,0,0,0,.13.91l0,.22,3.69,1a2.17,2.17,0,0,1,0,.26,1.21,1.21,0,0,1,0,.19,2.64,2.64,0,0,1-.08.49,2.7,2.7,0,0,1-.16.48,1.56,1.56,0,0,1-.26.39,2.06,2.06,0,0,1-.83.54,3.66,3.66,0,0,1-1.29.19h-1.57a2.81,2.81,0,0,1-1.33-.32,2.58,2.58,0,0,1-1-.9,3,3,0,0,1-.39-.94,5.17,5.17,0,0,1-.1-.93c0-.12,0-.25,0-.38a6.14,6.14,0,0,1,.26-1.39,9.67,9.67,0,0,1,.59-1.52l-.71-.34a8.65,8.65,0,0,0-.94,3.4v.25a4.66,4.66,0,0,0,.12,1.06,3.5,3.5,0,0,0,.49,1.2,3.38,3.38,0,0,0,.56.68,3.44,3.44,0,0,0,.7.5,3.4,3.4,0,0,0,.8.31,3.33,3.33,0,0,0,.84.1h1.62a5.18,5.18,0,0,0,.81-.05,3.38,3.38,0,0,0,.73-.16,2.84,2.84,0,0,0,.65-.33,3,3,0,0,0,.56-.51,2.17,2.17,0,0,0,.31-.51,4,4,0,0,0,.2-.58,4.15,4.15,0,0,0,.1-.58,4.57,4.57,0,0,0,0-.49,1.27,1.27,0,0,0,0-.28.73.73,0,0,0-.08-.25.64.64,0,0,0-.22-.21,1.81,1.81,0,0,0-.41-.17l-.4-.1-.57-.16L112.7,47l-.63-.16-.51-.14-.33-.09a2.44,2.44,0,0,1,0-.53,2.86,2.86,0,0,1,.12-.82,2.7,2.7,0,0,1,.7-1.14,2.73,2.73,0,0,1,1-.62,3.19,3.19,0,0,1,1.16-.21,3.92,3.92,0,0,1,1,.15l.21-.75a3.67,3.67,0,0,0-.64-.14A4.32,4.32,0,0,0,114.12,42.47Zm-4.8,19.19-.39.39-.39.4.79.79.79-.78Zm2.2.4-.39.4.79.8.78-.79-.8-.8Zm.55,4.13a7,7,0,0,0-.14-.69c-.05-.22-.09-.42-.14-.6l-.75.23c0,.17.08.36.13.56s.09.42.13.63.08.44.1.66a4.72,4.72,0,0,1,0,.64v0a2,2,0,0,1-.07.54,1.5,1.5,0,0,1-.24.51,1.12,1.12,0,0,1-.39.36,1,1,0,0,1-.53.16h-2.91a2.71,2.71,0,0,1-.71-.09,1.66,1.66,0,0,1-.57-.26,1.24,1.24,0,0,1-.38-.44,1.15,1.15,0,0,1-.14-.59l.45-.33.48-.34-.11-.71-.34-.14-.58-.23-.73-.31-.83-.33c-.28-.12-.57-.22-.85-.33l-.81-.27a6.29,6.29,0,0,0-.69-.2,2.11,2.11,0,0,0-.5-.07,1.59,1.59,0,0,0-.7.14,1.82,1.82,0,0,0-.56.39,2.38,2.38,0,0,0-.43.56,3.91,3.91,0,0,0-.27.7l.76.19a1.81,1.81,0,0,1,.47-.88,1,1,0,0,1,.72-.32,1.77,1.77,0,0,1,.43.07l.64.19.79.27.89.34.92.35.91.35c-.39.26-.77.51-1.13.72a11.23,11.23,0,0,1-1.06.59,10.51,10.51,0,0,1-1.1.44,9.7,9.7,0,0,1-1.21.31,11.69,11.69,0,0,1-1.43.17c-.51,0-1.11.06-1.79.06h-.09a2,2,0,0,1-.48-.06,1.17,1.17,0,0,1-.45-.21,1.35,1.35,0,0,1-.33-.38,1.28,1.28,0,0,1-.12-.58V65.72h-.79v4.09A3.25,3.25,0,0,1,95,72a2.81,2.81,0,0,1-2.19.78h-.89v.77h.89a3.57,3.57,0,0,0,2.69-.94,3.84,3.84,0,0,0,.92-2.78V69.6a2.31,2.31,0,0,0,.63.31,2.67,2.67,0,0,0,.75.11h.3c.53,0,1,0,1.45,0s.93-.09,1.34-.15a10.53,10.53,0,0,0,1.15-.24c.36-.1.7-.21,1-.33a8.63,8.63,0,0,0,.92-.43c.3-.16.59-.33.88-.51A2,2,0,0,0,105,69a2.13,2.13,0,0,0,.46.54,1.81,1.81,0,0,0,.37.2,2.88,2.88,0,0,0,.47.16,4.37,4.37,0,0,0,.5.09,2.71,2.71,0,0,0,.47,0h2.91a1.76,1.76,0,0,0,.85-.21,2.11,2.11,0,0,0,.64-.55,2.43,2.43,0,0,0,.39-.77,2.79,2.79,0,0,0,.13-.85v0c0-.22,0-.45,0-.7S112.11,66.42,112.07,66.19ZM92.16,47.87a2.32,2.32,0,0,1-.75.14h0a2.39,2.39,0,0,1-1.77-.63l-.1-.11-.09-.12-.14.18-.15.14a2.11,2.11,0,0,1-.68.4,2.45,2.45,0,0,1-.8.14,2.4,2.4,0,0,1-1.78-.63l-.1-.11-.09-.12c0,.06-.09.12-.15.18l-.14.14a2.17,2.17,0,0,1-.67.4A2.29,2.29,0,0,1,84,48H82.06a2.64,2.64,0,0,1-.81-.13,2.26,2.26,0,0,1-.67-.36,1.92,1.92,0,0,1-.28-.3,1.86,1.86,0,0,1-.82.59,3.44,3.44,0,0,1-1.19.2H75.37v.1a3.67,3.67,0,0,1-.29,1.49,2.75,2.75,0,0,1-.84,1.07,3.69,3.69,0,0,1-1.32.64,6.39,6.39,0,0,1-1.68.21h-.36v-.78h.36a7.93,7.93,0,0,0,1.38-.16,2.78,2.78,0,0,0,1-.44,2.11,2.11,0,0,0,.67-.83,3.27,3.27,0,0,0,.25-1.3H73.14a3.88,3.88,0,0,1-1-.14,2.64,2.64,0,0,1-.87-.44,2.07,2.07,0,0,1-.59-.75,2.25,2.25,0,0,1-.22-1,5.35,5.35,0,0,1,.14-1.24,2.61,2.61,0,0,1,.43-1,2.08,2.08,0,0,1,.76-.65,2.81,2.81,0,0,1,1.14-.27,2.94,2.94,0,0,1,1.13.26,2.09,2.09,0,0,1,.76.65,2.7,2.7,0,0,1,.44,1,5.37,5.37,0,0,1,.14,1.25v1.58h2.92a4.31,4.31,0,0,0,.67-.07,1.36,1.36,0,0,0,.49-.19.91.91,0,0,0,.32-.38,1.4,1.4,0,0,0,.12-.59V43.71h.79V46a1.28,1.28,0,0,0,.12.58,1.35,1.35,0,0,0,.33.38,1.19,1.19,0,0,0,.44.21,2.05,2.05,0,0,0,.49.06h2a1.59,1.59,0,0,0,.48-.07,1.22,1.22,0,0,0,.43-.24,1.32,1.32,0,0,0,.32-.44,1.48,1.48,0,0,0,.13-.67V43.72h.78v2.09c0,.94.51,1.41,1.53,1.42a1.58,1.58,0,0,0,.47-.07,1.26,1.26,0,0,0,.44-.24,1.32,1.32,0,0,0,.32-.44,1.64,1.64,0,0,0,.12-.67V43.72h.79v2.09c0,.94.5,1.41,1.52,1.42h0a1.44,1.44,0,0,0,.46-.08,1.22,1.22,0,0,0,.43-.24,1.31,1.31,0,0,0,.3-.44,1.62,1.62,0,0,0,.12-.66,4.63,4.63,0,0,0,0-.51c0-.19-.06-.39-.1-.58s-.08-.39-.13-.58-.09-.35-.13-.5l-.1-.36,0-.14.74-.23s0,.07,0,.17l.11.39c0,.16.09.34.13.54s.09.4.13.61.08.42.11.62,0,.4,0,.57a2.74,2.74,0,0,1-.06.59,2.47,2.47,0,0,1-.16.46,2,2,0,0,1-.22.36,1.42,1.42,0,0,1-.23.25A2,2,0,0,1,92.16,47.87ZM74.59,45.65a5.2,5.2,0,0,0-.1-.93,2.08,2.08,0,0,0-.27-.75,1.27,1.27,0,0,0-.51-.49,2,2,0,0,0-1.62,0,1.29,1.29,0,0,0-.52.49,2.33,2.33,0,0,0-.28.74,5.46,5.46,0,0,0-.08.93,1.65,1.65,0,0,0,.16.74,1.33,1.33,0,0,0,.42.49,1.93,1.93,0,0,0,.64.27,3.39,3.39,0,0,0,.8.08h1.36Zm27,26.64.73.76.74-.74-.75-.75ZM131.26,46l1.17-.84-.11-.71-.34-.14-.57-.23-.73-.31-.83-.33-.85-.33-.81-.28-.69-.19a2.26,2.26,0,0,0-.51-.07,1.78,1.78,0,0,0-.7.14,2,2,0,0,0-.56.39,2.35,2.35,0,0,0-.42.56,2.82,2.82,0,0,0-.27.7l.75.19a2,2,0,0,1,.47-.88,1,1,0,0,1,.72-.32,1.64,1.64,0,0,1,.43.07,5.88,5.88,0,0,1,.64.18l.8.27.89.33.93.35.9.34c-.39.27-.76.51-1.1.73s-.68.41-1,.59a9.28,9.28,0,0,1-1,.45,7.41,7.41,0,0,1-1.15.31,10.29,10.29,0,0,1-1.34.19c-.47,0-1.1,0-1.88,0h-.31a2,2,0,0,1-.48-.06,1.17,1.17,0,0,1-.45-.21,1.35,1.35,0,0,1-.33-.38,1.27,1.27,0,0,1-.13-.58V43.72h-.78v4.09a3.2,3.2,0,0,1-.64,2.17,2.77,2.77,0,0,1-2.18.78h-.89v.77h.89a3.58,3.58,0,0,0,2.69-.94,3.82,3.82,0,0,0,.91-2.78V47.6a2.91,2.91,0,0,0,.64.31,2.67,2.67,0,0,0,.75.11H124c.9,0,1.62,0,2.16-.08a11.06,11.06,0,0,0,1.57-.24,8.5,8.5,0,0,0,1.29-.41,9.67,9.67,0,0,0,1.12-.55C130.54,46.52,130.9,46.28,131.26,46Zm-3.75,4.27.73.75.74-.73-.75-.75Zm13,22.19.79.79.79-.79-.8-.79ZM119.75,60.93H119V70h.8Zm-1.56-22h-.8V48h.8Zm-27.06,28c0,.25.05.48.06.7v0a2.79,2.79,0,0,1-.13.85,2.26,2.26,0,0,1-.4.77,2,2,0,0,1-.64.55,1.7,1.7,0,0,1-.85.21H87.52a3.14,3.14,0,0,1-.83-.12,2.84,2.84,0,0,1-1.58-1,3.89,3.89,0,0,1-.25-.4c-.07-.15-.13-.3-.19-.46a3,3,0,0,1-.49.73,1.85,1.85,0,0,1-.73.49,2.65,2.65,0,0,1-1,.2h-.34a2.27,2.27,0,0,1-.75-.23,2.42,2.42,0,0,1-.77-.62,2.09,2.09,0,0,1-.41-1,1.9,1.9,0,0,1,0-.41,2.53,2.53,0,0,1,.19-.93,2.88,2.88,0,0,1,.67-1,4.46,4.46,0,0,1,1.13-.8,7.06,7.06,0,0,1,1.53-.58l-.17-.86.78-.21c.12.52.23,1,.32,1.38l.24,1c0,.22.1.43.14.62s.09.38.13.57.09.36.14.55.1.37.15.58a2.3,2.3,0,0,0,.27.63,1.86,1.86,0,0,0,.37.45,1.68,1.68,0,0,0,.43.3,2.75,2.75,0,0,0,.45.17,3.38,3.38,0,0,0,.4.07,2.12,2.12,0,0,0,.34,0h1.54a1,1,0,0,0,.54-.16,1.22,1.22,0,0,0,.39-.36,2,2,0,0,0,.24-.51,2.5,2.5,0,0,0,.07-.54v0c0-.21,0-.42,0-.64s-.06-.44-.1-.66-.09-.42-.13-.63L90,65.13l.76-.23.14.6c0,.22.1.45.14.69S91.1,66.66,91.13,66.9Zm-6.9-.38a3.21,3.21,0,0,0,0-.36l0-.14c0-.2-.08-.38-.11-.52s-.06-.26-.09-.36l-.06-.27-.06-.22a7.1,7.1,0,0,0-1.33.5,4,4,0,0,0-1,.66,2.26,2.26,0,0,0-.56.79,1.66,1.66,0,0,0-.11.58,2.46,2.46,0,0,0,0,.28,1.29,1.29,0,0,0,.31.63,1.78,1.78,0,0,0,.57.4,1.92,1.92,0,0,0,.68.14h0a1.32,1.32,0,0,0,.6-.13,1.87,1.87,0,0,0,.58-.43,2.07,2.07,0,0,0,.35-.52A2.42,2.42,0,0,0,84.2,67,4.4,4.4,0,0,0,84.23,66.52Z"/><path class="cls-2" d="M65.9,9.65c0,.29,0,.55,0,.77a4.46,4.46,0,0,1-.34,1.79,3.83,3.83,0,0,1-.89,1.24,3.63,3.63,0,0,1-1.24.73,4.12,4.12,0,0,1-1.37.24H56.72a5,5,0,0,1-1.55-.23A3.05,3.05,0,0,1,54,13.51a3.74,3.74,0,0,1-1.33.69,6.18,6.18,0,0,1-1.74.22H47.06a4.19,4.19,0,0,1-.78-.07,3.89,3.89,0,0,1-.73-.2v.08a5.46,5.46,0,0,1-1.48,4.18,6.19,6.19,0,0,1-4.41,1.39h-2a6,6,0,0,1-1.54-.19,6.55,6.55,0,0,1-1.4-.54,5.93,5.93,0,0,1-1.21-.86,5.59,5.59,0,0,1-1-1.15,6.55,6.55,0,0,1-.74-1.73,7.37,7.37,0,0,1-.26-2,8.89,8.89,0,0,1,.08-1.28,10.16,10.16,0,0,1,.25-1.27,12.84,12.84,0,0,1,.46-1.36c.19-.47.42-1,.7-1.56l2.25,1.07c-.24.49-.44.92-.6,1.31a10.51,10.51,0,0,0-.39,1.1,7.71,7.71,0,0,0-.22,1,7.74,7.74,0,0,0-.06,1,4.76,4.76,0,0,0,.17,1.31,4.33,4.33,0,0,0,.47,1.12,3.54,3.54,0,0,0,3,1.56h2a5.49,5.49,0,0,0,1.72-.22,2.41,2.41,0,0,0,1-.62,2.23,2.23,0,0,0,.5-1,5.46,5.46,0,0,0,.14-1.26V7.5h2.49v3.12a1.25,1.25,0,0,0,.43,1,1.75,1.75,0,0,0,1.08.32h3.86a3.6,3.6,0,0,0,1-.11,1.47,1.47,0,0,0,.55-.29.75.75,0,0,0,.24-.38,1.51,1.51,0,0,0,.06-.41V7.5h2.48v3.17a1.09,1.09,0,0,0,.2.71,1.35,1.35,0,0,0,.45.38,1.39,1.39,0,0,0,.51.14l.34,0h5.46l.34,0a1.24,1.24,0,0,0,.45-.19,1.37,1.37,0,0,0,.4-.45,1.81,1.81,0,0,0,.17-.84c0-.15,0-.32,0-.53s0-.44-.09-.68-.09-.48-.14-.73-.1-.49-.14-.71S63,7.34,63,7.16s-.09-.33-.11-.43L65.23,6l.08.33c0,.17.09.39.15.64s.11.52.16.83.11.62.16.93S65.87,9.36,65.9,9.65Zm-3.51,8.51,1.68,1.7,1.7-1.7-1.72-1.72ZM75.2,16l-1.7,1.7,1.7,1.72,1.7-1.7Zm.48,4.52,1.6,1.6,1.58-1.58L77.26,19ZM52.52,18.22l1.68,1.7,1.7-1.7L54.18,16.5ZM41.06,6.78,39.22,4.94l-1.8,1.82L39.24,8.6Zm7.27,11.45L50,19.93l1.69-1.7L50,16.51Zm29.34-.5,1.72,1.72,1.7-1.7L79.39,16Zm-19.47.44,1.68,1.7,1.69-1.7-1.72-1.72Zm89.7,2.31,1.6,1.6,1.58-1.58-1.6-1.6Zm2-2.8,1.71,1.72,1.7-1.7L151.6,16Zm21.76-9c-.05-.31-.11-.61-.16-.91s-.12-.57-.18-.82-.11-.45-.14-.62-.07-.27-.08-.32l-2.35.77c0,.1.06.24.1.41s.09.37.13.58.1.44.14.68.09.47.13.7.07.44.09.65,0,.38,0,.53a2,2,0,0,1-.15.84,1.37,1.37,0,0,1-.39.48,1.21,1.21,0,0,1-.44.22,2,2,0,0,1-.36,0,1.81,1.81,0,0,1-1.28-.38,1.64,1.64,0,0,1-.39-1.21V7.51h-2.49v2.84a1.87,1.87,0,0,1-.16.85,1.46,1.46,0,0,1-.4.47,1.14,1.14,0,0,1-.45.21l-.34,0a1.79,1.79,0,0,1-1.27-.37,1.6,1.6,0,0,1-.38-1.2V7.51h-2.5v2.88a1.84,1.84,0,0,1-.16.85,1.53,1.53,0,0,1-.4.46,1.24,1.24,0,0,1-.45.19,1.77,1.77,0,0,1-.34,0h-3.33l-.34,0a1.39,1.39,0,0,1-.51-.14,1.35,1.35,0,0,1-.45-.38,1.09,1.09,0,0,1-.2-.71V7.5H149.7v3.24a1.51,1.51,0,0,1-.06.41.82.82,0,0,1-.24.38,1.56,1.56,0,0,1-.55.29,3.62,3.62,0,0,1-1,.11h-3.43l-.33,0a1.59,1.59,0,0,1-.5-.2,1.56,1.56,0,0,1-.45-.44,1.27,1.27,0,0,1-.19-.74v-3h-2.49V13.6a6.1,6.1,0,0,1-.22,1.72,2.5,2.5,0,0,1-1.83,1.78,6.11,6.11,0,0,1-1.65.2h-1.25v2.49h1.25a7,7,0,0,0,2.45-.41,5.55,5.55,0,0,0,1.87-1.15,5.83,5.83,0,0,0,1.26-1.8,7.45,7.45,0,0,0,.59-2.34,1.7,1.7,0,0,0,.71.28,6.06,6.06,0,0,0,.76.05h3.45a6.2,6.2,0,0,0,1.75-.22,3.74,3.74,0,0,0,1.33-.69,3.05,3.05,0,0,0,1.18.68,5,5,0,0,0,1.55.23H157a4.34,4.34,0,0,0,1.38-.23,3.33,3.33,0,0,0,1.21-.74,4.27,4.27,0,0,0,2.91,1,4.21,4.21,0,0,0,1.36-.22,3.45,3.45,0,0,0,1.22-.74,4.22,4.22,0,0,0,2.93,1,4.06,4.06,0,0,0,1.37-.26,3.7,3.7,0,0,0,1.23-.75,3.77,3.77,0,0,0,.87-1.27,4.5,4.5,0,0,0,.33-1.79,7.32,7.32,0,0,0,0-.76C171.74,9.3,171.7,9,171.65,8.7Zm3-8.7V14.42h2.49V0ZM147.42,16l-1.7,1.7,1.7,1.72,1.7-1.7Zm-10.88-3.68a3,3,0,0,0,.24-1.15c0-.13,0-.27,0-.41a3.74,3.74,0,0,0-.64-1.59L135,7.45l-.78-1.19-.52-.77L133.4,5l-.14-.21,0-.06-.67-1-2.1,1.36,3.73,5.44a1.21,1.21,0,0,1,.19.38.79.79,0,0,1,0,.22.38.38,0,0,1,0,.19,1,1,0,0,1-.71.55,4.94,4.94,0,0,1-1,.11l-.53,0a12.24,12.24,0,0,1-1.76-.3c-.62-.15-1.22-.33-1.8-.53l-.72,2.4,1.19.36.84.24c.26.07.52.12.77.17s.51.08.75.11a6.34,6.34,0,0,0,.76,0,9,9,0,0,0,1.55-.15,4.35,4.35,0,0,0,1.71-.67,3.4,3.4,0,0,0,.66-.59A3.16,3.16,0,0,0,136.54,12.28ZM99.07,9.87a2.86,2.86,0,0,1,.75-1,3.3,3.3,0,0,1,1.12-.62,4.24,4.24,0,0,1,1.4-.22,3.51,3.51,0,0,1,.72.07c.23,0,.5.11.82.2l.63-2.4a11.37,11.37,0,0,0-1.13-.25,6.61,6.61,0,0,0-1-.08A7,7,0,0,0,99.85,6,5.51,5.51,0,0,0,98,7.21,5.14,5.14,0,0,0,96.75,9a5.53,5.53,0,0,0-.42,2.15,6.57,6.57,0,0,0,.12,1.23,6.88,6.88,0,0,0,.39,1.28l.89.23,1,.26,1,.26.9.24.72.19.45.12a3.18,3.18,0,0,1-.23,1.21,1.79,1.79,0,0,1-.64.77,3,3,0,0,1-1.1.4,10.15,10.15,0,0,1-1.57.11H96.12a3.84,3.84,0,0,1-1.77-.4,3,3,0,0,1-1.25-1.17,4.46,4.46,0,0,1-.64-2.46,6.77,6.77,0,0,1,.07-1,7.16,7.16,0,0,1,.24-1.05c.11-.37.25-.75.41-1.16s.36-.87.6-1.36L91.56,7.75q-.42.87-.72,1.62a14.61,14.61,0,0,0-.5,1.44A9.63,9.63,0,0,0,90,13.45a7,7,0,0,0,1,3.75,6,6,0,0,0,1,1.15,6.16,6.16,0,0,0,1.21.86,6.64,6.64,0,0,0,1.41.54,6.2,6.2,0,0,0,1.57.19h2.11a10.26,10.26,0,0,0,2.73-.31,4.44,4.44,0,0,0,1.83-1,3.87,3.87,0,0,0,1-1.66,8.06,8.06,0,0,0,.32-2.4,2.33,2.33,0,0,0-.43-1.42,2.36,2.36,0,0,0-1.39-.82l-3.51-.9a.49.49,0,0,1,0-.12v-.13A3.18,3.18,0,0,1,99.07,9.87Zm27.09.44a4.14,4.14,0,0,1,.06.7,4,4,0,0,1-.21,1.26,3.77,3.77,0,0,1-.59,1.1,4,4,0,0,1-.93.86,4.51,4.51,0,0,1-1.26.56,6,6,0,0,1-1.56.2,8.61,8.61,0,0,1-1.49-.14,6.08,6.08,0,0,1-1.58-.55l-.34-.16L118,14l-.27-.14a12.52,12.52,0,0,1-2.13.43,22.5,22.5,0,0,1-2.57.13h-1.13a12.15,12.15,0,0,1-1.49-.12,5.11,5.11,0,0,1-1.33-.4,2.61,2.61,0,0,1-.87-.68,2.72,2.72,0,0,1-.49-1,5.58,5.58,0,0,1-.23-1.24c0-.47,0-1,0-1.54V0h2.49V9.47a11.2,11.2,0,0,0,.05,1.28,1.35,1.35,0,0,0,.29.75,1.26,1.26,0,0,0,.71.35,8.9,8.9,0,0,0,1.32.08h2l.44,0c-.18-.2-.33-.39-.47-.58a3.61,3.61,0,0,1-.35-.6,3.09,3.09,0,0,1-.22-.67,3.87,3.87,0,0,1-.07-.79,3.58,3.58,0,0,1,.31-1.51,3.52,3.52,0,0,1,.87-1.18,3.91,3.91,0,0,1,1.3-.76,4.47,4.47,0,0,1,1.61-.28,3.69,3.69,0,0,1,1.72.39,4.26,4.26,0,0,1,1.27,1,4.58,4.58,0,0,1,.78,1.27,3.46,3.46,0,0,1,.27,1.27,4,4,0,0,1-.1.88,3.78,3.78,0,0,1-.26.76,4.69,4.69,0,0,1-.42.67c-.17.21-.36.42-.56.63l.63.19a3,3,0,0,0,.65.08,5,5,0,0,0,.65,0,2.34,2.34,0,0,0,.64-.18,1.83,1.83,0,0,0,.54-.38,1.61,1.61,0,0,0,.36-.63,1.35,1.35,0,0,0,0-.29,2.21,2.21,0,0,0-.16-.69,6.41,6.41,0,0,0-.59-1.07,17.54,17.54,0,0,0-1.05-1.43l-1.38-1.72-1-1.29,1.88-1.41,1.31,1.74.6.79.64.84.64.84c.2.28.4.55.6.8A4.48,4.48,0,0,1,126.16,10.31Zm-6.77-.87a1.59,1.59,0,0,0-.18-.74,1.92,1.92,0,0,0-.44-.53,1.94,1.94,0,0,0-.56-.31,1.58,1.58,0,0,0-.52-.1,1.84,1.84,0,0,0-.66.12,1.79,1.79,0,0,0-.55.33,1.43,1.43,0,0,0-.38.47,1.15,1.15,0,0,0-.14.57,1.69,1.69,0,0,0,.11.66,1.59,1.59,0,0,0,.35.52,3.58,3.58,0,0,0,.58.47c.23.15.5.3.8.47a5.24,5.24,0,0,0,.61-.34,3,3,0,0,0,.5-.42,2,2,0,0,0,.34-.53A1.5,1.5,0,0,0,119.39,9.44ZM81,8.75c0-.31-.1-.62-.16-.93L80.65,7l-.15-.64L80.42,6l-2.35.71c0,.1.06.24.11.43s.09.38.14.61.09.46.14.71.1.49.14.73.07.47.09.68,0,.38,0,.53a1.81,1.81,0,0,1-.17.84,1.37,1.37,0,0,1-.4.45,1.24,1.24,0,0,1-.45.19l-.34,0h-4a8.9,8.9,0,0,1-1.32-.08,1.29,1.29,0,0,1-.71-.35,1.43,1.43,0,0,1-.29-.75,11.2,11.2,0,0,1,0-1.28V0H68.53V9.47c0,.56,0,1.07,0,1.54a5.58,5.58,0,0,0,.23,1.24,2.72,2.72,0,0,0,.49,1,2.61,2.61,0,0,0,.87.68,5.11,5.11,0,0,0,1.33.4,12.15,12.15,0,0,0,1.49.12H77.3a4.12,4.12,0,0,0,1.37-.24,3.63,3.63,0,0,0,1.24-.73,3.83,3.83,0,0,0,.89-1.24,4.46,4.46,0,0,0,.34-1.79c0-.22,0-.48,0-.77S81,9.06,81,8.75Z"/></svg>