<?xml version="1.0" encoding="utf-8"?>
<!-- Generator: Adobe Illustrator 25.4.1, SVG Export Plug-In . SVG Version: 6.00 Build 0)  -->
<svg version="1.1" id="Layer_1" xmlns="http://www.w3.org/2000/svg" xmlns:xlink="http://www.w3.org/1999/xlink" x="0px" y="0px"
	 viewBox="0 0 182.2 107.4" style="enable-background:new 0 0 182.2 107.4;" xml:space="preserve">
<style type="text/css">
	.st0{fill:#3378FF;}
	.st1{fill:#062652;}
	.st2{fill:#5E6575;}
</style>
<g>
	<path class="st0" d="M177.3,1.9l-1-1l0.9-1l1,1L177.3,1.9z M166.8,6.1c0.1,0.3,0.1,0.7,0.1,1c0,0.4,0,0.7-0.1,1
		c-0.1,0.3-0.2,0.5-0.3,0.7c-0.1,0.2-0.2,0.3-0.4,0.5c-0.1,0.1-0.3,0.2-0.4,0.3c-0.1,0.1-0.3,0.1-0.4,0.1c-0.1,0-0.2,0-0.3,0
		c-0.1,0-0.2,0-0.3,0c-0.1,0-0.3-0.1-0.4-0.1c-0.2-0.1-0.4-0.2-0.7-0.3c-0.3-0.1-0.6-0.3-1-0.5c-0.3-0.1-0.5-0.3-0.8-0.4
		c-0.2-0.1-0.4-0.2-0.6-0.3v5.6h-1.1V7.4l1.1-0.6c0.1,0.1,0.2,0.1,0.4,0.2c0.1,0.1,0.2,0.1,0.3,0.2c0.1,0.1,0.2,0.1,0.4,0.2
		c0.1-0.4,0.1-0.7,0.2-1c0.1-0.3,0.2-0.6,0.3-0.8c0.4-0.8,1-1.2,1.9-1.2c0.4,0,0.7,0.1,1,0.2c0.3,0.2,0.6,0.4,0.8,0.7
		C166.5,5.5,166.7,5.8,166.8,6.1z M165.8,7.1c0,0,0-0.1,0-0.2c0-0.1,0-0.2,0-0.3c0-0.1-0.1-0.2-0.1-0.4c0-0.1-0.1-0.2-0.2-0.3
		c-0.1-0.1-0.2-0.2-0.3-0.3c-0.1-0.1-0.3-0.1-0.5-0.1c-0.2,0-0.3,0-0.4,0.1c-0.1,0.1-0.2,0.2-0.3,0.3c-0.1,0.2-0.2,0.4-0.3,0.7
		c-0.1,0.3-0.2,0.7-0.2,1.2c0.3,0.2,0.6,0.3,0.8,0.4c0.2,0.1,0.4,0.2,0.5,0.2c0.1,0,0.2,0.1,0.3,0.1c0.1,0,0.1,0,0.1,0
		c0,0,0.1,0,0.2,0c0.1,0,0.2-0.1,0.2-0.2c0.1-0.1,0.1-0.2,0.2-0.4C165.7,7.7,165.8,7.4,165.8,7.1z M141.7,6.1c0.1,0.3,0.1,0.7,0.1,1
		c0,0.4,0,0.7-0.1,1c-0.1,0.3-0.2,0.5-0.3,0.7c-0.1,0.2-0.2,0.3-0.4,0.5c-0.1,0.1-0.3,0.2-0.4,0.3c-0.1,0.1-0.3,0.1-0.4,0.1
		c-0.1,0-0.2,0-0.3,0c-0.1,0-0.2,0-0.3,0c-0.1,0-0.3-0.1-0.4-0.1c-0.2-0.1-0.4-0.2-0.7-0.3c-0.3-0.1-0.6-0.3-1-0.5
		c-0.3-0.1-0.5-0.3-0.8-0.4c-0.2-0.1-0.4-0.2-0.6-0.3v5.6H135V7.4l1.1-0.6c0.1,0.1,0.2,0.1,0.4,0.2c0.1,0.1,0.2,0.1,0.3,0.2
		c0.1,0.1,0.2,0.1,0.4,0.2c0.1-0.4,0.1-0.7,0.2-1c0.1-0.3,0.2-0.6,0.3-0.8c0.4-0.8,1-1.2,1.9-1.2c0.4,0,0.7,0.1,1,0.2
		c0.3,0.2,0.6,0.4,0.8,0.7C141.4,5.5,141.6,5.8,141.7,6.1z M140.7,7.1c0,0,0-0.1,0-0.2c0-0.1,0-0.2,0-0.3c0-0.1-0.1-0.2-0.1-0.4
		c-0.1-0.1-0.1-0.2-0.2-0.3c-0.1-0.1-0.2-0.2-0.3-0.3c-0.1-0.1-0.3-0.1-0.5-0.1c-0.2,0-0.3,0-0.4,0.1c-0.1,0.1-0.2,0.2-0.3,0.3
		c-0.1,0.2-0.2,0.4-0.3,0.7c-0.1,0.3-0.2,0.7-0.2,1.2c0.3,0.2,0.6,0.3,0.8,0.4c0.2,0.1,0.4,0.2,0.5,0.2c0.1,0,0.2,0.1,0.3,0.1
		c0.1,0,0.1,0,0.1,0c0,0,0.1,0,0.2,0c0.1,0,0.2-0.1,0.2-0.2c0.1-0.1,0.1-0.2,0.2-0.4S140.7,7.4,140.7,7.1z M180.6,1l-1-1l-0.9,1l1,1
		L180.6,1z M180.9,6.5v0.8c0,0.4-0.1,0.8-0.2,1.1c-0.2,0.3-0.4,0.6-0.7,0.8c-0.5,0.3-1.3,0.5-2.3,0.5h-2.4H175h0v0
		c-0.6,0-1.1-0.3-1.6-0.7c-0.3,0.4-0.8,0.7-1.6,0.8c-0.1,0-0.3,0-0.4,0c-0.2,0-0.3,0-0.5,0c-0.2,0-0.4,0-0.6,0c-0.2,0-0.4,0-0.6-0.1
		c-0.2,0-0.4-0.1-0.6-0.2c-0.2-0.1-0.4-0.1-0.5-0.2L168,9l0.6-1l0.5,0.3c0.1,0.1,0.3,0.1,0.5,0.2c0.2,0,0.4,0.1,0.7,0.1
		c0.2,0,0.3,0,0.5,0c0.1,0,0.2,0,0.3,0c0.1,0,0.3,0,0.5,0c0.2,0,0.4-0.1,0.6-0.2c0.2-0.1,0.2-0.1,0.3-0.2c0,0,0.1-0.1,0.1-0.2
		c0,0,0-0.1,0-0.2c0-0.1-0.1-0.2-0.2-0.4L170,4l1-0.6l2.3,3.6c0.1,0.2,0.2,0.3,0.4,0.5c0.1,0.2,0.3,0.4,0.4,0.5
		c0.1,0.2,0.3,0.3,0.4,0.4c0.2,0.1,0.3,0.2,0.5,0.2h0.2h2.4c0.5,0,0.8,0,1.1-0.1c0.3-0.1,0.5-0.1,0.6-0.2c0.2-0.1,0.3-0.2,0.3-0.3
		c0.1-0.1,0.1-0.2,0.1-0.3h-0.9c-0.1,0-0.2,0-0.3,0c-0.1,0-0.3,0-0.4,0c-0.1,0-0.3-0.1-0.4-0.1c-0.1,0-0.3-0.1-0.4-0.2
		c-0.1-0.1-0.2-0.1-0.3-0.2c-0.1-0.1-0.2-0.2-0.3-0.4c-0.1-0.1-0.2-0.3-0.2-0.5c-0.1-0.2-0.1-0.4-0.1-0.7c0-0.3,0.1-0.6,0.2-0.9
		c0.1-0.3,0.3-0.5,0.5-0.8c0.2-0.2,0.4-0.4,0.7-0.5c0.3-0.1,0.6-0.2,0.9-0.2c0.3,0,0.7,0.1,1,0.2c0.3,0.2,0.5,0.4,0.7,0.6
		c0.2,0.3,0.4,0.7,0.5,1.1C180.8,5.4,180.9,5.9,180.9,6.5z M179.8,6.4c0-0.4,0-0.7-0.1-1c-0.1-0.3-0.2-0.5-0.3-0.7
		c-0.2-0.3-0.5-0.4-0.8-0.4c-0.1,0-0.3,0-0.4,0.1c-0.1,0-0.3,0.1-0.4,0.2c-0.1,0.1-0.2,0.2-0.3,0.4c-0.1,0.2-0.1,0.3-0.1,0.5
		c0,0.1,0,0.2,0,0.3c0,0.1,0.1,0.2,0.1,0.2c0,0.1,0.1,0.1,0.1,0.1c0,0,0.1,0.1,0.1,0.1c0.1,0.1,0.3,0.1,0.4,0.1c0.2,0,0.4,0,0.6,0
		H179.8z M154.5,7.1c-0.1-0.2-0.2-0.3-0.3-0.5c-0.3-0.4-0.5-0.7-0.7-1c-0.2-0.3-0.4-0.5-0.5-0.8c-0.1-0.2-0.3-0.4-0.4-0.6
		c-0.1-0.2-0.2-0.3-0.3-0.4c-0.1-0.1-0.1-0.2-0.2-0.3c-0.1-0.1-0.1-0.2-0.2-0.2l-1,0.6l2.2,3.3c0.1,0.2,0.2,0.3,0.3,0.5
		c0,0.1,0.1,0.2,0.1,0.3c0,0,0,0.1,0,0.1c0,0.1-0.1,0.2-0.3,0.2c-0.2,0.1-0.3,0.1-0.6,0.2c-0.2,0-0.4,0-0.5,0c-0.1,0-0.2,0-0.3,0
		c-0.2,0-0.4,0-0.6,0c-0.2,0-0.4-0.1-0.7-0.1c-0.2,0-0.4-0.1-0.5-0.2L149.7,8l-0.6,1l0.5,0.3c0.1,0.1,0.3,0.2,0.5,0.2
		c0.2,0.1,0.4,0.1,0.6,0.2c0.2,0,0.4,0.1,0.6,0.1c0.2,0,0.4,0,0.6,0c0.2,0,0.3,0,0.5,0c0.2,0,0.3,0,0.4,0c0.9-0.1,1.5-0.5,1.8-1.1
		c0.1-0.2,0.1-0.3,0.1-0.4c0-0.1,0-0.2,0-0.2c0-0.2,0-0.3-0.1-0.5C154.6,7.4,154.6,7.3,154.5,7.1z M147,5c0.5,0.5,0.8,1.3,0.8,2.4
		v2.3c0,0.6-0.1,1.1-0.3,1.5c-0.2,0.4-0.4,0.8-0.8,1c-0.4,0.3-0.8,0.5-1.3,0.6c-0.5,0.1-1.2,0.2-1.9,0.2v-1.1c0.6,0,1.1,0,1.5-0.1
		c0.4-0.1,0.7-0.2,1-0.4c0.2-0.2,0.4-0.4,0.5-0.6c0.1-0.3,0.1-0.6,0.1-1h-1.1c-0.3,0-0.6,0-0.9-0.1c-0.3-0.1-0.6-0.2-0.8-0.4
		c-0.2-0.2-0.4-0.4-0.6-0.8c-0.2-0.3-0.2-0.7-0.2-1.1c0-0.3,0-0.5,0.1-0.7c0-0.2,0.1-0.4,0.2-0.6c0.1-0.2,0.2-0.3,0.2-0.4
		c0.1-0.1,0.2-0.2,0.2-0.3c0.2-0.2,0.5-0.4,0.8-0.5c0.3-0.1,0.6-0.2,0.9-0.2c0.3,0,0.6,0,0.8,0.1C146.6,4.7,146.8,4.8,147,5z
		 M146.7,7.4c0-0.3,0-0.5-0.1-0.7c0-0.2-0.1-0.4-0.2-0.5c-0.1-0.1-0.1-0.2-0.2-0.3c-0.1-0.1-0.2-0.1-0.3-0.2c-0.1,0-0.2-0.1-0.2-0.1
		c-0.1,0-0.1,0-0.2,0c-0.4,0-0.7,0.1-0.9,0.4c-0.2,0.3-0.3,0.7-0.3,1.2c0,0.5,0.2,0.9,0.5,1.1c0.1,0,0.2,0.1,0.2,0.1
		c0.1,0,0.2,0.1,0.2,0.1c0.1,0,0.1,0,0.2,0c0.1,0,0.1,0,0.2,0h1.1V7.4z"/>
	<path class="st1" d="M96.8,25.3h1.4v10.6c0,2.5-1.3,3.8-4,3.8h-0.5c-0.7,0-1.2-0.1-1.8-0.4c-0.5-0.3-1-0.7-1.3-1.2
		c-0.1-0.2-0.3-0.5-0.4-0.8C90.1,36.9,90,36.5,90,36c0-0.1,0-0.1,0-0.2c0-0.4,0.1-0.9,0.2-1.5c0.1-0.6,0.4-1.2,0.7-2l1.2,0.6
		c-0.2,0.5-0.4,0.9-0.5,1.3c-0.1,0.4-0.2,0.8-0.2,1.2c0,0.1,0,0.3,0,0.4c0,0.2,0,0.5,0.1,0.7c0,0.3,0.2,0.5,0.3,0.8
		c0.2,0.3,0.5,0.6,0.8,0.7c0.3,0.2,0.7,0.3,1.1,0.3h0.5c0.6,0,1-0.1,1.4-0.2c0.3-0.1,0.6-0.3,0.8-0.5c0.2-0.2,0.3-0.5,0.4-0.8
		c0.1-0.3,0.1-0.6,0.1-1V25.3z M83.8,24l-6.7,2.9L77,28.5c0.1,0.1,0.3,0.2,0.5,0.4c0.2,0.2,0.4,0.4,0.7,0.6c0.2,0.2,0.5,0.5,0.8,0.7
		c0.3,0.3,0.5,0.5,0.8,0.8c0.3,0.3,0.5,0.6,0.7,0.8c0.2,0.3,0.4,0.5,0.6,0.8c0.2,0.2,0.2,0.5,0.3,0.6c0,0.2,0.1,0.3,0.1,0.4
		c0,0.1,0,0.2-0.1,0.2c-0.1,0.1-0.2,0.3-0.4,0.3c-0.2,0.1-0.5,0.1-0.9,0.1H76h-0.3h-0.3c0,0-0.1,0-0.2,0c-0.1,0-0.2,0-0.3,0
		c-0.1,0-0.2-0.1-0.3-0.1c-0.1,0-0.2-0.1-0.3-0.2c-0.1-0.1-0.2-0.2-0.2-0.3c-0.1-0.1-0.1-0.3-0.1-0.5v-2.4h-1.4v2.5
		c0,0.1,0,0.2,0,0.4c0,0.1-0.1,0.2-0.2,0.3c-0.1,0.1-0.3,0.2-0.5,0.3c-0.2,0.1-0.5,0.1-0.8,0.1h-1.1h-0.3h-1c0,0-0.1,0-0.2,0
		c-0.1,0-0.2,0-0.3,0c-0.1,0-0.2-0.1-0.3-0.1c-0.1,0-0.2-0.1-0.3-0.2c-0.1-0.1-0.2-0.2-0.2-0.3c-0.1-0.1-0.1-0.3-0.1-0.5v-2.4h-1.4
		v2.5c0,0.1,0,0.2,0,0.4c0,0.1-0.1,0.2-0.2,0.3c-0.1,0.1-0.3,0.2-0.5,0.3c-0.2,0.1-0.5,0.1-0.8,0.1h-2.2h-0.3
		c-0.2,0-0.4-0.1-0.6-0.2c-0.2-0.1-0.4-0.3-0.5-0.5c-0.2-0.2-0.3-0.4-0.5-0.6c-0.1-0.2-0.3-0.4-0.4-0.6l-2.8-4.3l-1.2,0.8L59,33
		c0.1,0.2,0.2,0.3,0.2,0.4c0,0.1,0.1,0.2,0.1,0.2c0,0.1,0,0.1-0.1,0.2c0,0.1-0.2,0.2-0.3,0.3c-0.2,0.1-0.4,0.1-0.7,0.2
		c-0.2,0-0.5,0.1-0.6,0.1c-0.2,0-0.3,0-0.4,0c-0.2,0-0.4,0-0.6,0c-0.3,0-0.5-0.1-0.8-0.1c-0.2-0.1-0.5-0.1-0.6-0.2l-0.6-0.3
		l-0.7,1.2l0.6,0.3c0.2,0.1,0.4,0.2,0.6,0.3c0.2,0.1,0.5,0.1,0.7,0.2c0.2,0,0.5,0.1,0.7,0.1c0.3,0,0.5,0,0.7,0c0.2,0,0.4,0,0.6,0
		c0.2,0,0.4,0,0.5-0.1c0.9-0.1,1.5-0.4,1.9-0.9c0.6,0.6,1.2,0.9,1.9,0.9v0h0h0.3h2.2c1,0,1.7-0.3,2.2-0.8c0.2,0.3,0.5,0.4,0.8,0.6
		c0.3,0.1,0.7,0.2,1.2,0.2h1h0.3h1.1c1,0,1.7-0.3,2.2-0.8c0.2,0.3,0.5,0.4,0.8,0.6c0.3,0.1,0.7,0.2,1.2,0.2h0.3H76H80
		c0.4,0,0.8,0,1.1-0.1c0.3-0.1,0.5-0.2,0.8-0.3c0.2-0.1,0.4-0.3,0.5-0.4c0.1-0.1,0.2-0.3,0.2-0.4c0-0.1,0.1-0.2,0.1-0.3
		c0-0.1,0-0.2,0.1-0.3c0-0.1,0-0.1,0-0.2c0-0.1,0-0.3,0-0.4c0-0.2-0.1-0.4-0.2-0.6c-0.1-0.2-0.2-0.5-0.4-0.8
		c-0.2-0.3-0.4-0.6-0.7-0.9c-0.2-0.3-0.5-0.6-0.8-0.9c-0.3-0.3-0.5-0.6-0.8-0.9c-0.3-0.3-0.5-0.5-0.7-0.7c-0.2-0.2-0.4-0.4-0.6-0.5
		l5.8-2.5L83.8,24z M117.2,24.8l-1.3-1.3l-1.2,1.2l1.2,1.3L117.2,24.8z M65.8,38.5l1.1,1.2l1.2-1.2L67,37.3L65.8,38.5z M169,26.7
		l-1.3-1.3l-1.2,1.3l1.3,1.3L169,26.7z M74.2,27.4l-1.3-1.3l-1.2,1.2l1.3,1.3L74.2,27.4z M63,38.5l1.1,1.2l1.2-1.2l-1.2-1.2L63,38.5
		z M179.2,38.3l1.3,1.3l1.3-1.3l-1.3-1.3L179.2,38.3z M182.2,32.9c0,0.5-0.1,0.9-0.2,1.2c-0.2,0.3-0.4,0.6-0.6,0.8
		c-0.2,0.2-0.5,0.4-0.8,0.5c-0.3,0.1-0.6,0.2-0.9,0.2h-1.6h-0.3H177c0,0.7-0.1,1.3-0.3,1.8c-0.2,0.5-0.5,0.9-0.9,1.2
		c-0.4,0.3-1,0.6-1.6,0.7c-0.6,0.2-1.4,0.2-2.3,0.2v-1.4c0.7,0,1.4-0.1,1.8-0.2c0.5-0.1,0.9-0.3,1.2-0.5c0.3-0.2,0.4-0.5,0.6-0.8
		c0.1-0.3,0.2-0.7,0.2-1.2h-1.3c-0.3,0-0.7,0-1-0.2c-0.3-0.1-0.7-0.3-1-0.5c-0.3-0.2-0.5-0.5-0.7-0.9c-0.2-0.4-0.3-0.8-0.3-1.4
		c0-0.3,0-0.6,0.1-0.9c0.1-0.3,0.1-0.5,0.2-0.7c0.1-0.2,0.2-0.4,0.3-0.5c0.1-0.2,0.2-0.3,0.3-0.4c0.3-0.3,0.6-0.5,0.9-0.6
		c0.3-0.1,0.7-0.2,1.1-0.2c0.3,0,0.7,0.1,1,0.2c0.3,0.1,0.6,0.3,0.8,0.5c0.7,0.6,1,1.6,1,2.9v1.4h0.8h0.3h1.6c0.1,0,0.2,0,0.3,0
		c0.1,0,0.3-0.1,0.4-0.2c0.1-0.1,0.3-0.2,0.3-0.4c0.1-0.2,0.2-0.4,0.2-0.7c0-0.1,0-0.2,0-0.4c0-0.2,0-0.3-0.1-0.5
		c0-0.2-0.1-0.4-0.1-0.6c0-0.2-0.1-0.4-0.1-0.6c0-0.2-0.1-0.3-0.1-0.5c0-0.1-0.1-0.2-0.1-0.3l1.3-0.4c0,0,0,0.1,0.1,0.2
		c0,0.1,0.1,0.3,0.1,0.5c0,0.2,0.1,0.4,0.1,0.6c0,0.2,0.1,0.5,0.1,0.7c0,0.2,0.1,0.5,0.1,0.7C182.2,32.6,182.2,32.8,182.2,32.9z
		 M175.6,32.9c0-0.4,0-0.7-0.1-0.9c-0.1-0.2-0.1-0.4-0.2-0.6c-0.1-0.2-0.2-0.3-0.3-0.4c-0.1-0.1-0.2-0.1-0.3-0.2
		c-0.1,0-0.2-0.1-0.3-0.1c-0.1,0-0.2,0-0.2,0c-0.5,0-0.9,0.2-1.1,0.5c-0.3,0.3-0.4,0.8-0.4,1.4c0,0.6,0.2,1.1,0.6,1.3
		c0.1,0.1,0.2,0.1,0.3,0.1c0.1,0,0.2,0.1,0.3,0.1c0.1,0,0.2,0,0.2,0c0.1,0,0.1,0,0.2,0h1.3V32.9z M118.4,30.1
		c0.1,0.5,0.2,1.1,0.2,1.8v1c0,0.5-0.1,0.9-0.3,1.3c-0.2,0.4-0.5,0.7-0.9,0.9c-0.6,0.4-1.6,0.6-2.8,0.6h-1.8h-1.4h-1.3
		c-0.1,0-0.2,0-0.3,0c-0.1,0-0.2-0.1-0.4-0.1c-0.1-0.1-0.3-0.2-0.5-0.3c-0.2-0.1-0.4-0.3-0.7-0.5c-0.6,0.3-1.2,0.5-2,0.7
		c-0.8,0.1-1.6,0.2-2.5,0.2h-0.4v0c-0.4,0-0.7,0-1-0.1c-0.3-0.1-0.6-0.2-0.8-0.3c-0.2-0.1-0.4-0.3-0.6-0.5c-0.1-0.2-0.2-0.4-0.3-0.7
		c-0.1-0.3-0.1-0.5-0.2-0.8c0-0.3,0-0.7,0-1v-7h1.4v7c0,0.4,0,0.8,0,1c0,0.3,0.1,0.5,0.2,0.6c0.1,0.1,0.3,0.2,0.5,0.3
		c0.2,0.1,0.6,0.1,1,0.1h0.1c0.7,0,1.3,0,1.9-0.1c0.6-0.1,1-0.2,1.4-0.3c-0.3-0.2-0.5-0.4-0.8-0.7c-0.2-0.2-0.5-0.4-0.7-0.6
		c-0.2-0.2-0.4-0.4-0.5-0.5c-0.2-0.1-0.3-0.3-0.3-0.3v-0.3c0-0.1,0-0.2,0-0.3c0-0.1,0-0.2,0.1-0.3c0-0.1,0.1-0.2,0.1-0.4
		c0.1-0.1,0.1-0.2,0.2-0.3c0.4-0.4,1-0.6,1.8-0.6h2.4c0.4,0,0.8,0.1,1.1,0.3c0.3,0.2,0.6,0.5,0.7,0.8c0.1,0.2,0.2,0.4,0.2,0.7
		c0,0.2,0,0.4-0.1,0.6c-0.1,0.2-0.2,0.4-0.3,0.6c-0.1,0.2-0.3,0.4-0.5,0.6c-0.2,0.2-0.3,0.3-0.5,0.5c-0.2,0.2-0.3,0.3-0.5,0.5
		c0.1,0.1,0.2,0.1,0.3,0.2c0.1,0,0.1,0.1,0.2,0.1c0,0,0.1,0,0.1,0c0,0,0,0,0.1,0h1.3h1.4h1.8c0.5,0,1,0,1.3-0.1
		c0.3-0.1,0.6-0.2,0.8-0.3c0.2-0.1,0.3-0.2,0.4-0.4c0.1-0.1,0.1-0.3,0.1-0.4h-1.1c-0.1,0-0.3,0-0.4,0c-0.2,0-0.3,0-0.5-0.1
		s-0.3-0.1-0.5-0.1c-0.2-0.1-0.3-0.1-0.5-0.2c-0.1-0.1-0.3-0.2-0.4-0.3c-0.1-0.1-0.3-0.3-0.4-0.4c-0.1-0.2-0.2-0.4-0.3-0.6
		c-0.1-0.2-0.1-0.5-0.1-0.8c0-0.4,0.1-0.8,0.2-1.1c0.1-0.4,0.3-0.7,0.6-0.9c0.3-0.3,0.5-0.4,0.9-0.6c0.3-0.1,0.7-0.2,1-0.2
		c0.4,0,0.8,0.1,1.2,0.3c0.4,0.2,0.7,0.4,0.9,0.8C118.1,29.1,118.3,29.5,118.4,30.1z M109.9,31.6c0.1-0.1,0.1-0.1,0.1-0.2
		c0,0,0-0.1,0-0.1c0-0.1,0-0.1,0-0.2c0-0.1-0.1-0.1-0.2-0.2c-0.1-0.1-0.2-0.1-0.4-0.1H107c-0.1,0-0.3,0-0.3,0c-0.1,0-0.2,0-0.2,0
		c-0.1,0-0.1,0-0.1,0.1c0,0,0,0-0.1,0c0,0,0,0,0,0.1c0,0,0,0.1,0,0.1c0.1,0.1,0.2,0.2,0.4,0.4c0.2,0.2,0.4,0.3,0.6,0.5
		c0.2,0.2,0.4,0.4,0.6,0.6c0.2,0.2,0.4,0.4,0.6,0.5c0.3-0.2,0.5-0.4,0.8-0.7C109.4,32.2,109.6,31.9,109.9,31.6z M117.3,31.7
		c0-0.5-0.1-0.9-0.2-1.3c-0.1-0.4-0.2-0.7-0.4-0.9c-0.2-0.3-0.6-0.5-1-0.5c-0.2,0-0.3,0-0.5,0.1c-0.2,0.1-0.3,0.1-0.5,0.3
		c-0.1,0.1-0.2,0.3-0.3,0.4c-0.1,0.2-0.1,0.4-0.1,0.6c0,0.2,0,0.3,0.1,0.4c0,0.1,0.1,0.2,0.1,0.3c0.1,0.1,0.1,0.1,0.2,0.2
		c0.1,0,0.1,0.1,0.2,0.1c0.1,0.1,0.3,0.1,0.5,0.2c0.2,0,0.4,0.1,0.7,0.1H117.3z M169.4,32.4c0,0.2,0,0.4,0,0.6
		c0,0.5-0.1,0.9-0.2,1.2c-0.2,0.3-0.3,0.6-0.6,0.8c-0.2,0.2-0.5,0.4-0.8,0.5c-0.3,0.1-0.6,0.2-0.9,0.2h-1.6H165h-0.8
		c0,0.7-0.1,1.3-0.3,1.8c-0.2,0.5-0.5,0.9-0.9,1.2c-0.4,0.3-1,0.6-1.6,0.7c-0.6,0.2-1.4,0.2-2.3,0.2v-1.4c0.7,0,1.3-0.1,1.8-0.2
		c0.5-0.1,0.9-0.3,1.2-0.5c0.3-0.2,0.4-0.5,0.6-0.8c0.1-0.3,0.2-0.7,0.2-1.2h-1.3c-0.3,0-0.7,0-1-0.2c-0.3-0.1-0.7-0.3-0.9-0.5
		c-0.3-0.2-0.5-0.5-0.7-0.9c-0.2-0.4-0.3-0.8-0.3-1.4c0-0.3,0-0.6,0.1-0.9c0.1-0.3,0.1-0.5,0.2-0.7c0.1-0.2,0.2-0.4,0.3-0.5
		c0.1-0.2,0.2-0.3,0.3-0.4c0.3-0.3,0.6-0.5,0.9-0.6c0.3-0.1,0.7-0.2,1.1-0.2c0.3,0,0.7,0.1,1,0.2c0.3,0.1,0.6,0.3,0.8,0.5
		c0.7,0.6,1,1.6,1,2.9v1.4h0.8h0.3h1.6c0.1,0,0.2,0,0.3,0c0.1,0,0.3-0.1,0.4-0.2c0.1-0.1,0.2-0.2,0.3-0.4c0.1-0.2,0.1-0.4,0.1-0.7
		c0-0.1,0-0.2,0-0.4c0-0.2,0-0.3-0.1-0.5c0-0.2-0.1-0.4-0.1-0.6c0-0.2-0.1-0.4-0.1-0.6c0-0.2-0.1-0.3-0.1-0.5c0-0.1-0.1-0.2-0.1-0.3
		l1.3-0.4c0,0,0,0.1,0.1,0.2c0,0.1,0.1,0.3,0.1,0.5c0,0.2,0.1,0.4,0.1,0.6c0,0.2,0.1,0.5,0.1,0.7C169.4,32,169.4,32.2,169.4,32.4z
		 M162.8,32.9c0-0.4,0-0.7-0.1-0.9c-0.1-0.2-0.1-0.4-0.2-0.6c-0.1-0.2-0.2-0.3-0.3-0.4c-0.1-0.1-0.2-0.1-0.3-0.2
		c-0.1,0-0.2-0.1-0.3-0.1c-0.1,0-0.2,0-0.2,0c-0.5,0-0.9,0.2-1.1,0.5c-0.3,0.3-0.4,0.8-0.4,1.4c0,0.6,0.2,1.1,0.6,1.3
		c0.1,0.1,0.2,0.1,0.3,0.1c0.1,0,0.2,0.1,0.3,0.1c0.1,0,0.2,0,0.3,0c0.1,0,0.1,0,0.2,0h1.3V32.9z M127,25.3h-1.4v10.4h1.4V25.3z
		 M130.6,35.3c0,0.5-0.1,1-0.2,1.4c-0.1,0.4-0.3,0.7-0.5,0.9c-0.2,0.2-0.5,0.4-0.9,0.5c-0.4,0.1-0.8,0.2-1.3,0.2h-1v1.4h1
		c0.7,0,1.3-0.1,1.9-0.3c0.5-0.2,1-0.5,1.3-0.9c0.4-0.4,0.6-0.8,0.8-1.4c0.2-0.5,0.3-1.2,0.3-1.9v-4.5h-1.4V35.3z M156.7,31.7
		c0-0.2-0.1-0.5-0.1-0.7c0-0.2-0.1-0.4-0.1-0.6c0-0.2-0.1-0.3-0.1-0.5c0-0.1,0-0.2-0.1-0.2l-1.3,0.4c0,0.1,0,0.2,0.1,0.3
		c0,0.1,0.1,0.3,0.1,0.5c0,0.2,0.1,0.3,0.1,0.5c0,0.2,0.1,0.4,0.1,0.6c0,0.2,0,0.4,0.1,0.5c0,0.2,0,0.3,0,0.4c0,0.3,0,0.5-0.1,0.7
		c-0.1,0.2-0.2,0.3-0.3,0.4c-0.1,0.1-0.3,0.2-0.4,0.2c-0.1,0-0.2,0-0.3,0.1c-0.5,0-0.9-0.1-1.1-0.3c-0.2-0.2-0.3-0.5-0.3-1v-2.3
		h-1.4v2.2c0,0.3,0,0.5-0.1,0.7c-0.1,0.2-0.2,0.3-0.3,0.4c-0.1,0.1-0.3,0.2-0.4,0.2c-0.2,0-0.3,0.1-0.4,0.1c-0.2,0-0.4,0-0.6-0.1
		c-0.2,0-0.4-0.2-0.5-0.3c-0.1-0.2-0.3-0.4-0.4-0.6c-0.1-0.3-0.1-0.7-0.1-1.1v-1.4h-1.4v5.1c0,0.4,0,0.7-0.1,1
		c-0.1,0.3-0.2,0.6-0.4,0.8c-0.2,0.2-0.5,0.4-0.8,0.5c-0.3,0.1-0.8,0.2-1.4,0.2h-1.7c-0.5,0-1-0.1-1.4-0.3c-0.4-0.2-0.7-0.5-1-0.9
		c-0.2-0.3-0.3-0.6-0.4-1c-0.1-0.3-0.1-0.6-0.1-0.9c0-0.1,0-0.3,0-0.5c0-0.5,0.1-1,0.3-1.5c0.2-0.5,0.4-1.1,0.6-1.6l-1.2-0.6
		c-0.3,0.7-0.6,1.3-0.7,2c-0.2,0.6-0.3,1.1-0.3,1.5c0,0.4,0,0.6,0,0.7c0,0.4,0,0.8,0.1,1.2c0.1,0.5,0.3,1,0.6,1.4
		c0.4,0.6,0.9,1.1,1.5,1.4c0.6,0.3,1.3,0.5,2,0.5h1.7c1.4,0,2.4-0.3,3-1c0.7-0.6,1-1.6,1-2.9v-0.6c0.4,0.3,1,0.4,1.6,0.4
		c0.2,0,0.3,0,0.5,0c0.2,0,0.3-0.1,0.5-0.1c0.2-0.1,0.3-0.2,0.5-0.3c0.2-0.1,0.3-0.2,0.4-0.4c0.2,0.3,0.5,0.5,0.9,0.6
		c0.4,0.1,0.8,0.2,1.3,0.2c0.3,0,0.6-0.1,0.9-0.2c0.3-0.1,0.6-0.3,0.8-0.5c0.2-0.2,0.4-0.5,0.6-0.8c0.1-0.3,0.2-0.7,0.2-1.2
		c0-0.2,0-0.3,0-0.6C156.8,32.1,156.8,31.9,156.7,31.7z"/>
	<path class="st2" d="M158.2,102.8c-0.1,0-0.3,0-0.4,0c-0.2,0-0.3,0-0.5,0c-0.2,0-0.4,0-0.6,0c-0.2,0-0.4,0-0.6-0.1
		c-0.2,0-0.4-0.1-0.6-0.1c-0.2-0.1-0.3-0.1-0.5-0.2l-0.5-0.3l0.6-1l0.5,0.3c0.1,0.1,0.3,0.1,0.5,0.2c0.2,0,0.4,0.1,0.6,0.1
		c0.2,0,0.4,0,0.6,0c0,0,0.1,0,0.2,0c0.1,0,0.3,0,0.5,0c0.2,0,0.4-0.1,0.6-0.2c0.2-0.1,0.2-0.1,0.3-0.2c0,0,0-0.1,0-0.1
		c0-0.1,0-0.2-0.1-0.3c0-0.1-0.1-0.3-0.2-0.5l-2.1-3.2l0.9-0.6c0.1,0.1,0.1,0.2,0.2,0.2c0.1,0.1,0.1,0.2,0.2,0.3
		c0.1,0.1,0.2,0.2,0.3,0.4c0.1,0.2,0.2,0.3,0.4,0.5c0.1,0.2,0.3,0.5,0.5,0.7c0.2,0.3,0.4,0.6,0.7,1c0.1,0.2,0.2,0.3,0.3,0.5
		c0.1,0.2,0.1,0.3,0.2,0.5c0,0.2,0.1,0.3,0.1,0.4c0,0,0,0.1,0,0.2c0,0.1,0,0.2-0.1,0.4C159.6,102.3,159.1,102.7,158.2,102.8z
		 M71.8,54.7L71,53.9l-0.9,0.8l0.8,0.8L71.8,54.7z M24.2,65.8c0.4-0.2,0.8-0.4,1.1-0.7c0.3-0.3,0.5-0.7,0.7-1.1
		c0.2-0.4,0.2-0.9,0.2-1.5v-3.7h-1.1v3.7c0,0.4,0,0.8-0.1,1.1c-0.1,0.3-0.2,0.6-0.4,0.8c-0.2,0.2-0.4,0.3-0.7,0.4
		c-0.3,0.1-0.6,0.1-1.1,0.1h-0.8v1.1h0.8C23.3,66.1,23.8,66,24.2,65.8z M72.1,57.4l0.9-0.9l-1-1l-0.9,1L72.1,57.4z M78.8,55.8l-1-1
		l-0.9,1l0.9,0.9L78.8,55.8z M85.6,96.4l-1-1l-0.9,1l0.9,0.9L85.6,96.4z M96.6,60.9c0-0.3,0-0.5,0-0.8v-5.7h1.1V60
		c0,0.3,0,0.6,0,0.8c0,0.2,0.1,0.4,0.2,0.5c0.1,0.1,0.2,0.2,0.4,0.2c0.2,0,0.5,0.1,0.8,0.1h0.6c0.3,0,0.5,0,0.8,0
		c0.3,0,0.5,0,0.7-0.1c-0.3-0.2-0.5-0.5-0.6-0.8c-0.1-0.3-0.2-0.6-0.2-1c0-0.3,0.1-0.6,0.2-0.8c0.1-0.3,0.3-0.5,0.5-0.7
		c0.2-0.2,0.4-0.3,0.7-0.4c0.3-0.1,0.6-0.2,0.9-0.2c0.2,0,0.5,0,0.7,0.1c0.2,0.1,0.4,0.2,0.5,0.3c0.2,0.1,0.3,0.2,0.4,0.4
		c0.1,0.1,0.2,0.3,0.3,0.5c0.1,0.2,0.1,0.3,0.2,0.5c0,0.2,0.1,0.3,0.1,0.5c0,0.4-0.1,0.8-0.2,1.1c-0.2,0.3-0.4,0.6-0.7,0.9
		c0.2,0.1,0.3,0.1,0.5,0.2c0.2,0,0.4,0.1,0.6,0.1c0.1,0,0.2,0,0.4,0c0.1,0,0.2,0,0.3-0.1c0.1,0,0.2-0.1,0.3-0.2
		c0.1-0.1,0.2-0.2,0.2-0.3c0.1-0.1,0.1-0.2,0.1-0.3c0-0.1,0-0.2,0-0.3c0-0.1-0.1-0.3-0.2-0.5c-0.1-0.2-0.3-0.5-0.5-0.7
		c-0.2-0.2-0.4-0.5-0.6-0.7c-0.2-0.2-0.5-0.5-0.7-0.7c-0.3-0.2-0.5-0.5-0.7-0.7l0.8-0.8c0.4,0.5,0.8,0.9,1.2,1.3
		c0.2,0.2,0.3,0.3,0.5,0.5c0.2,0.2,0.3,0.3,0.4,0.5c0.1,0.2,0.3,0.3,0.4,0.4c0.1,0.1,0.2,0.2,0.2,0.3c0.1,0.2,0.2,0.3,0.3,0.5
		c0.1,0.2,0.1,0.3,0.1,0.5c0,0.1,0,0.2,0,0.3c0,0.1,0,0.2,0,0.3c0,0.1,0,0.3-0.1,0.5c-0.1,0.2-0.2,0.4-0.3,0.6
		c-0.1,0.2-0.3,0.3-0.5,0.5c-0.2,0.1-0.4,0.2-0.7,0.3c-0.2,0.1-0.5,0.1-0.8,0.1c-0.3,0-0.5,0-0.8-0.1c-0.3-0.1-0.6-0.2-0.9-0.3
		c-0.1,0-0.2-0.1-0.2-0.1c-0.1,0-0.1-0.1-0.2-0.1c-0.1,0-0.1-0.1-0.2-0.1c-0.4,0.1-0.8,0.2-1.3,0.3c-0.5,0.1-1,0.1-1.6,0.1h-0.9v0
		c-0.3,0-0.6,0-0.8-0.1c-0.3-0.1-0.5-0.1-0.7-0.2c-0.2-0.1-0.3-0.2-0.4-0.4c-0.1-0.2-0.2-0.3-0.3-0.5C96.7,61.4,96.6,61.1,96.6,60.9
		z M101.6,59.8c0,0.2,0,0.3,0.1,0.5c0,0.1,0.1,0.3,0.2,0.4c0.1,0.1,0.2,0.2,0.4,0.3c0.1,0.1,0.3,0.2,0.5,0.3
		c0.1-0.1,0.3-0.1,0.4-0.2c0.1-0.1,0.2-0.2,0.3-0.3c0.1-0.1,0.2-0.3,0.2-0.4c0.1-0.1,0.1-0.3,0.1-0.5c0-0.2,0-0.4-0.1-0.5
		c-0.1-0.1-0.2-0.2-0.3-0.3s-0.2-0.1-0.4-0.2c-0.1,0-0.2-0.1-0.3-0.1c-0.2,0-0.3,0-0.4,0.1c-0.1,0-0.3,0.1-0.4,0.2
		c-0.1,0.1-0.2,0.2-0.2,0.3C101.6,59.5,101.6,59.6,101.6,59.8z M127.2,102.8h1.1v-8.4h-1.1V102.8z M86.8,64.5
		c0.2,0.2,0.3,0.4,0.5,0.6c0.2,0.2,0.4,0.3,0.7,0.5c0.2,0.1,0.5,0.2,0.8,0.3c0.3,0.1,0.6,0.1,0.9,0.1H91c0.6,0,1.1-0.1,1.5-0.2
		c0.4-0.1,0.8-0.3,1-0.6c0.3-0.3,0.5-0.6,0.6-1c0.1-0.4,0.2-0.8,0.2-1.4c0-0.3-0.1-0.5-0.2-0.7c-0.2-0.2-0.4-0.3-0.7-0.4l-2.3-0.6
		c0-0.1,0-0.2,0-0.3c0-0.2,0-0.3,0.1-0.5c0.1-0.3,0.2-0.5,0.3-0.7c0.2-0.2,0.3-0.4,0.6-0.5c0.2-0.1,0.5-0.3,0.7-0.3
		c0.3-0.1,0.5-0.1,0.8-0.1c0.3,0,0.5,0,0.8,0.1l0.3-1.1c-0.4-0.1-0.8-0.2-1.1-0.2c-0.1,0-0.2,0-0.3,0c-0.5,0-0.9,0.1-1.3,0.3
		c-0.4,0.2-0.7,0.4-1,0.7c-0.3,0.3-0.5,0.6-0.7,1c-0.2,0.4-0.2,0.7-0.3,0.9c0,0.2,0,0.4,0,0.4c0,0.4,0.1,0.8,0.3,1.2
		c0.1,0,0.3,0.1,0.4,0.1c0.2,0,0.3,0.1,0.5,0.1c0.2,0,0.3,0.1,0.5,0.1c0.2,0,0.3,0.1,0.5,0.1c0.4,0.1,0.7,0.2,1.1,0.3
		c0,0.3,0,0.6-0.1,0.9c-0.1,0.2-0.2,0.4-0.4,0.6c-0.2,0.2-0.4,0.3-0.7,0.3c-0.3,0.1-0.6,0.1-1,0.1h-1.3c-0.4,0-0.8-0.1-1.1-0.3
		c-0.3-0.2-0.6-0.4-0.8-0.7c-0.1-0.2-0.2-0.5-0.3-0.7c-0.1-0.3-0.1-0.5-0.1-0.8c0-0.8,0.3-1.8,0.8-2.9c-0.2-0.1-0.3-0.2-0.5-0.2
		c-0.2-0.1-0.3-0.2-0.5-0.2c-0.3,0.6-0.5,1.2-0.7,1.8c-0.2,0.6-0.2,1.1-0.2,1.6c0,0.4,0,0.8,0.1,1.1C86.5,63.9,86.6,64.2,86.8,64.5z
		 M44,97.1l1-1l-1-1l-1,1L44,97.1z M42.9,75.5l-1-1l-1,1l1,1L42.9,75.5z M34.6,81.5c-0.1-0.3-0.2-0.7-0.2-1.1c0-0.3,0-0.5,0.1-0.7
		c0-0.2,0.1-0.4,0.2-0.6c0.1-0.2,0.1-0.3,0.2-0.4c0.1-0.1,0.2-0.2,0.2-0.3c0.2-0.2,0.5-0.4,0.7-0.5c0.3-0.1,0.6-0.2,0.9-0.2
		c0.3,0,0.5,0,0.8,0.1c0.2,0.1,0.5,0.2,0.7,0.4c0.5,0.5,0.8,1.3,0.8,2.3v1.1h0.7h0.2h1.3c0.1,0,0.1,0,0.3,0c0.1,0,0.2-0.1,0.3-0.1
		c0.1-0.1,0.2-0.2,0.3-0.3c0.1-0.1,0.1-0.3,0.1-0.6c0-0.1,0-0.2,0-0.3c0-0.1,0-0.3-0.1-0.4c0-0.2,0-0.3-0.1-0.5
		c0-0.2-0.1-0.3-0.1-0.5c0-0.1-0.1-0.3-0.1-0.4c0-0.1,0-0.2-0.1-0.2l1.1-0.3c0,0,0,0.1,0,0.2c0,0.1,0.1,0.2,0.1,0.4
		c0,0.2,0.1,0.3,0.1,0.5c0,0.2,0.1,0.4,0.1,0.6c0,0.2,0,0.4,0.1,0.5c0,0.2,0,0.3,0,0.5c0,0.4-0.1,0.7-0.2,1
		c-0.1,0.3-0.3,0.5-0.5,0.7c-0.2,0.2-0.4,0.3-0.7,0.4c-0.2,0.1-0.5,0.1-0.8,0.1h-1.3h-0.2H39c0,0.6-0.1,1-0.2,1.4
		c-0.2,0.4-0.4,0.7-0.8,1c-0.3,0.3-0.8,0.5-1.3,0.6C36.2,86,35.6,86,34.8,86v-1.1c0.6,0,1.1,0,1.5-0.1c0.4-0.1,0.7-0.2,1-0.4
		c0.2-0.2,0.4-0.4,0.5-0.6c0.1-0.3,0.1-0.6,0.1-1h-1.1c-0.3,0-0.6,0-0.8-0.1c-0.3-0.1-0.5-0.2-0.8-0.4C35,82.1,34.8,81.8,34.6,81.5z
		 M35.5,80.4c0,0.5,0.2,0.9,0.5,1.1c0.1,0,0.2,0.1,0.2,0.1c0.1,0,0.2,0.1,0.2,0.1c0.1,0,0.1,0,0.2,0c0.1,0,0.1,0,0.2,0h1.1v-1.1
		c0-0.3,0-0.5-0.1-0.7c0-0.2-0.1-0.4-0.2-0.5c-0.1-0.1-0.1-0.2-0.2-0.3c-0.1-0.1-0.2-0.1-0.3-0.2c-0.1,0-0.2,0-0.2-0.1
		c-0.1,0-0.1,0-0.2,0c-0.4,0-0.7,0.1-0.9,0.4C35.6,79.5,35.5,79.9,35.5,80.4z M28.2,62.6c0.2,0.1,0.4,0.1,0.6,0.1
		c0.2,0,0.4,0.1,0.6,0.1c0.2,0,0.4,0,0.6,0c0.2,0,0.3,0,0.5,0c0.2,0,0.3,0,0.4,0c0.9-0.1,1.5-0.5,1.7-1c0.1-0.2,0.1-0.3,0.1-0.4
		c0-0.1,0-0.1,0-0.2c0-0.2,0-0.3-0.1-0.5c0-0.2-0.1-0.3-0.2-0.5c-0.1-0.2-0.2-0.3-0.3-0.5c-0.3-0.4-0.5-0.7-0.7-1
		c-0.2-0.3-0.4-0.5-0.5-0.7c-0.1-0.2-0.3-0.4-0.4-0.5c-0.1-0.2-0.2-0.3-0.3-0.4c-0.1-0.1-0.1-0.2-0.2-0.3c-0.1-0.1-0.1-0.2-0.2-0.2
		l-0.9,0.6l2.1,3.2c0.1,0.2,0.2,0.3,0.2,0.5c0,0.1,0.1,0.2,0.1,0.3c0,0,0,0.1,0,0.1c0,0.1-0.1,0.2-0.3,0.2c-0.2,0.1-0.3,0.1-0.6,0.2
		c-0.2,0-0.4,0-0.5,0c-0.1,0-0.2,0-0.2,0c-0.2,0-0.4,0-0.6,0c-0.2,0-0.4-0.1-0.6-0.1c-0.2-0.1-0.4-0.1-0.5-0.2l-0.5-0.3l-0.6,1
		l0.5,0.3C27.8,62.5,28,62.6,28.2,62.6z M155.5,84.3c0.1-0.4,0.2-0.8,0.2-1.4c0-0.3-0.1-0.5-0.2-0.7s-0.4-0.3-0.7-0.4l-2.3-0.6
		c0-0.1,0-0.2,0-0.3c0-0.2,0-0.3,0.1-0.5c0.1-0.3,0.2-0.5,0.3-0.7c0.2-0.2,0.3-0.4,0.6-0.5c0.2-0.1,0.5-0.3,0.7-0.3
		c0.3-0.1,0.5-0.1,0.8-0.1c0.3,0,0.5,0,0.8,0.1l0.3-1.1c-0.4-0.1-0.8-0.2-1.1-0.2c-0.1,0-0.2,0-0.3,0c-0.5,0-0.9,0.2-1.3,0.3
		c-0.4,0.2-0.7,0.4-1,0.7c-0.3,0.3-0.5,0.6-0.7,1c-0.2,0.4-0.2,0.7-0.3,0.9c0,0.2,0,0.4,0,0.4c0,0.4,0.1,0.8,0.3,1.2
		c0.1,0,0.3,0.1,0.4,0.1c0.2,0,0.3,0.1,0.5,0.1c0.2,0,0.3,0.1,0.5,0.1c0.2,0,0.3,0.1,0.5,0.1c0.4,0.1,0.7,0.2,1.1,0.3
		c0,0.3,0,0.6-0.1,0.9c-0.1,0.2-0.2,0.4-0.4,0.6c-0.2,0.1-0.4,0.3-0.7,0.3c-0.3,0.1-0.6,0.1-1,0.1H151c-0.4,0-0.8-0.1-1.1-0.3
		c-0.3-0.2-0.6-0.4-0.8-0.7c-0.1-0.2-0.2-0.5-0.3-0.7c-0.1-0.3-0.1-0.5-0.1-0.8c0-0.8,0.3-1.8,0.8-2.9c-0.2-0.1-0.3-0.2-0.5-0.2
		c-0.2-0.1-0.3-0.2-0.5-0.2c-0.3,0.6-0.5,1.2-0.7,1.8c-0.2,0.6-0.2,1.1-0.2,1.6c0,0.4,0,0.8,0.1,1.1c0.1,0.4,0.2,0.7,0.4,1
		c0.2,0.2,0.3,0.4,0.5,0.6c0.2,0.2,0.4,0.4,0.7,0.5c0.2,0.1,0.5,0.2,0.8,0.3c0.3,0.1,0.6,0.1,0.9,0.1h1.3c0.6,0,1.1-0.1,1.5-0.2
		c0.4-0.1,0.8-0.3,1-0.6C155.2,85,155.4,84.7,155.5,84.3z M60.4,85.6c0.2,0.1,0.4,0.2,0.6,0.3c0.2,0.1,0.4,0.1,0.6,0.1
		c0.2,0,0.4,0.1,0.6,0.1c0.2,0,0.4,0,0.6,0h2.7v-1.1h-2.7c-0.4,0-0.8,0-1.1-0.1c-0.3-0.1-0.6-0.2-0.9-0.3c-0.2-0.1-0.5-0.3-0.6-0.6
		c-0.2-0.3-0.3-0.6-0.3-1c0-0.1,0-0.3,0-0.4v-0.1c0-0.1,0-0.3,0.1-0.4c0.1-0.1,0.1-0.2,0.2-0.4c0.1-0.1,0.3-0.2,0.5-0.4
		c0.2-0.1,0.5-0.2,0.8-0.4c0.3-0.1,0.7-0.3,1.1-0.4c0.7-0.3,1.3-0.5,1.7-0.6c0.5-0.2,0.8-0.3,1.1-0.4c0.3-0.1,0.5-0.2,0.6-0.2
		c0.1,0,0.2-0.1,0.2-0.1l0-1l-2.2-0.9c-0.4-0.2-0.7-0.3-1-0.4c-0.3-0.1-0.5-0.2-0.7-0.3c-0.2-0.1-0.4-0.1-0.5-0.2
		c-0.1,0-0.2-0.1-0.3-0.1c-0.1,0-0.1,0-0.2,0c0,0-0.1,0-0.1,0c-1,0-1.6,0.6-1.9,1.7l1.1,0.3c0.1-0.2,0.1-0.4,0.2-0.5
		c0.1-0.1,0.1-0.2,0.2-0.3c0.1-0.1,0.1-0.1,0.2-0.1c0.1,0,0.1,0,0.2,0c0.1,0,0.2,0,0.5,0.1c0.2,0.1,0.5,0.2,0.8,0.3
		c0.3,0.1,0.7,0.2,1.1,0.4c0.4,0.1,0.8,0.3,1.1,0.4l-2.5,0.9c-0.6,0.2-1.2,0.4-1.6,0.7c-0.4,0.2-0.8,0.4-1.1,0.7
		c-0.3,0.3-0.5,0.6-0.6,0.8c-0.1,0.3-0.1,0.6-0.1,0.8c0,0.2,0,0.3,0,0.5C58.9,84.3,59.5,85.1,60.4,85.6z M53,55.3l-1-1l-0.9,1
		l0.9,0.9L53,55.3z M60.6,61.5c-0.1-0.3-0.2-0.7-0.2-1.1c0-0.3,0-0.5,0.1-0.7c0-0.2,0.1-0.4,0.2-0.6c0.1-0.2,0.1-0.3,0.2-0.4
		c0.1-0.1,0.2-0.2,0.2-0.3c0.2-0.2,0.5-0.4,0.7-0.5c0.3-0.1,0.6-0.2,0.9-0.2c0.3,0,0.5,0,0.8,0.1c0.2,0.1,0.5,0.2,0.7,0.4
		c0.5,0.5,0.8,1.3,0.8,2.3v1.1h0.7h0.2h0.2c0.3,0,0.5,0,0.6-0.1c0.2,0,0.3-0.1,0.4-0.2c0.1-0.1,0.1-0.2,0.2-0.3c0-0.1,0-0.3,0-0.5
		v-1.8h1.1v1.8c0,0.4,0.1,0.7,0.3,0.8c0.2,0.2,0.5,0.3,0.9,0.3c0.1,0,0.2,0,0.3,0c0.1,0,0.2-0.1,0.3-0.1c0.1-0.1,0.2-0.2,0.3-0.3
		c0.1-0.1,0.1-0.3,0.1-0.6v-1.8h1.1v1.8c0,0.4,0.1,0.7,0.3,0.8c0.2,0.2,0.5,0.3,0.9,0.3c0.1,0,0.2,0,0.3-0.1c0.1,0,0.2-0.1,0.3-0.2
		c0.1-0.1,0.2-0.2,0.2-0.3c0.1-0.1,0.1-0.3,0.1-0.5v-1.8h1.1v1.8c0,0.4,0.1,0.6,0.3,0.8c0.2,0.2,0.5,0.2,0.9,0.2h0.1h0.2h2.2
		c0.1,0,0.1,0,0.3,0c0.1,0,0.2-0.1,0.3-0.1c0.1-0.1,0.2-0.2,0.3-0.3c0.1-0.1,0.1-0.3,0.1-0.6c0-0.1,0-0.2,0-0.3c0-0.1,0-0.3-0.1-0.4
		c0-0.2,0-0.3-0.1-0.5c0-0.2-0.1-0.3-0.1-0.5c0-0.1-0.1-0.3-0.1-0.4c0-0.1,0-0.2-0.1-0.2l1.1-0.3c0,0,0,0.1,0,0.2
		c0,0.1,0,0.2,0.1,0.4c0,0.2,0.1,0.3,0.1,0.5c0,0.2,0.1,0.4,0.1,0.6c0,0.2,0.1,0.4,0.1,0.5c0,0.2,0,0.3,0,0.5c0,0.4-0.1,0.7-0.2,1
		c-0.1,0.3-0.3,0.5-0.5,0.7c-0.2,0.2-0.4,0.3-0.7,0.4c-0.2,0.1-0.5,0.1-0.7,0.1h-2.2h-0.2H76c-0.4,0-0.7-0.1-1-0.2
		c-0.3-0.1-0.5-0.3-0.7-0.5h0l-0.1,0.1c-0.2,0.2-0.4,0.3-0.7,0.4c-0.2,0.1-0.5,0.1-0.8,0.1c-0.7,0-1.3-0.2-1.7-0.6
		c-0.2,0.2-0.4,0.4-0.7,0.5c-0.3,0.1-0.5,0.2-0.8,0.2h-0.1c-0.7,0-1.2-0.2-1.6-0.6c0,0,0,0.1-0.1,0.1c-0.4,0.4-1,0.5-1.7,0.5h-0.2
		h-0.2H65c0,0.6-0.1,1-0.2,1.4c-0.2,0.4-0.4,0.7-0.8,1c-0.3,0.3-0.8,0.5-1.3,0.6C62.2,66,61.5,66,60.8,66v-1.1c0.6,0,1.1,0,1.5-0.1
		c0.4-0.1,0.7-0.2,1-0.4c0.2-0.2,0.4-0.4,0.5-0.6c0.1-0.3,0.1-0.6,0.1-1h-1.1c-0.3,0-0.6,0-0.8-0.1c-0.3-0.1-0.5-0.2-0.8-0.4
		C60.9,62.1,60.7,61.8,60.6,61.5z M61.4,60.4c0,0.5,0.2,0.9,0.5,1.1c0.1,0,0.2,0.1,0.2,0.1c0.1,0,0.2,0.1,0.2,0.1c0.1,0,0.1,0,0.2,0
		c0.1,0,0.1,0,0.2,0h1.1v-1.1c0-0.3,0-0.5-0.1-0.7c0-0.2-0.1-0.4-0.2-0.5c-0.1-0.1-0.1-0.2-0.2-0.3c-0.1-0.1-0.2-0.1-0.2-0.2
		c-0.1,0-0.2-0.1-0.2-0.1c-0.1,0-0.1,0-0.2,0c-0.4,0-0.7,0.1-0.9,0.4C61.5,59.5,61.4,59.9,61.4,60.4z M50.8,55.3l-1-1l-0.9,1
		l0.9,0.9L50.8,55.3z M70.8,56.4l-1-1l-0.9,1l0.9,0.9L70.8,56.4z M166.5,103.9l-0.9,0.9l0.9,1l1-1L166.5,103.9z M165.2,78l-1.1,0.3
		c0,0.1,0,0.1,0.1,0.2c0,0.1,0,0.2,0.1,0.4c0,0.1,0.1,0.3,0.1,0.5c0,0.2,0.1,0.3,0.1,0.5c0,0.2,0,0.3,0.1,0.4c0,0.1,0,0.2,0,0.3
		c0,0.3,0,0.5-0.1,0.6c-0.1,0.1-0.2,0.2-0.3,0.3c-0.1,0.1-0.2,0.1-0.3,0.1c-0.1,0-0.2,0-0.3,0h-1.3H162h0c0,0-0.1,0-0.2,0
		c-0.1,0-0.2,0-0.3-0.1c-0.1-0.1-0.2-0.2-0.3-0.3c-0.1-0.1-0.1-0.3-0.1-0.5v-2h-1.1v3.7c0,0.4,0,0.8-0.1,1.1
		c-0.1,0.3-0.2,0.6-0.4,0.8c-0.2,0.2-0.4,0.3-0.7,0.4c-0.3,0.1-0.7,0.1-1.1,0.1h-0.8v1.1h0.8c0.6,0,1.1-0.1,1.5-0.2
		c0.4-0.2,0.8-0.4,1.1-0.7c0.3-0.3,0.5-0.7,0.7-1.1c0.2-0.4,0.2-0.9,0.2-1.5c0.3,0.2,0.7,0.2,1,0.2h0h0.2h1.3c0.3,0,0.5,0,0.7-0.1
		c0.2-0.1,0.5-0.2,0.7-0.4c0.2-0.2,0.4-0.4,0.5-0.7c0.1-0.3,0.2-0.6,0.2-1c0-0.1,0-0.3,0-0.5c0-0.2,0-0.4-0.1-0.5
		c0-0.2-0.1-0.4-0.1-0.6c0-0.2-0.1-0.3-0.1-0.5c0-0.2-0.1-0.3-0.1-0.4C165.2,78.1,165.2,78,165.2,78z M163.2,84.9l1,1l1-1l-1-1
		L163.2,84.9z M180.7,99.6c0-0.2-0.1-0.4-0.1-0.5c0-0.2-0.1-0.3-0.1-0.5c0-0.2-0.1-0.3-0.1-0.4c0-0.1,0-0.2,0-0.2l-1.1,0.3
		c0,0,0,0.1,0.1,0.2c0,0.1,0,0.2,0.1,0.4c0,0.1,0.1,0.3,0.1,0.4c0,0.2,0.1,0.3,0.1,0.5c0,0.2,0,0.3,0.1,0.4c0,0.1,0,0.2,0,0.3
		c0,0.2,0,0.4-0.1,0.6c-0.1,0.1-0.2,0.3-0.3,0.3c-0.1,0.1-0.2,0.1-0.3,0.2c-0.1,0-0.2,0-0.3,0c-0.4,0-0.7-0.1-0.9-0.3
		c-0.2-0.2-0.3-0.5-0.3-0.8v-1.8h-1.1v1.8c0,0.3,0,0.5-0.1,0.6c-0.1,0.1-0.2,0.3-0.3,0.3c-0.1,0.1-0.2,0.1-0.3,0.1
		c-0.1,0-0.2,0-0.3,0c-0.4,0-0.7-0.1-0.9-0.3c-0.2-0.2-0.3-0.5-0.3-0.8v-1.8h-1.1v1.8c0,0.3,0,0.5-0.1,0.6c-0.1,0.1-0.2,0.3-0.3,0.3
		c-0.1,0.1-0.2,0.1-0.3,0.1c-0.1,0-0.2,0-0.3,0h-1.1h-0.3h-0.8c0,0-0.1,0-0.1,0c-0.1,0-0.1,0-0.2,0c-0.1,0-0.2,0-0.2-0.1
		c-0.1,0-0.2-0.1-0.2-0.2c-0.1-0.1-0.1-0.2-0.2-0.3c0-0.1-0.1-0.2-0.1-0.4v-2h-1.1v2c0,0.1,0,0.2,0,0.3c0,0.1-0.1,0.2-0.2,0.3
		c-0.1,0.1-0.2,0.2-0.4,0.2c-0.2,0.1-0.4,0.1-0.7,0.1h-1.8h-0.3c0,0-0.1,0-0.2,0c-0.1,0-0.2,0-0.4-0.1c-0.1-0.1-0.2-0.2-0.3-0.3
		c-0.1-0.1-0.1-0.3-0.1-0.5v-2h-1.1v3.7c0,0.4,0,0.8-0.1,1.1c-0.1,0.3-0.2,0.6-0.4,0.8c-0.2,0.2-0.4,0.3-0.7,0.4
		c-0.3,0.1-0.7,0.1-1.1,0.1h-0.8v1.1h0.8c0.6,0,1.1-0.1,1.5-0.2c0.4-0.2,0.8-0.4,1.1-0.7c0.3-0.3,0.5-0.7,0.7-1.1
		c0.2-0.4,0.2-0.9,0.2-1.5c0.3,0.2,0.7,0.2,1,0.2h0.3h1.8c0.8,0,1.4-0.2,1.8-0.6c0.2,0.2,0.4,0.4,0.7,0.5c0.3,0.1,0.6,0.2,0.9,0.2
		h0.8h0.3h1.1c0.3,0,0.5-0.1,0.8-0.2c0.3-0.1,0.5-0.3,0.7-0.5c0.2,0.2,0.4,0.4,0.7,0.5c0.3,0.1,0.6,0.2,1,0.2c0.3,0,0.5-0.1,0.8-0.2
		c0.3-0.1,0.5-0.3,0.7-0.5c0.2,0.2,0.4,0.4,0.7,0.5c0.3,0.1,0.6,0.2,1,0.2c0.2,0,0.5-0.1,0.7-0.1c0.2-0.1,0.5-0.2,0.7-0.4
		c0.2-0.2,0.4-0.4,0.5-0.7c0.1-0.3,0.2-0.6,0.2-1c0-0.1,0-0.3,0-0.5C180.7,99.9,180.7,99.8,180.7,99.6z M168.4,85.8
		c0.4-0.2,0.8-0.4,1.1-0.7c0.3-0.3,0.5-0.7,0.7-1.1c0.1-0.4,0.2-0.9,0.2-1.5v-3.7h-1.1v3.7c0,0.4,0,0.8-0.1,1.1
		c-0.1,0.3-0.2,0.6-0.4,0.8c-0.2,0.2-0.4,0.3-0.7,0.4c-0.3,0.1-0.7,0.1-1.1,0.1h-0.8v1.1h0.8C167.5,86.1,168,86,168.4,85.8z
		 M176.5,62.6c0.2,0.1,0.4,0.1,0.6,0.1c0.2,0,0.4,0.1,0.6,0.1c0.2,0,0.4,0,0.6,0c0.2,0,0.3,0,0.5,0c0.2,0,0.3,0,0.4,0
		c0.9-0.1,1.5-0.5,1.7-1c0.1-0.2,0.1-0.3,0.1-0.4c0-0.1,0-0.1,0-0.2c0-0.2,0-0.3-0.1-0.5c0-0.2-0.1-0.3-0.2-0.5
		c-0.1-0.2-0.2-0.3-0.3-0.5c-0.3-0.4-0.5-0.7-0.7-1c-0.2-0.3-0.4-0.5-0.5-0.7c-0.1-0.2-0.3-0.4-0.4-0.5c-0.1-0.2-0.2-0.3-0.3-0.4
		c-0.1-0.1-0.1-0.2-0.2-0.3c-0.1-0.1-0.1-0.2-0.2-0.2l-0.9,0.6l2.1,3.2c0.1,0.2,0.2,0.3,0.2,0.5c0,0.1,0.1,0.2,0.1,0.3
		c0,0,0,0.1,0,0.1c0,0.1-0.1,0.2-0.3,0.2c-0.1,0.1-0.3,0.1-0.6,0.2c-0.2,0-0.4,0-0.5,0c-0.1,0-0.2,0-0.2,0c-0.2,0-0.4,0-0.6,0
		c-0.2,0-0.4-0.1-0.6-0.1c-0.2-0.1-0.4-0.1-0.5-0.2l-0.5-0.3l-0.6,1l0.5,0.3C176.2,62.5,176.4,62.6,176.5,62.6z M149.4,61.5
		c-0.1-0.3-0.2-0.7-0.2-1.1c0-0.3,0-0.5,0.1-0.7c0-0.2,0.1-0.4,0.2-0.6c0.1-0.2,0.1-0.3,0.2-0.4c0.1-0.1,0.2-0.2,0.2-0.3
		c0.2-0.2,0.5-0.4,0.7-0.5c0.3-0.1,0.6-0.2,0.9-0.2c0.3,0,0.5,0,0.8,0.1c0.2,0.1,0.5,0.2,0.7,0.4c0.5,0.5,0.8,1.3,0.8,2.3v1.1h0.7
		h0.2h0.9c0.3,0,0.5,0,0.7-0.1c0.2-0.1,0.3-0.1,0.4-0.2c0.1-0.1,0.1-0.2,0.2-0.3c0-0.1,0-0.2,0-0.3v-2h1.1v2c0,0.1,0,0.3,0.1,0.4
		c0,0.1,0.1,0.2,0.2,0.3c0.1,0.1,0.1,0.1,0.2,0.2c0.1,0,0.2,0.1,0.2,0.1c0.1,0,0.2,0,0.2,0c0.1,0,0.1,0,0.1,0h0.2h0.2h0.4
		c0.2,0,0.3-0.1,0.4-0.2c0.1-0.1,0.2-0.3,0.3-0.4c0.1-0.2,0.1-0.4,0.2-0.6c0.1-0.2,0.1-0.5,0.2-0.7c0.1-0.2,0.2-0.5,0.3-0.7
		c0.1-0.2,0.2-0.4,0.4-0.6c0.2-0.2,0.4-0.3,0.6-0.4c0.2-0.1,0.5-0.2,0.9-0.2c0.4,0,0.7,0.1,1,0.2c0.3,0.1,0.5,0.3,0.7,0.6
		c0.2,0.2,0.3,0.5,0.4,0.9c0.1,0.3,0.1,0.7,0.1,1c0,0.4,0,0.7-0.1,1c-0.1,0.3-0.2,0.5-0.3,0.7c-0.1,0.2-0.2,0.3-0.4,0.5
		c-0.1,0.1-0.3,0.2-0.4,0.3c-0.1,0.1-0.3,0.1-0.4,0.1c-0.1,0-0.2,0-0.3,0c-0.2,0-0.4,0-0.6-0.1s-0.4-0.1-0.5-0.2
		c-0.2-0.1-0.4-0.2-0.6-0.3c-0.2-0.1-0.4-0.2-0.7-0.4c-0.3,0.4-0.7,0.6-1.2,0.6h-0.4h-0.2H159c-0.4,0-0.7,0-0.9-0.2
		c-0.3-0.1-0.5-0.3-0.7-0.5c-0.4,0.4-1,0.6-1.8,0.6h-0.9h-0.2h-0.7c0,0.6-0.1,1-0.2,1.4c-0.2,0.4-0.4,0.7-0.8,1
		c-0.3,0.3-0.8,0.5-1.3,0.6c-0.5,0.1-1.1,0.2-1.9,0.2v-1.1c0.6,0,1.1,0,1.5-0.1c0.4-0.1,0.7-0.2,1-0.4c0.2-0.2,0.4-0.4,0.5-0.6
		c0.1-0.3,0.1-0.6,0.1-1h-1.1c-0.3,0-0.6,0-0.8-0.1c-0.3-0.1-0.5-0.2-0.8-0.4C149.7,62.1,149.5,61.8,149.4,61.5z M161.6,61.2
		c0.2,0.1,0.4,0.2,0.6,0.3c0.2,0.1,0.3,0.2,0.5,0.2c0.2,0.1,0.3,0.1,0.4,0.2c0.1,0,0.3,0.1,0.4,0.1c0,0,0.1,0,0.1,0c0,0,0.1,0,0.2,0
		c0.1,0,0.1-0.1,0.2-0.1c0.1-0.1,0.1-0.1,0.2-0.2c0-0.1,0.1-0.2,0.1-0.4c0-0.2,0-0.4,0-0.6c0,0,0-0.1,0-0.2c0-0.1,0-0.2-0.1-0.3
		c0-0.1-0.1-0.2-0.1-0.4c-0.1-0.1-0.1-0.2-0.2-0.3c-0.1-0.1-0.2-0.2-0.3-0.3c-0.1-0.1-0.3-0.1-0.5-0.1c-0.2,0-0.3,0-0.4,0.1
		c-0.1,0.1-0.2,0.1-0.3,0.3c-0.1,0.1-0.2,0.2-0.2,0.4c-0.1,0.1-0.1,0.3-0.2,0.5c0,0.2-0.1,0.3-0.1,0.5
		C161.8,60.9,161.7,61,161.6,61.2z M150.2,60.4c0,0.5,0.2,0.9,0.5,1.1c0.1,0,0.2,0.1,0.2,0.1c0.1,0,0.2,0.1,0.2,0.1
		c0.1,0,0.1,0,0.2,0c0.1,0,0.1,0,0.2,0h1.1v-1.1c0-0.3,0-0.5-0.1-0.7c0-0.2-0.1-0.4-0.2-0.5c-0.1-0.1-0.1-0.2-0.2-0.3
		c-0.1-0.1-0.2-0.1-0.3-0.2c-0.1,0-0.2-0.1-0.2-0.1c-0.1,0-0.1,0-0.2,0c-0.4,0-0.7,0.1-0.9,0.4C150.4,59.5,150.2,59.9,150.2,60.4z
		 M178.6,81.6c-0.2,0.1-0.4,0.1-0.7,0.1h-3.2c-0.4,0-0.6,0-0.8-0.1c-0.2,0-0.3-0.1-0.4-0.2c-0.1-0.1-0.2-0.3-0.2-0.5
		c0-0.2,0-0.5,0-0.8v-5.7h-1.1V80c0,0.3,0,0.6,0,0.8c0,0.3,0.1,0.5,0.1,0.7c0.1,0.2,0.2,0.4,0.3,0.5c0.1,0.2,0.3,0.3,0.4,0.4
		c0.2,0.1,0.4,0.2,0.7,0.2c0.2,0,0.5,0.1,0.8,0.1v0h3.5c0.4,0,0.7,0,0.9-0.1c0.2-0.1,0.4-0.2,0.6-0.3c0.2-0.1,0.3-0.2,0.4-0.3
		c0.1-0.1,0.2-0.2,0.2-0.3c0-0.1,0.1-0.2,0.1-0.3c0-0.1,0-0.2,0-0.3c0-0.1,0-0.1,0-0.1c0-0.1,0-0.2,0-0.4c0-0.1-0.1-0.3-0.1-0.5
		c-0.1-0.2-0.2-0.4-0.3-0.7c-0.2-0.2-0.3-0.5-0.5-0.7c-0.2-0.2-0.4-0.5-0.6-0.7c-0.2-0.2-0.4-0.5-0.7-0.7c-0.2-0.2-0.4-0.4-0.6-0.6
		c-0.2-0.2-0.3-0.3-0.5-0.4l4.7-2.1l-0.4-1l-5.4,2.4l-0.1,1.3c0.1,0.1,0.2,0.2,0.4,0.3c0.2,0.1,0.3,0.3,0.5,0.5
		c0.2,0.2,0.4,0.4,0.6,0.6c0.2,0.2,0.4,0.4,0.6,0.7c0.2,0.2,0.4,0.5,0.6,0.7c0.2,0.2,0.3,0.4,0.4,0.6c0.1,0.2,0.2,0.4,0.2,0.5
		c0,0.1,0.1,0.2,0.1,0.3c0,0.1,0,0.1,0,0.2C179,81.4,178.8,81.5,178.6,81.6z M172.6,65.8c0.4-0.2,0.8-0.4,1.1-0.7
		c0.3-0.3,0.5-0.7,0.7-1.1c0.1-0.4,0.2-0.9,0.2-1.5v-3.7h-1.1v3.7c0,0.4,0,0.8-0.1,1.1c-0.1,0.3-0.2,0.6-0.4,0.8
		c-0.2,0.2-0.4,0.3-0.7,0.4c-0.3,0.1-0.6,0.1-1.1,0.1h-0.8v1.1h0.8C171.6,66.1,172.1,66,172.6,65.8z M158,56.1l-1-1l-1,1l1,1
		L158,56.1z M114.2,65.6c0.2,0.1,0.4,0.2,0.6,0.3c0.2,0.1,0.4,0.1,0.6,0.1c0.2,0,0.4,0.1,0.6,0.1c0.2,0,0.4,0,0.6,0h2.7v-1.1h-2.7
		c-0.4,0-0.8,0-1.1-0.1c-0.3-0.1-0.6-0.2-0.9-0.3c-0.2-0.1-0.5-0.3-0.6-0.6c-0.2-0.3-0.3-0.6-0.3-1c0-0.1,0-0.3,0-0.4v-0.1
		c0-0.1,0-0.3,0.1-0.4c0.1-0.1,0.1-0.2,0.2-0.4c0.1-0.1,0.3-0.2,0.5-0.4c0.2-0.1,0.5-0.2,0.8-0.4c0.3-0.1,0.7-0.3,1.1-0.4
		c0.7-0.3,1.3-0.5,1.7-0.6c0.5-0.2,0.8-0.3,1.1-0.4c0.3-0.1,0.5-0.2,0.6-0.2c0.1,0,0.2-0.1,0.2-0.1l0-1l-2.2-0.9
		c-0.4-0.2-0.7-0.3-1-0.4c-0.3-0.1-0.5-0.2-0.7-0.3c-0.2-0.1-0.4-0.1-0.5-0.2c-0.1,0-0.2-0.1-0.3-0.1c-0.1,0-0.1,0-0.2,0
		c0,0-0.1,0-0.1,0c-1,0-1.6,0.6-1.9,1.7l1.1,0.3c0.1-0.2,0.1-0.4,0.2-0.5c0.1-0.1,0.1-0.2,0.2-0.3c0.1-0.1,0.1-0.1,0.2-0.1
		c0.1,0,0.1,0,0.2,0c0.1,0,0.2,0.1,0.5,0.1c0.2,0.1,0.5,0.2,0.8,0.3s0.7,0.2,1.1,0.4c0.4,0.1,0.8,0.3,1.1,0.4l-2.5,0.9
		c-0.6,0.2-1.2,0.4-1.6,0.7c-0.4,0.2-0.8,0.4-1.1,0.7c-0.3,0.3-0.5,0.6-0.6,0.9c-0.1,0.3-0.1,0.6-0.1,0.8c0,0.2,0,0.3,0,0.5
		C112.7,64.3,113.3,65.1,114.2,65.6z M166.8,106.6l0.9,0.8l0.8-0.8l-0.8-0.8L166.8,106.6z M119.7,75.9l0.1,0.8
		c0.5-0.6,1.1-0.9,2-0.9c0.8,0,1.5,0.3,2,0.9c0.5,0.6,0.7,1.5,0.7,2.6v0.1c0,1-0.2,1.9-0.7,2.5c-0.5,0.6-1.1,1-1.9,1
		c-0.8,0-1.5-0.3-2-0.8v3.3h-1.2v-9.5H119.7z M119.8,81c0.4,0.6,0.9,0.9,1.6,0.9c0.6,0,1-0.2,1.3-0.7c0.3-0.4,0.5-1.1,0.5-2
		c0-0.8-0.2-1.4-0.5-1.8c-0.3-0.5-0.8-0.7-1.4-0.7c-0.7,0-1.2,0.3-1.6,0.9V81z M131.7,94.4l1,1l1-1l-1-1L131.7,94.4z M167.8,104.8
		l0.9,1l1-1l-0.9-0.9L167.8,104.8z M133.7,76.8c0.2-0.3,0.6-0.6,1-0.8c0.4-0.2,0.9-0.3,1.4-0.3c0.8,0,1.4,0.2,1.9,0.6
		c0.4,0.4,0.7,0.9,0.7,1.6v3.2c0,0.6,0.1,1.1,0.2,1.5v0.1h-1.2c-0.1-0.1-0.1-0.4-0.2-0.7c-0.5,0.6-1.2,0.8-2,0.8
		c-0.7,0-1.2-0.2-1.7-0.6c-0.4-0.4-0.6-0.9-0.6-1.5c0-0.7,0.3-1.3,0.8-1.7c0.5-0.4,1.3-0.6,2.3-0.6h1.1v-0.5c0-0.4-0.1-0.7-0.4-1
		c-0.2-0.2-0.6-0.4-1.1-0.4c-0.4,0-0.8,0.1-1.1,0.3c-0.3,0.2-0.4,0.5-0.4,0.8h-1.2C133.3,77.5,133.4,77.1,133.7,76.8z M137.4,79.5
		h-0.9c-1.4,0-2.2,0.4-2.2,1.3c0,0.4,0.1,0.7,0.4,0.9c0.2,0.2,0.6,0.3,0.9,0.3c0.4,0,0.7-0.1,1-0.3c0.3-0.2,0.6-0.4,0.7-0.7V79.5z
		 M140.5,73v9.8h1.2V73H140.5z M137.9,94.7l4.8-2.1l-0.2-0.5L138,94L137.9,94.7z M81.1,55.8l-1-1l-0.9,1l0.9,0.9L81.1,55.8z
		 M90.4,81.1l-3-7.5h-1.6v9.2H87v-3.6l-0.1-3.9l3,7.5h0.9l3-7.5l-0.1,3.9v3.6H95v-9.2h-1.6L90.4,81.1z M102.5,94.4h-1.1v8.4h1.1
		V94.4z M104.9,75.3c0.4-0.6,1.1-0.9,1.8-0.9c0.6,0,1.1,0.2,1.5,0.5c0.4,0.3,0.6,0.9,0.7,1.6h1.2c-0.1-1-0.4-1.7-1-2.3
		c-0.6-0.5-1.4-0.8-2.4-0.8c-0.7,0-1.4,0.2-2,0.5c-0.6,0.3-1,0.9-1.3,1.5c-0.3,0.7-0.5,1.4-0.5,2.3v0.9c0,1.3,0.3,2.4,1,3.1
		c0.7,0.8,1.5,1.2,2.6,1.2c1,0,1.8-0.3,2.4-0.8c0.6-0.5,1-1.3,1.1-2.3h-1.2c-0.1,0.8-0.4,1.3-0.7,1.6c-0.4,0.3-0.9,0.5-1.6,0.5
		c-0.8,0-1.3-0.3-1.8-0.9c-0.4-0.6-0.6-1.4-0.6-2.4v-0.9C104.2,76.7,104.4,75.9,104.9,75.3z M105.4,102.5c0,0.4,0,0.8-0.1,1.1
		c-0.1,0.3-0.2,0.6-0.4,0.8c-0.2,0.2-0.4,0.3-0.7,0.4c-0.3,0.1-0.6,0.1-1.1,0.1h-0.8v1.1h0.8c0.6,0,1.1-0.1,1.5-0.2
		c0.4-0.2,0.8-0.4,1.1-0.7c0.3-0.3,0.5-0.7,0.7-1.1c0.1-0.4,0.2-0.9,0.2-1.5v-3.7h-1.1V102.5z M100.8,75.9l-1.6,5.1l-1.7-5.1h-1.3
		l2.4,6.8l-0.3,0.7c-0.1,0.4-0.3,0.7-0.5,0.9c-0.2,0.2-0.5,0.2-0.9,0.2l-0.3,0v1l0.4,0.1l0.2,0c0.9,0,1.6-0.6,2-1.7l2.8-7.9H100.8z
		 M92.1,99.6c0-0.2-0.1-0.4-0.1-0.6c0-0.2-0.1-0.3-0.1-0.5c0-0.2-0.1-0.3-0.1-0.4c0-0.1,0-0.2,0-0.2l-1.1,0.3c0,0.1,0,0.1,0.1,0.2
		c0,0.1,0,0.2,0.1,0.4c0,0.1,0.1,0.3,0.1,0.5c0,0.2,0.1,0.3,0.1,0.5c0,0.2,0,0.3,0.1,0.4c0,0.1,0,0.2,0,0.3c0,0.3,0,0.4-0.1,0.6
		c-0.1,0.1-0.2,0.2-0.3,0.3c-0.1,0.1-0.2,0.1-0.3,0.1c-0.1,0-0.2,0-0.3,0h-1.3h-0.3h-0.8c0,0-0.1,0-0.1,0c-0.1,0-0.1,0-0.2,0
		c-0.1,0-0.2,0-0.2-0.1c-0.1,0-0.2-0.1-0.2-0.2c-0.1-0.1-0.1-0.2-0.2-0.3c0-0.1-0.1-0.2-0.1-0.4v-2h-1.1v2c0,0.1,0,0.2,0,0.3
		c0,0.1-0.1,0.2-0.2,0.3s-0.2,0.2-0.4,0.2c-0.2,0.1-0.4,0.1-0.7,0.1h-1.8h-0.3h-1c0,0-0.1,0-0.2,0c-0.1,0-0.2,0-0.3-0.1
		c-0.1,0-0.2-0.1-0.3-0.2c-0.1-0.1-0.2-0.2-0.2-0.3c0.3-0.2,0.5-0.3,0.7-0.4c0.2-0.1,0.3-0.2,0.3-0.2l-0.1-1l-2.1-0.8
		c-0.4-0.2-0.7-0.3-1-0.4c-0.3-0.1-0.5-0.2-0.7-0.3c-0.2-0.1-0.4-0.1-0.5-0.2c-0.1,0-0.2-0.1-0.3-0.1c-0.1,0-0.1,0-0.2,0
		c0,0-0.1,0-0.1,0c-1,0-1.6,0.6-1.9,1.7l1.1,0.3c0.1-0.2,0.1-0.4,0.2-0.5c0.1-0.1,0.1-0.2,0.2-0.3c0.1-0.1,0.1-0.1,0.2-0.1
		c0.1,0,0.1,0,0.2,0c0.1,0,0.2,0.1,0.5,0.1c0.2,0.1,0.5,0.2,0.8,0.3c0.3,0.1,0.7,0.2,1,0.4c0.4,0.1,0.8,0.3,1.1,0.5
		c-0.3,0.2-0.6,0.3-1,0.5c-0.4,0.2-0.8,0.3-1.2,0.5c-0.4,0.2-0.9,0.3-1.3,0.4c-0.5,0.1-0.9,0.2-1.3,0.2h-1.4c-0.4,0-0.6,0-0.8-0.1
		c-0.2,0-0.3-0.1-0.4-0.2c-0.1-0.1-0.1-0.3-0.2-0.5c0-0.2,0-0.5,0-0.8v-5.7H71v5.7c0,0.3,0,0.6,0,0.8c0,0.3,0.1,0.5,0.1,0.7
		c0.1,0.2,0.2,0.4,0.3,0.5c0.1,0.2,0.3,0.3,0.4,0.4c0.2,0.1,0.4,0.2,0.7,0.2c0.2,0,0.5,0.1,0.8,0.1v0H75c0.4,0,0.8,0,1.2-0.1
		c0.4-0.1,0.8-0.2,1.1-0.3c0.4-0.1,0.7-0.2,1.1-0.4c0.3-0.1,0.7-0.3,1-0.4c0.1,0.3,0.3,0.5,0.5,0.7c0.2,0.2,0.4,0.3,0.7,0.4
		c0.3,0.1,0.5,0.1,0.8,0.1h1h0.3h1.8c0.8,0,1.4-0.2,1.8-0.6c0.2,0.2,0.4,0.4,0.7,0.5c0.3,0.1,0.6,0.2,0.9,0.2h0.8h0.3h1.3
		c0.3,0,0.5,0,0.7-0.1c0.2-0.1,0.5-0.2,0.7-0.4c0.2-0.2,0.4-0.4,0.5-0.7c0.1-0.3,0.2-0.6,0.2-1c0-0.1,0-0.3,0-0.5
		C92.1,100,92.1,99.8,92.1,99.6z M93.8,102.8h1.1v-8.4h-1.1V102.8z M87.9,96.4l-1-1l-0.9,1l0.9,0.9L87.9,96.4z M91.8,95.5l-1-1l-1,1
		l1,1L91.8,95.5z M143.2,93.3l-5.4,2.4l-0.1,1.3c0.1,0.1,0.2,0.2,0.4,0.3c0.2,0.1,0.3,0.3,0.5,0.5c0.2,0.2,0.4,0.4,0.6,0.6
		c0.2,0.2,0.4,0.4,0.6,0.7c0.2,0.2,0.4,0.4,0.6,0.7c0.2,0.2,0.3,0.4,0.4,0.6c0.1,0.2,0.2,0.4,0.2,0.5c0,0.1,0.1,0.2,0.1,0.3
		c0,0.1,0,0.1,0,0.2c-0.1,0.1-0.2,0.2-0.4,0.3c-0.2,0.1-0.4,0.1-0.7,0.1h-3.2h-0.2c-0.2,0-0.3,0-0.5-0.1c-0.2-0.1-0.3-0.2-0.4-0.4
		c-0.1-0.1-0.3-0.3-0.4-0.5c-0.1-0.2-0.2-0.4-0.4-0.5l-2.3-3.5l-0.9,0.6l2.2,3.4c0.1,0.1,0.2,0.3,0.2,0.4c0,0.1,0,0.2,0,0.2
		c0,0.1,0,0.1-0.1,0.1c0,0.1-0.1,0.2-0.3,0.2c-0.1,0.1-0.3,0.1-0.6,0.2c-0.2,0-0.4,0-0.5,0c-0.1,0-0.2,0-0.3,0c-0.2,0-0.3,0-0.5,0
		c-0.2,0-0.4-0.1-0.6-0.1c-0.2,0-0.4-0.1-0.5-0.2l-0.5-0.3l-0.6,1l0.5,0.3c0.1,0.1,0.3,0.2,0.5,0.2c0.2,0.1,0.4,0.1,0.6,0.1
		c0.2,0,0.4,0.1,0.6,0.1c0.2,0,0.4,0,0.6,0c0.2,0,0.3,0,0.5,0c0.2,0,0.3,0,0.4,0c0.7-0.1,1.3-0.4,1.6-0.8c0.5,0.5,1,0.7,1.6,0.7v0h0
		h0.2h3.2c0.4,0,0.7,0,0.9-0.1c0.2-0.1,0.4-0.2,0.6-0.3c0.2-0.1,0.3-0.2,0.4-0.3c0.1-0.1,0.2-0.2,0.2-0.3c0-0.1,0.1-0.2,0.1-0.3
		c0-0.1,0-0.2,0-0.3c0-0.1,0-0.1,0-0.1c0-0.1,0-0.2,0-0.4c0-0.2-0.1-0.3-0.1-0.5c-0.1-0.2-0.2-0.4-0.3-0.7c-0.2-0.2-0.3-0.5-0.5-0.7
		c-0.2-0.2-0.4-0.5-0.6-0.7c-0.2-0.2-0.4-0.5-0.7-0.7c-0.2-0.2-0.4-0.4-0.6-0.6c-0.2-0.2-0.3-0.3-0.5-0.4l4.7-2.1L143.2,93.3z
		 M129.9,82.4c0.3,0.3,0.7,0.5,1.2,0.5c0.3,0,0.6,0,0.9-0.1v-1c-0.2,0.1-0.4,0.1-0.6,0.1c-0.3,0-0.5-0.1-0.6-0.2
		c-0.1-0.1-0.2-0.3-0.2-0.6v-4.3h1.3v-0.9h-1.3v-1.7h-1.2v1.7h-1.2v0.9h1.2v4.3C129.5,81.7,129.7,82.1,129.9,82.4z M76.1,96.4l1-1
		l-1-1l-1,1L76.1,96.4z M126.1,62.8h-0.2h0c-0.4,0-0.7-0.1-1-0.2c0,0.5-0.1,1-0.2,1.5c-0.2,0.4-0.4,0.8-0.7,1.1
		c-0.3,0.3-0.7,0.5-1.1,0.7c-0.4,0.2-0.9,0.2-1.5,0.2h-0.8v-1.1h0.8c0.4,0,0.8,0,1.1-0.1c0.3-0.1,0.5-0.2,0.7-0.4
		c0.2-0.2,0.3-0.5,0.4-0.8c0.1-0.3,0.1-0.7,0.1-1.1v-3.7h1.1v2c0,0.2,0,0.4,0.1,0.5c0.1,0.1,0.2,0.2,0.3,0.3
		c0.1,0.1,0.2,0.1,0.3,0.1c0.1,0,0.2,0,0.2,0h0h0.2h1.1c0.1-0.2,0.2-0.3,0.3-0.5c0.1-0.2,0.2-0.3,0.3-0.5v-6.4h1.1v4.8
		c0.2-0.2,0.3-0.4,0.5-0.6c0.2-0.2,0.4-0.3,0.6-0.5c0.2-0.1,0.4-0.2,0.6-0.3c0.2-0.1,0.5-0.1,0.7-0.1c0.3,0,0.6,0.1,0.9,0.2
		c0.3,0.1,0.5,0.3,0.7,0.5c0.2,0.2,0.4,0.5,0.5,0.8c0.1,0.3,0.2,0.7,0.2,1.2c0,0.3,0,0.6-0.1,0.8c-0.1,0.2-0.2,0.4-0.3,0.6
		c-0.1,0.2-0.3,0.3-0.4,0.5c-0.2,0.1-0.3,0.2-0.5,0.3c-0.2,0.1-0.4,0.1-0.6,0.2c-0.2,0-0.4,0.1-0.6,0.1H126.1z M128.5,61.7h2.8
		c0,0,0.1,0,0.1,0c0.1,0,0.1,0,0.2,0c0.1,0,0.2,0,0.2-0.1c0.1,0,0.2-0.1,0.2-0.1c0.2-0.1,0.3-0.2,0.3-0.4c0.1-0.2,0.1-0.4,0.1-0.7
		c0-0.5-0.1-0.9-0.3-1.2c-0.2-0.3-0.5-0.4-0.9-0.4c-0.2,0-0.4,0-0.5,0.1c-0.2,0.1-0.3,0.2-0.5,0.3c-0.2,0.1-0.3,0.3-0.5,0.5
		c-0.2,0.2-0.3,0.4-0.5,0.6c-0.1,0.2-0.3,0.4-0.4,0.7C128.8,61.2,128.7,61.4,128.5,61.7C128.5,61.7,128.5,61.7,128.5,61.7z
		 M127.2,75.9h-1.2v6.9h1.2V75.9z M126.7,74.8c0.2,0,0.4-0.1,0.5-0.2c0.1-0.1,0.2-0.3,0.2-0.5c0-0.2-0.1-0.3-0.2-0.5
		c-0.1-0.1-0.3-0.2-0.5-0.2c-0.2,0-0.4,0.1-0.5,0.2c-0.1,0.1-0.2,0.3-0.2,0.5c0,0.2,0.1,0.3,0.2,0.5
		C126.3,74.7,126.4,74.8,126.7,74.8z M115.6,78.6v-0.5c0-0.4-0.1-0.7-0.4-1c-0.2-0.2-0.6-0.4-1.1-0.4c-0.4,0-0.8,0.1-1.1,0.3
		c-0.3,0.2-0.4,0.5-0.4,0.8h-1.2c0-0.3,0.1-0.7,0.4-1c0.2-0.3,0.6-0.6,1-0.8c0.4-0.2,0.9-0.3,1.4-0.3c0.8,0,1.4,0.2,1.9,0.6
		c0.4,0.4,0.7,0.9,0.7,1.6v3.2c0,0.6,0.1,1.1,0.2,1.5v0.1h-1.2c-0.1-0.1-0.1-0.4-0.2-0.7c-0.5,0.6-1.2,0.8-2,0.8
		c-0.7,0-1.2-0.2-1.7-0.6c-0.4-0.4-0.7-0.9-0.7-1.5c0-0.7,0.3-1.3,0.8-1.7c0.5-0.4,1.3-0.6,2.3-0.6H115.6z M115.6,79.5h-0.9
		c-1.4,0-2.2,0.4-2.2,1.3c0,0.4,0.1,0.7,0.4,0.9c0.2,0.2,0.6,0.3,0.9,0.3c0.4,0,0.7-0.1,1-0.3c0.3-0.2,0.6-0.4,0.7-0.7V79.5z
		 M124.3,102.5c0,0.4,0,0.8-0.1,1.1c-0.1,0.3-0.2,0.6-0.4,0.8c-0.2,0.2-0.4,0.3-0.7,0.4c-0.3,0.1-0.6,0.1-1.1,0.1h-0.8v1.1h0.8
		c0.6,0,1.1-0.1,1.5-0.2c0.4-0.2,0.8-0.4,1.1-0.7c0.3-0.3,0.5-0.7,0.7-1.1c0.1-0.4,0.2-0.9,0.2-1.5v-3.7h-1.1V102.5z M119,97.7
		c-0.5,0-0.9,0.1-1.3,0.3c-0.4,0.2-0.7,0.4-1,0.7c-0.3,0.3-0.5,0.6-0.7,1c-0.2,0.4-0.2,0.7-0.3,0.9c0,0.2,0,0.4,0,0.4
		c0,0.4,0.1,0.8,0.3,1.2c0.1,0,0.3,0.1,0.4,0.1c0.2,0,0.3,0.1,0.5,0.1c0.2,0,0.3,0.1,0.5,0.1c0.2,0,0.3,0.1,0.5,0.1
		c0.4,0.1,0.7,0.2,1.1,0.3c0,0.3,0,0.6-0.1,0.9c-0.1,0.2-0.2,0.4-0.4,0.6c-0.2,0.2-0.4,0.3-0.7,0.3c-0.3,0.1-0.6,0.1-1,0.1h-1.3
		c-0.4,0-0.8-0.1-1.1-0.3c-0.3-0.2-0.6-0.4-0.8-0.7c-0.1-0.2-0.2-0.5-0.3-0.7c-0.1-0.3-0.1-0.5-0.1-0.8c0-0.8,0.3-1.8,0.8-2.9
		c-0.2-0.1-0.3-0.2-0.5-0.2c-0.2-0.1-0.3-0.2-0.5-0.2c-0.3,0.6-0.5,1.2-0.7,1.8c-0.2,0.6-0.2,1.1-0.2,1.6c0,0.4,0,0.8,0.1,1.1
		c0.1,0.4,0.2,0.7,0.4,1c0.2,0.2,0.3,0.4,0.6,0.6c0.2,0.2,0.4,0.3,0.7,0.5c0.2,0.1,0.5,0.2,0.8,0.3c0.3,0.1,0.6,0.1,0.9,0.1h1.3
		c0.6,0,1.1-0.1,1.5-0.2c0.4-0.1,0.8-0.3,1-0.6c0.3-0.3,0.5-0.6,0.6-1c0.1-0.4,0.2-0.8,0.2-1.4c0-0.3-0.1-0.5-0.2-0.7
		c-0.2-0.2-0.4-0.3-0.7-0.4l-2.3-0.6c0-0.1,0-0.2,0-0.3c0-0.2,0-0.3,0.1-0.5c0.1-0.3,0.2-0.5,0.3-0.7c0.2-0.2,0.3-0.4,0.6-0.5
		c0.2-0.1,0.5-0.3,0.7-0.3c0.3-0.1,0.5-0.1,0.8-0.1c0.3,0,0.5,0,0.8,0.1l0.3-1.1c-0.4-0.1-0.8-0.2-1.1-0.2
		C119.2,97.6,119.1,97.6,119,97.7z M57.7,64.1L56.7,65l0.9,1l1-1L57.7,64.1z M36,105.1l0.9,1l1-1l-0.9-0.9L36,105.1z M52.2,83.9
		l-1,1l1,1l1-1L52.2,83.9z M38.3,105.1l0.9,1l1-1l-0.9-0.9L38.3,105.1z M52.8,93.3l-5.4,2.4l-0.1,1.3c0.1,0.1,0.2,0.2,0.4,0.3
		c0.2,0.1,0.3,0.3,0.5,0.5c0.2,0.2,0.4,0.4,0.6,0.6c0.2,0.2,0.4,0.4,0.6,0.7c0.2,0.2,0.4,0.4,0.6,0.7c0.2,0.2,0.3,0.4,0.5,0.6
		c0.1,0.2,0.2,0.4,0.2,0.5c0,0.1,0.1,0.2,0.1,0.3c0,0.1,0,0.1,0,0.2c-0.1,0.1-0.2,0.2-0.4,0.3c-0.2,0.1-0.4,0.1-0.7,0.1h-3.2h-0.3
		h-0.2c0,0-0.1,0-0.1,0c-0.1,0-0.1,0-0.2,0c-0.1,0-0.2,0-0.2-0.1c-0.1,0-0.2-0.1-0.2-0.2c-0.1-0.1-0.1-0.2-0.2-0.3
		c0-0.1-0.1-0.2-0.1-0.4v-2h-1.1v2c0,0.1,0,0.2,0,0.3c0,0.1-0.1,0.2-0.2,0.3c-0.1,0.1-0.2,0.2-0.4,0.2c-0.2,0.1-0.4,0.1-0.7,0.1
		h-0.9h-0.3h-0.8c0,0-0.1,0-0.1,0c-0.1,0-0.1,0-0.2,0c-0.1,0-0.2,0-0.2-0.1c-0.1,0-0.2-0.1-0.2-0.2c-0.1-0.1-0.1-0.2-0.2-0.3
		c0-0.1-0.1-0.2-0.1-0.4v-2h-1.1v2c0,0.1,0,0.2,0,0.3c0,0.1-0.1,0.2-0.2,0.3c-0.1,0.1-0.2,0.2-0.4,0.2c-0.2,0.1-0.4,0.1-0.7,0.1
		h-1.7h-0.2c-0.2,0-0.3,0-0.5-0.1c-0.1-0.1-0.3-0.2-0.4-0.4c-0.1-0.1-0.3-0.3-0.4-0.5c-0.1-0.2-0.2-0.4-0.4-0.5l-2.3-3.5l-0.9,0.6
		l2.2,3.4c0.1,0.1,0.2,0.3,0.2,0.4c0,0.1,0,0.2,0,0.2c0,0.1,0,0.1-0.1,0.1c0,0.1-0.1,0.2-0.3,0.2c-0.1,0.1-0.3,0.1-0.6,0.2
		c-0.2,0-0.4,0-0.5,0c-0.1,0-0.2,0-0.3,0c-0.2,0-0.3,0-0.5,0c-0.2,0-0.4-0.1-0.6-0.1c-0.2,0-0.4-0.1-0.5-0.2l-0.5-0.3l-0.6,1
		l0.5,0.3c0.1,0.1,0.3,0.2,0.5,0.2c0.2,0.1,0.4,0.1,0.6,0.1c0.2,0,0.4,0.1,0.6,0.1c0.2,0,0.4,0,0.6,0c0.2,0,0.3,0,0.5,0
		c0.2,0,0.3,0,0.4,0c0.7-0.1,1.3-0.4,1.6-0.8c0.5,0.5,1,0.7,1.6,0.7v0h0h0.2h1.7c0.8,0,1.4-0.2,1.8-0.6c0.2,0.2,0.4,0.4,0.7,0.5
		c0.3,0.1,0.6,0.2,0.9,0.2h0.8h0.3h0.9c0.8,0,1.4-0.2,1.8-0.6c0.2,0.2,0.4,0.4,0.7,0.5c0.3,0.1,0.6,0.2,0.9,0.2h0.2h0.3h3.2
		c0.4,0,0.7,0,0.9-0.1c0.2-0.1,0.4-0.2,0.6-0.3c0.2-0.1,0.3-0.2,0.4-0.3c0.1-0.1,0.2-0.2,0.2-0.3c0-0.1,0.1-0.2,0.1-0.3
		c0-0.1,0-0.2,0-0.3c0-0.1,0-0.1,0-0.1c0-0.1,0-0.2,0-0.4c0-0.2-0.1-0.3-0.1-0.5c-0.1-0.2-0.2-0.4-0.3-0.7c-0.2-0.2-0.3-0.5-0.5-0.7
		c-0.2-0.2-0.4-0.5-0.6-0.7c-0.2-0.2-0.4-0.5-0.7-0.7c-0.2-0.2-0.4-0.4-0.6-0.6c-0.2-0.2-0.3-0.3-0.5-0.4l4.7-2.1L52.8,93.3z
		 M29.2,82.1c0.2,0.2,0.4,0.4,0.7,0.5c0.3,0.1,0.6,0.2,1,0.2c0.2,0,0.5-0.1,0.7-0.1c0.2-0.1,0.5-0.2,0.7-0.4
		c0.2-0.2,0.3-0.4,0.5-0.7c0.1-0.3,0.2-0.6,0.2-1c0-0.1,0-0.3,0-0.5c0-0.2,0-0.3-0.1-0.5c0-0.2-0.1-0.4-0.1-0.5
		c0-0.2-0.1-0.3-0.1-0.5c0-0.1-0.1-0.3-0.1-0.4c0-0.1,0-0.2,0-0.2l-1.1,0.3c0,0.1,0,0.1,0.1,0.2c0,0.1,0,0.2,0.1,0.4
		c0,0.1,0.1,0.3,0.1,0.4c0,0.2,0.1,0.3,0.1,0.5c0,0.1,0,0.3,0,0.4c0,0.1,0,0.2,0,0.3c0,0.2,0,0.4-0.1,0.6c-0.1,0.1-0.2,0.3-0.3,0.3
		c-0.1,0.1-0.2,0.1-0.3,0.2c-0.1,0-0.2,0-0.3,0c-0.4,0-0.7-0.1-0.9-0.3c-0.2-0.2-0.3-0.4-0.3-0.8v-1.8h-1.1v1.8c0,0.2,0,0.4-0.1,0.5
		c-0.1,0.1-0.2,0.3-0.3,0.3c-0.1,0.1-0.2,0.1-0.4,0.2c-0.1,0-0.2,0.1-0.3,0.1c-0.2,0-0.3,0-0.5-0.1c-0.2,0-0.3-0.1-0.4-0.2
		c-0.1-0.1-0.2-0.3-0.3-0.5c-0.1-0.2-0.1-0.5-0.1-0.9v-1.2h-1.1v4.2c0,0.3,0,0.6-0.1,0.8c-0.1,0.2-0.2,0.5-0.3,0.6
		c-0.2,0.2-0.4,0.3-0.7,0.4c-0.3,0.1-0.7,0.1-1.1,0.1h-1.4c-0.4,0-0.8-0.1-1.1-0.3c-0.3-0.2-0.6-0.4-0.8-0.7
		c-0.2-0.3-0.3-0.5-0.3-0.8c-0.1-0.3-0.1-0.5-0.1-0.8c0-0.1,0-0.2,0-0.4c0-0.4,0.1-0.8,0.2-1.2c0.1-0.4,0.3-0.9,0.5-1.3l-1-0.5
		c-0.3,0.5-0.5,1.1-0.6,1.6c-0.1,0.5-0.2,0.9-0.2,1.2c0,0.3,0,0.5,0,0.6c0,0.3,0,0.7,0.1,1c0.1,0.4,0.2,0.8,0.5,1.1
		c0.3,0.5,0.7,0.9,1.2,1.1c0.5,0.3,1,0.4,1.7,0.4H23c1.1,0,1.9-0.3,2.5-0.8c0.5-0.5,0.8-1.3,0.8-2.3v-0.5c0.4,0.2,0.8,0.3,1.3,0.3
		c0.1,0,0.3,0,0.4,0c0.1,0,0.3-0.1,0.4-0.1c0.1-0.1,0.3-0.1,0.4-0.2C29,82.3,29.1,82.2,29.2,82.1z M15.7,62.7
		c0.2-0.1,0.5-0.2,0.7-0.4c0.2-0.2,0.4-0.4,0.5-0.7c0.1-0.3,0.2-0.6,0.2-1c0-0.1,0-0.3,0-0.5c0-0.2,0-0.4-0.1-0.5
		c0-0.2-0.1-0.4-0.1-0.6c0-0.2-0.1-0.3-0.1-0.5c0-0.2-0.1-0.3-0.1-0.4c0-0.1,0-0.2,0-0.2l-1.1,0.3c0,0.1,0,0.1,0.1,0.2
		c0,0.1,0,0.2,0.1,0.4c0,0.1,0.1,0.3,0.1,0.5c0,0.2,0.1,0.3,0.1,0.5c0,0.2,0,0.3,0.1,0.4c0,0.1,0,0.2,0,0.3c0,0.3,0,0.4-0.1,0.6
		c-0.1,0.1-0.2,0.2-0.3,0.3c-0.1,0.1-0.2,0.1-0.3,0.1c-0.1,0-0.2,0-0.3,0h-2.2h-0.2h-0.2c0,0-0.1,0-0.1,0c-0.1,0-0.1,0-0.2,0
		c-0.1,0-0.2,0-0.2-0.1c-0.1,0-0.2-0.1-0.2-0.2c-0.1-0.1-0.1-0.2-0.2-0.3c0-0.1-0.1-0.2-0.1-0.4v-2h-1.1v2c0,0.1,0,0.2,0,0.3
		c0,0.1-0.1,0.2-0.2,0.3c-0.1,0.1-0.2,0.2-0.4,0.2c-0.2,0.1-0.4,0.1-0.7,0.1H7.9H7.7c-0.2,0-0.3,0-0.4-0.1c-0.1,0-0.2-0.1-0.3-0.2
		c-0.1-0.1-0.2-0.2-0.2-0.3c-0.1-0.1-0.1-0.3-0.1-0.4v-6.3H5.6v8.6c0,0.3,0,0.6-0.1,0.8c-0.1,0.2-0.2,0.5-0.3,0.6
		c-0.2,0.2-0.4,0.3-0.7,0.4c-0.3,0.1-0.7,0.1-1.1,0.1H3c-0.3,0-0.6-0.1-0.9-0.2c-0.3-0.1-0.5-0.3-0.7-0.6c-0.1-0.2-0.2-0.4-0.3-0.6
		c0-0.2-0.1-0.4-0.1-0.6c0-0.1,0-0.2,0-0.3c0-0.3,0.1-0.6,0.2-1c0.1-0.3,0.2-0.7,0.4-1.1l-1-0.5c-0.3,0.6-0.5,1.2-0.6,1.6
		C0,62.1,0,62.5,0,62.9c0,0.1,0,0.1,0,0.2c0,0.4,0.1,0.7,0.2,1c0.1,0.3,0.2,0.5,0.3,0.7c0.3,0.4,0.6,0.7,1,1C2,65.9,2.4,66,3,66h0.4
		c2.2,0,3.3-1,3.3-3.1v-0.4c0.3,0.2,0.6,0.2,1,0.3v0h0h0.2h0.9c0.8,0,1.4-0.2,1.8-0.6c0.2,0.2,0.4,0.4,0.7,0.5
		c0.3,0.1,0.6,0.2,0.9,0.2h0.2h0.2h2.2C15.2,62.8,15.4,62.7,15.7,62.7z M15.5,64.9l0.9,1l1-1l-0.9-0.9L15.5,64.9z M14.1,63.9
		l-0.9,0.9l0.9,1l1-1L14.1,63.9z M14.5,66.6l0.9,0.8l0.8-0.8l-0.8-0.8L14.5,66.6z M53.6,80.1c0,0.2,0,0.3,0,0.5c0,0.4-0.1,0.7-0.2,1
		c-0.1,0.3-0.3,0.5-0.5,0.7c-0.2,0.2-0.4,0.3-0.7,0.4c-0.2,0.1-0.5,0.1-0.7,0.1h-1.3H50h-0.7c0,0.6-0.1,1-0.2,1.4
		c-0.2,0.4-0.4,0.7-0.8,1c-0.3,0.3-0.8,0.5-1.3,0.6C46.6,86,45.9,86,45.2,86v-1.1c0.6,0,1.1,0,1.5-0.1c0.4-0.1,0.7-0.2,1-0.4
		c0.2-0.2,0.4-0.4,0.5-0.6c0.1-0.3,0.1-0.6,0.1-1h-1.1c-0.3,0-0.6,0-0.8-0.1c-0.3-0.1-0.5-0.2-0.8-0.4c-0.2-0.2-0.4-0.4-0.6-0.7
		c-0.1-0.3-0.2-0.7-0.2-1.1c0-0.3,0-0.5,0.1-0.7c0-0.2,0.1-0.4,0.2-0.6c0.1-0.2,0.1-0.3,0.2-0.4c0.1-0.1,0.2-0.2,0.2-0.3
		c0.2-0.2,0.5-0.4,0.7-0.5c0.3-0.1,0.6-0.2,0.9-0.2c0.3,0,0.5,0,0.8,0.1c0.2,0.1,0.5,0.2,0.7,0.4c0.5,0.5,0.8,1.3,0.8,2.3v1.1H50
		h0.2h1.3c0.1,0,0.1,0,0.3,0c0.1,0,0.2-0.1,0.3-0.1c0.1-0.1,0.2-0.2,0.3-0.3c0.1-0.1,0.1-0.3,0.1-0.6c0-0.1,0-0.2,0-0.3
		c0-0.1,0-0.3-0.1-0.4c0-0.2,0-0.3-0.1-0.5c0-0.2-0.1-0.3-0.1-0.5c0-0.1-0.1-0.3-0.1-0.4c0-0.1,0-0.2-0.1-0.2l1.1-0.3
		c0,0,0,0.1,0,0.2c0,0.1,0,0.2,0.1,0.4c0,0.2,0.1,0.3,0.1,0.5c0,0.2,0.1,0.4,0.1,0.6C53.6,79.8,53.6,80,53.6,80.1z M48.2,80.5
		c0-0.3,0-0.5-0.1-0.7c0-0.2-0.1-0.4-0.2-0.5c-0.1-0.1-0.1-0.2-0.2-0.3c-0.1-0.1-0.2-0.1-0.2-0.2c-0.1,0-0.2,0-0.2-0.1
		c-0.1,0-0.1,0-0.2,0c-0.4,0-0.7,0.1-0.9,0.4c-0.2,0.3-0.3,0.7-0.3,1.2c0,0.5,0.2,0.9,0.5,1.1c0.1,0,0.2,0.1,0.2,0.1
		c0.1,0,0.2,0.1,0.2,0.1c0.1,0,0.1,0,0.2,0c0.1,0,0.1,0,0.2,0h1.1V80.5z M69.4,99.3c0-0.1,0-0.3-0.1-0.4c0-0.1-0.1-0.3-0.1-0.5
		l-1.1,0.2c0,0.2,0.1,0.3,0.1,0.5c0,0.1,0,0.3,0.1,0.4c0,0.1,0,0.2,0.1,0.3c0,0.1,0,0.2,0,0.3c0,0.1,0,0.2,0,0.3c0,0.1,0,0.1,0,0.2
		v0.1c0,0.3-0.1,0.6-0.3,0.7c-0.1,0.1-0.2,0.2-0.3,0.2c-0.1,0.1-0.3,0.1-0.4,0.1H60c-0.1,0-0.1,0-0.3,0c-0.1,0-0.2-0.1-0.3-0.1
		c-0.1-0.1-0.2-0.2-0.3-0.3c-0.1-0.2-0.1-0.4-0.1-0.6c0-0.1,0-0.3,0-0.5c0-0.2,0.1-0.3,0.1-0.5c0-0.2,0.1-0.3,0.1-0.5
		c0-0.2,0.1-0.3,0.1-0.4l-1.1-0.3c0,0,0,0.1-0.1,0.3c0,0.2-0.1,0.3-0.1,0.5c0,0.2-0.1,0.4-0.1,0.7c0,0.2-0.1,0.5-0.1,0.7
		c0,0.2,0,0.4,0.1,0.6c0,0.2,0.1,0.3,0.2,0.5c0.1,0.1,0.1,0.3,0.2,0.4c0.1,0.1,0.2,0.2,0.2,0.3c0.2,0.2,0.4,0.3,0.7,0.4
		c0.2,0.1,0.5,0.1,0.8,0.1h7.4c0.3,0,0.6-0.1,0.8-0.2c0.3-0.1,0.5-0.3,0.7-0.5c0.1-0.1,0.1-0.2,0.2-0.3c0.1-0.1,0.1-0.2,0.2-0.4
		c0.1-0.1,0.1-0.3,0.1-0.4c0-0.2,0-0.3,0-0.5v-0.1c0-0.1,0-0.3-0.1-0.5C69.4,99.8,69.4,99.6,69.4,99.3z M62.6,104.8l1,1l1-1l-1-1
		L62.6,104.8z M144.6,59.7c0.2-0.2,0.3-0.4,0.6-0.5c0.2-0.1,0.5-0.3,0.7-0.3c0.3-0.1,0.5-0.1,0.8-0.1c0.3,0,0.5,0,0.8,0.1l0.3-1.1
		c-0.4-0.1-0.8-0.2-1.1-0.2c-0.1,0-0.2,0-0.3,0c-0.5,0-0.9,0.1-1.3,0.3c-0.4,0.2-0.7,0.4-1,0.7c-0.3,0.3-0.5,0.6-0.7,1
		c-0.2,0.4-0.2,0.7-0.2,0.9c0,0.2,0,0.4,0,0.4c0,0.4,0.1,0.8,0.3,1.2c0.1,0,0.3,0.1,0.4,0.1c0.2,0,0.3,0.1,0.5,0.1
		c0.2,0,0.3,0.1,0.5,0.1c0.2,0,0.3,0.1,0.5,0.1c0.4,0.1,0.7,0.2,1.1,0.3c0,0.3,0,0.6-0.1,0.9c-0.1,0.2-0.2,0.4-0.4,0.6
		c-0.2,0.2-0.4,0.3-0.7,0.3c-0.3,0.1-0.6,0.1-1,0.1h-1.3c-0.4,0-0.8-0.1-1.1-0.3c-0.3-0.2-0.6-0.4-0.8-0.7c-0.1-0.2-0.2-0.5-0.3-0.7
		c-0.1-0.3-0.1-0.5-0.1-0.8c0-0.8,0.3-1.8,0.8-2.9c-0.2-0.1-0.3-0.2-0.5-0.2c-0.2-0.1-0.3-0.2-0.5-0.2c-0.3,0.6-0.5,1.2-0.7,1.8
		c-0.2,0.6-0.2,1.1-0.2,1.6c0,0.4,0,0.8,0.1,1.1c0.1,0.4,0.2,0.7,0.4,1c0.2,0.2,0.3,0.4,0.5,0.6c0.2,0.2,0.4,0.3,0.7,0.5
		c0.2,0.1,0.5,0.2,0.8,0.3c0.3,0.1,0.6,0.1,0.9,0.1h1.3c0.6,0,1.1-0.1,1.5-0.2c0.4-0.1,0.8-0.3,1-0.6c0.3-0.3,0.5-0.6,0.6-1
		c0.1-0.4,0.2-0.8,0.2-1.4c0-0.3-0.1-0.5-0.2-0.7c-0.2-0.2-0.4-0.3-0.7-0.4l-2.3-0.6c0-0.1,0-0.2,0-0.3c0-0.2,0-0.3,0.1-0.5
		C144.3,60.2,144.4,59.9,144.6,59.7z M11.2,56.1l-1-1l-1,1l1,1L11.2,56.1z M54.5,65l0.9,1l1-1l-0.9-0.9L54.5,65z M71.1,82.6
		c0,0.6-0.1,1-0.2,1.5c-0.2,0.4-0.4,0.8-0.7,1.1c-0.3,0.3-0.7,0.5-1.1,0.7c-0.4,0.2-0.9,0.2-1.5,0.2h-0.8v-1.1h0.8
		c0.4,0,0.8,0,1.1-0.1c0.3-0.1,0.5-0.2,0.7-0.4c0.2-0.2,0.3-0.5,0.4-0.8c0.1-0.3,0.1-0.7,0.1-1.1v-3.7h1.1v2c0,0.2,0,0.4,0.1,0.5
		c0.1,0.1,0.2,0.2,0.3,0.3c0.1,0.1,0.2,0.1,0.4,0.1c0.1,0,0.2,0,0.2,0h0h0.2h1.1c0.1-0.1,0.2-0.3,0.3-0.5c0.1-0.2,0.2-0.3,0.3-0.5
		v-6.4h1.1v4.8c0.2-0.2,0.3-0.4,0.5-0.6c0.2-0.2,0.4-0.3,0.6-0.5c0.2-0.1,0.4-0.2,0.6-0.3c0.2-0.1,0.5-0.1,0.7-0.1
		c0.3,0,0.6,0.1,0.9,0.2c0.3,0.1,0.5,0.3,0.7,0.5c0.2,0.2,0.4,0.5,0.5,0.8c0.1,0.3,0.2,0.7,0.2,1.2c0,0.3,0,0.6-0.1,0.8
		c-0.1,0.2-0.2,0.4-0.3,0.6c-0.1,0.2-0.3,0.3-0.4,0.5c-0.2,0.1-0.3,0.2-0.5,0.3c-0.2,0.1-0.4,0.1-0.6,0.2c-0.2,0-0.4,0.1-0.6,0.1
		h-5.2h-0.2h0C71.7,82.8,71.4,82.7,71.1,82.6z M74.8,81.7h2.8c0,0,0.1,0,0.1,0c0.1,0,0.1,0,0.2,0c0.1,0,0.2,0,0.2-0.1
		c0.1,0,0.2-0.1,0.2-0.1c0.2-0.1,0.3-0.2,0.3-0.4c0.1-0.2,0.1-0.4,0.1-0.7c0-0.5-0.1-0.9-0.3-1.2c-0.2-0.3-0.5-0.4-0.9-0.4
		c-0.2,0-0.4,0-0.5,0.1s-0.3,0.2-0.5,0.3c-0.2,0.1-0.3,0.3-0.5,0.5c-0.2,0.2-0.3,0.4-0.5,0.6c-0.1,0.2-0.3,0.4-0.4,0.6
		C75,81.2,74.9,81.4,74.8,81.7C74.8,81.7,74.8,81.7,74.8,81.7z M57.2,62.7c-0.2,0.1-0.5,0.1-0.8,0.1h-2.2H54h-0.4
		c-1,0-1.9-0.1-2.5-0.3c-0.3,0.1-0.7,0.2-1.2,0.2c-0.5,0-1,0.1-1.5,0.1h-0.5h-0.2h-1.4c0.2,0.3,0.3,0.6,0.3,0.9l0,0.1
		c0,0.3-0.1,0.5-0.2,0.7c-0.1,0.2-0.3,0.4-0.5,0.6c-0.2,0.2-0.5,0.4-0.8,0.5c-0.3,0.1-0.6,0.2-1,0.3C43.7,66,43.3,66,42.9,66h-1.7
		c-0.6,0-1.2-0.1-1.7-0.4c-0.5-0.3-0.9-0.6-1.2-1.1c-0.2-0.3-0.4-0.7-0.5-1.1c-0.1-0.3-0.1-0.7-0.1-1c0-0.1,0-0.3,0-0.6
		c0-0.3,0.1-0.7,0.2-1.2s0.4-1,0.6-1.6l1,0.5c-0.4,0.9-0.7,1.8-0.8,2.5c0,0.1,0,0.2,0,0.4c0,0.6,0.1,1.1,0.4,1.5
		c0.2,0.3,0.5,0.6,0.8,0.7c0.3,0.2,0.7,0.3,1.1,0.3h1.7c0.2,0,0.4,0,0.7-0.1c0.2,0,0.4-0.1,0.6-0.1c0.2-0.1,0.3-0.1,0.5-0.2
		c0.2-0.1,0.3-0.2,0.4-0.3c0.1-0.1,0.2-0.2,0.2-0.3c0-0.1,0-0.1,0-0.2c0-0.1,0-0.1,0-0.2c0-0.2-0.2-0.3-0.3-0.4
		c-0.2-0.1-0.4-0.2-0.6-0.2c-0.2-0.1-0.5-0.1-0.8-0.1c-0.3,0-0.6,0-0.8,0l0-1.1h4.9h0.2h0.5c0.4,0,0.8,0,1.2,0
		c-0.2-0.2-0.4-0.5-0.5-0.8c-0.1-0.3-0.2-0.7-0.2-1c0-0.3,0.1-0.6,0.2-0.8c0.1-0.3,0.3-0.5,0.5-0.7c0.2-0.2,0.5-0.3,0.7-0.5
		c0.3-0.1,0.6-0.2,0.9-0.2c0.3,0,0.6,0.1,0.9,0.2c0.3,0.1,0.5,0.3,0.7,0.5c0.2,0.2,0.3,0.4,0.4,0.7c0.1,0.3,0.1,0.5,0.1,0.8
		c0,0.4-0.1,0.7-0.2,1c-0.1,0.3-0.3,0.6-0.5,0.8c0.3,0,0.6,0,1,0H54h0.2h2.2c0.1,0,0.1,0,0.3,0c0.1,0,0.2-0.1,0.3-0.1
		c0.1-0.1,0.2-0.2,0.3-0.3c0.1-0.1,0.1-0.3,0.1-0.6c0-0.1,0-0.2,0-0.3c0-0.1,0-0.3-0.1-0.4c0-0.2,0-0.3-0.1-0.5
		c0-0.2-0.1-0.3-0.1-0.5c0-0.1-0.1-0.3-0.1-0.4c0-0.1,0-0.2-0.1-0.2l1.1-0.3c0,0,0,0.1,0,0.2c0,0.1,0,0.2,0.1,0.4
		c0,0.2,0.1,0.3,0.1,0.5c0,0.2,0.1,0.4,0.1,0.6c0,0.2,0.1,0.4,0.1,0.5c0,0.2,0,0.3,0,0.5c0,0.4-0.1,0.7-0.2,1
		c-0.1,0.3-0.3,0.5-0.5,0.7C57.7,62.4,57.5,62.6,57.2,62.7z M52.2,59.8c0-0.1,0-0.2-0.1-0.4c-0.1-0.1-0.1-0.2-0.2-0.3
		c-0.1-0.1-0.2-0.2-0.4-0.2c-0.1-0.1-0.3-0.1-0.4-0.1c-0.2,0-0.3,0-0.5,0.1c-0.2,0.1-0.3,0.1-0.4,0.2c-0.1,0.1-0.2,0.2-0.3,0.3
		c-0.1,0.1-0.1,0.2-0.1,0.4v0.1c0,0.2,0,0.3,0.1,0.5c0.1,0.2,0.1,0.3,0.2,0.4c0.1,0.1,0.2,0.2,0.4,0.3c0.2,0.1,0.3,0.2,0.5,0.2
		c0.2-0.1,0.3-0.1,0.5-0.2c0.1-0.1,0.3-0.2,0.4-0.3c0.1-0.1,0.2-0.3,0.2-0.4C52.2,60.2,52.2,60,52.2,59.8z M153.3,99.9
		c0.1,0.2,0.1,0.4,0.1,0.7v0c0,0.3-0.1,0.6-0.2,0.9c-0.1,0.3-0.3,0.5-0.5,0.7c-0.2,0.2-0.5,0.3-0.8,0.4s-0.6,0.2-0.9,0.2
		c-0.4,0-0.7-0.1-1-0.2c-0.3-0.1-0.6-0.3-0.8-0.4c-0.2-0.2-0.4-0.4-0.5-0.7c-0.1-0.3-0.2-0.5-0.2-0.9c0-0.4,0.1-0.7,0.2-1
		c0.1-0.3,0.2-0.6,0.4-0.8c0.2-0.2,0.3-0.5,0.5-0.7c0.2-0.2,0.4-0.4,0.6-0.6l-0.4-0.4l0.8-0.8c0.2,0.2,0.4,0.5,0.6,0.7
		c0.2,0.2,0.4,0.5,0.6,0.7c0.2,0.2,0.4,0.5,0.6,0.7c0.2,0.2,0.3,0.5,0.5,0.7C153.1,99.4,153.2,99.6,153.3,99.9z M152.3,100.6
		c0-0.2,0-0.4-0.1-0.6c-0.1-0.2-0.2-0.4-0.3-0.6c-0.1-0.2-0.3-0.4-0.5-0.5c-0.2-0.2-0.3-0.4-0.5-0.5c-0.2,0.2-0.3,0.3-0.4,0.5
		s-0.3,0.3-0.4,0.5c-0.1,0.2-0.2,0.4-0.3,0.6c-0.1,0.2-0.1,0.4-0.1,0.7c0,0.2,0,0.3,0.1,0.5c0.1,0.1,0.2,0.2,0.3,0.3
		c0.1,0.1,0.3,0.2,0.4,0.2c0.2,0,0.3,0.1,0.5,0.1c0.2,0,0.4,0,0.5-0.1s0.3-0.1,0.4-0.2c0.1-0.1,0.2-0.2,0.3-0.3
		C152.3,100.9,152.3,100.7,152.3,100.6z"/>
</g>
</svg>
