<svg id="Layer_1" data-name="Layer 1" xmlns="http://www.w3.org/2000/svg" viewBox="0 0 285.03 13.01"><defs><style>.cls-1{fill:#7877ac;}</style></defs><path class="cls-1" d="M284.48,2.74A4.29,4.29,0,0,0,283,1a3.7,3.7,0,0,0-2.07-.63,3.74,3.74,0,0,0-2.09.63,4.29,4.29,0,0,0-1.5,1.73,5.33,5.33,0,0,0-.54,2.38,5.39,5.39,0,0,0,.52,2.36,4.4,4.4,0,0,0,1.5,1.75,3.7,3.7,0,0,0,2.11.65A3.66,3.66,0,0,0,283,9.22a4.31,4.31,0,0,0,1.48-1.76A5.28,5.28,0,0,0,285,5.12,5.2,5.2,0,0,0,284.48,2.74Zm-.43,4.49a3.92,3.92,0,0,1-1.33,1.54,3.17,3.17,0,0,1-1.81.56,3.25,3.25,0,0,1-1.84-.57,3.78,3.78,0,0,1-1.33-1.54,4.85,4.85,0,0,1-.47-2.1,4.71,4.71,0,0,1,.46-2.07,3.76,3.76,0,0,1,1.33-1.54,3.22,3.22,0,0,1,3.66,0A3.88,3.88,0,0,1,284.05,3a4.69,4.69,0,0,1,.48,2.1A4.7,4.7,0,0,1,284.05,7.23ZM40.43,1.32h.68V9.75h-.68ZM52.36,4.89a1.66,1.66,0,0,0-.87-.22,2.52,2.52,0,0,0-1.92,1.21,4,4,0,0,0-.29.39L49,6.68V1.32h-.66V7.86l-.13.25c-.09.17-.17.33-.26.48L47.72,9H46.44v.73h4.9a2.3,2.3,0,0,0,.32-.05,2.33,2.33,0,0,0,.39-.11,2.22,2.22,0,0,0,.41-.2,2.39,2.39,0,0,0,.33-.25,1.47,1.47,0,0,0,.31-.38,2,2,0,0,0,.23-.54,2.43,2.43,0,0,0,.09-.7,3.83,3.83,0,0,0-.44-2A1.6,1.6,0,0,0,52.36,4.89Zm.29,3.23a1.18,1.18,0,0,1-.6.68,2.21,2.21,0,0,1-.37.15L51.35,9H48.5l.29-.55.38-.7c.13-.24.27-.48.41-.7s.28-.45.43-.65a4.12,4.12,0,0,1,.47-.53A2.28,2.28,0,0,1,51,5.53a1.11,1.11,0,0,1,.52-.13,1,1,0,0,1,.94.5,3.16,3.16,0,0,1,.32,1.61A1.53,1.53,0,0,1,52.65,8.12Zm208.19,1h4.45v.64H260V9.16l2.9-3.59a8,8,0,0,0,1-1.49,2.68,2.68,0,0,0,.29-1.16,2,2,0,0,0-.47-1.38A1.69,1.69,0,0,0,262.4,1a1.76,1.76,0,0,0-1.38.59,2.23,2.23,0,0,0-.53,1.55h-.69a3.06,3.06,0,0,1,.32-1.42,2.43,2.43,0,0,1,.92-1A2.56,2.56,0,0,1,262.4.38a2.43,2.43,0,0,1,1.82.67,2.48,2.48,0,0,1,.65,1.81,3.3,3.3,0,0,1-.37,1.42,10.61,10.61,0,0,1-1.3,1.91ZM89.78,4.69a1.85,1.85,0,0,0-1,.24,1.87,1.87,0,0,0-.65.63,2.54,2.54,0,0,0-.37.89,4.29,4.29,0,0,0-.12,1,2.63,2.63,0,0,0,.19,1.07,1.94,1.94,0,0,0,.48.71,1.82,1.82,0,0,0,.69.39,2.61,2.61,0,0,0,.79.12h1.4v.3a2.55,2.55,0,0,1-.41,1.58,2.22,2.22,0,0,1-1.82.65H87.7A2.11,2.11,0,0,1,86.61,12a2.25,2.25,0,0,1-.8-.82,2.57,2.57,0,0,1-.32-.86,4.18,4.18,0,0,1-.08-.84c0-.12,0-.24,0-.36a6.18,6.18,0,0,1,.23-1.28,9,9,0,0,1,.51-1.42l-.6-.31A12,12,0,0,0,85,7.73a6,6,0,0,0-.23,1.49,1.69,1.69,0,0,0,0,.23,5,5,0,0,0,.11,1,3.67,3.67,0,0,0,.41,1.08,2.84,2.84,0,0,0,1,1.06A2.77,2.77,0,0,0,87.7,13H89a3.62,3.62,0,0,0,1.4-.24,2,2,0,0,0,.52-.28,2.11,2.11,0,0,0,.4-.39A3.24,3.24,0,0,0,91.87,10V7.74a3.83,3.83,0,0,0-.58-2.36A1.8,1.8,0,0,0,89.78,4.69ZM91.21,9H89.68a1,1,0,0,1-.28,0,1.42,1.42,0,0,1-.35-.14,1.06,1.06,0,0,1-.35-.26,1.48,1.48,0,0,1-.26-.45,1.78,1.78,0,0,1-.11-.66,3.28,3.28,0,0,1,.1-.86A1.88,1.88,0,0,1,88.71,6a1.25,1.25,0,0,1,.46-.4,1.22,1.22,0,0,1,.61-.14,1.44,1.44,0,0,1,.58.1,1.18,1.18,0,0,1,.42.32,2,2,0,0,1,.32.76,5.24,5.24,0,0,1,.11,1.14ZM38.62,7.18a5,5,0,0,1,0,.52,3.12,3.12,0,0,1,0,.55,1.81,1.81,0,0,1-.14.43,1.48,1.48,0,0,1-.18.33,2.54,2.54,0,0,1-.2.24,2,2,0,0,1-.54.36,1.74,1.74,0,0,1-.64.13h0a2,2,0,0,1-1.51-.59l-.08-.1L35.23,9l-.12.17L35,9.25a1.69,1.69,0,0,1-.58.37,1.79,1.79,0,0,1-.68.13,2,2,0,0,1-1.52-.59.39.39,0,0,1-.08-.1A1,1,0,0,1,32.05,9l-.12.17-.13.13a1.61,1.61,0,0,1-.56.37,1.7,1.7,0,0,1-.67.13H28.94a1.91,1.91,0,0,1-.68-.12,1.63,1.63,0,0,1-.57-.34A1.27,1.27,0,0,1,27.44,9a1.54,1.54,0,0,1-.69.55,2.72,2.72,0,0,1-1,.18H24A2.62,2.62,0,0,1,23,9.58a1.29,1.29,0,0,1-.59-.49,1.85,1.85,0,0,1-.27-.8A8.68,8.68,0,0,1,22.1,7.2V1.32h.68V7.2q0,.54,0,.9a1.32,1.32,0,0,0,.17.56.65.65,0,0,0,.38.28,2.67,2.67,0,0,0,.71.08h1.67A4.54,4.54,0,0,0,26.31,9a1.15,1.15,0,0,0,.42-.19A.84.84,0,0,0,27,8.43a1.69,1.69,0,0,0,.1-.55V5.75h.67V7.88a1.07,1.07,0,0,0,.11.53,1,1,0,0,0,.27.36,1,1,0,0,0,.38.19,1.51,1.51,0,0,0,.41.06h1.69A1.18,1.18,0,0,0,31,9a1.29,1.29,0,0,0,.37-.22,1.22,1.22,0,0,0,.27-.41,1.6,1.6,0,0,0,.11-.62V5.76h.66V7.7A1.16,1.16,0,0,0,33.75,9a1.09,1.09,0,0,0,.4-.07,1,1,0,0,0,.65-.63,1.61,1.61,0,0,0,.1-.62V5.76h.67V7.7A1.16,1.16,0,0,0,36.87,9h0A1.32,1.32,0,0,0,37.26,9a1,1,0,0,0,.36-.23,1.16,1.16,0,0,0,.26-.4A1.64,1.64,0,0,0,38,7.7a4.64,4.64,0,0,0,0-.48c0-.17-.05-.35-.08-.54s-.07-.36-.11-.53-.07-.33-.11-.46-.06-.25-.08-.34l0-.13L38.17,5s0,.06,0,.16.06.21.1.36l.11.5c0,.18.07.37.11.57ZM269.71.48h.11V9.75h-.69V1.42l-2.31.94V1.64Zm9.78,4.38v.57a2.36,2.36,0,0,0,.36,1.37,1.16,1.16,0,0,0,1,.52,1.19,1.19,0,0,0,.93-.34,1.54,1.54,0,0,0,.32-1.09h.57a2.12,2.12,0,0,1-.47,1.48,1.91,1.91,0,0,1-2.76-.15,2.91,2.91,0,0,1-.53-1.83V4.82A2.81,2.81,0,0,1,279.44,3a1.72,1.72,0,0,1,1.41-.67,1.79,1.79,0,0,1,1.35.51,2.07,2.07,0,0,1,.48,1.47h-.58c0-.95-.42-1.42-1.25-1.42a1.17,1.17,0,0,0-1,.51A2.39,2.39,0,0,0,279.49,4.86ZM79,5.71a2.16,2.16,0,0,0-.65-.66,1.5,1.5,0,0,0-.78-.23A1.78,1.78,0,0,0,76,5.71a3.59,3.59,0,0,0-.35.8c-.08.29-.16.58-.23.87s-.13.46-.19.68a3.15,3.15,0,0,1-.22.55.84.84,0,0,1-.27.31.61.61,0,0,1-.36.1h-.68a2.29,2.29,0,0,1-.6-.08,1.51,1.51,0,0,1-.49-.25,1,1,0,0,1-.32-.4,1.25,1.25,0,0,1-.12-.56l.38-.3L73,7.11l-.1-.65-.28-.13-.49-.22-.63-.28-.7-.32-.73-.3L69.36,5a4.65,4.65,0,0,0-.58-.18,1.64,1.64,0,0,0-.43-.07,1.32,1.32,0,0,0-.6.13,1.79,1.79,0,0,0-.47.36,1.73,1.73,0,0,0-.36.52,3,3,0,0,0-.23.65l.64.18a1.8,1.8,0,0,1,.4-.82.82.82,0,0,1,.61-.3,1.76,1.76,0,0,1,.37.07l.54.17.68.26.75.31.79.33.77.32c-.34.25-.65.47-1,.67a6.59,6.59,0,0,1-.91.54,7.78,7.78,0,0,1-.93.42,7.35,7.35,0,0,1-1,.28A10.37,10.37,0,0,1,67.2,9c-.44,0-1,0-1.53,0h-.32a7,7,0,0,1-1.46-.15A2.79,2.79,0,0,0,64.72,8,2.12,2.12,0,0,0,65,6.9,2.51,2.51,0,0,0,64.85,6a2.73,2.73,0,0,0-.42-.73,1.89,1.89,0,0,0-.63-.5,1.67,1.67,0,0,0-.75-.19h-.11a2,2,0,0,0-.79.16,2,2,0,0,0-.67.47A2.33,2.33,0,0,0,61,6a2.73,2.73,0,0,0-.15.92,2.35,2.35,0,0,0,.08.6,2.53,2.53,0,0,0,.24.53,2.26,2.26,0,0,0,.37.46,3.23,3.23,0,0,0,.45.38,8.05,8.05,0,0,1-1.6.15H59.09V7.55A5.08,5.08,0,0,0,59,6.4a2.76,2.76,0,0,0-.37-.91,2,2,0,0,0-.65-.6,2.06,2.06,0,0,0-1.93,0,1.89,1.89,0,0,0-.65.61,2.83,2.83,0,0,0-.37.9,5.83,5.83,0,0,0-.11,1.15,2.4,2.4,0,0,0,.18,1,1.89,1.89,0,0,0,.51.69,2,2,0,0,0,.74.41,3.1,3.1,0,0,0,.87.13h1.23A3.05,3.05,0,0,1,58.21,11a1.85,1.85,0,0,1-.57.77,2.22,2.22,0,0,1-.89.41,5.77,5.77,0,0,1-1.17.14h-.31V13h.31A4.93,4.93,0,0,0,57,12.82a3.06,3.06,0,0,0,1.13-.6,2.5,2.5,0,0,0,.71-1,3.42,3.42,0,0,0,.25-1.37v-.1h1.34a8.23,8.23,0,0,0,1.36-.11A6.56,6.56,0,0,0,63,9.34a6.22,6.22,0,0,0,1.13.3,7.27,7.27,0,0,0,1.25.11h.54c.44,0,.84,0,1.19,0s.79-.08,1.15-.14a7,7,0,0,0,1-.22A7.1,7.1,0,0,0,70.06,9c.27-.12.53-.25.79-.39s.5-.31.74-.48a1.86,1.86,0,0,0,.2.63,1.61,1.61,0,0,0,.39.5,1.51,1.51,0,0,0,.31.2l.4.14.43.09.4,0h.68a1.31,1.31,0,0,0,1.16-.7l.7.39.61.31a5.21,5.21,0,0,0,.54.2,2,2,0,0,0,.53.08,1.25,1.25,0,0,0,.53-.11,1.3,1.3,0,0,0,.41-.28,1.9,1.9,0,0,0,.31-.42,2.69,2.69,0,0,0,.21-.52,3.84,3.84,0,0,0,.11-.59,4.26,4.26,0,0,0,0-.61,3.41,3.41,0,0,0-.14-1A2.94,2.94,0,0,0,79,5.71ZM58.42,9H57.27a2.49,2.49,0,0,1-.68-.08,1.35,1.35,0,0,1-.54-.25,1.1,1.1,0,0,1-.37-.45,1.77,1.77,0,0,1-.13-.69,5.76,5.76,0,0,1,.07-.86A2.43,2.43,0,0,1,55.85,6a1.24,1.24,0,0,1,.45-.46,1.57,1.57,0,0,1,1.38,0,1.27,1.27,0,0,1,.44.45,2.33,2.33,0,0,1,.22.69,4.77,4.77,0,0,1,.08.87Zm5-.67-.2.12-.22.1-.17-.08-.15-.08a2.84,2.84,0,0,1-.39-.25,2.15,2.15,0,0,1-.35-.33,1.75,1.75,0,0,1-.26-.42,1.36,1.36,0,0,1-.1-.51,1.83,1.83,0,0,1,.11-.64A1.28,1.28,0,0,1,62,5.77a1.29,1.29,0,0,1,.45-.31,1.64,1.64,0,0,1,.6-.11,1.16,1.16,0,0,1,.56.14,1.57,1.57,0,0,1,.42.35,1.7,1.7,0,0,1,.26.5,1.53,1.53,0,0,1,.09.56,1.29,1.29,0,0,1-.08.49,1.44,1.44,0,0,1-.23.4,1.83,1.83,0,0,1-.3.32Zm15.41,0a2.11,2.11,0,0,1-.22.56.86.86,0,0,1-.3.3.63.63,0,0,1-.34.1h-.06a1.23,1.23,0,0,1-.36-.06A3,3,0,0,1,77,9.05c-.17-.08-.35-.18-.55-.3l-.64-.36c0-.12.08-.26.12-.4s.07-.28.1-.42c.08-.32.16-.6.24-.85a2.93,2.93,0,0,1,.29-.64,1.15,1.15,0,0,1,.4-.39,1.08,1.08,0,0,1,.59-.14.73.73,0,0,1,.3.06,1.1,1.1,0,0,1,.26.15,1.8,1.8,0,0,1,.2.19l.13.18a2.28,2.28,0,0,1,.3.65,2.55,2.55,0,0,1,.1.72A3.42,3.42,0,0,1,78.8,8.34ZM91,3.21l-.67-.74.33-.36L91,1.74l.68.74Zm-2.2,0-.67-.74a4.94,4.94,0,0,0,.33-.37l.33-.36.68.74ZM255.88.38a2.16,2.16,0,0,0-1.93,1,5.34,5.34,0,0,0-.67,3V6A5.28,5.28,0,0,0,254,8.88a2.36,2.36,0,0,0,3.86,0,5.45,5.45,0,0,0,.66-3V4.2a5.11,5.11,0,0,0-.69-2.85A2.17,2.17,0,0,0,255.88.38ZM257.79,6a5,5,0,0,1-.49,2.41,1.53,1.53,0,0,1-1.41.81,1.55,1.55,0,0,1-1.42-.84A4.77,4.77,0,0,1,254,6V4.16a4.58,4.58,0,0,1,.49-2.34A1.52,1.52,0,0,1,255.88,1a1.57,1.57,0,0,1,1.44.81,4.92,4.92,0,0,1,.47,2.4ZM63,2.93l-.7-.78L63,1.38l.71.78ZM100.55,3l-.68-.74.34-.37c.1-.1.2-.23.33-.36l.68.74Zm2.19,0-.67-.74c.13-.13.23-.26.33-.36s.21-.24.33-.37l.68.74ZM3.92,5l-.67-.74.34-.37.32-.36.69.73ZM20.29,7.18a5,5,0,0,1,0,.52,2.39,2.39,0,0,1-.05.55,2.42,2.42,0,0,1-.13.43A2,2,0,0,1,20,9a2.51,2.51,0,0,1-.19.24,1.87,1.87,0,0,1-.55.36,1.7,1.7,0,0,1-.64.13h0a2,2,0,0,1-1.51-.59L17,9.06,16.91,9a1.09,1.09,0,0,1-.13.17l-.12.13a1.69,1.69,0,0,1-.58.37,1.79,1.79,0,0,1-.68.13,2,2,0,0,1-1.52-.59l-.08-.1L13.72,9l-.12.17a.8.8,0,0,1-.13.13,1.61,1.61,0,0,1-.56.37,1.7,1.7,0,0,1-.67.13h-1a1.92,1.92,0,0,1-.69-.12A1.62,1.62,0,0,1,10,9.29a1.36,1.36,0,0,1-.12-.12L9.76,9l0,.05-.05.06a2,2,0,0,1-1.58.61H1.76a1.65,1.65,0,0,1-.66-.13,1.63,1.63,0,0,1-.54-.37A1.27,1.27,0,0,1,.36,9a3,3,0,0,1-.18-.32,2.54,2.54,0,0,1-.13-.44,2.92,2.92,0,0,1,0-.54,3.19,3.19,0,0,1,0-.42c0-.15,0-.31.06-.46l.09-.44c0-.14.06-.27.09-.38s0-.21.07-.28a.49.49,0,0,1,0-.12L1,5.83S1,5.9,1,6s-.08.29-.12.49-.08.39-.12.61a3.07,3.07,0,0,0-.06.57,1.87,1.87,0,0,0,.1.62,1.16,1.16,0,0,0,.26.4A.87.87,0,0,0,1.37,9a1.12,1.12,0,0,0,.4.07H8.06a1.45,1.45,0,0,0,1.13-.38,1.15,1.15,0,0,0,.23-.76v-2h.67v2a1.13,1.13,0,0,0,.11.54,1.06,1.06,0,0,0,.27.35,1.13,1.13,0,0,0,.38.19,1.52,1.52,0,0,0,.42.06h1a1.16,1.16,0,0,0,.77-.29,1.22,1.22,0,0,0,.27-.41,1.6,1.6,0,0,0,.11-.62V5.76h.66V7.7a1.26,1.26,0,0,0,2.08,1,1.22,1.22,0,0,0,.27-.41,1.6,1.6,0,0,0,.11-.62V5.76h.66V7.7A1.17,1.17,0,0,0,18.54,9h0a1.44,1.44,0,0,0,.4-.06.89.89,0,0,0,.35-.23,1.17,1.17,0,0,0,.27-.4,1.87,1.87,0,0,0,.1-.62,4.4,4.4,0,0,0,0-.48c0-.17-.05-.35-.09-.54s-.07-.36-.11-.53-.07-.33-.1-.46-.07-.25-.09-.34l0-.13L19.84,5a1,1,0,0,1,.05.16q0,.13.09.36l.11.5c0,.18.08.37.11.57A5.4,5.4,0,0,1,20.29,7.18ZM51.6,2.92l-.71-.78.7-.76.71.78ZM6.12,5l-.67-.74.33-.37.33-.36.68.74Zm22-1.12-.67-.73c.12-.14.23-.27.33-.37l.33-.37.68.74Zm-2.2,0-.67-.74.33-.37.33-.36.69.74ZM228.31,2.75a2.47,2.47,0,0,0-1.45.45,2.77,2.77,0,0,0-1,1.23,4.26,4.26,0,0,0-.36,1.78v.15a3.92,3.92,0,0,0,.79,2.55,2.5,2.5,0,0,0,2,1,2.53,2.53,0,0,0,1.46-.43,2.85,2.85,0,0,0,1-1.23,4.43,4.43,0,0,0,.35-1.79V6.26a3.91,3.91,0,0,0-.78-2.54A2.48,2.48,0,0,0,228.31,2.75Zm2.13,3.61a3.45,3.45,0,0,1-.58,2.09,1.89,1.89,0,0,1-3.06,0,3.34,3.34,0,0,1-.59-2V6.28a3.42,3.42,0,0,1,.59-2.08,1.85,1.85,0,0,1,2.62-.44,2.38,2.38,0,0,1,.75,1,3.77,3.77,0,0,1,.27,1.44Zm-40.77-1.3,2.89,4.69h-.86l-2.47-4-2.48,4h-.84l2.89-4.69L186,.51h.86l2.38,3.91L191.62.51h.85ZM183.91,0h.69V9.75h-.69ZM111.53,6.33,111,6.11l-.62-.28-.71-.32-.72-.3L108.3,5a4.76,4.76,0,0,0-.59-.18,1.58,1.58,0,0,0-.43-.07,1.28,1.28,0,0,0-.59.13,1.68,1.68,0,0,0-.48.36,2.18,2.18,0,0,0-.36.52,3,3,0,0,0-.23.65l.64.18a1.91,1.91,0,0,1,.4-.82.82.82,0,0,1,.61-.3,1.76,1.76,0,0,1,.37.07,4.07,4.07,0,0,1,.54.17l.68.25.76.3.79.33.77.31-.94.68c-.29.2-.58.39-.86.55a7.85,7.85,0,0,1-.88.42,6.5,6.5,0,0,1-1,.29,9.44,9.44,0,0,1-1.14.17c-.41,0-.94,0-1.61,0h-.56a7,7,0,0,1-1.47-.15,2.68,2.68,0,0,0,.83-.89,2.12,2.12,0,0,0,.28-1.08,2.51,2.51,0,0,0-.15-.86,2.29,2.29,0,0,0-.42-.73,1.89,1.89,0,0,0-.63-.5,1.64,1.64,0,0,0-.75-.19h-.11a2,2,0,0,0-.79.16,2,2,0,0,0-.67.47,2.31,2.31,0,0,0-.43.73,2.51,2.51,0,0,0-.16.92,2,2,0,0,0,.09.6,2.08,2.08,0,0,0,.23.53,2.67,2.67,0,0,0,.37.46,3.23,3.23,0,0,0,.45.38,8,8,0,0,1-1.6.15H98V7.55a5.08,5.08,0,0,0-.12-1.15,2.76,2.76,0,0,0-.37-.91,1.79,1.79,0,0,0-.65-.6,2.06,2.06,0,0,0-1.93,0,1.78,1.78,0,0,0-.64.61,2.44,2.44,0,0,0-.37.9,5.14,5.14,0,0,0-.12,1.15,2.24,2.24,0,0,0,.19,1,1.86,1.86,0,0,0,.5.69,2.07,2.07,0,0,0,.74.41,3.16,3.16,0,0,0,.87.13h1.24A3.46,3.46,0,0,1,97.08,11a2,2,0,0,1-.57.77,2.35,2.35,0,0,1-.89.41,5.87,5.87,0,0,1-1.18.14h-.31V13h.31a5,5,0,0,0,1.43-.19,3.1,3.1,0,0,0,1.12-.6,2.63,2.63,0,0,0,.72-1A3.61,3.61,0,0,0,98,9.85v-.1h1.34a8.45,8.45,0,0,0,1.37-.11,6.67,6.67,0,0,0,1.17-.3,6.44,6.44,0,0,0,1.13.3,7.38,7.38,0,0,0,1.26.11h.53c.77,0,1.39,0,1.85-.08A9.45,9.45,0,0,0,108,9.44,6.33,6.33,0,0,0,109,9.07a6.72,6.72,0,0,0,.95-.52,9.08,9.08,0,0,0,.92-.65l1-.79-.09-.65ZM97.29,9H96.13a2.49,2.49,0,0,1-.68-.08,1.48,1.48,0,0,1-.54-.25,1,1,0,0,1-.36-.45,1.6,1.6,0,0,1-.13-.69,5.81,5.81,0,0,1,.06-.86A2.15,2.15,0,0,1,94.72,6a1.15,1.15,0,0,1,.44-.46,1.57,1.57,0,0,1,1.38,0A1.19,1.19,0,0,1,97,6a2.33,2.33,0,0,1,.23.69,7.59,7.59,0,0,1,.08.87Zm5-.67-.2.12-.22.1-.17-.08-.15-.08a2.75,2.75,0,0,1-.38-.25,1.56,1.56,0,0,1-.35-.33,1.51,1.51,0,0,1-.27-.42,1.36,1.36,0,0,1-.1-.51,1.83,1.83,0,0,1,.11-.64,1.42,1.42,0,0,1,.29-.49,1.33,1.33,0,0,1,.46-.31,1.55,1.55,0,0,1,.59-.11,1.13,1.13,0,0,1,.56.14,1.31,1.31,0,0,1,.42.35,1.51,1.51,0,0,1,.27.5,1.77,1.77,0,0,1,.09.56,1.3,1.3,0,0,1-.09.49,1.71,1.71,0,0,1-.22.4,2.36,2.36,0,0,1-.31.32Zm73.83.8,0,.62a2.13,2.13,0,0,1-.74.1,1.18,1.18,0,0,1-1-.45A2.25,2.25,0,0,1,174,8.09V3.5h-1.15V2.88H174V1.12h.7V2.88H176V3.5h-1.3V8.08a1.51,1.51,0,0,0,.19.85.69.69,0,0,0,.63.28A4.1,4.1,0,0,0,176.08,9.15Zm38.32-5.3a2.16,2.16,0,0,0-2-1.1,2.06,2.06,0,0,0-1.77,1A4.38,4.38,0,0,0,210,6.25v.09a4.48,4.48,0,0,0,.67,2.58,2.06,2.06,0,0,0,1.76.95,2.18,2.18,0,0,0,2-1l0,.92h.65V0h-.69Zm0,4.13a1.88,1.88,0,0,1-1.83,1.24,1.54,1.54,0,0,1-1.36-.76,3.87,3.87,0,0,1-.48-2.07,4.06,4.06,0,0,1,.49-2.22,1.53,1.53,0,0,1,1.37-.76,1.87,1.87,0,0,1,1.81,1.35ZM199.92,2.75a2.23,2.23,0,0,0-1.36.46,3,3,0,0,0-1,1.24,4.3,4.3,0,0,0-.35,1.79v.27a4.06,4.06,0,0,0,.36,1.73,2.89,2.89,0,0,0,1,1.2,2.55,2.55,0,0,0,1.46.43,2.46,2.46,0,0,0,2.22-1.21l-.43-.36a2.24,2.24,0,0,1-.78.71,2.09,2.09,0,0,1-1,.22,1.9,1.9,0,0,1-1.54-.77,3,3,0,0,1-.61-2V6.36h4.49V5.94a3.65,3.65,0,0,0-.68-2.33A2.17,2.17,0,0,0,199.92,2.75Zm1.79,3h-3.77A3,3,0,0,1,198.59,4a1.68,1.68,0,0,1,1.33-.63A1.58,1.58,0,0,1,201.2,4a2.72,2.72,0,0,1,.51,1.62Zm16,3.1a.59.59,0,0,1,.15.41.58.58,0,0,1-.15.41.51.51,0,0,1-.4.16.49.49,0,0,1-.4-.16.58.58,0,0,1-.15-.41.59.59,0,0,1,.15-.41.5.5,0,0,1,.4-.17A.51.51,0,0,1,217.75,8.82ZM208,3.38a2.93,2.93,0,0,1,.5,1.86V9.75h-.69V5.23a2.31,2.31,0,0,0-.36-1.37,1.35,1.35,0,0,0-1.13-.45,1.68,1.68,0,0,0-1.14.44,2.64,2.64,0,0,0-.74,1.2v4.7h-.68V2.88h.66l0,1.17a2.65,2.65,0,0,1,.88-1,2.13,2.13,0,0,1,1.17-.34A1.8,1.8,0,0,1,208,3.38ZM171.74.53a.57.57,0,0,1,.13.36.53.53,0,0,1-.13.36.45.45,0,0,1-.35.15.46.46,0,0,1-.36-.15.52.52,0,0,1-.12-.36A.56.56,0,0,1,171,.53a.46.46,0,0,1,.36-.15A.45.45,0,0,1,171.74.53Zm24.5,8.62,0,.62a2.13,2.13,0,0,1-.74.1,1.21,1.21,0,0,1-1-.45,2.25,2.25,0,0,1-.33-1.33V3.5H193V2.88h1.15V1.12h.7V2.88h1.3V3.5h-1.3V8.08a1.51,1.51,0,0,0,.19.85.71.71,0,0,0,.63.28A4,4,0,0,0,196.24,9.15ZM220.1,6.23v.22a3.49,3.49,0,0,0,.52,2.05,1.7,1.7,0,0,0,1.47.73,1.74,1.74,0,0,0,1.22-.44,1.68,1.68,0,0,0,.53-1.16h.67a2.29,2.29,0,0,1-1.24,2,2.54,2.54,0,0,1-1.18.29,2.37,2.37,0,0,1-2-.93,4.07,4.07,0,0,1-.72-2.53V6.18a4.59,4.59,0,0,1,.33-1.8,2.64,2.64,0,0,1,.93-1.2,2.46,2.46,0,0,1,1.42-.43,2.32,2.32,0,0,1,1.71.68,2.53,2.53,0,0,1,.72,1.77h-.67a1.93,1.93,0,0,0-.53-1.3,1.64,1.64,0,0,0-1.23-.5,1.69,1.69,0,0,0-1.46.74A3.59,3.59,0,0,0,220.1,6.23ZM182,4.93a2.16,2.16,0,0,0-.62-1.6,2.31,2.31,0,0,0-1.67-.58,2.53,2.53,0,0,0-1.71.6,1.8,1.8,0,0,0-.7,1.42h.7a1.24,1.24,0,0,1,.48-1,1.76,1.76,0,0,1,1.2-.4,1.62,1.62,0,0,1,1.21.42A1.55,1.55,0,0,1,181.28,5v.78H180a3.46,3.46,0,0,0-2.13.59,1.89,1.89,0,0,0-.76,1.59,1.83,1.83,0,0,0,.56,1.39,2,2,0,0,0,1.47.55,2.64,2.64,0,0,0,1.2-.28,2.5,2.5,0,0,0,.94-.8,3.56,3.56,0,0,0,.13,1h.74V9.67A4.33,4.33,0,0,1,182,8.18Zm-.69,2.92a2.14,2.14,0,0,1-.8,1,2.19,2.19,0,0,1-1.25.37,1.37,1.37,0,0,1-1-.38,1.27,1.27,0,0,1-.39-1,1.25,1.25,0,0,1,.58-1.1A2.92,2.92,0,0,1,180,6.34h1.25Zm-38.84-2.5h2.78V6h-2.78Zm8.37-.76V5.71a4.31,4.31,0,0,0,.67,2.55,2.07,2.07,0,0,0,1.79,1,2.26,2.26,0,0,0,1.7-.59,3,3,0,0,0,.7-1.77h.72a3.42,3.42,0,0,1-.95,2.24,3,3,0,0,1-2.17.77,2.79,2.79,0,0,1-1.66-.51,3.33,3.33,0,0,1-1.12-1.46,5.57,5.57,0,0,1-.4-2.15V4.55a5.51,5.51,0,0,1,.4-2.18A3.2,3.2,0,0,1,151.62.9a3.19,3.19,0,0,1,3.86.28,3.53,3.53,0,0,1,.91,2.22h-.72c-.17-1.57-.95-2.35-2.34-2.35a2.17,2.17,0,0,0-1.84.93A4.42,4.42,0,0,0,150.81,4.59ZM138.11.45l-5,2.43L133,3.5l.2.17c.14.12.32.3.56.53l.85.85c.33.34.68.74,1.07,1.19a4.17,4.17,0,0,1,.72,1.08,2.26,2.26,0,0,1,.17.72,1,1,0,0,1-.06.35.83.83,0,0,1-.43.44,2.08,2.08,0,0,1-1,.19h-3a1.08,1.08,0,0,1-.81-.37,1.18,1.18,0,0,1-.23-.43,1.82,1.82,0,0,1-.08-.55V1.32h-.67V7.61a2.94,2.94,0,0,1,0,.51,1,1,0,0,1-.24.46,1.27,1.27,0,0,1-.54.32,3,3,0,0,1-.94.12h-.7a1.4,1.4,0,0,1-.41-.06,1,1,0,0,1-.38-.19,1.15,1.15,0,0,1-.28-.36,1.19,1.19,0,0,1-.11-.53V5.75H126V7.88a1.45,1.45,0,0,1-.11.55.76.76,0,0,1-.27.34,1,1,0,0,1-.42.19,4.17,4.17,0,0,1-.57.06H123l-.28,0a1.55,1.55,0,0,1-.35-.07,1.37,1.37,0,0,1-.38-.15,1.57,1.57,0,0,1-.37-.28,1.76,1.76,0,0,1-.31-.42,2.14,2.14,0,0,1-.23-.59c0-.19-.09-.37-.13-.54l-.12-.51c0-.17-.07-.35-.11-.52s-.07-.37-.12-.57l-.21-1c-.07-.36-.16-.79-.27-1.28l-.66.2.15.8a6.28,6.28,0,0,0-1.31.53,4.1,4.1,0,0,0-1,.75,2.61,2.61,0,0,0-.57.9,2.44,2.44,0,0,0-.13,1.25,2,2,0,0,0,.35.87,2.13,2.13,0,0,0,.66.58,1.57,1.57,0,0,0,.64.21h.29a2.09,2.09,0,0,0,.86-.19,1.43,1.43,0,0,0,.62-.46,3.33,3.33,0,0,0,.43-.67,2.61,2.61,0,0,0,.16.42,1.88,1.88,0,0,0,.21.37,2.68,2.68,0,0,0,.64.66,2.61,2.61,0,0,0,.7.32,2.48,2.48,0,0,0,.68.1v0h1.78a2.78,2.78,0,0,0,1-.18,1.54,1.54,0,0,0,.69-.55,1.55,1.55,0,0,0,.24.27,1.73,1.73,0,0,0,.57.34,2,2,0,0,0,.69.12h.89v0a2.85,2.85,0,0,0,.51,0,3.28,3.28,0,0,0,.58-.14,1.61,1.61,0,0,0,.46-.26,1.48,1.48,0,0,0,.35-.39,1.73,1.73,0,0,0,.63.63,1.8,1.8,0,0,0,.76.21h3.08a2.79,2.79,0,0,0,.88-.12,2,2,0,0,0,.59-.27,1.21,1.21,0,0,0,.36-.35,1.45,1.45,0,0,0,.19-.33,1.85,1.85,0,0,0,.11-.63V8a2.57,2.57,0,0,0-.13-.75,4.9,4.9,0,0,0-.93-1.53q-.78-.9-1.38-1.5c-.4-.4-.72-.72-1-.94l4.54-2.18ZM120.06,7a1.94,1.94,0,0,1-.14.51,1.86,1.86,0,0,1-.29.48,1.55,1.55,0,0,1-.5.4,1.07,1.07,0,0,1-.51.12h0a1.41,1.41,0,0,1-.58-.13,1.48,1.48,0,0,1-.49-.37,1.28,1.28,0,0,1-.26-.58,2.46,2.46,0,0,1,0-.26,1.62,1.62,0,0,1,.1-.54,2,2,0,0,1,.47-.73,3.33,3.33,0,0,1,.82-.62,5.42,5.42,0,0,1,1.14-.46c0,.06,0,.13,0,.2l.06.25c0,.1,0,.21.07.34s.06.29.1.48a.59.59,0,0,0,0,.13,2.63,2.63,0,0,1,0,.33A3.91,3.91,0,0,1,120.06,7Zm6.4,4.36.68.74-.67.74-.67-.74Zm-2.21,0,.69.74-.67.73-.68-.74ZM247.64,9.11h4.45v.64h-5.31V9.16l2.9-3.59a8,8,0,0,0,1-1.49A2.68,2.68,0,0,0,251,2.92a2,2,0,0,0-.47-1.38A1.69,1.69,0,0,0,249.2,1a1.77,1.77,0,0,0-1.38.59,2.28,2.28,0,0,0-.53,1.55h-.69a3.06,3.06,0,0,1,.32-1.42,2.43,2.43,0,0,1,.92-1A2.56,2.56,0,0,1,249.2.38a2.43,2.43,0,0,1,1.82.67,2.48,2.48,0,0,1,.65,1.81,3.3,3.3,0,0,1-.37,1.42A10.61,10.61,0,0,1,250,6.19ZM167,2.75a2.21,2.21,0,0,0-2,1.1l0-1h-.64v9.51H165V8.89a2.29,2.29,0,0,0,2,1,2,2,0,0,0,1.74-.94,4.44,4.44,0,0,0,.65-2.54V6.27a4.55,4.55,0,0,0-.64-2.58A2,2,0,0,0,167,2.75Zm1.23,5.72a1.54,1.54,0,0,1-1.37.76,1.9,1.9,0,0,1-1.1-.31A1.93,1.93,0,0,1,165,8V4.73a2.15,2.15,0,0,1,.71-1,1.82,1.82,0,0,1,1.1-.34,1.56,1.56,0,0,1,1.38.77,3.78,3.78,0,0,1,.49,2.07A4.11,4.11,0,0,1,168.22,8.47Zm73.14-3.31V9.75h-.7V5.22a2.13,2.13,0,0,0-.36-1.36,1.41,1.41,0,0,0-1.17-.45,1.77,1.77,0,0,0-1.26.53,2,2,0,0,0-.58,1.27V9.75h-.7V5.16a2,2,0,0,0-.38-1.31,1.45,1.45,0,0,0-1.15-.44,1.67,1.67,0,0,0-1.13.41,2.42,2.42,0,0,0-.7,1.22V9.75h-.7V2.88h.67l0,1.12a2.41,2.41,0,0,1,.87-.94,2.31,2.31,0,0,1,1.16-.31,1.78,1.78,0,0,1,1.89,1.34,2.41,2.41,0,0,1,.9-1,2.35,2.35,0,0,1,1.24-.35C240.64,2.75,241.33,3.56,241.36,5.16ZM171,2.88h.7V9.75H171ZM162.5,4.93a2.17,2.17,0,0,0-.63-1.6,2.29,2.29,0,0,0-1.66-.58,2.56,2.56,0,0,0-1.72.6,1.83,1.83,0,0,0-.7,1.42h.7a1.24,1.24,0,0,1,.48-1,1.8,1.8,0,0,1,1.21-.4,1.63,1.63,0,0,1,1.21.42A1.58,1.58,0,0,1,161.8,5v.78h-1.26a3.44,3.44,0,0,0-2.13.59,1.9,1.9,0,0,0-.77,1.59,1.84,1.84,0,0,0,.57,1.39,2,2,0,0,0,1.46.55,2.58,2.58,0,0,0,1.2-.28,2.43,2.43,0,0,0,.94-.8,4,4,0,0,0,.13,1h.75V9.67a4.33,4.33,0,0,1-.19-1.49Zm-.7,2.92a2.08,2.08,0,0,1-.8,1,2.14,2.14,0,0,1-1.25.37,1.4,1.4,0,0,1-1-.38,1.27,1.27,0,0,1-.39-1,1.26,1.26,0,0,1,.59-1.1,2.9,2.9,0,0,1,1.63-.42h1.24Z"/></svg>