<svg id="Layer_1" data-name="Layer 1" xmlns="http://www.w3.org/2000/svg" viewBox="0 0 406.03 105.62"><defs><style>.cls-1{fill:#3f444d;}.cls-2{fill:#062652;}</style></defs><path class="cls-1" d="M128.83,51.57l-.71-.72.7-.71.72.72ZM126,51.46l-.69-.68-.33.33-.33.34.67.68Zm-80.44,5.1a1.26,1.26,0,0,0,.18.3,1.44,1.44,0,0,0,.19.22,1.68,1.68,0,0,0,.56.34,1.84,1.84,0,0,0,.66.12h6.69a1.47,1.47,0,0,0,.62-.13A1.66,1.66,0,0,0,55,57a1.79,1.79,0,0,0,.43-.68,2.48,2.48,0,0,0,.14-.82v-.06a7,7,0,0,0-.08-.89c0-.31-.11-.6-.17-.87l-.66.1c.06.27.11.55.16.84a6.28,6.28,0,0,1,.08.83v0a1.79,1.79,0,0,1-.09.57,1.17,1.17,0,0,1-.29.47.9.9,0,0,1-.68.31H47.1a1.39,1.39,0,0,1-.4-.06,1,1,0,0,1-.35-.21,1.1,1.1,0,0,1-.25-.37,1.42,1.42,0,0,1-.1-.57c0-.1,0-.22,0-.34s0-.26.07-.38,0-.25.08-.38.06-.22.09-.32a2.19,2.19,0,0,1,.07-.23l0-.09-.64-.2a.7.7,0,0,0,0,.11l-.07.26c0,.1-.05.22-.09.35l-.09.41c0,.14-.05.28-.07.42s0,.27,0,.39a2,2,0,0,0,.05.5A2.09,2.09,0,0,0,45.51,56.56ZM50,52.48l-.69-.68-.33.33-.33.34.67.68Zm24.67,23-.72-.72-.7.71.71.72ZM73.54,57.2a1.12,1.12,0,0,0,.35.25,1.14,1.14,0,0,0,.46.09.72.72,0,0,0,.29-.06.76.76,0,0,0,.23-.17,1,1,0,0,0,.15-.24.67.67,0,0,0,.06-.28.57.57,0,0,0-.06-.25.86.86,0,0,0-.13-.2.9.9,0,0,0-.2-.14.7.7,0,0,0-.25-.05h-.15l-.16.05a.44.44,0,0,0-.15.1.54.54,0,0,0-.14.18v0a1.61,1.61,0,0,1,.08-.54,2.28,2.28,0,0,1,.23-.47,1.83,1.83,0,0,1,.34-.39,2.55,2.55,0,0,1,.39-.28l-.33-.45a2.43,2.43,0,0,0-.49.37,3.14,3.14,0,0,0-.42.48,2.93,2.93,0,0,0-.28.56,1.7,1.7,0,0,0-.11.58,1.64,1.64,0,0,0,.08.5A1.22,1.22,0,0,0,73.54,57.2Zm19.8-6.34-.72-.72-.7.71.71.72Zm30.4.59-.69-.68-.33.33-.34.34.68.68Zm-17.92,7.93a2.38,2.38,0,0,0,.92.86,2.59,2.59,0,0,0,1.24.31h.4c.22,0,.45,0,.67,0a3.21,3.21,0,0,0,.63-.14,2.57,2.57,0,0,0,.56-.26,2,2,0,0,0,.48-.4,2.23,2.23,0,0,0,.44-.82,3.92,3.92,0,0,0,.13-1.09v-8h-.67v8a3.08,3.08,0,0,1-.1.86,1.43,1.43,0,0,1-1,1.06,3.55,3.55,0,0,1-1.11.15H108a1.9,1.9,0,0,1-.92-.22,1.62,1.62,0,0,1-.67-.63,2.39,2.39,0,0,1-.34-1.31c0-.09,0-.19,0-.29a5.87,5.87,0,0,1,.61-2.08l-.6-.29a6.64,6.64,0,0,0-.49,1.29,5.2,5.2,0,0,0-.2,1.19v.17a3.7,3.7,0,0,0,.09.83A2.82,2.82,0,0,0,105.82,59.38Zm14.05-8.73-.68-.69-.33.34-.34.34.68.68ZM52.21,52.49l-.69-.68-.33.33-.34.34.68.69ZM55,60.56h.76a3.09,3.09,0,0,0,2.31-.81,3.32,3.32,0,0,0,.78-2.39v-3.5h-.67v3.5a2.7,2.7,0,0,1-.55,1.86,2.36,2.36,0,0,1-1.87.67H55Zm62.66-9.93L117,50l-.33.34-.33.34.67.68ZM29.31,72.41l.68-.68-.69-.68-.33.33-.33.34ZM48.9,80.14l-.68-.67-.67.68.67.68ZM46,79.49l-.68.68.68.68.68-.68-.34-.34Zm1.75,2.1-.67-.67-.68.68.67.68ZM21.88,59.18a2.74,2.74,0,0,0,.49.58,2.53,2.53,0,0,0,.6.43,2.84,2.84,0,0,0,.68.27,3,3,0,0,0,.72.09h1.39a5.12,5.12,0,0,0,.7,0,2.44,2.44,0,0,0,.62-.14,2.26,2.26,0,0,0,.56-.28,2.18,2.18,0,0,0,.48-.44,2.05,2.05,0,0,0,.26-.43,3.28,3.28,0,0,0,.17-.5,4.63,4.63,0,0,0,.09-.49,3.59,3.59,0,0,0,0-.43,1.94,1.94,0,0,0,0-.24.48.48,0,0,0-.07-.21.55.55,0,0,0-.19-.18A1.16,1.16,0,0,0,28,57l-.35-.1-.48-.13-.54-.14-.54-.15-.44-.11-.28-.08a2.49,2.49,0,0,1-.05-.46,2.38,2.38,0,0,1,.11-.7,2.33,2.33,0,0,1,.6-1,2.46,2.46,0,0,1,.82-.53,2.81,2.81,0,0,1,1-.18,3.09,3.09,0,0,1,.89.13L29,53a2.86,2.86,0,0,0-.55-.12,3.27,3.27,0,0,0-.54,0h-.05a3.66,3.66,0,0,0-.57.05,3.07,3.07,0,0,0-.61.18,2.67,2.67,0,0,0-.56.28,3.81,3.81,0,0,0-.49.39,3.36,3.36,0,0,0-.5.64,3.12,3.12,0,0,0-.3.73,2.42,2.42,0,0,0-.11.59v.23a3,3,0,0,0,.11.78l.05.19L28,57.7a1.62,1.62,0,0,1,0,.22v.17a2,2,0,0,1-.07.42,1.9,1.9,0,0,1-.14.4,1.36,1.36,0,0,1-.23.34,1.7,1.7,0,0,1-.71.47,3.35,3.35,0,0,1-1.1.15H24.42a2.4,2.4,0,0,1-1.14-.27,2.19,2.19,0,0,1-.83-.77,2.56,2.56,0,0,1-.33-.81,4.5,4.5,0,0,1-.08-.79c0-.11,0-.22,0-.33a5.48,5.48,0,0,1,.22-1.19,8,8,0,0,1,.51-1.31l-.61-.29a7.43,7.43,0,0,0-.8,2.92,1.48,1.48,0,0,0,0,.21,4.05,4.05,0,0,0,.1.92A3.24,3.24,0,0,0,21.88,59.18ZM83,76.44a4.49,4.49,0,0,1,.12,1.07v2.12a3,3,0,0,1-.25,1.27,2.34,2.34,0,0,1-.72.93,3.29,3.29,0,0,1-1.13.54,5.46,5.46,0,0,1-1.44.18h-.31v-.67h.31a6.1,6.1,0,0,0,1.19-.13,2.33,2.33,0,0,0,.89-.38,1.8,1.8,0,0,0,.58-.72,2.89,2.89,0,0,0,.21-1.11H81.25a3.17,3.17,0,0,1-.88-.12,2.19,2.19,0,0,1-.75-.37,2,2,0,0,1-.51-.64,2.13,2.13,0,0,1-.18-.9A5,5,0,0,1,79,76.45a2.53,2.53,0,0,1,.37-.83,1.71,1.71,0,0,1,.66-.56,2.16,2.16,0,0,1,1.94,0,1.77,1.77,0,0,1,.66.55A2.34,2.34,0,0,1,83,76.44Zm-.55,1.07a4.92,4.92,0,0,0-.08-.8,2,2,0,0,0-.23-.64,1.18,1.18,0,0,0-.44-.42,1.43,1.43,0,0,0-.7-.15,1.31,1.31,0,0,0-.69.16,1.14,1.14,0,0,0-.45.42,1.73,1.73,0,0,0-.23.64,3.94,3.94,0,0,0-.07.79,1.41,1.41,0,0,0,.13.64,1.22,1.22,0,0,0,.36.42,1.82,1.82,0,0,0,.55.23,3,3,0,0,0,.69.07h1.16Zm-28,4.15.67.68.68-.67L55.11,81ZM68.57,49,63.5,51.2l-.08.57a1.24,1.24,0,0,1,.21.16c.14.11.32.27.56.49s.53.47.86.79.69.68,1.08,1.09a3.83,3.83,0,0,1,.72,1A1.77,1.77,0,0,1,67,56a.75.75,0,0,1-.49.73,2.31,2.31,0,0,1-1,.18h-3a2.62,2.62,0,0,1-.71-.08.64.64,0,0,1-.39-.26,1.1,1.1,0,0,1-.16-.51q0-.33,0-.84V49.76h-.69v5.42a7.66,7.66,0,0,0,.07,1,1.64,1.64,0,0,0,.27.73,1.34,1.34,0,0,0,.6.46,2.81,2.81,0,0,0,.91.14h3.1a3.26,3.26,0,0,0,.89-.1,2.32,2.32,0,0,0,.59-.26,1.32,1.32,0,0,0,.37-.32,1.86,1.86,0,0,0,.19-.31,1.58,1.58,0,0,0,.11-.58v0a2,2,0,0,0-.14-.69,4.33,4.33,0,0,0-.93-1.41c-.52-.55-1-1-1.39-1.39s-.72-.66-1-.86l4.58-2Zm7.9,30.85a2.14,2.14,0,0,1-.41,1.46,2.31,2.31,0,0,1-1.84.61H72.94a2.38,2.38,0,0,1-1.1-.26,2.24,2.24,0,0,1-.81-.75,2.36,2.36,0,0,1-.32-.8,4.3,4.3,0,0,1-.08-.78c0-.11,0-.22,0-.33a6.21,6.21,0,0,1,.23-1.19,9.51,9.51,0,0,1,.52-1.3l-.61-.29a11.18,11.18,0,0,0-.59,1.49A5.72,5.72,0,0,0,70,79.05v.21a3.85,3.85,0,0,0,.11,1,3,3,0,0,0,.41,1,2.88,2.88,0,0,0,2.47,1.33h1.28a4,4,0,0,0,1.42-.22,2.3,2.3,0,0,0,.52-.26,2,2,0,0,0,.41-.36,2.82,2.82,0,0,0,.57-1.9v-4h-.67Zm-11.58-2c0,.06,0,.13,0,.2a2.08,2.08,0,0,1-.05.39,1.81,1.81,0,0,1-.19.51,1.52,1.52,0,0,1-.32.4,1.71,1.71,0,0,1-.44.3,2.13,2.13,0,0,1-.52.18,2.57,2.57,0,0,1-.55.06,2.69,2.69,0,0,1-.57-.05,5.44,5.44,0,0,1-.54-.15l-.53-.22-.52-.26a6.42,6.42,0,0,1-1.16.24,12.25,12.25,0,0,1-1.42.08H56.51a2.22,2.22,0,0,1-.69-.11,1.9,1.9,0,0,1-.58-.31,1.41,1.41,0,0,1-.24-.25,1.7,1.7,0,0,1-.7.51,3,3,0,0,1-1,.16h-2.8a2.28,2.28,0,0,1-.7-.11,1.85,1.85,0,0,1-.57-.31,1.51,1.51,0,0,1-.44-.57,1.78,1.78,0,0,1-.15-.74v-.75l-.79.29-.91.34-.68.27a7.22,7.22,0,0,0-.69.31,4.28,4.28,0,0,0-.61.4,2.2,2.2,0,0,0-.49.52,2,2,0,0,0-.29.65,2.09,2.09,0,0,0-.07.51,1.82,1.82,0,0,0,0,.32,2.38,2.38,0,0,0,.28,1.12,2.32,2.32,0,0,0,.69.8,3,3,0,0,0,1,.49,5.07,5.07,0,0,0,1.27.16h2.39v.67H47.38a5.41,5.41,0,0,1-1.64-.23,3.3,3.3,0,0,1-1.2-.66,3,3,0,0,1-.77-1,3.66,3.66,0,0,1-.32-1.31c0-.11,0-.21,0-.32a3.08,3.08,0,0,1,.08-.73,2.28,2.28,0,0,1,.31-.72,2.81,2.81,0,0,1,.52-.63,5.6,5.6,0,0,1,.68-.49,6.63,6.63,0,0,1,.8-.4c.28-.12.56-.24.86-.35l1.5-.56,1.1-.41-1.12-.49q-.57-.25-1.08-.45c-.34-.14-.64-.25-.89-.34a1.94,1.94,0,0,0-.57-.13A.86.86,0,0,0,45,75a1.62,1.62,0,0,0-.4.76L44,75.54a2.35,2.35,0,0,1,.23-.57,1.85,1.85,0,0,1,.35-.48,1.82,1.82,0,0,1,.48-.34,1.71,1.71,0,0,1,.61-.14l.21,0,.21,0,.27.08.42.15c.18.06.4.15.66.26s.59.24,1,.4l.73.31.62.27.43.19.16.08,0,.62-.26.1-.75.28v1a1,1,0,0,0,.11.5.87.87,0,0,0,.28.32.89.89,0,0,0,.38.18,1.52,1.52,0,0,0,.42.06h2.8a4.17,4.17,0,0,0,.57-.06,1.11,1.11,0,0,0,.43-.17.94.94,0,0,0,.27-.32,1.22,1.22,0,0,0,.1-.51v-2h.68v2a.91.91,0,0,0,.38.82.89.89,0,0,0,.38.18,1.52,1.52,0,0,0,.42.06h1.58a9.6,9.6,0,0,0,1.71-.13l-.17-.11-.14-.12a2.13,2.13,0,0,1-.64-.74,1.89,1.89,0,0,1-.22-.94,2,2,0,0,1,.16-.81,1.76,1.76,0,0,1,.43-.64,2,2,0,0,1,.66-.4,2.24,2.24,0,0,1,.84-.15,1.67,1.67,0,0,1,.76.18,2,2,0,0,1,.61.46,2.41,2.41,0,0,1,.41.67,2.2,2.2,0,0,1-.15,1.91,2.42,2.42,0,0,1-.86.82,3.72,3.72,0,0,0,.64.26,2.37,2.37,0,0,0,.7.1,1.91,1.91,0,0,0,.43,0,1.5,1.5,0,0,0,.36-.14.91.91,0,0,0,.27-.18.85.85,0,0,0,.17-.23,1.28,1.28,0,0,0,.14-.35,1.5,1.5,0,0,0,0-.22,1.58,1.58,0,0,0,0-.19,1.62,1.62,0,0,0-.09-.32,3.74,3.74,0,0,0-.23-.43A9.19,9.19,0,0,0,63,76l-1.45-1.56.48-.47.81.86.69.75c.21.24.39.46.55.66a4.68,4.68,0,0,1,.42.59,4.2,4.2,0,0,1,.29.55A2.08,2.08,0,0,1,64.89,77.86Zm-3.69.4a1.89,1.89,0,0,0,.4-.34,1.48,1.48,0,0,0,.28-.45,1.63,1.63,0,0,0,.1-.55,1.54,1.54,0,0,0-.11-.58,1.36,1.36,0,0,0-.7-.74,1.22,1.22,0,0,0-.45-.1,1.64,1.64,0,0,0-.67.12,1.25,1.25,0,0,0-.43.31,1,1,0,0,0-.24.42,1.61,1.61,0,0,0-.08.48,1.28,1.28,0,0,0,.15.63,1.56,1.56,0,0,0,.45.53,2.81,2.81,0,0,0,.38.26l.44.25A2.69,2.69,0,0,0,61.2,78.26ZM6.52,74.79h0a3.66,3.66,0,0,0-.57,0,3.07,3.07,0,0,0-.61.18,2.67,2.67,0,0,0-.56.28,3.81,3.81,0,0,0-.49.39,3.36,3.36,0,0,0-.5.64,3.12,3.12,0,0,0-.3.73,2.42,2.42,0,0,0-.11.59v.23a3,3,0,0,0,.11.78l.05.19,3.15.85a1.64,1.64,0,0,1,0,.22c0,.06,0,.11,0,.17a2,2,0,0,1-.07.42,1.9,1.9,0,0,1-.14.4,1.36,1.36,0,0,1-.23.34,1.7,1.7,0,0,1-.71.47,3.35,3.35,0,0,1-1.1.15H3.06a2.4,2.4,0,0,1-1.14-.27,2.19,2.19,0,0,1-.83-.77A2.56,2.56,0,0,1,.76,80a4.5,4.5,0,0,1-.08-.79c0-.11,0-.22,0-.33a5.48,5.48,0,0,1,.22-1.19,8,8,0,0,1,.51-1.31l-.61-.29A7.43,7.43,0,0,0,0,79a1.48,1.48,0,0,0,0,.21,4.05,4.05,0,0,0,.1.92,3.24,3.24,0,0,0,.42,1,2.74,2.74,0,0,0,.49.58,2.53,2.53,0,0,0,.6.43,3,3,0,0,0,.68.27,3,3,0,0,0,.72.09H4.4a5.12,5.12,0,0,0,.7,0,2.62,2.62,0,0,0,.63-.14,2.38,2.38,0,0,0,.55-.28,2.18,2.18,0,0,0,.48-.44A2.05,2.05,0,0,0,7,81.21a3,3,0,0,0,.17-.5,4.63,4.63,0,0,0,.09-.49,3.59,3.59,0,0,0,0-.43,1.94,1.94,0,0,0,0-.24.48.48,0,0,0-.07-.21A.55.55,0,0,0,7,79.16,1.16,1.16,0,0,0,6.68,79l-.35-.1-.48-.13a5.44,5.44,0,0,1-.54-.15l-.54-.14-.44-.11-.28-.08a2.49,2.49,0,0,1,0-.46,2.38,2.38,0,0,1,.11-.7,2.33,2.33,0,0,1,.6-1,2.46,2.46,0,0,1,.82-.53,2.81,2.81,0,0,1,1-.18,3.09,3.09,0,0,1,.89.13L7.61,75a2.86,2.86,0,0,0-.55-.12A3.27,3.27,0,0,0,6.52,74.79Zm2.81,4.75H10V71.76H9.33Zm23.35-3.23a7.26,7.26,0,0,1,0,.8,2.73,2.73,0,0,1-.22,1.18,1.88,1.88,0,0,1-.61.75,2.64,2.64,0,0,1-.95.39,6.65,6.65,0,0,1-1.24.11H27.28a7.51,7.51,0,0,1-1.27-.1,5.94,5.94,0,0,1-1.14-.28,5.83,5.83,0,0,1-1.18.28,8.49,8.49,0,0,1-1.37.1h-.68v0a3.4,3.4,0,0,1-.65-.08,2.45,2.45,0,0,1-.7-.31,2.33,2.33,0,0,1-.65-.6,4,4,0,0,1-.22-.34c-.06-.13-.11-.26-.16-.4a2.66,2.66,0,0,1-.42.63,1.52,1.52,0,0,1-.63.42,2.26,2.26,0,0,1-.87.18h-.29a1.69,1.69,0,0,1-.64-.2,1.78,1.78,0,0,1-.66-.53,1.66,1.66,0,0,1-.36-.81,2.16,2.16,0,0,1,0-.35,2.23,2.23,0,0,1,.16-.8,2.47,2.47,0,0,1,.57-.83,4,4,0,0,1,1-.69,6.59,6.59,0,0,1,1.32-.5l-.15-.73.66-.18c.11.45.2.84.28,1.18s.15.64.21.91.08.36.12.52.07.33.11.49l.12.47c0,.16.08.32.13.5a2.25,2.25,0,0,0,.23.54,1.76,1.76,0,0,0,.32.39,1.72,1.72,0,0,0,.37.25,1.77,1.77,0,0,0,.38.15l.35.06.28,0h.53a8.94,8.94,0,0,0,1.61-.14,3.1,3.1,0,0,1-.46-.35,2.11,2.11,0,0,1-.36-.43,1.49,1.49,0,0,1-.24-.49,1.67,1.67,0,0,1-.09-.55,2.18,2.18,0,0,1,.16-.85,1.91,1.91,0,0,1,.44-.67,2.11,2.11,0,0,1,.67-.44,2.28,2.28,0,0,1,.8-.14H25a1.79,1.79,0,0,1,.75.17,1.9,1.9,0,0,1,.63.46,2.07,2.07,0,0,1,.43.68,2.13,2.13,0,0,1,.15.79,1.87,1.87,0,0,1-.28,1,2.71,2.71,0,0,1-.83.82,7.8,7.8,0,0,0,1.47.14H29.7l.88-.07a2.25,2.25,0,0,0,.69-.17,1.18,1.18,0,0,0,.49-.39,1.6,1.6,0,0,0,.26-.72l-.55.08c-.21,0-.42,0-.64,0a3.83,3.83,0,0,1-.93-.11,1.86,1.86,0,0,1-.72-.35,1.52,1.52,0,0,1-.47-.59,2.06,2.06,0,0,1-.16-.86,2.48,2.48,0,0,1,.14-.82,2.2,2.2,0,0,1,.41-.68,1.9,1.9,0,0,1,.63-.46,2,2,0,0,1,.77-.15h.06a2,2,0,0,1,.8.15,2,2,0,0,1,.58.41,2.27,2.27,0,0,1,.39.61,4.16,4.16,0,0,1,.24.73A6.7,6.7,0,0,1,32.68,76.31Zm-13.8.23a2.23,2.23,0,0,0,0-.3c0-.08,0-.12,0-.13,0-.17-.07-.32-.1-.44s0-.22-.07-.31,0-.16-.06-.23,0-.13,0-.19a6.42,6.42,0,0,0-1.15.43,3.49,3.49,0,0,0-.82.57,2,2,0,0,0-.48.67,1.43,1.43,0,0,0-.09.5,1.16,1.16,0,0,0,.28.78,1.45,1.45,0,0,0,.48.34,1.48,1.48,0,0,0,.59.12h0a1.06,1.06,0,0,0,.51-.11,1.48,1.48,0,0,0,.5-.37,1.61,1.61,0,0,0,.3-.45,2,2,0,0,0,.13-.46A3.44,3.44,0,0,0,18.88,76.54ZM25.63,78a2.2,2.2,0,0,0,.31-.3,1.37,1.37,0,0,0,.23-.37,1.29,1.29,0,0,0,.08-.45,1.58,1.58,0,0,0-.09-.52,1.43,1.43,0,0,0-.27-.46,1.23,1.23,0,0,0-.42-.32,1.13,1.13,0,0,0-.56-.13,1.79,1.79,0,0,0-.6.1,1.44,1.44,0,0,0-.46.29,1.37,1.37,0,0,0-.3.45,1.59,1.59,0,0,0-.1.59,1.09,1.09,0,0,0,.1.48,1.7,1.7,0,0,0,.26.38,2.11,2.11,0,0,0,.36.31l.38.23.16.07.16.07.22-.09.21-.11Zm6.42-1.19c0-.16,0-.33,0-.52a5.58,5.58,0,0,0-.08-.57,3.44,3.44,0,0,0-.15-.55,1.8,1.8,0,0,0-.27-.47,1.16,1.16,0,0,0-.4-.33,1.22,1.22,0,0,0-.56-.12,1.4,1.4,0,0,0-.6.12,1.25,1.25,0,0,0-.66.79,2,2,0,0,0-.08.53,1.35,1.35,0,0,0,.12.61,1.14,1.14,0,0,0,.34.38,1.6,1.6,0,0,0,.52.19,3.06,3.06,0,0,0,.63.06h.34l.33,0,.3,0Zm-7.18-3.59.71-.71-.72-.72-.7.71ZM40.25,55.86a1.23,1.23,0,0,1,0,.2,2.08,2.08,0,0,1-.05.39A2.19,2.19,0,0,1,40,57a1.76,1.76,0,0,1-.32.4,1.9,1.9,0,0,1-.44.3,2.28,2.28,0,0,1-.52.18,2.67,2.67,0,0,1-.56.06,2.59,2.59,0,0,1-.56,0,4.94,4.94,0,0,1-.55-.15l-.52-.22L36,57.22a6.08,6.08,0,0,1-1.16.24,12.07,12.07,0,0,1-1.41.08h-.91a2.87,2.87,0,0,1-.92-.14,1.34,1.34,0,0,1-.6-.46,1.64,1.64,0,0,1-.27-.73,6.28,6.28,0,0,1-.07-1V49.76h.68v5.42c0,.34,0,.62,0,.84a1,1,0,0,0,.16.51.64.64,0,0,0,.39.26,2.62,2.62,0,0,0,.71.08h.79a9.75,9.75,0,0,0,1.71-.13L35,56.63l-.14-.12a2.09,2.09,0,0,1-.64-.73,2,2,0,0,1-.22-1,2.12,2.12,0,0,1,.15-.81,1.92,1.92,0,0,1,.44-.64,1.83,1.83,0,0,1,.66-.4,2.23,2.23,0,0,1,.83-.15,1.68,1.68,0,0,1,.77.18,2,2,0,0,1,.61.46,2.41,2.41,0,0,1,.41.67,2.2,2.2,0,0,1-.15,1.91,2.42,2.42,0,0,1-.86.82,3.72,3.72,0,0,0,.64.26,2.32,2.32,0,0,0,.7.1,1.48,1.48,0,0,0,.79-.18,1.06,1.06,0,0,0,.27-.18,1.46,1.46,0,0,0,.17-.22,1.34,1.34,0,0,0,.14-.36,1.5,1.5,0,0,0,0-.22.8.8,0,0,0,0-.19.87.87,0,0,0-.09-.32,2.51,2.51,0,0,0-.22-.43A10.18,10.18,0,0,0,38.33,54c-.4-.44-.89-1-1.46-1.56l.49-.47.81.86.69.75c.21.24.39.46.55.66s.3.4.42.59a4.08,4.08,0,0,1,.28.55A2.08,2.08,0,0,1,40.25,55.86Zm-3.69.4a2,2,0,0,0,.41-.34,1.68,1.68,0,0,0,.27-.45,1.42,1.42,0,0,0,.11-.55,1.54,1.54,0,0,0-.11-.58,1.48,1.48,0,0,0-.3-.45,1.41,1.41,0,0,0-.4-.29,1.23,1.23,0,0,0-.46-.1,1.62,1.62,0,0,0-.66.12,1.16,1.16,0,0,0-.43.31,1,1,0,0,0-.25.42,1.59,1.59,0,0,0-.07.48,1.39,1.39,0,0,0,.14.63,1.72,1.72,0,0,0,.46.53,3.47,3.47,0,0,0,.37.26l.44.25A2.16,2.16,0,0,0,36.56,56.26ZM52.22,81.65l.68.68.67-.67L52.89,81ZM83.71,57.54h1.88l.52,0a2.92,2.92,0,0,0,.72-.18,2.19,2.19,0,0,0,.61-.35,1.43,1.43,0,0,0,.43-.56,1.19,1.19,0,0,0,.08-.2A1.41,1.41,0,0,0,88,56c.18.24.37.45.54.65a3.77,3.77,0,0,0,.58.49,2.68,2.68,0,0,0,.71.31,3.23,3.23,0,0,0,.74.1H92a1.49,1.49,0,0,0,.73-.18,1.66,1.66,0,0,0,.55-.47,2.12,2.12,0,0,0,.34-.65,2.71,2.71,0,0,0,.11-.74v0c0-.19,0-.39,0-.6a6,6,0,0,0-.09-.61,5.6,5.6,0,0,0-.12-.59c0-.19-.08-.36-.12-.52l-.65.2c0,.15.08.31.12.49s.08.35.11.54.06.37.09.56a5.29,5.29,0,0,1,0,.54v0A1.76,1.76,0,0,1,93,56a2,2,0,0,1-.2.44,1.12,1.12,0,0,1-.34.31,1,1,0,0,1-.46.14H90.75a2.57,2.57,0,0,1-.79-.1,1.9,1.9,0,0,1-.6-.31,3.06,3.06,0,0,1-.54-.54c-.17-.21-.37-.46-.59-.76-.44-.59-.88-1.17-1.3-1.75s-.85-1.14-1.27-1.72l4.74-2.14-.27-.61L85,51.25l-.13.5h0l.37.5.33.44.3.41.31.42.34.46.4.54a3.32,3.32,0,0,1,.23.37,1.51,1.51,0,0,1,.22.78v0a.87.87,0,0,1-.1.39,1,1,0,0,1-.33.39,1.87,1.87,0,0,1-.47.23,3.35,3.35,0,0,1-.55.11l-.55,0H80.88l0,.67c.37,0,.7,0,1,.07a4.78,4.78,0,0,1,.7.12,2.1,2.1,0,0,1,.48.15.93.93,0,0,1,.29.2.62.62,0,0,1,.14.25,1.37,1.37,0,0,1,0,.31.84.84,0,0,1-.13.44,1.16,1.16,0,0,1-.34.32,2,2,0,0,1-.48.23,5.29,5.29,0,0,1-.57.15c-.2,0-.4.06-.6.08l-.56,0H79.44a2.38,2.38,0,0,1-1.1-.26,2.21,2.21,0,0,1-.8-.75,2.61,2.61,0,0,1-.33-.8,4.3,4.3,0,0,1-.08-.78c0-.11,0-.23,0-.35a5.75,5.75,0,0,1,.24-1.21,7.66,7.66,0,0,1,.52-1.32l-.6-.29a12.57,12.57,0,0,0-.51,1.25,6.28,6.28,0,0,0-.28,1.12,5.17,5.17,0,0,0-.07.78,4.23,4.23,0,0,0,.06.7A3.29,3.29,0,0,0,77,59.23a2.82,2.82,0,0,0,1,1,2.92,2.92,0,0,0,1.42.34H80.8a7,7,0,0,0,.8,0,5.88,5.88,0,0,0,.77-.13,3.85,3.85,0,0,0,.7-.24,2.12,2.12,0,0,0,.56-.35,1.63,1.63,0,0,0,.37-.5,1.38,1.38,0,0,0,.14-.65A1.68,1.68,0,0,0,84,58,1.48,1.48,0,0,0,83.71,57.54ZM32.2,71.74l-.68-.68-.33.33-.34.34.68.69Zm6.21,4.7a4.49,4.49,0,0,1,.12,1.07v2.12a3.13,3.13,0,0,1-.25,1.27,2.46,2.46,0,0,1-.73.93,3.21,3.21,0,0,1-1.13.54,5.33,5.33,0,0,1-1.43.18h-.32v-.67H35a5.91,5.91,0,0,0,1.18-.13,2.45,2.45,0,0,0,.9-.38,1.7,1.7,0,0,0,.57-.72,2.7,2.7,0,0,0,.22-1.11H36.61a3.22,3.22,0,0,1-.88-.12,2.06,2.06,0,0,1-.74-.37,1.77,1.77,0,0,1-.51-.64,2,2,0,0,1-.19-.9,4.41,4.41,0,0,1,.12-1.06,2.34,2.34,0,0,1,.37-.83,1.71,1.71,0,0,1,.66-.56,2.31,2.31,0,0,1,1-.23,2.39,2.39,0,0,1,1,.23,1.82,1.82,0,0,1,.65.55A2.54,2.54,0,0,1,38.41,76.44Zm-.55,1.07a6.37,6.37,0,0,0-.08-.8,2,2,0,0,0-.24-.64,1.15,1.15,0,0,0-.43-.42,1.45,1.45,0,0,0-.7-.15,1.37,1.37,0,0,0-.7.16,1.18,1.18,0,0,0-.44.42,1.94,1.94,0,0,0-.24.64,4.84,4.84,0,0,0-.07.79,1.55,1.55,0,0,0,.13.64,1.15,1.15,0,0,0,.37.42,1.82,1.82,0,0,0,.55.23,3,3,0,0,0,.68.07h1.17Zm266.71-26-.72-.72-.69.71.7.72Zm2.14-1.74H306v7.78h.69Zm-3.21,10a3.32,3.32,0,0,0,.78-2.39v-3.5h-.67v3.5a2.7,2.7,0,0,1-.55,1.86,2.36,2.36,0,0,1-1.87.67h-.76v.67h.76A3.09,3.09,0,0,0,303.5,59.75Zm9.63,12.89-.72-.72-.7.71.71.72ZM313,59.18a3,3,0,0,0,.48.58,2.81,2.81,0,0,0,.61.43,2.68,2.68,0,0,0,.68.27,2.84,2.84,0,0,0,.72.09h1.39a5.09,5.09,0,0,0,.69,0,2.62,2.62,0,0,0,.63-.14,2.44,2.44,0,0,0,.56-.28,1.94,1.94,0,0,0,.47-.44,1.73,1.73,0,0,0,.27-.43,3.28,3.28,0,0,0,.17-.5,4.63,4.63,0,0,0,.09-.49,3.39,3.39,0,0,0,0-.43,1.93,1.93,0,0,0,0-.24.49.49,0,0,0-.08-.21.47.47,0,0,0-.19-.18,1.09,1.09,0,0,0-.34-.14l-.35-.1-.48-.13-.55-.14-.53-.15-.45-.11-.28-.08a2.45,2.45,0,0,1,0-.46,2.38,2.38,0,0,1,.11-.7,2.31,2.31,0,0,1,.59-1,2.5,2.5,0,0,1,.83-.53,2.72,2.72,0,0,1,1-.18,3.21,3.21,0,0,1,.9.13l.18-.64a2.62,2.62,0,0,0-.54-.12,3.27,3.27,0,0,0-.54,0h-.05a3.68,3.68,0,0,0-.58.05,3.58,3.58,0,0,0-1.17.46,4.66,4.66,0,0,0-.49.39,3.3,3.3,0,0,0-.49.64,2.77,2.77,0,0,0-.31.73,2.31,2.31,0,0,0-.1.59v.23a3,3,0,0,0,.1.78l.05.19,3.16.85a1.62,1.62,0,0,1,0,.22,1,1,0,0,1,0,.17,3,3,0,0,1-.06.42,2.74,2.74,0,0,1-.15.4,1.33,1.33,0,0,1-.22.34,1.77,1.77,0,0,1-.71.47,3.39,3.39,0,0,1-1.1.15h-1.35a2.4,2.4,0,0,1-1.14-.27A2.34,2.34,0,0,1,313.23,58a3.75,3.75,0,0,1-.09-.79c0-.11,0-.22,0-.33a6.15,6.15,0,0,1,.22-1.19,10.35,10.35,0,0,1,.51-1.31l-.6-.29a7.29,7.29,0,0,0-.81,2.92v.21a4.05,4.05,0,0,0,.1.92A3.24,3.24,0,0,0,313,59.18ZM295.61,47.65l-4.14,1.78,0,.56,4.4-1.91Zm26.87,2.11h-.68v7.78h.68ZM283,59.63l.68.68.68-.68-.69-.68ZM269.5,55.47a1.45,1.45,0,0,1,0-.35,2.26,2.26,0,0,1,.17-.8,2.47,2.47,0,0,1,.57-.83,3.82,3.82,0,0,1,1-.69,6.27,6.27,0,0,1,1.31-.5l-.14-.73.66-.18c.11.45.2.84.28,1.18s.15.64.21.91.08.36.12.52.07.33.11.49l.12.47c0,.16.08.32.13.5a1.91,1.91,0,0,0,.23.54,1.55,1.55,0,0,0,.32.39,1.67,1.67,0,0,0,.36.25,2.3,2.3,0,0,0,.38.15l.36.06.28,0h.93a4.17,4.17,0,0,0,.57-.06,1.11,1.11,0,0,0,.43-.17.76.76,0,0,0,.27-.32,1.38,1.38,0,0,0,.11-.51v-2h.67v2a1,1,0,0,0,.11.5.94.94,0,0,0,.27.32,1.13,1.13,0,0,0,.38.19,2,2,0,0,0,.42,0h2.48a1,1,0,0,0,.46-.14,1,1,0,0,0,.34-.31,1.6,1.6,0,0,0,.2-.44,1.76,1.76,0,0,0,.06-.46v0a5.29,5.29,0,0,0,0-.54,5,5,0,0,0-.09-.56c0-.19-.07-.37-.11-.54s-.08-.34-.11-.49l.65-.2c0,.16.07.33.12.52s.08.39.11.59a6,6,0,0,1,.09.61c0,.21,0,.41,0,.6v0a2.71,2.71,0,0,1-.11.74,2.12,2.12,0,0,1-.34.65,1.66,1.66,0,0,1-.55.47,1.49,1.49,0,0,1-.73.18h-2.48a2.26,2.26,0,0,1-.69-.11,1.74,1.74,0,0,1-.57-.31,1.18,1.18,0,0,1-.25-.25,1.7,1.7,0,0,1-.7.51,3,3,0,0,1-1,.16h-1a3.3,3.3,0,0,1-.72-.09,2.72,2.72,0,0,1-.7-.31,2.64,2.64,0,0,1-.65-.6,2.39,2.39,0,0,1-.21-.34,2.78,2.78,0,0,1-.16-.4,3,3,0,0,1-.42.63,1.52,1.52,0,0,1-.63.42,2.26,2.26,0,0,1-.87.18h-.29a1.64,1.64,0,0,1-.64-.2,1.9,1.9,0,0,1-.67-.53A1.75,1.75,0,0,1,269.5,55.47Zm.63-.36a1.31,1.31,0,0,0,.29.78,1.36,1.36,0,0,0,.48.34,1.48,1.48,0,0,0,.59.12h0a1.13,1.13,0,0,0,.52-.11,1.59,1.59,0,0,0,.5-.37,1.82,1.82,0,0,0,.29-.45A1.62,1.62,0,0,0,273,55a3.44,3.44,0,0,0,0-.42,2.23,2.23,0,0,0,0-.3.53.53,0,0,1,0-.13c0-.17-.08-.32-.1-.44s-.05-.22-.07-.31,0-.16-.06-.23a1.33,1.33,0,0,0-.05-.19,6.6,6.6,0,0,0-1.14.43,3.56,3.56,0,0,0-.83.57,2,2,0,0,0-.47.67A1.44,1.44,0,0,0,270.13,55.11Zm19.2-3.46-.72-.72-.7.71.71.72Zm-7.92,8.65.68-.68-.69-.68-.66.68Zm6.8-.55a3.33,3.33,0,0,0,.79-2.39v-.18a1.71,1.71,0,0,0,.54.27,2.3,2.3,0,0,0,.64.09h3.15a3.26,3.26,0,0,0,.89-.1,2.32,2.32,0,0,0,.59-.26,1.32,1.32,0,0,0,.37-.32,1.86,1.86,0,0,0,.19-.31,1.58,1.58,0,0,0,.11-.58v0a2,2,0,0,0-.14-.69,4.33,4.33,0,0,0-.93-1.41c-.52-.55-1-1-1.39-1.39s-.73-.66-1-.86l4.58-2-.27-.62-5.07,2.24-.07.57.2.16c.14.11.32.27.56.49s.53.47.86.79.69.68,1.07,1.09a3.68,3.68,0,0,1,.73,1,1.82,1.82,0,0,1,.18.66.79.79,0,0,1-.5.73,2.31,2.31,0,0,1-1,.18h-3.15a2,2,0,0,1-.41,0,1,1,0,0,1-.38-.19,1,1,0,0,1-.29-.32,1.09,1.09,0,0,1-.1-.5v-2h-.68v3.5a2.75,2.75,0,0,1-.54,1.86,2.38,2.38,0,0,1-1.88.67h-.76v.67h.76A3.06,3.06,0,0,0,288.21,59.75Zm-9.39-8.4-.72-.72-.7.71.71.72ZM396.51,73.46l-.68-.68-.33.33c-.1.1-.22.21-.34.34l.68.68Zm-3.09,5.41h-2a1.51,1.51,0,0,1-.41-.06.89.89,0,0,1-.38-.18,1,1,0,0,1-.28-.32,1.09,1.09,0,0,1-.11-.5v-2h-.67v2a1.21,1.21,0,0,1-.11.51.76.76,0,0,1-.27.32,1,1,0,0,1-.42.17,4.54,4.54,0,0,1-.57.06h-.94a2.62,2.62,0,0,1-.71-.08.64.64,0,0,1-.39-.26A1,1,0,0,1,386,78c0-.22,0-.5,0-.84V71.76h-.68v5.42a7.66,7.66,0,0,0,.07,1,1.72,1.72,0,0,0,.27.74,1.4,1.4,0,0,0,.6.45,2.76,2.76,0,0,0,.95.14h1a3,3,0,0,0,1-.16,1.6,1.6,0,0,0,.69-.51,1.48,1.48,0,0,0,.25.25,1.74,1.74,0,0,0,.57.31,2.26,2.26,0,0,0,.69.11h2a3,3,0,0,0,1-.16,1.6,1.6,0,0,0,.69-.51,1.48,1.48,0,0,0,.25.25,1.74,1.74,0,0,0,.57.31,2.26,2.26,0,0,0,.69.11H403v-.67H402a4.07,4.07,0,0,1-.61-.05,3.51,3.51,0,0,1-.58-.14,3.66,3.66,0,0,1-.53-.21,1.82,1.82,0,0,1-.41-.27,1.68,1.68,0,0,1-.49-.68,1.29,1.29,0,0,1-.08-.31c0-.09,0-.18,0-.24a1.42,1.42,0,0,1,.13-.59,1.7,1.7,0,0,1,.35-.45,1.66,1.66,0,0,1,.48-.29,1.49,1.49,0,0,1,.54-.11,1.41,1.41,0,0,1,.45.07,2.56,2.56,0,0,1,.43.17L402,76l.43.25.34-.58a5.55,5.55,0,0,1-.48-.29c-.16-.09-.32-.18-.49-.26a3.24,3.24,0,0,0-.52-.19,2.14,2.14,0,0,0-.58-.08,2.08,2.08,0,0,0-.82.17,2.17,2.17,0,0,0-.69.45,2.11,2.11,0,0,0-.48.67,1.92,1.92,0,0,0-.18.82,2.24,2.24,0,0,0,.08.57,2.36,2.36,0,0,0,.21.52,1.6,1.6,0,0,0,.32.45,2.36,2.36,0,0,0,.42.36h-3a1.51,1.51,0,0,1-.41-.06.89.89,0,0,1-.38-.18,1,1,0,0,1-.28-.32,1.09,1.09,0,0,1-.11-.5v-2h-.67v2a1.21,1.21,0,0,1-.11.51.76.76,0,0,1-.27.32,1,1,0,0,1-.42.17A4.54,4.54,0,0,1,393.42,78.87Zm11.54.67h.68V71.76H405Zm-16.28,2,.63.64.63-.63L389.3,81ZM328.16,56.36a1.6,1.6,0,0,1-.18-.75,2.28,2.28,0,0,1,.11-.7,2.85,2.85,0,0,1,.26-.59,3.49,3.49,0,0,1,.33-.49l.33-.4a1.68,1.68,0,0,1,.18-.21l.2-.22.19-.2.17-.17-.42-.48.49-.45.13.14.33.36.44.48.46.54q.27.3.51.6a6.07,6.07,0,0,1,.4.58,2.72,2.72,0,0,1,.27.58,1.81,1.81,0,0,1,.1.61,1.68,1.68,0,0,1-.18.77,1.86,1.86,0,0,1-.51.65,2.34,2.34,0,0,1-.71.39,2.64,2.64,0,0,1-.84.14,2.49,2.49,0,0,1-.87-.15,2.36,2.36,0,0,1-.71-.41A2.07,2.07,0,0,1,328.16,56.36Zm.49-.75a1,1,0,0,0,.12.48,1.12,1.12,0,0,0,.33.4,1.53,1.53,0,0,0,.52.28,1.72,1.72,0,0,0,.6.1,1.74,1.74,0,0,0,.61-.1,1.83,1.83,0,0,0,.5-.27,1.21,1.21,0,0,0,.34-.41,1.08,1.08,0,0,0,.12-.5,1.28,1.28,0,0,0-.07-.42,3.41,3.41,0,0,0-.21-.44,4.15,4.15,0,0,0-.35-.49c-.14-.18-.3-.37-.49-.59l-.47-.53-.16.17-.18.18-.17.19-.16.19-.28.34a3.81,3.81,0,0,0-.29.41,2.62,2.62,0,0,0-.22.48A1.55,1.55,0,0,0,328.65,55.61Zm69.89.59a6.28,6.28,0,0,1-.07-1V49.76h.68v5.42a6.54,6.54,0,0,0,0,.84,1,1,0,0,0,.16.51.64.64,0,0,0,.39.26,2.62,2.62,0,0,0,.71.08h.37a.69.69,0,0,0,.36-.09.85.85,0,0,0,.27-.29,2.18,2.18,0,0,0,.22-.51c.07-.2.13-.41.19-.63s.15-.53.24-.8a3,3,0,0,1,.35-.74A1.83,1.83,0,0,1,404,53a1.52,1.52,0,0,1,.78.21,2,2,0,0,1,.66.61,2.87,2.87,0,0,1,.4.78,2.91,2.91,0,0,1,.13.87,5.44,5.44,0,0,1,0,.57,5.23,5.23,0,0,1-.12.54,2.06,2.06,0,0,1-.21.48,1.48,1.48,0,0,1-.31.39,1.25,1.25,0,0,1-.41.26,1.53,1.53,0,0,1-.54.1,2.33,2.33,0,0,1-.53-.07,5.17,5.17,0,0,1-.55-.19l-.61-.28L402,56.9a1.29,1.29,0,0,1-1.16.64h-.49a2.87,2.87,0,0,1-.92-.14,1.34,1.34,0,0,1-.6-.46A1.64,1.64,0,0,1,398.54,56.2Zm3.73.09.65.33c.2.11.39.2.56.28a4,4,0,0,0,.48.17,1.24,1.24,0,0,0,.37.06h.05a.76.76,0,0,0,.35-.09.82.82,0,0,0,.3-.29,1.74,1.74,0,0,0,.22-.51,2.92,2.92,0,0,0,.08-.78,2.16,2.16,0,0,0-.1-.66,2.11,2.11,0,0,0-.3-.6,1.77,1.77,0,0,0-.14-.17,1.12,1.12,0,0,0-.2-.17,1,1,0,0,0-.25-.14.81.81,0,0,0-.31-.06,1.29,1.29,0,0,0-.59.13,1.21,1.21,0,0,0-.41.37,2.41,2.41,0,0,0-.29.58c-.08.24-.16.5-.24.79,0,.13-.07.26-.11.39A2.29,2.29,0,0,1,402.27,56.29Zm-56.72-4.84-.69-.68-.33.33-.34.34.68.68Zm2.21,0-.69-.68-.33.33-.33.34.68.68Zm46.54,22-.69-.68-.33.33-.33.34.67.68Zm-30.62-25.8-4.14,1.78,0,.56,4.4-1.91Zm14.5,3-.72-.72-.7.71.71.72Zm-143.77-.88h-.69v7.78h.69Zm-44.13,0h-.68v7.78h.68Zm-5.17.18-.68-.68-.68.68.69.68Zm.41,2.16.67-.67-.68-.69-.68.69Zm5.35,22,.68-.68-.67-.67-.68.68Zm1.8-2.18-.68-.68-.68.68.68.68ZM174.18,52.49l-.69-.68-.33.33-.33.34.67.69ZM162.76,73.41a4.61,4.61,0,0,1-.53.15,2.07,2.07,0,0,1-.53.08,1.32,1.32,0,0,1-.57-.12.55.55,0,0,1-.29-.3.51.51,0,0,1,0-.13.45.45,0,0,1,0-.11.85.85,0,0,1,.09-.22.81.81,0,0,1,.18-.19.61.61,0,0,1,.21-.11,1,1,0,0,1,.24,0,.91.91,0,0,1,.23,0l.22.07.19.07.12-.45-.25-.1-.27-.08a.74.74,0,0,0-.23,0h-.09a.87.87,0,0,0-.31,0,1,1,0,0,0-.36.17,1.33,1.33,0,0,0-.26.27,1,1,0,0,0-.17.33,1,1,0,0,0-.06.34.9.9,0,0,0,0,.28.79.79,0,0,0,.13.26,1,1,0,0,0,.2.22.75.75,0,0,0,.25.13l-.85.27c0,.1,0,.2,0,.28s0,.18,0,.29l2.86-.93ZM279,94.71c-.1.1-.21.22-.34.34l.68.69.67-.68-.68-.68ZM192.39,73.43l.68.67.68-.67-.68-.69ZM172,52.48l-.68-.68-.33.33-.34.34.68.68Zm12-1-.68-.67-.68.68.68.67Zm-25.36-.58-.72-.72-.69.71.7.72ZM263.07,73.11l-.34.34.68.68.67-.67-.68-.68Zm-70.2-15.78a5.87,5.87,0,0,0,.8.19,5.93,5.93,0,0,0,.84.06,4.38,4.38,0,0,0,.75-.06,2.25,2.25,0,0,0,.91-.35,1.45,1.45,0,0,0,.54-.64,1.33,1.33,0,0,0,.09-.76,1.89,1.89,0,0,0-.32-.79l-.71-1.07-.51-.77c-.14-.21-.25-.39-.35-.53s-.17-.25-.22-.34l-.15-.23a1.4,1.4,0,0,1-.1-.16l-.57.36.18.29,0,0a.85.85,0,0,1,.09.14l.19.29.34.51c.14.21.3.46.51.76s.43.66.72,1.08a1.51,1.51,0,0,1,.19.4c0,.11,0,.18,0,.23a.93.93,0,0,1,0,.29.87.87,0,0,1-.34.38,1.68,1.68,0,0,1-.61.21,3.61,3.61,0,0,1-.59,0h-.06a5.39,5.39,0,0,1-.71,0,6,6,0,0,1-.67-.15,2.73,2.73,0,0,1-.54-.24l-.29-.17-.35.57.29.17A3.26,3.26,0,0,0,192.87,57.33Zm83.84,22.21V71.76H276v7.78ZM246.28,59.18a2.43,2.43,0,0,0,.48.58,2.53,2.53,0,0,0,.6.43,3,3,0,0,0,.68.27,3,3,0,0,0,.72.09h1.39a5.12,5.12,0,0,0,.7,0,2.62,2.62,0,0,0,.63-.14,2.38,2.38,0,0,0,.55-.28,2,2,0,0,0,.48-.44,1.7,1.7,0,0,0,.26-.43,2.46,2.46,0,0,0,.17-.5,2.21,2.21,0,0,0,.09-.49,3.59,3.59,0,0,0,0-.43,1.94,1.94,0,0,0,0-.24.5.5,0,0,0-.26-.39,1.06,1.06,0,0,0-.35-.14l-.34-.1-.49-.13-.54-.14-.54-.15-.44-.11-.28-.08a2.45,2.45,0,0,1,0-.46,2.37,2.37,0,0,1,.1-.7,2.43,2.43,0,0,1,.6-1,2.41,2.41,0,0,1,.83-.53,2.72,2.72,0,0,1,1-.18,3.09,3.09,0,0,1,.89.13l.19-.64a2.86,2.86,0,0,0-.55-.12,3.23,3.23,0,0,0-.53,0h-.06a3.66,3.66,0,0,0-.57.05A3.07,3.07,0,0,0,251,53a2.67,2.67,0,0,0-.56.28,3.81,3.81,0,0,0-.49.39,3.36,3.36,0,0,0-.5.64,3.12,3.12,0,0,0-.3.73,2.31,2.31,0,0,0-.1.59v.23a3,3,0,0,0,.1.78l.05.19,3.16.85c0,.07,0,.15,0,.22s0,.11,0,.17a2,2,0,0,1-.07.42,1.9,1.9,0,0,1-.14.4,1.66,1.66,0,0,1-.22.34,1.84,1.84,0,0,1-.71.47,3.46,3.46,0,0,1-1.11.15h-1.34a2.4,2.4,0,0,1-1.14-.27,2.19,2.19,0,0,1-.83-.77,2.56,2.56,0,0,1-.33-.81,4.5,4.5,0,0,1-.08-.79c0-.11,0-.22,0-.33a5.48,5.48,0,0,1,.22-1.19,8,8,0,0,1,.51-1.31l-.61-.29a7.43,7.43,0,0,0-.8,2.92,1.48,1.48,0,0,0,0,.21,4.06,4.06,0,0,0,.11.92A3.24,3.24,0,0,0,246.28,59.18Zm8.87-3a7.66,7.66,0,0,1-.07-1V49.76h.69v5.42q0,.51,0,.84a1.1,1.1,0,0,0,.16.51.64.64,0,0,0,.39.26,2.62,2.62,0,0,0,.71.08h.79a9.6,9.6,0,0,0,1.71-.13l-.17-.11-.14-.12a2.19,2.19,0,0,1-.64-.73,2.15,2.15,0,0,1-.06-1.76,1.76,1.76,0,0,1,.43-.64,1.83,1.83,0,0,1,.66-.4,2.23,2.23,0,0,1,.83-.15,1.68,1.68,0,0,1,.77.18,2,2,0,0,1,.61.46,2.41,2.41,0,0,1,.41.67,2.2,2.2,0,0,1-.15,1.91,2.42,2.42,0,0,1-.86.82,3.72,3.72,0,0,0,.64.26,2.32,2.32,0,0,0,.7.1,1.91,1.91,0,0,0,.43,0,1.5,1.5,0,0,0,.36-.14.91.91,0,0,0,.27-.18,1.46,1.46,0,0,0,.17-.22,1.34,1.34,0,0,0,.14-.36,1.5,1.5,0,0,0,0-.22,1.58,1.58,0,0,0,0-.19,1.62,1.62,0,0,0-.09-.32,3.74,3.74,0,0,0-.23-.43,9.19,9.19,0,0,0-.93-1.18l-1.45-1.56.48-.47.81.86.69.75c.21.24.39.46.55.66s.3.4.42.59a3.18,3.18,0,0,1,.28.55,2.11,2.11,0,0,1,.15.53c0,.06,0,.13,0,.2a2.08,2.08,0,0,1-.05.39,2.19,2.19,0,0,1-.19.51,1.52,1.52,0,0,1-.32.4,1.9,1.9,0,0,1-.44.3,2.13,2.13,0,0,1-.52.18,2.88,2.88,0,0,1-1.12,0,5.44,5.44,0,0,1-.54-.15l-.53-.22-.53-.26a6.08,6.08,0,0,1-1.16.24,11.94,11.94,0,0,1-1.41.08h-.91a2.87,2.87,0,0,1-.92-.14,1.34,1.34,0,0,1-.6-.46A1.64,1.64,0,0,1,255.15,56.2Zm4.51-.21a3.47,3.47,0,0,0,.37.26l.44.25a2.47,2.47,0,0,0,.49-.24,2.18,2.18,0,0,0,.4-.34,1.46,1.46,0,0,0,.27-.45,1.42,1.42,0,0,0,.11-.55,1.54,1.54,0,0,0-.11-.58,1.36,1.36,0,0,0-.7-.74,1.23,1.23,0,0,0-.46-.1,1.62,1.62,0,0,0-.66.12,1.16,1.16,0,0,0-.43.31,1,1,0,0,0-.25.42,2,2,0,0,0-.07.48,1.28,1.28,0,0,0,.15.63A1.56,1.56,0,0,0,259.66,56Zm1.19,17.11-.33.34.67.68.68-.67-.69-.68ZM231.2,59.75a3.32,3.32,0,0,0,.78-2.39v-3.5h-.67v3.5a2.7,2.7,0,0,1-.55,1.86,2.36,2.36,0,0,1-1.87.67h-.76v.67h.76A3.09,3.09,0,0,0,231.2,59.75Zm14.62,13.1.71.72.71-.71-.72-.72Zm-23.5-21.2-.72-.72-.7.71.71.72Zm-68.38-1.1-.72-.72-.7.71.71.72Zm82.42,5.86a2.13,2.13,0,0,1-.19-.9,4.41,4.41,0,0,1,.12-1.06,2.34,2.34,0,0,1,.37-.83,1.71,1.71,0,0,1,.66-.56,2.31,2.31,0,0,1,1-.23,2.26,2.26,0,0,1,1,.23,1.7,1.7,0,0,1,.66.55,2.35,2.35,0,0,1,.38.83,4.49,4.49,0,0,1,.12,1.07v2.12a3.13,3.13,0,0,1-.25,1.27,2.54,2.54,0,0,1-.72.93,3.34,3.34,0,0,1-1.14.54,5.33,5.33,0,0,1-1.43.18h-.31v-.67h.31a5.91,5.91,0,0,0,1.18-.13,2.45,2.45,0,0,0,.9-.38,1.7,1.7,0,0,0,.57-.72,2.7,2.7,0,0,0,.22-1.11h-1.25a3.22,3.22,0,0,1-.88-.12,2.15,2.15,0,0,1-.74-.37A1.77,1.77,0,0,1,236.36,56.41Zm.48-.9a1.41,1.41,0,0,0,.14.64,1,1,0,0,0,.36.42,1.82,1.82,0,0,0,.55.23,3,3,0,0,0,.68.07h1.17V55.51a6.37,6.37,0,0,0-.08-.8,2,2,0,0,0-.24-.64,1.09,1.09,0,0,0-.43-.42,1.45,1.45,0,0,0-.7-.15,1.37,1.37,0,0,0-.7.16,1.18,1.18,0,0,0-.44.42,1.94,1.94,0,0,0-.24.64A4.84,4.84,0,0,0,236.84,55.51Zm-136.95,4-.64-.64-.62.63.63.64ZM319.3,103.09l-.35-.34-.68.68.69.68.68-.68C319.51,103.31,319.4,103.2,319.3,103.09Zm-2.55-23.55h-1.93a7.39,7.39,0,0,1-1.26-.1,5.59,5.59,0,0,1-1.14-.28,6,6,0,0,1-1.18.28,8.61,8.61,0,0,1-1.38.1h-3.92a1.85,1.85,0,0,1-.67-.12,1.74,1.74,0,0,1-.55-.34,2.3,2.3,0,0,1-.2-.22,2.14,2.14,0,0,1-.17-.3,1.57,1.57,0,0,1-.13-.4,2,2,0,0,1-.06-.5,2.77,2.77,0,0,1,0-.39c0-.14,0-.28.07-.42l.09-.41q0-.19.09-.36l.07-.25c0-.07,0-.11,0-.11l.63.2,0,.09-.07.23c0,.09,0,.2-.08.32s-.06.25-.08.38-.05.25-.07.38a2.14,2.14,0,0,0,0,.34,1.61,1.61,0,0,0,.1.57,1.12,1.12,0,0,0,.26.37,1,1,0,0,0,.35.21,1.34,1.34,0,0,0,.4.06h3.92a8.94,8.94,0,0,0,1.61-.14,3,3,0,0,1-.45-.35,1.88,1.88,0,0,1-.37-.43,2,2,0,0,1-.24-.49,1.67,1.67,0,0,1-.09-.55,2.38,2.38,0,0,1,.16-.85,2.05,2.05,0,0,1,.44-.67,2.23,2.23,0,0,1,.67-.44,2.28,2.28,0,0,1,.8-.14h.11a1.83,1.83,0,0,1,.76.17,1.9,1.9,0,0,1,.63.46,2,2,0,0,1,.42.68,2,2,0,0,1,.16.79,1.88,1.88,0,0,1-.29,1,2.71,2.71,0,0,1-.83.82,7.8,7.8,0,0,0,1.47.14h1.93a4.54,4.54,0,0,0,.57-.06,1.11,1.11,0,0,0,.43-.17.94.94,0,0,0,.27-.32,1.4,1.4,0,0,0,.1-.51v-2h.67v2a.94.94,0,0,0,.39.82.89.89,0,0,0,.38.18,1.52,1.52,0,0,0,.42.06h3.76a2.31,2.31,0,0,0,1-.18.75.75,0,0,0,.49-.73,1.72,1.72,0,0,0-.17-.66,3.68,3.68,0,0,0-.73-1c-.38-.41-.74-.78-1.07-1.09s-.62-.58-.86-.79-.42-.38-.56-.49a1.24,1.24,0,0,0-.21-.16l.08-.57L326.77,71l.27.62-4.58,2c.24.2.57.49,1,.86s.87.84,1.39,1.39a4.33,4.33,0,0,1,.93,1.41,2,2,0,0,1,.14.69v0a1.58,1.58,0,0,1-.11.58,2.9,2.9,0,0,1-.19.31,1.32,1.32,0,0,1-.37.32,2.4,2.4,0,0,1-.6.26,3.18,3.18,0,0,1-.88.1H320a2.28,2.28,0,0,1-.7-.11,1.85,1.85,0,0,1-.57-.31,1.12,1.12,0,0,1-.24-.25,1.7,1.7,0,0,1-.7.51A3,3,0,0,1,316.75,79.54ZM313.17,78a1.77,1.77,0,0,0,.31-.3,1.16,1.16,0,0,0,.23-.37,1.1,1.1,0,0,0,.09-.45,1.37,1.37,0,0,0-.1-.52,1.61,1.61,0,0,0-.26-.46,1.38,1.38,0,0,0-.43-.32,1.13,1.13,0,0,0-.56-.13,1.89,1.89,0,0,0-.6.1,1.44,1.44,0,0,0-.46.29,1.34,1.34,0,0,0-.29.45,1.59,1.59,0,0,0-.11.59,1.25,1.25,0,0,0,.1.48,1.46,1.46,0,0,0,.27.38,1.73,1.73,0,0,0,.35.31l.39.23.15.07.17.07.22-.09.2-.11Zm6.18,26.83.68.68.68-.69-.68-.67Zm-3.66-23.21.68.68.67-.67-.68-.69Zm2.22,0,.68.68.68-.67-.69-.68Zm2.56,21.75.67.68.69-.69-.68-.67Zm9.83.21.68.68.67-.68-.68-.68Zm5.33-27.18a4.49,4.49,0,0,1,.12,1.07v2.12a3.13,3.13,0,0,1-.25,1.27,2.46,2.46,0,0,1-.73.93,3.21,3.21,0,0,1-1.13.54,5.38,5.38,0,0,1-1.43.18h-.31v-.67h.31a5.91,5.91,0,0,0,1.18-.13,2.45,2.45,0,0,0,.9-.38,1.7,1.7,0,0,0,.57-.72,2.56,2.56,0,0,0,.21-1.11h-1.24a3.22,3.22,0,0,1-.88-.12,2.06,2.06,0,0,1-.74-.37,1.77,1.77,0,0,1-.51-.64,2,2,0,0,1-.19-.9,4.41,4.41,0,0,1,.12-1.06,2.34,2.34,0,0,1,.37-.83,1.71,1.71,0,0,1,.66-.56,2.31,2.31,0,0,1,1-.23,2.39,2.39,0,0,1,1,.23,1.82,1.82,0,0,1,.65.55A2.35,2.35,0,0,1,335.63,76.44Zm-.56,1.07a5,5,0,0,0-.07-.8,2,2,0,0,0-.24-.64,1.15,1.15,0,0,0-.43-.42,1.45,1.45,0,0,0-.7-.15,1.37,1.37,0,0,0-.7.16,1.18,1.18,0,0,0-.44.42,1.94,1.94,0,0,0-.24.64,4.84,4.84,0,0,0-.07.79,1.55,1.55,0,0,0,.13.64,1.15,1.15,0,0,0,.37.42,1.82,1.82,0,0,0,.55.23,3,3,0,0,0,.68.07h1.16Zm3.31-21a1.32,1.32,0,0,0,.11-.55,1.48,1.48,0,0,0,0-.21,2,2,0,0,0-.32-.79c-.28-.41-.51-.77-.71-1.07l-.51-.77-.35-.53-.23-.34-.14-.23a1.4,1.4,0,0,1-.1-.16l-.57.36.18.29,0,0,.1.14L336,53l.33.51.51.76c.2.31.44.66.72,1.08a1.25,1.25,0,0,1,.19.4,1.43,1.43,0,0,1,0,.23.72.72,0,0,1-.06.29.81.81,0,0,1-.34.38,1.63,1.63,0,0,1-.6.21,3.7,3.7,0,0,1-.59,0h-.07a5.52,5.52,0,0,1-.71,0,6.38,6.38,0,0,1-.66-.15,2.83,2.83,0,0,1-.55-.24L334,56.3l-.34.57.29.17a3,3,0,0,0,.65.29,5.72,5.72,0,0,0,.79.19,6.15,6.15,0,0,0,.84.06,4.22,4.22,0,0,0,.75-.06,2.3,2.3,0,0,0,.92-.35A1.49,1.49,0,0,0,338.38,56.53Zm-246.46,25,.63.64.64-.63-.65-.64ZM341.61,57.36v-.18a1.88,1.88,0,0,0,.55.27,2.25,2.25,0,0,0,.64.09h1.86a3,3,0,0,0,1-.16,1.63,1.63,0,0,0,.7-.51,1.48,1.48,0,0,0,.25.25,1.74,1.74,0,0,0,.57.31,2.26,2.26,0,0,0,.69.11H349a1.89,1.89,0,0,0,.67-.12,1.84,1.84,0,0,0,.57-.34l.13-.12.12-.16.08.11.08.09a1.8,1.8,0,0,0,.6.4,2.25,2.25,0,0,0,.83.14,1.77,1.77,0,0,0,1.47-.74,2.36,2.36,0,0,0,.29.33,1.85,1.85,0,0,0,.34.23,1.64,1.64,0,0,0,.41.13,2.59,2.59,0,0,0,.51,0,1.76,1.76,0,0,0,.66-.12,1.79,1.79,0,0,0,.56-.34l.12-.12a1,1,0,0,0,.13-.16,1.05,1.05,0,0,0,.29.34,1.33,1.33,0,0,0,.38.23,2.42,2.42,0,0,0,.46.13,2.74,2.74,0,0,0,.5,0h3.16a3.26,3.26,0,0,0,.89-.1,2.17,2.17,0,0,0,.59-.26,1.32,1.32,0,0,0,.37-.32,1.36,1.36,0,0,0,.19-.31,1.58,1.58,0,0,0,.11-.58v0a2.2,2.2,0,0,0-.13-.69,4.38,4.38,0,0,0-.94-1.41c-.52-.55-1-1-1.39-1.39s-.72-.66-1-.86l4.57-2-.27-.62-5.07,2.24-.07.57.2.16c.14.11.33.27.57.49s.52.47.85.79.69.68,1.08,1.09a3.83,3.83,0,0,1,.72,1,1.82,1.82,0,0,1,.18.66.79.79,0,0,1-.07.32.8.8,0,0,1-.42.41,2.39,2.39,0,0,1-1,.18h-3.15c-.87,0-1.3-.42-1.3-1.22V53.86h-.67v1.79a1.35,1.35,0,0,1-.11.57,1,1,0,0,1-.26.38,1,1,0,0,1-.36.2,1.12,1.12,0,0,1-.4.07,1.25,1.25,0,0,1-.94-.31,1.36,1.36,0,0,1-.28-.91V53.86h-.67v1.79a1.35,1.35,0,0,1-.1.57,1,1,0,0,1-.25.38,1.07,1.07,0,0,1-.36.2,1.12,1.12,0,0,1-.4.07,1.21,1.21,0,0,1-.93-.31,1.31,1.31,0,0,1-.28-.91V53.86h-.67v1.79a1.35,1.35,0,0,1-.11.57,1,1,0,0,1-.28.38,1,1,0,0,1-.37.2,1.18,1.18,0,0,1-.41.07h-1.21a2,2,0,0,1-.42,0,1,1,0,0,1-.37-.19.87.87,0,0,1-.28-.32,1,1,0,0,1-.11-.5v-2H346v2a1.38,1.38,0,0,1-.11.51.76.76,0,0,1-.27.32,1.06,1.06,0,0,1-.42.17,4.51,4.51,0,0,1-.58.06H342.8a2,2,0,0,1-.41,0,1.18,1.18,0,0,1-.39-.19.94.94,0,0,1-.39-.82v-2h-.67v3.5a2.75,2.75,0,0,1-.54,1.86,2.38,2.38,0,0,1-1.88.67h-.76v.67h.76a3.06,3.06,0,0,0,2.31-.81A3.32,3.32,0,0,0,341.61,57.36ZM288.05,79.8v-8h-.67v8a3,3,0,0,1-.11.86,1.47,1.47,0,0,1-.31.61,1.55,1.55,0,0,1-.71.45,3.66,3.66,0,0,1-1.12.15h-.4a1.92,1.92,0,0,1-.92-.22,1.69,1.69,0,0,1-.67-.63,2.39,2.39,0,0,1-.34-1.31c0-.09,0-.19,0-.29a5.9,5.9,0,0,1,.62-2.08l-.61-.29a7.36,7.36,0,0,0-.49,1.29,5.2,5.2,0,0,0-.2,1.19v.17a3.2,3.2,0,0,0,.1.83,2.58,2.58,0,0,0,.35.85,2.35,2.35,0,0,0,.91.86,2.59,2.59,0,0,0,1.24.31h.4c.23,0,.45,0,.67,0a3.21,3.21,0,0,0,.63-.14,2.37,2.37,0,0,0,.56-.26,2,2,0,0,0,.48-.4,2.23,2.23,0,0,0,.44-.82A3.9,3.9,0,0,0,288.05,79.8Zm8.38,1.32-.34-.34-.68.67.68.69.68-.69Zm.62-1.58h-3v.09a3.13,3.13,0,0,1-.25,1.27,2.54,2.54,0,0,1-.72.93,3.34,3.34,0,0,1-1.14.54,5.33,5.33,0,0,1-1.43.18h-.31v-.67h.31a5.91,5.91,0,0,0,1.18-.13,2.45,2.45,0,0,0,.9-.38,1.7,1.7,0,0,0,.57-.72,2.7,2.7,0,0,0,.22-1.11h-1.25a3.22,3.22,0,0,1-.88-.12,2.15,2.15,0,0,1-.74-.37,1.77,1.77,0,0,1-.51-.64,2.13,2.13,0,0,1-.19-.9,4.41,4.41,0,0,1,.12-1.06,2.34,2.34,0,0,1,.37-.83,1.71,1.71,0,0,1,.66-.56,2.31,2.31,0,0,1,1-.23,2.39,2.39,0,0,1,1,.23,1.82,1.82,0,0,1,.65.55,2.35,2.35,0,0,1,.38.83,4.49,4.49,0,0,1,.12,1.07v1.36h3a1,1,0,0,0,.46-.14,1.12,1.12,0,0,0,.34-.31,2,2,0,0,0,.2-.44,1.76,1.76,0,0,0,.06-.46v0a5.29,5.29,0,0,0,0-.54,5,5,0,0,0-.09-.56c0-.19-.07-.37-.11-.54s-.08-.34-.12-.49l.65-.2c0,.16.08.33.12.52a5.6,5.6,0,0,1,.12.59,6,6,0,0,1,.09.61c0,.21,0,.41,0,.6v0a2.71,2.71,0,0,1-.11.74,2.12,2.12,0,0,1-.34.65,1.66,1.66,0,0,1-.55.47A1.49,1.49,0,0,1,297.05,79.54Zm-3.66-2a6.37,6.37,0,0,0-.08-.8,2.3,2.3,0,0,0-.23-.64,1.18,1.18,0,0,0-.44-.42,1.45,1.45,0,0,0-.7-.15,1.37,1.37,0,0,0-.7.16,1.18,1.18,0,0,0-.44.42,1.94,1.94,0,0,0-.24.64,4.88,4.88,0,0,0-.06.79,1.41,1.41,0,0,0,.13.64,1,1,0,0,0,.36.42,1.82,1.82,0,0,0,.55.23,3,3,0,0,0,.68.07h1.17Zm4.22,3.93.67.67.68-.68-.68-.67Zm-6.41,19.92a2.75,2.75,0,0,1-.54,1.86,2.38,2.38,0,0,1-1.88.67H288v.67h.76a3.06,3.06,0,0,0,2.31-.81,3.33,3.33,0,0,0,.79-2.39v-3.5h-.68Zm-2.9-7.6h-.68v7.78h.68Zm9.54-10.88-.67-.67-.68.68.67.68Zm9.51,20.61.67.68.68-.69-.67-.67Zm3.13-4.38-1,.72c-.31.22-.62.43-.93.61a7.13,7.13,0,0,1-1,.47,6.18,6.18,0,0,1-1.1.35,11.32,11.32,0,0,1-1.35.21c-.45,0-1.06.06-1.81.07h-.23v0a2.53,2.53,0,0,1-.68-.08,2.93,2.93,0,0,1-.7-.31,2.47,2.47,0,0,1-.65-.6,2.39,2.39,0,0,1-.21-.34c-.06-.13-.12-.26-.17-.4a2.66,2.66,0,0,1-.42.63,1.55,1.55,0,0,1-.62.42,2.35,2.35,0,0,1-.88.18h-.29a1.69,1.69,0,0,1-.64-.2,1.78,1.78,0,0,1-.66-.53,1.76,1.76,0,0,1-.36-.81,2.16,2.16,0,0,1,0-.35,2.23,2.23,0,0,1,.16-.8,2.47,2.47,0,0,1,.57-.83,4.07,4.07,0,0,1,1-.69,6.27,6.27,0,0,1,1.31-.5l-.15-.73.67-.18c.1.45.2.84.27,1.18s.15.64.21.91.09.36.12.52l.12.49c0,.16.07.31.11.47s.09.32.13.5a2.25,2.25,0,0,0,.23.54,2.08,2.08,0,0,0,.32.39,1.72,1.72,0,0,0,.37.25,2,2,0,0,0,.38.15l.35.06.28,0h.09c.67,0,1.2,0,1.61-.05a8,8,0,0,0,1.15-.16,6.65,6.65,0,0,0,1-.27,6.87,6.87,0,0,0,.88-.38,9.83,9.83,0,0,0,.87-.51l.95-.62-.78-.3-.79-.3L307.4,98l-.68-.24c-.2-.06-.39-.12-.55-.15a1.56,1.56,0,0,0-.36-.06.86.86,0,0,0-.62.27,1.54,1.54,0,0,0-.4.76l-.65-.17a2.34,2.34,0,0,1,.23-.59,2,2,0,0,1,.36-.49,1.58,1.58,0,0,1,.48-.33,1.46,1.46,0,0,1,.6-.12,2.15,2.15,0,0,1,.44.06l.59.17c.21.06.45.14.69.23l.73.28.71.29.63.26.49.2.29.12Zm-10.17-.57a2,2,0,0,0,0-.3c0-.08,0-.12,0-.13,0-.17-.07-.32-.1-.44s-.05-.22-.07-.31,0-.16,0-.23,0-.13-.05-.19a6,6,0,0,0-1.14.43,3.56,3.56,0,0,0-.83.57,1.83,1.83,0,0,0-.47.67,1.24,1.24,0,0,0-.1.5,1.94,1.94,0,0,0,0,.24,1.14,1.14,0,0,0,.26.54,1.39,1.39,0,0,0,.49.34,1.43,1.43,0,0,0,.58.12h0a1.06,1.06,0,0,0,.51-.11,1.39,1.39,0,0,0,.5-.37,1.61,1.61,0,0,0,.3-.45,1.59,1.59,0,0,0,.13-.46A2.27,2.27,0,0,0,300.31,98.54Zm5.86,4.64-.34-.35-.68.68.68.68.69-.68Zm.06,1.76.67.68.68-.69-.67-.67Zm6.8-3.58a2.7,2.7,0,0,1-.55,1.86,2.36,2.36,0,0,1-1.87.67h-.76v.67h.76a3.09,3.09,0,0,0,2.31-.81,3.32,3.32,0,0,0,.78-2.39v-3.5H313Zm19.5,2.27.67.68.68-.68-.69-.68Zm50.34-24.27a2.7,2.7,0,0,1-.55,1.86,2.36,2.36,0,0,1-1.87.67h-.76v.67h.76a3.05,3.05,0,0,0,2.3-.81,3.28,3.28,0,0,0,.79-2.39v-3.5h-.67ZM363.4,72.85l.71.72.71-.71-.72-.72Zm18.29,28.51a1.49,1.49,0,0,1-.73.18H378.7a3.21,3.21,0,0,1-.71-.09,2.76,2.76,0,0,1-.7-.31,2.47,2.47,0,0,1-.65-.6,4,4,0,0,1-.22-.34c-.06-.13-.11-.26-.16-.4a2.66,2.66,0,0,1-.42.63,1.52,1.52,0,0,1-.63.42,2.26,2.26,0,0,1-.87.18h-.29a1.69,1.69,0,0,1-.64-.2,1.78,1.78,0,0,1-.66-.53,1.66,1.66,0,0,1-.36-.81,2.16,2.16,0,0,1,0-.35,2.23,2.23,0,0,1,.16-.8,2.47,2.47,0,0,1,.57-.83,4,4,0,0,1,1-.69,6.59,6.59,0,0,1,1.32-.5l-.15-.73.67-.18c.1.45.19.84.27,1.18l.21.91c0,.18.09.36.12.52s.07.33.11.49l.12.47c0,.16.08.32.13.5a2.25,2.25,0,0,0,.23.54,1.76,1.76,0,0,0,.32.39,1.72,1.72,0,0,0,.37.25,1.77,1.77,0,0,0,.38.15l.35.06.28,0H381a1,1,0,0,0,.46-.14,1,1,0,0,0,.34-.31,1.6,1.6,0,0,0,.2-.44,1.76,1.76,0,0,0,.06-.46v0a5.29,5.29,0,0,0,0-.54,5,5,0,0,0-.09-.56c0-.19-.07-.37-.11-.54s-.08-.34-.11-.49l.65-.2c0,.16.07.33.12.52s.08.39.11.59a6,6,0,0,1,.09.61,4.28,4.28,0,0,1,.05.6v0a2.71,2.71,0,0,1-.11.74,2.12,2.12,0,0,1-.34.65A1.66,1.66,0,0,1,381.69,101.36Zm-5.81-2.82a2.23,2.23,0,0,0,0-.3c0-.08,0-.12,0-.13,0-.17-.07-.32-.1-.44s-.05-.22-.07-.31,0-.16-.05-.23a1.33,1.33,0,0,1-.05-.19,6,6,0,0,0-1.14.43,3.36,3.36,0,0,0-.83.57,1.83,1.83,0,0,0-.47.67,1.24,1.24,0,0,0-.1.5,1.16,1.16,0,0,0,.28.78,1.39,1.39,0,0,0,.49.34,1.43,1.43,0,0,0,.58.12h0a1.06,1.06,0,0,0,.51-.11,1.48,1.48,0,0,0,.5-.37,1.61,1.61,0,0,0,.3-.45,2,2,0,0,0,.13-.46A3.44,3.44,0,0,0,375.88,98.54Zm3.28,5.08.67.68.68-.68-.69-.68Zm-6.11-21.43a2.91,2.91,0,0,0,.69.27,2.84,2.84,0,0,0,.72.09h1.39a5.09,5.09,0,0,0,.69,0,2.62,2.62,0,0,0,.63-.14,2.44,2.44,0,0,0,.56-.28,1.94,1.94,0,0,0,.47-.44,1.73,1.73,0,0,0,.27-.43,3,3,0,0,0,.17-.5,4.63,4.63,0,0,0,.09-.49,3.39,3.39,0,0,0,0-.43,1.93,1.93,0,0,0,0-.24.49.49,0,0,0-.08-.21.47.47,0,0,0-.19-.18,1.09,1.09,0,0,0-.34-.14l-.35-.1-.49-.13-.54-.15-.53-.14-.45-.11-.28-.08a2.45,2.45,0,0,1,0-.46,2.38,2.38,0,0,1,.11-.7,2.31,2.31,0,0,1,.59-1,2.5,2.5,0,0,1,.83-.53,2.72,2.72,0,0,1,1-.18,3.16,3.16,0,0,1,.9.13l.18-.64a2.62,2.62,0,0,0-.54-.12,3.27,3.27,0,0,0-.54,0h-.06a3.66,3.66,0,0,0-.57,0,3.28,3.28,0,0,0-.61.18,2.93,2.93,0,0,0-.56.28,4.66,4.66,0,0,0-.49.39,3.3,3.3,0,0,0-.49.64,2.77,2.77,0,0,0-.31.73,2.31,2.31,0,0,0-.1.59v.23a3,3,0,0,0,.1.78l.05.19,3.16.85a1.62,1.62,0,0,1,0,.22,1,1,0,0,1,0,.17,3,3,0,0,1-.06.42,2.74,2.74,0,0,1-.15.4,1.33,1.33,0,0,1-.22.34,1.77,1.77,0,0,1-.71.47,3.44,3.44,0,0,1-1.1.15H374.5a2.4,2.4,0,0,1-1.14-.27A2.34,2.34,0,0,1,372.21,80a3.75,3.75,0,0,1-.09-.79c0-.11,0-.22,0-.33a6.15,6.15,0,0,1,.22-1.19,9,9,0,0,1,.51-1.31l-.6-.29a7.29,7.29,0,0,0-.81,2.92c0,.07,0,.14,0,.21a4.06,4.06,0,0,0,.11.92,3.24,3.24,0,0,0,.42,1,2.9,2.9,0,0,0,1.08,1ZM381.4,59l-.66.68.68.68.67-.67Zm10.43,42.09a1.91,1.91,0,0,1-.31.38,1.29,1.29,0,0,1-.42.26,1.43,1.43,0,0,1-.53.1,2.5,2.5,0,0,1-.54-.07,5,5,0,0,1-.54-.19,6.5,6.5,0,0,1-.61-.28l-.71-.36a1.32,1.32,0,0,1-1.17.64h-.49a2.92,2.92,0,0,1-.92-.14,1.34,1.34,0,0,1-.6-.46,1.76,1.76,0,0,1-.27-.73,7.67,7.67,0,0,1-.06-1V93.76h.68v5.42q0,.51,0,.84a1.1,1.1,0,0,0,.16.51.64.64,0,0,0,.39.26,2.67,2.67,0,0,0,.71.08H387a.69.69,0,0,0,.36-.09.85.85,0,0,0,.27-.29,2.18,2.18,0,0,0,.23-.51q.09-.3.18-.63c.08-.27.15-.53.24-.8a2.82,2.82,0,0,1,.36-.74,1.81,1.81,0,0,1,1.57-.82,1.58,1.58,0,0,1,.79.21,2.07,2.07,0,0,1,.65.61,2.62,2.62,0,0,1,.4.78,2.93,2.93,0,0,1,.14.87,3.64,3.64,0,0,1,0,.57,2.62,2.62,0,0,1-.12.54A3,3,0,0,1,391.83,101.06Zm-.31-1.6a2.17,2.17,0,0,0-.11-.66,2.11,2.11,0,0,0-.3-.6A1,1,0,0,0,391,98a1,1,0,0,0-.19-.17,1.3,1.3,0,0,0-.26-.14.81.81,0,0,0-.31-.06,1.32,1.32,0,0,0-.59.13,1.21,1.21,0,0,0-.41.37,2.41,2.41,0,0,0-.28.58c-.08.24-.16.5-.24.79,0,.13-.08.26-.11.39l-.12.37.65.33.55.28a4,4,0,0,0,.48.17,1.24,1.24,0,0,0,.37.06h.06a.76.76,0,0,0,.64-.38,1.51,1.51,0,0,0,.22-.51A2.88,2.88,0,0,0,391.52,99.46Zm14.47-.3a5.34,5.34,0,0,0-.09-.53c0-.18-.07-.36-.11-.53l-.11-.45c0-.14-.07-.25-.1-.34a1.27,1.27,0,0,0,0-.15l-.64.2a.48.48,0,0,0,0,.12c0,.08.05.18.08.31s.07.27.11.43.07.32.11.49.06.34.08.5a3.77,3.77,0,0,1,0,.44,1.41,1.41,0,0,1-.11.57,1.16,1.16,0,0,1-.26.37,1,1,0,0,1-.36.21,1.44,1.44,0,0,1-.4.06h0c-.87,0-1.31-.42-1.31-1.22V97.86h-.67v1.79a1.35,1.35,0,0,1-.1.57,1,1,0,0,1-.65.58,1.22,1.22,0,0,1-.41.07c-.87,0-1.31-.42-1.31-1.22V97.86h-.67v1.79a1.21,1.21,0,0,1-.11.57,1.09,1.09,0,0,1-.27.38,1.07,1.07,0,0,1-.38.2,1.12,1.12,0,0,1-.4.07h-1.09a1.45,1.45,0,0,1-.41-.06,1,1,0,0,1-.39-.18.94.94,0,0,1-.39-.82v-2H395v3.5a2.75,2.75,0,0,1-.54,1.86,2.38,2.38,0,0,1-1.88.67h-.76v.67h.76a3.06,3.06,0,0,0,2.31-.81,3.32,3.32,0,0,0,.78-2.39v-.18a1.88,1.88,0,0,0,.55.27,2.25,2.25,0,0,0,.64.09h1a2,2,0,0,0,.68-.12,1.84,1.84,0,0,0,.57-.34l.12-.12a1,1,0,0,0,.13-.16l.07.11.09.09a2,2,0,0,0,1.52.54,2,2,0,0,0,.69-.12,1.68,1.68,0,0,0,.58-.34l.13-.12.12-.16a.76.76,0,0,1,.08.11l.08.09a2.06,2.06,0,0,0,1.52.54h0a1.78,1.78,0,0,0,.65-.12,1.87,1.87,0,0,0,.54-.33,1.07,1.07,0,0,0,.2-.22,1.82,1.82,0,0,0,.19-.31,1.88,1.88,0,0,0,.13-.4,2,2,0,0,0,.06-.5A4.6,4.6,0,0,0,406,99.16ZM366,80.27h.63L370.18,71h-.63Zm19-22.73a2.28,2.28,0,0,1-.7-.11,2,2,0,0,1-.57-.31,1.12,1.12,0,0,1-.24-.25,1.7,1.7,0,0,1-.7.51,3,3,0,0,1-1,.16h-1.93a7.39,7.39,0,0,1-1.26-.1,5.59,5.59,0,0,1-1.14-.28,6,6,0,0,1-1.18.28,8.61,8.61,0,0,1-1.38.1H371a1.85,1.85,0,0,1-.67-.12,1.74,1.74,0,0,1-.55-.34,1.46,1.46,0,0,1-.2-.22,1.69,1.69,0,0,1-.17-.3,1.57,1.57,0,0,1-.13-.4,2,2,0,0,1-.06-.5,2.77,2.77,0,0,1,0-.39c0-.14,0-.28.07-.42l.09-.41c0-.13.06-.25.09-.35l.07-.26c0-.07,0-.11,0-.11l.63.2,0,.09-.07.23c0,.1-.05.2-.08.32l-.09.38-.06.38a2.06,2.06,0,0,0,0,.34,1.62,1.62,0,0,0,.09.57,1.12,1.12,0,0,0,.26.37,1,1,0,0,0,.35.21,1.34,1.34,0,0,0,.4.06h3.92a8.94,8.94,0,0,0,1.61-.14,3.73,3.73,0,0,1-.46-.35,2.11,2.11,0,0,1-.36-.43,2,2,0,0,1-.24-.49,1.67,1.67,0,0,1-.09-.55,2.18,2.18,0,0,1,.16-.85,2.05,2.05,0,0,1,.44-.67,2.23,2.23,0,0,1,.67-.44,2.28,2.28,0,0,1,.8-.14h.11a1.83,1.83,0,0,1,.76.17,1.9,1.9,0,0,1,.63.46,2,2,0,0,1,.42.68,2,2,0,0,1,.16.79,1.88,1.88,0,0,1-.29,1,2.71,2.71,0,0,1-.83.82,7.8,7.8,0,0,0,1.47.14h1.93a4.54,4.54,0,0,0,.57-.06,1.11,1.11,0,0,0,.43-.17.94.94,0,0,0,.27-.32,1.22,1.22,0,0,0,.1-.51v-2h.67v2a1.09,1.09,0,0,0,.11.5,1,1,0,0,0,.28.32,1,1,0,0,0,.38.19,2,2,0,0,0,.42,0H387l.24-.4c.09-.14.17-.29.26-.44l.13-.23v-6h.67v5l.27-.38a3.51,3.51,0,0,1,.29-.36,2.63,2.63,0,0,1,1.94-1.12,1.86,1.86,0,0,1,.87.2,1.71,1.71,0,0,1,.63.57,3.36,3.36,0,0,1,.44,1.86,2.06,2.06,0,0,1-.09.64,2.1,2.1,0,0,1-.23.5,1.76,1.76,0,0,1-.31.35,2.26,2.26,0,0,1-.34.23,1.65,1.65,0,0,1-.41.18,4,4,0,0,1-.39.11,2.26,2.26,0,0,1-.33,0H385Zm2.7-.67h2.88l.32-.06a2.14,2.14,0,0,0,.38-.13,1.19,1.19,0,0,0,.35-.25,1.16,1.16,0,0,0,.26-.38,1.34,1.34,0,0,0,.1-.56,2.72,2.72,0,0,0-.33-1.49,1.05,1.05,0,0,0-.94-.46,1.28,1.28,0,0,0-.53.12,2.11,2.11,0,0,0-.49.33,3.14,3.14,0,0,0-.47.49,7,7,0,0,0-.44.59c-.14.21-.28.43-.41.65s-.26.44-.38.65S387.83,56.71,387.73,56.87Zm-9.5-.84a2.13,2.13,0,0,0,.3-.3,1.16,1.16,0,0,0,.23-.37,1.06,1.06,0,0,0,.09-.45,1.37,1.37,0,0,0-.1-.52,1.61,1.61,0,0,0-.26-.46,1.38,1.38,0,0,0-.43-.32,1.13,1.13,0,0,0-.56-.13,1.89,1.89,0,0,0-.6.1,1.44,1.44,0,0,0-.46.29,1.34,1.34,0,0,0-.29.45,1.59,1.59,0,0,0-.11.59,1.25,1.25,0,0,0,.1.48,1.46,1.46,0,0,0,.27.38,1.73,1.73,0,0,0,.35.31l.39.23.15.07.17.07.22-.09.2-.11ZM383,59.66l.67.68.68-.67-.69-.68Zm-1.59,44,.68.68.68-.68-.69-.68ZM345.9,96.79h0a3.45,3.45,0,0,0-.57,0,3.17,3.17,0,0,0-.62.18,3.25,3.25,0,0,0-.56.28,3.71,3.71,0,0,0-.48.39,3,3,0,0,0-.5.64,3.14,3.14,0,0,0-.31.73,2.31,2.31,0,0,0-.1.59v.23a3,3,0,0,0,.1.78l.05.19,3.16.85a1.62,1.62,0,0,1,0,.22v.17a3.07,3.07,0,0,1-.07.42,2.7,2.7,0,0,1-.14.4,1.36,1.36,0,0,1-.23.34,1.7,1.7,0,0,1-.71.47,3.39,3.39,0,0,1-1.1.15h-1.35a2.33,2.33,0,0,1-1.13-.27,2.19,2.19,0,0,1-.83-.77,2.56,2.56,0,0,1-.33-.81,3.71,3.71,0,0,1-.08-.79c0-.11,0-.22,0-.33a4.94,4.94,0,0,1,.22-1.19,8,8,0,0,1,.51-1.31l-.61-.29a7.63,7.63,0,0,0-.81,2.92v.21a4.05,4.05,0,0,0,.1.92,3.24,3.24,0,0,0,.42,1,3,3,0,0,0,.48.58,3.14,3.14,0,0,0,1.29.7,2.84,2.84,0,0,0,.72.09h1.39a5.36,5.36,0,0,0,.7,0,2.54,2.54,0,0,0,.62-.14,2.26,2.26,0,0,0,.56-.28,2.18,2.18,0,0,0,.48-.44,2.05,2.05,0,0,0,.26-.43,3.28,3.28,0,0,0,.17-.5,4.63,4.63,0,0,0,.09-.49,3.59,3.59,0,0,0,0-.43,1.94,1.94,0,0,0,0-.24.39.39,0,0,0-.08-.21.52.52,0,0,0-.18-.18,1.16,1.16,0,0,0-.35-.14l-.35-.1-.48-.13-.55-.15-.53-.14-.44-.11-.28-.08a2.49,2.49,0,0,1-.05-.46,2.38,2.38,0,0,1,.11-.7,2.23,2.23,0,0,1,.6-1,2.46,2.46,0,0,1,.82-.53,2.73,2.73,0,0,1,1-.18,3.09,3.09,0,0,1,.89.13L347,97a2.86,2.86,0,0,0-.55-.12A3.27,3.27,0,0,0,345.9,96.79ZM367.83,93l-5.07,2.24-.07.57.21.16.56.48.85.8c.33.31.69.68,1.08,1.09a3.83,3.83,0,0,1,.72,1,1.77,1.77,0,0,1,.18.66.66.66,0,0,1-.07.32.77.77,0,0,1-.42.41,2.31,2.31,0,0,1-1,.18h-3a.79.79,0,0,1-.4-.13,2.2,2.2,0,0,1-.41-.36,5.65,5.65,0,0,1-.39-.51c-.14-.19-.27-.39-.4-.6L358,95.93l-.57.36,2.05,3.11a1.17,1.17,0,0,1,.2.41,1,1,0,0,1,0,.26.73.73,0,0,1,0,.25.8.8,0,0,1-.36.37,1.75,1.75,0,0,1-.61.21,3.83,3.83,0,0,1-.6,0h-.06a5.81,5.81,0,0,1-.72,0c-.23,0-.45-.09-.67-.15a2.25,2.25,0,0,1-.54-.24l-.28-.17-.35.58.66.34a4.12,4.12,0,0,0,.62.21,3.24,3.24,0,0,0,.62.12,4.88,4.88,0,0,0,.68,0,3.88,3.88,0,0,0,.67-.06,2.64,2.64,0,0,0,.64-.19,2,2,0,0,0,.53-.32,1.2,1.2,0,0,0,.35-.49h0a2.24,2.24,0,0,0,.31.38,2.75,2.75,0,0,0,.39.32,2.06,2.06,0,0,0,.42.21,1.57,1.57,0,0,0,.28.06v0h3.11a3.18,3.18,0,0,0,.88-.1,2.4,2.4,0,0,0,.6-.26,1.14,1.14,0,0,0,.36-.32,1.36,1.36,0,0,0,.19-.31A1.4,1.4,0,0,0,367,100v0a2.23,2.23,0,0,0-.14-.69,4.38,4.38,0,0,0-.94-1.41c-.52-.55-1-1-1.38-1.39s-.73-.66-1-.86l4.58-2Zm-17,8.4a2.7,2.7,0,0,1-.55,1.86,2.36,2.36,0,0,1-1.87.67h-.76v.67h.76a3.06,3.06,0,0,0,2.31-.81,3.32,3.32,0,0,0,.78-2.39v-3.5h-.67Zm6.83-29.07-.33.34.67.68.68-.68L358,72Zm1.88.35.68.68.67-.67-.68-.69-.33.34C359.75,72.4,359.63,72.51,359.51,72.64Zm-11.4,8.57a3,3,0,0,0,.17-.5,4.63,4.63,0,0,0,.09-.49,3.59,3.59,0,0,0,0-.43,1,1,0,0,0,0-.24.48.48,0,0,0-.07-.21.55.55,0,0,0-.19-.18,1.16,1.16,0,0,0-.35-.14l-.35-.1-.48-.13c-.17,0-.36-.09-.54-.15l-.54-.14-.44-.11-.28-.08a2.49,2.49,0,0,1-.05-.46,2.38,2.38,0,0,1,.11-.7,2.43,2.43,0,0,1,.6-1,2.46,2.46,0,0,1,.82-.53,2.81,2.81,0,0,1,1-.18,3.21,3.21,0,0,1,.9.13l.18-.64a2.71,2.71,0,0,0-.55-.12,3.27,3.27,0,0,0-.54,0h-.05a3.66,3.66,0,0,0-.57,0,3.07,3.07,0,0,0-.61.18,2.67,2.67,0,0,0-.56.28,3.81,3.81,0,0,0-.49.39,3.36,3.36,0,0,0-.5.64,3.12,3.12,0,0,0-.3.73,2.42,2.42,0,0,0-.11.59v.23a3,3,0,0,0,.11.78l.05.19,3.15.85a1.64,1.64,0,0,1,0,.22c0,.06,0,.11,0,.17a2,2,0,0,1-.07.42,1.9,1.9,0,0,1-.14.4,1.13,1.13,0,0,1-.23.34,1.7,1.7,0,0,1-.71.47,3.35,3.35,0,0,1-1.1.15h-1.34A2.4,2.4,0,0,1,343,81.6a2.19,2.19,0,0,1-.83-.77,2.56,2.56,0,0,1-.33-.81,4.5,4.5,0,0,1-.08-.79c0-.11,0-.22,0-.33a5.48,5.48,0,0,1,.22-1.19,8,8,0,0,1,.51-1.31l-.61-.29a7.43,7.43,0,0,0-.8,2.92,1.48,1.48,0,0,0,0,.21,4.06,4.06,0,0,0,.11.92,3.21,3.21,0,0,0,.41,1,2.74,2.74,0,0,0,.49.58,2.53,2.53,0,0,0,.6.43,3,3,0,0,0,.68.27,3,3,0,0,0,.72.09h1.39a5.12,5.12,0,0,0,.7,0,2.62,2.62,0,0,0,.63-.14,2.38,2.38,0,0,0,.55-.28,2,2,0,0,0,.48-.44A2.05,2.05,0,0,0,348.11,81.21Zm5.11,20.33h.68V93.76h-.68ZM362.9,94l4.41-1.91-.22-.43L363,93.43Zm-5.63-.19.71.73.71-.71L358,93.1Zm-1.51-14.34a1.77,1.77,0,0,1-.41-.21,3,3,0,0,1-.39-.31,2.88,2.88,0,0,1-.32-.39h0a1.33,1.33,0,0,1-.36.49,1.87,1.87,0,0,1-.53.32,2.7,2.7,0,0,1-.63.19,4,4,0,0,1-.68.06,4.73,4.73,0,0,1-.67,0,3.09,3.09,0,0,1-.62-.12,3.78,3.78,0,0,1-.62-.21c-.21-.1-.43-.21-.66-.34l.34-.58.28.17a2.53,2.53,0,0,0,.55.24,6,6,0,0,0,.67.15,5.52,5.52,0,0,0,.71,0h.07a2.82,2.82,0,0,0,.59,0,1.81,1.81,0,0,0,.62-.21.78.78,0,0,0,.35-.37.74.74,0,0,0,0-.25,1,1,0,0,0,0-.26,1.67,1.67,0,0,0-.2-.41l-2.05-3.11.56-.36,2.21,3.34c.13.21.27.41.4.6a5.67,5.67,0,0,0,.4.51,1.89,1.89,0,0,0,.4.36.79.79,0,0,0,.41.13h.53a8.94,8.94,0,0,0,1.61-.14,3.73,3.73,0,0,1-.46-.35,2.11,2.11,0,0,1-.36-.43,2,2,0,0,1-.24-.49,1.67,1.67,0,0,1-.09-.55,2.18,2.18,0,0,1,.16-.85,1.91,1.91,0,0,1,.44-.67,2.23,2.23,0,0,1,.67-.44,2.28,2.28,0,0,1,.8-.14h.11a1.83,1.83,0,0,1,.76.17,1.9,1.9,0,0,1,.63.46,2.23,2.23,0,0,1,.42.68,2.14,2.14,0,0,1,.16.79,1.88,1.88,0,0,1-.29,1,2.71,2.71,0,0,1-.83.82,7.8,7.8,0,0,0,1.47.14h1.82a1,1,0,0,0,.46-.14,1.08,1.08,0,0,0,.33-.31,1.63,1.63,0,0,0,.21-.44,2.32,2.32,0,0,0,.06-.46v0c0-.17,0-.35-.05-.54s-.05-.38-.08-.56-.07-.37-.11-.54-.08-.34-.12-.49l.65-.2c0,.16.08.33.12.52l.12.59.09.61c0,.21,0,.41.05.6v0a2.39,2.39,0,0,1-.12.74,1.92,1.92,0,0,1-.34.65,1.73,1.73,0,0,1-.54.47,1.49,1.49,0,0,1-.73.18h-1.82a7.31,7.31,0,0,1-1.26-.1,5.59,5.59,0,0,1-1.14-.28,6,6,0,0,1-1.18.28,8.61,8.61,0,0,1-1.38.1H356v0A1,1,0,0,1,355.76,79.46Zm2.8-1.38.38.23.16.07.17.07.22-.09.2-.11L360,78a1.77,1.77,0,0,0,.31-.3,1.16,1.16,0,0,0,.23-.37,1.1,1.1,0,0,0,.09-.45,1.64,1.64,0,0,0-.36-1,1.38,1.38,0,0,0-.43-.32,1.13,1.13,0,0,0-.56-.13,1.89,1.89,0,0,0-.6.1,1.44,1.44,0,0,0-.46.29,1.2,1.2,0,0,0-.29.45,1.59,1.59,0,0,0-.11.59,1.25,1.25,0,0,0,.1.48,1.46,1.46,0,0,0,.27.38A1.73,1.73,0,0,0,358.56,78.08Zm-25.18,22.81a1.92,1.92,0,0,0,.34-.65,2.39,2.39,0,0,0,.12-.74v0c0-.19,0-.39,0-.6l-.09-.61-.12-.59c0-.19-.08-.36-.12-.52l-.65.2c0,.15.08.31.12.49s.07.35.11.54.06.37.08.56,0,.37.05.54v0a1.76,1.76,0,0,1-.06.46,1.63,1.63,0,0,1-.21.44,1.08,1.08,0,0,1-.33.31,1,1,0,0,1-.46.14H330a2.57,2.57,0,0,1-.79-.1,1.9,1.9,0,0,1-.6-.31,3.06,3.06,0,0,1-.54-.54c-.17-.21-.37-.46-.59-.76-.44-.59-.88-1.17-1.3-1.75s-.85-1.14-1.27-1.72l4.74-2.14-.27-.61-5.12,2.31-.13.5h0l.37.5.33.44.3.41.31.42.34.46.4.54a3.37,3.37,0,0,1,.24.37,2.23,2.23,0,0,1,.16.4,1.73,1.73,0,0,1,.05.38v0a.87.87,0,0,1-.1.39,1,1,0,0,1-.33.39,1.87,1.87,0,0,1-.47.23,3.35,3.35,0,0,1-.55.11l-.55,0h-2.3a1.45,1.45,0,0,1-.41-.06.84.84,0,0,1-.38-.18.87.87,0,0,1-.28-.32,1.09,1.09,0,0,1-.11-.5v-2h-.67v2a1.21,1.21,0,0,1-.11.51.76.76,0,0,1-.27.32,1.06,1.06,0,0,1-.42.17,4.51,4.51,0,0,1-.58.06h-1.68a2.62,2.62,0,0,1-.71-.08.64.64,0,0,1-.39-.26,1,1,0,0,1-.16-.51q0-.33,0-.84V93.76h-.69v5.42a7.54,7.54,0,0,0,.07,1,1.64,1.64,0,0,0,.27.73,1.34,1.34,0,0,0,.6.46,2.87,2.87,0,0,0,.92.14h1.8a3,3,0,0,0,1-.16,1.63,1.63,0,0,0,.7-.51,1.48,1.48,0,0,0,.25.25,1.74,1.74,0,0,0,.57.31,2.26,2.26,0,0,0,.69.11h2.3a6.27,6.27,0,0,0,.74-.05,2.92,2.92,0,0,0,.72-.18,2.06,2.06,0,0,0,.61-.35,1.43,1.43,0,0,0,.43-.56,1.19,1.19,0,0,0,.08-.2,1.41,1.41,0,0,0,.06-.22c.18.24.37.46.54.65a3.41,3.41,0,0,0,.59.49,2.48,2.48,0,0,0,.7.31,3.31,3.31,0,0,0,.74.1h2.27a1.43,1.43,0,0,0,.72-.18A1.66,1.66,0,0,0,333.38,100.89ZM165.66,57.31a1,1,0,0,0,.15-.24.67.67,0,0,0,.06-.28.57.57,0,0,0-.06-.25.86.86,0,0,0-.13-.2.9.9,0,0,0-.2-.14.74.74,0,0,0-.25-.05h-.16l-.15.05a.44.44,0,0,0-.15.1.54.54,0,0,0-.14.18v0a1.61,1.61,0,0,1,.08-.54,2.28,2.28,0,0,1,.23-.47,1.83,1.83,0,0,1,.34-.39,2.14,2.14,0,0,1,.39-.28l-.33-.45a2.43,2.43,0,0,0-.49.37,3.14,3.14,0,0,0-.42.48,2.44,2.44,0,0,0-.28.56,1.7,1.7,0,0,0-.11.58,1.64,1.64,0,0,0,.08.5,1.22,1.22,0,0,0,.21.39,1.06,1.06,0,0,0,.81.34.72.72,0,0,0,.29-.06A.76.76,0,0,0,165.66,57.31Zm-21.28,2.35-.69-.69-.66.68.67.68Zm18.86,17.21c0,.21,0,.41,0,.6v0a2.39,2.39,0,0,1-.12.74,1.92,1.92,0,0,1-.34.65,1.73,1.73,0,0,1-.54.47,1.49,1.49,0,0,1-.73.18h-2.27a3.21,3.21,0,0,1-.71-.09,2.58,2.58,0,0,1-.7-.31,2.47,2.47,0,0,1-.65-.6,2.39,2.39,0,0,1-.21-.34c-.06-.13-.12-.26-.17-.4a2.66,2.66,0,0,1-.42.63,1.49,1.49,0,0,1-.62.42,2.34,2.34,0,0,1-.87.18h-.3a1.69,1.69,0,0,1-.64-.2,1.78,1.78,0,0,1-.66-.53,1.87,1.87,0,0,1-.36-.81,2.16,2.16,0,0,1,0-.35,2.23,2.23,0,0,1,.16-.8,2.37,2.37,0,0,1,.58-.83,3.82,3.82,0,0,1,1-.69,6.27,6.27,0,0,1,1.31-.5l-.15-.73.67-.18c.1.45.2.84.28,1.18s.14.64.2.91.09.36.12.52l.12.49c0,.16.07.31.11.47s.09.32.13.5a2.25,2.25,0,0,0,.23.54,2.57,2.57,0,0,0,.32.39,1.72,1.72,0,0,0,.37.25,2.3,2.3,0,0,0,.38.15l.35.06.29,0h2.17a1,1,0,0,0,.46-.14,1.08,1.08,0,0,0,.33-.31,1.35,1.35,0,0,0,.2-.44,1.77,1.77,0,0,0,.07-.46v0c0-.17,0-.35-.05-.54s0-.38-.08-.56-.08-.37-.11-.54-.08-.34-.12-.49l.65-.2c0,.16.08.33.12.52l.12.59Zm-6.76-.33a2,2,0,0,0,0-.3,1,1,0,0,1,0-.13c0-.17-.08-.32-.11-.44s-.05-.22-.07-.31,0-.16,0-.23,0-.13-.05-.19a6,6,0,0,0-1.14.43,3.56,3.56,0,0,0-.83.57,1.83,1.83,0,0,0-.47.67,1.24,1.24,0,0,0-.1.5,1.94,1.94,0,0,0,0,.24,1.14,1.14,0,0,0,.26.54,1.39,1.39,0,0,0,.49.34,1.47,1.47,0,0,0,.58.12h0a1.06,1.06,0,0,0,.51-.11,1.53,1.53,0,0,0,.51-.37,1.82,1.82,0,0,0,.29-.45,2,2,0,0,0,.14-.46A3.44,3.44,0,0,0,156.48,76.54Zm46.06-17,.63.64.64-.63-.65-.64ZM145.92,59l-.67.67.68.68.68-.67Zm20,12.77h-.68v7.78h.68Zm29.4,5.4a4.42,4.42,0,0,1,0,.49,2,2,0,0,1-.05.5,1.88,1.88,0,0,1-.13.4,1.82,1.82,0,0,1-.19.31,1.46,1.46,0,0,1-.2.22,1.87,1.87,0,0,1-.54.33,1.78,1.78,0,0,1-.65.12h0a2.06,2.06,0,0,1-1.52-.54l-.08-.09-.08-.11-.12.16-.13.12a1.77,1.77,0,0,1-.58.34,2,2,0,0,1-.69.12,2.07,2.07,0,0,1-1.53-.54l-.08-.09-.07-.11-.13.16-.13.12a1.63,1.63,0,0,1-.57.34,1.85,1.85,0,0,1-.67.12h-1a2.16,2.16,0,0,1-.6-.09,1.44,1.44,0,0,1-.52-.31,1,1,0,0,1-.2-.21,1.58,1.58,0,0,1-.54.64,1.76,1.76,0,0,1-.37.17,1.4,1.4,0,0,1-.4.07,2.5,2.5,0,0,1-.54-.07,3.61,3.61,0,0,1-.56-.18,6.53,6.53,0,0,1-.61-.29l-.7-.36a1.32,1.32,0,0,1-1.17.64h-.26a2.94,2.94,0,0,1-.93-.14,1.4,1.4,0,0,1-.6-.45,1.72,1.72,0,0,1-.27-.74,7.78,7.78,0,0,1-.06-1V71.76h.68v5.42q0,.51,0,.84a1.1,1.1,0,0,0,.16.51.64.64,0,0,0,.39.26,2.67,2.67,0,0,0,.71.08H180a.69.69,0,0,0,.36-.09.78.78,0,0,0,.28-.29,2.18,2.18,0,0,0,.22-.51q.09-.3.18-.63l.12-.4c0-.14.08-.27.12-.4s.1-.26.16-.38a2.53,2.53,0,0,1,.2-.36,1.81,1.81,0,0,1,1.58-.82,1.58,1.58,0,0,1,.78.21,1.88,1.88,0,0,1,.65.61,2.4,2.4,0,0,1,.4.78,2.93,2.93,0,0,1,.14.87,1.6,1.6,0,0,0,.35,1.18.73.73,0,0,0,.31.17,1.53,1.53,0,0,0,.47.06h.93a1.12,1.12,0,0,0,.4-.07,1,1,0,0,0,.37-.2,1,1,0,0,0,.28-.38,1.35,1.35,0,0,0,.11-.57V75.86h.67v1.79c0,.8.43,1.21,1.31,1.22a1.12,1.12,0,0,0,.4-.07,1.16,1.16,0,0,0,.38-.2,1.09,1.09,0,0,0,.27-.38,1.35,1.35,0,0,0,.11-.57V75.86h.67v1.79c0,.8.44,1.21,1.31,1.22h0a1.32,1.32,0,0,0,.39-.06.82.82,0,0,0,.36-.21,1,1,0,0,0,.27-.37,1.42,1.42,0,0,0,.1-.57,3.61,3.61,0,0,0,0-.44c0-.16,0-.33-.08-.5s-.08-.33-.11-.49l-.11-.43c0-.13-.06-.23-.09-.31a.9.9,0,0,1,0-.12l.64-.19s0,.06,0,.14a3.19,3.19,0,0,1,.09.34q.06.19.12.45c0,.17.08.35.11.53S195.31,77,195.33,77.16Zm-10.77.3a2.17,2.17,0,0,0-.11-.66,2.11,2.11,0,0,0-.3-.6A1.55,1.55,0,0,0,184,76l-.2-.17a1.08,1.08,0,0,0-.26-.14.73.73,0,0,0-.3-.06,1.33,1.33,0,0,0-.6.13,1.3,1.3,0,0,0-.41.37,2.41,2.41,0,0,0-.28.58c-.08.24-.16.5-.24.79,0,.13-.08.26-.11.39l-.12.37.65.34c.2.11.38.19.56.27a4,4,0,0,0,.48.17,1.43,1.43,0,0,0,.39.06h0A.68.68,0,0,0,184,79a.77.77,0,0,0,.31-.29,1.74,1.74,0,0,0,.22-.51A3.4,3.4,0,0,0,184.56,77.46Zm16.57-19.92h1.5a1.46,1.46,0,0,0,.73-.18,1.66,1.66,0,0,0,.55-.47,2.12,2.12,0,0,0,.34-.65,2.71,2.71,0,0,0,.11-.74v0a4.28,4.28,0,0,0-.05-.6,6,6,0,0,0-.09-.61c0-.2-.07-.4-.11-.59s-.09-.36-.12-.52l-.65.2c0,.15.07.31.11.49s.08.35.11.54a5,5,0,0,1,.09.56,5.29,5.29,0,0,1,0,.54v0a1.76,1.76,0,0,1-.06.46,1.6,1.6,0,0,1-.2.44,1,1,0,0,1-.34.31,1,1,0,0,1-.46.14h-1.5a2,2,0,0,1-.42,0,1,1,0,0,1-.38-.19.87.87,0,0,1-.28-.32,1.09,1.09,0,0,1-.11-.5v-2h-.67v3.5a2.7,2.7,0,0,1-.55,1.86,2.36,2.36,0,0,1-1.87.67h-.76v.67h.76a3.08,3.08,0,0,0,2.31-.81,3.32,3.32,0,0,0,.78-2.39v-.18a1.76,1.76,0,0,0,.55.27A2.2,2.2,0,0,0,201.13,57.54ZM168.84,79.36a2.7,2.7,0,0,1-.55,1.86,2.36,2.36,0,0,1-1.87.67h-.76v.67h.76a3.08,3.08,0,0,0,2.31-.81,3.32,3.32,0,0,0,.78-2.39v-3.5h-.67Zm2.41.18h.69V71.76h-.69Zm7.43-22h1a1.89,1.89,0,0,0,.67-.12,1.84,1.84,0,0,0,.57-.34L181,57a1,1,0,0,0,.13-.16l.08.11.08.09a2.06,2.06,0,0,0,1.52.54,2,2,0,0,0,.69-.12,1.82,1.82,0,0,0,.59-.34l.12-.12a1,1,0,0,0,.13-.16l.07.11.09.09a2,2,0,0,0,1.51.54h0a1.75,1.75,0,0,0,.65-.12,1.92,1.92,0,0,0,.55-.33,1.44,1.44,0,0,0,.19-.22,1.82,1.82,0,0,0,.19-.31,1.87,1.87,0,0,0,.14-.4,2.57,2.57,0,0,0,.05-.5,2.93,2.93,0,0,0,0-.49c0-.17-.05-.35-.08-.53l-.12-.53c0-.17-.07-.32-.11-.45s-.07-.25-.09-.34a1.36,1.36,0,0,0-.05-.14l-.64.19,0,.12c0,.08.05.18.08.31s.07.27.11.43.08.32.11.49l.09.5a3.61,3.61,0,0,1,0,.44,1.41,1.41,0,0,1-.11.57.92.92,0,0,1-.26.37,1,1,0,0,1-.36.21,1.34,1.34,0,0,1-.4.06h0c-.87,0-1.31-.42-1.31-1.22V53.86H184v1.79a1.35,1.35,0,0,1-.1.57,1,1,0,0,1-.28.38,1,1,0,0,1-.37.2,1.18,1.18,0,0,1-.41.07c-.87,0-1.31-.42-1.31-1.22V53.86h-.67v1.79a1.35,1.35,0,0,1-.1.57,1.25,1.25,0,0,1-.28.38,1.11,1.11,0,0,1-.37.2,1.22,1.22,0,0,1-.41.07h-1a2,2,0,0,1-.41,0,1,1,0,0,1-.38-.19,1,1,0,0,1-.29-.32,1,1,0,0,1-.11-.49V54h-.67v1.87a1,1,0,0,1-.23.7,1.54,1.54,0,0,1-1.14.35h-6.33a1.34,1.34,0,0,1-.4-.06.93.93,0,0,1-.36-.21,1.12,1.12,0,0,1-.26-.37,1.61,1.61,0,0,1-.1-.57,2.77,2.77,0,0,1,.06-.53,4.61,4.61,0,0,1,.12-.56c0-.18.08-.33.12-.46l0-.19-.64-.2a.62.62,0,0,1,0,.11l-.07.26c0,.1-.06.22-.09.35l-.09.41c0,.14-.05.28-.07.42a2.77,2.77,0,0,0,0,.39,2.57,2.57,0,0,0,0,.5,2.08,2.08,0,0,0,.14.4,1.26,1.26,0,0,0,.18.3,1.44,1.44,0,0,0,.19.22,1.68,1.68,0,0,0,.56.34,1.76,1.76,0,0,0,.66.12h6.38a2.13,2.13,0,0,0,1.59-.56l0,0,0-.06a.69.69,0,0,0,.11.13l.13.12a1.71,1.71,0,0,0,.58.31A2.22,2.22,0,0,0,178.68,57.54Zm-22.79,0h-8.57a2.28,2.28,0,0,1-.7-.11,1.74,1.74,0,0,1-.57-.31,1.48,1.48,0,0,1-.25-.25,1.6,1.6,0,0,1-.69.51,3.09,3.09,0,0,1-1,.16h-1.85a2.32,2.32,0,0,1-.65-.09,1.71,1.71,0,0,1-.54-.27v.18a3.28,3.28,0,0,1-.79,2.39,3.06,3.06,0,0,1-2.31.81h-.75v-.67h.75a2.38,2.38,0,0,0,1.88-.67,2.75,2.75,0,0,0,.55-1.86v-3.5H141v2a1,1,0,0,0,.11.5.87.87,0,0,0,.28.32,1,1,0,0,0,.38.19,2,2,0,0,0,.42,0h1.85a4.51,4.51,0,0,0,.58-.06,1.06,1.06,0,0,0,.42-.17.76.76,0,0,0,.27-.32,1.21,1.21,0,0,0,.11-.51v-2h.67v2a1.09,1.09,0,0,0,.11.5,1,1,0,0,0,.28.32,1,1,0,0,0,.38.19,2,2,0,0,0,.42,0h2.06l.25-.4.25-.44.13-.23v-6h.68v5a3.28,3.28,0,0,1,.27-.38,3.44,3.44,0,0,1,.28-.36,2.64,2.64,0,0,1,1.94-1.12,1.86,1.86,0,0,1,.87.2,1.57,1.57,0,0,1,.63.57,3.28,3.28,0,0,1,.45,1.86,2.08,2.08,0,0,1-.16.83,1.76,1.76,0,0,1-.37.56h2.71a1,1,0,0,0,.46-.14,1.08,1.08,0,0,0,.33-.31,1.63,1.63,0,0,0,.21-.44,1.75,1.75,0,0,0,.05-.46v0a3.44,3.44,0,0,0,0-.54c0-.19,0-.38-.08-.56s-.07-.37-.11-.54-.08-.34-.12-.49l.65-.2c0,.16.08.33.12.52l.12.59.09.61c0,.21,0,.41,0,.6v0a2.39,2.39,0,0,1-.12.74,1.92,1.92,0,0,1-.34.65,1.73,1.73,0,0,1-.54.47,1.49,1.49,0,0,1-.73.18h-1.42Zm-1.44-2.06a2.73,2.73,0,0,0-.32-1.49,1.06,1.06,0,0,0-.95-.46,1.23,1.23,0,0,0-.52.12,2.16,2.16,0,0,0-.5.33,3.68,3.68,0,0,0-.47.49,7,7,0,0,0-.44.59c-.14.21-.28.43-.41.65l-.38.65c-.1.18-.19.35-.29.51H153l.33-.06a2.05,2.05,0,0,0,.37-.13,1.07,1.07,0,0,0,.35-.25,1,1,0,0,0,.26-.38A1.34,1.34,0,0,0,154.45,55.48Zm-54.14-1.22a5.6,5.6,0,0,0-.12-.59c0-.19-.08-.36-.12-.52l-.65.2c0,.15.08.31.12.49s.08.35.11.54.06.37.09.56a5.29,5.29,0,0,1,0,.54v0a1.76,1.76,0,0,1-.06.46,1.63,1.63,0,0,1-.21.44,1,1,0,0,1-.33.31,1,1,0,0,1-.46.14H97.39a2.67,2.67,0,0,1-.71-.08.64.64,0,0,1-.39-.26,1.1,1.1,0,0,1-.16-.51q0-.33,0-.84V49.76h-.68v5.42a7.78,7.78,0,0,0,.06,1,1.91,1.91,0,0,0,.27.73,1.34,1.34,0,0,0,.6.46,2.76,2.76,0,0,0,1,.14h1.42a1.49,1.49,0,0,0,.73-.18,1.66,1.66,0,0,0,.55-.47,2.12,2.12,0,0,0,.34-.65,2.71,2.71,0,0,0,.11-.74v0c0-.19,0-.39,0-.6A6,6,0,0,0,100.31,54.26Zm9.58,27.39.67.68.68-.67-.69-.69Zm2.22,0,.68.68.67-.67-.68-.68ZM99.48,78.52a.55.55,0,0,0-.41.16.6.6,0,0,0-.14.39.53.53,0,0,0,.14.37.54.54,0,0,0,.41.15.56.56,0,0,0,.41-.15.5.5,0,0,0,.15-.37.53.53,0,0,0-.56-.55ZM93.6,76.26a5.6,5.6,0,0,0-.12-.59c0-.19-.08-.36-.12-.52l-.64.2c0,.15.07.31.11.49s.08.35.11.54a5,5,0,0,1,.09.56,5.29,5.29,0,0,1,0,.54v0A1.76,1.76,0,0,1,93,78a1.6,1.6,0,0,1-.2.44,1,1,0,0,1-.34.31,1,1,0,0,1-.46.14H90.68a.82.82,0,0,1-.41-.13,2.17,2.17,0,0,1-.4-.36c-.13-.15-.26-.32-.4-.51l-.4-.6-2.21-3.34-.56.36,2,3.11a1.37,1.37,0,0,1,.2.41,1,1,0,0,1,0,.26.56.56,0,0,1,0,.25.78.78,0,0,1-.35.37,1.81,1.81,0,0,1-.62.21A2.76,2.76,0,0,1,87,79h-.07a5.65,5.65,0,0,1-.71,0,6.58,6.58,0,0,1-.67-.15,2.25,2.25,0,0,1-.54-.24l-.29-.17-.34.58c.23.13.45.24.66.34a4.12,4.12,0,0,0,.62.21,3.24,3.24,0,0,0,.62.12,4.73,4.73,0,0,0,.67,0,3.91,3.91,0,0,0,.68-.06,2.64,2.64,0,0,0,.64-.19,2.2,2.2,0,0,0,.53-.32,1.42,1.42,0,0,0,.35-.49h0a2.88,2.88,0,0,0,.32.39,3,3,0,0,0,.39.31,1.83,1.83,0,0,0,.42.21,1,1,0,0,0,.32.06v0H92a1.49,1.49,0,0,0,.73-.18,1.66,1.66,0,0,0,.55-.47,2.12,2.12,0,0,0,.34-.65,2.71,2.71,0,0,0,.11-.74v0c0-.19,0-.39,0-.6A6,6,0,0,0,93.6,76.26Zm29,1.6a1.27,1.27,0,0,1,0,.2,2,2,0,0,1,0,.39,2.29,2.29,0,0,1-.2.51,1.49,1.49,0,0,1-.31.4,1.9,1.9,0,0,1-.44.3,2.28,2.28,0,0,1-.52.18,2.67,2.67,0,0,1-.56.06,2.59,2.59,0,0,1-.56-.05,4.94,4.94,0,0,1-.55-.15l-.53-.22-.52-.26a6.24,6.24,0,0,1-1.16.24,12.2,12.2,0,0,1-1.41.08h-1.59a2.26,2.26,0,0,1-.69-.11,1.74,1.74,0,0,1-.57-.31,1.48,1.48,0,0,1-.25-.25,1.63,1.63,0,0,1-.7.51,3,3,0,0,1-1,.16h-1.8a2.09,2.09,0,0,1-.51-.08,2.34,2.34,0,0,1-.24-.09,1.48,1.48,0,0,1-.21-.13,1.07,1.07,0,0,1-.19-.18.83.83,0,0,1-.12-.25,2.14,2.14,0,0,1-.28.36,1.51,1.51,0,0,1-.34.24,1.26,1.26,0,0,1-.37.13,1.65,1.65,0,0,1-.38,0h-.13l-.19,0-.29-.09-.4-.16-.39-.17-.5-.23-.54-.26-.53-.27-.47-.24-.35-.19v5.76H102V77.51l.62-.39.47.26.79.42c.1-.47.19-.87.29-1.19a3.5,3.5,0,0,1,.33-.82,2.08,2.08,0,0,1,.67-.74,1.69,1.69,0,0,1,1-.27A1.54,1.54,0,0,1,107,75a2.07,2.07,0,0,1,.64.61,2.88,2.88,0,0,1,.39.83,3.25,3.25,0,0,1,.14.91,1.71,1.71,0,0,0,.39,1.27.66.66,0,0,0,.17.12l.17.07a.8.8,0,0,0,.15,0h1.86a4.51,4.51,0,0,0,.58-.06,1.06,1.06,0,0,0,.42-.17.76.76,0,0,0,.27-.32,1.21,1.21,0,0,0,.11-.51v-2H113v2a1.09,1.09,0,0,0,.11.5.87.87,0,0,0,.28.32.89.89,0,0,0,.38.18,1.51,1.51,0,0,0,.41.06h1.59a9.56,9.56,0,0,0,1.7-.13l-.16-.11-.15-.12a2.24,2.24,0,0,1-.64-.74,2,2,0,0,1-.21-.94,2.12,2.12,0,0,1,.15-.81,1.79,1.79,0,0,1,.44-.64,1.87,1.87,0,0,1,.65-.4,2.32,2.32,0,0,1,.84-.15,1.64,1.64,0,0,1,.76.18,2,2,0,0,1,.62.46,2.41,2.41,0,0,1,.41.67,2.08,2.08,0,0,1,.15.78,2.19,2.19,0,0,1-.3,1.13,2.38,2.38,0,0,1-.87.82,4.08,4.08,0,0,0,.64.26,2.44,2.44,0,0,0,.71.1,2,2,0,0,0,.43,0,1.92,1.92,0,0,0,.36-.14,1.27,1.27,0,0,0,.27-.18,1.13,1.13,0,0,0,.17-.23,1.7,1.7,0,0,0,.14-.35,1.5,1.5,0,0,0,0-.22s0-.1,0-.19a1.62,1.62,0,0,0-.09-.32,2.64,2.64,0,0,0-.23-.43,9,9,0,0,0-.92-1.18l-1.46-1.56.49-.47.81.86.69.75.55.66c.16.21.3.4.42.59a4.08,4.08,0,0,1,.28.55A2.08,2.08,0,0,1,122.55,77.86Zm-15-.49a2.72,2.72,0,0,0-.09-.69,2,2,0,0,0-.27-.62,1.36,1.36,0,0,0-.42-.44,1,1,0,0,0-.57-.18,1.13,1.13,0,0,0-.56.14,1.27,1.27,0,0,0-.44.45,3.93,3.93,0,0,0-.34.83,12.77,12.77,0,0,0-.28,1.25c.39.19.7.34,1,.44s.44.19.58.24a1.68,1.68,0,0,0,.31.1l.11,0a1.56,1.56,0,0,0,.33,0,.76.76,0,0,0,.34-.24,1.23,1.23,0,0,0,.27-.51A3.22,3.22,0,0,0,107.52,77.37Zm11.34.89a2,2,0,0,0,.41-.34,1.68,1.68,0,0,0,.27-.45,1.42,1.42,0,0,0,.1-.55,1.36,1.36,0,0,0-.11-.58,1.29,1.29,0,0,0-.29-.45,1.33,1.33,0,0,0-.41-.29,1.22,1.22,0,0,0-.45-.1,1.62,1.62,0,0,0-.66.12,1.29,1.29,0,0,0-.44.31,1.1,1.1,0,0,0-.24.42,1.59,1.59,0,0,0-.07.48,1.39,1.39,0,0,0,.14.63,1.72,1.72,0,0,0,.46.53,2.68,2.68,0,0,0,.37.26l.44.25A2.16,2.16,0,0,0,118.86,78.26Zm11-23.39c0,.21,0,.41.05.6v0a2.71,2.71,0,0,1-.11.74,2.12,2.12,0,0,1-.34.65,1.66,1.66,0,0,1-.55.47,1.49,1.49,0,0,1-.73.18h-2.12a2.26,2.26,0,0,1-.69-.11,1.9,1.9,0,0,1-.58-.31,1.88,1.88,0,0,1-.24-.25,1.7,1.7,0,0,1-.7.51,3,3,0,0,1-1,.16h-2.17a7.31,7.31,0,0,1-1.26-.1,5.59,5.59,0,0,1-1.14-.28,5.93,5.93,0,0,1-1.19.28,8.4,8.4,0,0,1-1.37.1h-.67a2.74,2.74,0,0,1-.9-.14,1.34,1.34,0,0,1-.6-.46,1.64,1.64,0,0,1-.27-.73,7.66,7.66,0,0,1-.07-1V49.76h.69v5.42q0,.51,0,.84a1,1,0,0,0,.16.51.64.64,0,0,0,.39.26,2.62,2.62,0,0,0,.71.08h.53a8.94,8.94,0,0,0,1.61-.14,3.73,3.73,0,0,1-.46-.35,2.11,2.11,0,0,1-.36-.43,2,2,0,0,1-.24-.49,1.67,1.67,0,0,1-.09-.55,2.18,2.18,0,0,1,.16-.85,1.91,1.91,0,0,1,.44-.67,2.11,2.11,0,0,1,.67-.44,2.28,2.28,0,0,1,.8-.14h.11a1.83,1.83,0,0,1,.76.17,1.9,1.9,0,0,1,.63.46,2,2,0,0,1,.42.68,2.14,2.14,0,0,1,.16.79,1.88,1.88,0,0,1-.29,1,2.71,2.71,0,0,1-.83.82,7.8,7.8,0,0,0,1.47.14h2.17a4.17,4.17,0,0,0,.57-.06,1.11,1.11,0,0,0,.43-.17.76.76,0,0,0,.27-.32,1.38,1.38,0,0,0,.11-.51v-2h.67v2a1,1,0,0,0,.11.5.94.94,0,0,0,.27.32,1.13,1.13,0,0,0,.38.19,2,2,0,0,0,.42,0h2.12a1,1,0,0,0,.46-.14,1,1,0,0,0,.34-.31,1.6,1.6,0,0,0,.2-.44,1.76,1.76,0,0,0,.06-.46v0a5.29,5.29,0,0,0,0-.54,5,5,0,0,0-.09-.56c0-.19-.07-.37-.11-.54s-.08-.34-.11-.49l.65-.2c0,.16.07.33.12.52s.08.39.11.59A6,6,0,0,1,129.88,54.87ZM119,56a1.77,1.77,0,0,0,.31-.3,1.37,1.37,0,0,0,.23-.37,1.06,1.06,0,0,0,.09-.45,1.64,1.64,0,0,0-.36-1,1.38,1.38,0,0,0-.43-.32,1.13,1.13,0,0,0-.56-.13,1.89,1.89,0,0,0-.6.1,1.44,1.44,0,0,0-.46.29,1.2,1.2,0,0,0-.29.45,1.59,1.59,0,0,0-.11.59,1.25,1.25,0,0,0,.1.48,1.7,1.7,0,0,0,.26.38,2.11,2.11,0,0,0,.36.31l.38.23.16.07.17.07.22-.09.2-.11Zm28.81,20.56a2.93,2.93,0,0,1,.14.87,5.46,5.46,0,0,1,0,.57,5.23,5.23,0,0,1-.12.54,2.06,2.06,0,0,1-.21.48,1.48,1.48,0,0,1-.31.39,1.25,1.25,0,0,1-.41.26,1.51,1.51,0,0,1-.53.1,2.42,2.42,0,0,1-.54-.07,5.17,5.17,0,0,1-.55-.19l-.61-.28L144,78.9a1.3,1.3,0,0,1-1.16.64h-2.17A1.22,1.22,0,0,1,141,80a1.67,1.67,0,0,1,.11.62,1.51,1.51,0,0,1-.14.65,1.63,1.63,0,0,1-.37.5,2.12,2.12,0,0,1-.56.35,3.85,3.85,0,0,1-.7.24,6.18,6.18,0,0,1-.77.13,7.14,7.14,0,0,1-.8,0h-1.36a3,3,0,0,1-1.43-.34,2.79,2.79,0,0,1-1-1,3.29,3.29,0,0,1-.47-1.26,4.23,4.23,0,0,1-.06-.7,6.56,6.56,0,0,1,.06-.78,6.41,6.41,0,0,1,.29-1.12c.15-.43.32-.85.5-1.25l.6.29a9.71,9.71,0,0,0-.52,1.32,6.4,6.4,0,0,0-.23,1.21c0,.12,0,.24,0,.35a3.59,3.59,0,0,0,.09.78,2.61,2.61,0,0,0,.33.8,2.13,2.13,0,0,0,.8.75,2.38,2.38,0,0,0,1.1.26h1.36l.56,0a5.59,5.59,0,0,0,.59-.08,5.47,5.47,0,0,0,.58-.15,2.14,2.14,0,0,0,.48-.23,1.3,1.3,0,0,0,.34-.32.83.83,0,0,0,.12-.44,1.42,1.42,0,0,0,0-.31.64.64,0,0,0-.15-.25.82.82,0,0,0-.29-.2,2,2,0,0,0-.47-.15,5,5,0,0,0-.7-.12l-1-.07,0-.67h5a.69.69,0,0,0,.36-.09.85.85,0,0,0,.27-.29,2.18,2.18,0,0,0,.22-.51c.07-.2.13-.41.19-.63s.15-.53.24-.8a3,3,0,0,1,.35-.74A1.83,1.83,0,0,1,146,75a1.52,1.52,0,0,1,.78.21,2,2,0,0,1,.66.61A2.87,2.87,0,0,1,147.84,76.59Zm-.54.87a2.16,2.16,0,0,0-.1-.66,2.11,2.11,0,0,0-.3-.6,1.77,1.77,0,0,0-.14-.17.85.85,0,0,0-.2-.17,1,1,0,0,0-.25-.14.81.81,0,0,0-.31-.06,1.29,1.29,0,0,0-.59.13,1.21,1.21,0,0,0-.41.37,2.41,2.41,0,0,0-.29.58c-.08.24-.16.5-.24.79,0,.13-.07.26-.11.39a2.29,2.29,0,0,1-.12.37l.65.33.56.28a4,4,0,0,0,.48.17,1.23,1.23,0,0,0,.36.06h.07a.75.75,0,0,0,.34-.09.82.82,0,0,0,.3-.29,1.74,1.74,0,0,0,.22-.51A2.92,2.92,0,0,0,147.3,77.46ZM131.62,57.54h.68V49.76h-.68ZM128.22,77l-.7-1.07-.51-.77-.35-.53-.23-.34c-.06-.1-.11-.17-.14-.23l-.11-.16-.56.36.18.29s0,0,0,0a.85.85,0,0,1,.09.14l.2.29.33.51.51.76c.2.31.44.66.72,1.08a1.25,1.25,0,0,1,.19.4,1.43,1.43,0,0,1,0,.23.72.72,0,0,1-.06.29.75.75,0,0,1-.34.37,1.47,1.47,0,0,1-.6.22,3.83,3.83,0,0,1-.6,0h-.06a5.52,5.52,0,0,1-.71,0,6.58,6.58,0,0,1-.67-.15,2.73,2.73,0,0,1-.54-.24L124,78.3l-.34.57L124,79a3.16,3.16,0,0,0,.64.29,6.24,6.24,0,0,0,.8.19,5.93,5.93,0,0,0,.84.06,4.38,4.38,0,0,0,.75-.06,2.19,2.19,0,0,0,.91-.35,1.45,1.45,0,0,0,.54-.64,1.5,1.5,0,0,0,.11-.55,1.48,1.48,0,0,0,0-.21A1.91,1.91,0,0,0,128.22,77Zm98-19.62a1.73,1.73,0,0,0,.54-.47,2.12,2.12,0,0,0,.34-.65,2.39,2.39,0,0,0,.12-.74v0c0-.19,0-.39,0-.6l-.09-.61-.12-.59c0-.19-.08-.36-.12-.52l-.65.2c0,.15.07.31.12.49s.07.35.11.54.06.37.08.56a3.44,3.44,0,0,1,0,.54v0a1.76,1.76,0,0,1-.06.46,1.35,1.35,0,0,1-.2.44,1.08,1.08,0,0,1-.33.31,1,1,0,0,1-.46.14h-2.35a2,2,0,0,1-.42,0,1,1,0,0,1-.38-.19.87.87,0,0,1-.28-.32,1,1,0,0,1-.11-.5v-2h-.67v3.5a2.75,2.75,0,0,1-.55,1.86,2.38,2.38,0,0,1-1.88.67h-.75v.67h.75a3.06,3.06,0,0,0,2.31-.81,3.28,3.28,0,0,0,.79-2.39v-.18a1.66,1.66,0,0,0,.55.27,2.2,2.2,0,0,0,.64.09h2.35A1.49,1.49,0,0,0,226.26,57.36Zm27,19.08a4.49,4.49,0,0,1,.12,1.07v2.12a3,3,0,0,1-.25,1.27,2.34,2.34,0,0,1-.72.93,3.29,3.29,0,0,1-1.13.54,5.46,5.46,0,0,1-1.44.18h-.31v-.67h.31a6,6,0,0,0,1.19-.13,2.33,2.33,0,0,0,.89-.38,1.8,1.8,0,0,0,.58-.72,2.89,2.89,0,0,0,.21-1.11H251.5a3.17,3.17,0,0,1-.88-.12,2.19,2.19,0,0,1-.75-.37,2,2,0,0,1-.51-.64,2.13,2.13,0,0,1-.18-.9,5,5,0,0,1,.11-1.06,2.35,2.35,0,0,1,.38-.83,1.68,1.68,0,0,1,.65-.56,2.16,2.16,0,0,1,1.94,0,1.77,1.77,0,0,1,.66.55A2.34,2.34,0,0,1,253.29,76.44Zm-.55,1.07a4.92,4.92,0,0,0-.08-.8,2,2,0,0,0-.23-.64,1.18,1.18,0,0,0-.44-.42,1.43,1.43,0,0,0-.7-.15,1.31,1.31,0,0,0-.69.16,1.14,1.14,0,0,0-.45.42,1.73,1.73,0,0,0-.23.64,3.94,3.94,0,0,0-.07.79,1.41,1.41,0,0,0,.13.64,1.15,1.15,0,0,0,.37.42,1.66,1.66,0,0,0,.54.23,3,3,0,0,0,.69.07h1.16Zm-44.75,4,.63.64.63-.63-.64-.64Zm28.49,22.14.67.68.68-.67-.69-.68Zm6.59-22-.68-.68-.67.67.68.68Zm-3.57,0,.67.68.68-.67-.69-.69Zm-5.25,22,.68.68.68-.67-.69-.69Zm38.51-.16.64.65.63-.64-.65-.63Zm-10.77,0,.64.64.63-.63-.64-.64Zm19.73-5.26-.12-.59c0-.19-.09-.36-.12-.52l-.65.2c0,.15.07.31.11.49s.08.35.12.54.06.37.08.56a3.44,3.44,0,0,1,0,.54v0a1.76,1.76,0,0,1-.06.46,1.35,1.35,0,0,1-.2.44,1.08,1.08,0,0,1-.33.31,1,1,0,0,1-.46.14h-2.5a2.35,2.35,0,0,1-.6-.08,1.47,1.47,0,0,1-.49-.22,1.1,1.1,0,0,1-.33-.38,1.07,1.07,0,0,1-.12-.51l.39-.28.41-.29-.1-.61-.29-.12-.49-.2-.63-.26-.71-.29-.73-.28c-.24-.09-.47-.17-.69-.23l-.59-.17a2.07,2.07,0,0,0-.44-.06,1.38,1.38,0,0,0-.59.12,1.51,1.51,0,0,0-.49.33,2,2,0,0,0-.36.49,2.34,2.34,0,0,0-.23.59l.65.17a1.54,1.54,0,0,1,.4-.76.86.86,0,0,1,.62-.27,1.71,1.71,0,0,1,.37.06c.15,0,.34.09.54.16s.44.14.68.24l.76.28.8.3.77.3c-.33.23-.66.44-1,.62a9.22,9.22,0,0,1-.91.5,8.4,8.4,0,0,1-.94.38,7.3,7.3,0,0,1-1.05.27,10.17,10.17,0,0,1-1.22.15c-.44,0-.95.05-1.53.05h-.08a1.52,1.52,0,0,1-.42-.06,1,1,0,0,1-.38-.18,1,1,0,0,1-.28-.32,1.09,1.09,0,0,1-.11-.5v-2h-.67v3.5a2.75,2.75,0,0,1-.54,1.86,2.4,2.4,0,0,1-1.88.67h-.76v.67h.76a3.06,3.06,0,0,0,2.31-.81,3.32,3.32,0,0,0,.78-2.39v-.18a1.88,1.88,0,0,0,.55.27,2.25,2.25,0,0,0,.64.09h.25l1.25,0c.41,0,.8-.07,1.15-.13a9.11,9.11,0,0,0,1-.2c.3-.09.59-.18.86-.29a7.12,7.12,0,0,0,.79-.37c.25-.13.5-.28.75-.43a1.67,1.67,0,0,0,.2.58,1.57,1.57,0,0,0,.39.46,1.59,1.59,0,0,0,.32.18,3.76,3.76,0,0,0,.4.13,3.39,3.39,0,0,0,.44.08l.39,0h2.5a1.45,1.45,0,0,0,.72-.18,1.66,1.66,0,0,0,.55-.47,2.12,2.12,0,0,0,.34-.65,2.37,2.37,0,0,0,.11-.74v0c0-.19,0-.39,0-.6Zm-18,.61c0,.21,0,.41.05.6v0a2.39,2.39,0,0,1-.12.74,1.92,1.92,0,0,1-.34.65,1.63,1.63,0,0,1-.54.47,1.49,1.49,0,0,1-.73.18h-1.42a3.21,3.21,0,0,1-.71-.09,2.93,2.93,0,0,1-.7-.31,2.47,2.47,0,0,1-.65-.6,4,4,0,0,1-.22-.34c-.06-.13-.11-.26-.16-.4a2.66,2.66,0,0,1-.42.63,1.52,1.52,0,0,1-.63.42,2.26,2.26,0,0,1-.87.18H256a1.69,1.69,0,0,1-.64-.2,1.78,1.78,0,0,1-.66-.53,1.66,1.66,0,0,1-.36-.81,2.16,2.16,0,0,1,0-.35,2.23,2.23,0,0,1,.16-.8,2.47,2.47,0,0,1,.57-.83,4,4,0,0,1,1-.69,6.59,6.59,0,0,1,1.32-.5l-.15-.73.67-.18c.1.45.19.84.27,1.18s.15.64.21.91.09.36.12.52.08.33.11.49l.12.47c0,.16.09.32.13.5a2.25,2.25,0,0,0,.23.54,2.08,2.08,0,0,0,.32.39,1.72,1.72,0,0,0,.37.25,1.77,1.77,0,0,0,.38.15l.35.06.28,0h1.33a1,1,0,0,0,.46-.14,1.08,1.08,0,0,0,.33-.31,1.63,1.63,0,0,0,.21-.44,1.76,1.76,0,0,0,.06-.46v0c0-.17,0-.35,0-.54s-.05-.38-.08-.56-.07-.37-.11-.54-.08-.34-.12-.49l.65-.2c0,.16.08.33.12.52l.12.59Zm-5.92-.33a2.23,2.23,0,0,0,0-.3c0-.08,0-.12,0-.13,0-.17-.07-.32-.1-.44s0-.22-.07-.31,0-.16-.05-.23a1.33,1.33,0,0,1,0-.19,6,6,0,0,0-1.14.43,3.36,3.36,0,0,0-.83.57,1.83,1.83,0,0,0-.47.67,1.24,1.24,0,0,0-.1.5,1,1,0,0,0,0,.24,1.05,1.05,0,0,0,.26.54,1.39,1.39,0,0,0,.49.34,1.43,1.43,0,0,0,.58.12h0a1.06,1.06,0,0,0,.51-.11,1.48,1.48,0,0,0,.5-.37,1.61,1.61,0,0,0,.3-.45,2,2,0,0,0,.13-.46A3.44,3.44,0,0,0,257.85,98.54Zm7.26-19h1.4a6.13,6.13,0,0,0,.74-.05,2.82,2.82,0,0,0,.72-.18,2.06,2.06,0,0,0,.61-.35,1.45,1.45,0,0,0,.44-.56l.08-.2a1.42,1.42,0,0,0,0-.22c.19.24.37.45.55.65a3.35,3.35,0,0,0,.58.49,2.61,2.61,0,0,0,.7.31,3.32,3.32,0,0,0,.75.1h.16a2.63,2.63,0,0,0,1.81-.59,1.83,1.83,0,0,0,.51-1.38v-5.8h-.67v5.8a1.91,1.91,0,0,1-.06.48.83.83,0,0,1-.25.42,1.49,1.49,0,0,1-.55.3,3,3,0,0,1-.87.1,2.5,2.5,0,0,1-.71-.09,1.9,1.9,0,0,1-.6-.31,3,3,0,0,1-.53-.54c-.18-.21-.38-.46-.59-.76-.45-.59-.88-1.17-1.31-1.75l-1.26-1.72,4.74-2.14-.28-.61-5.12,2.31-.13.5h0c.13.18.25.35.37.5l.32.44.3.41.31.42.34.46c.12.16.26.34.4.54a2.35,2.35,0,0,1,.24.37,2.23,2.23,0,0,1,.16.4,1.28,1.28,0,0,1,.05.38v0a.86.86,0,0,1-.09.39,1,1,0,0,1-.34.39,1.87,1.87,0,0,1-.47.23,3.35,3.35,0,0,1-.55.11l-.55,0h-2.29a1.52,1.52,0,0,1-.42-.06.89.89,0,0,1-.38-.18,1,1,0,0,1-.28-.32,1.09,1.09,0,0,1-.11-.5v-2h-.67v2a1.21,1.21,0,0,1-.11.51.76.76,0,0,1-.27.32,1,1,0,0,1-.42.17,4.54,4.54,0,0,1-.57.06h-1.86a1.52,1.52,0,0,1-.42-.06.89.89,0,0,1-.38-.18.87.87,0,0,1-.28-.32,1,1,0,0,1-.11-.5v-2h-.67v3.5a2.7,2.7,0,0,1-.55,1.86,2.36,2.36,0,0,1-1.87.67h-.76v.67h.76a3.05,3.05,0,0,0,2.3-.81,3.28,3.28,0,0,0,.79-2.39v-.18a1.66,1.66,0,0,0,.55.27,2.2,2.2,0,0,0,.64.09H261a3,3,0,0,0,1-.16,1.6,1.6,0,0,0,.69-.51,1.48,1.48,0,0,0,.25.25,1.74,1.74,0,0,0,.57.31,2.28,2.28,0,0,0,.7.11h.89ZM249.8,93l-5.07,2.24-.07.57.21.16.56.48.85.8c.33.31.69.68,1.08,1.09a3.6,3.6,0,0,1,.72,1,1.77,1.77,0,0,1,.18.66.75.75,0,0,1-.49.73,2.31,2.31,0,0,1-1,.18H243.5a1.52,1.52,0,0,1-.42-.06,1,1,0,0,1-.38-.18.91.91,0,0,1-.38-.82v-2h-.67v2a1.38,1.38,0,0,1-.11.51.84.84,0,0,1-.27.32,1.11,1.11,0,0,1-.43.17,4.35,4.35,0,0,1-.57.06h-1.73a1.52,1.52,0,0,1-.42-.06,1,1,0,0,1-.65-.5,1,1,0,0,1-.11-.5v-2h-.67v2a1.38,1.38,0,0,1-.11.51.76.76,0,0,1-.27.32,1.11,1.11,0,0,1-.43.17,4.17,4.17,0,0,1-.57.06h-1.68a.79.79,0,0,1-.41-.13,1.89,1.89,0,0,1-.4-.36,4.3,4.3,0,0,1-.4-.51c-.13-.19-.27-.39-.4-.6l-2.21-3.34-.56.36,2.05,3.11a1.67,1.67,0,0,1,.2.41,1.86,1.86,0,0,1,0,.26.74.74,0,0,1,0,.25.78.78,0,0,1-.35.37,1.89,1.89,0,0,1-.62.21,3.83,3.83,0,0,1-.6,0h-.06a5.52,5.52,0,0,1-.71,0,6,6,0,0,1-.67-.15,2.33,2.33,0,0,1-.55-.24l-.28-.17-.35.58.67.34a4,4,0,0,0,.61.21,3.39,3.39,0,0,0,.62.12,4.88,4.88,0,0,0,.68,0,3.79,3.79,0,0,0,.67-.06,2.64,2.64,0,0,0,.64-.19,1.87,1.87,0,0,0,.53-.32,1.33,1.33,0,0,0,.36-.49h0a0,0,0,0,0,0,0,2.3,2.3,0,0,0,.32.38,2.23,2.23,0,0,0,.38.32,2.06,2.06,0,0,0,.42.21,1.07,1.07,0,0,0,.3.06v0h1.8a3,3,0,0,0,1-.16,1.7,1.7,0,0,0,.7-.51,1.88,1.88,0,0,0,.24.25,1.9,1.9,0,0,0,.58.31,2.26,2.26,0,0,0,.69.11h1.73a3,3,0,0,0,1-.16,1.7,1.7,0,0,0,.7-.51,1.41,1.41,0,0,0,.24.25,1.9,1.9,0,0,0,.58.31,2.26,2.26,0,0,0,.69.11h3.28a3.18,3.18,0,0,0,.88-.1,2.4,2.4,0,0,0,.6-.26,1.14,1.14,0,0,0,.36-.32,1.36,1.36,0,0,0,.19-.31,1.4,1.4,0,0,0,.12-.58v0a2.23,2.23,0,0,0-.14-.69,4.38,4.38,0,0,0-.94-1.41c-.52-.55-1-1-1.38-1.39s-.73-.66-1-.86l4.58-2ZM216,71.76h-.68v7.78H216Zm65.27,23-.33.34.67.69.68-.68-.69-.68ZM218.88,79.36a2.7,2.7,0,0,1-.55,1.86,2.36,2.36,0,0,1-1.87.67h-.76v.67h.76a3.09,3.09,0,0,0,2.31-.81,3.32,3.32,0,0,0,.78-2.39v-3.5h-.67Zm-9.12-2.49c0,.21,0,.41.05.6v0a2.39,2.39,0,0,1-.12.74,1.92,1.92,0,0,1-.34.65,1.63,1.63,0,0,1-.54.47,1.49,1.49,0,0,1-.73.18h-1.42a3.21,3.21,0,0,1-.71-.09,2.52,2.52,0,0,1-1.35-.91,2.39,2.39,0,0,1-.21-.34,2.83,2.83,0,0,1-.17-.4,2.66,2.66,0,0,1-.42.63,1.52,1.52,0,0,1-.63.42,2.26,2.26,0,0,1-.87.18H202a1.69,1.69,0,0,1-.64-.2,1.78,1.78,0,0,1-.66-.53,1.66,1.66,0,0,1-.36-.81,2.16,2.16,0,0,1,0-.35,2.23,2.23,0,0,1,.16-.8,2.47,2.47,0,0,1,.57-.83,4,4,0,0,1,1-.69,6.59,6.59,0,0,1,1.32-.5l-.15-.73.67-.18c.1.45.19.84.27,1.18s.15.64.21.91.09.36.12.52.08.33.11.49l.12.47c0,.16.08.32.13.5a2.25,2.25,0,0,0,.23.54,2.08,2.08,0,0,0,.32.39,1.72,1.72,0,0,0,.37.25,2,2,0,0,0,.38.15l.35.06.28,0h1.33a1,1,0,0,0,.46-.14,1.08,1.08,0,0,0,.33-.31,1.63,1.63,0,0,0,.21-.44,1.76,1.76,0,0,0,.06-.46v0c0-.17,0-.35,0-.54l-.09-.56c0-.19-.07-.37-.11-.54s-.08-.34-.12-.49l.65-.2c0,.16.08.33.12.52s.08.39.12.59Zm-5.92-.33a2.23,2.23,0,0,0,0-.3c0-.08,0-.12,0-.13,0-.17-.07-.32-.1-.44s0-.22-.07-.31,0-.16,0-.23a1.33,1.33,0,0,1-.05-.19,6,6,0,0,0-1.14.43,3.36,3.36,0,0,0-.83.57,1.83,1.83,0,0,0-.47.67,1.24,1.24,0,0,0-.1.5,1.94,1.94,0,0,0,0,.24,1.05,1.05,0,0,0,.26.54,1.39,1.39,0,0,0,.49.34,1.43,1.43,0,0,0,.58.12h0a1.06,1.06,0,0,0,.51-.11,1.39,1.39,0,0,0,.5-.37,1.61,1.61,0,0,0,.3-.45,1.59,1.59,0,0,0,.13-.46A3.44,3.44,0,0,0,203.84,76.54Zm9.7-22.1a4.49,4.49,0,0,1,.12,1.07v2.12a3,3,0,0,1-.25,1.27,2.34,2.34,0,0,1-.72.93,3.21,3.21,0,0,1-1.13.54,5.46,5.46,0,0,1-1.44.18h-.31v-.67h.31a6,6,0,0,0,1.19-.13,2.45,2.45,0,0,0,.9-.38,1.87,1.87,0,0,0,.57-.72,2.89,2.89,0,0,0,.21-1.11h-1.24a3.17,3.17,0,0,1-.88-.12,2.06,2.06,0,0,1-.74-.37,1.77,1.77,0,0,1-.51-.64,2,2,0,0,1-.19-.9,4.41,4.41,0,0,1,.12-1.06,2.34,2.34,0,0,1,.37-.83,1.75,1.75,0,0,1,.65-.56,2.16,2.16,0,0,1,1.94,0,1.77,1.77,0,0,1,.66.55A2.34,2.34,0,0,1,213.54,54.44ZM213,55.51a4.92,4.92,0,0,0-.08-.8,1.8,1.8,0,0,0-.23-.64,1.11,1.11,0,0,0-.44-.42,1.41,1.41,0,0,0-.69-.15,1.34,1.34,0,0,0-.7.16,1.14,1.14,0,0,0-.45.42,1.93,1.93,0,0,0-.23.64,3.94,3.94,0,0,0-.07.79,1.41,1.41,0,0,0,.13.64,1.15,1.15,0,0,0,.37.42,1.72,1.72,0,0,0,.55.23,2.9,2.9,0,0,0,.68.07H213Zm13,4.12.67.68.68-.68-.69-.68ZM229,82.55a7.14,7.14,0,0,0,.8,0,5.88,5.88,0,0,0,.77-.13,3.85,3.85,0,0,0,.7-.24,2.12,2.12,0,0,0,.56-.35,1.63,1.63,0,0,0,.37-.5,1.51,1.51,0,0,0,.14-.65,1.92,1.92,0,0,0-.1-.62,1.37,1.37,0,0,0-.34-.48h1.89v0l.52,0a2.74,2.74,0,0,0,.71-.18,2.11,2.11,0,0,0,.62-.35,1.43,1.43,0,0,0,.43-.56,1.19,1.19,0,0,0,.08-.2l.06-.22c.18.24.36.45.54.65a3.35,3.35,0,0,0,.58.49,2.68,2.68,0,0,0,.71.31,3,3,0,0,0,.71.1h1.8a3,3,0,0,0,1-.16,1.63,1.63,0,0,0,.7-.51,1.48,1.48,0,0,0,.25.25,1.74,1.74,0,0,0,.57.31,2.26,2.26,0,0,0,.69.11h2.13a1.45,1.45,0,0,0,.72-.18,1.66,1.66,0,0,0,.55-.47,2.12,2.12,0,0,0,.34-.65,2.37,2.37,0,0,0,.11-.74v0a4.28,4.28,0,0,0,0-.6c0-.21-.05-.41-.08-.61l-.12-.59c0-.19-.09-.36-.12-.52l-.65.2c0,.15.07.31.11.49s.08.35.11.54a5,5,0,0,1,.09.56,3.44,3.44,0,0,1,0,.54v0a1.76,1.76,0,0,1-.06.46,1.35,1.35,0,0,1-.2.44,1.08,1.08,0,0,1-.33.31,1,1,0,0,1-.46.14h-2.13a1.51,1.51,0,0,1-.41-.06.89.89,0,0,1-.38-.18.87.87,0,0,1-.28-.32,1.09,1.09,0,0,1-.11-.5v-2h-.67v2a1.21,1.21,0,0,1-.11.51.76.76,0,0,1-.27.32,1.06,1.06,0,0,1-.42.17,4.51,4.51,0,0,1-.58.06H239a2.57,2.57,0,0,1-.79-.1,2.07,2.07,0,0,1-.61-.31,3,3,0,0,1-.53-.54c-.17-.21-.37-.46-.59-.76-.44-.59-.88-1.17-1.3-1.75s-.85-1.14-1.27-1.72l4.74-2.14-.27-.61-5.12,2.31-.13.5h0l.37.5.33.44.3.41.31.42.34.46.4.54a3.32,3.32,0,0,1,.23.37,1.34,1.34,0,0,1,.16.4,1.31,1.31,0,0,1,.06.38v0a.87.87,0,0,1-.1.39,1,1,0,0,1-.33.39,1.78,1.78,0,0,1-.48.23,3,3,0,0,1-.54.11l-.55,0h-4.49l0,.67c.37,0,.7,0,1,.07a5,5,0,0,1,.7.12,2.27,2.27,0,0,1,.48.15.88.88,0,0,1,.28.2.64.64,0,0,1,.15.25,1.42,1.42,0,0,1,0,.31.83.83,0,0,1-.12.44,1.16,1.16,0,0,1-.34.32,2.14,2.14,0,0,1-.48.23,5.47,5.47,0,0,1-.58.15,5.59,5.59,0,0,1-.59.08l-.56,0h-1.36a2.38,2.38,0,0,1-1.1-.26,2.13,2.13,0,0,1-.8-.75,2.61,2.61,0,0,1-.33-.8,3.59,3.59,0,0,1-.09-.78c0-.11,0-.23,0-.35a6.4,6.4,0,0,1,.23-1.21,8.66,8.66,0,0,1,.53-1.32l-.61-.29c-.18.4-.35.82-.5,1.25a6.41,6.41,0,0,0-.29,1.12,6.56,6.56,0,0,0-.06.78,4.23,4.23,0,0,0,.06.7,3.29,3.29,0,0,0,.47,1.26,2.87,2.87,0,0,0,1,1,3,3,0,0,0,1.43.34Zm13.26,12.8-.72-.72-.7.71.71.72Zm-17,5.17a.53.53,0,0,0-.41.16.56.56,0,0,0-.15.39.5.5,0,0,0,.15.37.53.53,0,0,0,.41.15.54.54,0,0,0,.4-.15.5.5,0,0,0,.15-.37.56.56,0,0,0-.15-.39A.54.54,0,0,0,225.27,100.52Zm-.88-41.58-.67.68.68.68.67-.68Z" transform="translate(0 0)"/><path class="cls-2" d="M125.77,21.57v.17a1.09,1.09,0,0,0,0,.18l4.52,1.26a3,3,0,0,1,1.79,1.15,3.46,3.46,0,0,1,.56,2,12.33,12.33,0,0,1-.41,3.37A5.5,5.5,0,0,1,130.92,32a5.56,5.56,0,0,1-2.36,1.37,12.38,12.38,0,0,1-3.52.44h-2.72a7.54,7.54,0,0,1-2-.27,7.62,7.62,0,0,1-1.81-.76,8,8,0,0,1-1.56-1.21A8.66,8.66,0,0,1,115.67,30a10.52,10.52,0,0,1-1.28-5.27,14.25,14.25,0,0,1,.12-1.85,14.7,14.7,0,0,1,.37-1.87,21,21,0,0,1,.63-2q.39-1.05.93-2.28l2.86,1.51c-.3.69-.55,1.32-.76,1.9s-.39,1.12-.53,1.63a9.31,9.31,0,0,0-.31,1.48,9.69,9.69,0,0,0-.1,1.42,6.77,6.77,0,0,0,.83,3.46A4.1,4.1,0,0,0,120,29.74a4.59,4.59,0,0,0,2.28.57H125a10.81,10.81,0,0,0,2-.16,3.56,3.56,0,0,0,1.41-.56,2.42,2.42,0,0,0,.83-1.08,4.58,4.58,0,0,0,.3-1.7l-.58-.17-.93-.27L126.93,26l-1.26-.38-1.27-.36L123.24,25a12.14,12.14,0,0,1-.49-1.8,9.36,9.36,0,0,1-.16-1.73,8.48,8.48,0,0,1,.54-3,7.26,7.26,0,0,1,1.54-2.48,7.17,7.17,0,0,1,2.46-1.68,8.07,8.07,0,0,1,3.26-.62,7,7,0,0,1,1.29.11,13,13,0,0,1,1.45.35l-.82,3.37a9.35,9.35,0,0,0-1.05-.28,4.73,4.73,0,0,0-.93-.09,5.27,5.27,0,0,0-1.8.3,4.08,4.08,0,0,0-1.44.88,4.13,4.13,0,0,0-1,1.4A4.86,4.86,0,0,0,125.77,21.57ZM97,26.08h3.2V7.87H97ZM95.86,3.23a4.69,4.69,0,0,0-1.51.48A4.24,4.24,0,0,0,93,5,6.19,6.19,0,0,0,92,7l2.4.77a4.36,4.36,0,0,1,.43-1.06,1.69,1.69,0,0,1,.6-.59,2.21,2.21,0,0,1,.89-.25,11.85,11.85,0,0,1,1.28-.05H104V3.11H97.64A12.16,12.16,0,0,0,95.86,3.23ZM90.51,18c-.06-.43-.13-.85-.21-1.27s-.15-.81-.22-1.16-.14-.63-.19-.87-.09-.38-.1-.45l-3,1.09c0,.14.08.33.14.57s.11.52.17.82.12.61.18.95.11.66.16,1,.09.63.12.92a7.27,7.27,0,0,1,0,.75,2.77,2.77,0,0,1-.21,1.18,1.85,1.85,0,0,1-.49.67,1.69,1.69,0,0,1-.57.31,1.83,1.83,0,0,1-.45.07,2.19,2.19,0,0,1-1.66-.54,2.39,2.39,0,0,1-.51-1.69v-4H80.49v4a2.76,2.76,0,0,1-.22,1.18,1.94,1.94,0,0,1-.51.67,1.5,1.5,0,0,1-.58.29,2.42,2.42,0,0,1-.45.06A2.17,2.17,0,0,1,77.1,22a2.41,2.41,0,0,1-.49-1.68v-4H73.4v4.05a2.6,2.6,0,0,1-.22,1.19,1.94,1.94,0,0,1-.51.65,1.45,1.45,0,0,1-.58.27,2.34,2.34,0,0,1-.44.06H69.26a9.25,9.25,0,0,1-1.69-.12,1.52,1.52,0,0,1-.91-.49,1.93,1.93,0,0,1-.38-1,17.3,17.3,0,0,1-.07-1.8V5.81H63V19.12c0,.79,0,1.51.07,2.16A9.53,9.53,0,0,0,63.36,23,4.43,4.43,0,0,0,64,24.38a3.28,3.28,0,0,0,1.12.95,6.24,6.24,0,0,0,1.71.56,12.92,12.92,0,0,0,1.92.17v0h2.9a5.18,5.18,0,0,0,1.78-.32,4.63,4.63,0,0,0,1.57-1,5.17,5.17,0,0,0,3.73,1.33,5.07,5.07,0,0,0,1.76-.32,4.24,4.24,0,0,0,1.57-1,5.13,5.13,0,0,0,3.79,1.38,4.79,4.79,0,0,0,1.76-.37,4.41,4.41,0,0,0,1.57-1.06,5.33,5.33,0,0,0,1.13-1.78,6.7,6.7,0,0,0,.43-2.51q0-.46-.06-1.08C90.63,18.87,90.58,18.46,90.51,18ZM160.8,6l-2.37-2.59-2.32,2.56,2.34,2.59Zm229,4.74-2.37-2.59-2.32,2.56,2.35,2.59ZM403.64,0l-9.81,4.65-.17,2,10.65-5.08ZM365.72,9.91l-2.37-2.59L361,9.88l2.34,2.59ZM180.59,0l-9.82,4.65-.17,2,10.66-5.08ZM53.46,15.28l-2.37-2.59-2.32,2.56,2.34,2.59Zm87.36,9.65a8.83,8.83,0,0,1-.29,2.41,3.88,3.88,0,0,1-.86,1.61,3.42,3.42,0,0,1-1.48.9,7.5,7.5,0,0,1-2.14.28h-1.6v3.5h1.6a8.61,8.61,0,0,0,3.26-.59,7.08,7.08,0,0,0,2.46-1.68,7.89,7.89,0,0,0,1.6-2.65,11.34,11.34,0,0,0,.65-3.49V16.36h-3.2ZM56,25.81a8.72,8.72,0,0,1-.17,1.77A3.23,3.23,0,0,1,55.2,29a3,3,0,0,1-1.34.88,6.55,6.55,0,0,1-2.22.31H49a4.29,4.29,0,0,1-2.24-.6A4.6,4.6,0,0,1,45.16,28a6.74,6.74,0,0,1-.61-1.58,7.92,7.92,0,0,1-.22-1.84,10.51,10.51,0,0,1,.09-1.4,11,11,0,0,1,.28-1.39,13.64,13.64,0,0,1,.5-1.54c.21-.54.46-1.16.77-1.84l-2.9-1.5c-.35.79-.65,1.52-.89,2.19a16.61,16.61,0,0,0-.6,1.91,13.24,13.24,0,0,0-.32,1.79,15,15,0,0,0-.11,1.8,11.19,11.19,0,0,0,.34,2.8,9.61,9.61,0,0,0,.95,2.44,8,8,0,0,0,1.25,1.62,7.81,7.81,0,0,0,1.55,1.21,7.69,7.69,0,0,0,1.8.75,7.3,7.3,0,0,0,2,.27h2.61q3.78,0,5.69-1.95c1.26-1.31,1.9-3.26,1.9-5.88V16.35H56Zm184.4-1a3.59,3.59,0,0,1-.86,1.06,3.83,3.83,0,0,1-1,.58,3.72,3.72,0,0,1-.93.23,5.78,5.78,0,0,1-.77.05,5.4,5.4,0,0,1-1.23-.13,8.07,8.07,0,0,1-1.18-.38,12.66,12.66,0,0,1-1.24-.6l-1.41-.81a3.42,3.42,0,0,1-1.24,1,3.9,3.9,0,0,1-1.55.29h-1.59v0a13.17,13.17,0,0,1-1.92-.17,6.48,6.48,0,0,1-1.71-.56,3.34,3.34,0,0,1-1.11-.95,4.43,4.43,0,0,1-.64-1.35,8.75,8.75,0,0,1-.29-1.75c-.05-.65-.07-1.37-.07-2.16V5.81h3.21V19.12a17.3,17.3,0,0,0,.07,1.8,1.93,1.93,0,0,0,.37,1,1.55,1.55,0,0,0,.92.49,9.18,9.18,0,0,0,1.69.12H229a.72.72,0,0,0,.49-.18,1.65,1.65,0,0,0,.39-.52,4.75,4.75,0,0,0,.32-.8c.1-.31.2-.66.31-1,.17-.67.37-1.37.61-2.09a8.3,8.3,0,0,1,1-2,5,5,0,0,1,1.52-1.45,4.2,4.2,0,0,1,2.27-.57,4.76,4.76,0,0,1,4,2,6.35,6.35,0,0,1,1,2.13,9.54,9.54,0,0,1,.32,2.53,11.23,11.23,0,0,1-.23,2.49A6.33,6.33,0,0,1,240.42,24.83Zm-1.87-4a4.17,4.17,0,0,0-.13-.94,4,4,0,0,0-.42-1.11,3,3,0,0,0-.81-.93,2.11,2.11,0,0,0-1.28-.38,1.46,1.46,0,0,0-1.1.43A3.68,3.68,0,0,0,234.1,19a8.55,8.55,0,0,0-.49,1.4,13.89,13.89,0,0,1-.44,1.37q.48.3,1,.6t1.05.54c.34.16.66.29,1,.4a2.59,2.59,0,0,0,.8.15,2.54,2.54,0,0,0,.37-.05,1,1,0,0,0,.51-.3,2.32,2.32,0,0,0,.46-.78A4.43,4.43,0,0,0,238.55,20.81Zm-91.27,5.27h3.21V5.81h-3.21Zm221.18,5.27,2.16,2.39,2.18-2.39-2.22-2.42Zm-36.6-11a6.58,6.58,0,0,1,.08,1,6.05,6.05,0,0,1-.27,1.78,5.67,5.67,0,0,1-.76,1.54,5.11,5.11,0,0,1-1.2,1.21,5.61,5.61,0,0,1-1.63.79,6.74,6.74,0,0,1-2,.28,10.11,10.11,0,0,1-1.92-.2,7.32,7.32,0,0,1-2-.77l-.45-.23-.4-.2-.35-.19a14.86,14.86,0,0,1-2.73.6,26,26,0,0,1-3.32.19h-1.46v0a13,13,0,0,1-1.92-.17,6.35,6.35,0,0,1-1.71-.56,3.24,3.24,0,0,1-1.11-.95A4.21,4.21,0,0,1,308,23a8.09,8.09,0,0,1-.29-1.75c-.05-.65-.07-1.37-.07-2.16V5.81h3.21V19.12a17.3,17.3,0,0,0,.07,1.8,1.93,1.93,0,0,0,.37,1,1.55,1.55,0,0,0,.91.49,9.38,9.38,0,0,0,1.7.12h2.61l.56-.06a8.09,8.09,0,0,1-.6-.82,4.87,4.87,0,0,1-.45-.84,4.77,4.77,0,0,1-.29-.95,6.2,6.2,0,0,1-.09-1.1,5.41,5.41,0,0,1,.4-2.12A5,5,0,0,1,317.2,15,5.27,5.27,0,0,1,318.88,14a5.64,5.64,0,0,1,2.07-.38,4.5,4.5,0,0,1,2.22.54,5.41,5.41,0,0,1,1.63,1.36,6,6,0,0,1,1,1.78,5.27,5.27,0,0,1,.34,1.79,5.9,5.9,0,0,1-.12,1.23,5.72,5.72,0,0,1-.34,1.06,5.55,5.55,0,0,1-.54,1c-.22.3-.46.6-.72.89l.82.26a3,3,0,0,0,.82.12,4.92,4.92,0,0,0,.84-.07,2.66,2.66,0,0,0,.83-.25,2.24,2.24,0,0,0,.7-.53,2.29,2.29,0,0,0,.46-.88,1.84,1.84,0,0,0,.05-.41,3.09,3.09,0,0,0-.21-1,9.38,9.38,0,0,0-.75-1.5c-.37-.61-.82-1.29-1.36-2l-1.78-2.41-1.34-1.82,2.42-2,1.7,2.45.77,1.11.82,1.17c.28.4.56.8.82,1.19l.78,1.13A6.36,6.36,0,0,1,331.86,20.3Zm-8.72-1.22a2.28,2.28,0,0,0-.23-1,2.75,2.75,0,0,0-.57-.75,2.22,2.22,0,0,0-.72-.43,1.83,1.83,0,0,0-.67-.14,2.22,2.22,0,0,0-.85.16,2.48,2.48,0,0,0-.71.46,2.15,2.15,0,0,0-.49.67,1.84,1.84,0,0,0-.18.8,2.61,2.61,0,0,0,.15.92,2.2,2.2,0,0,0,.45.74,4.84,4.84,0,0,0,.74.65c.3.21.65.44,1,.67a5.52,5.52,0,0,0,.77-.48,4.2,4.2,0,0,0,.66-.59A3.08,3.08,0,0,0,323,20,2.37,2.37,0,0,0,323.14,19.08Zm55.25.29c0,.42.05.78.05,1.09A6.54,6.54,0,0,1,378,23a5.32,5.32,0,0,1-1.15,1.76,4.65,4.65,0,0,1-1.59,1,4.83,4.83,0,0,1-1.77.34h-5.86a6,6,0,0,1-2-.32,4,4,0,0,1-1.52-1,4.51,4.51,0,0,1-1.71,1,7.74,7.74,0,0,1-2.25.31h-2.28a8.76,8.76,0,0,1-1.79-.2,6.67,6.67,0,0,1-1.71-.61,5.32,5.32,0,0,1-2.4-2.6,3.3,3.3,0,0,1-.79.92,4.8,4.8,0,0,1-1.05.67,5.58,5.58,0,0,1-1.17.4,5.35,5.35,0,0,1-1.16.13,4.92,4.92,0,0,1-1.95-.39,4.67,4.67,0,0,1-1.62-1.12,5.32,5.32,0,0,1-1.1-1.76,6.43,6.43,0,0,1-.41-2.35,6.39,6.39,0,0,1,.53-2.67,6.68,6.68,0,0,1,1.41-2,8.53,8.53,0,0,1,2-1.47A17.19,17.19,0,0,1,349,11.94l-.3-1.35,3.14-.81,2.34,10a3.45,3.45,0,0,0,.67,1.47,3.6,3.6,0,0,0,1,.85,3.5,3.5,0,0,0,1.13.41,5.63,5.63,0,0,0,1,.11h2.14a4.25,4.25,0,0,0,1.26-.16,1.89,1.89,0,0,0,.71-.4,1.14,1.14,0,0,0,.31-.54,3,3,0,0,0,.07-.58V16.35h3.19v4.46a1.69,1.69,0,0,0,.26,1,1.73,1.73,0,0,0,.59.53,1.65,1.65,0,0,0,.65.21,3.42,3.42,0,0,0,.44,0h5.95a3.25,3.25,0,0,0,.44,0,1.36,1.36,0,0,0,.58-.26,1.89,1.89,0,0,0,.51-.64,2.57,2.57,0,0,0,.22-1.17c0-.21,0-.46,0-.76s-.07-.61-.12-.95-.11-.68-.17-1-.13-.68-.19-1-.12-.6-.18-.86-.11-.45-.14-.59l3-1c0,.07.05.22.11.46s.11.54.18.9.14.74.22,1.17.14.86.2,1.3S378.35,19,378.39,19.37Zm-27.88-.88a2.74,2.74,0,0,0,0-.35c0-.16-.05-.39-.1-.69s-.14-.63-.24-1-.21-.74-.32-1.17a10,10,0,0,0-3.12,1.62,2.86,2.86,0,0,0-1.07,2.25,2,2,0,0,0,.22.92,1.94,1.94,0,0,0,.55.68,2.14,2.14,0,0,0,.77.38,2,2,0,0,0,.54.08l.29,0a3.65,3.65,0,0,0,1.61-.62,2.27,2.27,0,0,0,.83-1.5A3.05,3.05,0,0,0,350.51,18.49ZM297,19.68a4,4,0,0,1,1-1.4,4.08,4.08,0,0,1,1.44-.88,5.31,5.31,0,0,1,1.8-.3,4.73,4.73,0,0,1,.93.09,10.06,10.06,0,0,1,1.06.28L304,14.1a12.45,12.45,0,0,0-1.45-.35,6.92,6.92,0,0,0-1.28-.11,8.12,8.12,0,0,0-3.27.62,7.13,7.13,0,0,0-2.45,1.68A7.28,7.28,0,0,0,294,18.42a8.48,8.48,0,0,0-.54,3,9.36,9.36,0,0,0,.16,1.73,11.1,11.1,0,0,0,.5,1.8l1.15.32,1.27.36,1.27.38,1.16.33.92.27.58.17a4.81,4.81,0,0,1-.29,1.7,2.5,2.5,0,0,1-.83,1.08,3.62,3.62,0,0,1-1.41.56,11,11,0,0,1-2,.16h-2.72a4.62,4.62,0,0,1-2.28-.57,4.1,4.1,0,0,1-1.61-1.64,6.77,6.77,0,0,1-.83-3.46,9.69,9.69,0,0,1,.1-1.42,10.57,10.57,0,0,1,.31-1.48c.14-.51.32-1,.53-1.63s.46-1.21.76-1.9l-2.86-1.51c-.36.82-.67,1.58-.92,2.28a18.66,18.66,0,0,0-.64,2,14.7,14.7,0,0,0-.37,1.87,14.25,14.25,0,0,0-.12,1.85A10.52,10.52,0,0,0,286.51,30a8.66,8.66,0,0,0,1.25,1.61,8,8,0,0,0,1.56,1.21,7.69,7.69,0,0,0,1.82.76,7.41,7.41,0,0,0,2,.27h2.72a12.38,12.38,0,0,0,3.52-.44,5.17,5.17,0,0,0,3.68-3.7,12.33,12.33,0,0,0,.41-3.37,3.46,3.46,0,0,0-.55-2,3.07,3.07,0,0,0-1.79-1.15l-4.53-1.26a1.09,1.09,0,0,1,0-.18v-.17A4.69,4.69,0,0,1,297,19.68Zm106.14-.15a9.19,9.19,0,0,0-.68-1.44c-.29-.5-.62-1-1-1.55s-.77-1.06-1.19-1.59-.86-1-1.29-1.53L397.7,12l-1.1-1.18L406,6.3l-1.18-3.07-11.2,5.6L393.39,12c.28.22.66.56,1.13,1s1,1,1.51,1.55,1.08,1.21,1.63,1.87,1,1.32,1.47,2a15.47,15.47,0,0,1,1.08,1.83,3.46,3.46,0,0,1,.42,1.46.58.58,0,0,1-.25.49,2.05,2.05,0,0,1-.6.26,4.21,4.21,0,0,1-.71.12l-.57,0H391a2.92,2.92,0,0,1-.42-.07,2,2,0,0,1-1.22-.9,1.88,1.88,0,0,1-.25-1V16.36h-3.21v8.57a8.86,8.86,0,0,1-.28,2.41,3.89,3.89,0,0,1-.87,1.61,3.36,3.36,0,0,1-1.48.9,7.46,7.46,0,0,1-2.14.28h-1.61v3.5h1.61a8.16,8.16,0,0,0,3.16-.58,6.83,6.83,0,0,0,2.41-1.62,7.74,7.74,0,0,0,1.62-2.53,10.8,10.8,0,0,0,.76-3.29,2.12,2.12,0,0,0,.92.4,7.53,7.53,0,0,0,1,.07h7.31a7.14,7.14,0,0,0,2.11-.28,5.36,5.36,0,0,0,1.44-.69,3.63,3.63,0,0,0,.9-.89,5.55,5.55,0,0,0,.48-.86,7.11,7.11,0,0,0,.21-.71,4.78,4.78,0,0,0,.09-1,6.06,6.06,0,0,0-.09-1A5.71,5.71,0,0,0,403.11,19.53ZM373.86,31.34,376,33.73l2.19-2.39L376,28.92ZM181.8,3.23l-11.21,5.6L170.33,12c.28.22.66.56,1.13,1s1,1,1.52,1.55,1.08,1.21,1.62,1.87,1,1.32,1.48,2a16.78,16.78,0,0,1,1.07,1.83,3.46,3.46,0,0,1,.42,1.46.56.56,0,0,1-.25.49,2.05,2.05,0,0,1-.6.26,4.21,4.21,0,0,1-.71.12l-.56,0h-7v0h-1a1.1,1.1,0,0,1-.71-.35,7.36,7.36,0,0,1-.8-.89c-.27-.36-.55-.76-.82-1.2s-.54-.87-.79-1.28l-4.6-7.61-2.7,1.9,4.57,7c.16.28.3.5.4.68a3.85,3.85,0,0,1,.23.44,1.11,1.11,0,0,1,.07.31.76.76,0,0,1-.07.31,1.17,1.17,0,0,1-.54.63,2.73,2.73,0,0,1-.87.3,6.92,6.92,0,0,1-.87.07l-.56,0a12.77,12.77,0,0,1-1.54-.2,15.78,15.78,0,0,1-1.63-.43c-.56-.17-1.1-.37-1.63-.59L153.6,25c.76.25,1.42.46,2,.62s1,.3,1.46.4.8.16,1.14.21a8.35,8.35,0,0,0,1,.06,10.22,10.22,0,0,0,1.32-.09,7.17,7.17,0,0,0,1.36-.29,5.52,5.52,0,0,0,1.26-.57,3.65,3.65,0,0,0,1-.91,4.52,4.52,0,0,0,3.27,1.65h7.85a7.12,7.12,0,0,0,2.1-.28,5.59,5.59,0,0,0,1.45-.69,3.42,3.42,0,0,0,.89-.89,4.26,4.26,0,0,0,.48-.86,4.07,4.07,0,0,0,.21-.71,4.14,4.14,0,0,0,.1-1,6.06,6.06,0,0,0-.09-1,6.48,6.48,0,0,0-.31-1.14,9.3,9.3,0,0,0-.69-1.44c-.29-.5-.62-1-1-1.55s-.78-1.06-1.2-1.59-.85-1-1.28-1.53-.85-1-1.26-1.4l-1.1-1.18L183,6.3Zm26.6,28.12,2.17,2.39,2.17-2.39-2.21-2.42Zm9.93-12c0,.42,0,.78,0,1.09A6.54,6.54,0,0,1,218,23a5.32,5.32,0,0,1-1.15,1.76,4.65,4.65,0,0,1-1.59,1,4.83,4.83,0,0,1-1.77.34h-5.56a8.57,8.57,0,0,1-1.77-.2,6.88,6.88,0,0,1-1.72-.61A5.17,5.17,0,0,1,203,24.19a5.26,5.26,0,0,1-1-1.53,3.48,3.48,0,0,1-.79.92,5.33,5.33,0,0,1-1.05.67,5.47,5.47,0,0,1-1.18.4,5.29,5.29,0,0,1-1.16.13,5,5,0,0,1-1.95-.39,4.86,4.86,0,0,1-1.62-1.12,5.32,5.32,0,0,1-1.1-1.76,6.44,6.44,0,0,1-.4-2.35,6.24,6.24,0,0,1,.53-2.67,6.83,6.83,0,0,1,1.4-2,8.59,8.59,0,0,1,2-1.47,16.67,16.67,0,0,1,2.36-1.06l-.31-1.35,3.14-.81,2.35,10a3.45,3.45,0,0,0,.67,1.47,3.6,3.6,0,0,0,1,.85,3.54,3.54,0,0,0,1.12.41,5.73,5.73,0,0,0,1,.11h5.49a3.25,3.25,0,0,0,.44,0,1.31,1.31,0,0,0,.58-.26,1.78,1.78,0,0,0,.51-.64,2.57,2.57,0,0,0,.22-1.17c0-.21,0-.46,0-.76s-.08-.61-.13-.95-.11-.68-.17-1-.13-.68-.19-1-.12-.6-.18-.86-.11-.45-.14-.59l3-1c0,.07,0,.22.11.46s.12.54.18.9.14.74.22,1.17.14.86.2,1.3S218.29,19,218.33,19.37Zm-17.8-.88c0-.07,0-.18,0-.35a5.81,5.81,0,0,0-.11-.69c-.06-.3-.14-.63-.24-1s-.2-.74-.31-1.17a9.94,9.94,0,0,0-3.13,1.62,2.85,2.85,0,0,0-1.06,2.25,2,2,0,0,0,.77,1.6,2.09,2.09,0,0,0,.76.38,2,2,0,0,0,.54.08,1.53,1.53,0,0,0,.3,0,3.7,3.7,0,0,0,1.61-.62,2.26,2.26,0,0,0,.82-1.5A2.46,2.46,0,0,0,200.53,18.49ZM273.27,18c-.06-.43-.13-.85-.21-1.27s-.15-.81-.22-1.16-.14-.63-.19-.87-.09-.38-.1-.45l-3,1.09c0,.14.08.33.13.57s.12.52.18.82.12.61.18.95.11.66.16,1,.08.63.11.92.05.54.05.75a2.77,2.77,0,0,1-.21,1.18,1.85,1.85,0,0,1-.49.67,1.69,1.69,0,0,1-.57.31,1.9,1.9,0,0,1-.46.07,2.18,2.18,0,0,1-1.65-.54,2.39,2.39,0,0,1-.51-1.69v-4h-3.2v4a2.61,2.61,0,0,1-.22,1.18,1.81,1.81,0,0,1-.5.67,1.5,1.5,0,0,1-.58.29,2.53,2.53,0,0,1-.45.06,2.17,2.17,0,0,1-1.63-.52,2.41,2.41,0,0,1-.49-1.68v-4h-3.21v4.05a2.6,2.6,0,0,1-.22,1.19,1.94,1.94,0,0,1-.51.65,1.52,1.52,0,0,1-.58.27,2.34,2.34,0,0,1-.44.06h-2.88a3.16,3.16,0,0,1-.42-.07,2,2,0,0,1-1.22-.9,1.88,1.88,0,0,1-.25-1V16.36h-3.21v8.57a8.86,8.86,0,0,1-.28,2.41,3.89,3.89,0,0,1-.87,1.61,3.36,3.36,0,0,1-1.48.9,7.46,7.46,0,0,1-2.14.28h-1.61v3.5h1.61a8.16,8.16,0,0,0,3.16-.58,7,7,0,0,0,2.42-1.62,7.88,7.88,0,0,0,1.61-2.53,10.8,10.8,0,0,0,.76-3.29,2.12,2.12,0,0,0,.92.4,7.66,7.66,0,0,0,1,.07h2.9a5.13,5.13,0,0,0,1.77-.32,4.57,4.57,0,0,0,1.58-1,5.16,5.16,0,0,0,3.73,1.33,5.07,5.07,0,0,0,1.76-.32,4.32,4.32,0,0,0,1.57-1,5.12,5.12,0,0,0,3.78,1.38,4.84,4.84,0,0,0,1.77-.37,4.41,4.41,0,0,0,1.57-1.06,5.49,5.49,0,0,0,1.13-1.78,6.7,6.7,0,0,0,.43-2.51,9,9,0,0,0-.07-1.08C273.39,18.87,273.34,18.46,273.27,18ZM213.8,31.34,216,33.73l2.19-2.39-2.21-2.42Z" transform="translate(0 0)"/></svg>