<?xml version="1.0" encoding="utf-8"?>
<!-- Generator: Adobe Illustrator 25.4.1, SVG Export Plug-In . SVG Version: 6.00 Build 0)  -->
<svg version="1.1" id="Layer_1" xmlns="http://www.w3.org/2000/svg" xmlns:xlink="http://www.w3.org/1999/xlink" x="0px" y="0px"
	 viewBox="0 0 192.8 106" style="enable-background:new 0 0 192.8 106;" xml:space="preserve">
<style type="text/css">
	.st0{fill:#3378FF;}
	.st1{fill:#062652;}
	.st2{fill:#5E6575;}
</style>
<g>
	<path class="st0" d="M187.4,1.9l-1-1l0.9-1l1,1L187.4,1.9z M153.3,9.8c0,0.3,0,0.6-0.1,0.8c-0.1,0.3-0.2,0.5-0.3,0.6
		c-0.2,0.2-0.4,0.3-0.7,0.4c-0.3,0.1-0.7,0.1-1.1,0.1h-0.4c-0.3,0-0.6-0.1-0.9-0.2c-0.3-0.1-0.5-0.3-0.7-0.6
		c-0.1-0.2-0.2-0.4-0.3-0.7c0-0.2-0.1-0.4-0.1-0.6c0-0.1,0-0.2,0-0.3c0-0.3,0.1-0.6,0.2-1c0.1-0.4,0.3-0.7,0.4-1.1l-1-0.5
		c-0.3,0.6-0.5,1.2-0.6,1.7c-0.1,0.5-0.1,0.9-0.1,1.2c0,0.1,0,0.1,0,0.2c0,0.4,0.1,0.7,0.2,1c0.1,0.3,0.2,0.5,0.3,0.7
		c0.3,0.4,0.6,0.8,1.1,1c0.4,0.2,0.9,0.4,1.5,0.4h0.4c2.2,0,3.4-1.1,3.4-3.2V1h-1.1V9.8z M190.7,1l-1-1l-0.9,1l1,1L190.7,1z
		 M176.9,6.1c0.1,0.3,0.1,0.6,0.1,1c0,0.4,0,0.7-0.1,1c-0.1,0.3-0.2,0.5-0.3,0.7c-0.1,0.2-0.2,0.3-0.4,0.5c-0.1,0.1-0.3,0.2-0.4,0.3
		c-0.1,0.1-0.3,0.1-0.4,0.1c-0.1,0-0.2,0-0.3,0c-0.1,0-0.2,0-0.3,0c-0.1,0-0.3-0.1-0.4-0.1c-0.2-0.1-0.4-0.2-0.7-0.3
		c-0.3-0.1-0.6-0.3-1-0.5c-0.3-0.1-0.5-0.3-0.8-0.4c-0.2-0.1-0.4-0.2-0.6-0.3v5.6h-1.1V7.4l1.1-0.6c0.1,0.1,0.2,0.1,0.4,0.2
		c0.1,0.1,0.2,0.1,0.3,0.2c0.1,0.1,0.2,0.1,0.4,0.2c0.1-0.4,0.1-0.7,0.2-1c0.1-0.3,0.2-0.6,0.3-0.8c0.4-0.8,1-1.2,1.9-1.2
		c0.4,0,0.7,0.1,1,0.2c0.3,0.2,0.6,0.4,0.8,0.7C176.6,5.5,176.8,5.8,176.9,6.1z M175.9,7.1c0,0,0-0.1,0-0.2c0-0.1,0-0.2,0-0.3
		c0-0.1-0.1-0.2-0.1-0.4c-0.1-0.1-0.1-0.2-0.2-0.3c-0.1-0.1-0.2-0.2-0.3-0.3c-0.1-0.1-0.3-0.1-0.5-0.1c-0.2,0-0.3,0-0.4,0.1
		c-0.1,0.1-0.2,0.2-0.3,0.3c-0.1,0.2-0.2,0.4-0.3,0.7c-0.1,0.3-0.2,0.7-0.2,1.2c0.3,0.2,0.6,0.3,0.8,0.4c0.2,0.1,0.4,0.2,0.5,0.2
		c0.1,0,0.2,0.1,0.3,0.1c0.1,0,0.1,0,0.1,0c0,0,0.1,0,0.2,0c0.1,0,0.2-0.1,0.2-0.2c0.1-0.1,0.1-0.2,0.2-0.4
		C175.8,7.7,175.9,7.4,175.9,7.1z M191,6.5v0.8c0,0.4-0.1,0.8-0.2,1.1c-0.2,0.3-0.4,0.6-0.7,0.8c-0.5,0.3-1.3,0.5-2.3,0.5h-2.4h-0.2
		h0v0c-0.6,0-1.1-0.3-1.6-0.7c-0.3,0.4-0.8,0.7-1.6,0.8c-0.1,0-0.3,0-0.4,0c-0.2,0-0.3,0-0.5,0c-0.2,0-0.4,0-0.6,0
		c-0.2,0-0.4,0-0.6-0.1c-0.2,0-0.4-0.1-0.6-0.2c-0.2-0.1-0.4-0.1-0.5-0.2L178,9l0.6-1l0.5,0.3c0.1,0.1,0.3,0.1,0.5,0.2
		c0.2,0,0.4,0.1,0.7,0.1c0.2,0,0.3,0,0.5,0c0.1,0,0.2,0,0.3,0c0.1,0,0.3,0,0.5,0c0.2,0,0.4-0.1,0.6-0.2c0.2-0.1,0.2-0.1,0.3-0.2
		c0,0,0.1-0.1,0.1-0.2c0,0,0-0.1,0-0.2c0-0.1-0.1-0.2-0.2-0.4L180.1,4l1-0.6l2.3,3.6c0.1,0.2,0.2,0.4,0.4,0.5
		c0.1,0.2,0.3,0.3,0.4,0.5c0.1,0.2,0.3,0.3,0.4,0.4c0.2,0.1,0.3,0.2,0.5,0.2h0.2h2.4c0.5,0,0.8,0,1.1-0.1c0.3-0.1,0.5-0.1,0.6-0.2
		c0.2-0.1,0.3-0.2,0.3-0.3c0.1-0.1,0.1-0.2,0.1-0.3h-0.9c-0.1,0-0.2,0-0.4,0c-0.1,0-0.3,0-0.4,0c-0.1,0-0.3-0.1-0.4-0.1
		c-0.1,0-0.3-0.1-0.4-0.2c-0.1-0.1-0.2-0.1-0.3-0.2c-0.1-0.1-0.2-0.2-0.3-0.4c-0.1-0.1-0.2-0.3-0.2-0.5c-0.1-0.2-0.1-0.4-0.1-0.7
		c0-0.3,0.1-0.6,0.2-0.9c0.1-0.3,0.3-0.5,0.5-0.8c0.2-0.2,0.5-0.4,0.7-0.5c0.3-0.1,0.6-0.2,0.9-0.2c0.3,0,0.7,0.1,1,0.2
		c0.3,0.2,0.5,0.4,0.7,0.6c0.2,0.3,0.4,0.7,0.5,1.1C190.9,5.4,191,5.9,191,6.5z M189.9,6.4c0-0.4,0-0.7-0.1-1
		c-0.1-0.3-0.2-0.5-0.3-0.7c-0.2-0.3-0.5-0.4-0.8-0.4c-0.1,0-0.3,0-0.4,0.1c-0.1,0-0.3,0.1-0.4,0.2c-0.1,0.1-0.2,0.2-0.3,0.4
		c-0.1,0.2-0.1,0.3-0.1,0.5c0,0.1,0,0.2,0,0.3c0,0.1,0.1,0.2,0.1,0.2s0.1,0.1,0.1,0.1c0,0,0.1,0.1,0.1,0.1c0.1,0.1,0.3,0.1,0.4,0.2
		c0.2,0,0.4,0,0.6,0H189.9z M162.9,9.6h1.1V1h-1.1V9.6z M160.1,5c0.5,0.5,0.8,1.3,0.8,2.4v2.3c0,0.6-0.1,1.1-0.2,1.5
		c-0.2,0.4-0.4,0.8-0.8,1c-0.4,0.3-0.8,0.5-1.3,0.6c-0.5,0.1-1.2,0.2-1.9,0.2v-1.1c0.6,0,1.1,0,1.5-0.1c0.4-0.1,0.7-0.2,1-0.4
		c0.2-0.2,0.4-0.4,0.5-0.6c0.1-0.3,0.2-0.6,0.2-1h-1.1c-0.3,0-0.6,0-0.9-0.1c-0.3-0.1-0.6-0.2-0.8-0.4c-0.2-0.2-0.4-0.4-0.6-0.8
		c-0.2-0.3-0.2-0.7-0.2-1.1c0-0.3,0-0.5,0.1-0.7c0-0.2,0.1-0.4,0.2-0.6c0.1-0.2,0.2-0.3,0.2-0.4c0.1-0.1,0.2-0.2,0.2-0.3
		c0.2-0.2,0.5-0.4,0.8-0.5c0.3-0.1,0.6-0.2,0.9-0.2c0.3,0,0.6,0,0.8,0.1C159.7,4.7,159.9,4.8,160.1,5z M159.8,7.4
		c0-0.3,0-0.5-0.1-0.7c0-0.2-0.1-0.4-0.2-0.5c-0.1-0.1-0.1-0.2-0.2-0.3c-0.1-0.1-0.2-0.1-0.3-0.2c-0.1,0-0.2-0.1-0.2-0.1
		c-0.1,0-0.1,0-0.2,0c-0.4,0-0.7,0.1-0.9,0.4c-0.2,0.3-0.3,0.7-0.3,1.2c0,0.5,0.2,0.9,0.5,1.1c0.1,0,0.2,0.1,0.2,0.1
		c0.1,0,0.2,0.1,0.2,0.1c0.1,0,0.1,0,0.2,0c0.1,0,0.1,0,0.2,0h1.1V7.4z"/>
	<path class="st1" d="M192.8,32.7c0,0-0.2,0.1-0.4,0.3c-0.2,0.2-0.5,0.3-0.9,0.5c-0.4,0.2-0.8,0.4-1.3,0.7c-0.5,0.2-1,0.5-1.6,0.7
		c-0.6,0.2-1.2,0.4-1.8,0.5c-0.6,0.1-1.2,0.2-1.9,0.2h-1.7H183h-0.2c-0.5,0-0.9-0.1-1.2-0.2c-0.4-0.1-0.7-0.3-0.9-0.6h0l-0.1,0.1
		c-0.2,0.2-0.5,0.4-0.8,0.5c-0.3,0.1-0.6,0.2-1,0.2c-0.9,0-1.6-0.3-2.1-0.8c-0.2,0.3-0.5,0.4-0.8,0.6c-0.3,0.1-0.6,0.2-1,0.2h-0.1
		c-0.9,0-1.5-0.3-2-0.8c0,0-0.1,0.1-0.1,0.1c-0.5,0.4-1.2,0.7-2.1,0.7H170v0c-0.4,0-0.7,0-1-0.1c-0.3-0.1-0.6-0.2-0.8-0.3
		c-0.2-0.1-0.4-0.3-0.6-0.5c-0.1-0.2-0.2-0.4-0.3-0.7c-0.1-0.2-0.1-0.5-0.2-0.8c0-0.3,0-0.7,0-1v-7h1.4v7c0,0.4,0,0.8,0,1
		c0,0.3,0.1,0.5,0.2,0.6c0.1,0.1,0.3,0.2,0.5,0.3c0.2,0.1,0.6,0.1,1,0.1h0.3c0.3,0,0.6,0,0.8-0.1c0.2-0.1,0.3-0.1,0.4-0.3
		c0.1-0.1,0.2-0.3,0.2-0.4c0-0.2,0.1-0.3,0.1-0.6v-2.2h1.4v2.2c0,0.5,0.1,0.8,0.3,1c0.2,0.2,0.6,0.3,1.1,0.3c0.1,0,0.2,0,0.3-0.1
		c0.1,0,0.3-0.1,0.4-0.2c0.1-0.1,0.2-0.2,0.3-0.4c0.1-0.2,0.1-0.4,0.1-0.7v-2.2h1.4v2.2c0,0.5,0.1,0.8,0.3,1
		c0.2,0.2,0.6,0.3,1.1,0.3c0.1,0,0.3,0,0.4-0.1c0.1,0,0.3-0.1,0.4-0.2c0.1-0.1,0.2-0.2,0.3-0.4c0.1-0.2,0.1-0.4,0.1-0.6v-2.3h1.4V33
		c0,0.4,0.1,0.8,0.4,1c0.2,0.2,0.6,0.3,1.1,0.3h0.2h0.3h1.7c0.5,0,1.1-0.1,1.6-0.2c0.6-0.1,1.1-0.3,1.6-0.5c0.5-0.2,1-0.4,1.4-0.6
		c0.5-0.2,0.8-0.4,1.2-0.6c-0.5-0.2-0.9-0.4-1.4-0.6c-0.5-0.2-0.9-0.3-1.3-0.5c-0.4-0.1-0.7-0.3-1-0.3c-0.3-0.1-0.5-0.1-0.6-0.2
		c-0.1,0-0.2,0-0.3,0c-0.1,0-0.2,0.1-0.3,0.1c-0.1,0.1-0.2,0.2-0.3,0.3c-0.1,0.2-0.2,0.4-0.2,0.6l-1.3-0.3c0.4-1.4,1.2-2.2,2.4-2.2
		c0,0,0.1,0,0.1,0c0,0,0.1,0,0.2,0c0.1,0,0.2,0.1,0.4,0.1c0.2,0,0.4,0.1,0.6,0.2c0.2,0.1,0.5,0.2,0.9,0.3c0.3,0.1,0.8,0.3,1.2,0.5
		l2.6,1L192.8,32.7z M106.5,38.5l1.1,1.2l1.2-1.2l-1.2-1.2L106.5,38.5z M133.9,35.3c0,0.5-0.1,1-0.2,1.4c-0.1,0.4-0.3,0.7-0.5,0.9
		c-0.2,0.2-0.5,0.4-0.9,0.5c-0.4,0.1-0.8,0.2-1.3,0.2h-1v1.4h1c0.7,0,1.3-0.1,1.9-0.3c0.5-0.2,1-0.5,1.3-0.9
		c0.4-0.4,0.6-0.8,0.8-1.4c0.2-0.5,0.3-1.2,0.3-1.9v-4.5h-1.4V35.3z M114.8,27.4l-1.3-1.3l-1.2,1.3l1.2,1.3L114.8,27.4z M103.7,38.5
		l1.1,1.2l1.2-1.2l-1.2-1.2L103.7,38.5z M124.4,24l-6.7,2.9l-0.1,1.5c0.1,0.1,0.3,0.2,0.5,0.4c0.2,0.2,0.4,0.4,0.7,0.6
		c0.2,0.2,0.5,0.5,0.8,0.7c0.3,0.3,0.5,0.5,0.8,0.8c0.3,0.3,0.5,0.6,0.7,0.8c0.2,0.3,0.4,0.5,0.6,0.8c0.2,0.2,0.2,0.4,0.3,0.6
		c0,0.2,0.1,0.3,0.1,0.4c0,0.1,0,0.2,0,0.2c-0.1,0.1-0.2,0.2-0.4,0.3c-0.2,0.1-0.5,0.1-0.9,0.1h-3.9h-0.3h-0.3c0,0-0.1,0-0.2,0
		c-0.1,0-0.2,0-0.3,0c-0.1,0-0.2-0.1-0.3-0.1c-0.1,0-0.2-0.1-0.3-0.2c-0.1-0.1-0.2-0.2-0.2-0.3c-0.1-0.1-0.1-0.3-0.1-0.5v-2.4h-1.4
		v2.5c0,0.1,0,0.2,0,0.4c0,0.1-0.1,0.2-0.2,0.3c-0.1,0.1-0.3,0.2-0.5,0.3c-0.2,0.1-0.5,0.1-0.8,0.1h-1.1h-0.3h-1c0,0-0.1,0-0.2,0
		c-0.1,0-0.2,0-0.3,0c-0.1,0-0.2-0.1-0.3-0.1c-0.1,0-0.2-0.1-0.3-0.2c-0.1-0.1-0.2-0.2-0.2-0.3c-0.1-0.1-0.1-0.3-0.1-0.5v-2.4h-1.4
		v2.5c0,0.1,0,0.2,0,0.4c0,0.1-0.1,0.2-0.2,0.3c-0.1,0.1-0.3,0.2-0.5,0.3c-0.2,0.1-0.5,0.1-0.8,0.1h-2.2h-0.3
		c-0.2,0-0.4-0.1-0.6-0.2c-0.2-0.1-0.4-0.3-0.5-0.5c-0.2-0.2-0.3-0.4-0.5-0.6c-0.2-0.2-0.3-0.4-0.4-0.6L98,28.1l-1.2,0.8l2.7,4.2
		c0.1,0.2,0.2,0.3,0.2,0.4c0,0.1,0.1,0.2,0.1,0.2c0,0.1,0,0.1-0.1,0.2c0,0.1-0.2,0.2-0.3,0.3c-0.2,0.1-0.4,0.1-0.7,0.2
		c-0.2,0-0.5,0.1-0.6,0.1c-0.2,0-0.3,0-0.4,0c-0.2,0-0.4,0-0.6,0c-0.3,0-0.5-0.1-0.8-0.1c-0.2-0.1-0.5-0.1-0.6-0.2l-0.6-0.3
		l-0.7,1.2l0.6,0.3c0.2,0.1,0.4,0.2,0.6,0.3c0.2,0.1,0.5,0.1,0.7,0.2c0.2,0,0.5,0.1,0.7,0.1c0.3,0,0.5,0,0.7,0c0.2,0,0.4,0,0.6,0
		c0.2,0,0.4,0,0.5-0.1c0.9-0.1,1.5-0.4,1.9-0.9c0.6,0.6,1.2,0.9,1.9,0.9v0h0.1h0.3h2.2c1,0,1.7-0.3,2.2-0.8c0.2,0.3,0.5,0.4,0.8,0.6
		c0.3,0.1,0.7,0.2,1.2,0.2h1h0.3h1.1c1,0,1.7-0.3,2.2-0.8c0.2,0.3,0.5,0.4,0.8,0.6c0.3,0.1,0.7,0.2,1.2,0.2h0.3h0.3h3.9
		c0.4,0,0.8,0,1.1-0.1c0.3-0.1,0.6-0.2,0.8-0.3c0.2-0.1,0.4-0.3,0.5-0.4c0.1-0.1,0.2-0.3,0.2-0.4c0-0.1,0.1-0.2,0.1-0.3
		c0-0.1,0-0.2,0-0.3c0-0.1,0-0.1,0-0.2c0-0.1,0-0.3,0-0.4c0-0.2-0.1-0.4-0.2-0.6c-0.1-0.2-0.2-0.5-0.4-0.8c-0.2-0.3-0.4-0.6-0.7-0.9
		c-0.2-0.3-0.5-0.6-0.8-0.9c-0.3-0.3-0.5-0.6-0.8-0.9c-0.3-0.3-0.5-0.5-0.7-0.7c-0.2-0.2-0.4-0.4-0.6-0.5l5.8-2.5L124.4,24z
		 M156.9,38.2l1.3,1.3l1.3-1.2l-1.3-1.3L156.9,38.2z M165.1,31.4c0-0.2-0.1-0.3-0.1-0.5c0-0.2-0.1-0.4-0.1-0.6l-1.3,0.2
		c0,0.2,0.1,0.4,0.1,0.6c0,0.2,0.1,0.3,0.1,0.5c0,0.1,0,0.3,0.1,0.4c0,0.1,0,0.3,0,0.4c0,0.1,0,0.2,0,0.3c0,0.1,0,0.2,0,0.2V33
		c0,0.4-0.1,0.7-0.3,0.9c-0.1,0.1-0.2,0.2-0.4,0.3c-0.2,0.1-0.3,0.1-0.5,0.1h-9.1c-0.1,0-0.2,0-0.3,0c-0.1,0-0.3-0.1-0.4-0.2
		c-0.1-0.1-0.3-0.2-0.4-0.4c-0.1-0.2-0.2-0.4-0.2-0.8c0-0.2,0-0.3,0.1-0.6c0-0.2,0.1-0.4,0.1-0.6c0-0.2,0.1-0.4,0.2-0.6
		c0.1-0.2,0.1-0.3,0.1-0.4l-1.3-0.4c0,0-0.1,0.2-0.1,0.4c-0.1,0.2-0.1,0.4-0.2,0.7c-0.1,0.3-0.1,0.5-0.2,0.8c0,0.3-0.1,0.6-0.1,0.8
		c0,0.3,0,0.5,0.1,0.7c0,0.2,0.1,0.4,0.2,0.6c0.1,0.2,0.2,0.3,0.3,0.4c0.1,0.1,0.2,0.2,0.3,0.3c0.2,0.2,0.5,0.4,0.8,0.5
		c0.3,0.1,0.6,0.2,1,0.2h9.1c0.4,0,0.7-0.1,1-0.2c0.3-0.1,0.6-0.3,0.9-0.6c0.1-0.1,0.2-0.2,0.3-0.3c0.1-0.1,0.2-0.3,0.2-0.4
		c0.1-0.2,0.1-0.3,0.2-0.5c0-0.2,0.1-0.4,0.1-0.6v-0.1c0-0.2,0-0.4-0.1-0.6C165.2,32,165.2,31.7,165.1,31.4z M133.3,27.6l1.3,1.3
		l1.2-1.2l-1.3-1.3L133.3,27.6z M141.7,38.3l1.3,1.3l1.3-1.2L143,37L141.7,38.3z M144.6,31.7c0-0.2-0.1-0.5-0.1-0.7
		c0-0.2-0.1-0.4-0.1-0.6c0-0.2-0.1-0.3-0.1-0.5c0-0.1,0-0.2-0.1-0.2l-1.3,0.4c0,0.1,0,0.2,0.1,0.3c0,0.1,0.1,0.3,0.1,0.5
		c0,0.2,0.1,0.4,0.1,0.6c0,0.2,0.1,0.4,0.1,0.6c0,0.2,0,0.4,0.1,0.5c0,0.2,0,0.3,0,0.4c0,0.3,0,0.6-0.2,0.7
		c-0.1,0.2-0.2,0.3-0.4,0.4c-0.1,0.1-0.3,0.1-0.4,0.2c-0.1,0-0.2,0-0.3,0h-1.6c-0.5,0-0.8,0-1-0.1c-0.2-0.1-0.4-0.1-0.5-0.3
		c-0.1-0.1-0.2-0.3-0.2-0.6s0-0.6,0-1v-7h-1.4v7c0,0.4,0,0.7,0,1c0,0.3,0.1,0.6,0.2,0.8c0.1,0.3,0.2,0.5,0.3,0.7
		c0.1,0.2,0.3,0.3,0.6,0.5c0.2,0.1,0.5,0.2,0.8,0.3c0.3,0.1,0.6,0.1,1,0.1v0h1.9c0.3,0,0.6-0.1,0.9-0.2c0.3-0.1,0.6-0.3,0.8-0.5
		c0.2-0.2,0.4-0.5,0.6-0.8c0.2-0.3,0.2-0.7,0.2-1.2c0-0.2,0-0.3,0-0.6C144.7,32.2,144.7,32,144.6,31.7z"/>
	<path class="st2" d="M20.3,64.1l0.9,0.9l-1,1l-0.9-1L20.3,64.1z M10.6,60.3c-0.1-0.2-0.2-0.3-0.3-0.5c-0.3-0.4-0.5-0.7-0.7-1
		c-0.2-0.3-0.4-0.5-0.5-0.7c-0.1-0.2-0.3-0.4-0.4-0.5c-0.1-0.2-0.2-0.3-0.3-0.4c-0.1-0.1-0.1-0.2-0.2-0.3c-0.1-0.1-0.1-0.2-0.2-0.2
		l-0.9,0.6l2.1,3.2c0.1,0.2,0.2,0.3,0.2,0.5c0,0.1,0.1,0.2,0.1,0.3c0,0,0,0.1,0,0.1c0,0.1-0.1,0.2-0.3,0.2c-0.1,0.1-0.3,0.1-0.6,0.2
		c-0.2,0-0.4,0-0.5,0c-0.1,0-0.2,0-0.2,0c-0.2,0-0.4,0-0.6,0c-0.2,0-0.4-0.1-0.6-0.1c-0.2,0-0.4-0.1-0.5-0.2l-0.5-0.3l-0.6,1
		l0.5,0.3c0.1,0.1,0.3,0.2,0.5,0.2c0.2,0.1,0.4,0.1,0.6,0.1c0.2,0,0.4,0.1,0.6,0.1c0.2,0,0.4,0,0.6,0c0.2,0,0.3,0,0.5,0
		c0.2,0,0.3,0,0.4,0c0.9-0.1,1.5-0.5,1.7-1c0.1-0.2,0.1-0.3,0.1-0.4c0-0.1,0-0.1,0-0.2c0-0.2,0-0.3-0.1-0.5
		C10.7,60.6,10.7,60.5,10.6,60.3z M21.6,65l0.9,1l1-1l-0.9-0.9L21.6,65z M62.1,75.3l1,1l1-1l-1-1L62.1,75.3z M3.2,62.5
		c0,0.4,0,0.8-0.1,1.1c-0.1,0.3-0.2,0.6-0.4,0.8c-0.2,0.2-0.4,0.3-0.7,0.4c-0.3,0.1-0.6,0.1-1.1,0.1H0v1.1h0.8
		c0.6,0,1.1-0.1,1.5-0.2c0.4-0.2,0.8-0.4,1.1-0.7c0.3-0.3,0.5-0.7,0.7-1.1c0.1-0.4,0.2-0.9,0.2-1.5v-3.7H3.2V62.5z M45.2,56.1l-1-1
		l-1,1l1,1L45.2,56.1z M185.5,96.2l0.9,0.9l0.9-0.9l-1-1L185.5,96.2z M22.7,62.3c0.2-0.2,0.4-0.4,0.5-0.7c0.1-0.3,0.2-0.6,0.2-1
		c0-0.1,0-0.3,0-0.5c0-0.2,0-0.4-0.1-0.5c0-0.2-0.1-0.4-0.1-0.6c0-0.2-0.1-0.3-0.1-0.5c0-0.2-0.1-0.3-0.1-0.4c0-0.1,0-0.2,0-0.2
		l-1.1,0.3c0,0.1,0,0.1,0.1,0.2c0,0.1,0,0.2,0.1,0.4c0,0.1,0.1,0.3,0.1,0.5c0,0.2,0.1,0.3,0.1,0.5c0,0.2,0,0.3,0.1,0.4
		c0,0.1,0,0.2,0,0.3c0,0.3,0,0.5-0.1,0.6c-0.1,0.1-0.2,0.2-0.3,0.3c-0.1,0.1-0.2,0.1-0.3,0.1c-0.1,0-0.2,0-0.3,0h-2.2
		c-0.4,0-0.6,0-0.8-0.1c-0.2,0-0.3-0.1-0.4-0.2c-0.1-0.1-0.2-0.3-0.2-0.5c0-0.2,0-0.5,0-0.8v-5.7h-1.1V60c0,0.3,0,0.6,0,0.8
		c0,0.3,0.1,0.5,0.1,0.7c0.1,0.2,0.2,0.4,0.3,0.5c0.1,0.2,0.3,0.3,0.4,0.4c0.2,0.1,0.4,0.2,0.7,0.2c0.2,0,0.5,0.1,0.8,0.1v0h2.4
		c0.3,0,0.5,0,0.8-0.1C22.3,62.6,22.5,62.4,22.7,62.3z M188.4,94.5l-0.8-0.8l-0.9,0.8l0.8,0.8L188.4,94.5z M40.3,65.1l-0.9-0.9
		l-0.9,0.9l0.9,1L40.3,65.1z M42.3,78.2c0.5,0.5,0.8,1.3,0.8,2.3v2.2c0,0.6-0.1,1-0.2,1.4c-0.2,0.4-0.4,0.7-0.8,1
		c-0.3,0.3-0.8,0.5-1.3,0.6C40.3,86,39.7,86,38.9,86v-1.1c0.6,0,1.1,0,1.5-0.1c0.4-0.1,0.7-0.2,1-0.4c0.2-0.2,0.4-0.4,0.5-0.6
		c0.1-0.3,0.1-0.6,0.1-1h-1.1c-0.3,0-0.6,0-0.8-0.1c-0.3-0.1-0.5-0.2-0.8-0.4c-0.2-0.2-0.4-0.4-0.6-0.7c-0.1-0.3-0.2-0.7-0.2-1.1
		c0-0.3,0-0.5,0.1-0.7c0-0.2,0.1-0.4,0.2-0.6c0.1-0.2,0.1-0.3,0.2-0.4c0.1-0.1,0.2-0.2,0.2-0.3c0.2-0.2,0.5-0.4,0.7-0.5
		c0.3-0.1,0.6-0.2,0.9-0.2c0.3,0,0.5,0,0.8,0.1C41.9,77.9,42.1,78,42.3,78.2z M42,80.5c0-0.3,0-0.5-0.1-0.7c0-0.2-0.1-0.4-0.2-0.5
		c-0.1-0.1-0.1-0.2-0.2-0.3c-0.1-0.1-0.2-0.1-0.2-0.2c-0.1,0-0.2,0-0.2-0.1s-0.1,0-0.2,0c-0.4,0-0.7,0.1-0.9,0.4
		c-0.2,0.3-0.3,0.7-0.3,1.2c0,0.5,0.2,0.9,0.5,1.1c0.1,0,0.2,0.1,0.2,0.1c0.1,0,0.2,0,0.2,0.1c0.1,0,0.1,0,0.2,0c0.1,0,0.1,0,0.2,0
		H42V80.5z M36.2,65.1l0.9,1l1-1l-0.9-0.9L36.2,65.1z M32.6,82.5c0,0.4,0,0.8-0.1,1.1c-0.1,0.3-0.2,0.6-0.4,0.8
		c-0.2,0.2-0.4,0.3-0.7,0.4c-0.3,0.1-0.6,0.1-1.1,0.1h-0.8v1.1h0.8c0.6,0,1.1-0.1,1.5-0.2c0.4-0.2,0.8-0.4,1.1-0.7
		c0.3-0.3,0.5-0.7,0.7-1.1c0.1-0.4,0.2-0.9,0.2-1.5v-3.7h-1.1V82.5z M30,81.8c0.1-0.2,0.1-0.3,0.1-0.4c0-0.1,0-0.1,0-0.2
		c0-0.1,0-0.3-0.1-0.4c0-0.2-0.1-0.3-0.2-0.5c-0.1-0.2-0.2-0.3-0.3-0.5c-0.3-0.4-0.5-0.7-0.7-1c-0.2-0.3-0.4-0.5-0.5-0.7
		c-0.1-0.2-0.3-0.4-0.4-0.5c-0.1-0.2-0.2-0.3-0.3-0.4c-0.1-0.1-0.1-0.2-0.2-0.3c-0.1-0.1-0.1-0.2-0.2-0.2l-0.9,0.6l2.1,3.2
		c0.1,0.2,0.2,0.3,0.2,0.5c0,0.1,0.1,0.2,0.1,0.3c0,0,0,0.1,0,0.1c0,0.1-0.1,0.2-0.3,0.2c-0.1,0.1-0.3,0.1-0.6,0.2
		c-0.2,0-0.4,0-0.5,0c-0.1,0-0.2,0-0.2,0c-0.2,0-0.4,0-0.6,0c-0.2,0-0.4-0.1-0.6-0.1c-0.2,0-0.4-0.1-0.5-0.2l-0.5-0.3l-0.6,1
		l0.5,0.3c0.1,0.1,0.3,0.2,0.5,0.2c0.2,0.1,0.4,0.1,0.6,0.2c0.2,0,0.4,0.1,0.6,0.1c0.2,0,0.4,0,0.6,0c0.2,0,0.3,0,0.5,0
		c0.2,0,0.3,0,0.4,0C29.2,82.7,29.8,82.3,30,81.8z M35.5,82.8h1.1v-8.4h-1.1V82.8z M107.1,60.6l-0.4-6.2l-1.1,0.1l0.4,6H107.1z
		 M99,56.9L100,56l-1-1l-0.9,1L99,56.9z M140.7,54l-1-1l-1,1l1,1L140.7,54z M98.7,54.2l-0.8-0.8l-0.8,0.8l0.8,0.8L98.7,54.2z
		 M191.6,84.9l-0.9-0.9l-0.9,0.9l0.9,1L191.6,84.9z M185.7,61.6c0.1,0.2,0.2,0.4,0.3,0.5c0.1,0.2,0.3,0.3,0.4,0.4
		c0.2,0.1,0.4,0.2,0.7,0.2c0.2,0,0.5,0.1,0.8,0.1v0h1.5c0.3,0,0.5,0,0.7-0.1c0.2-0.1,0.5-0.2,0.7-0.4c0.2-0.2,0.4-0.4,0.5-0.7
		c0.1-0.3,0.2-0.6,0.2-1c0-0.1,0-0.3,0-0.5c0-0.2,0-0.4-0.1-0.5c0-0.2-0.1-0.4-0.1-0.6c0-0.2-0.1-0.3-0.1-0.5c0-0.2-0.1-0.3-0.1-0.4
		c0-0.1,0-0.2,0-0.2l-1.1,0.3c0,0.1,0,0.1,0.1,0.2c0,0.1,0,0.2,0.1,0.4c0,0.1,0.1,0.3,0.1,0.5c0,0.2,0.1,0.3,0.1,0.5
		c0,0.2,0,0.3,0.1,0.4c0,0.1,0,0.2,0,0.3c0,0.3,0,0.5-0.1,0.6c-0.1,0.1-0.2,0.2-0.3,0.3c-0.1,0.1-0.2,0.1-0.3,0.1
		c-0.1,0-0.2,0-0.3,0h-1.3c-0.4,0-0.6,0-0.8-0.1c-0.2,0-0.3-0.1-0.4-0.2c-0.1-0.1-0.2-0.3-0.2-0.5c0-0.2,0-0.5,0-0.8v-5.7h-1.1V60
		c0,0.3,0,0.6,0,0.8C185.6,61.1,185.7,61.4,185.7,61.6z M185.4,76.1l-1-1l-1,1l1,1L185.4,76.1z M179.9,55.8l-1-1l-0.9,1l0.9,0.9
		L179.9,55.8z M177.7,55.8l-1-1l-0.9,1l0.9,0.9L177.7,55.8z M59.4,66.7h-1.1v-6.1l1.1-0.6c0.1,0.1,0.2,0.1,0.4,0.2
		c0.1,0.1,0.2,0.1,0.3,0.2c0.1,0.1,0.2,0.1,0.4,0.2c0.1-0.4,0.1-0.7,0.2-1c0.1-0.3,0.2-0.5,0.3-0.8c0.4-0.8,1-1.2,1.8-1.2
		c0.4,0,0.7,0.1,1,0.2c0.3,0.1,0.5,0.4,0.8,0.6c0.2,0.2,0.3,0.5,0.4,0.8c0.1,0.3,0.1,0.6,0.1,1c0,0.4,0,0.7-0.1,1
		c-0.1,0.3-0.2,0.5-0.3,0.7c-0.1,0.2-0.2,0.3-0.4,0.5c-0.1,0.1-0.3,0.2-0.4,0.3c-0.1,0.1-0.3,0.1-0.4,0.1c-0.1,0-0.2,0-0.3,0
		c-0.1,0-0.2,0-0.3,0c-0.1,0-0.3-0.1-0.4-0.1c-0.2-0.1-0.4-0.2-0.7-0.3c-0.3-0.1-0.6-0.3-1-0.5c-0.3-0.1-0.5-0.3-0.8-0.4
		c-0.2-0.1-0.4-0.2-0.6-0.3V66.7z M61.5,61c0.3,0.2,0.6,0.3,0.8,0.4c0.2,0.1,0.4,0.2,0.5,0.2c0.1,0,0.2,0.1,0.3,0.1
		c0.1,0,0.1,0,0.1,0c0,0,0.1,0,0.2,0c0.1,0,0.2-0.1,0.2-0.2c0.1-0.1,0.1-0.2,0.2-0.4c0.1-0.2,0.1-0.5,0.1-0.8c0,0,0-0.1,0-0.2
		c0-0.1,0-0.2,0-0.3c0-0.1-0.1-0.2-0.1-0.4c0-0.1-0.1-0.2-0.2-0.3c-0.1-0.1-0.2-0.2-0.3-0.2c-0.1-0.1-0.3-0.1-0.5-0.1
		c-0.2,0-0.3,0-0.4,0.1c-0.1,0.1-0.2,0.2-0.3,0.3c-0.1,0.2-0.2,0.4-0.3,0.7C61.6,60.1,61.5,60.5,61.5,61z M83.4,57.3l-1-1l-0.9,1
		l0.9,0.9L83.4,57.3z M72.4,55.5l-1-1l-1,1l1,1L72.4,55.5z M189.3,84.9l-0.9-0.9l-0.9,0.9l0.9,1L189.3,84.9z M97.7,56l-1-1l-0.9,1
		l0.9,0.9L97.7,56z M189.5,85.8l-0.8,0.8l0.8,0.8l0.8-0.8L189.5,85.8z M189.6,96.2l-1-1l-0.9,1l0.9,0.9L189.6,96.2z M85.7,57.3l-1-1
		l-0.9,1l0.9,0.9L85.7,57.3z M189,64.9l1,1l1-1l-1-1L189,64.9z M126.7,81.2c0,0.6,0.1,1.1,0.2,1.5v0.1h-1.2
		c-0.1-0.1-0.1-0.4-0.2-0.7c-0.5,0.6-1.2,0.8-2,0.8c-0.7,0-1.2-0.2-1.7-0.6c-0.4-0.4-0.6-0.9-0.6-1.5c0-0.7,0.3-1.3,0.8-1.7
		c0.5-0.4,1.3-0.6,2.3-0.6h1.1v-0.5c0-0.4-0.1-0.7-0.4-1c-0.2-0.2-0.6-0.4-1.1-0.4c-0.4,0-0.8,0.1-1.1,0.3c-0.3,0.2-0.4,0.5-0.4,0.8
		h-1.2c0-0.3,0.1-0.7,0.4-1c0.2-0.3,0.6-0.6,1-0.8c0.4-0.2,0.9-0.3,1.4-0.3c0.8,0,1.4,0.2,1.9,0.6c0.4,0.4,0.7,0.9,0.7,1.6V81.2z
		 M125.5,79.5h-0.9c-1.4,0-2.2,0.4-2.2,1.3c0,0.4,0.1,0.7,0.4,0.9c0.2,0.2,0.6,0.3,0.9,0.3c0.4,0,0.7-0.1,1-0.3
		c0.3-0.2,0.6-0.4,0.7-0.7V79.5z M142.7,77.7c-0.5,0-0.9,0.1-1.3,0.3c-0.4,0.2-0.7,0.4-1,0.7c-0.3,0.3-0.5,0.6-0.7,1
		c-0.2,0.4-0.2,0.7-0.3,0.9c0,0.2,0,0.4,0,0.4c0,0.4,0.1,0.8,0.3,1.2c0.1,0,0.3,0.1,0.4,0.1c0.2,0,0.3,0.1,0.5,0.1
		c0.2,0,0.3,0.1,0.5,0.1c0.2,0,0.3,0.1,0.5,0.1c0.4,0.1,0.7,0.2,1.1,0.3c0,0.3,0,0.6-0.1,0.9c-0.1,0.2-0.2,0.4-0.4,0.6
		c-0.2,0.2-0.4,0.3-0.7,0.3c-0.3,0.1-0.6,0.1-1,0.1h-1.3c-0.4,0-0.8-0.1-1.1-0.3c-0.3-0.2-0.6-0.4-0.8-0.7c-0.1-0.2-0.2-0.5-0.3-0.7
		c-0.1-0.3-0.1-0.5-0.1-0.8c0-0.8,0.3-1.8,0.8-2.9c-0.2-0.1-0.3-0.2-0.5-0.2c-0.2-0.1-0.3-0.2-0.5-0.2c-0.3,0.6-0.5,1.2-0.7,1.8
		c-0.2,0.6-0.2,1.1-0.2,1.6c0,0.4,0,0.8,0.1,1.1c0.1,0.4,0.2,0.7,0.4,1c0.2,0.2,0.3,0.4,0.5,0.6c0.2,0.2,0.4,0.3,0.7,0.5
		c0.2,0.1,0.5,0.2,0.8,0.3c0.3,0.1,0.6,0.1,0.9,0.1h1.3c0.6,0,1.1-0.1,1.5-0.2c0.4-0.1,0.8-0.3,1-0.6c0.3-0.3,0.5-0.6,0.6-1
		c0.1-0.4,0.2-0.8,0.2-1.4c0-0.3-0.1-0.5-0.2-0.7s-0.4-0.3-0.7-0.4l-2.3-0.6c0-0.1,0-0.2,0-0.3c0-0.2,0-0.3,0.1-0.5
		c0.1-0.3,0.2-0.5,0.3-0.7c0.2-0.2,0.3-0.4,0.6-0.5c0.2-0.1,0.5-0.3,0.7-0.3c0.3-0.1,0.5-0.1,0.8-0.1c0.3,0,0.5,0,0.8,0.1l0.3-1.1
		c-0.4-0.1-0.8-0.2-1.1-0.2C142.9,77.6,142.8,77.6,142.7,77.7z M151.3,84.9l1,1l1-1l-1-1L151.3,84.9z M157.4,82.5
		c0,0.4,0,0.8-0.1,1.1c-0.1,0.3-0.2,0.6-0.4,0.8c-0.2,0.2-0.4,0.3-0.7,0.4c-0.3,0.1-0.7,0.1-1.1,0.1h-0.8v1.1h0.8
		c0.6,0,1.1-0.1,1.5-0.2c0.4-0.2,0.8-0.4,1.1-0.7c0.3-0.3,0.5-0.7,0.7-1.1c0.1-0.4,0.2-0.9,0.2-1.5v-3.7h-1.1V82.5z M130.9,62
		c-0.1,0.2-0.2,0.3-0.4,0.5c-0.1,0.1-0.3,0.2-0.4,0.3c-0.1,0.1-0.3,0.1-0.4,0.1c-0.1,0-0.2,0-0.3,0c-0.1,0-0.2,0-0.3,0
		c-0.1,0-0.3-0.1-0.4-0.1c-0.2-0.1-0.4-0.2-0.7-0.3c-0.3-0.1-0.6-0.3-1-0.5c-0.3-0.1-0.5-0.3-0.8-0.4c-0.2-0.1-0.4-0.2-0.6-0.3v5.5
		h-1.1v-6.1l1.1-0.6c0.1,0.1,0.2,0.1,0.4,0.2c0.1,0.1,0.2,0.1,0.3,0.2c0.1,0.1,0.2,0.1,0.4,0.2c0.1-0.4,0.1-0.7,0.2-1
		c0.1-0.3,0.2-0.5,0.3-0.8c0.4-0.8,1-1.2,1.8-1.2c0.4,0,0.7,0.1,1,0.2c0.3,0.1,0.5,0.4,0.8,0.6c0.2,0.2,0.3,0.5,0.4,0.8
		c0.1,0.3,0.1,0.6,0.1,1c0,0.4,0,0.7-0.1,1C131.1,61.5,131,61.8,130.9,62z M130.1,60.3c0,0,0-0.1,0-0.2c0-0.1,0-0.2,0-0.3
		c0-0.1-0.1-0.2-0.1-0.4c0-0.1-0.1-0.2-0.2-0.3c-0.1-0.1-0.2-0.2-0.3-0.2c-0.1-0.1-0.3-0.1-0.5-0.1c-0.2,0-0.3,0-0.4,0.1
		c-0.1,0.1-0.2,0.2-0.3,0.3c-0.1,0.2-0.2,0.4-0.3,0.7c-0.1,0.3-0.2,0.7-0.2,1.2c0.3,0.2,0.6,0.3,0.8,0.4c0.2,0.1,0.4,0.2,0.5,0.2
		c0.1,0,0.2,0.1,0.3,0.1c0.1,0,0.1,0,0.1,0c0,0,0.1,0,0.2,0c0.1,0,0.2-0.1,0.2-0.2c0.1-0.1,0.1-0.2,0.2-0.4
		C130.1,60.9,130.1,60.6,130.1,60.3z M136,62.8c-0.4,0-0.7-0.1-1-0.2c0,0.6-0.1,1-0.2,1.5c-0.2,0.4-0.4,0.8-0.7,1.1
		c-0.3,0.3-0.7,0.5-1.1,0.7c-0.4,0.2-0.9,0.2-1.5,0.2h-0.8v-1.1h0.8c0.4,0,0.8,0,1.1-0.1c0.3-0.1,0.5-0.2,0.7-0.4
		c0.2-0.2,0.3-0.5,0.4-0.8c0.1-0.3,0.1-0.7,0.1-1.1v-3.7h1.1v2c0,0.2,0,0.4,0.1,0.5c0.1,0.1,0.2,0.2,0.3,0.3
		c0.1,0.1,0.2,0.1,0.3,0.1c0.1,0,0.2,0,0.2,0h0h0.2h2.4c0.4,0,0.8,0,1.1-0.1c0.3-0.1,0.5-0.1,0.6-0.2c0.2-0.1,0.3-0.2,0.3-0.3
		c0.1-0.1,0.1-0.2,0.1-0.3h-0.9c-0.1,0-0.2,0-0.3,0c-0.1,0-0.3,0-0.4,0c-0.1,0-0.3-0.1-0.4-0.1c-0.1,0-0.3-0.1-0.4-0.2
		c-0.1-0.1-0.2-0.1-0.3-0.2c-0.1-0.1-0.2-0.2-0.3-0.3c-0.1-0.1-0.2-0.3-0.2-0.5c-0.1-0.2-0.1-0.4-0.1-0.7c0-0.3,0.1-0.6,0.2-0.9
		c0.1-0.3,0.3-0.5,0.5-0.7c0.2-0.2,0.4-0.4,0.7-0.5c0.3-0.1,0.5-0.2,0.8-0.2c0.3,0,0.7,0.1,0.9,0.2c0.3,0.1,0.5,0.4,0.7,0.6
		c0.2,0.3,0.4,0.6,0.5,1.1c0.1,0.4,0.2,0.9,0.2,1.4v0.8c0,0.4-0.1,0.7-0.2,1c-0.2,0.3-0.4,0.5-0.7,0.7c-0.5,0.3-1.3,0.5-2.3,0.5
		h-2.4H136L136,62.8z M140.8,59.6c0-0.4,0-0.7-0.1-1c-0.1-0.3-0.2-0.5-0.3-0.7c-0.2-0.3-0.5-0.4-0.8-0.4c-0.1,0-0.3,0-0.4,0.1
		c-0.1,0-0.3,0.1-0.4,0.2c-0.1,0.1-0.2,0.2-0.3,0.4c-0.1,0.1-0.1,0.3-0.1,0.5c0,0.1,0,0.2,0,0.3c0,0.1,0.1,0.2,0.1,0.2
		c0,0.1,0.1,0.1,0.1,0.1c0,0,0.1,0.1,0.1,0.1c0.1,0.1,0.3,0.1,0.4,0.1c0.2,0,0.4,0,0.6,0H140.8z M128.7,82.8h1.2V73h-1.2V82.8z
		 M157.1,65.1l-0.9-0.9l-0.9,0.9l0.9,1L157.1,65.1z M153.7,79.6c0-0.2-0.1-0.4-0.1-0.6c0-0.2-0.1-0.3-0.1-0.5c0-0.2-0.1-0.3-0.1-0.4
		c0-0.1,0-0.2,0-0.2l-1.1,0.3c0,0.1,0,0.1,0.1,0.2c0,0.1,0,0.2,0.1,0.4c0,0.1,0.1,0.3,0.1,0.5c0,0.2,0.1,0.3,0.1,0.5
		c0,0.2,0,0.3,0.1,0.4c0,0.1,0,0.2,0,0.3c0,0.3,0,0.5-0.1,0.6s-0.2,0.2-0.3,0.3c-0.1,0.1-0.2,0.1-0.3,0.1c-0.1,0-0.2,0-0.3,0h-1.3
		h-0.2h0c0,0-0.1,0-0.2,0c-0.1,0-0.2,0-0.3-0.1c-0.1-0.1-0.2-0.2-0.3-0.3c-0.1-0.1-0.1-0.3-0.1-0.5v-2H148v3.7c0,0.4,0,0.8-0.1,1.1
		c-0.1,0.3-0.2,0.6-0.4,0.8c-0.2,0.2-0.4,0.3-0.7,0.4c-0.3,0.1-0.7,0.1-1.1,0.1h-0.8v1.1h0.8c0.6,0,1.1-0.1,1.5-0.2
		c0.4-0.2,0.8-0.4,1.1-0.7c0.3-0.3,0.5-0.7,0.7-1.1c0.2-0.4,0.2-0.9,0.2-1.5c0.3,0.2,0.7,0.2,1,0.2h0h0.2h1.3c0.3,0,0.5,0,0.7-0.1
		c0.2-0.1,0.5-0.2,0.7-0.4c0.2-0.2,0.4-0.4,0.5-0.7c0.1-0.3,0.2-0.6,0.2-1c0-0.1,0-0.3,0-0.5C153.7,80,153.7,79.8,153.7,79.6z
		 M177.6,86c2.2,0,3.3-1,3.3-3.1v-0.4c0.3,0.2,0.6,0.2,1,0.3v0h0h0.2h0.9c0.8,0,1.4-0.2,1.8-0.6c0.2,0.2,0.4,0.4,0.7,0.5
		c0.3,0.1,0.6,0.2,0.9,0.2h0.2h0.2h2.2c0.3,0,0.5,0,0.8-0.1c0.2-0.1,0.5-0.2,0.7-0.4c0.2-0.2,0.4-0.4,0.5-0.7c0.1-0.3,0.2-0.6,0.2-1
		c0-0.1,0-0.3,0-0.5c0-0.2,0-0.4-0.1-0.5c0-0.2-0.1-0.4-0.1-0.6c0-0.2-0.1-0.3-0.1-0.5c0-0.2-0.1-0.3-0.1-0.4c0-0.1,0-0.2,0-0.2
		l-1.1,0.3c0,0.1,0,0.1,0.1,0.2c0,0.1,0.1,0.2,0.1,0.4c0,0.1,0.1,0.3,0.1,0.5c0,0.2,0.1,0.3,0.1,0.5c0,0.2,0,0.3,0.1,0.4
		c0,0.1,0,0.2,0,0.3c0,0.3,0,0.5-0.1,0.6c-0.1,0.1-0.2,0.2-0.3,0.3c-0.1,0.1-0.2,0.1-0.3,0.1c-0.1,0-0.2,0-0.3,0h-2.2h-0.2h-0.2
		c0,0-0.1,0-0.1,0c-0.1,0-0.1,0-0.2,0c-0.1,0-0.2,0-0.2-0.1c-0.1,0-0.2-0.1-0.2-0.2c-0.1-0.1-0.1-0.2-0.2-0.3c0-0.1-0.1-0.2-0.1-0.4
		v-2h-1.1v2c0,0.1,0,0.2,0,0.3c0,0.1-0.1,0.2-0.2,0.3c-0.1,0.1-0.2,0.2-0.4,0.2c-0.2,0.1-0.4,0.1-0.7,0.1h-0.9h-0.2
		c-0.2,0-0.3,0-0.4-0.1c-0.1,0-0.2-0.1-0.3-0.2c-0.1-0.1-0.2-0.2-0.2-0.3c-0.1-0.1-0.1-0.3-0.1-0.4v-6.3h-1.1v8.6
		c0,0.3,0,0.6-0.1,0.8c-0.1,0.2-0.2,0.5-0.3,0.6c-0.2,0.2-0.4,0.3-0.7,0.4c-0.3,0.1-0.7,0.1-1.1,0.1h-0.4c-0.3,0-0.6-0.1-0.9-0.2
		c-0.3-0.1-0.5-0.3-0.7-0.6c-0.1-0.2-0.2-0.4-0.3-0.6c0-0.2-0.1-0.4-0.1-0.6c0-0.1,0-0.2,0-0.3c0-0.3,0.1-0.6,0.2-1
		c0.1-0.3,0.3-0.7,0.4-1.1l-1-0.5c-0.3,0.6-0.5,1.2-0.6,1.6c-0.1,0.5-0.1,0.9-0.1,1.2c0,0.1,0,0.1,0,0.2c0,0.4,0.1,0.7,0.2,1
		c0.1,0.3,0.2,0.5,0.3,0.7c0.3,0.4,0.6,0.7,1,1c0.4,0.2,0.9,0.3,1.4,0.3H177.6z M172.5,105l0.9,1l1-1l-0.9-0.9L172.5,105z
		 M191.3,100.1c0,0.2,0,0.3,0,0.5c0,0.4-0.1,0.7-0.2,1c-0.1,0.3-0.3,0.5-0.5,0.7c-0.2,0.2-0.4,0.3-0.7,0.4c-0.2,0.1-0.5,0.1-0.7,0.1
		c-0.4,0-0.7-0.1-1-0.2c-0.3-0.1-0.5-0.3-0.7-0.5c-0.2,0.2-0.4,0.4-0.7,0.5c-0.3,0.1-0.5,0.2-0.8,0.2c-0.4,0-0.7-0.1-1-0.2
		c-0.3-0.1-0.5-0.3-0.7-0.5c-0.2,0.2-0.4,0.4-0.7,0.5c-0.3,0.1-0.5,0.2-0.8,0.2h-1.1h-0.2h-0.6c0,0.6-0.1,1-0.2,1.4
		c-0.2,0.4-0.4,0.7-0.8,1c-0.3,0.3-0.8,0.5-1.3,0.6c-0.5,0.1-1.1,0.2-1.9,0.2v-1.1c0.6,0,1.1,0,1.5-0.1c0.4-0.1,0.7-0.2,1-0.4
		c0.2-0.2,0.4-0.4,0.5-0.6c0.1-0.3,0.1-0.6,0.1-1h-1.1c-0.3,0-0.6,0-0.8-0.1c-0.3-0.1-0.5-0.2-0.8-0.4c-0.2-0.2-0.4-0.4-0.6-0.7
		c-0.1-0.3-0.2-0.7-0.2-1.1c0-0.3,0-0.5,0.1-0.7c0-0.2,0.1-0.4,0.2-0.6c0.1-0.2,0.1-0.3,0.2-0.4c0.1-0.1,0.2-0.2,0.2-0.3
		c0.2-0.2,0.5-0.4,0.7-0.5c0.3-0.1,0.6-0.2,0.9-0.2c0.3,0,0.5,0,0.8,0.1c0.2,0.1,0.5,0.2,0.7,0.4c0.5,0.5,0.8,1.3,0.8,2.3v1.1h0.6
		h0.2h1.1c0.1,0,0.1,0,0.3,0c0.1,0,0.2-0.1,0.3-0.1c0.1-0.1,0.2-0.2,0.3-0.3c0.1-0.1,0.1-0.3,0.1-0.6v-1.8h1.1v1.8
		c0,0.4,0.1,0.7,0.3,0.8c0.2,0.2,0.5,0.3,0.9,0.3c0.1,0,0.1,0,0.3,0c0.1,0,0.2-0.1,0.3-0.1c0.1-0.1,0.2-0.2,0.3-0.3
		c0.1-0.1,0.1-0.3,0.1-0.6v-1.8h1.1v1.8c0,0.4,0.1,0.7,0.3,0.8c0.2,0.2,0.5,0.3,0.9,0.3c0.1,0,0.1,0,0.3,0c0.1,0,0.2-0.1,0.3-0.2
		s0.2-0.2,0.3-0.3c0.1-0.1,0.1-0.3,0.1-0.6c0-0.1,0-0.2,0-0.3c0-0.1,0-0.3-0.1-0.4c0-0.2,0-0.3-0.1-0.5c0-0.2-0.1-0.3-0.1-0.4
		c0-0.1-0.1-0.3-0.1-0.4c0-0.1,0-0.2-0.1-0.2l1.1-0.3c0,0,0,0.1,0,0.2c0,0.1,0.1,0.2,0.1,0.4c0,0.2,0.1,0.3,0.1,0.5
		c0,0.2,0.1,0.4,0.1,0.5C191.2,99.8,191.2,99.9,191.3,100.1z M179.5,100.5c0-0.3,0-0.5-0.1-0.7c0-0.2-0.1-0.4-0.2-0.5
		c-0.1-0.1-0.1-0.2-0.2-0.3c-0.1-0.1-0.2-0.1-0.3-0.2c-0.1,0-0.2,0-0.2-0.1c-0.1,0-0.1,0-0.2,0c-0.4,0-0.7,0.1-0.9,0.4
		c-0.2,0.3-0.3,0.7-0.3,1.2c0,0.5,0.2,0.9,0.5,1.1c0.1,0,0.2,0.1,0.2,0.1c0.1,0,0.2,0.1,0.2,0.1c0.1,0,0.1,0,0.2,0
		c0.1,0,0.1,0,0.2,0h1.1V100.5z M173.6,102.3c0.2-0.2,0.4-0.4,0.5-0.7s0.2-0.6,0.2-1c0-0.1,0-0.3,0-0.5c0-0.2,0-0.4-0.1-0.5
		c0-0.2-0.1-0.4-0.1-0.6c0-0.2-0.1-0.4-0.1-0.5c0-0.2-0.1-0.3-0.1-0.4c0-0.1,0-0.2,0-0.2l-1.1,0.3c0,0.1,0,0.1,0.1,0.2
		c0,0.1,0,0.2,0.1,0.4c0,0.1,0.1,0.3,0.1,0.5c0,0.2,0.1,0.3,0.1,0.5c0,0.2,0,0.3,0.1,0.4c0,0.1,0,0.2,0,0.3c0,0.3,0,0.4-0.1,0.6
		c-0.1,0.1-0.2,0.2-0.3,0.3c-0.1,0.1-0.2,0.1-0.3,0.1c-0.1,0-0.2,0-0.3,0H170h-0.2c-0.2,0-0.3,0-0.5-0.1c-0.1-0.1-0.3-0.2-0.4-0.4
		c-0.1-0.1-0.3-0.3-0.4-0.5c-0.1-0.2-0.2-0.4-0.4-0.5l-2.3-3.5l-0.9,0.6l2.2,3.4c0.1,0.1,0.2,0.3,0.2,0.3c0,0.1,0,0.2,0,0.2
		c0,0.1,0,0.1-0.1,0.1c0,0.1-0.1,0.2-0.3,0.2c-0.2,0.1-0.3,0.1-0.6,0.2c-0.2,0-0.4,0-0.5,0c-0.1,0-0.2,0-0.3,0c-0.2,0-0.3,0-0.5,0
		c-0.2,0-0.4-0.1-0.6-0.1c-0.2,0-0.4-0.1-0.5-0.2l-0.5-0.3l-0.6,1l0.5,0.3c0.1,0.1,0.3,0.2,0.5,0.2c0.2,0.1,0.4,0.1,0.6,0.1
		c0.2,0,0.4,0.1,0.6,0.1c0.2,0,0.4,0,0.6,0c0.2,0,0.3,0,0.5,0c0.2,0,0.3,0,0.4,0c0.7-0.1,1.3-0.4,1.6-0.8c0.5,0.5,1,0.7,1.6,0.7v0h0
		h0.2h2.2c0.3,0,0.5,0,0.8-0.1C173.2,102.6,173.4,102.4,173.6,102.3z M166.1,82.8c0.4,0,0.7,0,0.9-0.1c0.2-0.1,0.4-0.2,0.6-0.3
		c0.2-0.1,0.3-0.2,0.4-0.3c0.1-0.1,0.2-0.2,0.2-0.3c0-0.1,0.1-0.2,0.1-0.3c0-0.1,0-0.2,0-0.3c0-0.1,0-0.1,0-0.1c0-0.1,0-0.2,0-0.4
		c0-0.2-0.1-0.3-0.1-0.5c-0.1-0.2-0.2-0.4-0.3-0.7c-0.2-0.2-0.3-0.5-0.5-0.7c-0.2-0.2-0.4-0.5-0.6-0.7c-0.2-0.2-0.4-0.5-0.7-0.7
		c-0.2-0.2-0.4-0.4-0.6-0.6c-0.2-0.2-0.3-0.3-0.5-0.4l4.7-2.1l-0.4-1l-5.4,2.4l-0.1,1.3c0.1,0.1,0.2,0.2,0.4,0.3
		c0.2,0.1,0.3,0.3,0.5,0.5c0.2,0.2,0.4,0.4,0.6,0.6c0.2,0.2,0.4,0.4,0.6,0.7c0.2,0.2,0.4,0.4,0.6,0.7c0.2,0.2,0.3,0.4,0.4,0.6
		c0.1,0.2,0.2,0.4,0.2,0.5c0,0.1,0.1,0.2,0.1,0.3c0,0.1,0,0.1,0,0.2c-0.1,0.1-0.2,0.2-0.4,0.3c-0.2,0.1-0.4,0.1-0.7,0.1h-3.2
		c-0.4,0-0.6,0-0.8-0.1c-0.2,0-0.3-0.1-0.4-0.2c-0.1-0.1-0.2-0.3-0.2-0.5c0-0.2,0-0.5,0-0.8v-5.7h-1.1V80c0,0.3,0,0.6,0,0.8
		c0,0.3,0.1,0.5,0.1,0.7c0.1,0.2,0.2,0.4,0.3,0.5c0.1,0.2,0.3,0.3,0.4,0.4c0.2,0.1,0.4,0.2,0.7,0.2c0.2,0,0.5,0.1,0.8,0.1v0H166.1z
		 M170.2,105l0.9,1l1-1l-0.9-0.9L170.2,105z M160.8,62.8H160c-0.4,0-0.7-0.1-0.9-0.2c-0.3-0.1-0.5-0.3-0.7-0.5
		c-0.4,0.4-1,0.6-1.8,0.6h-1.8h-0.2h-0.1v0c-0.4,0-0.7-0.1-1-0.3v0.4c0,2.1-1.1,3.1-3.3,3.1h-0.4c-0.5,0-1-0.1-1.4-0.3
		c-0.4-0.2-0.8-0.6-1-1c-0.1-0.2-0.2-0.4-0.3-0.7c-0.1-0.3-0.2-0.6-0.2-1c0-0.1,0-0.1,0-0.2c0-0.3,0-0.7,0.1-1.2
		c0.1-0.5,0.3-1,0.6-1.6l1,0.5c-0.2,0.4-0.3,0.7-0.4,1.1c-0.1,0.3-0.2,0.7-0.2,1c0,0.1,0,0.2,0,0.3c0,0.2,0,0.4,0.1,0.6
		c0,0.2,0.1,0.4,0.3,0.6c0.2,0.3,0.4,0.4,0.7,0.6c0.3,0.1,0.6,0.2,0.9,0.2h0.4c0.5,0,0.8,0,1.1-0.1c0.3-0.1,0.5-0.2,0.7-0.4
		c0.2-0.2,0.3-0.4,0.3-0.6c0.1-0.2,0.1-0.5,0.1-0.8v-8.6h1.1v6.3c0,0.2,0,0.3,0.1,0.4c0.1,0.1,0.1,0.2,0.2,0.3
		c0.1,0.1,0.2,0.2,0.3,0.2c0.1,0,0.3,0.1,0.4,0.1h0.2h1.8c0.3,0,0.5,0,0.7-0.1c0.2-0.1,0.3-0.1,0.4-0.2c0.1-0.1,0.1-0.2,0.2-0.3
		c0-0.1,0-0.2,0-0.3v-2h1.1v2c0,0.1,0,0.3,0.1,0.4c0,0.1,0.1,0.2,0.2,0.3c0.1,0.1,0.1,0.1,0.2,0.2s0.2,0.1,0.2,0.1
		c0.1,0,0.2,0,0.2,0c0.1,0,0.1,0,0.1,0h0.8h0.3h0.2c0.2,0,0.3-0.1,0.4-0.2c0.1-0.1,0.2-0.3,0.3-0.4c0.1-0.2,0.1-0.4,0.2-0.6
		c0.1-0.2,0.1-0.5,0.2-0.7c0.1-0.2,0.2-0.5,0.3-0.7c0.1-0.2,0.2-0.4,0.4-0.6c0.2-0.2,0.4-0.3,0.6-0.4c0.2-0.1,0.5-0.2,0.9-0.2
		c0.4,0,0.7,0.1,1,0.2c0.3,0.1,0.5,0.3,0.7,0.6c0.2,0.2,0.3,0.5,0.4,0.9c0.1,0.3,0.1,0.7,0.1,1c0,0.3,0,0.5,0.1,0.6
		c0.1,0.2,0.2,0.3,0.3,0.3c0.1,0.1,0.2,0.1,0.4,0.2c0.1,0,0.2,0,0.2,0h0.2h1.5c0.2,0,0.4,0,0.6-0.1c0.2,0,0.4-0.1,0.5-0.1
		c0.2-0.1,0.3-0.1,0.4-0.2c0.1-0.1,0.2-0.2,0.3-0.3c0-0.1,0.1-0.2,0.1-0.4c0-0.1,0-0.3-0.1-0.5c-0.1-0.2-0.2-0.5-0.5-0.8
		c-0.4-0.5-0.6-0.9-0.9-1.3c-0.2-0.3-0.4-0.6-0.6-0.8c-0.2-0.3-0.3-0.5-0.4-0.6l0.2-0.8l5.4-2.5l0.5,1l-4.8,2.2l2.3,3.3
		c0.2,0.3,0.5,0.6,0.6,0.8c0.2,0.2,0.4,0.4,0.6,0.6c0.2,0.2,0.4,0.3,0.6,0.3c0.2,0.1,0.5,0.1,0.8,0.1h0.1h2.2c0.1,0,0.1,0,0.3,0
		c0.1,0,0.2-0.1,0.3-0.1c0.1-0.1,0.2-0.2,0.3-0.3c0.1-0.1,0.1-0.3,0.1-0.6c0-0.1,0-0.2,0-0.3c0-0.1,0-0.3-0.1-0.4
		c0-0.2,0-0.3-0.1-0.5c0-0.2-0.1-0.3-0.1-0.5c0-0.1-0.1-0.3-0.1-0.4c0-0.1,0-0.2-0.1-0.2l1.1-0.3c0,0,0,0.1,0,0.2
		c0,0.1,0,0.2,0.1,0.4c0,0.2,0.1,0.3,0.1,0.5c0,0.2,0.1,0.4,0.1,0.6c0,0.2,0,0.4,0.1,0.5c0,0.2,0,0.3,0,0.5c0,0.4-0.1,0.7-0.2,1
		c-0.1,0.3-0.3,0.5-0.5,0.7c-0.2,0.2-0.4,0.3-0.7,0.4c-0.2,0.1-0.5,0.1-0.7,0.1h-2.2h-0.1H175v0c-0.3,0-0.5,0-0.8-0.1
		c-0.3-0.1-0.5-0.2-0.7-0.3c-0.2-0.1-0.4-0.3-0.6-0.5c-0.2-0.2-0.4-0.4-0.6-0.6c0,0,0,0,0,0.1c0,0,0,0,0,0.1
		c-0.1,0.2-0.3,0.4-0.5,0.6c-0.2,0.2-0.4,0.3-0.7,0.4c-0.2,0.1-0.5,0.2-0.8,0.2c-0.3,0-0.6,0.1-0.9,0.1h-1.5h-0.2h0v0
		c-0.3,0-0.5,0-0.8-0.1c-0.2-0.1-0.5-0.2-0.7-0.4c-0.1,0.2-0.2,0.3-0.4,0.4c-0.1,0.1-0.3,0.2-0.4,0.2c-0.1,0.1-0.3,0.1-0.4,0.1
		c-0.1,0-0.2,0-0.3,0c-0.2,0-0.4,0-0.6-0.1c-0.2,0-0.4-0.1-0.5-0.2c-0.2-0.1-0.4-0.2-0.6-0.3c-0.2-0.1-0.4-0.2-0.7-0.4
		c-0.3,0.4-0.7,0.6-1.2,0.6H161H160.8z M163,61.2c0.2,0.1,0.4,0.2,0.6,0.3c0.2,0.1,0.3,0.2,0.5,0.2c0.2,0.1,0.3,0.1,0.4,0.2
		c0.1,0,0.3,0.1,0.4,0.1c0,0,0.1,0,0.1,0c0,0,0.1,0,0.2,0c0.1,0,0.1-0.1,0.2-0.1c0.1-0.1,0.1-0.1,0.2-0.2c0-0.1,0.1-0.2,0.1-0.4
		c0-0.2,0-0.4,0-0.6c0,0,0-0.1,0-0.2c0-0.1,0-0.2-0.1-0.3c0-0.1-0.1-0.2-0.1-0.4c-0.1-0.1-0.1-0.2-0.2-0.3c-0.1-0.1-0.2-0.2-0.3-0.2
		c-0.1-0.1-0.3-0.1-0.5-0.1c-0.2,0-0.3,0-0.4,0.1c-0.1,0.1-0.2,0.1-0.3,0.3c-0.1,0.1-0.2,0.2-0.2,0.4c-0.1,0.1-0.1,0.3-0.2,0.5
		c0,0.2-0.1,0.3-0.1,0.5C163.1,60.9,163,61,163,61.2z M157.5,65.1l0.9,1l1-1l-0.9-0.9L157.5,65.1z M87.4,81.1l-1.7-5.1h-1.3l2.4,6.8
		l-0.3,0.7c-0.1,0.4-0.3,0.7-0.5,0.9c-0.2,0.2-0.5,0.2-0.9,0.2l-0.3,0v1l0.4,0.1l0.2,0c0.9,0,1.6-0.6,2-1.7l2.8-7.9H89L87.4,81.1z
		 M93,75.3c0.4-0.6,1.1-0.9,1.8-0.9c0.6,0,1.1,0.2,1.5,0.5c0.4,0.3,0.6,0.9,0.7,1.6h1.2c-0.1-1-0.4-1.7-1-2.3
		c-0.6-0.5-1.4-0.8-2.4-0.8c-0.7,0-1.4,0.2-2,0.5c-0.6,0.4-1,0.9-1.3,1.5c-0.3,0.7-0.5,1.4-0.5,2.3v0.9c0,1.3,0.3,2.4,1,3.1
		c0.7,0.8,1.5,1.2,2.6,1.2c1,0,1.8-0.3,2.4-0.8c0.6-0.5,1-1.3,1.1-2.3H97c-0.1,0.8-0.4,1.3-0.7,1.6c-0.4,0.3-0.9,0.5-1.6,0.5
		c-0.8,0-1.3-0.3-1.8-0.9c-0.4-0.6-0.6-1.4-0.6-2.4v-0.9C92.4,76.7,92.6,75.9,93,75.3z M99.6,60.1c0-0.2,0-0.4-0.1-0.5
		c0-0.2-0.1-0.4-0.1-0.6c0-0.2-0.1-0.3-0.1-0.5c0-0.2-0.1-0.3-0.1-0.4c0-0.1,0-0.2,0-0.2l-1.1,0.3c0,0.1,0,0.1,0.1,0.2
		c0,0.1,0,0.2,0.1,0.4c0,0.1,0.1,0.3,0.1,0.5c0,0.2,0.1,0.3,0.1,0.5c0,0.2,0,0.3,0.1,0.4c0,0.1,0,0.2,0,0.3c0,0.3,0,0.5-0.1,0.6
		c-0.1,0.1-0.2,0.2-0.3,0.3c-0.1,0.1-0.2,0.1-0.3,0.1c-0.1,0-0.2,0-0.3,0h-2.2H95h-0.2c0,0-0.1,0-0.1,0c-0.1,0-0.1,0-0.2,0
		c-0.1,0-0.2,0-0.2-0.1c-0.1,0-0.2-0.1-0.2-0.2c-0.1-0.1-0.1-0.2-0.2-0.3c0-0.1-0.1-0.2-0.1-0.4v-2h-1.1v2c0,0.1,0,0.2,0,0.3
		c0,0.1-0.1,0.2-0.2,0.3c-0.1,0.1-0.2,0.2-0.4,0.2c-0.2,0.1-0.4,0.1-0.7,0.1h-0.8h-0.2c0,0-0.1,0-0.2,0c-0.1,0-0.2-0.1-0.4-0.1
		c-0.1-0.1-0.2-0.2-0.3-0.3c-0.1-0.1-0.1-0.3-0.1-0.5v-2h-1.1v2.1c0,0.1,0,0.2,0,0.3c0,0.1-0.1,0.2-0.2,0.3
		c-0.1,0.1-0.2,0.2-0.4,0.2c-0.2,0.1-0.4,0.1-0.7,0.1h-6.7c-0.1,0-0.1,0-0.3,0c-0.1,0-0.2-0.1-0.3-0.1c-0.1-0.1-0.2-0.2-0.3-0.3
		c-0.1-0.2-0.1-0.4-0.1-0.6c0-0.1,0-0.3,0-0.5c0-0.2,0.1-0.3,0.1-0.5c0-0.2,0.1-0.3,0.1-0.5c0-0.2,0.1-0.3,0.1-0.3l-1.1-0.3
		c0,0,0,0.1-0.1,0.3c0,0.2-0.1,0.3-0.1,0.5c0,0.2-0.1,0.4-0.1,0.7c0,0.2-0.1,0.5-0.1,0.7c0,0.2,0,0.4,0.1,0.6c0,0.2,0.1,0.3,0.2,0.5
		c0.1,0.1,0.1,0.3,0.2,0.4c0.1,0.1,0.2,0.2,0.2,0.3c0.2,0.2,0.4,0.3,0.7,0.4c0.2,0.1,0.5,0.1,0.8,0.1h6.7c0.8,0,1.4-0.2,1.8-0.6
		c0,0,0,0,0.1,0.1c0,0,0,0,0.1,0.1c0.2,0.2,0.4,0.3,0.7,0.4c0.2,0.1,0.5,0.1,0.7,0.1v0h1.1c0.8,0,1.4-0.2,1.8-0.6
		c0.2,0.2,0.4,0.4,0.7,0.5c0.3,0.1,0.6,0.2,0.9,0.2H95h0.2h2.2c0.3,0,0.5,0,0.8-0.1c0.2-0.1,0.5-0.2,0.7-0.4
		c0.2-0.2,0.4-0.4,0.5-0.7c0.1-0.3,0.2-0.6,0.2-1C99.6,60.5,99.6,60.3,99.6,60.1z M93.6,65l-1-1l-1,1l1,1L93.6,65z M78.5,81.1
		l-3-7.5h-1.6v9.2h1.2v-3.6L75,75.3l3,7.5H79l3-7.5l-0.1,3.9v3.6h1.2v-9.2h-1.6L78.5,81.1z M50.8,62.7c0.2-0.1,0.5-0.2,0.6-0.3
		c0.2-0.1,0.3-0.2,0.4-0.3c0.1-0.1,0.2-0.2,0.2-0.3c0-0.1,0.1-0.2,0.1-0.3c0-0.1,0-0.2,0-0.3c0-0.1,0-0.1,0-0.1c0-0.1,0-0.2,0-0.4
		c0-0.1-0.1-0.3-0.1-0.5c-0.1-0.2-0.2-0.4-0.3-0.7c-0.2-0.2-0.3-0.5-0.5-0.7c-0.2-0.2-0.4-0.5-0.6-0.7c-0.2-0.2-0.4-0.5-0.7-0.7
		c-0.2-0.2-0.4-0.4-0.6-0.6c-0.2-0.2-0.3-0.3-0.5-0.4l4.7-2.1l-0.4-1l-5.4,2.4l-0.1,1.3c0.1,0.1,0.2,0.2,0.4,0.3
		c0.2,0.1,0.3,0.3,0.5,0.5c0.2,0.2,0.4,0.4,0.6,0.6c0.2,0.2,0.4,0.4,0.6,0.7c0.2,0.2,0.4,0.5,0.6,0.7c0.2,0.2,0.3,0.4,0.4,0.6
		c0.1,0.2,0.2,0.4,0.2,0.5c0,0.1,0.1,0.2,0.1,0.3c0,0.1,0,0.1,0,0.2c-0.1,0.1-0.2,0.2-0.4,0.3c-0.2,0.1-0.4,0.1-0.7,0.1h-3.2h-0.3
		h-0.2c0,0-0.1,0-0.1,0c-0.1,0-0.1,0-0.2,0c-0.1,0-0.2,0-0.2-0.1c-0.1,0-0.2-0.1-0.2-0.2c-0.1-0.1-0.1-0.2-0.2-0.3
		c0-0.1-0.1-0.2-0.1-0.4v-2h-1.1v2c0,0.1,0,0.2,0,0.3c0,0.1-0.1,0.2-0.2,0.3c-0.1,0.1-0.2,0.2-0.4,0.2c-0.2,0.1-0.4,0.1-0.7,0.1H42
		h-0.3h-0.8c0,0-0.1,0-0.1,0c-0.1,0-0.1,0-0.2,0c-0.1,0-0.2,0-0.2-0.1c-0.1,0-0.2-0.1-0.2-0.2c-0.1-0.1-0.1-0.2-0.2-0.3
		c0-0.1-0.1-0.2-0.1-0.4v-2h-1.1v2c0,0.1,0,0.2,0,0.3c0,0.1-0.1,0.2-0.2,0.3c-0.1,0.1-0.2,0.2-0.4,0.2c-0.2,0.1-0.4,0.1-0.7,0.1
		h-1.7h-0.2c-0.2,0-0.3,0-0.5-0.1c-0.2-0.1-0.3-0.2-0.4-0.4c-0.1-0.1-0.3-0.3-0.4-0.5c-0.1-0.2-0.2-0.4-0.4-0.5l-2.3-3.5l-0.9,0.6
		l2.2,3.4c0.1,0.1,0.2,0.3,0.2,0.4c0,0.1,0,0.2,0,0.2c0,0.1,0,0.1-0.1,0.1c0,0.1-0.1,0.2-0.3,0.2c-0.1,0.1-0.3,0.1-0.6,0.2
		c-0.2,0-0.4,0-0.5,0c-0.1,0-0.2,0-0.3,0c-0.2,0-0.3,0-0.5,0c-0.2,0-0.4-0.1-0.6-0.1c-0.2,0-0.4-0.1-0.5-0.2l-0.5-0.3l-0.6,1
		l0.5,0.3c0.1,0.1,0.3,0.2,0.5,0.2c0.2,0.1,0.4,0.1,0.6,0.1c0.2,0,0.4,0.1,0.6,0.1c0.2,0,0.4,0,0.6,0c0.2,0,0.3,0,0.5,0
		c0.2,0,0.3,0,0.4,0c0.7-0.1,1.3-0.4,1.6-0.8c0.5,0.5,1,0.7,1.6,0.7v0h0h0.2h1.7c0.8,0,1.4-0.2,1.8-0.6c0.2,0.2,0.4,0.4,0.7,0.5
		c0.3,0.1,0.6,0.2,0.9,0.2h0.8H42h0.9c0.8,0,1.4-0.2,1.8-0.6c0.2,0.2,0.4,0.4,0.7,0.5c0.3,0.1,0.6,0.2,1,0.2h0.2h0.3h3.2
		C50.3,62.8,50.6,62.7,50.8,62.7z M53.7,80.3c-0.1-0.2-0.2-0.3-0.3-0.5c-0.3-0.4-0.5-0.7-0.7-1c-0.2-0.3-0.4-0.5-0.5-0.7
		c-0.1-0.2-0.3-0.4-0.4-0.5c-0.1-0.2-0.2-0.3-0.3-0.4c-0.1-0.1-0.1-0.2-0.2-0.3c-0.1-0.1-0.1-0.2-0.2-0.2l-0.9,0.6l2.1,3.2
		c0.1,0.2,0.2,0.3,0.2,0.5c0,0.1,0.1,0.2,0.1,0.3c0,0,0,0.1,0,0.1c0,0.1-0.1,0.2-0.3,0.2c-0.1,0.1-0.3,0.1-0.6,0.2
		c-0.2,0-0.4,0-0.5,0c-0.1,0-0.2,0-0.2,0c-0.2,0-0.4,0-0.6,0c-0.2,0-0.4-0.1-0.6-0.1c-0.2,0-0.4-0.1-0.5-0.2L49,81.1l-0.6,1l0.5,0.3
		c0.1,0.1,0.3,0.2,0.5,0.2c0.2,0.1,0.4,0.1,0.6,0.2c0.2,0,0.4,0.1,0.6,0.1c0.2,0,0.4,0,0.6,0c0.2,0,0.3,0,0.5,0c0.2,0,0.3,0,0.4,0
		c0.9-0.1,1.5-0.5,1.7-1c0.1-0.2,0.1-0.3,0.1-0.4c0-0.1,0-0.1,0-0.2c0-0.1,0-0.3-0.1-0.4C53.8,80.6,53.8,80.5,53.7,80.3z M72.6,59.6
		c0-0.2-0.1-0.4-0.1-0.6c0-0.2-0.1-0.3-0.1-0.5c0-0.2-0.1-0.3-0.1-0.4c0-0.1,0-0.2,0-0.2l-1.1,0.3c0,0.1,0,0.1,0.1,0.2
		c0,0.1,0,0.2,0.1,0.4c0,0.1,0.1,0.3,0.1,0.5c0,0.2,0.1,0.3,0.1,0.5c0,0.2,0,0.3,0.1,0.4c0,0.1,0,0.2,0,0.3c0,0.3,0,0.5-0.1,0.6
		c-0.1,0.1-0.2,0.2-0.3,0.3c-0.1,0.1-0.2,0.1-0.3,0.1c-0.1,0-0.2,0-0.3,0h-1.3c-0.4,0-0.7,0-0.8-0.1c-0.2,0-0.3-0.1-0.4-0.2
		c-0.1-0.1-0.2-0.3-0.2-0.5c0-0.2,0-0.5,0-0.8v-5.7h-1.1V60c0,0.3,0,0.6,0,0.8s0.1,0.5,0.1,0.7c0.1,0.2,0.2,0.4,0.3,0.5
		c0.1,0.2,0.3,0.3,0.4,0.4c0.2,0.1,0.4,0.2,0.7,0.2c0.2,0,0.5,0.1,0.8,0.1v0h1.5c0.3,0,0.5,0,0.8-0.1c0.2-0.1,0.5-0.2,0.7-0.4
		c0.2-0.2,0.4-0.4,0.5-0.7c0.1-0.3,0.2-0.6,0.2-1c0-0.1,0-0.3,0-0.5C72.7,60,72.6,59.8,72.6,59.6z M68.2,79.4l0.1,1
		c0,0-0.1,0.1-0.3,0.2c-0.2,0.1-0.4,0.3-0.7,0.4c-0.3,0.2-0.7,0.4-1.1,0.6c-0.4,0.2-0.8,0.4-1.3,0.6c-0.5,0.2-0.9,0.3-1.5,0.4
		c-0.5,0.1-1,0.2-1.5,0.2h-1.4h-0.2h-0.7c0,0.6-0.1,1-0.2,1.4c-0.2,0.4-0.4,0.7-0.8,1c-0.3,0.3-0.8,0.5-1.3,0.6
		C56.9,86,56.3,86,55.6,86v-1.1c0.6,0,1.1,0,1.5-0.1c0.4-0.1,0.7-0.2,1-0.4c0.2-0.2,0.4-0.4,0.5-0.6c0.1-0.3,0.1-0.6,0.1-1h-1.1
		c-0.3,0-0.6,0-0.8-0.1c-0.3-0.1-0.5-0.2-0.8-0.4c-0.2-0.2-0.4-0.4-0.6-0.7c-0.1-0.3-0.2-0.7-0.2-1.1c0-0.3,0-0.5,0.1-0.7
		c0-0.2,0.1-0.4,0.2-0.6c0.1-0.2,0.1-0.3,0.2-0.4c0.1-0.1,0.2-0.2,0.2-0.3c0.2-0.2,0.5-0.4,0.7-0.5c0.3-0.1,0.6-0.2,0.9-0.2
		c0.3,0,0.5,0,0.8,0.1c0.2,0.1,0.5,0.2,0.7,0.4c0.5,0.5,0.8,1.3,0.8,2.3v1.1h0.7h0.2H62c0.4,0,0.9-0.1,1.3-0.2
		c0.5-0.1,0.9-0.2,1.3-0.4c0.4-0.2,0.8-0.3,1.2-0.5c0.4-0.2,0.7-0.4,1-0.5c-0.4-0.2-0.8-0.3-1.1-0.5c-0.4-0.1-0.7-0.3-1-0.4
		c-0.3-0.1-0.6-0.2-0.8-0.3c-0.2-0.1-0.4-0.1-0.5-0.1c-0.1,0-0.1,0-0.2,0c-0.1,0-0.1,0-0.2,0.1c-0.1,0.1-0.1,0.2-0.2,0.3
		c-0.1,0.1-0.1,0.3-0.2,0.5l-1.1-0.3c0.3-1.2,0.9-1.7,1.9-1.7c0,0,0.1,0,0.1,0c0,0,0.1,0,0.2,0c0.1,0,0.2,0,0.3,0.1
		c0.1,0,0.3,0.1,0.5,0.2c0.2,0.1,0.4,0.2,0.7,0.3c0.3,0.1,0.6,0.2,1,0.4L68.2,79.4z M58.6,80.5c0-0.3,0-0.5-0.1-0.7
		c0-0.2-0.1-0.4-0.2-0.5c-0.1-0.1-0.1-0.2-0.2-0.3c-0.1-0.1-0.2-0.1-0.2-0.2c-0.1,0-0.2,0-0.2-0.1c-0.1,0-0.1,0-0.2,0
		c-0.4,0-0.7,0.1-0.9,0.4c-0.2,0.3-0.3,0.7-0.3,1.2c0,0.5,0.2,0.9,0.5,1.1c0.1,0,0.2,0.1,0.2,0.1c0.1,0,0.2,0,0.2,0.1
		c0.1,0,0.1,0,0.2,0c0.1,0,0.1,0,0.2,0h1.1V80.5z M116.8,64.9l1,1l1-1l-1-1L116.8,64.9z M117.2,62.8c0.3,0,0.5,0,0.8-0.1
		c0.2-0.1,0.5-0.2,0.7-0.4c0.2-0.2,0.4-0.4,0.5-0.7c0.1-0.3,0.2-0.6,0.2-1c0-0.1,0-0.3,0-0.5c0-0.2,0-0.4-0.1-0.5
		c0-0.2-0.1-0.4-0.1-0.6c0-0.2-0.1-0.3-0.1-0.5c0-0.2-0.1-0.3-0.1-0.4c0-0.1,0-0.2,0-0.2l-1.1,0.3c0,0.1,0,0.1,0.1,0.2
		c0,0.1,0,0.2,0.1,0.4c0,0.1,0.1,0.3,0.1,0.5c0,0.2,0.1,0.3,0.1,0.5c0,0.2,0,0.3,0.1,0.4c0,0.1,0,0.2,0,0.3c0,0.3,0,0.5-0.1,0.6
		c-0.1,0.1-0.2,0.2-0.3,0.3c-0.1,0.1-0.2,0.1-0.3,0.1c-0.1,0-0.2,0-0.3,0h-1.3c-0.4,0-0.7,0-0.8-0.1c-0.2,0-0.3-0.1-0.4-0.2
		c-0.1-0.1-0.2-0.3-0.2-0.5c0-0.2,0-0.5,0-0.8v-5.7h-1.1V60c0,0.3,0,0.6,0,0.8s0.1,0.5,0.1,0.7c0.1,0.2,0.2,0.4,0.3,0.5
		c0.1,0.2,0.3,0.3,0.4,0.4c0.2,0.1,0.4,0.2,0.7,0.2c0.2,0,0.5,0.1,0.8,0.1v0H117.2z M114.8,73.4c-0.2,0-0.4,0.1-0.5,0.2
		c-0.1,0.1-0.2,0.3-0.2,0.5c0,0.2,0.1,0.4,0.2,0.5c0.1,0.1,0.3,0.2,0.5,0.2c0.2,0,0.4-0.1,0.5-0.2c0.1-0.1,0.2-0.3,0.2-0.5
		c0-0.2-0.1-0.3-0.2-0.5C115.2,73.5,115,73.4,114.8,73.4z M119,81.7c-0.1-0.1-0.2-0.3-0.2-0.6v-4.3h1.3v-0.9h-1.3v-1.7h-1.2v1.7
		h-1.2v0.9h1.2v4.3c0,0.6,0.1,1,0.4,1.4c0.3,0.3,0.7,0.5,1.2,0.5c0.3,0,0.6,0,0.9-0.1v-1c-0.2,0.1-0.4,0.1-0.6,0.1
		C119.3,81.9,119.1,81.8,119,81.7z M105,81.2c0,0.6,0.1,1.1,0.2,1.5v0.1H104c-0.1-0.1-0.1-0.4-0.2-0.7c-0.5,0.6-1.2,0.8-2,0.8
		c-0.7,0-1.2-0.2-1.7-0.6c-0.4-0.4-0.7-0.9-0.7-1.5c0-0.7,0.3-1.3,0.8-1.7c0.5-0.4,1.3-0.6,2.3-0.6h1.1v-0.5c0-0.4-0.1-0.7-0.4-1
		c-0.2-0.2-0.6-0.4-1.1-0.4c-0.4,0-0.8,0.1-1.1,0.3c-0.3,0.2-0.4,0.5-0.4,0.8h-1.2c0-0.3,0.1-0.7,0.4-1c0.2-0.3,0.6-0.6,1-0.8
		c0.4-0.2,0.9-0.3,1.4-0.3c0.8,0,1.4,0.2,1.9,0.6c0.4,0.4,0.7,0.9,0.7,1.6V81.2z M103.8,79.5h-0.9c-1.4,0-2.2,0.4-2.2,1.3
		c0,0.4,0.1,0.7,0.4,0.9c0.2,0.2,0.6,0.3,0.9,0.3c0.4,0,0.7-0.1,1-0.3c0.3-0.2,0.6-0.4,0.7-0.7V79.5z M110.5,62.2
		c0.4-0.4,0.7-1,0.7-1.7v-6.1H110v6.1c0,0.2,0,0.4-0.1,0.5c0,0.1-0.1,0.2-0.2,0.3c-0.1,0.1-0.3,0.2-0.5,0.2
		c-0.2,0.1-0.5,0.1-0.8,0.1h-3.2v1.1h3.2C109.4,62.8,110,62.6,110.5,62.2z M111.9,76.7c0.5,0.6,0.7,1.5,0.7,2.6v0.1
		c0,1-0.2,1.9-0.7,2.5c-0.5,0.6-1.1,1-1.9,1c-0.8,0-1.5-0.3-2-0.8v3.3h-1.2v-9.5h1.1l0.1,0.8c0.5-0.6,1.1-0.9,2-0.9
		C110.7,75.8,111.4,76.1,111.9,76.7z M111.4,79.3c0-0.8-0.2-1.4-0.5-1.8c-0.3-0.5-0.8-0.7-1.4-0.7c-0.7,0-1.2,0.3-1.6,0.9V81
		c0.4,0.6,0.9,0.9,1.6,0.9c0.6,0,1-0.2,1.3-0.7C111.3,80.8,111.4,80.2,111.4,79.3z M114.2,82.8h1.2v-6.9h-1.2V82.8z"/>
</g>
</svg>
