<svg id="Layer_1" data-name="Layer 1" xmlns="http://www.w3.org/2000/svg" viewBox="0 0 405.75 52.72"><defs><style>.cls-1{fill:#c9ddff;}</style></defs><path class="cls-1" d="M101.53,13a3.91,3.91,0,0,1-.09-.88,5.6,5.6,0,0,1,0-.68c0-.25.08-.49.13-.74s.09-.48.15-.71.11-.44.16-.62L102,9l.07-.2,1.11.36,0,.15c0,.11-.08.25-.13.41l-.14.57-.15.65a5.2,5.2,0,0,0-.11.67,4.27,4.27,0,0,0,0,.59,2.55,2.55,0,0,0,.17,1,2,2,0,0,0,.45.66,1.52,1.52,0,0,0,.61.36,2.09,2.09,0,0,0,.7.11h11.71a1.6,1.6,0,0,0,1.18-.53,2.07,2.07,0,0,0,.51-.83,3,3,0,0,0,.16-1v-.06a11.05,11.05,0,0,0-.14-1.46c-.08-.51-.18-1-.28-1.46l1.16-.2c.11.49.2,1,.29,1.54a10.68,10.68,0,0,1,.15,1.55v.11a4,4,0,0,1-.25,1.43,3.36,3.36,0,0,1-.76,1.2,3.16,3.16,0,0,1-.93.66,2.73,2.73,0,0,1-1.09.23H104.54a3.22,3.22,0,0,1-1.16-.21,3,3,0,0,1-1-.6,3.25,3.25,0,0,1-.34-.38,2.46,2.46,0,0,1-.31-.53A3.38,3.38,0,0,1,101.53,13ZM81.28,3.75,80,2.49,78.8,3.73,80,5Zm4.83-1.93h-1.2V15.45h1.2ZM22,15.45H20.4a4.77,4.77,0,0,1-1.62-.26,2.29,2.29,0,0,1-1.05-.79,3.09,3.09,0,0,1-.47-1.3,11.54,11.54,0,0,1-.12-1.77V1.82h1.2v9.5a14.49,14.49,0,0,0,.06,1.46,1.84,1.84,0,0,0,.28.9,1.16,1.16,0,0,0,.68.46,4.56,4.56,0,0,0,1.24.13H22A17.48,17.48,0,0,0,25,14a2.9,2.9,0,0,1-.29-.19,2.43,2.43,0,0,1-.25-.2,4,4,0,0,1-1.12-1.29,3.41,3.41,0,0,1-.38-1.65,3.68,3.68,0,0,1,.27-1.43A3.18,3.18,0,0,1,24,8.17a3.54,3.54,0,0,1,1.15-.71,4.11,4.11,0,0,1,1.46-.25,3,3,0,0,1,1.34.3A3.64,3.64,0,0,1,29,8.33,3.86,3.86,0,0,1,29.7,9.5,3.54,3.54,0,0,1,30,10.86a3.7,3.7,0,0,1-.52,2,4.25,4.25,0,0,1-1.51,1.43,5.6,5.6,0,0,0,1.12.46,4.26,4.26,0,0,0,1.23.18,3.1,3.1,0,0,0,.76-.09,2.66,2.66,0,0,0,.62-.22,2.17,2.17,0,0,0,.47-.33,1.51,1.51,0,0,0,.31-.39,2.35,2.35,0,0,0,.23-.62,1.69,1.69,0,0,0,0-.38c0-.08,0-.19,0-.33a2.61,2.61,0,0,0-.16-.56,5.12,5.12,0,0,0-.4-.76,16,16,0,0,0-1.62-2.06C29.8,8.39,29,7.47,28,6.43l.85-.82,1.42,1.51c.44.47.84.9,1.2,1.32s.69.79,1,1.15a11.08,11.08,0,0,1,.73,1,7.39,7.39,0,0,1,.5,1,3.57,3.57,0,0,1,.25.93c0,.11,0,.23,0,.35a3.56,3.56,0,0,1-.08.67,3.46,3.46,0,0,1-.34.89,2.79,2.79,0,0,1-.56.72,3.85,3.85,0,0,1-.77.52,4.25,4.25,0,0,1-.91.32,4.57,4.57,0,0,1-1,.1,5.36,5.36,0,0,1-1-.09,7.9,7.9,0,0,1-1-.27,9.2,9.2,0,0,1-.93-.39l-.91-.44a12.29,12.29,0,0,1-2,.42A20.77,20.77,0,0,1,22,15.45Zm3.17-2.71c.2.15.42.31.65.45l.77.43a4.44,4.44,0,0,0,.85-.41,3.18,3.18,0,0,0,.71-.6,2.83,2.83,0,0,0,.48-.78,2.54,2.54,0,0,0,.18-1,2.57,2.57,0,0,0-.71-1.8,2.18,2.18,0,0,0-.71-.5,1.9,1.9,0,0,0-.8-.18,2.81,2.81,0,0,0-1.15.21,2,2,0,0,0-.76.53,2,2,0,0,0-.43.75,3.06,3.06,0,0,0-.13.84,2.32,2.32,0,0,0,.26,1.1A3,3,0,0,0,25.15,12.74ZM7.2,10a7.75,7.75,0,0,1,.21,1.87v3.71A5.33,5.33,0,0,1,7,17.83a4.23,4.23,0,0,1-1.26,1.61,5.23,5.23,0,0,1-2,1,9.56,9.56,0,0,1-2.52.31H.67V19.54h.54a11.6,11.6,0,0,0,2.08-.23,4.15,4.15,0,0,0,1.57-.67,3.06,3.06,0,0,0,1-1.24,4.81,4.81,0,0,0,.37-1.95H4.06a6,6,0,0,1-1.54-.21,3.72,3.72,0,0,1-1.3-.66,3.1,3.1,0,0,1-.9-1.12A3.62,3.62,0,0,1,0,11.9,7.67,7.67,0,0,1,.21,10,4.13,4.13,0,0,1,.85,8.58,3.1,3.1,0,0,1,2,7.61a3.94,3.94,0,0,1,1.7-.4,3.94,3.94,0,0,1,1.69.39,3,3,0,0,1,1.15,1A4.16,4.16,0,0,1,7.2,10Zm-1,1.87a8.39,8.39,0,0,0-.14-1.4,3.1,3.1,0,0,0-.4-1.12,1.93,1.93,0,0,0-.77-.73A2.42,2.42,0,0,0,3.7,8.38a2.5,2.5,0,0,0-1.22.27,2.13,2.13,0,0,0-.78.74,3.3,3.3,0,0,0-.41,1.12,7.5,7.5,0,0,0-.12,1.39A2.49,2.49,0,0,0,1.4,13a2.05,2.05,0,0,0,.64.73,2.68,2.68,0,0,0,1,.41,5.68,5.68,0,0,0,1.2.12h2ZM33.31,51.14l1.19,1.19,1.18-1.18L34.48,50ZM64.57,2.53,63.38,1.34,62.19,2.53l1.2,1.18ZM44.83,36.59l1.24,1.26,1.25-1.24-1.26-1.26ZM62.62,5.16,61.44,4,60.25,5.18l1.18,1.17ZM44,18.32a4.85,4.85,0,0,0,.84,1,5,5,0,0,0,1.06.76,5.23,5.23,0,0,0,1.19.46,5.3,5.3,0,0,0,1.26.15h2.43A9.43,9.43,0,0,0,52,20.63a5,5,0,0,0,1.1-.25,4.07,4.07,0,0,0,1.81-1.26,3.21,3.21,0,0,0,.46-.76,6.38,6.38,0,0,0,.3-.87,6.75,6.75,0,0,0,.15-.86,7.24,7.24,0,0,0,0-.75,2.73,2.73,0,0,0,0-.41,1,1,0,0,0-.13-.38,1,1,0,0,0-.33-.31,2.08,2.08,0,0,0-.61-.25l-.61-.16-.84-.23-1-.26-.93-.25-.78-.2-.49-.14a4.29,4.29,0,0,1-.07-.79,4.06,4.06,0,0,1,.19-1.24,3.91,3.91,0,0,1,1-1.7,4.13,4.13,0,0,1,1.44-.94,4.85,4.85,0,0,1,1.75-.31A5.76,5.76,0,0,1,56,8.53l.33-1.12a5.93,5.93,0,0,0-1-.21,6,6,0,0,0-.94-.07h-.1a4.85,4.85,0,0,0-1,.1,6.26,6.26,0,0,0-1.07.3,6,6,0,0,0-1,.5,5.13,5.13,0,0,0-.85.69,4.64,4.64,0,0,0-.87,1.11,4.69,4.69,0,0,0-.53,1.27,4,4,0,0,0-.19,1v.4a4.92,4.92,0,0,0,.19,1.37l.08.32,5.53,1.49c0,.13,0,.26,0,.39s0,.2,0,.29a4.75,4.75,0,0,1-.12.74,4.61,4.61,0,0,1-.25.71,2.19,2.19,0,0,1-.4.59,3.1,3.1,0,0,1-1.24.82,5.78,5.78,0,0,1-1.93.27H48.38a4.15,4.15,0,0,1-2-.48A3.8,3.8,0,0,1,45,17.7a4.26,4.26,0,0,1-.58-1.41,6.94,6.94,0,0,1-.15-1.39c0-.18,0-.37,0-.57a10.58,10.58,0,0,1,.39-2.09A14.63,14.63,0,0,1,45.52,10l-1.06-.51a13.07,13.07,0,0,0-1.41,5.11c0,.12,0,.24,0,.36a7.22,7.22,0,0,0,.18,1.61A5.7,5.7,0,0,0,44,18.32ZM109.6,6.59,108.4,5.4l-.58.58-.59.6,1.19,1.19ZM227,38l1.18-1.19L227,35.61l-.58.59-.58.59ZM243.33,2.15,242.13,1l-1.19,1.2,1.2,1.18ZM229.45,14.39a2.21,2.21,0,0,0,1,.79,5,5,0,0,0,1.61.26h1.69a3.29,3.29,0,0,0,1.18-.21,3.34,3.34,0,0,0,1-.59l.22-.22a2,2,0,0,0,.22-.27l.13.18.14.16a3.64,3.64,0,0,0,2.68.95,3.53,3.53,0,0,0,1.2-.21,3.21,3.21,0,0,0,1-.59l.22-.22a2,2,0,0,0,.22-.27l.13.18.15.16a3.58,3.58,0,0,0,2.65.95h0a3.35,3.35,0,0,0,1.14-.22,3.19,3.19,0,0,0,.95-.58,2.74,2.74,0,0,0,.35-.39,3,3,0,0,0,.33-.53A4.1,4.1,0,0,0,248,13a4,4,0,0,0,.1-.89,6.78,6.78,0,0,0-.07-.84c0-.31-.09-.62-.15-.94s-.13-.62-.2-.92-.13-.57-.2-.8-.11-.43-.16-.58a1.42,1.42,0,0,1-.07-.26l-1.12.35.06.21c0,.14.08.31.14.53s.13.47.19.75.13.57.2.87.1.58.14.87a5.5,5.5,0,0,1,.06.76,2.45,2.45,0,0,1-.18,1,1.92,1.92,0,0,1-.47.66,1.56,1.56,0,0,1-.62.36,2.17,2.17,0,0,1-.7.11h0c-1.52,0-2.29-.73-2.29-2.13V9h-1.17v3.14a2.29,2.29,0,0,1-.19,1,1.82,1.82,0,0,1-.48.66,2.08,2.08,0,0,1-.65.36,2.57,2.57,0,0,1-.72.11q-2.28,0-2.28-2.13V9h-1.18v3.14a2.29,2.29,0,0,1-.19,1,1.82,1.82,0,0,1-.48.66,2.08,2.08,0,0,1-.65.36,2.56,2.56,0,0,1-.71.11h-1.6a4.48,4.48,0,0,1-1.23-.13,1.16,1.16,0,0,1-.68-.46,1.84,1.84,0,0,1-.29-.9,14.49,14.49,0,0,1-.06-1.46V1.82h-1.19v9.5a13.1,13.1,0,0,0,.11,1.77A3.09,3.09,0,0,0,229.45,14.39Zm-116-7.79-1.2-1.19c-.21.22-.4.42-.58.59s-.37.37-.58.6l1.18,1.19Zm144,8.24a1.69,1.69,0,0,0,.6.45,1.92,1.92,0,0,0,.81.17,1.11,1.11,0,0,0,.5-.12,1.28,1.28,0,0,0,.4-.29,1.17,1.17,0,0,0,.27-.42,1.38,1.38,0,0,0,.1-.49,1,1,0,0,0-.1-.44,1.18,1.18,0,0,0-.23-.35.88.88,0,0,0-.36-.24,1,1,0,0,0-.43-.09l-.27,0a1.34,1.34,0,0,0-.27.07,1.22,1.22,0,0,0-.26.18,1.17,1.17,0,0,0-.25.31v-.06a3.19,3.19,0,0,1,.14-.94,3.45,3.45,0,0,1,.41-.84,4.17,4.17,0,0,1,.59-.67,3.75,3.75,0,0,1,.68-.49l-.58-.8a5.19,5.19,0,0,0-.86.66,5.71,5.71,0,0,0-.72.84,4.69,4.69,0,0,0-.5,1,3.06,3.06,0,0,0-.18,1,2.63,2.63,0,0,0,.13.86A1.67,1.67,0,0,0,257.51,14.84ZM244,5.93l1.19-1.19L244,3.55l-1.19,1.19ZM403,1.26,401.76,0l-1.22,1.24,1.24,1.26ZM343.23,14.84a1.89,1.89,0,0,0,.6.45,1.92,1.92,0,0,0,.81.17,1.06,1.06,0,0,0,.5-.12,1.31,1.31,0,0,0,.68-.71,1.37,1.37,0,0,0,.09-.49,1.08,1.08,0,0,0-.09-.44,1.21,1.21,0,0,0-.24-.35.79.79,0,0,0-.35-.24,1.07,1.07,0,0,0-.43-.09l-.27,0a1.34,1.34,0,0,0-.27.07,1.06,1.06,0,0,0-.27.18,1,1,0,0,0-.24.31v-.06a2.89,2.89,0,0,1,.14-.94,3.45,3.45,0,0,1,.41-.84,4.17,4.17,0,0,1,.59-.67,3.43,3.43,0,0,1,.68-.49L345,9.8a4.81,4.81,0,0,0-.86.66,4.72,4.72,0,0,0-.72.84,4.25,4.25,0,0,0-.5,1,3.07,3.07,0,0,0-.19,1,2.93,2.93,0,0,0,.13.86A1.8,1.8,0,0,0,343.23,14.84ZM179.58,37.93l1.19-1.19-1.19-1.19-1.2,1.19Zm39.25-34.5-1.25-1.26-1.23,1.24,1.25,1.26ZM147.16,34.68l1.24-1.25-1.26-1.26-1.22,1.24ZM144.29,1.26,143,0,141.8,1.24l1.25,1.26ZM130.22,5.15,129,3.88l-1.23,1.25L129,6.39Zm-6.85-3.33h-1.19V15.45h1.19Zm51.19,35L175.74,38l1.18-1.2-1.17-1.18Zm-12.24-23.7a11.54,11.54,0,0,1-.12-1.77V1.82h1.2v9.5c0,.59,0,1.08,0,1.46a2,2,0,0,0,.29.9,1.16,1.16,0,0,0,.68.46,4.56,4.56,0,0,0,1.24.13H167a17.56,17.56,0,0,0,3-.23,2.9,2.9,0,0,1-.29-.19l-.26-.2a4.07,4.07,0,0,1-1.11-1.29,3.41,3.41,0,0,1-.38-1.65,3.68,3.68,0,0,1,.27-1.43A3.18,3.18,0,0,1,169,8.17a3.54,3.54,0,0,1,1.15-.71,4.11,4.11,0,0,1,1.46-.25,3.06,3.06,0,0,1,1.34.3,3.59,3.59,0,0,1,1.07.82,3.7,3.7,0,0,1,.72,1.17,3.54,3.54,0,0,1,.26,1.36,3.7,3.7,0,0,1-.52,2A4.25,4.25,0,0,1,173,14.27a5.76,5.76,0,0,0,1.11.46,4.38,4.38,0,0,0,1.24.18,3.1,3.1,0,0,0,.76-.09,2.66,2.66,0,0,0,.62-.22,2.17,2.17,0,0,0,.47-.33,1.76,1.76,0,0,0,.31-.39,2.35,2.35,0,0,0,.23-.62,1.69,1.69,0,0,0,0-.38c0-.08,0-.19,0-.33a2.61,2.61,0,0,0-.16-.56,5.12,5.12,0,0,0-.4-.76,16.93,16.93,0,0,0-1.62-2.06c-.71-.78-1.56-1.7-2.55-2.74l.85-.82,1.42,1.51c.44.47.84.9,1.2,1.32s.69.79,1,1.15a11.08,11.08,0,0,1,.73,1,7.39,7.39,0,0,1,.5,1,3.57,3.57,0,0,1,.25.93c0,.11,0,.23,0,.35a3.13,3.13,0,0,1-.41,1.56,2.79,2.79,0,0,1-.56.72,3.85,3.85,0,0,1-.77.52,4.25,4.25,0,0,1-.91.32,4.57,4.57,0,0,1-1,.1,5.36,5.36,0,0,1-1-.09,7.9,7.9,0,0,1-1-.27,9.2,9.2,0,0,1-.93-.39l-.91-.44a12.29,12.29,0,0,1-2,.42,20.9,20.9,0,0,1-2.48.14h-1.58a5,5,0,0,1-1.62-.26,2.29,2.29,0,0,1-1.05-.79A3,3,0,0,1,162.32,13.09Zm7.89-.35c.2.15.42.31.65.45l.77.43a4.44,4.44,0,0,0,.85-.41,3.42,3.42,0,0,0,.71-.6,2.83,2.83,0,0,0,.48-.78,2.54,2.54,0,0,0,.18-1,2.57,2.57,0,0,0-.71-1.8,2.18,2.18,0,0,0-.71-.5,1.9,1.9,0,0,0-.8-.18,2.81,2.81,0,0,0-1.15.21,2.16,2.16,0,0,0-.77.53,2.13,2.13,0,0,0-.42.75,2.72,2.72,0,0,0-.13.84,2.32,2.32,0,0,0,.26,1.1A3,3,0,0,0,170.21,12.74Zm8.67,21.41L177.69,33l-1.2,1.19,1.2,1.18Zm-14.73,1-1.26-1.26-1.22,1.24,1.24,1.26Zm-7.81-20.35a1.83,1.83,0,0,0,.61.45,1.92,1.92,0,0,0,.81.17,1.11,1.11,0,0,0,.5-.12,1.28,1.28,0,0,0,.4-.29,1.32,1.32,0,0,0,.27-.42,1.38,1.38,0,0,0,.1-.49,1,1,0,0,0-.1-.44,1.21,1.21,0,0,0-.24-.35.79.79,0,0,0-.35-.24,1.07,1.07,0,0,0-.43-.09l-.27,0a1.34,1.34,0,0,0-.27.07,1,1,0,0,0-.26.18,1.17,1.17,0,0,0-.25.31v-.06a3.19,3.19,0,0,1,.14-.94,3.45,3.45,0,0,1,.41-.84,4.17,4.17,0,0,1,.59-.67,3.75,3.75,0,0,1,.68-.49l-.58-.8a4.81,4.81,0,0,0-.86.66,5.71,5.71,0,0,0-.72.84,4.69,4.69,0,0,0-.5,1,3.06,3.06,0,0,0-.18,1,2.93,2.93,0,0,0,.12.86A1.94,1.94,0,0,0,156.34,14.84Zm85-10.07L240.2,3.59,239,4.79,240.19,6Zm66.84,29.06H307V47.45h1.2Zm16.87-18.38a3.61,3.61,0,0,1-2.67-.95,1.07,1.07,0,0,1-.14-.16l-.14-.18a1.44,1.44,0,0,1-.22.27l-.21.22a3.47,3.47,0,0,1-1,.59,3.33,3.33,0,0,1-1.18.21h-3.17a3,3,0,0,0-.68.07,2.58,2.58,0,0,0-.59.22,2,2,0,0,0-.47.33,1.61,1.61,0,0,0-.3.45,1.38,1.38,0,0,0-.13.62,2.88,2.88,0,0,0,.2.94,5.09,5.09,0,0,0,1,1.49l-.37,1-.39,0h-.39a5.75,5.75,0,0,1-1.78-.28,6,6,0,0,1-1.1-.47,5.81,5.81,0,0,1-1-.68,6.43,6.43,0,0,1-.83-.82,7.65,7.65,0,0,1-.67-.94,5.58,5.58,0,0,1-.5-1,5.77,5.77,0,0,1-.31-1l-1.18.07H305.8a5.08,5.08,0,0,1-1.62-.26,2.21,2.21,0,0,1-1-.79,3.09,3.09,0,0,1-.48-1.3,11.64,11.64,0,0,1-.11-1.77V1.82h1.19v9.5a14.49,14.49,0,0,0,.06,1.46,2,2,0,0,0,.28.9,1.18,1.18,0,0,0,.69.46,4.13,4.13,0,0,0,1.18.13l.88,0c.37,0,.75,0,1.13-.07v-.29a12.37,12.37,0,0,1,.26-2.68,6,6,0,0,1,1.29-2.75,3.3,3.3,0,0,1,2.37-1.16h.27a3.06,3.06,0,0,1,2.2.82,2.78,2.78,0,0,1,.55.71,3.83,3.83,0,0,1,.44,1.39c0,.19,0,.34,0,.43a3.54,3.54,0,0,1-1.15,2.67,5.26,5.26,0,0,1-1.1.79,7.74,7.74,0,0,1-1.47.61,8.87,8.87,0,0,1-1.18.31c-.41.09-.82.16-1.24.22a4.93,4.93,0,0,0,.67,1.61,5.79,5.79,0,0,0,1.21,1.4,5.43,5.43,0,0,0,.5.38,5.07,5.07,0,0,0,.61.34,4.69,4.69,0,0,0,.72.28,5,5,0,0,0,.82.15,5.35,5.35,0,0,1-.63-1.37,3.19,3.19,0,0,1-.13-.89,2.64,2.64,0,0,1,.24-1.11,2.71,2.71,0,0,1,1.27-1.32,3.91,3.91,0,0,1,1.84-.44h3.28a2.57,2.57,0,0,0,.72-.11,2.19,2.19,0,0,0,.65-.36,1.82,1.82,0,0,0,.48-.66,2.44,2.44,0,0,0,.19-1V9h1.17v3.14c0,1.4.77,2.11,2.29,2.13a2.5,2.5,0,0,0,.71-.11,2.12,2.12,0,0,0,.66-.36,1.82,1.82,0,0,0,.48-.66,2.44,2.44,0,0,0,.19-1V9h1.17v3.14c0,1.4.76,2.11,2.29,2.13h0a2.07,2.07,0,0,0,.69-.11,1.66,1.66,0,0,0,.63-.36,1.9,1.9,0,0,0,.46-.66,2.44,2.44,0,0,0,.19-1,5.5,5.5,0,0,0-.06-.76q-.06-.43-.15-.87c-.06-.3-.12-.59-.19-.87s-.13-.53-.19-.75l-.15-.53a1.79,1.79,0,0,1-.05-.21l1.11-.35s0,.11.08.26.1.34.16.58.13.5.2.8.14.61.19.92.12.63.16.94a6.62,6.62,0,0,1,.06.84,4.06,4.06,0,0,1-.09.89,3.38,3.38,0,0,1-.24.7,3.71,3.71,0,0,1-.32.53,3.52,3.52,0,0,1-.35.39,3.19,3.19,0,0,1-.95.58,3.35,3.35,0,0,1-1.14.22h0A3.56,3.56,0,0,1,328,14.5a.75.75,0,0,1-.15-.16l-.13-.18a3.2,3.2,0,0,1-.22.27l-.22.22a3.21,3.21,0,0,1-1,.59A3.54,3.54,0,0,1,325.08,15.45Zm-15.95-1.39c.38-.05.75-.11,1.11-.19a9.16,9.16,0,0,0,1.06-.28,5.24,5.24,0,0,0,2.18-1.19,2.39,2.39,0,0,0,.71-1.76,3,3,0,0,0,0-.4,1.88,1.88,0,0,0-.12-.45,2.57,2.57,0,0,0-.2-.45,1.77,1.77,0,0,0-.92-.75,2.79,2.79,0,0,0-.88-.12,2.07,2.07,0,0,0-.94.2,2.45,2.45,0,0,0-.72.57,3.24,3.24,0,0,0-.56.84,6.26,6.26,0,0,0-.4,1.11,10.21,10.21,0,0,0-.23,1.33,12,12,0,0,0-.06,1.22ZM340.5,46.42a2.56,2.56,0,0,1-.55.72,3.72,3.72,0,0,1-.77.52,4.13,4.13,0,0,1-1.88.42,5.55,5.55,0,0,1-1-.09,7.75,7.75,0,0,1-.94-.27c-.31-.11-.62-.24-.93-.38l-.92-.45a12.17,12.17,0,0,1-2,.42,20.9,20.9,0,0,1-2.48.14h-1.59a5,5,0,0,1-1.61-.26,2.19,2.19,0,0,1-1.05-.79,3.09,3.09,0,0,1-.48-1.3,13.1,13.1,0,0,1-.11-1.77V33.83h1.19v9.49a14.49,14.49,0,0,0,.06,1.46,1.91,1.91,0,0,0,.28.9,1.22,1.22,0,0,0,.69.46,4.48,4.48,0,0,0,1.23.13H329a17.56,17.56,0,0,0,3-.23,2.08,2.08,0,0,1-.29-.19l-.26-.2a4.11,4.11,0,0,1-1.12-1.29,3.89,3.89,0,0,1-.1-3.08,3.3,3.3,0,0,1,.75-1.11,3.58,3.58,0,0,1,1.16-.71,4,4,0,0,1,1.46-.25,3,3,0,0,1,1.33.3,3.51,3.51,0,0,1,1.08.82,4.1,4.1,0,0,1,.72,1.17,3.85,3.85,0,0,1-.27,3.34A4.17,4.17,0,0,1,335,46.27a5.85,5.85,0,0,0,1.12.46,4.26,4.26,0,0,0,1.23.18,3.55,3.55,0,0,0,.76-.08,3.31,3.31,0,0,0,.63-.23,2.44,2.44,0,0,0,.47-.33,1.7,1.7,0,0,0,.3-.39,2.4,2.4,0,0,0,.24-.62,2.58,2.58,0,0,0,0-.38c0-.08,0-.19,0-.33a3,3,0,0,0-.17-.57,4.1,4.1,0,0,0-.39-.74,15.52,15.52,0,0,0-1.63-2.07c-.71-.78-1.55-1.69-2.55-2.74l.85-.82,1.43,1.51c.43.47.84.9,1.2,1.31s.68.8,1,1.16.52.7.73,1a6.8,6.8,0,0,1,.49,1,3.61,3.61,0,0,1,.25.92,2.17,2.17,0,0,1,0,.36,3.47,3.47,0,0,1-.07.67A3.53,3.53,0,0,1,340.5,46.42Zm-6.06-1.21a3,3,0,0,0,.71-.6,2.83,2.83,0,0,0,.48-.78,2.55,2.55,0,0,0,.18-1,2.59,2.59,0,0,0-.19-1,2.63,2.63,0,0,0-.51-.78,2.29,2.29,0,0,0-.71-.5,1.94,1.94,0,0,0-.8-.18,2.86,2.86,0,0,0-1.16.21,2.12,2.12,0,0,0-.76.53,2,2,0,0,0-.42.75,2.72,2.72,0,0,0-.13.84,2.32,2.32,0,0,0,.25,1.1,3.21,3.21,0,0,0,.8.93,7.31,7.31,0,0,0,.65.45c.24.14.5.29.77.43A4.66,4.66,0,0,0,334.44,45.21ZM37.21,51.16l1.18,1.19,1.18-1.18L38.37,50Zm308.34-4a4.88,4.88,0,0,1-.95,3.26,4.2,4.2,0,0,1-3.29,1.17H340v1.16h1.32a5.4,5.4,0,0,0,4.05-1.41,5.78,5.78,0,0,0,1.37-4.18V41h-1.18ZM297.24,43,296,41.09l-.89-1.34-.61-.93c-.17-.24-.3-.45-.4-.6l-.25-.39a3.23,3.23,0,0,1-.18-.28l-1,.63.31.49.05.08.16.24.34.51c.14.23.34.52.58.89l.89,1.34,1.26,1.89a2,2,0,0,1,.33.7,2.83,2.83,0,0,1,0,.4,1.24,1.24,0,0,1-.1.5,1.37,1.37,0,0,1-.59.66,2.82,2.82,0,0,1-1.06.37,5.67,5.67,0,0,1-1,.09h-.11a8.52,8.52,0,0,1-1.24-.09,8.34,8.34,0,0,1-1.17-.26,4.67,4.67,0,0,1-.95-.42l-.51-.3-.6,1,.51.3a6.28,6.28,0,0,0,1.13.5,9.56,9.56,0,0,0,1.4.33,10.39,10.39,0,0,0,1.47.11,7.62,7.62,0,0,0,1.31-.11,4,4,0,0,0,1.6-.61,2.52,2.52,0,0,0,.93-1.12,2.37,2.37,0,0,0,.17-1.33A3.23,3.23,0,0,0,297.24,43Zm16.06,4.16a4.83,4.83,0,0,1-1,3.26,4.16,4.16,0,0,1-3.28,1.17h-1.33v1.16h1.33a5.38,5.38,0,0,0,4-1.41,5.74,5.74,0,0,0,1.37-4.18V41H313.3ZM299.41,10.06a5.48,5.48,0,0,1,.24,1.59,5.25,5.25,0,0,1-.27,1.8,3.42,3.42,0,0,1-.68,1.21,2.49,2.49,0,0,1-.95.65,2.86,2.86,0,0,1-1.07.2h-.22a2.06,2.06,0,0,1-.34-.07l-.5-.16-.71-.27-.69-.3-.86-.41-.95-.46c-.32-.16-.64-.31-.93-.47l-.82-.42-.61-.33V22.69h-1.17V11.89l1.08-.67.81.45,1.4.73a21.08,21.08,0,0,1,.49-2.08,7,7,0,0,1,.59-1.44,3.6,3.6,0,0,1,1.18-1.31,2.92,2.92,0,0,1,1.67-.46,2.74,2.74,0,0,1,1.51.42,3.8,3.8,0,0,1,1.12,1.07A4.77,4.77,0,0,1,299.41,10.06Zm-.94,1.59a4.52,4.52,0,0,0-.16-1.21,3.82,3.82,0,0,0-.47-1.09,2.72,2.72,0,0,0-.74-.77,1.76,1.76,0,0,0-1-.3,2.06,2.06,0,0,0-1,.23,2.18,2.18,0,0,0-.76.8,6.64,6.64,0,0,0-.6,1.44,21.87,21.87,0,0,0-.49,2.19c.68.34,1.22.59,1.66.78s.77.33,1,.42a3.23,3.23,0,0,0,.53.17l.2,0a1.51,1.51,0,0,0,.84-.23,1.76,1.76,0,0,0,.56-.59,2.82,2.82,0,0,0,.3-.86A5.69,5.69,0,0,0,298.47,11.65Zm62.77,4.28V14.64a3.52,3.52,0,0,0,2.44.81,3.74,3.74,0,0,0,1.49-.3,2.43,2.43,0,0,0,1.12-1,2.92,2.92,0,0,0,1.21,1,4.26,4.26,0,0,0,1.72.32,3.52,3.52,0,0,0,1.48-.33,3.09,3.09,0,0,0,1.14-1,2.77,2.77,0,0,0,1.21,1,4.84,4.84,0,0,0,1.72.32h5.56a5.7,5.7,0,0,0,1.55-.19,3.74,3.74,0,0,0,1-.44,2.24,2.24,0,0,0,.64-.56,2.8,2.8,0,0,0,.33-.54,2.44,2.44,0,0,0,.2-1v0a3.58,3.58,0,0,0-.23-1.2A7.38,7.38,0,0,0,382.21,9c-.91-1-1.72-1.77-2.42-2.42S378.52,5.39,378.1,5l8-3.52L385.63.43l-8.88,3.92-.12,1a3.59,3.59,0,0,1,.36.28c.24.19.57.47,1,.85s.92.83,1.5,1.38,1.2,1.19,1.88,1.92a6.65,6.65,0,0,1,1.27,1.74,3.17,3.17,0,0,1,.31,1.17,1.47,1.47,0,0,1-.11.56,1.41,1.41,0,0,1-.75.71,4.08,4.08,0,0,1-1.74.31h-5.56a2.53,2.53,0,0,1-1.74-.55,2,2,0,0,1-.6-1.58V9h-1.18v3.14a2.45,2.45,0,0,1-.18,1,2.08,2.08,0,0,1-.48.66,2.12,2.12,0,0,1-.66.36,2.5,2.5,0,0,1-.71.11,2.57,2.57,0,0,1-1.74-.55,2,2,0,0,1-.6-1.58V9h-1.17v3.14a2.29,2.29,0,0,1-.19,1,1.82,1.82,0,0,1-.48.66,2.08,2.08,0,0,1-.65.36,2.56,2.56,0,0,1-.71.11,3,3,0,0,1-1-.14,1.61,1.61,0,0,1-.69-.42,3.65,3.65,0,0,1-.74-2.61V9h-1.17v6.93a3.8,3.8,0,0,1-.73,2.56,4.06,4.06,0,0,1-3.21,1.06h-2.29a4,4,0,0,1-1.92-.46,3.71,3.71,0,0,1-1.4-1.3,4.1,4.1,0,0,1-.57-1.4,6.36,6.36,0,0,1-.14-1.34c0-.21,0-.42,0-.64a11,11,0,0,1,.41-2.12,15.09,15.09,0,0,1,.91-2.31l-1.06-.51a13.66,13.66,0,0,0-1.45,5.18V15a8.16,8.16,0,0,0,.19,1.75,5,5,0,0,0,.29.9,4.64,4.64,0,0,0,.41.8,4.74,4.74,0,0,0,1.82,1.71,5.21,5.21,0,0,0,2.49.6h2.29a7,7,0,0,0,2.48-.38,3.77,3.77,0,0,0,1.62-1.08A4.91,4.91,0,0,0,361.24,15.93ZM377.55,46.6a2.74,2.74,0,0,1-.54.67,2.46,2.46,0,0,1-.72.46,2.54,2.54,0,0,1-.94.16,3.21,3.21,0,0,1-.93-.12,6.75,6.75,0,0,1-1-.32c-.34-.14-.69-.31-1.07-.5l-1.24-.63a2.31,2.31,0,0,1-2,1.13h-1a3.8,3.8,0,0,1-1.12-.17,3.27,3.27,0,0,1-1-.46v.31a5.74,5.74,0,0,1-1.37,4.18,5.38,5.38,0,0,1-4,1.41h-1.33V51.56h1.33a4.16,4.16,0,0,0,3.28-1.17,4.83,4.83,0,0,0,1-3.26V41h1.17v3.42a1.93,1.93,0,0,0,.19.87,1.84,1.84,0,0,0,.5.57,1.74,1.74,0,0,0,.66.31,2.67,2.67,0,0,0,.73.1h1a1.16,1.16,0,0,0,.63-.16,1.3,1.3,0,0,0,.47-.51,3.67,3.67,0,0,0,.4-.89l.32-1.09c.13-.47.27-.94.42-1.4a5.13,5.13,0,0,1,.62-1.29,3.16,3.16,0,0,1,2.76-1.44,2.78,2.78,0,0,1,1.37.36,3.73,3.73,0,0,1,1.15,1.07,4.59,4.59,0,0,1,.69,1.36,5,5,0,0,1,.25,1.53,8.24,8.24,0,0,1-.07,1,5,5,0,0,1-.21,1A4.26,4.26,0,0,1,377.55,46.6ZM377,43.81a3.85,3.85,0,0,0-.7-2.21l-.25-.29a2.15,2.15,0,0,0-.35-.31,2.63,2.63,0,0,0-.44-.24,1.4,1.4,0,0,0-.54-.1,2.16,2.16,0,0,0-1,.22,2,2,0,0,0-.71.65,4,4,0,0,0-.5,1c-.14.41-.28.86-.42,1.37-.07.24-.13.47-.19.69l-.21.65c.41.2.78.4,1.13.58s.68.34,1,.48a7.31,7.31,0,0,0,.84.31,2.41,2.41,0,0,0,.64.09h.1a1.33,1.33,0,0,0,.6-.15,1.39,1.39,0,0,0,.53-.5,2.9,2.9,0,0,0,.38-.9A5.32,5.32,0,0,0,377,43.81Zm6.1,3.32a4.88,4.88,0,0,1-.95,3.26,4.2,4.2,0,0,1-3.29,1.17h-1.32v1.16h1.32a5.38,5.38,0,0,0,4-1.41,5.74,5.74,0,0,0,1.37-4.18V41h-1.17Zm6.18-32a4.83,4.83,0,0,1-1,3.26,4.18,4.18,0,0,1-3.28,1.17h-1.33v1.16h1.33a5.38,5.38,0,0,0,4-1.41,5.78,5.78,0,0,0,1.37-4.18V9h-1.17Zm16.46-3.94a4.85,4.85,0,0,1-.38,2.07,3.14,3.14,0,0,1-1.07,1.31,4.37,4.37,0,0,1-1.66.68,11.06,11.06,0,0,1-2.17.2h-3.69a4.83,4.83,0,0,1-1.63-.26,2.21,2.21,0,0,1-1-.79,2.85,2.85,0,0,1-.48-1.3,11.54,11.54,0,0,1-.12-1.77V1.82h1.2v9.5a14.49,14.49,0,0,0,.06,1.46,1.84,1.84,0,0,0,.28.9,1.19,1.19,0,0,0,.68.46,4.61,4.61,0,0,0,1.24.13h3.5c.56,0,1.07-.07,1.54-.12a4,4,0,0,0,1.22-.3,2,2,0,0,0,.85-.68,2.66,2.66,0,0,0,.45-1.26c-.27.05-.58.09-.95.13a10.55,10.55,0,0,1-1.13.06,6.34,6.34,0,0,1-1.63-.19,3.37,3.37,0,0,1-1.26-.61,2.69,2.69,0,0,1-.81-1,3.46,3.46,0,0,1-.29-1.5,4,4,0,0,1,.25-1.43,3.78,3.78,0,0,1,.71-1.2,3.43,3.43,0,0,1,1.11-.8,3.32,3.32,0,0,1,1.35-.27H402a3.53,3.53,0,0,1,1.4.28,3,3,0,0,1,1,.72,3.58,3.58,0,0,1,.68,1.05,6.62,6.62,0,0,1,.42,1.28,10.49,10.49,0,0,1,.2,1.4C405.73,10.27,405.75,10.74,405.75,11.19Zm-1.17-.47c0-.28,0-.58-.05-.91s-.07-.66-.13-1a6,6,0,0,0-.28-1,2.85,2.85,0,0,0-.46-.82,2,2,0,0,0-.7-.58,2.19,2.19,0,0,0-1-.21,2.38,2.38,0,0,0-1,.21,2.26,2.26,0,0,0-1.16,1.39,3.21,3.21,0,0,0-.14.92,2.24,2.24,0,0,0,.22,1.07,1.66,1.66,0,0,0,.6.66,2.62,2.62,0,0,0,.89.34,5.66,5.66,0,0,0,1.11.1l.6,0,.57-.05.53-.07ZM354.39,47.13a4.83,4.83,0,0,1-1,3.26,4.16,4.16,0,0,1-3.28,1.17h-1.33v1.16h1.33a5.38,5.38,0,0,0,4-1.41,5.74,5.74,0,0,0,1.37-4.18V41h-1.17Zm5.42-13.3h-1.19V47.45h1.19ZM286,47.13a4.83,4.83,0,0,1-1,3.26,4.18,4.18,0,0,1-3.28,1.17h-1.33v1.16h1.33a5.38,5.38,0,0,0,4-1.41,5.74,5.74,0,0,0,1.37-4.18V41H286Zm78.18-10,1.24,1.26,1.24-1.24-1.25-1.27Zm-19.41-.27L346,38.12l1.24-1.24L346,35.62ZM72.86,19.31a5.78,5.78,0,0,0,1.37-4.18v-.32a3.13,3.13,0,0,0,1,.47,3.8,3.8,0,0,0,1.12.17h2.64a2.72,2.72,0,0,0,1.28-.31,3,3,0,0,0,1-.83,3.6,3.6,0,0,0,.6-1.15A4.32,4.32,0,0,0,82,11.88v-.06a9.65,9.65,0,0,0-.08-1c0-.37-.1-.72-.16-1.08s-.13-.69-.2-1-.15-.64-.21-.91l-1.14.35c.07.26.13.54.2.85s.14.61.2.94.11.65.15,1,.06.65.07,1v.06a3.66,3.66,0,0,1-.1.81,3,3,0,0,1-.36.76,1.82,1.82,0,0,1-.59.55,1.75,1.75,0,0,1-.8.24H76.3a3,3,0,0,1-.72-.09,2,2,0,0,1-.67-.32,1.69,1.69,0,0,1-.49-.57,1.8,1.8,0,0,1-.19-.87V9H73.05v6.13a4.88,4.88,0,0,1-1,3.26,4.2,4.2,0,0,1-3.29,1.17H67.49v1.16h1.32A5.42,5.42,0,0,0,72.86,19.31Zm22.53,23a5,5,0,0,1,.25,1.53,8.24,8.24,0,0,1-.07,1,6,6,0,0,1-.21,1,4.26,4.26,0,0,1-.36.85,2.74,2.74,0,0,1-.54.67,2.46,2.46,0,0,1-.72.46,2.54,2.54,0,0,1-.94.16,3.21,3.21,0,0,1-.93-.12,7.31,7.31,0,0,1-1-.32c-.33-.14-.69-.31-1.06-.5l-1.24-.63a2.31,2.31,0,0,1-2,1.13h-.85v0a3.05,3.05,0,0,1-1.37-.34,2.81,2.81,0,0,1-1.1-1,2.69,2.69,0,0,1-.63.63,3.33,3.33,0,0,1-.82.42,5.49,5.49,0,0,1-1,.23,7.93,7.93,0,0,1-.87.06v0h-.36a5.37,5.37,0,0,1-1.24-.18,4.49,4.49,0,0,1-1.23-.53,4.38,4.38,0,0,1-1.14-1,4,4,0,0,1-.37-.6,7.13,7.13,0,0,1-.29-.69,4.52,4.52,0,0,1-.73,1.09,2.71,2.71,0,0,1-1.1.74,4,4,0,0,1-1.53.31l-.51,0a2.76,2.76,0,0,1-1.12-.34,3.46,3.46,0,0,1-1.16-.93,3,3,0,0,1-.62-1.41,3.34,3.34,0,0,1-.06-.62,3.94,3.94,0,0,1,.29-1.4,4.26,4.26,0,0,1,1-1.45,6.71,6.71,0,0,1,1.7-1.21,11.25,11.25,0,0,1,2.3-.87L73.47,37l1.16-.32c.19.79.35,1.48.49,2.07s.26,1.12.36,1.58.15.64.21.92.13.58.2.85.13.56.21.83.14.56.22.87a3.85,3.85,0,0,0,.41,1,3.08,3.08,0,0,0,.55.67,2.66,2.66,0,0,0,.65.44,3,3,0,0,0,.66.26,5.43,5.43,0,0,0,.62.11l.42,0a6,6,0,0,0,1.58-.19,2.43,2.43,0,0,0,1-.52,1.62,1.62,0,0,0,.42-.74,3.84,3.84,0,0,0,.09-.83V33.83h1.17V44.1A2.46,2.46,0,0,0,84,45a2,2,0,0,0,.4.69,1.84,1.84,0,0,0,.63.44,1.92,1.92,0,0,0,.81.16h.73a1.16,1.16,0,0,0,.63-.16,1.3,1.3,0,0,0,.47-.51,3.67,3.67,0,0,0,.4-.89l.32-1.09c.13-.47.26-.94.42-1.4a4.81,4.81,0,0,1,.62-1.29,3.16,3.16,0,0,1,2.76-1.44,2.78,2.78,0,0,1,1.37.36,3.73,3.73,0,0,1,1.15,1.07A4.59,4.59,0,0,1,95.39,42.28ZM74.61,42.2a3.48,3.48,0,0,0,0-.53l0-.22-.18-.77c0-.21-.09-.39-.12-.55l-.1-.4c0-.11,0-.22-.08-.33a10.16,10.16,0,0,0-2,.75,6,6,0,0,0-1.45,1,3.32,3.32,0,0,0-.82,1.18,2.26,2.26,0,0,0-.17.88,2,2,0,0,0,0,.42,1.86,1.86,0,0,0,.46.93,2.53,2.53,0,0,0,.85.6,2.59,2.59,0,0,0,1,.21h0a2,2,0,0,0,.9-.19,2.81,2.81,0,0,0,.87-.64,2.77,2.77,0,0,0,.52-.79,3.07,3.07,0,0,0,.24-.82A4.76,4.76,0,0,0,74.61,42.2Zm19.85,1.61a3.85,3.85,0,0,0-.7-2.21l-.25-.29a2.67,2.67,0,0,0-.35-.31,2.38,2.38,0,0,0-.45-.24,1.32,1.32,0,0,0-.53-.1,2.16,2.16,0,0,0-1,.22,2,2,0,0,0-.71.65,4,4,0,0,0-.5,1c-.14.41-.28.86-.42,1.37-.07.24-.13.47-.2.69s-.13.44-.2.65l1.13.58c.35.19.68.34,1,.48a8.19,8.19,0,0,0,.85.31,2.41,2.41,0,0,0,.64.09h.1a1.33,1.33,0,0,0,.6-.15,1.47,1.47,0,0,0,.53-.5,2.9,2.9,0,0,0,.38-.9A5.32,5.32,0,0,0,94.46,43.81ZM280.1,12.51c0,.11,0,.23,0,.35a3.13,3.13,0,0,1-.41,1.56,2.59,2.59,0,0,1-.56.72,4.08,4.08,0,0,1-.76.52,4.21,4.21,0,0,1-1.89.42,5.36,5.36,0,0,1-1-.09,7.9,7.9,0,0,1-.95-.27,9.2,9.2,0,0,1-.93-.39l-.91-.44a12.29,12.29,0,0,1-2,.42,20.77,20.77,0,0,1-2.48.14h-1.58a5,5,0,0,1-1.62-.26,2.21,2.21,0,0,1-1-.79,2.85,2.85,0,0,1-.48-1.3,11.54,11.54,0,0,1-.12-1.77V1.82h1.2v9.5c0,.59,0,1.08.05,1.46a2,2,0,0,0,.29.9,1.16,1.16,0,0,0,.68.46,4.61,4.61,0,0,0,1.24.13h1.38a17.56,17.56,0,0,0,3-.23,2.9,2.9,0,0,1-.29-.19l-.25-.2a4.11,4.11,0,0,1-1.12-1.29,3.52,3.52,0,0,1-.38-1.65,3.68,3.68,0,0,1,.27-1.43,3.18,3.18,0,0,1,.76-1.11,3.58,3.58,0,0,1,1.16-.71,4,4,0,0,1,1.45-.25,3,3,0,0,1,1.34.3,3.59,3.59,0,0,1,1.07.82,3.7,3.7,0,0,1,.72,1.17,3.54,3.54,0,0,1,.26,1.36,3.7,3.7,0,0,1-.52,2,4.25,4.25,0,0,1-1.51,1.43,5.6,5.6,0,0,0,1.12.46,4.26,4.26,0,0,0,1.23.18,3,3,0,0,0,.76-.09,2.66,2.66,0,0,0,.62-.22,2.24,2.24,0,0,0,.48-.33,2,2,0,0,0,.3-.39,2.82,2.82,0,0,0,.24-.62,2.53,2.53,0,0,0,0-.38c0-.08,0-.19,0-.33a2.61,2.61,0,0,0-.16-.56,5.12,5.12,0,0,0-.4-.76,16,16,0,0,0-1.62-2.06c-.71-.78-1.56-1.7-2.55-2.74l.85-.82,1.42,1.51c.44.47.84.9,1.2,1.32s.69.79,1,1.15a9.46,9.46,0,0,1,.73,1,6.33,6.33,0,0,1,.5,1A3.57,3.57,0,0,1,280.1,12.51Zm-6.46.7a3.42,3.42,0,0,0,.71-.6,2.83,2.83,0,0,0,.48-.78,2.54,2.54,0,0,0,.18-1,2.44,2.44,0,0,0-.2-1,2.63,2.63,0,0,0-.51-.78,2.18,2.18,0,0,0-.71-.5,1.9,1.9,0,0,0-.8-.18,2.81,2.81,0,0,0-1.15.21,2.16,2.16,0,0,0-.77.53,2.13,2.13,0,0,0-.42.75,2.72,2.72,0,0,0-.13.84,2.32,2.32,0,0,0,.26,1.1,3,3,0,0,0,.79.93,6.91,6.91,0,0,0,.66.45l.76.43A4.44,4.44,0,0,0,273.64,13.21ZM123.69,42.28a4.72,4.72,0,0,1,.25,1.53,6.59,6.59,0,0,1-.07,1,7.28,7.28,0,0,1-.21,1,4.26,4.26,0,0,1-.36.85,2.74,2.74,0,0,1-.54.67,2.46,2.46,0,0,1-.72.46,2.54,2.54,0,0,1-.94.16,3.32,3.32,0,0,1-.94-.12,7.08,7.08,0,0,1-1-.32c-.34-.14-.69-.31-1.07-.5l-1.24-.63a2.31,2.31,0,0,1-2,1.13h-4l-.24,0a2,2,0,0,1-.35-.13,4.37,4.37,0,0,1-.49-.27c-.2-.12-.43-.27-.7-.46l-.27-.21-.3-.22a10.15,10.15,0,0,1-2.64,1,14.49,14.49,0,0,1-3.22.33h-.58a5,5,0,0,1-1.61-.26,2.16,2.16,0,0,1-1-.79,2.85,2.85,0,0,1-.48-1.3,11.54,11.54,0,0,1-.12-1.77V33.83H100v9.49c0,.59,0,1.08,0,1.46a1.91,1.91,0,0,0,.29.9,1.16,1.16,0,0,0,.68.46,4.56,4.56,0,0,0,1.24.13h.37a13.38,13.38,0,0,0,2.77-.26,10.35,10.35,0,0,0,2.08-.69l-.29-.24-.29-.25c-.37-.31-.72-.61-1-.91l-.9-.79-.62-.57-.24-.22-.19-.18V41.9a2.57,2.57,0,0,1,.7-1.95,3,3,0,0,1,2.13-.68H110a3.22,3.22,0,0,1,.76.09,2.94,2.94,0,0,1,.69.28,2.37,2.37,0,0,1,1,1,1.93,1.93,0,0,1,.2.85,3,3,0,0,1-.07.53A2.23,2.23,0,0,1,112,43c-.35.43-.72.86-1.11,1.28a9.7,9.7,0,0,1-1.34,1.2l.1.08a6.28,6.28,0,0,0,.55.38l.37.23.22.1.09,0h4a1.14,1.14,0,0,0,.63-.16,1.32,1.32,0,0,0,.48-.51,4.1,4.1,0,0,0,.39-.89c.11-.35.21-.71.32-1.09s.27-.94.42-1.4a4.53,4.53,0,0,1,.62-1.29,3.16,3.16,0,0,1,2.76-1.44,2.75,2.75,0,0,1,1.37.36A3.73,3.73,0,0,1,123,40.92,4.59,4.59,0,0,1,123.69,42.28ZM110,43.48c.39-.43.76-.85,1.1-1.26.05-.07.1-.14.14-.21a1.15,1.15,0,0,0,.12-.25,1.33,1.33,0,0,0,0-.28.78.78,0,0,0-.07-.3,1.18,1.18,0,0,0-.54-.54,1.73,1.73,0,0,0-.83-.2h-3.21a3.28,3.28,0,0,0-.78.08,1.3,1.3,0,0,0-.5.24.94.94,0,0,0-.27.38,2.43,2.43,0,0,0-.1.51l.41.38.58.52c.21.2.45.4.7.62l.79.68.52.44.49.41A8.17,8.17,0,0,0,110,43.48Zm12.76.33a3.66,3.66,0,0,0-.19-1.16,3.44,3.44,0,0,0-.52-1c-.06-.08-.14-.18-.24-.29a2.15,2.15,0,0,0-.35-.31,2.38,2.38,0,0,0-.45-.24,1.32,1.32,0,0,0-.53-.1,2.19,2.19,0,0,0-1,.22,2,2,0,0,0-.71.65,4.41,4.41,0,0,0-.5,1c-.14.41-.28.86-.42,1.37-.07.24-.13.47-.19.69l-.21.65,1.13.58c.35.19.68.34,1,.48a7.31,7.31,0,0,0,.84.31,2.41,2.41,0,0,0,.64.09h.1a1.33,1.33,0,0,0,.6-.15,1.39,1.39,0,0,0,.53-.5,2.68,2.68,0,0,0,.38-.9A5.32,5.32,0,0,0,122.76,43.81ZM60.53,32.43l-8.88,3.91-.13,1,.37.28c.23.19.56.47,1,.85s.92.83,1.5,1.38,1.2,1.19,1.88,1.92a6.34,6.34,0,0,1,1.26,1.74,3.13,3.13,0,0,1,.31,1.17,1.3,1.3,0,0,1-.11.56A1.41,1.41,0,0,1,57,46a4.15,4.15,0,0,1-1.73.31H49.49a2.67,2.67,0,0,1-.73-.1,1.77,1.77,0,0,1-1.15-.88,1.93,1.93,0,0,1-.19-.87V41H46.25v3.43a2.4,2.4,0,0,1-.19.89,1.43,1.43,0,0,1-.47.56,1.93,1.93,0,0,1-.75.29,5.66,5.66,0,0,1-1,.11h-3a2.57,2.57,0,0,1-.73-.1,1.79,1.79,0,0,1-.67-.31,1.66,1.66,0,0,1-.48-.57,1.8,1.8,0,0,1-.2-.87V41H37.57v3.43a2.22,2.22,0,0,1-.19.89,1.43,1.43,0,0,1-.47.56,1.82,1.82,0,0,1-.74.29,5.77,5.77,0,0,1-1,.11h-3A1.33,1.33,0,0,1,31.5,46a3.66,3.66,0,0,1-.7-.63,9.87,9.87,0,0,1-.7-.89c-.23-.33-.47-.68-.7-1.05l-3.87-5.85-1,.63,3.59,5.44a2.48,2.48,0,0,1,.35.73,2.78,2.78,0,0,1,.07.45,1.12,1.12,0,0,1-.09.44,1.36,1.36,0,0,1-.61.65,3.2,3.2,0,0,1-1.08.37,5.89,5.89,0,0,1-1.05.08h-.11a10.36,10.36,0,0,1-1.25-.08,9.41,9.41,0,0,1-1.16-.27,4.26,4.26,0,0,1-1-.41l-.5-.31-.6,1c.41.23.8.43,1.16.59a8.75,8.75,0,0,0,1.08.38,5.56,5.56,0,0,0,1.08.2,9,9,0,0,0,1.19.07,7.94,7.94,0,0,0,1.18-.1A4.93,4.93,0,0,0,28,47.17a3.62,3.62,0,0,0,.93-.57,2.17,2.17,0,0,0,.63-.84v0s0,0,0,0a5,5,0,0,0,.56.68,4.43,4.43,0,0,0,.68.55,3.35,3.35,0,0,0,.73.37,2,2,0,0,0,.52.12v0h3.16A5.14,5.14,0,0,0,37,47.16a2.71,2.71,0,0,0,1.22-.89,2.53,2.53,0,0,0,.43.44,2.93,2.93,0,0,0,1,.54,3.81,3.81,0,0,0,1.22.2h3a5.24,5.24,0,0,0,1.79-.29,2.77,2.77,0,0,0,1.22-.89,2.53,2.53,0,0,0,.43.44,2.84,2.84,0,0,0,1,.54,3.74,3.74,0,0,0,1.21.2h5.74a5.57,5.57,0,0,0,1.54-.19,3.81,3.81,0,0,0,1-.44,2.24,2.24,0,0,0,.64-.56,2.8,2.8,0,0,0,.33-.54,2.61,2.61,0,0,0,.2-1v-.05a4,4,0,0,0-.24-1.21A7.4,7.4,0,0,0,57.11,41c-.91-1-1.72-1.77-2.42-2.43S53.41,37.39,53,37l8-3.52ZM133.1,15.36a9,9,0,0,1-.95.07v0h-.43a3.81,3.81,0,0,1-1.13-.17,3.3,3.3,0,0,1-1-.47v.32a5.74,5.74,0,0,1-1.37,4.18,5.38,5.38,0,0,1-4,1.41h-1.33V19.56h1.33a4.16,4.16,0,0,0,3.28-1.17,4.83,4.83,0,0,0,1-3.26V9h1.17v3.42a1.8,1.8,0,0,0,.2.87,1.69,1.69,0,0,0,.49.57,2,2,0,0,0,.66.32,3.12,3.12,0,0,0,.74.09h.15a5.76,5.76,0,0,0,1.67-.19,2.32,2.32,0,0,0,.94-.52,1.5,1.5,0,0,0,.42-.74A3.31,3.31,0,0,0,135,12V1.82h1.17V12.09a2.48,2.48,0,0,0,.15.89,2,2,0,0,0,.4.69,2,2,0,0,0,.63.45,2.09,2.09,0,0,0,.81.15h3.58q.84,0,1.53-.12a3.9,3.9,0,0,0,1.22-.3,2.12,2.12,0,0,0,.86-.68,2.77,2.77,0,0,0,.45-1.26c-.27.05-.59.09-1,.13a10.42,10.42,0,0,1-1.13.06,6.34,6.34,0,0,1-1.63-.19,3.37,3.37,0,0,1-1.26-.61,2.69,2.69,0,0,1-.81-1,3.62,3.62,0,0,1-.29-1.5A4,4,0,0,1,140,7.33a3.6,3.6,0,0,1,.71-1.2,3.24,3.24,0,0,1,2.45-1.07h.1a3.48,3.48,0,0,1,1.39.28,3,3,0,0,1,1,.72,3.82,3.82,0,0,1,.69,1.05,6,6,0,0,1,.41,1.28,10.48,10.48,0,0,1,.21,1.4c0,.48.06,1,.06,1.4a5,5,0,0,1-.38,2.07,3.22,3.22,0,0,1-1.07,1.31,4.43,4.43,0,0,1-1.66.68,11.13,11.13,0,0,1-2.17.2H138v0a3.05,3.05,0,0,1-1.37-.34,2.9,2.9,0,0,1-1.11-1,2.48,2.48,0,0,1-.62.63,3.33,3.33,0,0,1-.82.42A5.49,5.49,0,0,1,133.1,15.36Zm12.74-4.64c0-.28,0-.58,0-.91s-.08-.66-.14-1a5.14,5.14,0,0,0-.27-1,3.11,3.11,0,0,0-.46-.82,2.05,2.05,0,0,0-.7-.58,2.19,2.19,0,0,0-1-.21,2.46,2.46,0,0,0-1.05.21,2.21,2.21,0,0,0-.73.58,2.23,2.23,0,0,0-.42.81,2.89,2.89,0,0,0-.14.92,2.37,2.37,0,0,0,.21,1.07,1.74,1.74,0,0,0,.6.66,2.6,2.6,0,0,0,.9.34,5.49,5.49,0,0,0,1.1.1l.6,0,.58-.05.52-.07ZM64.08,5.13l1.2,1.18,1.18-1.18-1.19-1.2Zm-1,10a4.83,4.83,0,0,1-1,3.26,4.16,4.16,0,0,1-3.28,1.17H57.46v1.16h1.33a5.38,5.38,0,0,0,4-1.41,5.74,5.74,0,0,0,1.37-4.18V9H63Zm35.9-1a1.08,1.08,0,0,0-.09-.44,1.21,1.21,0,0,0-.24-.35.88.88,0,0,0-.36-.24,1,1,0,0,0-.43-.09l-.27,0a1.25,1.25,0,0,0-.26.07,1.06,1.06,0,0,0-.27.18,1.17,1.17,0,0,0-.25.31v-.06a3.19,3.19,0,0,1,.14-.94,3.48,3.48,0,0,1,.42-.84,4.1,4.1,0,0,1,.58-.67,3.75,3.75,0,0,1,.68-.49L98,9.8a5.19,5.19,0,0,0-.86.66,5.71,5.71,0,0,0-.72.84,4.21,4.21,0,0,0-.49,1,2.84,2.84,0,0,0-.19,1,2.63,2.63,0,0,0,.13.86,1.67,1.67,0,0,0,.38.68,1.69,1.69,0,0,0,.6.45,1.92,1.92,0,0,0,.81.17,1.08,1.08,0,0,0,.5-.12,1.18,1.18,0,0,0,.4-.29,1.17,1.17,0,0,0,.27-.42A1.19,1.19,0,0,0,98.93,14.14Zm149,37,1.18,1.19,1.19-1.18L249.1,50Zm3.9,0L253,52.35l1.18-1.18L253,50Zm20.66-7.87a6.62,6.62,0,0,1,.06.84,4.06,4.06,0,0,1-.09.89,3.38,3.38,0,0,1-.24.7,3.71,3.71,0,0,1-.32.53,4.74,4.74,0,0,1-.35.39,3.12,3.12,0,0,1-1,.58,3.29,3.29,0,0,1-1.13.22h0a3.59,3.59,0,0,1-2.66-1,1.07,1.07,0,0,1-.14-.16l-.13-.18-.22.27a2.19,2.19,0,0,1-.23.21,3.06,3.06,0,0,1-1,.6,3.44,3.44,0,0,1-1.2.21,3.61,3.61,0,0,1-2.67-1,1.07,1.07,0,0,1-.14-.16l-.14-.18a2,2,0,0,1-.22.27,2.13,2.13,0,0,1-.22.21,3.13,3.13,0,0,1-1,.6,3.37,3.37,0,0,1-1.18.21h-2.87a3.74,3.74,0,0,1-1.21-.2,2.93,2.93,0,0,1-1-.54,2.53,2.53,0,0,1-.43-.44,2.77,2.77,0,0,1-1.22.89,5.2,5.2,0,0,1-1.79.29H246.5a4.94,4.94,0,0,1-.87-.08,3.36,3.36,0,0,1-.8-.22,2.71,2.71,0,0,1-.68-.4,2.41,2.41,0,0,1-.51-.59,1.94,1.94,0,0,1-.21.27l-.22.21a3.32,3.32,0,0,1-1,.6,3.09,3.09,0,0,1-1.15.21,3.94,3.94,0,0,1-.89-.09,2.9,2.9,0,0,1-.72-.23,2.6,2.6,0,0,1-.59-.41,3,3,0,0,1-.51-.56,3.18,3.18,0,0,1-1.12,1,3.14,3.14,0,0,1-1.46.34,4.07,4.07,0,0,1-1.45-.24,3.2,3.2,0,0,1-1.05-.71,1.07,1.07,0,0,1-.14-.16l-.14-.18a2,2,0,0,1-.22.27l-.22.21a3.07,3.07,0,0,1-1,.6,3.28,3.28,0,0,1-1.17.21h-2a3.7,3.7,0,0,1-1.21-.2,2.84,2.84,0,0,1-1-.54,2.22,2.22,0,0,1-.43-.44,2.82,2.82,0,0,1-1.22.89,5.2,5.2,0,0,1-1.79.29h-3.15v0a3.69,3.69,0,0,1-1.06-.16,2.7,2.7,0,0,1-.93-.54,2.82,2.82,0,0,1-.33-.36,2.64,2.64,0,0,1-.4.62,2.75,2.75,0,0,1-.55.48,2.57,2.57,0,0,1-.65.31,2.15,2.15,0,0,1-.71.11,3.83,3.83,0,0,1-.94-.11,7.31,7.31,0,0,1-1-.32c-.34-.14-.69-.3-1.07-.5l-1.22-.64a2.35,2.35,0,0,1-2,1.13H205.3a2.31,2.31,0,0,1,.58.84,3,3,0,0,1,.19,1.07,2.62,2.62,0,0,1-.9,2,3.78,3.78,0,0,1-1,.62,6.37,6.37,0,0,1-1.21.41,8.27,8.27,0,0,1-1.35.23,13.13,13.13,0,0,1-1.4.07h-2.37a5.29,5.29,0,0,1-2.51-.6,4.79,4.79,0,0,1-1.82-1.7,5.81,5.81,0,0,1-.83-2.21,7.37,7.37,0,0,1-.1-1.23,9.64,9.64,0,0,1,.11-1.36,10,10,0,0,1,.51-2,23.26,23.26,0,0,1,.88-2.19l1,.51a15.19,15.19,0,0,0-.92,2.31,10.21,10.21,0,0,0-.4,2.12c0,.21,0,.41,0,.62a6.65,6.65,0,0,0,.15,1.36,4.35,4.35,0,0,0,.57,1.39,3.66,3.66,0,0,0,1.4,1.31,4,4,0,0,0,1.94.46h2.37c.31,0,.63,0,1,0a7.42,7.42,0,0,0,1-.14,6.37,6.37,0,0,0,1-.26,3.72,3.72,0,0,0,.85-.4,2,2,0,0,0,.59-.57,1.32,1.32,0,0,0,.22-.77,1.79,1.79,0,0,0-.07-.53,1,1,0,0,0-.25-.45,1.62,1.62,0,0,0-.5-.34,4.76,4.76,0,0,0-.83-.27c-.34-.07-.75-.14-1.23-.2s-1-.09-1.69-.12l0-1.18h8.35a1.14,1.14,0,0,0,.63-.16,1.42,1.42,0,0,0,.49-.51,3.67,3.67,0,0,0,.38-.89c.11-.35.21-.71.32-1.09s.13-.47.2-.71.14-.47.22-.69.17-.46.27-.68a4.59,4.59,0,0,1,.35-.61,3.15,3.15,0,0,1,2.77-1.44,2.81,2.81,0,0,1,1.37.36,3.6,3.6,0,0,1,1.14,1.07,4.39,4.39,0,0,1,.7,1.36,5,5,0,0,1,.23,1.53,2.74,2.74,0,0,0,.62,2.06,1.28,1.28,0,0,0,.55.3,2.7,2.7,0,0,0,.82.1h3a5.77,5.77,0,0,0,1-.11,1.87,1.87,0,0,0,.75-.29,1.43,1.43,0,0,0,.47-.56,2.23,2.23,0,0,0,.18-.89V41h1.18v3.43a1.68,1.68,0,0,0,.68,1.44,1.74,1.74,0,0,0,.66.31,2.62,2.62,0,0,0,.73.1h2.12a2.5,2.5,0,0,0,.71-.11,1.85,1.85,0,0,0,1.14-1,2.45,2.45,0,0,0,.18-1V41h1.18v3.14a2.28,2.28,0,0,0,.49,1.59,2.16,2.16,0,0,0,1.63.54,2.49,2.49,0,0,0,.7-.11,1.83,1.83,0,0,0,.62-.36,1.76,1.76,0,0,0,.45-.66,2.46,2.46,0,0,0,.17-1V41H239v3.14a2.28,2.28,0,0,0,.49,1.59,2.2,2.2,0,0,0,1.64.54,2.43,2.43,0,0,0,.7-.11,1.92,1.92,0,0,0,.64-.36,2,2,0,0,0,.46-.66,2.64,2.64,0,0,0,.17-1V41h1.18v3.14c0,1.4.76,2.11,2.27,2.13h3.27a5.89,5.89,0,0,0,1-.11,1.82,1.82,0,0,0,.74-.29,1.43,1.43,0,0,0,.47-.56,2.22,2.22,0,0,0,.19-.89V41h1.17v3.43a1.73,1.73,0,0,0,1.34,1.75,2.67,2.67,0,0,0,.73.1h3a2.5,2.5,0,0,0,.71-.11,2.12,2.12,0,0,0,.66-.36,2.08,2.08,0,0,0,.48-.66,2.45,2.45,0,0,0,.18-1V41h1.18v3.14c0,1.4.76,2.11,2.29,2.13a2.5,2.5,0,0,0,.71-.11,1.85,1.85,0,0,0,1.14-1,2.45,2.45,0,0,0,.18-1V41h1.18v3.14c0,1.4.76,2.11,2.29,2.13h0a2.37,2.37,0,0,0,.69-.11,1.66,1.66,0,0,0,.63-.36,1.9,1.9,0,0,0,.46-.66,2.44,2.44,0,0,0,.19-1,5.5,5.5,0,0,0-.06-.76q-.06-.43-.15-.87c-.06-.3-.13-.59-.19-.87s-.13-.53-.19-.75l-.15-.53-.06-.22,1.12-.34s0,.1.07.26.1.34.17.58.13.5.2.8.13.61.19.92S272.44,43,272.49,43.29Zm-55.88.52a3.66,3.66,0,0,0-.19-1.16,3.44,3.44,0,0,0-.52-1c-.06-.08-.14-.18-.24-.29a2.15,2.15,0,0,0-.35-.31,2.63,2.63,0,0,0-.44-.24,1.32,1.32,0,0,0-.53-.1,2.21,2.21,0,0,0-1.05.22,2,2,0,0,0-.71.65,4.41,4.41,0,0,0-.5,1c-.14.41-.28.86-.41,1.37-.07.24-.14.47-.2.69s-.13.44-.2.65l1.13.6c.35.18.67.33,1,.47a7.4,7.4,0,0,0,.86.3,2.75,2.75,0,0,0,.67.09H215a1.26,1.26,0,0,0,.59-.15,1.49,1.49,0,0,0,.54-.5,3.16,3.16,0,0,0,.38-.9A5.36,5.36,0,0,0,216.61,43.81Zm5.31-7L223.1,38l1.19-1.19-1.21-1.19-.57.59Zm-70.89,5c0,.48.05,1,.05,1.4a5,5,0,0,1-.37,2.07,3.22,3.22,0,0,1-1.07,1.31,4.42,4.42,0,0,1-1.67.68,11,11,0,0,1-2.16.2H136.2a3.22,3.22,0,0,1-1.16-.21,3,3,0,0,1-1-.6,4.5,4.5,0,0,1-.34-.38,3,3,0,0,1-.31-.53,4.1,4.1,0,0,1-.23-.7,3.91,3.91,0,0,1-.09-.88,5.74,5.74,0,0,1,.05-.68c0-.24.07-.49.12-.73s.1-.49.15-.72.11-.44.16-.62l.12-.45.07-.2,1.11.36,0,.15c0,.11-.08.25-.12.41s-.1.36-.15.57l-.15.65c-.05.22-.08.45-.11.67a4.27,4.27,0,0,0,0,.59,2.37,2.37,0,0,0,.18,1,1.86,1.86,0,0,0,.44.66,1.56,1.56,0,0,0,.62.36,2.31,2.31,0,0,0,.69.11h9.61c.55,0,1.07-.07,1.53-.12a4.19,4.19,0,0,0,1.22-.3,2,2,0,0,0,.85-.68,2.82,2.82,0,0,0,.45-1.26c-.26.05-.59.09-1,.13a8.47,8.47,0,0,1-1.13.06,6.34,6.34,0,0,1-1.63-.19,3.37,3.37,0,0,1-1.26-.61,2.69,2.69,0,0,1-.81-1,3.62,3.62,0,0,1-.29-1.5,4,4,0,0,1,.25-1.43,3.62,3.62,0,0,1,.72-1.2,3.15,3.15,0,0,1,1.1-.8,3.32,3.32,0,0,1,1.35-.27h.09a3.58,3.58,0,0,1,1.41.28,3.2,3.2,0,0,1,1,.72,3.82,3.82,0,0,1,.69,1,7.36,7.36,0,0,1,.41,1.28A10.48,10.48,0,0,1,151,41.79Zm-1.12.93c0-.28,0-.58,0-.91a8.39,8.39,0,0,0-.13-1,6,6,0,0,0-.28-1A2.85,2.85,0,0,0,149,39a2.07,2.07,0,0,0-.7-.58,2,2,0,0,0-1-.22,2.25,2.25,0,0,0-1,.23,2,2,0,0,0-.73.57,2.25,2.25,0,0,0-.43.81,3.2,3.2,0,0,0-.13.92,2.4,2.4,0,0,0,.21,1.07,1.73,1.73,0,0,0,.6.66,2.62,2.62,0,0,0,.89.34,5.59,5.59,0,0,0,1.11.1l.6,0,.57,0,.53-.07Zm33.62.57a6.62,6.62,0,0,1,.06.84,4.82,4.82,0,0,1-.08.89,5.19,5.19,0,0,1-.24.7,3,3,0,0,1-.33.53,3.42,3.42,0,0,1-.35.39,3.19,3.19,0,0,1-1,.58,3.35,3.35,0,0,1-1.14.22h0a3.58,3.58,0,0,1-2.65-1l-.15-.16-.13-.18a2,2,0,0,1-.22.27,2.13,2.13,0,0,1-.22.21,3.06,3.06,0,0,1-1,.6,3.53,3.53,0,0,1-1.2.21,3.64,3.64,0,0,1-2.68-1l-.14-.16-.13-.18a2,2,0,0,1-.22.27l-.22.21a3.17,3.17,0,0,1-1,.6,3.29,3.29,0,0,1-1.18.21h-2.21a14.68,14.68,0,0,1-2.22-.17,11.82,11.82,0,0,1-2-.49,12.08,12.08,0,0,1-2.07.49,16.57,16.57,0,0,1-2.41.17h-1.17a5,5,0,0,1-1.57-.26,2.24,2.24,0,0,1-1-.79,3,3,0,0,1-.47-1.3,11.54,11.54,0,0,1-.12-1.77V33.83h1.19v9.49a14.49,14.49,0,0,0,.06,1.46,1.81,1.81,0,0,0,.29.9,1.16,1.16,0,0,0,.68.46,4.51,4.51,0,0,0,1.24.13h.92a14.75,14.75,0,0,0,2.83-.25,5.28,5.28,0,0,1-.8-.61,4,4,0,0,1-.64-.74,3.61,3.61,0,0,1-.42-.86,3.12,3.12,0,0,1-.16-1,4,4,0,0,1,.28-1.49,3.4,3.4,0,0,1,.77-1.18,3.53,3.53,0,0,1,1.18-.76,3.66,3.66,0,0,1,1.39-.25h.19a3.18,3.18,0,0,1,1.33.29,3.24,3.24,0,0,1,1.1.81,3.73,3.73,0,0,1,.74,1.19,3.49,3.49,0,0,1,.28,1.39,3.28,3.28,0,0,1-.5,1.74A4.65,4.65,0,0,1,164.55,46a12.83,12.83,0,0,0,2.58.25h2.33a2.56,2.56,0,0,0,.71-.11,1.85,1.85,0,0,0,1.14-1,2.45,2.45,0,0,0,.18-1V41h1.18v3.14q0,2.1,2.28,2.13a2.57,2.57,0,0,0,.72-.11,2.08,2.08,0,0,0,.65-.36,1.82,1.82,0,0,0,.48-.66,2.29,2.29,0,0,0,.19-1V41h1.17v3.14c0,1.4.77,2.11,2.29,2.13h0a2.49,2.49,0,0,0,.7-.11,1.66,1.66,0,0,0,.63-.36,1.9,1.9,0,0,0,.46-.66,2.45,2.45,0,0,0,.18-1,5.5,5.5,0,0,0-.06-.76,8.79,8.79,0,0,0-.15-.87c-.06-.3-.12-.59-.19-.87s-.13-.53-.19-.75l-.15-.53-.05-.22,1.12-.34s0,.1.07.26.1.34.16.58.13.5.2.8.14.61.2.92S183.49,43,183.53,43.29ZM164.25,44.8a3.76,3.76,0,0,0,.54-.52,2.29,2.29,0,0,0,.39-.64,2.06,2.06,0,0,0,.16-.79,2.62,2.62,0,0,0-.17-.91,2.38,2.38,0,0,0-.47-.8,2.43,2.43,0,0,0-.73-.58,2.32,2.32,0,0,0-1-.22,2.89,2.89,0,0,0-1,.18,2.15,2.15,0,0,0-1.32,1.29,2.84,2.84,0,0,0-.18,1,2.05,2.05,0,0,0,.17.83,3.07,3.07,0,0,0,.46.67,3.48,3.48,0,0,0,.62.54c.23.15.45.28.68.4l.27.13.29.12.38-.17a2,2,0,0,0,.36-.19A4.48,4.48,0,0,0,164.25,44.8Zm29-24.11a5.34,5.34,0,0,1-2.53-.6,4.92,4.92,0,0,1-1.84-1.73,5.64,5.64,0,0,1-.73-1.8,7.45,7.45,0,0,1-.18-1.65c0-.1,0-.2,0-.3a10.54,10.54,0,0,1,.41-2.46,16.34,16.34,0,0,1,1-2.67l1.06.51a13.62,13.62,0,0,0-.9,2.3,9.83,9.83,0,0,0-.4,2.09c0,.21,0,.41,0,.62a6.64,6.64,0,0,0,.15,1.35,4.22,4.22,0,0,0,.57,1.39,3.77,3.77,0,0,0,1.43,1.32,4,4,0,0,0,1.95.47h2.28a7.14,7.14,0,0,0,1.78-.19,2.92,2.92,0,0,0,1.23-.62,2.66,2.66,0,0,0,.71-1.11,5.39,5.39,0,0,0,.23-1.67V9h1.17v3.4a1.67,1.67,0,0,0,.3,1,1.7,1.7,0,0,0,.72.59c.26-.39.5-.78.74-1.19s.49-.81.74-1.22.52-.8.8-1.2a13.47,13.47,0,0,1,.91-1.15,6.92,6.92,0,0,1,1.77-1.51,3.56,3.56,0,0,1,1.78-.5,2.91,2.91,0,0,1,1,.19,3.46,3.46,0,0,1,.87.52,4.21,4.21,0,0,1,.68.77,4.74,4.74,0,0,1,.49,1,5.08,5.08,0,0,1,.29,1,5.65,5.65,0,0,1,.11,1.08,3.85,3.85,0,0,1-.25,1.45,3.24,3.24,0,0,1-.58,1h2.48q1.75,0,2.82-.09a14.81,14.81,0,0,0,2-.27,11.62,11.62,0,0,0,1.72-.47,12.42,12.42,0,0,0,1.54-.68c.5-.26,1-.55,1.52-.88s1.07-.69,1.66-1.09l-1.36-.52-1.39-.52c-.46-.18-.9-.34-1.34-.49l-1.19-.41-1-.27a2.78,2.78,0,0,0-.64-.1,1.53,1.53,0,0,0-1.09.48,2.77,2.77,0,0,0-.7,1.32L215,10a5,5,0,0,1,.41-1,3.45,3.45,0,0,1,.64-.85,2.81,2.81,0,0,1,.84-.58,2.44,2.44,0,0,1,1-.22,3.72,3.72,0,0,1,.76.11c.3.08.65.17,1,.29s.79.26,1.21.42l1.28.49,1.24.5,1.11.45c.33.14.62.27.86.36l.51.21.16,1.06-1.76,1.27a18.51,18.51,0,0,1-1.62,1,13.16,13.16,0,0,1-1.68.84,11.85,11.85,0,0,1-1.93.6,16.64,16.64,0,0,1-2.37.37c-.79.08-1.86.12-3.18.12H202.76a3.68,3.68,0,0,1-1.11-.17,3.3,3.3,0,0,1-1-.47v1.13a7.76,7.76,0,0,1-.13,1.37,4.5,4.5,0,0,1-.45,1.26,4,4,0,0,1-.81,1,3.91,3.91,0,0,1-1.25.72,7.55,7.55,0,0,1-2.48.36ZM203,14.27h5.26l.46,0a4,4,0,0,0,.54-.11,2.46,2.46,0,0,0,.55-.25,1.81,1.81,0,0,0,.49-.43,2.14,2.14,0,0,0,.36-.67,2.86,2.86,0,0,0,.13-.93,5,5,0,0,0-.2-1.46A3.29,3.29,0,0,0,210,9.33a2.24,2.24,0,0,0-.74-.65,1.69,1.69,0,0,0-.83-.22,2.46,2.46,0,0,0-1.3.4,6.32,6.32,0,0,0-1.37,1.21c-.22.26-.45.53-.66.82s-.44.62-.67,1-.46.72-.7,1.12S203.24,13.81,203,14.27Z" transform="translate(0 0)"/></svg>