<svg width="658" height="88" viewBox="0 0 658 88" fill="none" xmlns="http://www.w3.org/2000/svg">
<path d="M3.30078 75.6004H1.50078L1.30078 64.4004H3.40078L3.30078 75.6004ZM2.40078 80.9004L0.800781 79.3004L2.40078 77.7004L4.00078 79.3004L2.40078 80.9004Z" fill="#707786"/>
<path d="M17.8 77.5V79.4H17.4C16.4 79.4 15.5 79 14.7 78.2C14.2 78.9 13.3 79.3 12.1 79.5C11.9 79.5 11.6 79.6 11.4 79.6C11.1 79.6 10.9 79.6 10.6 79.6C10.3 79.6 9.9 79.6 9.6 79.5C9.3 79.5 8.9 79.4 8.6 79.4C8.3 79.3 8 79.2 7.6 79.2C7.3 79.1 7 79 6.8 78.8L6 78.3L6.9 76.6L7.6 77C7.8 77.1 8.1 77.2 8.4 77.3C8.7 77.4 9.1 77.4 9.5 77.5C9.8 77.5 10.1 77.5 10.4 77.5C10.5 77.5 10.7 77.5 10.9 77.5C11.1 77.5 11.4 77.5 11.8 77.4C12.2 77.3 12.5 77.3 12.7 77.2C13 77.1 13.1 77 13.2 76.8C13.3 76.7 13.3 76.7 13.3 76.6C13.3 76.5 13.3 76.4 13.2 76.3C13.2 76.1 13.1 75.9 12.9 75.7L9.2 70L10.8 69L14.7 74.9C14.9 75.2 15.1 75.5 15.3 75.8C15.5 76.1 15.7 76.4 16 76.6C16.2 76.8 16.5 77.1 16.7 77.2C17 77.4 17.2 77.4 17.5 77.4L17.8 77.5Z" fill="#707786"/>
<path d="M28.3008 77.5V79.4H26.5008C25.9008 79.4 25.4008 79.3 24.9008 79.1C24.4008 78.9 24.1008 78.7 23.8008 78.3C23.1008 79 22.1008 79.3 20.7008 79.3H17.3008V77.4H20.7008C21.2008 77.4 21.6008 77.4 21.8008 77.3C22.1008 77.2 22.3008 77.1 22.4008 76.9C22.5008 76.8 22.6008 76.6 22.7008 76.4C22.7008 76.2 22.8008 76 22.8008 75.9V72.5H24.7008V75.8C24.7008 76 24.7008 76.3 24.8008 76.4C24.9008 76.6 25.0008 76.7 25.1008 76.8C25.2008 76.9 25.3008 77 25.5008 77.1C25.6008 77.2 25.8008 77.2 25.9008 77.3C26.0008 77.3 26.2008 77.4 26.3008 77.4C26.4008 77.4 26.5008 77.4 26.5008 77.4H28.3008C28.3008 77.4 28.3008 77.5 28.3008 77.5ZM25.6008 83.2L24.0008 84.8L22.4008 83.2L24.0008 81.6L25.6008 83.2ZM21.7008 83.2L20.1008 84.8L18.5008 83.2L20.1008 81.6L21.7008 83.2Z" fill="#707786"/>
<path d="M36.4004 77.4998V79.3998H35.6004C35.0004 79.3998 34.5004 79.2998 34.0004 79.0998C33.5004 78.8998 33.2004 78.6998 32.9004 78.2998C32.2004 78.9998 31.2004 79.2998 29.8004 79.2998H27.9004V77.3998H29.8004C30.3004 77.3998 30.7004 77.3998 30.9004 77.2998C31.2004 77.1998 31.4004 77.0998 31.5004 76.8998C31.6004 76.7998 31.7004 76.5998 31.8004 76.3998C31.8004 76.1998 31.9004 75.9998 31.9004 75.8998V72.4998H33.8004V75.7998C33.8004 75.9998 33.8004 76.2998 33.9004 76.3998C34.0004 76.5998 34.1004 76.6998 34.2004 76.7998C34.3004 76.8998 34.4004 76.9998 34.6004 77.0998C34.7004 77.1998 34.9004 77.1998 35.0004 77.2998C35.1004 77.2998 35.3004 77.3998 35.4004 77.3998C35.5004 77.3998 35.6004 77.3998 35.6004 77.3998H36.4004C36.4004 77.3998 36.4004 77.4998 36.4004 77.4998ZM30.5004 67.9998L32.2004 66.2998L33.9004 67.9998L32.2004 69.6998L30.5004 67.9998Z" fill="#707786"/>
<path d="M36 79.3004V77.4004H41.9C42.4 77.4004 42.8 77.3004 43.1 77.2004C43.4 77.1004 43.6 76.9004 43.7 76.7004C43.7 76.6004 43.8 76.5004 43.8 76.4004C43.8 76.3004 43.8 76.1004 43.7 75.9004C43.6 75.7004 43.5 75.4004 43.3 75.1004C43.1 74.8004 42.8 74.4004 42.5 74.0004C42.2 73.6004 41.9 73.2004 41.5 72.9004C41.2 72.5004 40.8 72.1004 40.4 71.8004C40 71.4004 39.7 71.1004 39.3 70.8004C39 70.5004 38.6 70.2004 38.4 70.0004C38.1 69.8004 37.9 69.6004 37.7 69.5004L37.9 67.4004L47.1 63.4004L47.9 65.1004L39.9 68.6004C40.1 68.8004 40.4 69.1004 40.7 69.4004C41 69.7004 41.4 70.0004 41.7 70.4004C42.1 70.8004 42.4 71.2004 42.8 71.6004C43.2 72.0004 43.5 72.4004 43.9 72.8004C44.2 73.2004 44.5 73.6004 44.8 74.0004C45.1 74.4004 45.3 74.8004 45.4 75.1004C45.5 75.4004 45.6 75.7004 45.6 75.9004C45.6 76.1004 45.6 76.3004 45.6 76.5004C45.6 76.5004 45.6 76.6004 45.6 76.7004C45.6 76.8004 45.6 77.0004 45.5 77.1004C45.5 77.3004 45.4 77.4004 45.4 77.5004C45.3 77.7004 45.2 77.9004 45.1 78.1004C44.9 78.3004 44.7 78.5004 44.4 78.7004C44.1 78.9004 43.8 79.0004 43.4 79.1004C43 79.2004 42.5 79.3004 41.9 79.3004H36Z" fill="#707786"/>
<path d="M77.2992 77.5V79.4H76.9992C76.4992 79.4 76.0992 79.3 75.5992 79.2C75.1992 79.1 74.7992 78.8 74.3992 78.6L74.2992 78.5L74.1992 78.4C73.4992 79.1 72.4992 79.5 71.0992 79.5H59.7992C59.2992 79.5 58.8992 79.4 58.4992 79.3C58.0992 79.1 57.6992 78.9 57.3992 78.6C57.2992 78.5 57.0992 78.3 56.9992 78.2C56.8992 78 56.6992 77.8 56.5992 77.6C56.4992 77.4 56.3992 77.1 56.2992 76.8C56.1992 76.5 56.1992 76.2 56.1992 75.8C56.1992 75.5 56.1992 75.1 56.2992 74.7C56.3992 74.3 56.3992 73.9 56.4992 73.6C56.5992 73.2 56.6992 72.9 56.6992 72.7C56.7992 72.4 56.7992 72.3 56.8992 72.2L58.6992 72.8C58.6992 72.9 58.5992 73.1 58.4992 73.4C58.3992 73.7 58.3992 73.9 58.2992 74.2C58.1992 74.5 58.1992 74.8 58.0992 75.1C58.0992 75.4 57.9992 75.6 57.9992 75.9C57.9992 76.3 58.0992 76.7 58.1992 76.9C58.2992 77.2 58.4992 77.3 58.6992 77.5C58.8992 77.6 59.0992 77.7 59.2992 77.7C59.4992 77.7 59.5992 77.7 59.6992 77.7H70.9992C71.4992 77.7 71.8992 77.7 72.1992 77.5C72.4992 77.4 72.6992 77.3 72.8992 77.1C73.0992 76.9 73.0992 76.8 73.1992 76.6C73.1992 76.4 73.2992 76.2 73.2992 76.1V72.6H75.1992V76C75.1992 76.4 75.2992 76.7 75.3992 76.9C75.5992 77.1 75.7992 77.3 75.9992 77.4C76.1992 77.5 76.3992 77.6 76.5992 77.6C76.7992 77.6 76.8992 77.6 76.9992 77.6L77.2992 77.5C77.2992 77.5 77.2992 77.6 77.2992 77.5ZM67.4992 71.7L65.8992 70.1L67.4992 68.5L69.0992 70.1L67.4992 71.7ZM63.5992 71.7L61.9992 70.1L63.5992 68.5L65.1992 70.1L63.5992 71.7Z" fill="#707786"/>
<path d="M76.8008 79.2998V77.3998H81.2008C81.9008 77.3998 82.5008 77.2998 83.0008 77.1998C83.5008 77.0998 83.8008 76.9998 84.1008 76.7998C84.4008 76.5998 84.5008 76.4998 84.6008 76.2998C84.7008 76.0998 84.8008 75.8998 84.8008 75.7998H83.3008C83.1008 75.7998 82.9008 75.7998 82.7008 75.7998C82.5008 75.7998 82.3008 75.7998 82.0008 75.6998C81.8008 75.6998 81.5008 75.5998 81.3008 75.4998C81.1008 75.3998 80.8008 75.2998 80.6008 75.1998C80.4008 75.0998 80.2008 74.9998 80.1008 74.7998C79.9008 74.5998 79.7008 74.3998 79.6008 74.1998C79.5008 73.9998 79.3008 73.6998 79.2008 73.3998C79.1008 73.0998 79.1008 72.6998 79.1008 72.2998C79.1008 71.7998 79.2008 71.2998 79.4008 70.7998C79.6008 70.2998 79.9008 69.8998 80.2008 69.5998C80.5008 69.2998 80.9008 68.9998 81.4008 68.7998C81.8008 68.5998 82.3008 68.4998 82.8008 68.4998C83.4008 68.4998 83.9008 68.5998 84.4008 68.8998C84.9008 69.0998 85.3008 69.4998 85.6008 69.9998C86.0008 70.4998 86.2008 71.0998 86.4008 71.7998C86.6008 72.4998 86.7008 73.2998 86.7008 74.1998V75.5998C86.7008 76.2998 86.6008 76.7998 86.3008 77.3998C86.0008 77.8998 85.6008 78.2998 85.1008 78.5998C84.2008 79.1998 82.9008 79.3998 81.3008 79.3998H76.8008V79.2998ZM82.7008 70.3998C82.5008 70.3998 82.3008 70.3998 82.0008 70.4998C81.8008 70.5998 81.6008 70.6998 81.4008 70.7998C81.2008 70.9998 81.1008 71.1998 81.0008 71.3998C80.9008 71.5998 80.8008 71.8998 80.8008 72.2998C80.8008 72.4998 80.8008 72.6998 80.9008 72.8998C80.9008 72.9998 81.0008 73.1998 81.1008 73.2998C81.2008 73.3998 81.3008 73.4998 81.3008 73.4998C81.3008 73.4998 81.5008 73.5998 81.5008 73.6998C81.7008 73.7998 81.9008 73.8998 82.2008 73.8998C82.5008 73.8998 82.8008 73.9998 83.2008 73.9998H84.7008C84.7008 73.2998 84.6008 72.7998 84.5008 72.2998C84.4008 71.7998 84.2008 71.3998 84.0008 71.0998C83.7008 70.5998 83.3008 70.3998 82.7008 70.3998ZM81.2008 64.4998L82.9008 62.7998L84.6008 64.4998L82.9008 66.1998L81.2008 64.4998Z" fill="#707786"/>
<path d="M93.7008 79.2996C93.0008 79.2996 92.4008 79.1996 92.0008 79.1996C91.5008 79.0996 91.2008 78.9996 90.8008 78.7996C90.5008 78.5996 90.2008 78.3996 90.0008 78.1996C89.8008 77.8996 89.7008 77.5996 89.6008 77.2996C89.5008 76.9996 89.4008 76.5996 89.4008 76.0996C89.4008 75.6996 89.3008 75.1996 89.3008 74.6996V65.0996H91.2008V74.6996C91.2008 75.2996 91.2008 75.7996 91.3008 76.0996C91.3008 76.4996 91.4008 76.6996 91.6008 76.8996C91.8008 77.0996 92.0008 77.1996 92.3008 77.2996C92.6008 77.3996 93.1008 77.3996 93.7008 77.3996C93.7008 77.3996 93.7008 79.2996 93.7008 79.2996Z" fill="#707786"/>
<path d="M100.2 71.2002C100.2 71.2002 100.2 71.3002 100.3 71.5002C100.4 71.7002 100.4 71.9002 100.4 72.2002C100.5 72.5002 100.5 72.7002 100.6 73.0002C100.7 73.3002 100.7 73.6002 100.8 73.9002C100.8 74.2002 100.9 74.5002 100.9 74.8002C100.9 75.1002 101 75.4002 101 75.6002C101 76.2002 100.9 76.8002 100.7 77.3002C100.5 77.8002 100.2 78.1002 99.9004 78.5002C99.6004 78.8002 99.2004 79.0002 98.8004 79.2002C98.4004 79.3002 98.0004 79.4002 97.5004 79.4002H93.4004V77.5002H97.5004C97.6004 77.5002 97.7004 77.5002 97.9004 77.5002C98.1004 77.5002 98.3004 77.4002 98.5004 77.3002C98.7004 77.2002 98.8004 77.0002 99.0004 76.8002C99.1004 76.6002 99.2004 76.2002 99.2004 75.8002C99.2004 75.7002 99.2004 75.5002 99.2004 75.2002C99.2004 75.0002 99.1004 74.7002 99.1004 74.5002C99.1004 74.2002 99.0004 74.0002 99.0004 73.7002C99.0004 73.4002 98.9004 73.2002 98.9004 72.9002C98.9004 72.6002 98.8004 72.4002 98.8004 72.3002C98.8004 72.2002 98.7004 72.0002 98.7004 71.9002L100.2 71.2002ZM101.1 83.2002L99.5004 84.8002L97.9004 83.2002L99.5004 81.6002L101.1 83.2002ZM97.3004 83.2002L95.7004 84.8002L94.1004 83.2002L95.7004 81.6002L97.3004 83.2002Z" fill="#707786"/>
<path d="M102.5 84.8996V82.9996H103.9C104.6 82.9996 105.2 82.8996 105.7 82.7996C106.2 82.5996 106.6 82.3996 106.9 81.9996C107.2 81.6996 107.5 81.1996 107.6 80.6996C107.8 80.1996 107.8 79.4996 107.8 78.7996V72.5996H109.7V78.7996C109.7 79.7996 109.6 80.5996 109.3 81.2996C109.1 82.0996 108.7 82.6996 108.2 83.1996C107.7 83.6996 107.1 84.0996 106.3 84.3996C105.6 84.6996 104.7 84.7996 103.8 84.7996H102.5C102.5 84.7996 102.5 84.8996 102.5 84.8996Z" fill="#707786"/>
<path d="M116.2 79.4998C115.9 79.4998 115.5 79.4998 115.2 79.3998C114.9 79.3998 114.5 79.2998 114.2 79.2998C113.9 79.1998 113.6 79.0998 113.2 79.0998C112.9 78.9998 112.6 78.8998 112.4 78.6998L111.6 78.1998L112.5 76.4998L113.3 76.9998C113.5 77.0998 113.8 77.1998 114.2 77.2998C114.5 77.3998 114.9 77.3998 115.3 77.4998C115.6 77.4998 116 77.4998 116.3 77.4998C116.4 77.4998 116.5 77.4998 116.7 77.4998C116.9 77.4998 117.2 77.4998 117.5 77.3998C117.9 77.2998 118.2 77.2998 118.4 77.1998C118.7 77.0998 118.8 76.9998 118.9 76.7998C118.9 76.6998 118.9 76.6998 118.9 76.5998C118.9 76.4998 118.9 76.2998 118.8 76.0998C118.7 75.8998 118.6 75.5998 118.4 75.2998L114.8 69.7998L116.4 68.7998C116.5 68.8998 116.6 69.0998 116.7 69.1998C116.8 69.2998 116.9 69.4998 117 69.6998C117.1 69.8998 117.3 70.0998 117.4 70.3998C117.6 70.6998 117.8 70.9998 118 71.2998C118.2 71.6998 118.5 72.0998 118.8 72.5998C119.1 73.0998 119.5 73.5998 119.9 74.2998C120.1 74.5998 120.2 74.7998 120.4 75.0998C120.5 75.3998 120.6 75.6998 120.7 75.8998C120.8 76.1998 120.8 76.3998 120.8 76.6998C120.8 76.6998 120.8 76.7998 120.8 76.9998C120.8 77.1998 120.7 77.3998 120.6 77.5998C120.2 78.4998 119.2 79.0998 117.7 79.2998C117.5 79.2998 117.2 79.3998 117 79.3998C116.7 79.4998 116.4 79.4998 116.2 79.4998Z" fill="#707786"/>
<path d="M128.5 84.8996V82.9996H129.9C130.6 82.9996 131.2 82.8996 131.7 82.7996C132.2 82.5996 132.6 82.3996 132.9 81.9996C133.2 81.6996 133.5 81.1996 133.6 80.6996C133.8 80.1996 133.8 79.4996 133.8 78.7996V72.5996H135.7V78.7996C135.7 79.7996 135.6 80.5996 135.3 81.2996C135.1 82.0996 134.7 82.6996 134.2 83.1996C133.7 83.6996 133.1 84.0996 132.4 84.3996C131.7 84.6996 130.8 84.7996 129.8 84.7996H128.5V84.8996Z" fill="#707786"/>
<path d="M138.199 77.4996H143.599C144.199 77.4996 144.699 77.4996 144.999 77.3996C145.299 77.2996 145.599 77.1996 145.799 76.9996C145.899 76.8996 145.999 76.6996 146.099 76.4996C146.199 76.2996 146.199 75.9996 146.199 75.5996V65.0996H148.099V75.4996C148.099 76.7996 147.699 77.7996 146.999 78.3996C146.199 78.9996 145.099 79.2996 143.599 79.2996H138.199V77.4996V77.4996ZM139.399 75.6996L138.799 65.4996L140.699 65.2996L141.299 75.6996H139.399Z" fill="#707786"/>
<path d="M155.199 79.4998C154.899 79.4998 154.499 79.4998 154.199 79.3998C153.899 79.3998 153.499 79.2998 153.199 79.2998C152.899 79.1998 152.599 79.0998 152.299 79.0998C151.999 78.9998 151.699 78.8998 151.499 78.6998L150.699 78.1998L151.599 76.4998L152.399 76.9998C152.599 77.0998 152.899 77.1998 153.299 77.2998C153.599 77.3998 153.999 77.3998 154.399 77.4998C154.699 77.4998 155.099 77.4998 155.399 77.4998C155.499 77.4998 155.599 77.4998 155.799 77.4998C155.999 77.4998 156.299 77.4998 156.599 77.3998C156.999 77.2998 157.299 77.2998 157.499 77.1998C157.799 77.0998 157.899 76.9998 157.999 76.7998C157.999 76.6998 157.999 76.6998 157.999 76.5998C157.999 76.4998 157.999 76.2998 157.899 76.0998C157.799 75.8998 157.699 75.5998 157.499 75.2998L153.899 69.7998L155.499 68.7998C155.599 68.8998 155.699 69.0998 155.799 69.1998C155.899 69.2998 155.999 69.4998 156.099 69.6998C156.199 69.8998 156.399 70.0998 156.499 70.3998C156.699 70.6998 156.899 70.9998 157.099 71.2998C157.299 71.6998 157.599 72.0998 157.899 72.5998C158.199 73.0998 158.599 73.5998 158.999 74.2998C159.199 74.5998 159.299 74.7998 159.399 75.0998C159.499 75.3998 159.599 75.6998 159.699 75.8998C159.799 76.1998 159.799 76.3998 159.799 76.6998C159.799 76.6998 159.799 76.7998 159.799 76.9998C159.799 77.1998 159.699 77.3998 159.599 77.5998C159.199 78.4998 158.199 79.0998 156.699 79.2998C156.499 79.2998 156.199 79.3998 155.999 79.3998C155.699 79.4998 155.499 79.4998 155.199 79.4998Z" fill="#707786"/>
<path d="M190.999 72.7C190.999 75 190.599 76.8 189.799 77.9C188.999 79 187.799 79.6 186.099 79.6C184.399 79.6 183.199 79.1 182.399 78C181.599 76.9 181.199 75.2 181.199 73V70.3C181.199 68 181.599 66.3 182.399 65.2C183.199 64.1 184.399 63.5 186.099 63.5C187.799 63.5 188.999 64 189.799 65.1C190.599 66.2 190.999 67.8 190.999 70.1V72.7ZM188.999 70C188.999 68.3 188.799 67.1 188.299 66.3C187.799 65.5 187.099 65.1 186.099 65.1C185.099 65.1 184.299 65.5 183.899 66.3C183.399 67.1 183.199 68.2 183.199 69.8V73C183.199 74.7 183.399 75.9 183.899 76.8C184.399 77.6 185.099 78 186.099 78C187.099 78 187.799 77.6 188.299 76.9C188.799 76.1 188.999 74.9 189.099 73.3V70H188.999Z" fill="#707786"/>
<path d="M203.4 72.7C203.4 75 203 76.8 202.2 77.9C201.4 79 200.2 79.6 198.5 79.6C196.8 79.6 195.6 79.1 194.8 78C194 76.9 193.6 75.2 193.6 73V70.3C193.6 68 194 66.3 194.8 65.2C195.6 64.1 196.8 63.5 198.5 63.5C200.2 63.5 201.4 64 202.2 65.1C203 66.2 203.4 67.8 203.4 70.1V72.7ZM201.4 70C201.4 68.3 201.2 67.1 200.7 66.3C200.2 65.5 199.5 65.1 198.5 65.1C197.5 65.1 196.7 65.5 196.3 66.3C195.8 67.1 195.6 68.2 195.6 69.8V73C195.6 74.7 195.8 75.9 196.3 76.8C196.8 77.6 197.5 78 198.5 78C199.5 78 200.2 77.6 200.7 76.9C201.2 76.1 201.4 74.9 201.5 73.3V70H201.4Z" fill="#707786"/>
<path d="M217.9 79.2996C217.2 79.2996 216.6 79.1996 216.2 79.1996C215.7 79.0996 215.4 78.9996 215 78.7996C214.7 78.5996 214.4 78.3996 214.2 78.1996C214 77.8996 213.9 77.5996 213.8 77.2996C213.7 76.9996 213.6 76.5996 213.6 76.0996C213.6 75.6996 213.5 75.1996 213.5 74.6996V65.0996H215.4V74.6996C215.4 75.2996 215.4 75.7996 215.5 76.0996C215.5 76.4996 215.6 76.6996 215.8 76.8996C216 77.0996 216.2 77.1996 216.5 77.2996C216.8 77.3996 217.3 77.3996 217.9 77.3996V79.2996V79.2996Z" fill="#707786"/>
<path d="M224.499 71.2004C224.499 71.2004 224.499 71.3004 224.599 71.5004C224.599 71.7004 224.699 71.9004 224.699 72.2004C224.799 72.5004 224.799 72.7004 224.899 73.0004C224.999 73.3004 224.999 73.6004 225.099 73.9004C225.099 74.2004 225.199 74.5004 225.199 74.8004C225.199 75.1004 225.299 75.4004 225.299 75.6004C225.299 76.2004 225.199 76.8004 224.999 77.3004C224.799 77.8004 224.499 78.1004 224.199 78.5004C223.899 78.8004 223.499 79.0004 223.099 79.2004C222.699 79.3004 222.299 79.4004 221.799 79.4004H217.699V77.5004H221.799C221.899 77.5004 221.999 77.5004 222.199 77.5004C222.399 77.5004 222.599 77.4004 222.799 77.3004C222.999 77.2004 223.099 77.0004 223.299 76.8004C223.399 76.6004 223.499 76.2004 223.499 75.8004C223.499 75.7004 223.499 75.5004 223.499 75.2004C223.499 75.0004 223.499 74.7004 223.399 74.5004C223.399 74.2004 223.299 74.0004 223.299 73.7004C223.299 73.4004 223.199 73.2004 223.199 72.9004C223.199 72.7004 223.099 72.4004 223.099 72.3004C223.099 72.1004 222.999 72.0004 222.999 71.9004L224.499 71.2004ZM224.299 69.1004L222.699 67.5004L224.299 65.9004L225.899 67.5004L224.299 69.1004ZM220.499 69.1004L218.899 67.5004L220.499 65.9004L222.099 67.5004L220.499 69.1004Z" fill="#707786"/>
<path d="M256.301 79.2996C255.601 79.2996 255.101 79.1996 254.601 78.9996C254.101 78.7996 253.701 78.4996 253.401 78.1996C253.201 78.3996 253.001 78.5996 252.801 78.6996C252.601 78.7996 252.401 78.9996 252.101 78.9996C251.901 79.0996 251.601 79.1996 251.401 79.1996C251.201 79.1996 250.901 79.1996 250.701 79.1996C249.901 79.1996 249.101 78.9996 248.501 78.5996V79.3996C248.501 81.0996 248.001 82.4996 247.101 83.2996C246.201 84.1996 244.801 84.5996 242.901 84.5996H240.601C239.601 84.5996 238.601 84.3996 237.801 83.8996C237.001 83.4996 236.301 82.7996 235.801 81.9996C235.401 81.3996 235.201 80.7996 235.001 80.0996C234.901 79.5996 234.801 78.9996 234.801 78.3996C234.801 78.1996 234.801 77.8996 234.801 77.3996C234.801 76.8996 235.001 76.1996 235.201 75.3996C235.401 74.4996 235.801 73.5996 236.201 72.6996L237.901 73.4996C237.501 74.2996 237.201 74.9996 237.001 75.6996C236.801 76.3996 236.701 77.0996 236.601 77.6996C236.601 77.8996 236.601 78.0996 236.601 78.2996C236.601 78.6996 236.601 79.0996 236.701 79.5996C236.801 80.0996 237.001 80.4996 237.301 80.8996C237.601 81.3996 238.101 81.8996 238.701 82.0996C239.301 82.3996 239.901 82.5996 240.601 82.5996H242.901C243.701 82.5996 244.301 82.4996 244.801 82.3996C245.301 82.1996 245.701 81.9996 245.901 81.6996C246.201 81.3996 246.401 81.0996 246.501 80.5996C246.601 80.1996 246.701 79.6996 246.701 79.1996V72.1996H248.601V74.1996C248.601 74.7996 248.701 75.3996 248.801 75.6996C248.901 76.0996 249.101 76.3996 249.301 76.5996C249.501 76.7996 249.701 76.8996 250.001 76.9996C250.301 77.0996 250.501 77.0996 250.801 77.0996C251.001 77.0996 251.201 77.0996 251.401 76.9996C251.601 76.8996 251.801 76.7996 252.001 76.6996C252.201 76.5996 252.301 76.3996 252.501 76.0996C252.601 75.8996 252.701 75.5996 252.701 75.1996V72.1996H254.601V75.2996C254.601 75.8996 254.801 76.3996 255.101 76.5996C255.401 76.8996 255.901 76.9996 256.601 76.9996C256.701 76.9996 256.901 76.9996 257.001 76.8996C257.201 76.8996 257.401 76.7996 257.501 76.5996C257.701 76.4996 257.801 76.2996 257.901 75.9996C258.001 75.7996 258.101 75.3996 258.101 74.9996C258.101 74.8996 258.101 74.6996 258.101 74.4996C258.101 74.2996 258.101 73.9996 258.001 73.7996C258.001 73.4996 257.901 73.2996 257.901 72.9996C257.901 72.6996 257.801 72.4996 257.801 72.1996C257.801 71.9996 257.701 71.7996 257.701 71.5996C257.701 71.3996 257.601 71.2996 257.601 71.1996L259.401 70.5996C259.401 70.5996 259.401 70.6996 259.501 70.8996C259.501 71.0996 259.601 71.2996 259.601 71.4996C259.701 71.6996 259.701 71.9996 259.801 72.2996C259.901 72.5996 259.901 72.8996 260.001 73.1996C260.001 73.4996 260.101 73.7996 260.101 74.0996C260.101 74.3996 260.101 74.5996 260.101 74.8996C260.101 75.4996 260.001 76.0996 259.801 76.5996C259.601 77.0996 259.301 77.3996 259.001 77.7996C258.701 78.0996 258.301 78.2996 257.901 78.4996C257.101 79.2996 256.701 79.2996 256.301 79.2996Z" fill="#707786"/>
<path d="M262.8 83.0004C263.8 83.0004 264.7 82.9004 265.3 82.8004C266 82.6004 266.5 82.4004 266.9 82.1004C267.2 81.8004 267.5 81.5004 267.7 81.0004C267.9 80.6004 267.9 80.0004 267.9 79.4004H266.1C265.6 79.4004 265.2 79.3004 264.7 79.2004C264.2 79.1004 263.8 78.8004 263.4 78.5004C263 78.2004 262.7 77.8004 262.4 77.3004C262.2 76.8004 262 76.1004 262 75.4004C262 75.0004 262 74.6004 262.1 74.2004C262.2 73.8004 262.3 73.5004 262.4 73.2004C262.5 72.9004 262.6 72.7004 262.8 72.5004C262.9 72.3004 263.1 72.1004 263.2 72.0004C263.6 71.6004 264 71.3004 264.5 71.2004C265 71.0004 265.5 70.9004 266 70.9004C266.5 70.9004 266.9 71.0004 267.3 71.1004C267.7 71.2004 268.1 71.5004 268.4 71.8004C269.3 72.6004 269.8 74.0004 269.8 75.7004V77.6004H271.3V79.5004H269.8C269.8 80.4004 269.7 81.3004 269.4 81.9004C269.1 82.6004 268.7 83.2004 268.1 83.6004C267.5 84.1004 266.8 84.4004 265.9 84.6004C265 84.8004 264 84.9004 262.7 84.9004V83.0004H262.8ZM266 72.6004C265.3 72.6004 264.8 72.8004 264.5 73.3004C264.1 73.8004 264 74.4004 264 75.3004C264 76.2004 264.3 76.8004 264.8 77.1004C264.9 77.2004 265.1 77.2004 265.2 77.3004C265.3 77.3004 265.5 77.4004 265.6 77.4004C265.7 77.4004 265.8 77.4004 265.9 77.4004C266 77.4004 266.1 77.4004 266.2 77.4004H268V75.5004C268 75.0004 268 74.6004 267.9 74.3004C267.8 74.0004 267.7 73.7004 267.6 73.5004C267.5 73.3004 267.4 73.1004 267.2 73.0004C267.1 72.9004 266.9 72.8004 266.8 72.7004C266.7 72.6004 266.5 72.6004 266.4 72.6004C266.1 72.6004 266 72.6004 266 72.6004Z" fill="#707786"/>
<path d="M276.3 71.2004C276.3 71.2004 276.3 71.3004 276.4 71.5004C276.5 71.7004 276.5 71.9004 276.5 72.2004C276.6 72.5004 276.6 72.7004 276.7 73.0004C276.8 73.3004 276.8 73.6004 276.9 73.9004C276.9 74.2004 277 74.5004 277 74.8004C277 75.1004 277 75.4004 277 75.6004C277 76.2004 276.9 76.8004 276.7 77.3004C276.5 77.8004 276.2 78.1004 275.9 78.5004C275.6 78.8004 275.2 79.0004 274.8 79.2004C274.4 79.3004 274 79.4004 273.5 79.4004H271V77.5004H273.5C273.6 77.5004 273.7 77.5004 273.9 77.5004C274.1 77.5004 274.3 77.4004 274.4 77.3004C274.6 77.2004 274.7 77.0004 274.9 76.8004C275 76.6004 275.1 76.2004 275.1 75.8004C275.1 75.7004 275.1 75.5004 275.1 75.2004C275.1 75.0004 275.1 74.7004 275 74.5004C275 74.2004 274.9 74.0004 274.9 73.7004C274.9 73.4004 274.8 73.2004 274.8 72.9004C274.8 72.7004 274.7 72.4004 274.7 72.3004C274.7 72.2004 274.6 72.0004 274.6 71.9004L276.3 71.2004ZM273 67.1004L274.7 65.4004L276.4 67.1004L274.7 68.8004L273 67.1004Z" fill="#707786"/>
<path d="M280.3 83.0004C281.3 83.0004 282.2 82.9004 282.8 82.8004C283.5 82.6004 284 82.4004 284.4 82.1004C284.7 81.8004 285 81.5004 285.2 81.0004C285.4 80.6004 285.4 80.0004 285.4 79.4004H283.6C283.1 79.4004 282.7 79.3004 282.2 79.2004C281.7 79.1004 281.3 78.8004 280.9 78.5004C280.5 78.2004 280.2 77.8004 279.9 77.3004C279.7 76.8004 279.5 76.1004 279.5 75.4004C279.5 75.0004 279.5 74.6004 279.6 74.2004C279.7 73.8004 279.8 73.5004 279.9 73.2004C280 72.9004 280.1 72.7004 280.3 72.5004C280.4 72.3004 280.6 72.1004 280.7 72.0004C281.1 71.6004 281.5 71.3004 282 71.2004C282.5 71.0004 283 70.9004 283.5 70.9004C284 70.9004 284.4 71.0004 284.8 71.1004C285.2 71.2004 285.6 71.5004 285.9 71.8004C286.8 72.6004 287.2 74.0004 287.2 75.7004V77.6004H288.7V79.5004H287.2C287.2 80.4004 287.1 81.3004 286.8 81.9004C286.5 82.6004 286.1 83.2004 285.5 83.6004C284.9 84.1004 284.2 84.4004 283.3 84.6004C282.4 84.8004 281.4 84.9004 280.1 84.9004V83.0004H280.3ZM283.5 72.6004C282.8 72.6004 282.3 72.8004 282 73.3004C281.6 73.8004 281.5 74.4004 281.5 75.3004C281.5 76.2004 281.8 76.8004 282.3 77.1004C282.4 77.2004 282.6 77.2004 282.7 77.3004C282.8 77.3004 283 77.4004 283.1 77.4004C283.2 77.4004 283.3 77.4004 283.4 77.4004C283.5 77.4004 283.6 77.4004 283.7 77.4004H285.5V75.5004C285.5 75.0004 285.5 74.6004 285.4 74.3004C285.3 74.0004 285.2 73.7004 285.1 73.5004C285 73.3004 284.9 73.1004 284.7 73.0004C284.6 72.9004 284.4 72.8004 284.3 72.7004C284.2 72.6004 284 72.6004 283.9 72.6004C283.7 72.6004 283.6 72.6004 283.5 72.6004Z" fill="#707786"/>
<path d="M293.899 71.2002C293.899 71.2002 293.899 71.3002 293.999 71.5002C294.099 71.7002 294.099 71.9002 294.099 72.2002C294.199 72.5002 294.199 72.7002 294.299 73.0002C294.399 73.3002 294.399 73.6002 294.499 73.9002C294.499 74.2002 294.599 74.5002 294.599 74.8002C294.599 75.1002 294.699 75.4002 294.699 75.6002C294.699 76.2002 294.599 76.8002 294.399 77.3002C294.199 77.8002 293.899 78.1002 293.599 78.5002C293.299 78.8002 292.899 79.0002 292.499 79.2002C292.099 79.3002 291.699 79.4002 291.199 79.4002H288.699V77.5002H291.199C291.299 77.5002 291.399 77.5002 291.599 77.5002C291.799 77.5002 291.999 77.4002 292.099 77.3002C292.299 77.2002 292.399 77.0002 292.599 76.8002C292.699 76.6002 292.799 76.2002 292.799 75.8002C292.799 75.7002 292.799 75.5002 292.799 75.2002C292.799 75.0002 292.799 74.7002 292.699 74.5002C292.699 74.2002 292.599 74.0002 292.599 73.7002C292.599 73.4002 292.499 73.2002 292.499 72.9002C292.499 72.6002 292.399 72.4002 292.399 72.3002C292.399 72.1002 292.299 72.0002 292.299 71.9002L293.899 71.2002ZM290.399 83.0002L292.099 81.3002L293.799 83.0002L292.099 84.7002L290.399 83.0002Z" fill="#707786"/>
<path d="M303.5 66.7C303.5 65.8 303.8 65 304.4 64.4C305 63.8 305.8 63.5 306.7 63.5C307.7 63.5 308.4 63.8 309 64.4C309.6 65 309.9 65.8 309.9 66.8V67.6C309.9 68.5 309.6 69.3 309 69.9C308.4 70.5 307.6 70.8 306.7 70.8C305.8 70.8 305 70.5 304.4 69.9C303.8 69.3 303.5 68.5 303.5 67.5V66.7ZM304.9 67.5C304.9 68.1 305.1 68.5 305.4 68.9C305.7 69.3 306.1 69.4 306.7 69.4C307.2 69.4 307.6 69.2 307.9 68.9C308.2 68.5 308.4 68.1 308.4 67.5V66.7C308.4 66.1 308.2 65.7 307.9 65.3C307.6 64.9 307.2 64.7 306.7 64.7C306.2 64.7 305.7 64.9 305.4 65.3C305.1 65.7 304.9 66.1 304.9 66.7V67.5ZM311.1 75.5C311.1 74.6 311.4 73.8 312 73.2C312.6 72.6 313.4 72.3 314.3 72.3C315.2 72.3 316 72.6 316.6 73.2C317.2 73.8 317.5 74.6 317.5 75.6V76.4C317.5 77.3 317.2 78.1 316.6 78.7C316 79.3 315.2 79.6 314.3 79.6C313.4 79.6 312.6 79.3 312 78.7C311.4 78.1 311.1 77.3 311.1 76.3V75.5ZM312.6 76.3C312.6 76.9 312.8 77.3 313.1 77.7C313.4 78.1 313.8 78.2 314.4 78.2C314.9 78.2 315.3 78 315.6 77.7C315.9 77.3 316.1 76.9 316.1 76.2V75.4C316.1 74.8 315.9 74.4 315.6 74C315.3 73.6 314.9 73.5 314.4 73.5C313.9 73.5 313.5 73.7 313.2 74C312.9 74.4 312.7 74.8 312.7 75.4L312.6 76.3ZM307.1 78.2L306 77.5L313.6 65.3L314.7 66L307.1 78.2Z" fill="#707786"/>
<path d="M341.9 72.7C341.9 75 341.5 76.8 340.7 77.9C339.9 79 338.7 79.6 337 79.6C335.3 79.6 334.1 79.1 333.3 78C332.5 76.9 332.1 75.2 332.1 73V70.3C332.1 68 332.5 66.3 333.3 65.2C334.1 64.1 335.3 63.5 337 63.5C338.7 63.5 339.9 64 340.7 65.1C341.5 66.2 341.9 67.8 341.9 70.1V72.7ZM339.9 70C339.9 68.3 339.7 67.1 339.2 66.3C338.7 65.5 338 65.1 337 65.1C336 65.1 335.2 65.5 334.8 66.3C334.3 67.1 334.1 68.2 334.1 69.8V73C334.1 74.7 334.3 75.9 334.8 76.8C335.3 77.6 336 78 337 78C338 78 338.7 77.6 339.2 76.9C339.7 76.1 339.9 74.9 340 73.3L339.9 70Z" fill="#707786"/>
<path d="M351.999 83.0004C352.999 83.0004 353.899 82.9004 354.499 82.8004C355.199 82.6004 355.699 82.4004 356.099 82.1004C356.399 81.8004 356.699 81.5004 356.899 81.0004C357.099 80.6004 357.099 80.0004 357.099 79.4004H355.299C354.799 79.4004 354.399 79.3004 353.899 79.2004C353.399 79.1004 352.999 78.8004 352.599 78.5004C352.199 78.2004 351.899 77.8004 351.599 77.3004C351.399 76.8004 351.199 76.1004 351.199 75.4004C351.199 75.0004 351.199 74.6004 351.299 74.2004C351.399 73.8004 351.499 73.5004 351.599 73.2004C351.699 72.9004 351.799 72.7004 351.999 72.5004C352.099 72.3004 352.299 72.1004 352.399 72.0004C352.799 71.6004 353.199 71.3004 353.699 71.2004C354.199 71.0004 354.699 70.9004 355.199 70.9004C355.699 70.9004 356.099 71.0004 356.499 71.1004C356.899 71.2004 357.299 71.5004 357.599 71.8004C358.499 72.6004 358.999 74.0004 358.999 75.7004V79.5004C358.999 80.4004 358.899 81.3004 358.599 81.9004C358.299 82.6004 357.899 83.2004 357.299 83.6004C356.699 84.1004 355.999 84.4004 355.099 84.6004C354.199 84.8004 353.199 84.9004 351.899 84.9004V83.0004H351.999ZM355.299 72.6004C354.599 72.6004 354.099 72.8004 353.799 73.3004C353.399 73.8004 353.199 74.4004 353.199 75.3004C353.199 76.2004 353.499 76.8004 353.999 77.1004C354.099 77.2004 354.299 77.2004 354.399 77.3004C354.499 77.3004 354.699 77.4004 354.799 77.4004C354.899 77.4004 354.999 77.4004 355.099 77.4004C355.199 77.4004 355.299 77.4004 355.399 77.4004H357.199V75.5004C357.199 75.0004 357.199 74.6004 357.099 74.3004C356.999 74.0004 356.899 73.7004 356.799 73.5004C356.699 73.3004 356.599 73.1004 356.399 73.0004C356.299 72.9004 356.099 72.8004 355.999 72.7004C355.899 72.6004 355.699 72.6004 355.599 72.6004C355.499 72.6004 355.399 72.6004 355.299 72.6004Z" fill="#707786"/>
<path d="M380 77.4996V79.3996H379.6C378.6 79.3996 377.7 78.9996 376.8 78.1996C376.3 78.8996 375.4 79.2996 374.2 79.4996C374 79.4996 373.7 79.5996 373.5 79.5996C373.2 79.5996 373 79.5996 372.7 79.5996C372.4 79.5996 372 79.5996 371.7 79.4996C371.4 79.4996 371 79.3996 370.7 79.3996C370.4 79.2996 370.1 79.1996 369.7 79.1996C369.4 79.0996 369.1 78.9996 368.9 78.7996L368.1 78.2996L369 76.5996L369.8 77.0996C370 77.1996 370.3 77.2996 370.7 77.3996C371 77.4996 371.4 77.4996 371.8 77.5996C372.1 77.5996 372.4 77.5996 372.7 77.5996C372.8 77.5996 373 77.5996 373.2 77.5996C373.4 77.5996 373.7 77.5996 374.1 77.4996C374.5 77.3996 374.8 77.3996 375.1 77.2996C375.4 77.1996 375.5 77.0996 375.6 76.8996C375.7 76.7996 375.7 76.7996 375.7 76.6996C375.7 76.5996 375.7 76.4996 375.6 76.3996C375.6 76.1996 375.5 75.9996 375.3 75.7996L371.5 70.0996L373.1 69.0996L377 74.9996C377.2 75.2996 377.4 75.5996 377.6 75.8996C377.8 76.1996 378 76.4996 378.2 76.6996C378.4 76.8996 378.7 77.1996 378.9 77.2996C379.2 77.4996 379.4 77.4996 379.7 77.4996H380Z" fill="#707786"/>
<path d="M390.5 77.5V79.4H388.7C388.1 79.4 387.6 79.3 387.1 79.1C386.6 78.9 386.3 78.7 386 78.3C385.3 79 384.3 79.3 382.9 79.3H379.5V77.4H382.9C383.4 77.4 383.8 77.4 384 77.3C384.3 77.2 384.5 77.1 384.6 76.9C384.7 76.8 384.8 76.6 384.9 76.4C384.9 76.2 385 76 385 75.9V72.5H386.9V75.8C386.9 76 386.9 76.3 387 76.4C387.1 76.6 387.2 76.7 387.3 76.8C387.4 76.9 387.5 77 387.7 77.1C387.8 77.2 388 77.2 388.1 77.3C388.2 77.3 388.4 77.4 388.5 77.4C388.6 77.4 388.7 77.4 388.7 77.4H390.5V77.5ZM387.7 83.2L386.1 84.8L384.5 83.2L386.1 81.6L387.7 83.2ZM383.9 83.2L382.3 84.8L380.7 83.2L382.3 81.6L383.9 83.2Z" fill="#707786"/>
<path d="M398.5 77.4998V79.3998H397.7C397.1 79.3998 396.6 79.2998 396.1 79.0998C395.6 78.8998 395.3 78.6998 395 78.2998C394.3 78.9998 393.3 79.2998 391.9 79.2998H390V77.3998H391.9C392.4 77.3998 392.8 77.3998 393 77.2998C393.3 77.1998 393.5 77.0998 393.6 76.8998C393.7 76.7998 393.8 76.5998 393.9 76.3998C393.9 76.1998 394 75.9998 394 75.8998V72.4998H395.9V75.7998C395.9 75.9998 395.9 76.2998 396 76.3998C396.1 76.5998 396.2 76.6998 396.3 76.7998C396.4 76.8998 396.5 76.9998 396.7 77.0998C396.8 77.1998 397 77.1998 397.1 77.2998C397.2 77.2998 397.4 77.3998 397.5 77.3998C397.6 77.3998 397.7 77.3998 397.7 77.3998H398.5V77.4998ZM392.6 67.9998L394.3 66.2998L396 67.9998L394.3 69.6998L392.6 67.9998Z" fill="#707786"/>
<path d="M398.1 79.3004V77.4004H404C404.5 77.4004 404.9 77.3004 405.2 77.2004C405.5 77.1004 405.7 76.9004 405.8 76.7004C405.8 76.6004 405.9 76.5004 405.9 76.4004C405.9 76.3004 405.9 76.1004 405.8 75.9004C405.7 75.7004 405.6 75.4004 405.4 75.1004C405.2 74.8004 404.9 74.4004 404.6 74.0004C404.3 73.6004 404 73.2004 403.6 72.9004C403.3 72.5004 402.9 72.1004 402.5 71.8004C402.1 71.4004 401.8 71.1004 401.4 70.8004C401.1 70.5004 400.8 70.2004 400.5 70.0004C400.2 69.8004 400 69.6004 399.8 69.5004L400 67.4004L409.1 63.4004L410 65.0004L402 68.5004C402.2 68.7004 402.5 69.0004 402.8 69.3004C403.1 69.6004 403.5 69.9004 403.8 70.3004C404.2 70.7004 404.5 71.1004 404.9 71.5004C405.3 71.9004 405.6 72.3004 406 72.7004C406.3 73.1004 406.6 73.5004 406.9 73.9004C407.2 74.3004 407.4 74.7004 407.5 75.0004C407.6 75.3004 407.7 75.6004 407.7 75.8004C407.7 76.0004 407.7 76.2004 407.7 76.4004C407.7 76.4004 407.7 76.5004 407.7 76.6004C407.7 76.7004 407.7 76.9004 407.6 77.0004C407.6 77.2004 407.5 77.3004 407.5 77.4004C407.4 77.6004 407.3 77.8004 407.2 78.0004C407 78.2004 406.8 78.4004 406.6 78.6004C406.3 78.8004 406 78.9004 405.6 79.0004C405.2 79.1004 404.7 79.2004 404.1 79.2004H398.1V79.3004V79.3004Z" fill="#707786"/>
<path d="M420 85.9H418.1V75.6L419.9 74.5C420.1 74.6 420.3 74.7 420.5 74.8C420.7 74.9 420.9 75 421.1 75.1C421.3 75.2 421.5 75.3 421.7 75.4C421.8 74.8 421.9 74.3 422 73.8C422.1 73.3 422.3 72.9 422.5 72.5C423.1 71.2 424.2 70.5 425.6 70.5C426.2 70.5 426.8 70.6 427.3 70.9C427.8 71.1 428.2 71.5 428.6 72C428.9 72.4 429.1 72.9 429.3 73.4C429.5 73.9 429.5 74.5 429.5 75.1C429.5 75.7 429.4 76.3 429.3 76.8C429.2 77.3 429.1 77.7 428.9 78C428.7 78.3 428.5 78.6 428.3 78.8C428.1 79 427.9 79.1 427.6 79.2C427.4 79.3 427.2 79.4 426.9 79.4C426.7 79.4 426.5 79.4 426.4 79.4C426.3 79.4 426.1 79.4 426 79.4C425.8 79.4 425.6 79.3 425.3 79.2C425 79.1 424.6 78.9 424.1 78.7C423.6 78.5 423.1 78.2 422.4 77.9C421.9 77.7 421.5 77.5 421.1 77.2C420.7 77 420.4 76.8 420.1 76.7L420 85.9ZM423.5 76.4C424.1 76.7 424.5 76.9 424.9 77C425.3 77.2 425.6 77.3 425.8 77.4C426 77.5 426.2 77.5 426.3 77.5C426.4 77.5 426.4 77.5 426.4 77.5C426.5 77.5 426.6 77.5 426.7 77.5C426.8 77.5 427 77.4 427.1 77.2C427.2 77 427.3 76.8 427.4 76.5C427.5 76.2 427.6 75.7 427.6 75.1C427.6 75 427.6 74.9 427.6 74.8C427.6 74.6 427.6 74.5 427.5 74.3C427.5 74.1 427.4 73.9 427.3 73.7C427.2 73.5 427.1 73.3 427 73.1C426.9 72.9 426.7 72.8 426.5 72.7C426.3 72.6 426 72.5 425.7 72.5C425.4 72.5 425.2 72.5 425 72.6C424.8 72.7 424.6 72.9 424.4 73.2C424.2 73.5 424.1 73.9 423.9 74.4C423.7 74.9 423.6 75.5 423.5 76.4Z" fill="#707786"/>
<path d="M436.8 79.2996C436.1 79.2996 435.5 79.1996 435.1 79.1996C434.6 79.0996 434.3 78.9996 433.9 78.7996C433.6 78.5996 433.3 78.3996 433.1 78.1996C432.9 77.8996 432.8 77.5996 432.7 77.2996C432.6 76.9996 432.5 76.5996 432.5 76.0996C432.5 75.6996 432.4 75.1996 432.4 74.6996V65.0996H434.3V74.6996C434.3 75.2996 434.3 75.7996 434.3 76.0996C434.3 76.4996 434.4 76.6996 434.6 76.8996C434.8 77.0996 435 77.1996 435.3 77.2996C435.6 77.3996 436.1 77.3996 436.7 77.3996V79.2996H436.8Z" fill="#707786"/>
<path d="M441.8 71.2004C441.8 71.2004 441.8 71.3004 441.9 71.5004C441.9 71.7004 442 71.9004 442 72.2004C442.1 72.5004 442.1 72.7004 442.2 73.0004C442.3 73.3004 442.3 73.6004 442.4 73.9004C442.4 74.2004 442.5 74.5004 442.5 74.8004C442.5 75.1004 442.5 75.4004 442.5 75.6004C442.5 76.2004 442.4 76.8004 442.2 77.3004C442 77.8004 441.7 78.1004 441.4 78.5004C441.1 78.8004 440.7 79.0004 440.3 79.2004C439.9 79.3004 439.5 79.4004 439 79.4004H436.4V77.5004H439C439.1 77.5004 439.2 77.5004 439.4 77.5004C439.6 77.5004 439.8 77.4004 440 77.3004C440.2 77.2004 440.3 77.0004 440.5 76.8004C440.6 76.6004 440.7 76.2004 440.7 75.8004C440.7 75.7004 440.7 75.5004 440.7 75.2004C440.7 75.0004 440.6 74.7004 440.6 74.5004C440.6 74.2004 440.5 74.0004 440.5 73.7004C440.5 73.4004 440.4 73.2004 440.4 72.9004C440.4 72.7004 440.3 72.4004 440.3 72.3004C440.3 72.2004 440.2 72.0004 440.2 71.9004L441.8 71.2004ZM438.5 67.1004L440.2 65.4004L441.9 67.1004L440.2 68.8004L438.5 67.1004Z" fill="#707786"/>
<path d="M472.7 77.5V79.4H472.4C471.9 79.4 471.5 79.3 471 79.2C470.6 79.1 470.2 78.8 469.8 78.6L469.7 78.5L469.6 78.4C468.9 79.1 467.9 79.5 466.5 79.5H455.1C454.6 79.5 454.2 79.4 453.8 79.3C453.4 79.1 453 78.9 452.7 78.6C452.6 78.5 452.4 78.3 452.3 78.2C452.2 78 452 77.8 451.9 77.6C451.8 77.4 451.7 77.1 451.6 76.8C451.5 76.5 451.5 76.2 451.5 75.8C451.5 75.5 451.5 75.1 451.6 74.7C451.7 74.3 451.7 73.9 451.8 73.6C451.9 73.2 452 72.9 452 72.7C452.1 72.4 452.1 72.3 452.1 72.2L453.9 72.8C453.9 72.9 453.8 73.1 453.7 73.4C453.6 73.7 453.6 73.9 453.5 74.2C453.4 74.5 453.4 74.8 453.3 75.1C453.3 75.4 453.2 75.6 453.2 75.9C453.2 76.3 453.3 76.7 453.4 76.9C453.5 77.2 453.7 77.3 453.9 77.5C454.1 77.6 454.3 77.7 454.5 77.7C454.7 77.7 454.8 77.7 454.9 77.7H466.2C466.7 77.7 467.1 77.7 467.4 77.5C467.7 77.4 467.9 77.3 468.1 77.1C468.3 76.9 468.3 76.8 468.4 76.6C468.4 76.4 468.5 76.2 468.5 76.1V72.6H470.4V76C470.4 76.4 470.5 76.7 470.6 76.9C470.8 77.1 471 77.3 471.2 77.4C471.4 77.5 471.6 77.6 471.8 77.6C472 77.6 472.1 77.6 472.2 77.6L472.7 77.5ZM462.9 71.7L461.3 70.1L462.9 68.5L464.5 70.1L462.9 71.7ZM459.1 71.7L457.5 70.1L459.1 68.5L460.7 70.1L459.1 71.7Z" fill="#707786"/>
<path d="M480.699 77.5V79.4H479.899C479.299 79.4 478.799 79.3 478.299 79.1C477.799 78.9 477.499 78.7 477.199 78.3C476.499 79 475.499 79.3 474.099 79.3H472.199V77.4H474.099C474.599 77.4 474.999 77.4 475.199 77.3C475.499 77.2 475.699 77.1 475.799 76.9C475.899 76.8 475.999 76.6 476.099 76.4C476.099 76.2 476.199 76 476.199 75.9V72.5H478.099V75.8C478.099 76 478.099 76.3 478.199 76.4C478.299 76.5 478.399 76.7 478.499 76.8C478.599 76.9 478.699 77 478.899 77.1C478.999 77.2 479.199 77.2 479.299 77.3C479.399 77.4 479.599 77.4 479.699 77.4C479.799 77.4 479.899 77.4 479.899 77.4H480.699V77.5ZM474.499 83.1L476.199 81.4L477.899 83.1L476.199 84.8L474.499 83.1Z" fill="#707786"/>
<path d="M487.3 71.2C487.3 71.2 487.3 71.3 487.4 71.5C487.5 71.7 487.5 71.9 487.5 72.2C487.6 72.5 487.6 72.7 487.7 73C487.8 73.3 487.8 73.6 487.9 73.9C487.9 74.2 488 74.5 488 74.8C488 75.1 488.1 75.4 488.1 75.6C488.1 76.2 488 76.8 487.8 77.3C487.6 77.8 487.3 78.1 487 78.5C486.7 78.8 486.3 79 485.9 79.2C485.5 79.3 485.1 79.4 484.6 79.4H480.5V77.5H484.6C484.7 77.5 484.8 77.5 485 77.5C485.2 77.5 485.4 77.4 485.5 77.3C485.7 77.2 485.8 77 486 76.8C486.1 76.6 486.2 76.2 486.2 75.8C486.2 75.7 486.2 75.5 486.2 75.2C486.2 75 486.2 74.7 486.1 74.5C486.1 74.2 486 74 486 73.7C486 73.4 485.9 73.2 485.9 72.9C485.9 72.7 485.8 72.4 485.8 72.3C485.8 72.1 485.7 72 485.7 71.9L487.3 71.2ZM486.5 64.9L485.1 66.3L483.7 64.9L485.1 63.5L486.5 64.9ZM487 69.4L485.4 67.8L487 66.2L488.6 67.8L487 69.4ZM483.2 69.4L481.6 67.8L483.2 66.2L484.8 67.8L483.2 69.4Z" fill="#707786"/>
<path d="M508.9 77.4996V79.3996H508.5C507.5 79.3996 506.6 78.9996 505.7 78.1996C505.2 78.8996 504.3 79.2996 503.1 79.4996C502.9 79.4996 502.6 79.5996 502.4 79.5996C502.1 79.5996 501.9 79.5996 501.6 79.5996C501.3 79.5996 500.9 79.5996 500.6 79.4996C500.3 79.4996 499.9 79.3996 499.6 79.3996C499.3 79.2996 499 79.1996 498.6 79.1996C498.3 79.0996 498 78.9996 497.8 78.7996L497 78.2996L497.9 76.5996L498.7 77.0996C498.9 77.1996 499.2 77.2996 499.6 77.3996C499.9 77.4996 500.3 77.4996 500.7 77.5996C501 77.5996 501.3 77.5996 501.6 77.5996C501.7 77.5996 501.9 77.5996 502.1 77.5996C502.3 77.5996 502.6 77.5996 503 77.4996C503.4 77.3996 503.7 77.3996 504 77.2996C504.3 77.1996 504.4 77.0996 504.5 76.8996C504.6 76.7996 504.6 76.7996 504.6 76.6996C504.6 76.5996 504.6 76.4996 504.5 76.3996C504.5 76.1996 504.3 75.9996 504.2 75.7996L500.4 70.0996L502 69.0996L505.9 74.9996C506.1 75.2996 506.3 75.5996 506.5 75.8996C506.7 76.1996 506.9 76.4996 507.1 76.6996C507.3 76.8996 507.6 77.1996 507.8 77.2996C508.1 77.4996 508.3 77.4996 508.6 77.4996H508.9Z" fill="#707786"/>
<path d="M516.9 77.4998V79.3998H516.1C515.5 79.3998 515 79.2998 514.5 79.0998C514 78.8998 513.7 78.6998 513.4 78.2998C512.7 78.9998 511.7 79.2998 510.3 79.2998H508.4V77.3998H510.3C510.8 77.3998 511.2 77.3998 511.4 77.2998C511.7 77.1998 511.9 77.0998 512 76.8998C512.1 76.7998 512.2 76.5998 512.3 76.3998C512.3 76.1998 512.4 75.9998 512.4 75.8998V72.4998H514.3V75.7998C514.3 75.9998 514.3 76.2998 514.4 76.3998C514.5 76.5998 514.6 76.6998 514.7 76.7998C514.8 76.8998 514.9 76.9998 515.1 77.0998C515.2 77.1998 515.4 77.1998 515.5 77.2998C515.6 77.2998 515.8 77.3998 515.9 77.3998C516 77.3998 516.1 77.3998 516.1 77.3998H516.9V77.4998ZM511 67.9998L512.7 66.2998L514.4 67.9998L512.7 69.6998L511 67.9998Z" fill="#707786"/>
<path d="M527.5 77.5004V79.4004H525.7C525.1 79.4004 524.6 79.3004 524.1 79.1004C523.6 78.9004 523.3 78.7004 523 78.3004C522.3 79.0004 521.3 79.3004 519.9 79.3004H516.5V77.4004H519.9C520.4 77.4004 520.8 77.4004 521 77.3004C521.3 77.2004 521.5 77.1004 521.6 76.9004C521.7 76.8004 521.8 76.6004 521.9 76.4004C521.9 76.2004 522 76.0004 522 75.9004V72.5004H523.9V75.8004C523.9 76.0004 523.9 76.3004 524 76.4004C524.1 76.6004 524.2 76.7004 524.3 76.8004C524.4 76.9004 524.5 77.0004 524.7 77.1004C524.8 77.2004 525 77.2004 525.1 77.3004C525.2 77.3004 525.4 77.4004 525.5 77.4004C525.6 77.4004 525.7 77.4004 525.7 77.4004H527.5V77.5004ZM524.2 70.1004L522.6 68.5004L524.2 66.9004L525.8 68.5004L524.2 70.1004ZM520.4 70.1004L518.8 68.5004L520.4 66.9004L522 68.5004L520.4 70.1004Z" fill="#707786"/>
<path d="M544.6 79.3C544 79.3 543.4 79.2 542.9 79C542.4 78.8 542 78.5 541.7 78.2L541.5 78.4C541.2 78.7 540.8 78.9 540.4 79.1C540 79.3 539.5 79.3 539.1 79.3C537.9 79.3 536.9 78.9 536.2 78.2C535.9 78.6 535.5 78.8 535 79C534.6 79.2 534.1 79.3 533.7 79.3H533.6C532.4 79.3 531.5 78.9 530.8 78.3C530.8 78.4 530.7 78.4 530.7 78.4C530 79 529.1 79.3 527.9 79.3H527V77.4H527.8C528.2 77.4 528.6 77.4 528.8 77.3C529.1 77.2 529.3 77.1 529.4 77C529.5 76.8 529.6 76.7 529.7 76.4C529.8 76.2 529.8 75.9 529.8 75.6V72.5H531.7V75.5C531.7 76.1 531.9 76.6 532.2 76.9C532.5 77.2 533 77.3 533.7 77.3C533.8 77.3 534 77.3 534.1 77.2C534.3 77.2 534.4 77.1 534.6 77C534.8 76.9 534.9 76.7 535 76.5C535.1 76.3 535.2 75.9 535.2 75.6V72.5H537.1V75.5C537.1 76.1 537.3 76.6 537.6 76.9C537.9 77.2 538.4 77.3 539.1 77.3C539.3 77.3 539.5 77.3 539.7 77.2C539.9 77.1 540.1 77 540.2 76.9C540.4 76.8 540.5 76.6 540.6 76.4C540.7 76.2 540.8 75.9 540.8 75.6V72.5H542.7V75.6C542.7 76.2 542.9 76.7 543.2 76.9C543.5 77.2 544 77.3 544.7 77.3H545.3V79.2L544.6 79.3Z" fill="#707786"/>
<path d="M544.801 79.3004V77.4004H550.701C551.201 77.4004 551.601 77.3004 551.901 77.2004C552.201 77.1004 552.401 76.9004 552.501 76.7004C552.501 76.6004 552.601 76.5004 552.601 76.4004C552.601 76.3004 552.601 76.1004 552.501 75.9004C552.401 75.7004 552.301 75.4004 552.101 75.1004C551.901 74.8004 551.601 74.4004 551.301 74.0004C551.001 73.6004 550.701 73.2004 550.301 72.9004C550.001 72.5004 549.601 72.1004 549.201 71.8004C548.801 71.4004 548.501 71.1004 548.101 70.8004C547.801 70.5004 547.501 70.2004 547.201 70.0004C546.901 69.8004 546.701 69.6004 546.501 69.5004L546.701 67.4004L555.901 63.4004L556.701 65.1004L548.701 68.6004C548.901 68.8004 549.201 69.1004 549.501 69.4004C549.801 69.7004 550.201 70.0004 550.501 70.4004C550.901 70.8004 551.201 71.2004 551.601 71.6004C552.001 72.0004 552.301 72.4004 552.701 72.8004C553.001 73.2004 553.301 73.6004 553.601 74.0004C553.901 74.4004 554.101 74.8004 554.201 75.1004C554.301 75.4004 554.401 75.7004 554.401 75.9004C554.401 76.1004 554.501 76.3004 554.501 76.5004C554.501 76.5004 554.501 76.6004 554.501 76.7004C554.501 76.8004 554.501 77.0004 554.401 77.1004C554.401 77.3004 554.301 77.4004 554.301 77.5004C554.201 77.7004 554.101 77.9004 554.001 78.1004C553.801 78.3004 553.601 78.5004 553.401 78.7004C553.101 78.9004 552.801 79.0004 552.401 79.1004C552.001 79.2004 551.501 79.3004 550.901 79.3004H544.801Z" fill="#707786"/>
<path d="M560.5 79.2996H558.6V65.0996H560.5V79.2996Z" fill="#707786"/>
<path d="M575.301 84.8996C574.401 84.8996 573.601 84.6996 572.901 84.2996C572.201 83.8996 571.601 83.3996 571.101 82.6996C570.901 82.3996 570.701 81.9996 570.601 81.5996C570.401 81.0996 570.301 80.5996 570.301 79.8996C570.301 79.7996 570.301 79.6996 570.301 79.5996C570.301 78.9996 570.401 78.2996 570.501 77.5996C570.701 76.7996 571.001 75.8996 571.501 74.7996L573.201 75.5996C572.901 76.1996 572.601 76.8996 572.501 77.3996C572.301 77.9996 572.201 78.4996 572.201 79.0996C572.201 79.2996 572.201 79.4996 572.201 79.5996C572.201 79.8996 572.201 80.2996 572.301 80.5996C572.401 80.9996 572.501 81.2996 572.701 81.6996C573.001 82.0996 573.301 82.4996 573.801 82.6996C574.301 82.8996 574.801 83.0996 575.301 83.0996H576.001C576.801 83.0996 577.401 82.9996 577.901 82.8996C578.401 82.6996 578.801 82.4996 579.001 82.1996C579.301 81.8996 579.501 81.5996 579.601 81.0996C579.701 80.6996 579.701 80.1996 579.701 79.6996V65.0996H581.601V79.5996C581.601 83.0996 579.701 84.8996 576.001 84.8996H575.301V84.8996Z" fill="#707786"/>
<path d="M589.2 79.2996C588.5 79.2996 587.9 79.1996 587.5 79.1996C587 79.0996 586.7 78.9996 586.3 78.7996C586 78.5996 585.7 78.3996 585.5 78.1996C585.3 77.8996 585.2 77.5996 585.1 77.2996C585 76.9996 584.9 76.5996 584.9 76.0996C584.9 75.6996 584.9 75.1996 584.9 74.6996V65.0996H586.8V74.6996C586.8 75.2996 586.8 75.7996 586.9 76.0996C586.9 76.4996 587 76.6996 587.2 76.8996C587.4 77.0996 587.6 77.1996 587.9 77.2996C588.2 77.3996 588.7 77.3996 589.3 77.3996L589.2 79.2996Z" fill="#707786"/>
<path d="M599.701 77.5004V79.4004H598.001C597.401 79.4004 596.901 79.3004 596.401 79.1004C595.901 78.9004 595.601 78.7004 595.301 78.3004C594.601 79.0004 593.601 79.3004 592.201 79.3004H588.801V77.4004H592.201C592.701 77.4004 593.101 77.4004 593.301 77.3004C593.601 77.2004 593.801 77.1004 593.901 76.9004C594.001 76.8004 594.101 76.6004 594.201 76.4004C594.201 76.2004 594.301 76.0004 594.301 75.9004V72.5004H596.201V75.8004C596.201 76.0004 596.201 76.3004 596.301 76.4004C596.401 76.6004 596.501 76.7004 596.601 76.8004C596.701 76.9004 596.801 77.0004 597.001 77.1004C597.101 77.2004 597.301 77.2004 597.401 77.3004C597.501 77.4004 597.701 77.4004 597.801 77.4004C597.901 77.4004 598.001 77.4004 598.001 77.4004H599.701V77.5004ZM596.501 70.1004L594.901 68.5004L596.501 66.9004L598.101 68.5004L596.501 70.1004ZM592.601 70.1004L591.001 68.5004L592.601 66.9004L594.201 68.5004L592.601 70.1004Z" fill="#707786"/>
<path d="M610.199 77.5V79.4H608.399C607.799 79.4 607.299 79.3 606.799 79.1C606.299 78.9 605.999 78.7 605.699 78.3C604.999 79 603.999 79.3 602.599 79.3H599.199V77.4H602.599C603.099 77.4 603.499 77.4 603.699 77.3C603.999 77.2 604.199 77.1 604.299 76.9C604.399 76.8 604.499 76.6 604.599 76.4C604.599 76.2 604.699 76 604.699 75.9V72.5H606.599V75.8C606.599 76 606.599 76.3 606.699 76.4C606.799 76.6 606.899 76.7 606.999 76.8C607.099 76.9 607.199 77 607.399 77.1C607.499 77.2 607.699 77.2 607.799 77.3C607.899 77.3 608.099 77.4 608.199 77.4C608.299 77.4 608.399 77.4 608.399 77.4H610.199V77.5ZM607.399 83.2L605.799 84.8L604.199 83.2L605.799 81.6L607.399 83.2ZM603.599 83.2L601.999 84.8L600.399 83.2L601.999 81.6L603.599 83.2Z" fill="#707786"/>
<path d="M620.699 77.5V79.4H618.899C618.299 79.4 617.799 79.3 617.299 79.1C616.799 78.9 616.499 78.7 616.199 78.3C615.499 79 614.499 79.3 613.099 79.3H609.699V77.4H613.099C613.599 77.4 613.999 77.4 614.199 77.3C614.499 77.2 614.699 77.1 614.799 76.9C614.899 76.8 614.999 76.6 615.099 76.4C615.099 76.2 615.199 76 615.199 75.9V72.5H617.099V75.8C617.099 76 617.099 76.3 617.199 76.4C617.299 76.6 617.399 76.7 617.499 76.8C617.599 76.9 617.699 77 617.899 77.1C617.999 77.2 618.199 77.2 618.299 77.3C618.399 77.3 618.599 77.4 618.699 77.4C618.799 77.4 618.899 77.4 618.899 77.4H620.699V77.5ZM614.799 87.2L613.399 85.8L614.799 84.4L616.199 85.8L614.799 87.2ZM618.299 82.8L616.699 84.4L615.099 82.8L616.699 81.2L618.299 82.8ZM614.499 82.9L612.899 84.5L611.299 82.9L612.899 81.3L614.499 82.9Z" fill="#707786"/>
<path d="M620.199 79.3004V77.4004H626.099C626.599 77.4004 626.999 77.3004 627.299 77.2004C627.599 77.1004 627.799 76.9004 627.899 76.7004C627.899 76.6004 627.999 76.5004 627.999 76.4004C627.999 76.3004 627.999 76.1004 627.899 75.9004C627.799 75.7004 627.699 75.4004 627.499 75.1004C627.299 74.8004 626.999 74.4004 626.699 74.0004C626.399 73.6004 626.099 73.2004 625.699 72.9004C625.399 72.5004 624.999 72.1004 624.599 71.8004C624.199 71.4004 623.899 71.1004 623.499 70.8004C623.199 70.5004 622.799 70.2004 622.599 70.0004C622.299 69.8004 622.099 69.6004 621.899 69.5004L622.099 67.4004L631.199 63.4004L631.999 65.1004L623.999 68.6004C624.199 68.8004 624.499 69.1004 624.799 69.4004C625.099 69.7004 625.499 70.0004 625.799 70.4004C626.199 70.8004 626.499 71.2004 626.899 71.6004C627.299 72.0004 627.599 72.4004 627.999 72.8004C628.299 73.2004 628.599 73.6004 628.899 74.0004C629.199 74.4004 629.399 74.8004 629.499 75.1004C629.599 75.4004 629.699 75.7004 629.699 75.9004C629.699 76.1004 629.699 76.3004 629.699 76.5004C629.699 76.5004 629.699 76.6004 629.699 76.7004C629.699 76.8004 629.699 77.0004 629.599 77.1004C629.599 77.3004 629.499 77.4004 629.499 77.5004C629.399 77.7004 629.299 77.9004 629.199 78.1004C628.999 78.3004 628.799 78.5004 628.499 78.7004C628.199 78.9004 627.899 79.0004 627.499 79.1004C627.099 79.2004 626.599 79.3004 625.999 79.3004H620.199Z" fill="#707786"/>
<path d="M639 84.8996V82.9996H640.4C641.1 82.9996 641.7 82.8996 642.2 82.7996C642.7 82.5996 643.1 82.3996 643.4 81.9996C643.7 81.6996 644 81.1996 644.1 80.6996C644.3 80.1996 644.3 79.4996 644.3 78.7996V72.5996H646.2V78.7996C646.2 79.7996 646.1 80.5996 645.8 81.2996C645.6 82.0996 645.2 82.6996 644.7 83.1996C644.2 83.6996 643.6 84.0996 642.9 84.3996C642.2 84.6996 641.3 84.7996 640.3 84.7996H639V84.8996Z" fill="#707786"/>
<path d="M652.699 79.4998C652.399 79.4998 651.999 79.4998 651.699 79.3998C651.399 79.3998 650.999 79.2998 650.699 79.2998C650.399 79.1998 650.099 79.0998 649.799 79.0998C649.499 78.9998 649.199 78.8998 648.999 78.6998L648.199 78.1998L649.099 76.4998L649.899 76.9998C650.099 77.0998 650.399 77.1998 650.799 77.2998C651.099 77.3998 651.499 77.3998 651.899 77.4998C652.199 77.4998 652.599 77.4998 652.899 77.4998C652.999 77.4998 653.099 77.4998 653.299 77.4998C653.499 77.4998 653.799 77.4998 654.099 77.3998C654.499 77.2998 654.799 77.2998 655.099 77.1998C655.399 77.0998 655.499 76.9998 655.599 76.7998C655.599 76.6998 655.599 76.6998 655.599 76.5998C655.599 76.4998 655.599 76.2998 655.499 76.0998C655.399 75.8998 655.299 75.5998 655.099 75.2998L651.499 69.7998L653.099 68.7998C653.199 68.8998 653.299 69.0998 653.399 69.1998C653.499 69.2998 653.599 69.4998 653.699 69.6998C653.799 69.8998 653.999 70.0998 654.099 70.3998C654.299 70.6998 654.499 70.9998 654.699 71.2998C654.899 71.5998 655.199 72.0998 655.499 72.5998C655.799 73.0998 656.199 73.5998 656.599 74.2998C656.799 74.5998 656.899 74.7998 656.999 75.0998C657.099 75.3998 657.199 75.6998 657.299 75.8998C657.399 76.1998 657.399 76.3998 657.399 76.6998C657.399 76.6998 657.399 76.7998 657.399 76.9998C657.399 77.1998 657.299 77.3998 657.199 77.5998C656.799 78.4998 655.799 79.0998 654.299 79.2998C654.099 79.2998 653.799 79.3998 653.599 79.3998C653.299 79.4998 652.999 79.4998 652.699 79.4998Z" fill="#707786"/>
<path d="M106.1 24.3998H102.2L101.8 5.2998H106.6L106.1 24.3998ZM104.1 34.8998L101 31.7998L104.2 28.5998L107.3 31.7998L104.1 34.8998Z" fill="#062652"/>
<path d="M130 32.6002H128.6C127.1 32.6002 125.6 31.9002 124.2 30.6002C123.8 31.0002 123.4 31.4002 122.8 31.7002C122.3 32.0002 121.7 32.2002 121.1 32.4002C120.5 32.6002 119.9 32.7002 119.3 32.8002C118.7 32.9002 118.1 32.9002 117.5 32.9002C117.1 32.9002 116.6 32.9002 116.2 32.8002C115.8 32.8002 115.2 32.7002 114.7 32.5002C114.1 32.4002 113.5 32.2002 112.7 32.0002C112 31.8002 111.1 31.5002 110.1 31.2002L111.3 27.1002C112 27.4002 112.7 27.6002 113.5 27.8002C114.2 28.0002 115 28.2002 115.7 28.3002C116.4 28.4002 117.1 28.5002 117.8 28.5002C118.1 28.5002 118.3 28.5002 118.6 28.5002C119 28.5002 119.3 28.5002 119.8 28.4002C120.2 28.3002 120.6 28.2002 121 28.0002C121.4 27.8002 121.6 27.5002 121.7 27.2002C121.8 27.1002 121.8 26.9002 121.8 26.8002C121.8 26.7002 121.8 26.6002 121.7 26.4002C121.6 26.3002 121.5 26.1002 121.4 25.9002C121.3 25.7002 121.1 25.4002 120.9 25.1002L114.8 16.5002L118.4 14.2002L124.6 23.5002C124.9 24.0002 125.3 24.5002 125.7 25.1002C126.1 25.6002 126.4 26.1002 126.8 26.6002C127.2 27.0002 127.5 27.4002 127.9 27.7002C128.2 28.0002 128.6 28.1002 128.9 28.1002H130.3V32.6002C130.3 32.6002 130 32.6002 130 32.6002Z" fill="#062652"/>
<path d="M142.2 18.0996C142.2 18.1996 142.3 18.3996 142.3 18.6996C142.4 18.9996 142.5 19.3996 142.6 19.7996C142.7 20.1996 142.8 20.6996 142.9 21.1996C143 21.6996 143.1 22.2996 143.2 22.7996C143.3 23.2996 143.4 23.7996 143.4 24.3996C143.5 24.8996 143.5 25.3996 143.5 25.6996C143.5 26.8996 143.3 27.8996 142.9 28.7996C142.5 29.6996 142 30.3996 141.4 30.8996C140.8 31.4996 140.1 31.8996 139.3 32.1996C138.5 32.4996 137.7 32.5996 136.9 32.5996H129.5V28.2996H137.1C137.2 28.2996 137.4 28.2996 137.7 28.1996C138 28.1996 138.2 27.9996 138.5 27.8996C138.8 27.6996 139 27.4996 139.2 27.0996C139.4 26.6996 139.5 26.2996 139.5 25.5996C139.5 25.2996 139.5 24.9996 139.4 24.6996C139.4 24.2996 139.3 23.8996 139.2 23.4996C139.1 23.0996 139.1 22.6996 139 22.1996C138.9 21.7996 138.8 21.3996 138.8 20.9996C138.7 20.5996 138.6 20.2996 138.6 19.8996C138.5 19.5996 138.5 19.2996 138.4 19.1996L142.2 18.0996ZM140.2 41.9996L137.3 39.0996L140.2 36.0996L143.2 39.0996L140.2 41.9996ZM132.9 41.9996L130 39.0996L132.8 36.0996L135.8 39.0996L132.9 41.9996Z" fill="#062652"/>
<path d="M160.9 32.6002H160.2C159.7 32.6002 159.3 32.6002 158.9 32.5002C158.5 32.4002 158.1 32.3002 157.7 32.0002C157.6 33.5002 157.2 34.8002 156.7 36.0002C156.2 37.2002 155.4 38.2002 154.5 39.1002C153.6 40.0002 152.5 40.6002 151.3 41.1002C150 41.6002 148.6 41.8002 147.1 41.8002H144.9V37.5002H147.1C148.2 37.5002 149.2 37.4002 150 37.2002C150.8 37.0002 151.5 36.6002 152 36.1002C152.5 35.6002 152.9 34.9002 153.2 34.1002C153.5 33.3002 153.6 32.3002 153.6 31.1002V20.7002H157.9V25.9002C157.9 26.4002 158 26.9002 158.2 27.2002C158.4 27.5002 158.7 27.8002 159 28.0002C159.3 28.2002 159.6 28.3002 159.9 28.3002C160.2 28.4002 160.4 28.4002 160.5 28.4002H161.2V32.6002H160.9Z" fill="#062652"/>
<path d="M178.799 28.2996V32.5996H176.199C175.199 32.5996 174.299 32.4996 173.499 32.1996C172.699 31.8996 171.999 31.4996 171.499 30.9996C170.899 31.4996 170.099 31.8996 169.199 32.1996C168.299 32.4996 167.299 32.5996 166.199 32.5996H160.199V28.2996H166.199C166.899 28.2996 167.499 28.1996 167.899 28.0996C168.299 27.9996 168.599 27.7996 168.799 27.5996C168.999 27.3996 169.199 27.1996 169.199 26.8996C169.299 26.6996 169.299 26.3996 169.299 26.1996V20.5996H173.599V26.0996C173.599 26.5996 173.699 26.9996 173.899 27.2996C174.099 27.5996 174.399 27.7996 174.699 27.9996C174.999 28.0996 175.299 28.1996 175.599 28.2996C175.899 28.2996 176.099 28.2996 176.199 28.2996C176.199 28.2996 178.799 28.2996 178.799 28.2996ZM171.899 42.0996L168.999 39.1996L171.899 36.1996L174.899 39.1996L171.899 42.0996ZM164.599 42.0996L161.699 39.1996L164.599 36.1996L167.599 39.1996L164.599 42.0996Z" fill="#062652"/>
<path d="M200.3 32.5998H199.8C198.8 32.5998 197.9 32.4998 197.2 32.2998C196.5 32.0998 195.8 31.7998 195.2 31.4998C194.6 31.1998 194 30.6998 193.5 30.2998C193 29.7998 192.5 29.2998 192 28.6998C191.7 29.3998 191.3 29.9998 190.7 30.4998C190.1 30.9998 189.4 31.3998 188.6 31.6998C187.8 31.9998 187 32.1998 186.1 32.3998C185.3 32.4998 184.6 32.5998 183.8 32.5998H178V28.2998H183.6C184.4 28.2998 185.1 28.2998 185.7 28.1998C186.3 28.0998 186.9 27.9998 187.4 27.7998C187.9 27.5998 188.2 27.2998 188.5 26.9998C188.8 26.6998 188.9 26.2998 189 25.7998C189 25.2998 188.8 24.6998 188.4 23.8998C188 23.0998 187.4 22.2998 186.8 21.3998C186.1 20.4998 185.4 19.4998 184.5 18.3998C183.7 17.3998 182.8 16.2998 181.9 15.1998L182.6 11.6998L197.6 4.3998L199.4 8.2998L186.3 14.3998C187.4 15.8998 188.5 17.2998 189.5 18.6998C190.6 20.0998 191.7 21.5998 192.7 22.9998C193.3 23.7998 193.9 24.5998 194.4 25.1998C194.9 25.7998 195.5 26.3998 196 26.7998C196.5 27.1998 197.1 27.5998 197.7 27.7998C198.3 27.9998 198.9 28.0998 199.7 28.0998H200.2V32.5998H200.3V32.5998ZM182.9 6.4998L196.1 0.799805L197 2.6998L182.7 8.8998L182.9 6.4998Z" fill="#062652"/>
<path d="M209.599 18.0996C209.599 18.1996 209.699 18.3996 209.699 18.6996C209.799 18.9996 209.899 19.3996 209.999 19.7996C210.099 20.1996 210.199 20.6996 210.299 21.1996C210.399 21.6996 210.499 22.2996 210.599 22.7996C210.699 23.2996 210.799 23.7996 210.799 24.3996C210.899 24.8996 210.899 25.3996 210.899 25.6996C210.899 26.8996 210.699 27.8996 210.299 28.7996C209.899 29.6996 209.399 30.3996 208.799 30.8996C208.199 31.4996 207.499 31.8996 206.699 32.1996C205.899 32.4996 205.099 32.5996 204.299 32.5996H199.699V28.2996H204.399C204.499 28.2996 204.699 28.2996 204.999 28.1996C205.299 28.1996 205.499 27.9996 205.799 27.8996C206.099 27.6996 206.299 27.4996 206.499 27.0996C206.699 26.6996 206.799 26.2996 206.799 25.5996C206.799 25.2996 206.799 24.9996 206.699 24.6996C206.699 24.2996 206.599 23.8996 206.499 23.4996C206.399 23.0996 206.399 22.6996 206.299 22.1996C206.199 21.7996 206.099 21.3996 206.099 20.9996C205.999 20.5996 205.899 20.2996 205.899 19.8996C205.799 19.5996 205.799 19.2996 205.699 19.1996L209.599 18.0996ZM202.099 38.5996L205.199 35.4996L208.399 38.6996L205.299 41.7996L202.099 38.5996Z" fill="#062652"/>
<path d="M232.7 32.6004C231.6 32.6004 230.6 32.4004 229.6 32.1004C228.7 31.8004 227.9 31.3004 227.2 30.8004C226.5 30.2004 226 29.5004 225.6 28.7004C225.2 27.9004 225 27.0004 225 26.0004C225 25.0004 225.1 24.2004 225.4 23.4004C225.6 22.6004 226 21.9004 226.4 21.3004C226.8 20.6004 227.3 20.0004 227.8 19.4004C228.4 18.8004 228.9 18.2004 229.5 17.5004L228.4 16.3004L231.6 13.4004C231.7 13.5004 231.9 13.7004 232 13.9004C232.2 14.1004 232.3 14.3004 232.5 14.5004C232.7 14.7004 232.9 14.9004 233 15.1004C233.2 15.3004 233.3 15.5004 233.5 15.6004C234.3 16.5004 235.1 17.4004 235.9 18.2004C236.7 19.0004 237.4 19.9004 238 20.7004C238.6 21.5004 239.1 22.4004 239.5 23.2004C239.9 24.0004 240 24.9004 240 25.8004V25.9004C240 26.9004 239.8 27.8004 239.4 28.6004C239 29.4004 238.4 30.1004 237.7 30.8004C237 31.4004 236.2 31.8004 235.3 32.2004C234.7 32.4004 233.8 32.6004 232.7 32.6004ZM232.5 20.2004C232 20.7004 231.6 21.2004 231.2 21.7004C230.8 22.2004 230.4 22.6004 230.1 23.1004C229.8 23.6004 229.6 24.0004 229.4 24.5004C229.3 24.9004 229.2 25.3004 229.2 25.8004C229.2 25.9004 229.2 26.0004 229.2 26.1004C229.2 26.5004 229.4 26.9004 229.6 27.2004C229.8 27.5004 230.1 27.8004 230.4 28.0004C230.7 28.2004 231.1 28.3004 231.5 28.4004C231.9 28.5004 232.3 28.5004 232.7 28.5004C233.1 28.5004 233.6 28.4004 234 28.3004C234.4 28.2004 234.8 28.0004 235.1 27.8004C235.4 27.6004 235.7 27.3004 235.8 27.0004C236 26.7004 236.1 26.3004 236.1 25.9004C236.1 25.4004 236 24.9004 235.8 24.4004C235.6 23.9004 235.3 23.5004 235 23.0004C234.7 22.5004 234.3 22.1004 233.9 21.6004C233.4 21.1004 233 20.6004 232.5 20.2004Z" fill="#062652"/>
<path d="M254.5 32.5996H253.8C253.3 32.5996 252.9 32.5996 252.5 32.4996C252.1 32.3996 251.7 32.2996 251.3 31.9996C251.2 33.4996 250.8 34.7996 250.3 35.9996C249.8 37.1996 249 38.1996 248.1 39.0996C247.2 39.9996 246.1 40.5996 244.9 41.0996C243.6 41.5996 242.2 41.7996 240.7 41.7996H238.5V37.4996H240.7C241.8 37.4996 242.8 37.3996 243.6 37.1996C244.4 36.9996 245.1 36.5996 245.6 36.0996C246.1 35.5996 246.5 34.8996 246.8 34.0996C247.1 33.2996 247.2 32.2996 247.2 31.0996V20.6996H251.5V25.8996C251.5 26.3996 251.6 26.8996 251.8 27.1996C252 27.4996 252.3 27.7996 252.6 27.9996C252.9 28.1996 253.2 28.2996 253.5 28.2996C253.8 28.3996 254 28.3996 254.1 28.3996H254.8V32.5996H254.5ZM246 13.6996L249.1 10.5996L252.3 13.7996L249.2 16.8996L246 13.6996Z" fill="#062652"/>
<path d="M266.7 18.0996C266.7 18.1996 266.8 18.3996 266.8 18.6996C266.9 18.9996 267 19.3996 267.1 19.7996C267.2 20.1996 267.3 20.6996 267.4 21.1996C267.5 21.6996 267.6 22.2996 267.7 22.7996C267.8 23.2996 267.9 23.7996 267.9 24.3996C268 24.8996 268 25.3996 268 25.6996C268 26.8996 267.8 27.8996 267.4 28.7996C267 29.6996 266.5 30.3996 265.9 30.8996C265.3 31.4996 264.6 31.8996 263.8 32.1996C263 32.4996 262.2 32.5996 261.4 32.5996H254V28.2996H261.6C261.7 28.2996 261.9 28.2996 262.2 28.1996C262.5 28.1996 262.7 27.9996 263 27.8996C263.3 27.6996 263.5 27.4996 263.7 27.0996C263.9 26.6996 264 26.2996 264 25.5996C264 25.2996 264 24.9996 263.9 24.6996C263.9 24.2996 263.8 23.8996 263.7 23.4996C263.6 23.0996 263.6 22.6996 263.5 22.1996C263.4 21.7996 263.3 21.3996 263.3 20.9996C263.2 20.5996 263.1 20.2996 263.1 19.8996C263 19.5996 263 19.2996 262.9 19.1996L266.7 18.0996ZM264.7 41.9996L261.8 39.0996L264.7 36.0996L267.7 39.0996L264.7 41.9996ZM257.4 41.9996L254.5 39.0996L257.4 36.0996L260.4 39.0996L257.4 41.9996Z" fill="#062652"/>
<path d="M280.8 32.6002C279.5 32.6002 278.4 32.5002 277.5 32.4002C276.6 32.3002 275.8 32.0002 275.2 31.7002C274.6 31.4002 274.1 31.0002 273.7 30.5002C273.3 30.0002 273.1 29.5002 272.9 28.8002C272.7 28.2002 272.6 27.5002 272.5 26.7002C272.4 25.9002 272.4 25.0002 272.4 24.0002V7.7002H276.7V24.1002C276.7 25.0002 276.7 25.8002 276.8 26.3002C276.9 26.9002 277 27.3002 277.3 27.6002C277.6 27.9002 278 28.1002 278.5 28.2002C279.1 28.3002 279.8 28.3002 280.8 28.3002V32.6002Z" fill="#062652"/>
<path d="M303.9 25.7C303.8 25.7 303.5 25.9 303 26.3C302.5 26.7 301.8 27.1 300.9 27.6C300 28.1 299 28.6 297.8 29.2C296.6 29.8 295.4 30.3 294 30.8C292.6 31.3 291.2 31.7 289.7 32C288.2 32.3 286.7 32.5 285.2 32.5H280V28.2H285.2C286.3 28.2 287.5 28.1 288.8 27.9C290.1 27.7 291.3 27.4 292.6 27C293.8 26.6 295 26.2 296.1 25.8C297.2 25.4 298.2 24.9 299 24.5C298.5 24.3 297.9 24.2 297.3 24C296.7 23.8 296.1 23.6 295.4 23.4C294.8 23.2 294.1 23 293.5 22.8C292.9 22.6 292.3 22.5 291.7 22.3C291.1 22.2 290.7 22.1 290.2 22C289.8 21.9 289.4 21.9 289.2 21.9C288.9 21.9 288.7 21.9 288.5 22C288.3 22.1 288.1 22.2 288 22.3C287.8 22.4 287.7 22.6 287.6 22.9C287.5 23.1 287.3 23.4 287.2 23.7L283.2 22.5C283.4 21.8 283.7 21.2 284 20.6C284.3 20 284.7 19.5 285.2 19C285.7 18.6 286.2 18.2 286.8 17.9C287.4 17.6 288.1 17.5 288.9 17.5C289.2 17.5 289.6 17.6 290.2 17.7C290.8 17.8 291.4 18 292.1 18.2C292.8 18.4 293.6 18.6 294.3 18.9C295.1 19.2 295.9 19.4 296.7 19.7C297.5 20 298.3 20.3 299 20.5C299.8 20.8 300.4 21 301.1 21.3C301.7 21.5 302.2 21.7 302.6 21.9C303 22 303.3 22.1 303.4 22.2L303.9 25.7ZM288.9 38.5L292 35.4L295.2 38.6L292.1 41.7L288.9 38.5Z" fill="#062652"/>
<path d="M320.999 37.5998C321.899 37.5998 322.699 37.5998 323.499 37.4998C324.199 37.3998 324.899 37.3998 325.399 37.1998C325.999 37.0998 326.499 36.8998 326.899 36.6998C327.299 36.4998 327.699 36.2998 327.999 35.9998C328.499 35.5998 328.799 35.1998 329.099 34.5998C329.399 34.0998 329.499 33.3998 329.499 32.4998H326.799C326.199 32.4998 325.599 32.4998 324.999 32.3998C324.399 32.2998 323.799 32.1998 323.299 31.8998C322.699 31.6998 322.199 31.3998 321.699 30.9998C321.199 30.5998 320.799 30.1998 320.399 29.6998C319.999 29.1998 319.799 28.4998 319.499 27.7998C319.299 27.0998 319.199 26.2998 319.199 25.2998C319.199 24.4998 319.299 23.7998 319.399 23.1998C319.499 22.5998 319.699 21.9998 319.899 21.5998C320.099 21.0998 320.399 20.6998 320.599 20.3998C320.899 19.9998 321.099 19.6998 321.399 19.4998C322.099 18.7998 322.899 18.2998 323.699 17.8998C324.599 17.4998 325.499 17.2998 326.499 17.2998C327.799 17.2998 328.799 17.4998 329.699 17.9998C330.599 18.3998 331.299 18.9998 331.899 19.7998C332.499 20.5998 332.899 21.4998 333.199 22.4998C333.499 23.4998 333.599 24.6998 333.599 25.8998V31.9998C333.599 33.6998 333.299 35.1998 332.799 36.2998C332.299 37.4998 331.499 38.4998 330.399 39.2998C329.899 39.6998 329.299 40.0998 328.699 40.3998C328.099 40.6998 327.399 40.9998 326.599 41.1998C325.799 41.3998 324.999 41.5998 323.999 41.5998C323.099 41.6998 321.999 41.7998 320.799 41.7998V37.5998H320.999V37.5998ZM326.699 21.6998C325.699 21.6998 324.899 21.9998 324.399 22.5998C323.799 23.1998 323.499 24.1998 323.499 25.4998C323.499 25.9998 323.599 26.3998 323.799 26.7998C323.999 27.1998 324.299 27.4998 324.599 27.6998C324.899 27.8998 325.299 28.0998 325.699 28.1998C326.099 28.2998 326.499 28.3998 326.899 28.3998H329.599V25.9998C329.599 25.2998 329.499 24.7998 329.399 24.2998C329.299 23.7998 329.199 23.3998 328.999 23.0998C328.799 22.7998 328.599 22.4998 328.399 22.3998C328.199 22.1998 327.999 22.0998 327.799 21.9998C327.599 21.8998 327.399 21.8998 327.199 21.7998C326.999 21.6998 326.799 21.6998 326.699 21.6998Z" fill="#062652"/>
<path d="M368.5 32.6002H367.1C365.6 32.6002 364.1 31.9002 362.7 30.6002C362.3 31.0002 361.9 31.4002 361.3 31.7002C360.8 32.0002 360.2 32.2002 359.6 32.4002C359 32.6002 358.4 32.7002 357.8 32.8002C357.2 32.9002 356.6 32.9002 356 32.9002C355.6 32.9002 355.1 32.9002 354.7 32.8002C354.3 32.8002 353.7 32.7002 353.2 32.5002C352.6 32.4002 352 32.2002 351.2 32.0002C350.5 31.8002 349.6 31.5002 348.6 31.2002L349.8 27.1002C350.5 27.4002 351.2 27.6002 352 27.8002C352.7 28.0002 353.5 28.2002 354.2 28.3002C354.9 28.4002 355.6 28.5002 356.3 28.5002C356.6 28.5002 356.8 28.5002 357.1 28.5002C357.5 28.5002 357.8 28.5002 358.3 28.4002C358.7 28.3002 359.1 28.2002 359.5 28.0002C359.9 27.8002 360.1 27.5002 360.2 27.2002C360.3 27.1002 360.3 26.9002 360.3 26.8002C360.3 26.7002 360.3 26.6002 360.2 26.4002C360.1 26.3002 360 26.1002 359.9 25.9002C359.8 25.7002 359.6 25.4002 359.4 25.1002L353.3 16.5002L356.9 14.2002L363.1 23.5002C363.4 24.0002 363.8 24.5002 364.2 25.1002C364.6 25.6002 364.9 26.1002 365.3 26.6002C365.7 27.0002 366 27.4002 366.4 27.7002C366.7 28.0002 367.1 28.1002 367.4 28.1002H368.8V32.6002C368.8 32.6002 368.5 32.6002 368.5 32.6002Z" fill="#062652"/>
<path d="M386.299 28.2996V32.5996H383.699C382.699 32.5996 381.799 32.4996 380.999 32.1996C380.199 31.8996 379.499 31.4996 378.999 30.9996C378.399 31.4996 377.599 31.8996 376.699 32.1996C375.799 32.4996 374.799 32.5996 373.699 32.5996H367.699V28.2996H373.699C374.399 28.2996 374.999 28.1996 375.399 28.0996C375.799 27.9996 376.099 27.7996 376.299 27.5996C376.499 27.3996 376.699 27.1996 376.699 26.8996C376.799 26.6996 376.799 26.3996 376.799 26.1996V20.5996H381.099V26.0996C381.099 26.5996 381.199 26.9996 381.399 27.2996C381.599 27.5996 381.899 27.7996 382.199 27.9996C382.499 28.0996 382.799 28.1996 383.099 28.2996C383.399 28.2996 383.599 28.2996 383.699 28.2996H386.299ZM379.399 42.0996L376.499 39.1996L379.399 36.1996L382.399 39.1996L379.399 42.0996ZM372.199 42.0996L369.299 39.1996L372.199 36.1996L375.199 39.1996L372.199 42.0996Z" fill="#062652"/>
<path d="M399.8 28.2996V32.5996H398.7C397.7 32.5996 396.8 32.4996 396 32.1996C395.2 31.8996 394.5 31.4996 394 30.9996C393.4 31.4996 392.6 31.8996 391.7 32.1996C390.8 32.4996 389.8 32.5996 388.7 32.5996H385.6V28.2996H388.7C389.4 28.2996 390 28.1996 390.4 28.0996C390.8 27.9996 391.1 27.7996 391.3 27.5996C391.5 27.3996 391.7 27.1996 391.7 26.8996C391.8 26.6996 391.8 26.3996 391.8 26.1996V20.5996H396.1V26.0996C396.1 26.5996 396.2 26.9996 396.4 27.2996C396.6 27.5996 396.9 27.7996 397.2 27.9996C397.5 28.0996 397.8 28.1996 398.1 28.2996C398.4 28.2996 398.6 28.2996 398.7 28.2996H399.8ZM389.9 12.6996L393 9.59961L396.2 12.7996L393.1 15.8996L389.9 12.6996Z" fill="#062652"/>
<path d="M399.199 32.6002V28.3002H409.299C409.499 28.3002 409.699 28.3002 410.099 28.3002C410.399 28.3002 410.699 28.2002 411.099 28.2002C411.399 28.1002 411.699 28.0002 411.899 27.9002C412.099 27.8002 412.199 27.5002 412.199 27.3002C412.199 26.8002 411.999 26.2002 411.599 25.5002C411.199 24.8002 410.799 24.0002 410.199 23.3002C409.599 22.5002 408.999 21.7002 408.199 20.9002C407.499 20.1002 406.699 19.3002 405.999 18.6002C405.299 17.9002 404.599 17.2002 403.999 16.7002C403.399 16.1002 402.899 15.7002 402.499 15.5002L402.799 11.6002L417.799 4.7002L419.399 8.5002L406.799 14.1002C407.199 14.5002 407.699 15.0002 408.299 15.6002C408.899 16.1002 409.399 16.7002 409.999 17.3002C410.599 17.9002 411.099 18.5002 411.699 19.2002C412.299 19.8002 412.799 20.5002 413.299 21.2002C413.799 21.8002 414.299 22.5002 414.599 23.1002C414.999 23.7002 415.299 24.3002 415.499 24.9002C415.699 25.4002 415.799 25.8002 415.899 26.3002C415.999 26.7002 415.999 27.2002 415.999 27.5002C415.999 28.0002 415.999 28.4002 415.899 28.7002C415.799 29.0002 415.699 29.3002 415.599 29.6002C415.499 29.9002 415.199 30.3002 414.999 30.7002C414.699 31.1002 414.299 31.5002 413.799 31.8002C413.299 32.1002 412.599 32.4002 411.899 32.6002C411.099 32.8002 410.199 32.9002 409.099 32.9002H399.199V32.6002Z" fill="#062652"/>
<path d="M447.899 28.5996C447.999 28.5996 448.199 28.5996 448.399 28.5996C448.599 28.5996 448.799 28.4996 449.099 28.2996C449.299 28.0996 449.499 27.6996 449.699 27.2996C449.899 26.7996 449.999 26.0996 449.999 25.1996C449.999 25.0996 449.999 24.8996 449.899 24.6996C449.899 24.4996 449.799 24.1996 449.699 23.8996C449.599 23.5996 449.499 23.2996 449.399 22.9996C449.299 22.6996 449.099 22.3996 448.799 22.1996C448.599 21.9996 448.299 21.7996 447.899 21.5996C447.599 21.3996 447.199 21.3996 446.699 21.3996C446.499 21.3996 446.299 21.3996 446.099 21.3996C445.899 21.3996 445.699 21.4996 445.399 21.5996C445.199 21.6996 444.999 21.8996 444.699 22.0996C444.499 22.2996 444.299 22.5996 444.099 22.9996C443.899 23.3996 443.699 23.8996 443.499 24.4996C443.299 25.0996 443.199 25.7996 442.999 26.6996C443.399 26.8996 443.899 27.1996 444.399 27.3996C444.899 27.5996 445.299 27.7996 445.699 27.9996C446.099 28.1996 446.499 28.2996 446.899 28.3996C447.299 28.5996 447.599 28.5996 447.899 28.5996ZM446.599 17.0996C447.799 17.0996 448.799 17.2996 449.699 17.7996C450.599 18.1996 451.299 18.7996 451.899 19.4996C452.499 20.1996 452.999 21.0996 453.299 22.0996C453.599 23.0996 453.799 24.0996 453.799 25.1996C453.799 26.3996 453.699 27.3996 453.499 28.2996C453.299 29.0996 452.999 29.7996 452.699 30.3996C452.399 30.9996 451.999 31.3996 451.599 31.7996C451.199 32.0996 450.799 32.3996 450.299 32.5996C449.899 32.7996 449.499 32.8996 449.099 32.8996C448.699 32.9996 448.399 32.9996 448.099 32.9996C447.599 32.9996 447.099 32.8996 446.399 32.6996C445.799 32.4996 445.099 32.2996 444.399 31.9996C443.699 31.6996 442.999 31.3996 442.199 30.9996C441.399 30.5996 440.699 30.1996 439.899 29.7996C439.599 29.6996 439.299 29.4996 439.099 29.3996C438.899 29.2996 438.599 29.1996 438.399 28.9996C438.199 28.8996 437.899 28.7996 437.699 28.5996C437.499 28.4996 437.199 28.2996 436.899 28.1996C436.899 30.7996 436.899 33.3996 436.899 35.9996C436.899 38.5996 436.899 41.1996 436.899 43.7996H432.699V25.8996L436.699 23.3996L439.499 24.7996C439.699 23.7996 439.999 22.7996 440.299 21.8996C440.599 20.9996 441.099 20.0996 441.599 19.3996C442.099 18.6996 442.799 18.0996 443.599 17.6996C444.399 17.2996 445.299 17.0996 446.399 17.0996C446.399 17.0996 446.599 17.0996 446.599 17.0996Z" fill="#062652"/>
<path d="M466.8 32.6002C465.5 32.6002 464.4 32.5002 463.5 32.4002C462.6 32.3002 461.8 32.0002 461.2 31.7002C460.6 31.4002 460.1 31.0002 459.7 30.5002C459.3 30.0002 459 29.5002 458.9 28.8002C458.7 28.2002 458.6 27.5002 458.5 26.7002C458.4 25.9002 458.4 25.0002 458.4 24.0002V7.7002H462.7V24.1002C462.7 25.0002 462.7 25.8002 462.8 26.3002C462.9 26.9002 463 27.3002 463.3 27.6002C463.6 27.9002 464 28.1002 464.5 28.2002C465.1 28.3002 465.8 28.3002 466.8 28.3002V32.6002Z" fill="#062652"/>
<path d="M476.099 18.0996C476.099 18.1996 476.199 18.3996 476.199 18.6996C476.299 18.9996 476.399 19.3996 476.499 19.7996C476.599 20.1996 476.699 20.6996 476.799 21.1996C476.899 21.6996 476.999 22.2996 477.099 22.7996C477.199 23.2996 477.299 23.7996 477.299 24.3996C477.399 24.8996 477.399 25.3996 477.399 25.6996C477.399 26.8996 477.199 27.8996 476.799 28.7996C476.399 29.6996 475.899 30.3996 475.299 30.8996C474.699 31.4996 473.999 31.8996 473.199 32.1996C472.399 32.4996 471.599 32.5996 470.799 32.5996H466.199V28.2996H470.899C470.999 28.2996 471.199 28.2996 471.499 28.1996C471.799 28.1996 471.999 27.9996 472.299 27.8996C472.599 27.6996 472.799 27.4996 472.999 27.0996C473.199 26.6996 473.299 26.2996 473.299 25.5996C473.299 25.2996 473.299 24.9996 473.199 24.6996C473.199 24.2996 473.099 23.8996 472.999 23.4996C472.899 23.0996 472.899 22.6996 472.799 22.1996C472.699 21.7996 472.599 21.3996 472.599 20.9996C472.499 20.5996 472.399 20.2996 472.399 19.8996C472.299 19.5996 472.299 19.2996 472.199 19.1996L476.099 18.0996ZM469.599 11.1996L472.699 8.09961L475.899 11.2996L472.799 14.3996L469.599 11.1996Z" fill="#062652"/>
<path d="M525.5 20.6998V25.7998C525.5 26.1998 525.6 26.4998 525.7 26.7998C525.8 27.0998 526 27.2998 526.2 27.4998C526.4 27.6998 526.6 27.7998 526.8 27.8998C527 27.9998 527.3 28.0998 527.5 28.0998C527.7 28.1998 527.9 28.1998 528.1 28.1998C528.3 28.1998 528.4 28.1998 528.5 28.1998H529.6V32.4998H528.5C528.1 32.4998 527.7 32.4998 527.2 32.3998C526.8 32.3998 526.3 32.2998 525.9 32.1998C525.5 32.0998 525 31.8998 524.6 31.6998C524.2 31.4998 523.8 31.1998 523.5 30.8998C522.2 31.8998 520.5 32.4998 518.4 32.4998H498.5C497.6 32.4998 496.8 32.3998 496.1 32.0998C495.3 31.7998 494.7 31.3998 494.1 30.7998C493.9 30.5998 493.6 30.2998 493.4 29.9998C493.2 29.6998 492.9 29.2998 492.7 28.8998C492.5 28.4998 492.3 27.9998 492.2 27.4998C492.1 26.9998 492 26.3998 492 25.6998C492 25.0998 492.1 24.4998 492.2 23.7998C492.3 23.0998 492.4 22.4998 492.6 21.8998C492.8 21.2998 492.9 20.7998 493 20.2998C493.1 19.8998 493.2 19.5998 493.2 19.4998L495.3 20.1998L497.3 20.7998C497.2 21.0998 497.1 21.4998 497 21.8998C496.9 22.2998 496.8 22.7998 496.7 23.1998C496.6 23.6998 496.5 24.0998 496.4 24.4998C496.3 24.8998 496.3 25.2998 496.3 25.5998C496.3 26.1998 496.4 26.5998 496.5 26.8998C496.7 27.1998 496.9 27.4998 497.1 27.6998C497.3 27.8998 497.6 27.9998 497.8 27.9998C498.1 28.0998 498.3 28.0998 498.5 28.0998H518.3C518.9 28.0998 519.5 27.9998 519.9 27.8998C520.3 27.7998 520.7 27.5998 520.9 27.3998C521.2 27.0998 521.3 26.6998 521.3 26.0998V20.3998H525.5V20.6998ZM512.2 19.1998L509.3 16.2998L512.2 13.2998L515.2 16.2998L512.2 19.1998ZM505 19.1998L502.1 16.2998L505 13.2998L508 16.2998L505 19.1998Z" fill="#062652"/>
<path d="M543.001 28.2996V32.5996H541.901C540.901 32.5996 540.001 32.4996 539.201 32.1996C538.401 31.8996 537.701 31.4996 537.201 30.9996C536.601 31.4996 535.801 31.8996 534.901 32.1996C534.001 32.4996 533.001 32.5996 531.901 32.5996H528.801V28.2996H531.901C532.601 28.2996 533.201 28.1996 533.601 28.0996C534.001 27.9996 534.301 27.7996 534.601 27.5996C534.801 27.3996 535.001 27.1996 535.001 26.8996C535.101 26.6996 535.101 26.3996 535.101 26.1996V20.5996H539.401V26.0996C539.401 26.5996 539.501 26.9996 539.701 27.2996C539.901 27.5996 540.201 27.7996 540.501 27.9996C540.801 28.0996 541.101 28.1996 541.401 28.2996C541.701 28.2996 541.901 28.2996 542.001 28.2996C542.001 28.2996 543.001 28.2996 543.001 28.2996ZM532.501 38.7996L535.601 35.6996L538.801 38.8996L535.701 41.9996L532.501 38.7996Z" fill="#062652"/>
<path d="M555.1 18.0996C555.1 18.1996 555.2 18.3996 555.2 18.6996C555.3 18.9996 555.4 19.3996 555.5 19.7996C555.6 20.1996 555.7 20.6996 555.8 21.1996C555.9 21.6996 556 22.2996 556.1 22.7996C556.2 23.2996 556.3 23.7996 556.3 24.3996C556.4 24.8996 556.4 25.3996 556.4 25.6996C556.4 26.8996 556.2 27.8996 555.8 28.7996C555.4 29.6996 554.9 30.3996 554.3 30.8996C553.7 31.4996 553 31.8996 552.2 32.1996C551.4 32.4996 550.6 32.5996 549.8 32.5996H542.4V28.2996H550C550.1 28.2996 550.3 28.2996 550.6 28.1996C550.9 28.1996 551.1 27.9996 551.4 27.8996C551.7 27.6996 551.9 27.4996 552.1 27.0996C552.3 26.6996 552.4 26.2996 552.4 25.5996C552.4 25.2996 552.4 24.9996 552.3 24.6996C552.3 24.2996 552.2 23.8996 552.1 23.4996C552 23.0996 552 22.6996 551.9 22.1996C551.8 21.7996 551.7 21.3996 551.7 20.9996C551.6 20.5996 551.5 20.2996 551.5 19.8996C551.4 19.5996 551.4 19.2996 551.3 19.1996L555.1 18.0996ZM549 12.2996L546.1 15.2996L543.2 12.3996L546.1 9.39961L549 12.2996ZM556.4 12.1996L553.5 15.0996L550.5 12.1996L553.5 9.19961L556.4 12.1996ZM552.6 7.29961L549.8 10.0996L547.1 7.39961L549.9 4.59961L552.6 7.29961Z" fill="#062652"/>
<path d="M320.301 71.5002L321.101 63.7002H329.101V65.5002H322.801L322.301 69.7002C323.101 69.2002 323.901 69.0002 324.901 69.0002C326.301 69.0002 327.501 69.5002 328.301 70.4002C329.101 71.3002 329.601 72.6002 329.601 74.2002C329.601 75.8002 329.201 77.1002 328.301 78.0002C327.401 78.9002 326.201 79.4002 324.701 79.4002C323.301 79.4002 322.201 79.0002 321.301 78.3002C320.401 77.6002 319.901 76.5002 319.801 75.1002H321.701C321.801 76.0002 322.101 76.7002 322.701 77.1002C323.201 77.6002 323.901 77.8002 324.701 77.8002C325.601 77.8002 326.301 77.5002 326.901 76.9002C327.401 76.3002 327.701 75.4002 327.701 74.3002C327.701 73.3002 327.401 72.4002 326.801 71.8002C326.201 71.2002 325.501 70.9002 324.501 70.9002C323.601 70.9002 323.001 71.1002 322.501 71.5002L322.001 71.9002L320.301 71.5002Z" fill="#707786"/>
<path d="M168.6 71.7004L169.4 63.9004H177.4V65.7004H171.1L170.6 69.9004C171.4 69.4004 172.2 69.2004 173.2 69.2004C174.6 69.2004 175.8 69.7004 176.6 70.6004C177.4 71.5004 177.9 72.8004 177.9 74.4004C177.9 76.0004 177.5 77.3004 176.6 78.2004C175.7 79.1004 174.5 79.6004 173 79.6004C171.6 79.6004 170.5 79.2004 169.6 78.5004C168.7 77.8004 168.2 76.7004 168.1 75.3004H170C170.1 76.2004 170.4 76.9004 171 77.3004C171.5 77.8004 172.2 78.0004 173 78.0004C173.9 78.0004 174.6 77.7004 175.2 77.1004C175.7 76.5004 176 75.6004 176 74.5004C176 73.5004 175.7 72.6004 175.1 72.0004C174.5 71.4004 173.8 71.1004 172.8 71.1004C171.9 71.1004 171.3 71.3004 170.8 71.7004L170.3 72.1004L168.6 71.7004Z" fill="#707786"/>
</svg>
