<svg id="Layer_1" data-name="Layer 1" xmlns="http://www.w3.org/2000/svg" viewBox="0 0 185.92 74.84"><defs><style>.cls-1{fill:#3f444d;}.cls-2{fill:#062652;}</style></defs><path class="cls-1" d="M11.8,44.56a9.75,9.75,0,0,1,.09,1v.07a2.76,2.76,0,0,1-.16,1,2.26,2.26,0,0,1-.5.79,2.05,2.05,0,0,1-.63.44,1.8,1.8,0,0,1-.72.16H2.07a2.29,2.29,0,0,1-.78-.14,1.89,1.89,0,0,1-.64-.41,1.42,1.42,0,0,1-.23-.25,1.48,1.48,0,0,1-.21-.35,2.6,2.6,0,0,1-.15-.47A2.52,2.52,0,0,1,0,45.82a3.93,3.93,0,0,1,0-.46c0-.16.05-.32.08-.49s.07-.32.11-.47.07-.29.1-.42l.08-.3c0-.07,0-.12,0-.13l.74.24,0,.1-.07.28a2.8,2.8,0,0,0-.1.37c0,.15-.07.29-.1.44s-.06.3-.08.44a3,3,0,0,0,0,.4,1.62,1.62,0,0,0,.12.66,1.25,1.25,0,0,0,.29.44,1.14,1.14,0,0,0,.41.24,1.53,1.53,0,0,0,.47.07H9.88a1.1,1.1,0,0,0,.79-.35,1.49,1.49,0,0,0,.33-.56,1.78,1.78,0,0,0,.11-.67v0a8.54,8.54,0,0,0-.09-1c-.06-.35-.12-.67-.19-1l.77-.13C11.67,43.86,11.74,44.21,11.8,44.56Zm15.61,0a3.29,3.29,0,0,1,.16,1,4.87,4.87,0,0,1,0,.66,4.13,4.13,0,0,1-.14.63,2.44,2.44,0,0,1-.24.57,2,2,0,0,1-.36.45,1.5,1.5,0,0,1-.48.3,1.54,1.54,0,0,1-.63.11,2.56,2.56,0,0,1-.62-.07c-.2-.06-.42-.13-.64-.22s-.46-.21-.71-.34l-.83-.42a1.54,1.54,0,0,1-1.36.76H21a1.78,1.78,0,0,1-.59-.09,1.59,1.59,0,0,1-.48-.26,1.41,1.41,0,0,1-.37-.4,2.06,2.06,0,0,1-.25-.49,2,2,0,0,1-1.15,1,4,4,0,0,1-.87.2,9.06,9.06,0,0,1-1.09.06H13.59v-.79h2.56a6.72,6.72,0,0,0,1.12-.11,2.81,2.81,0,0,0,.77-.23,1.37,1.37,0,0,0,.48-.4,1.64,1.64,0,0,0,.27-.58,3.5,3.5,0,0,0,.11-.79c0-.3,0-.65,0-1V38.93h.78V44.1c0,.51,0,1,.05,1.36a4.09,4.09,0,0,0,.18,1,1.38,1.38,0,0,0,.39.59,1,1,0,0,0,.66.2h.53a.83.83,0,0,0,.43-.1,1,1,0,0,0,.31-.34,2.78,2.78,0,0,0,.26-.6c.07-.23.15-.47.22-.73s.17-.62.27-.93a3.27,3.27,0,0,1,.42-.86,2.11,2.11,0,0,1,1.84-1,1.82,1.82,0,0,1,.91.24,2.57,2.57,0,0,1,.77.71A3.25,3.25,0,0,1,27.41,44.57Zm-.62,1a2.63,2.63,0,0,0-.12-.77,2.55,2.55,0,0,0-.35-.7l-.16-.2-.23-.2a1.43,1.43,0,0,0-.3-.16.86.86,0,0,0-.36-.07,1.41,1.41,0,0,0-.69.15,1.31,1.31,0,0,0-.48.43,2.87,2.87,0,0,0-.33.68c-.1.27-.19.58-.28.92,0,.15-.09.31-.13.45s-.09.3-.14.44c.27.13.53.26.76.39s.45.23.65.31a3.92,3.92,0,0,0,.56.21,1.64,1.64,0,0,0,.42.06h.07a.85.85,0,0,0,.4-.1,1.11,1.11,0,0,0,.36-.33,1.87,1.87,0,0,0,.25-.6A3.42,3.42,0,0,0,26.79,45.59Zm15.75,26.9.79.8.79-.79-.81-.8Zm12.18-4.43a1.69,1.69,0,0,1,0,.23,2.68,2.68,0,0,1,0,.45,2.36,2.36,0,0,1-.23.59,1.72,1.72,0,0,1-.37.48,2.3,2.3,0,0,1-.51.35,2.92,2.92,0,0,1-.61.21,2.88,2.88,0,0,1-.65.07,3.68,3.68,0,0,1-.66-.06q-.32-.07-.63-.18c-.21-.08-.41-.16-.62-.26l-.61-.29a8.05,8.05,0,0,1-1.35.27,13.8,13.8,0,0,1-1.65.1H44.94a2.63,2.63,0,0,1-.8-.13,2.26,2.26,0,0,1-.67-.36,2,2,0,0,1-.29-.3,1.86,1.86,0,0,1-.82.59,3.4,3.4,0,0,1-1.19.2H39.08v0a1.43,1.43,0,0,1-.35-.06,2.52,2.52,0,0,1-.49-.25,3.16,3.16,0,0,1-.45-.37,2.67,2.67,0,0,1-.38-.45v0h0a1.43,1.43,0,0,1-.41.56,2.29,2.29,0,0,1-.62.38,3,3,0,0,1-.75.22,4.11,4.11,0,0,1-.78.07c-.28,0-.55,0-.79,0a5.4,5.4,0,0,1-.72-.14,4.16,4.16,0,0,1-.72-.26,5.67,5.67,0,0,1-.78-.39l.4-.68.34.21a2.44,2.44,0,0,0,.63.27,4.92,4.92,0,0,0,.78.18,5.69,5.69,0,0,0,.83.06h.08a3.77,3.77,0,0,0,.69-.06A2.34,2.34,0,0,0,36.3,69a1,1,0,0,0,.42-.44.93.93,0,0,0,.05-.29,1,1,0,0,0-.05-.3,1.49,1.49,0,0,0-.23-.49L34.1,63.89l.65-.42,2.58,3.9.47.7a6.06,6.06,0,0,0,.46.59,3,3,0,0,0,.47.42.9.9,0,0,0,.48.15h2a4.06,4.06,0,0,0,.67-.07,1.41,1.41,0,0,0,.5-.19.89.89,0,0,0,.31-.38,1.39,1.39,0,0,0,.13-.59V65.71h.78V68a1.16,1.16,0,0,0,.13.58A1.18,1.18,0,0,0,44,69a1.24,1.24,0,0,0,.45.21,2,2,0,0,0,.48.06h1.85a11.69,11.69,0,0,0,2-.15L48.59,69a1.09,1.09,0,0,1-.17-.13,2.74,2.74,0,0,1-.75-.86,2.32,2.32,0,0,1-.25-1.1,2.49,2.49,0,0,1,.18-1,2.24,2.24,0,0,1,1.28-1.21,2.74,2.74,0,0,1,1-.17,1.94,1.94,0,0,1,.89.21,2.24,2.24,0,0,1,.72.54,2.58,2.58,0,0,1,.47.78,2.37,2.37,0,0,1,.18.9,2.51,2.51,0,0,1-.35,1.33,2.81,2.81,0,0,1-1,1,3.58,3.58,0,0,0,.75.31,2.81,2.81,0,0,0,.82.12,2,2,0,0,0,.5-.06,2.05,2.05,0,0,0,.42-.15,1.51,1.51,0,0,0,.32-.22,1.21,1.21,0,0,0,.2-.26,1.92,1.92,0,0,0,.16-.41,2.28,2.28,0,0,0,0-.26,1,1,0,0,0,0-.22,1.48,1.48,0,0,0-.1-.37,3.12,3.12,0,0,0-.27-.5,10.23,10.23,0,0,0-1.08-1.38c-.47-.52-1-1.13-1.7-1.83l.57-.54.95,1,.8.87c.24.28.46.53.64.77s.35.47.49.68a4,4,0,0,1,.33.65A2.39,2.39,0,0,1,54.72,68.06Zm-4.31.46a2,2,0,0,0,.47-.39,1.79,1.79,0,0,0,.32-.53,1.51,1.51,0,0,0,.13-.65,1.64,1.64,0,0,0-.14-.67,1.56,1.56,0,0,0-.34-.52,1.41,1.41,0,0,0-.47-.34,1.44,1.44,0,0,0-.53-.11,1.94,1.94,0,0,0-.77.13,1.38,1.38,0,0,0-.51.36,1.24,1.24,0,0,0-.28.5,1.82,1.82,0,0,0-.09.56,1.57,1.57,0,0,0,.17.73,2,2,0,0,0,.53.62c.13.1.28.2.44.3l.51.29A2.66,2.66,0,0,0,50.41,68.52ZM31.86,48a3.49,3.49,0,0,1-1.08-.17,1.49,1.49,0,0,1-.69-.53,2,2,0,0,1-.32-.86,8.21,8.21,0,0,1-.08-1.18V38.93h.8v6.34a8.7,8.7,0,0,0,0,1,1.22,1.22,0,0,0,.19.6.78.78,0,0,0,.45.31,3.56,3.56,0,0,0,.83.08h.24a9.18,9.18,0,0,0,1.85-.17,6.66,6.66,0,0,0,1.39-.46l-.19-.16-.2-.17c-.24-.2-.48-.4-.7-.6l-.6-.53-.41-.38-.16-.15-.13-.12v-.17a1.69,1.69,0,0,1,.47-1.3A2,2,0,0,1,35,42.56h2.15a1.68,1.68,0,0,1,.5.07,2.07,2.07,0,0,1,.47.18,1.52,1.52,0,0,1,.64.69,1.25,1.25,0,0,1,.14.56,2.64,2.64,0,0,1,0,.36,1.39,1.39,0,0,1-.34.6c-.23.29-.48.58-.74.86a7.66,7.66,0,0,1-.89.8l.06,0c.14.11.27.19.37.26l.25.15.14.07.06,0h2.66a.79.79,0,0,0,.42-.1,1.05,1.05,0,0,0,.32-.34,2.78,2.78,0,0,0,.26-.6l.22-.73q.12-.47.27-.93a3.27,3.27,0,0,1,.42-.86,2.11,2.11,0,0,1,1.84-1,1.82,1.82,0,0,1,.91.24,2.57,2.57,0,0,1,.77.71,3.25,3.25,0,0,1,.46.91,3.29,3.29,0,0,1,.16,1,4.87,4.87,0,0,1,0,.66,4.13,4.13,0,0,1-.14.63,2.44,2.44,0,0,1-.24.57,2,2,0,0,1-.36.45,1.5,1.5,0,0,1-.48.3,1.61,1.61,0,0,1-.63.11,2.56,2.56,0,0,1-.62-.07,6.08,6.08,0,0,1-.64-.22c-.22-.1-.46-.21-.71-.34l-.83-.42a1.54,1.54,0,0,1-1.36.76H37.72l-.17,0a1.13,1.13,0,0,1-.22-.09,1.84,1.84,0,0,1-.33-.18,5.33,5.33,0,0,1-.47-.31l-.18-.13-.2-.15a7,7,0,0,1-1.76.66,10.08,10.08,0,0,1-2.15.22h-.38Zm10.23-1.45.76.39c.23.12.45.23.64.31a4.42,4.42,0,0,0,.56.21,1.71,1.71,0,0,0,.43.06h.07a.85.85,0,0,0,.4-.1,1.11,1.11,0,0,0,.36-.33,2.12,2.12,0,0,0,.25-.6,3.42,3.42,0,0,0,.1-.91,2.35,2.35,0,0,0-.13-.77,2.28,2.28,0,0,0-.34-.7l-.16-.2a1.59,1.59,0,0,0-.24-.2,1.43,1.43,0,0,0-.3-.16.81.81,0,0,0-.35-.07,1.48,1.48,0,0,0-.7.15,1.37,1.37,0,0,0-.47.43,2.87,2.87,0,0,0-.33.68c-.1.27-.19.58-.28.92,0,.15-.09.31-.13.45S42.14,46.42,42.09,46.56Zm-6.56-.94.35.3.32.26a5.46,5.46,0,0,0,.95-.81c.26-.28.51-.57.73-.84a.71.71,0,0,0,.1-.14.51.51,0,0,0,.07-.17.57.57,0,0,0,0-.18.8.8,0,0,0,0-.21.81.81,0,0,0-.36-.35,1.12,1.12,0,0,0-.55-.14H35a1.83,1.83,0,0,0-.51.06.83.83,0,0,0-.34.16.53.53,0,0,0-.17.25,1.14,1.14,0,0,0-.07.34l.27.25.38.35.48.42ZM5.44,42.11l-.8-.8-.39.4-.39.39.79.8Zm34.5,30.37.79.79.79-.79-.8-.79Zm66.53-32-.8-.8-.38.39-.39.4.79.8Zm31.9.43-.78-.79-.79.8.79.79ZM115,50.59a3.83,3.83,0,0,0,.91-2.78V43.72h-.78v4.09a3.15,3.15,0,0,1-.64,2.16,2.75,2.75,0,0,1-2.19.79h-.88v.77h.88A3.59,3.59,0,0,0,115,50.59Zm24.65-11.44-.8-.8-.79.8.8.79Zm-9.15,1.64-.84-.84-.82.83.83.84ZM8,42.12l-.8-.79-.38.39-.39.4.79.79Zm132.13-.45.79-.79-.8-.79-.79.79Zm8.94,21.48-.83-.84-.82.83.83.84ZM56.46,48V38h-.14l-3.39,1.25v.77l2.71-1v9Zm4.48-4.76a.61.61,0,0,0,.43-.15.54.54,0,0,0,.15-.4.55.55,0,0,0-.58-.57.56.56,0,0,0-.43.17.59.59,0,0,0-.15.4.54.54,0,0,0,.15.4A.59.59,0,0,0,60.94,43.26ZM15.15,38.93h-.79v7h.79Zm45.77,9.14a.58.58,0,0,0,.43-.15.54.54,0,0,0,.16-.4.57.57,0,0,0-.16-.41.54.54,0,0,0-.43-.16.57.57,0,0,0-.43.16.62.62,0,0,0-.15.42.56.56,0,0,0,.15.39A.61.61,0,0,0,60.92,48.07Zm43-7.62-.8-.79-.39.39-.39.4.79.79ZM79.55,47.08a5.3,5.3,0,0,1-.8-3.11V42.19A5.46,5.46,0,0,1,79.53,39a2.94,2.94,0,0,1,4.53,0,5.14,5.14,0,0,1,.8,3.07v1.83a5.44,5.44,0,0,1-.77,3.19,2.59,2.59,0,0,1-2.27,1.09A2.66,2.66,0,0,1,79.55,47.08Zm0-3.12a4.79,4.79,0,0,0,.58,2.6,1.86,1.86,0,0,0,1.68.9,1.82,1.82,0,0,0,1.65-.88A4.81,4.81,0,0,0,84,44V42.08a4.85,4.85,0,0,0-.55-2.58,2,2,0,0,0-3.35,0A4.64,4.64,0,0,0,79.56,42Zm59,24.2a2.34,2.34,0,0,0-.16-.83,5.34,5.34,0,0,0-1.15-1.69c-.59-.63-1.12-1.16-1.58-1.58l-1.11-1,5.33-2.35L139.6,60l-5.92,2.61-.08.67.24.19c.15.12.37.3.64.55s.61.54,1,.9.79.77,1.24,1.25l.46.52a4.29,4.29,0,0,1,.39.59,2.16,2.16,0,0,1,.21.52,1.68,1.68,0,0,1,0,.32,1,1,0,0,1-.08.38.88.88,0,0,1-.48.47,2.78,2.78,0,0,1-.94.21l-.59,0-.71,0h-5a1.53,1.53,0,0,1-.47-.07,1.14,1.14,0,0,1-.41-.24,1.17,1.17,0,0,1-.29-.44,1.62,1.62,0,0,1-.12-.66,3,3,0,0,1,0-.4c0-.14.05-.29.08-.44s.06-.29.1-.44a3.49,3.49,0,0,1,.1-.38l.07-.27,0-.1-.74-.24a1.36,1.36,0,0,0-.05.14c0,.07,0,.17-.08.29s-.07.26-.1.42-.08.31-.11.48-.06.32-.08.48a3.93,3.93,0,0,0,0,.46,2.68,2.68,0,0,0,.06.59,2.76,2.76,0,0,0,.15.46,1.9,1.9,0,0,0,.21.35,1.42,1.42,0,0,0,.23.25,1.89,1.89,0,0,0,.64.41,2.29,2.29,0,0,0,.78.14h5.73l.61,0a4.55,4.55,0,0,0,.66-.1,2.75,2.75,0,0,0,.59-.21,2.09,2.09,0,0,0,.49-.35,1.87,1.87,0,0,0,.34-.52A1.9,1.9,0,0,0,138.58,68.16Zm-17.52-6.1-.39.4.79.8.79-.79-.81-.8A4.75,4.75,0,0,1,121.06,62.06Zm30.68,10.27.74.75.74-.74-.75-.75ZM142,69.8a3.21,3.21,0,0,1-.64,2.18,2.77,2.77,0,0,1-2.18.78h-.89v.77h.89a3.58,3.58,0,0,0,2.69-.94,3.83,3.83,0,0,0,.91-2.79V65.72H142ZM122.61,44.4a4.88,4.88,0,0,1,.14,1.25v2.47a3.51,3.51,0,0,1-.29,1.49,2.75,2.75,0,0,1-.84,1.07,3.69,3.69,0,0,1-1.32.64,6.33,6.33,0,0,1-1.68.21h-.36v-.78h.36a7.94,7.94,0,0,0,1.39-.16,2.89,2.89,0,0,0,1-.44,2.11,2.11,0,0,0,.67-.83A3.27,3.27,0,0,0,122,48h-1.45a3.52,3.52,0,0,1-1-.15,2.53,2.53,0,0,1-.87-.43,2.25,2.25,0,0,1-.59-.74,2.46,2.46,0,0,1-.22-1.05,5.35,5.35,0,0,1,.14-1.24,2.87,2.87,0,0,1,.43-1,2.11,2.11,0,0,1,.77-.65,2.73,2.73,0,0,1,1.13-.27,2.89,2.89,0,0,1,1.13.26,2.21,2.21,0,0,1,.77.65A2.87,2.87,0,0,1,122.61,44.4ZM122,45.65a6.38,6.38,0,0,0-.09-.93,2.54,2.54,0,0,0-.27-.75,1.41,1.41,0,0,0-.51-.49,1.66,1.66,0,0,0-.82-.17,1.77,1.77,0,0,0-.81.17,1.39,1.39,0,0,0-.52.5,2.1,2.1,0,0,0-.27.74,4.6,4.6,0,0,0-.08.93,1.65,1.65,0,0,0,.15.74,1.27,1.27,0,0,0,.43.49,1.77,1.77,0,0,0,.64.27,3.31,3.31,0,0,0,.79.08H122Zm11.82,14.91,0,.66L139.08,59l-.26-.52Zm19.92,5.63c-.05-.24-.09-.47-.14-.69l-.14-.6-.76.23c0,.17.09.36.13.56s.09.42.13.63.08.44.11.66,0,.43,0,.64v0a2.48,2.48,0,0,1-.06.54,2,2,0,0,1-.24.51,1.33,1.33,0,0,1-.39.36,1.1,1.1,0,0,1-.54.16h-1.76a2,2,0,0,1-.48-.06,1.24,1.24,0,0,1-.45-.21,1.35,1.35,0,0,1-.33-.38,1.28,1.28,0,0,1-.12-.58V65.72h-.79V69.8a3.26,3.26,0,0,1-.63,2.18,2.81,2.81,0,0,1-2.19.78h-.89v.77h.89a3.57,3.57,0,0,0,2.69-.94,3.83,3.83,0,0,0,.92-2.79v-.2a2.41,2.41,0,0,0,1.38.42h1.76a1.73,1.73,0,0,0,.85-.21,2.11,2.11,0,0,0,.64-.55,2.54,2.54,0,0,0,.39-.77,2.8,2.8,0,0,0,.14-.85v0c0-.22,0-.45-.06-.7S153.74,66.42,153.71,66.19Zm-11-21.57c0-.21-.08-.41-.13-.61l-.13-.54c0-.16-.08-.28-.11-.39s-.05-.16-.05-.17l-.75.23s0,0,0,.14l.1.36.13.5.12.58a5.86,5.86,0,0,1,.1.58,3.08,3.08,0,0,1,0,.51,1.62,1.62,0,0,1-.12.66,1.2,1.2,0,0,1-.31.44,1.1,1.1,0,0,1-.42.24,1.48,1.48,0,0,1-.46.08h0c-1,0-1.53-.48-1.53-1.42V43.72h-.78v2.09a1.64,1.64,0,0,1-.12.67,1.2,1.2,0,0,1-.33.43,1.24,1.24,0,0,1-.43.25,1.59,1.59,0,0,1-.48.07c-1,0-1.52-.48-1.52-1.42V43.72h-.79v2.09a1.64,1.64,0,0,1-.12.67,1.18,1.18,0,0,1-.32.43,1.29,1.29,0,0,1-.44.25,1.53,1.53,0,0,1-.47.07H132a2.12,2.12,0,0,1-.49-.06,1.19,1.19,0,0,1-.44-.21,1.18,1.18,0,0,1-.32-.38,1.16,1.16,0,0,1-.13-.58V43.71h-.78V46a1.39,1.39,0,0,1-.13.59.87.87,0,0,1-.31.37,1.25,1.25,0,0,1-.5.2,4.18,4.18,0,0,1-.67.07h-1.09a3.56,3.56,0,0,1-.83-.08.78.78,0,0,1-.45-.31,1.22,1.22,0,0,1-.19-.6,8.7,8.7,0,0,1,0-1V38.93h-.8v6.34a8.21,8.21,0,0,0,.08,1.18,2,2,0,0,0,.32.86,1.47,1.47,0,0,0,.7.53A3.32,3.32,0,0,0,127,48h1.19a3.66,3.66,0,0,0,1.19-.19,2,2,0,0,0,.82-.6,1.92,1.92,0,0,0,.28.3,2.39,2.39,0,0,0,.67.36A2.69,2.69,0,0,0,132,48h1.34a2.3,2.3,0,0,0,.79-.14,1.86,1.86,0,0,0,.66-.4l.15-.14.15-.18.08.12.1.11A2.4,2.4,0,0,0,137,48a2.36,2.36,0,0,0,.8-.14,2,2,0,0,0,.69-.4l.14-.14.15-.18.09.12.09.11a2.39,2.39,0,0,0,1.77.63h0a2.14,2.14,0,0,0,.76-.14,2,2,0,0,0,.64-.4,1.94,1.94,0,0,0,.23-.25,1.55,1.55,0,0,0,.21-.36,1.91,1.91,0,0,0,.16-.46,2.74,2.74,0,0,0,.06-.59,4,4,0,0,0,0-.57C142.75,45,142.72,44.83,142.68,44.62Zm41.11,5.71.74.75.74-.74-.75-.75Zm2.07-5.43c0-.24-.07-.48-.1-.71s-.09-.47-.14-.69l-.14-.6-.76.23c0,.17.09.36.13.56s.09.42.13.63.08.44.11.66,0,.43,0,.64v0a2,2,0,0,1-.07.54,1.69,1.69,0,0,1-.23.51,1.33,1.33,0,0,1-.39.36,1.1,1.1,0,0,1-.54.16h-1.55a3.56,3.56,0,0,1-.83-.08.78.78,0,0,1-.45-.31,1.22,1.22,0,0,1-.19-.6,8.7,8.7,0,0,1,0-1V38.93H180v6.34a8.21,8.21,0,0,0,.08,1.18,2,2,0,0,0,.32.86,1.47,1.47,0,0,0,.7.53,3.32,3.32,0,0,0,1.11.17h1.65a1.73,1.73,0,0,0,.85-.21,2.11,2.11,0,0,0,.64-.55,2.54,2.54,0,0,0,.39-.77,2.8,2.8,0,0,0,.14-.85v0C185.91,45.38,185.89,45.15,185.86,44.9Zm-15.52,1.15a1.93,1.93,0,0,1,0,.24,2.68,2.68,0,0,1,0,.45,2,2,0,0,1-.23.59,1.55,1.55,0,0,1-.37.48,2,2,0,0,1-.51.34,2.46,2.46,0,0,1-.61.22,2.81,2.81,0,0,1-.65.07,3,3,0,0,1-.66-.07,4.91,4.91,0,0,1-.63-.17c-.21-.08-.41-.16-.62-.26l-.61-.29a8.05,8.05,0,0,1-1.35.27,13.8,13.8,0,0,1-1.65.1h-1.13a2.55,2.55,0,0,1-.74-.11,2,2,0,0,1-.64-.32v.22a3.84,3.84,0,0,1-.92,2.78,3.57,3.57,0,0,1-2.69.94h-.89v-.77h.89a2.75,2.75,0,0,0,2.19-.79,3.2,3.2,0,0,0,.63-2.16V43.72h.79V46a1.28,1.28,0,0,0,.12.58,1.35,1.35,0,0,0,.33.38,1.17,1.17,0,0,0,.45.21,2,2,0,0,0,.48.06h1.13a11.61,11.61,0,0,0,2-.15l-.19-.13a1.09,1.09,0,0,1-.17-.13,2.74,2.74,0,0,1-.75-.86,2.44,2.44,0,0,1-.25-1.1,2.49,2.49,0,0,1,.18-1,2.24,2.24,0,0,1,1.28-1.21,2.74,2.74,0,0,1,1-.17,1.91,1.91,0,0,1,.89.21,2.13,2.13,0,0,1,.72.54,2.58,2.58,0,0,1,.47.78,2.33,2.33,0,0,1,.18.9,2.51,2.51,0,0,1-.35,1.33,2.73,2.73,0,0,1-1,.95,3.58,3.58,0,0,0,.75.31,2.86,2.86,0,0,0,.82.12,2.1,2.1,0,0,0,.51-.06,2.19,2.19,0,0,0,.41-.15,1.29,1.29,0,0,0,.32-.22,1.21,1.21,0,0,0,.2-.26,1.51,1.51,0,0,0,.16-.41,2.28,2.28,0,0,0,0-.26,2,2,0,0,0,0-.22,1.59,1.59,0,0,0-.11-.37,2.49,2.49,0,0,0-.27-.5,10.23,10.23,0,0,0-1.08-1.38c-.47-.52-1-1.13-1.7-1.83l.57-.54.95,1,.8.87c.24.27.46.53.65.77a7.94,7.94,0,0,1,.48.69,3.55,3.55,0,0,1,.33.64A2.43,2.43,0,0,1,170.34,46.05Zm-4.31.47a1.86,1.86,0,0,0,.48-.4,1.82,1.82,0,0,0,.32-.52A1.67,1.67,0,0,0,167,45a1.82,1.82,0,0,0-.13-.67,1.74,1.74,0,0,0-.34-.52,1.45,1.45,0,0,0-.48-.34,1.23,1.23,0,0,0-.53-.11,2,2,0,0,0-.77.13,1.35,1.35,0,0,0-.79.86,1.82,1.82,0,0,0-.09.56,1.57,1.57,0,0,0,.17.73,2,2,0,0,0,.53.62,3.76,3.76,0,0,0,.44.3l.51.29A2.44,2.44,0,0,0,166,46.52Zm-10.19.17a2.37,2.37,0,0,1-.46.8,1.6,1.6,0,0,1-.63.44,1.94,1.94,0,0,1-.71.13h-.15l-.23,0-.33-.1-.47-.18-.46-.2-.58-.28-.63-.3-.62-.31-.54-.29a2.94,2.94,0,0,1-.41-.22v6.73h-.78V45.64l.72-.44.54.29c.26.15.57.31.93.5.11-.56.22-1,.33-1.4a4.46,4.46,0,0,1,.39-1,2.41,2.41,0,0,1,.78-.88,2,2,0,0,1,1.12-.3,1.81,1.81,0,0,1,1,.28,2.5,2.5,0,0,1,.74.71,3.21,3.21,0,0,1,.46,1,4,4,0,0,1,.16,1.06A3.55,3.55,0,0,1,155.84,46.69Zm-.61-1.21a2.76,2.76,0,0,0-.11-.8,2.34,2.34,0,0,0-.31-.72,1.63,1.63,0,0,0-.49-.52,1.13,1.13,0,0,0-.67-.2,1.33,1.33,0,0,0-.65.15,1.53,1.53,0,0,0-.51.53,4.3,4.3,0,0,0-.4,1,14.35,14.35,0,0,0-.33,1.46l1.11.52.68.28a2.42,2.42,0,0,0,.36.11l.13,0a1,1,0,0,0,.56-.15,1.26,1.26,0,0,0,.37-.39,2,2,0,0,0,.2-.58A3.66,3.66,0,0,0,155.23,45.48Zm17,2.54h.8V38.93h-.8ZM91.88,66.19c0-.24-.09-.47-.14-.69l-.14-.6-.76.23c0,.17.09.36.14.56s.09.42.13.63.07.44.1.66,0,.43.05.64v0a2.5,2.5,0,0,1-.07.54,2,2,0,0,1-.24.51,1.33,1.33,0,0,1-.39.36,1.07,1.07,0,0,1-.54.16H88.1a2.71,2.71,0,0,1-.71-.09,1.66,1.66,0,0,1-.57-.26,1.24,1.24,0,0,1-.38-.44,1.25,1.25,0,0,1-.14-.59l.45-.33.48-.34-.11-.71-.34-.14-.57-.23-.74-.31-.82-.33-.86-.33L83,64.85c-.25-.08-.48-.14-.69-.19a2.11,2.11,0,0,0-.5-.07,1.59,1.59,0,0,0-.7.14,1.82,1.82,0,0,0-.56.39,2.38,2.38,0,0,0-.43.56,3.91,3.91,0,0,0-.27.7l.76.19a2,2,0,0,1,.47-.88,1,1,0,0,1,.72-.32,1.7,1.7,0,0,1,.43.07l.64.19.79.27.89.33.93.36.9.35c-.39.26-.77.51-1.12.72a11.37,11.37,0,0,1-1.07.59,10.34,10.34,0,0,1-1.09.44,9.87,9.87,0,0,1-1.22.31,11.46,11.46,0,0,1-1.43.17c-.49,0-1.06.06-1.7.06a3.4,3.4,0,0,1-.8-.08.78.78,0,0,1-.45-.31,1.25,1.25,0,0,1-.19-.6,8.81,8.81,0,0,1,0-1V60.93h-.8v6.34a8.32,8.32,0,0,0,.08,1.18,2,2,0,0,0,.32.86,1.47,1.47,0,0,0,.7.53,3.23,3.23,0,0,0,1.09.17h.21c.53,0,1,0,1.45-.05s.93-.08,1.34-.14.8-.15,1.16-.24.69-.21,1-.33a8.63,8.63,0,0,0,.92-.43c.3-.16.59-.33.88-.51a2.19,2.19,0,0,0,.23.68,2.13,2.13,0,0,0,.46.54,1.81,1.81,0,0,0,.37.2,3.24,3.24,0,0,0,.47.16,4.54,4.54,0,0,0,.51.09,3.91,3.91,0,0,0,.46,0H90a1.7,1.7,0,0,0,.85-.21,2,2,0,0,0,.64-.55,2.35,2.35,0,0,0,.4-.77,3.13,3.13,0,0,0,.13-.85v0c0-.22,0-.45-.06-.7S91.92,66.42,91.88,66.19ZM77.11,43.87a5.52,5.52,0,0,1-.77,3.19,2.93,2.93,0,0,1-4.54,0A5.22,5.22,0,0,1,71,44V42.19A5.46,5.46,0,0,1,71.77,39a2.94,2.94,0,0,1,4.53,0A5.21,5.21,0,0,1,77.11,42Zm-.82-1.79a4.84,4.84,0,0,0-.56-2.58,1.85,1.85,0,0,0-1.68-.88,1.87,1.87,0,0,0-1.67.86A4.65,4.65,0,0,0,71.81,42v2a4.89,4.89,0,0,0,.57,2.6,1.89,1.89,0,0,0,1.68.9,1.85,1.85,0,0,0,1.66-.88A5,5,0,0,0,76.29,44Zm6.13,30.21.74.75.73-.73-.75-.75Zm9.16-10.07-.84-.84-.81.83.82.84ZM61.33,67l-.82-1.25c-.24-.35-.43-.65-.6-.9l-.4-.61-.27-.41-.17-.26L59,63.42l-.66.42.21.33,0,0,.11.16.23.34c.09.15.22.35.38.59s.36.54.6.89.51.78.84,1.26a1.45,1.45,0,0,1,.22.47,1.8,1.8,0,0,1,0,.27.92.92,0,0,1-.06.33.94.94,0,0,1-.4.44,1.93,1.93,0,0,1-.7.25,3.88,3.88,0,0,1-.7.06H59a5.69,5.69,0,0,1-.83-.06A4.92,4.92,0,0,1,57.4,69a2.84,2.84,0,0,1-.63-.27l-.34-.21-.4.68.33.2a5,5,0,0,0,.76.33,5.27,5.27,0,0,0,.93.22,6.58,6.58,0,0,0,1,.08,4.79,4.79,0,0,0,.88-.08,2.73,2.73,0,0,0,1.06-.4,1.75,1.75,0,0,0,.63-.75,1.78,1.78,0,0,0,.13-.64,2.11,2.11,0,0,0,0-.25A2.26,2.26,0,0,0,61.33,67Zm13-.61a3.59,3.59,0,0,1,.16,1.06,3.83,3.83,0,0,1-.17,1.21,2.37,2.37,0,0,1-.46.8,1.76,1.76,0,0,1-.63.44,2,2,0,0,1-.72.13h-.15l-.22,0-.33-.1-.48-.18-.46-.2-.57-.27-.63-.31-.62-.31-.55-.28-.41-.22v6.71h-.78v-7.2l.72-.44.55.3.93.48a10.87,10.87,0,0,1,.33-1.38,4.35,4.35,0,0,1,.39-1,2.41,2.41,0,0,1,.78-.88,2,2,0,0,1,1.12-.3,1.83,1.83,0,0,1,1,.28,2.5,2.5,0,0,1,.74.71A3.31,3.31,0,0,1,74.36,66.42Zm-.62,1.06a3.21,3.21,0,0,0-.11-.8,2.61,2.61,0,0,0-.31-.72,1.66,1.66,0,0,0-.5-.52,1.08,1.08,0,0,0-.66-.2,1.29,1.29,0,0,0-.66.16,1.32,1.32,0,0,0-.5.52,3.88,3.88,0,0,0-.4,1,12.08,12.08,0,0,0-.33,1.46l1.1.52.68.28a2.42,2.42,0,0,0,.36.11l.13,0a1,1,0,0,0,.56-.15,1.15,1.15,0,0,0,.37-.39,1.74,1.74,0,0,0,.21-.58A3.66,3.66,0,0,0,73.74,67.48ZM63.63,39.28v.77l2.71-1v9h.82V38H67Zm45.5,25.19h-.06a3,3,0,0,0-.67.07,3.4,3.4,0,0,0-.71.2,3.61,3.61,0,0,0-.65.33,3.7,3.7,0,0,0-.57.46,3.16,3.16,0,0,0-.58.74,3.34,3.34,0,0,0-.36.85,2.91,2.91,0,0,0-.12.69v.27a3.5,3.5,0,0,0,.12.91l.06.22,3.68,1a2.17,2.17,0,0,1,0,.26v.19a2.64,2.64,0,0,1-.08.49,2.48,2.48,0,0,1-.17.48,1.56,1.56,0,0,1-.26.39,2,2,0,0,1-.83.54,3.56,3.56,0,0,1-1.28.19h-1.58a2.77,2.77,0,0,1-1.32-.32,2.54,2.54,0,0,1-1-.9,2.78,2.78,0,0,1-.38-.94,4.4,4.4,0,0,1-.1-.93c0-.12,0-.25,0-.38a6.75,6.75,0,0,1,.26-1.39,8.86,8.86,0,0,1,.6-1.52l-.71-.34a8.49,8.49,0,0,0-.94,3.4,2.09,2.09,0,0,0,0,.25,4.66,4.66,0,0,0,.12,1.06,3.63,3.63,0,0,0,1,1.88,3.5,3.5,0,0,0,.71.5,3.33,3.33,0,0,0,.79.31,3.44,3.44,0,0,0,.84.1h1.63a5.34,5.34,0,0,0,.81,0,3,3,0,0,0,.73-.17,2.62,2.62,0,0,0,.65-.32,2.73,2.73,0,0,0,.56-.52,1.9,1.9,0,0,0,.3-.5,3.06,3.06,0,0,0,.2-.58c0-.2.08-.39.11-.58a4.57,4.57,0,0,0,0-.49,2.46,2.46,0,0,0,0-.28.58.58,0,0,0-.09-.25.64.64,0,0,0-.22-.21,1.71,1.71,0,0,0-.4-.17l-.41-.1-.56-.16-.64-.17-.62-.16-.52-.14-.33-.09a3.27,3.27,0,0,1,0-.53A2.76,2.76,0,0,1,108,65.47a3,3,0,0,1,1.16-.21,3.79,3.79,0,0,1,1,.15l.22-.75a3.88,3.88,0,0,0-.64-.14A4.46,4.46,0,0,0,109.13,64.47ZM91.82,39a5.21,5.21,0,0,1,.8,3.07v1.83a5.52,5.52,0,0,1-.77,3.19,2.6,2.6,0,0,1-2.28,1.09,2.64,2.64,0,0,1-2.26-1.07,5.3,5.3,0,0,1-.8-3.11V42.19A5.54,5.54,0,0,1,87.28,39a3,3,0,0,1,4.54,0Zm0,3.11a4.75,4.75,0,0,0-.56-2.58,1.85,1.85,0,0,0-1.68-.88,1.88,1.88,0,0,0-1.67.86A4.74,4.74,0,0,0,87.32,42v2a4.79,4.79,0,0,0,.58,2.6,2,2,0,0,0,3.33,0A4.81,4.81,0,0,0,91.8,44Zm29.81,24.11c0-.24-.08-.47-.13-.69l-.14-.6-.76.23c0,.17.09.36.13.56s.09.42.13.63.08.44.11.66,0,.43,0,.64v0a2,2,0,0,1-.07.54,1.5,1.5,0,0,1-.24.51,1.19,1.19,0,0,1-.38.36,1.1,1.1,0,0,1-.54.16H117a2,2,0,0,1-.49-.06,1.32,1.32,0,0,1-.45-.21,1.18,1.18,0,0,1-.32-.38,1.16,1.16,0,0,1-.13-.58V65.72h-.78V69.8a3.26,3.26,0,0,1-.64,2.18,2.78,2.78,0,0,1-2.19.78h-.88v.77H112a3.59,3.59,0,0,0,2.7-.94,3.87,3.87,0,0,0,.91-2.79v-.2a2.53,2.53,0,0,0,.64.31A2.56,2.56,0,0,0,117,70h2.74a1.73,1.73,0,0,0,.85-.21,2.11,2.11,0,0,0,.64-.55,2.54,2.54,0,0,0,.39-.77,2.8,2.8,0,0,0,.14-.85v0c0-.22,0-.45-.06-.7S121.65,66.42,121.61,66.19Zm-2.75-4.53-.38.39-.39.4.78.79.79-.78ZM104,48a1.76,1.76,0,0,0,.85-.21,2,2,0,0,0,.63-.55,2.35,2.35,0,0,0,.4-.77,2.79,2.79,0,0,0,.13-.85v0a5.91,5.91,0,0,0,0-.7c0-.24-.07-.48-.11-.71a7,7,0,0,0-.14-.69c0-.22-.09-.42-.14-.6l-.75.23c0,.17.08.36.13.56s.09.42.13.63.08.44.1.66a4.72,4.72,0,0,1,0,.64v0a2,2,0,0,1-.07.54,1.5,1.5,0,0,1-.24.51,1.12,1.12,0,0,1-.39.36,1,1,0,0,1-.53.16h-2.54a3.56,3.56,0,0,1-.83-.08.78.78,0,0,1-.45-.31,1.22,1.22,0,0,1-.19-.6,8.7,8.7,0,0,1,0-1V38.93h-.8v6.34a8.21,8.21,0,0,0,.08,1.18,2,2,0,0,0,.32.86,1.47,1.47,0,0,0,.7.53,3.3,3.3,0,0,0,1.1.17H104ZM94,70h.79V60.93H94Z"/><path class="cls-2" d="M63.25,0h2.48V8.07c0,.39,0,.8,0,1.21a10.39,10.39,0,0,1-.17,1.23,6.08,6.08,0,0,1-.36,1.17,4.79,4.79,0,0,1-.6,1A4.52,4.52,0,0,1,62.61,14a8.9,8.9,0,0,1-3,.43H55.34V11.93h4.29a7.36,7.36,0,0,0,1.87-.19,2.19,2.19,0,0,0,1.1-.65,2.46,2.46,0,0,0,.52-1.19,11.5,11.5,0,0,0,.13-1.83ZM74.88,17.9l1.82,1.84,1.82-1.82-1.84-1.84ZM59,10.28,58.36.1,55.89.39l.65,9.89ZM125.25,0V14.42h2.49V0Zm-2.7,10.31a4.14,4.14,0,0,1,.06.7,4,4,0,0,1-.21,1.26,3.77,3.77,0,0,1-.59,1.1,4,4,0,0,1-.93.86,4.51,4.51,0,0,1-1.26.56,6,6,0,0,1-1.56.2,8.61,8.61,0,0,1-1.49-.14A5.89,5.89,0,0,1,115,14.3l-.35-.16-.31-.14-.27-.14a12.52,12.52,0,0,1-2.13.43,22.5,22.5,0,0,1-2.57.13h-1.13a6.06,6.06,0,0,1-.76-.05,1.7,1.7,0,0,1-.71-.28,7.45,7.45,0,0,1-.59,2.34,5.67,5.67,0,0,1-1.26,1.79,5.42,5.42,0,0,1-1.87,1.16,7,7,0,0,1-2.45.41H99.35V17.3h1.25a6.24,6.24,0,0,0,1.66-.2,2.51,2.51,0,0,0,1.82-1.78,6.1,6.1,0,0,0,.22-1.72V7.51h2.49v3a1.27,1.27,0,0,0,.19.74,1.56,1.56,0,0,0,.45.44,1.59,1.59,0,0,0,.5.2l.33,0h2.4l.44,0a6.06,6.06,0,0,1-.47-.59,3.15,3.15,0,0,1-.57-1.27,3.71,3.71,0,0,1-.07-.78,3.58,3.58,0,0,1,.31-1.51,3.52,3.52,0,0,1,.87-1.18,3.91,3.91,0,0,1,1.3-.76,4.47,4.47,0,0,1,1.61-.28,3.69,3.69,0,0,1,1.72.39,4.12,4.12,0,0,1,1.27,1,4.27,4.27,0,0,1,.78,1.26,3.46,3.46,0,0,1,.27,1.27,4,4,0,0,1-.1.88,3.78,3.78,0,0,1-.26.76,4.69,4.69,0,0,1-.42.67c-.17.21-.36.42-.56.63.2.07.42.13.64.19a2.87,2.87,0,0,0,.64.08,3.77,3.77,0,0,0,.65,0,1.8,1.8,0,0,0,.64-.18,1.63,1.63,0,0,0,.54-.37,1.49,1.49,0,0,0,.36-.63,1.35,1.35,0,0,0,0-.29,2.21,2.21,0,0,0-.16-.69,6.41,6.41,0,0,0-.59-1.07,15.72,15.72,0,0,0-1.06-1.43c-.41-.53-.87-1.1-1.37-1.72l-1-1.29L118,3.49l1.32,1.74c.18.25.38.52.59.79l.64.83.64.85c.2.28.4.55.6.8A4.48,4.48,0,0,1,122.55,10.31Zm-6.78-.87a1.58,1.58,0,0,0-.17-.74,1.92,1.92,0,0,0-.44-.53,1.94,1.94,0,0,0-.56-.31,1.58,1.58,0,0,0-.52-.1,1.84,1.84,0,0,0-.66.12,1.79,1.79,0,0,0-.55.33,1.61,1.61,0,0,0-.39.47,1.25,1.25,0,0,0-.13.57,1.53,1.53,0,0,0,.46,1.18,3.09,3.09,0,0,0,.58.46,9.16,9.16,0,0,0,.81.48,5,5,0,0,0,.59-.34,2.42,2.42,0,0,0,.51-.43,2.06,2.06,0,0,0,.35-.52A1.66,1.66,0,0,0,115.77,9.44Zm-36-.69c0-.31-.1-.62-.16-.93L79.48,7l-.15-.64L79.25,6l-2.35.71c0,.1.06.24.11.43s.09.38.14.61.09.46.14.7.1.5.14.74.07.47.09.68,0,.38,0,.53a1.81,1.81,0,0,1-.17.84,1.37,1.37,0,0,1-.4.45,1.24,1.24,0,0,1-.45.19l-.34,0H73.87a8.9,8.9,0,0,1-1.32-.08,1.26,1.26,0,0,1-.71-.35,1.35,1.35,0,0,1-.29-.75,11.2,11.2,0,0,1,0-1.28V0H69V9.47c0,.56,0,1.07,0,1.53a5.57,5.57,0,0,0,.23,1.25,2.72,2.72,0,0,0,.49,1,2.61,2.61,0,0,0,.87.68,5.11,5.11,0,0,0,1.33.4,12.15,12.15,0,0,0,1.49.12h2.66a4.12,4.12,0,0,0,1.37-.24,3.63,3.63,0,0,0,1.24-.73,3.83,3.83,0,0,0,.89-1.24A4.46,4.46,0,0,0,80,10.42c0-.22,0-.48,0-.77S79.85,9.05,79.8,8.75ZM99.7,13.1a3.17,3.17,0,0,1-.66.8,2.77,2.77,0,0,1-.74.45,3.05,3.05,0,0,1-.72.21c-.24,0-.44,0-.6,0a3.31,3.31,0,0,1-1-.16A11.58,11.58,0,0,1,94.88,14c-.4-.17-.83-.37-1.27-.6l-1.33-.69-.47-.24-.42-.22-.41-.2a4.71,4.71,0,0,0-.45-.22c0,1.51,0,3,0,4.52s0,3,0,4.5H88.13V10.51l2.34-1.42,1.62.81a11.52,11.52,0,0,1,.45-1.68,4.86,4.86,0,0,1,.75-1.45,3.37,3.37,0,0,1,1.18-1,3.52,3.52,0,0,1,1.64-.35h.1A4.06,4.06,0,0,1,98,5.8a3.65,3.65,0,0,1,1.29,1,4.64,4.64,0,0,1,.8,1.49,5.88,5.88,0,0,1,.27,1.79,7.63,7.63,0,0,1-.18,1.78A4.38,4.38,0,0,1,99.7,13.1Zm-1.58-3a2.16,2.16,0,0,0,0-.29,3,3,0,0,0-.1-.44,3.47,3.47,0,0,0-.2-.5,1.94,1.94,0,0,0-.34-.47,1.77,1.77,0,0,0-.5-.34,1.52,1.52,0,0,0-.69-.14l-.37,0a1,1,0,0,0-.39.12,1.24,1.24,0,0,0-.38.29,2,2,0,0,0-.37.53,4.57,4.57,0,0,0-.33.86A11,11,0,0,0,94.15,11c.26.14.52.28.79.41l.79.36a6.86,6.86,0,0,0,.7.26,2.15,2.15,0,0,0,.55.09l.27,0a.6.6,0,0,0,.38-.19,1.5,1.5,0,0,0,.34-.6A3.83,3.83,0,0,0,98.12,10.09Z"/></svg>