<svg width="69" height="72" viewBox="0 0 69 72" fill="none" xmlns="http://www.w3.org/2000/svg">
<path d="M26.7891 37.0447L31.9224 41.8889L44.4305 29.5254" stroke="#0D67F9" stroke-width="2" stroke-miterlimit="10" stroke-linecap="round"/>
<path d="M52.3827 51.722H17.3167C14.7861 51.722 12.7617 49.6975 12.7617 47.167V23.7415C12.7617 21.211 14.7861 19.1865 17.3167 19.1865H52.3827C54.9132 19.1865 56.9376 21.211 56.9376 23.7415V47.167C57.0099 49.6975 54.9132 51.722 52.3827 51.722Z" stroke="#0D67F9" stroke-width="2" stroke-miterlimit="10" stroke-linecap="round"/>
<path d="M34.8867 51.7939V64.4466" stroke="#0D67F9" stroke-width="2" stroke-miterlimit="10" stroke-linecap="round"/>
<path d="M34.8862 70.5927C36.4834 70.5927 37.7782 69.2979 37.7782 67.7006C37.7782 66.1034 36.4834 64.8086 34.8862 64.8086C33.289 64.8086 31.9941 66.1034 31.9941 67.7006C31.9941 69.2979 33.289 70.5927 34.8862 70.5927Z" stroke="#0D67F9" stroke-width="2" stroke-miterlimit="10" stroke-linecap="round"/>
<path d="M22.0881 65.3874C10.1584 60.3986 1.69922 48.5412 1.69922 34.8041C1.69922 20.9946 10.1584 9.13721 22.0881 4.14844" stroke="#0D67F9" stroke-width="2" stroke-miterlimit="10" stroke-linecap="round"/>
<path d="M47.6094 4.14844C59.6113 9.13721 67.9983 20.9946 67.9983 34.8041C67.9983 48.6135 59.6113 60.3986 47.6094 65.3874" stroke="#0D67F9" stroke-width="2" stroke-miterlimit="10" stroke-linecap="round"/>
<path d="M20.7872 9.9326L22.5948 3.78702L16.5215 1.97949" stroke="#0D67F9" stroke-width="2.1693" stroke-miterlimit="10" stroke-linecap="round" stroke-linejoin="round"/>
<path d="M48.2607 60.1816L46.3086 66.2549L52.3096 68.207" stroke="#0D67F9" stroke-width="2.1693" stroke-miterlimit="10" stroke-linecap="round" stroke-linejoin="round"/>
</svg>
