<svg width="81" height="68" viewBox="0 0 81 68" fill="none" xmlns="http://www.w3.org/2000/svg">
<path d="M40.6053 58.815C54.2278 58.815 65.2711 47.7718 65.2711 34.1492C65.2711 20.5267 54.2278 9.4834 40.6053 9.4834C26.9827 9.4834 15.9395 20.5267 15.9395 34.1492C15.9395 47.7718 26.9827 58.815 40.6053 58.815Z" stroke="#0D67F9" stroke-width="2" stroke-miterlimit="10" stroke-linecap="round"/>
<path d="M40.6035 1.97949C58.3907 1.97949 72.7733 16.3621 72.7733 34.1493V64.9989" stroke="#0D67F9" stroke-width="2" stroke-miterlimit="10" stroke-linecap="round"/>
<path d="M40.6034 66.3192C22.8162 66.3192 8.43359 51.9366 8.43359 34.1495V4.68945" stroke="#0D67F9" stroke-width="2" stroke-miterlimit="10" stroke-linecap="round"/>
<path d="M79.9995 58.6758L72.6345 66.0408L65.2695 58.6758" stroke="#0D67F9" stroke-width="2" stroke-miterlimit="10" stroke-linecap="round"/>
<path d="M15.7995 10.3171L8.365 2.95215L1 10.3171" stroke="#0D67F9" stroke-width="2" stroke-miterlimit="10" stroke-linecap="round"/>
<path d="M40.5349 23.5186C44.8711 23.5186 48.3863 22.6787 48.3863 21.6426C48.3863 20.6065 44.8711 19.7666 40.5349 19.7666C36.1987 19.7666 32.6835 20.6065 32.6835 21.6426C32.6835 22.6787 36.1987 23.5186 40.5349 23.5186Z" stroke="#0D67F9" stroke-opacity="0.5" stroke-width="2" stroke-miterlimit="10" stroke-linecap="round"/>
<path d="M32.6137 21.6426V23.866C32.6137 23.866 32.2663 28.3822 36.0877 30.9531C37.9637 32.2037 38.867 33.6628 39.2144 34.844H41.7852C42.2021 33.6628 43.0359 32.2037 44.9119 30.9531C48.7333 28.3822 48.3859 23.866 48.3859 23.866V21.6426" stroke="#0D67F9" stroke-width="2" stroke-miterlimit="10" stroke-linecap="round"/>
<path d="M40.535 49.8516C44.8712 49.8516 48.3863 49.0117 48.3863 47.9756C48.3863 46.9395 44.8712 46.0996 40.535 46.0996C36.1988 46.0996 32.6836 46.9395 32.6836 47.9756C32.6836 49.0117 36.1988 49.8516 40.535 49.8516Z" stroke="#0D67F9" stroke-opacity="0.5" stroke-width="2" stroke-miterlimit="10" stroke-linecap="round"/>
<path d="M32.6137 47.9758V45.7524C32.6137 45.7524 32.2663 41.2362 36.0877 38.6654C37.9637 37.4147 38.867 35.9556 39.2144 34.7744H41.7852C42.2021 35.9556 43.0359 37.4147 44.9119 38.6654C48.7333 41.2362 48.3859 45.7524 48.3859 45.7524V47.9758" stroke="#0D67F9" stroke-width="2" stroke-miterlimit="10" stroke-linecap="round"/>
</svg>
