<svg width="63" height="65" viewBox="0 0 63 65" fill="none" xmlns="http://www.w3.org/2000/svg">
<path d="M1 32.4932C1 15.663 14.6699 1.99316 31.5 1.99316C48.3301 1.99316 62 15.663 62 32.4932C62 49.3233 48.3301 62.9932 31.5 62.9932" stroke="#0D67F9" stroke-width="2" stroke-miterlimit="10" stroke-linecap="round"/>
<path d="M31.793 10.2246V29.921" stroke="#0D67F9" stroke-width="2" stroke-miterlimit="10" stroke-linecap="round"/>
<path d="M31.7942 35.1392C33.2554 35.1392 34.44 33.9547 34.44 32.4934C34.44 31.0322 33.2554 29.8477 31.7942 29.8477C30.333 29.8477 29.1484 31.0322 29.1484 32.4934C29.1484 33.9547 30.333 35.1392 31.7942 35.1392Z" stroke="#0D67F9" stroke-width="2" stroke-miterlimit="10" stroke-linecap="round"/>
<path d="M34.4395 32.4932H48.1093" stroke="#0D67F9" stroke-width="2" stroke-miterlimit="10" stroke-linecap="round"/>
<path d="M31.5 1.99316V4.78594" stroke="#0D67F9" stroke-width="2" stroke-miterlimit="10" stroke-linecap="round"/>
<path d="M53.0332 10.8857L51.0488 12.8701" stroke="#0D67F9" stroke-width="2" stroke-miterlimit="10" stroke-linecap="round"/>
<path d="M61.9991 32.4932H59.1328" stroke="#0D67F9" stroke-width="2" stroke-miterlimit="10" stroke-linecap="round"/>
<path d="M53.0332 54.0263L51.0488 52.042" stroke="#0D67F9" stroke-width="2" stroke-miterlimit="10" stroke-linecap="round"/>
<path d="M31.4998 62.9932H1.58777" stroke="#0D67F9" stroke-width="2" stroke-miterlimit="10" stroke-linecap="round"/>
<path d="M31.5 51.3809V62.9929" stroke="#0D67F9" stroke-width="2" stroke-miterlimit="10" stroke-linecap="round"/>
<path d="M1 32.4932H3.79277" stroke="#0D67F9" stroke-width="2" stroke-miterlimit="10" stroke-linecap="round"/>
<path d="M9.8927 10.8857L11.877 12.8701" stroke="#0D67F9" stroke-width="2" stroke-miterlimit="10" stroke-linecap="round"/>
<path d="M4.89453 63.066V47.7793" stroke="#0D67F9" stroke-width="2" stroke-miterlimit="10" stroke-linecap="round"/>
<path d="M11.5098 63.0662V43.4434" stroke="#0D67F9" stroke-width="2" stroke-miterlimit="10" stroke-linecap="round"/>
<path d="M24.8125 63.0669V46.6777" stroke="#0D67F9" stroke-width="2" stroke-miterlimit="10" stroke-linecap="round"/>
<path d="M18.1973 63.0669V34.6982" stroke="#0D67F9" stroke-width="2" stroke-miterlimit="10" stroke-linecap="round"/>
</svg>
