<svg width="86" height="81" viewBox="0 0 86 81" fill="none" xmlns="http://www.w3.org/2000/svg">
<path d="M36.9053 9.69727C36.9053 9.69727 36.6536 16.4087 37.7442 18.0865C38.8348 19.7643 46.1334 22.2811 43.1133 26.8113C40.0932 31.3415 33.8851 31.2576 32.2073 35.7878C30.5294 40.318 23.2308 37.7173 23.2308 38.5562C23.2308 39.3951 27.6771 43.9253 28.2643 45.8549C28.8516 47.7844 25.9993 50.3012 22.6436 47.5327C19.2879 44.7643 18.1973 42.7508 18.1973 42.7508" stroke="#0D67F9" stroke-width="2" stroke-miterlimit="10" stroke-linecap="round"/>
<path d="M52.0059 22.2817C52.0059 22.2817 55.6132 22.8689 53.432 25.0501C51.1669 27.3152 53.6837 32.0971 58.2139 28.4058C62.6602 24.7985 64.4219 33.1877 63.8347 21.9461L62.7441 20.0166" stroke="#0D67F9" stroke-width="2" stroke-miterlimit="10" stroke-linecap="round"/>
<path d="M36.9058 53.4055L32.9629 49.4625C32.9629 49.4625 33.5501 44.6807 37.1575 44.6807C40.7649 44.6807 41.3521 47.1974 41.3521 47.1974C41.3521 47.1974 43.6172 45.5196 44.4561 47.7847C45.2951 50.0498 50.9159 47.7847 51.5031 51.1404C52.0903 54.4961 49.238 55.335 47.5602 57.8518C45.8823 60.3685 44.2045 64.0598 40.8488 63.2209" stroke="#0D67F9" stroke-width="2" stroke-miterlimit="10" stroke-linecap="round"/>
<path d="M39.6742 57.3486L33.55 68.8419H9.72461V79.2445H27.342L27.0903 69.1774" stroke="#0D67F9" stroke-width="2" stroke-miterlimit="10" stroke-linecap="round"/>
<path d="M54.4395 44.8486L61.3186 57.1808H84.7246V67.4157H65.9327V57.5164" stroke="#0D67F9" stroke-width="2" stroke-miterlimit="10" stroke-linecap="round"/>
<path d="M57.375 19.3452L63.8347 11.3754H84.3044V1.97949H66.6032V10.956" stroke="#0D67F9" stroke-width="2" stroke-miterlimit="10" stroke-linecap="round"/>
<path d="M29.1878 27.0633L24.406 18.0868H1V8.1875H19.3724V17.2479" stroke="#0D67F9" stroke-width="2" stroke-miterlimit="10" stroke-linecap="round"/>
<path d="M30.3622 65.9056C20.2951 61.1238 13.332 50.8889 13.332 38.9762C13.332 32.9359 15.0938 27.3152 18.1978 22.6172" stroke="#0D67F9" stroke-width="2" stroke-miterlimit="10" stroke-linecap="round"/>
<path d="M61.3189 62.4658C56.2854 66.4088 49.9095 68.7577 43.0304 68.7577C41.6042 68.7577 40.0941 68.6739 38.668 68.4222" stroke="#0D67F9" stroke-width="2" stroke-miterlimit="10" stroke-linecap="round"/>
<path d="M64.6738 18.5059C69.7074 23.875 72.8114 31.0058 72.8114 38.9756C72.8114 44.093 71.553 48.9588 69.204 53.1534" stroke="#0D67F9" stroke-width="2" stroke-miterlimit="10" stroke-linecap="round"/>
<path d="M27.2578 13.8085C31.8719 10.9562 37.241 9.27832 43.1135 9.27832C48.4826 9.27832 53.6 10.7045 57.9624 13.2213" stroke="#0D67F9" stroke-width="2" stroke-miterlimit="10" stroke-linecap="round"/>
</svg>
